<svg xmlns="http://www.w3.org/2000/svg" xmlns:xlink="http://www.w3.org/1999/xlink" viewBox="0 0 245.52 352.34"><defs><style>.cls-1,.cls-10{fill:none;}.cls-2{isolation:isolate;}.cls-3{clip-path:url(#clip-path);}.cls-4{opacity:0.28;mix-blend-mode:overlay;}.cls-13,.cls-5{fill:#fff;}.cls-6{fill:url(#linear-gradient);}.cls-7{fill:url(#linear-gradient-2);}.cls-8{clip-path:url(#clip-path-2);}.cls-9{fill:url(#linear-gradient-3);}.cls-10{stroke-linecap:round;stroke-linejoin:round;stroke-width:2px;stroke:url(#linear-gradient-4);}.cls-11{fill:url(#linear-gradient-5);}.cls-12{font-size:30px;fill:#f5cb16;font-family:Roboto-Regular, Roboto;}.cls-13{opacity:0.16;mix-blend-mode:hard-light;}.cls-14{fill:url(#linear-gradient-6);}.cls-15{clip-path:url(#clip-path-3);}</style><clipPath id="clip-path"><path class="cls-1" d="M-36.95,262.26V89.75a11.38,11.38,0,0,1,3.54-8.26,17.53,17.53,0,0,0,5.35-12.7V22.69A17.73,17.73,0,0,0-45.79,5h-201.3a17.74,17.74,0,0,0-17.74,17.74v46.1a17.54,17.54,0,0,0,5.36,12.7,11.38,11.38,0,0,1,3.54,8.26V262.26a11.38,11.38,0,0,1-3.54,8.26,17.54,17.54,0,0,0-5.36,12.7v46.11a17.73,17.73,0,0,0,17.74,17.73h201.3a17.73,17.73,0,0,0,17.73-17.73V283.22a17.53,17.53,0,0,0-5.35-12.7A11.38,11.38,0,0,1-36.95,262.26Z"/></clipPath><linearGradient id="linear-gradient" x1="-20.38" y1="34.67" x2="262.28" y2="317.34" gradientUnits="userSpaceOnUse"><stop offset="0" stop-color="#fff"/><stop offset="0.5" stop-color="#e5e5e5"/><stop offset="1" stop-color="#c7c7c7"/></linearGradient><linearGradient id="linear-gradient-2" x1="120.95" y1="0.26" x2="120.95" y2="351.44" gradientUnits="userSpaceOnUse"><stop offset="0" stop-color="#f5cb16"/><stop offset="0.28" stop-color="#fef687"/><stop offset="0.34" stop-color="#f5e063"/><stop offset="0.42" stop-color="#ebc83c"/><stop offset="0.48" stop-color="#e5b924"/><stop offset="0.52" stop-color="#e3b31b"/><stop offset="0.65" stop-color="#f0d24e"/><stop offset="0.79" stop-color="#fff585"/><stop offset="0.87" stop-color="#fbe254"/><stop offset="0.96" stop-color="#f7d227"/><stop offset="1" stop-color="#f5cb16"/></linearGradient><clipPath id="clip-path-2"><path class="cls-1" d="M230.44,262.26V89.75A11.38,11.38,0,0,1,234,81.49a17.53,17.53,0,0,0,5.35-12.7V22.69A17.73,17.73,0,0,0,221.6,5H20.3A17.74,17.74,0,0,0,2.56,22.69v46.1a17.54,17.54,0,0,0,5.36,12.7,11.38,11.38,0,0,1,3.54,8.26V262.26a11.38,11.38,0,0,1-3.54,8.26,17.54,17.54,0,0,0-5.36,12.7v46.11A17.73,17.73,0,0,0,20.3,347.06H221.6a17.73,17.73,0,0,0,17.73-17.73V283.22a17.53,17.53,0,0,0-5.35-12.7A11.38,11.38,0,0,1,230.44,262.26Z"/></clipPath><linearGradient id="linear-gradient-3" x1="-4.36" y1="50.7" x2="246.26" y2="301.31" gradientUnits="userSpaceOnUse"><stop offset="0" stop-color="#8c0f02"/><stop offset="1" stop-color="#ff1124"/></linearGradient><linearGradient id="linear-gradient-4" x1="-5.06" y1="49.99" x2="246.96" y2="302.02" gradientUnits="userSpaceOnUse"><stop offset="0" stop-color="#c7c7c7"/><stop offset="0.5" stop-color="#e5e5e5"/><stop offset="1" stop-color="#fff"/></linearGradient><linearGradient id="linear-gradient-5" x1="92.66" y1="35.34" x2="149.24" y2="35.34" xlink:href="#linear-gradient-3"/><linearGradient id="linear-gradient-6" x1="113.88" y1="-67.53" x2="364.49" y2="183.08" xlink:href="#linear-gradient"/><clipPath id="clip-path-3"><path class="cls-1" d="M497.83,262.26V89.75a11.38,11.38,0,0,1,3.54-8.26,17.54,17.54,0,0,0,5.36-12.7V22.69A17.74,17.74,0,0,0,489,5H287.69A17.74,17.74,0,0,0,270,22.69v46.1a17.54,17.54,0,0,0,5.36,12.7,11.38,11.38,0,0,1,3.54,8.26V262.26a11.38,11.38,0,0,1-3.54,8.26,17.54,17.54,0,0,0-5.36,12.7v46.11a17.74,17.74,0,0,0,17.74,17.73H489a17.74,17.74,0,0,0,17.74-17.73V283.22a17.54,17.54,0,0,0-5.36-12.7A11.38,11.38,0,0,1,497.83,262.26Z"/></clipPath></defs><g class="cls-2"><g id="Layer_1" data-name="Layer 1"><g class="cls-3"><g class="cls-4"><path class="cls-5" d="M3.23-.83A1.31,1.31,0,0,1,2,.51,1.36,1.36,0,0,1,.54-.81a1.35,1.35,0,0,1,1.4-1.34A1.32,1.32,0,0,1,3.23-.83Z"/><path class="cls-5" d="M.65,5.65a1.24,1.24,0,0,1,1.27-1.3A1.29,1.29,0,0,1,3.17,5.57a1.28,1.28,0,0,1-1.29,1.3A1.23,1.23,0,0,1,.65,5.65Z"/><path class="cls-5" d="M1.92,11A1.13,1.13,0,0,1,3,12.24a1.1,1.1,0,0,1-1.14,1,1.18,1.18,0,0,1-1.12-1.1A1.19,1.19,0,0,1,1.92,11Z"/><path class="cls-5" d="M8.41.31A1.11,1.11,0,0,1,7.33-.79,1.08,1.08,0,0,1,8.48-1.93,1.14,1.14,0,0,1,9.59-.84,1.17,1.17,0,0,1,8.41.31Z"/><path class="cls-5" d="M8.43,6.63a1.07,1.07,0,0,1-1-1,1.09,1.09,0,0,1,1-1,1,1,0,0,1,1,1A1,1,0,0,1,8.43,6.63Z"/><path class="cls-5" d="M1.9,17.71a1,1,0,0,1,1,1.06,1,1,0,0,1-1,.93,1,1,0,0,1,0-2Z"/><path class="cls-5" d="M9.32,12.2A.94.94,0,0,1,8.4,13a.88.88,0,0,1,.08-1.76A.93.93,0,0,1,9.32,12.2Z"/><path class="cls-5" d="M15.82-.71a.84.84,0,0,1-1,.7.8.8,0,0,1-.65-.92.8.8,0,0,1,1-.7A.83.83,0,0,1,15.82-.71Z"/><path class="cls-5" d="M1.9,25.94a.77.77,0,0,1-.79-.81.79.79,0,0,1,.8-.8.81.81,0,1,1,0,1.61Z"/><path class="cls-5" d="M15.68,5.81a2.27,2.27,0,0,1-.71.48.6.6,0,0,1-.66-.71A1.21,1.21,0,0,1,15,4.94C15.31,4.82,15.67,5.2,15.68,5.81Z"/><path class="cls-5" d="M9.44,18.64c-.45.35-.68.67-1,.74s-.64-.16-.7-.56S8,18,8.36,18A4.16,4.16,0,0,1,9.44,18.64Z"/><path class="cls-5" d="M2.75,31.61c-.38.31-.59.61-.8.61a.84.84,0,0,1-.59-.49.45.45,0,0,1,.49-.59C2.1,31.16,2.32,31.38,2.75,31.61Z"/><path class="cls-5" d="M15,11.46c.23.31.47.48.5.68a.43.43,0,0,1-.56.5.69.69,0,0,1-.43-.52C14.5,12,14.76,11.76,15,11.46Z"/><path class="cls-5" d="M8.5,24.49c.18.31.39.51.39.71s-.29.28-.45.42c-.15-.18-.38-.35-.42-.55S8.26,24.76,8.5,24.49Z"/><path class="cls-5" d="M15.23,18.65l-.36.26c0-.08-.14-.18-.13-.25a.34.34,0,0,1,.21-.21C15,18.44,15.09,18.55,15.23,18.65Z"/></g></g><path class="cls-6" d="M221.6,349.63H20.3A20.33,20.33,0,0,1,0,329.33V283.22a20.16,20.16,0,0,1,6.15-14.55,8.79,8.79,0,0,0,2.74-6.41V89.75a8.79,8.79,0,0,0-2.74-6.41A20.14,20.14,0,0,1,0,68.79V22.69A20.33,20.33,0,0,1,20.3,2.38H221.6a20.33,20.33,0,0,1,20.3,20.31v46.1a20.14,20.14,0,0,1-6.15,14.55A8.8,8.8,0,0,0,233,89.75V262.26a8.8,8.8,0,0,0,2.75,6.41,20.16,20.16,0,0,1,6.15,14.55v46.11A20.33,20.33,0,0,1,221.6,349.63ZM20.3,7.51A15.19,15.19,0,0,0,5.13,22.69v46.1A15,15,0,0,0,9.69,79.63,13.88,13.88,0,0,1,14,89.75V262.26a13.88,13.88,0,0,1-4.33,10.12,15,15,0,0,0-4.56,10.84v46.11A15.19,15.19,0,0,0,20.3,344.5H221.6a15.19,15.19,0,0,0,15.17-15.17V283.22a15,15,0,0,0-4.56-10.84,13.88,13.88,0,0,1-4.33-10.12V89.75a13.88,13.88,0,0,1,4.33-10.12,15,15,0,0,0,4.56-10.84V22.69A15.2,15.2,0,0,0,221.6,7.51Z"/><path class="cls-7" d="M230.44,262.26V89.75A11.38,11.38,0,0,1,234,81.49a17.53,17.53,0,0,0,5.35-12.7V22.69A17.73,17.73,0,0,0,221.6,5H20.3A17.74,17.74,0,0,0,2.56,22.69v46.1a17.54,17.54,0,0,0,5.36,12.7,11.38,11.38,0,0,1,3.54,8.26V262.26a11.38,11.38,0,0,1-3.54,8.26,17.54,17.54,0,0,0-5.36,12.7v46.11A17.73,17.73,0,0,0,20.3,347.06H221.6a17.73,17.73,0,0,0,17.73-17.73V283.22a17.53,17.53,0,0,0-5.35-12.7A11.38,11.38,0,0,1,230.44,262.26Z"/><g class="cls-8"><g class="cls-4"><path class="cls-5" d="M181.07-.8A2.77,2.77,0,0,1,178.29,2a2.82,2.82,0,0,1-2.76-2.81,2.81,2.81,0,0,1,2.81-2.76A2.75,2.75,0,0,1,181.07-.8Z"/><path class="cls-5" d="M171.92-3.58a2.73,2.73,0,0,1,2.71,2.8A2.77,2.77,0,0,1,171.84,2a2.82,2.82,0,0,1-2.73-2.82A2.78,2.78,0,0,1,171.92-3.58Z"/><path class="cls-5" d="M182.13-.86a2.7,2.7,0,0,1,2.81-2.7,2.76,2.76,0,0,1,2.7,2.73,2.81,2.81,0,0,1-2.79,2.77A2.73,2.73,0,0,1,182.13-.86Z"/><path class="cls-5" d="M165.34,1.91a2.69,2.69,0,0,1-2.72-2.79,2.67,2.67,0,0,1,2.72-2.66,2.74,2.74,0,0,1,2.75,2.78A2.76,2.76,0,0,1,165.34,1.91Z"/><path class="cls-5" d="M194.13-.81a2.68,2.68,0,0,1-2.67,2.7,2.73,2.73,0,0,1-2.79-2.72,2.73,2.73,0,0,1,2.69-2.7A2.68,2.68,0,0,1,194.13-.81Z"/><path class="cls-5" d="M195.16-.83a2.66,2.66,0,0,1,2.7-2.66,2.65,2.65,0,0,1,2.67,2.68,2.65,2.65,0,0,1-2.69,2.66A2.65,2.65,0,0,1,195.16-.83Z"/><path class="cls-5" d="M161.58-.72a2.64,2.64,0,0,1-2.78,2.57,2.66,2.66,0,0,1-2.58-2.78A2.66,2.66,0,0,1,159-3.49,2.65,2.65,0,0,1,161.58-.72Z"/><path class="cls-5" d="M178.31,3A2.68,2.68,0,0,1,181,5.65a2.65,2.65,0,0,1-2.65,2.6,2.6,2.6,0,0,1-2.64-2.68A2.62,2.62,0,0,1,178.31,3Z"/><path class="cls-5" d="M171.87,3a2.69,2.69,0,0,1,2.68,2.69,2.66,2.66,0,0,1-2.65,2.6,2.6,2.6,0,0,1-2.64-2.68A2.61,2.61,0,0,1,171.87,3Z"/><path class="cls-5" d="M187.49,5.68a2.6,2.6,0,0,1-2.66,2.57,2.67,2.67,0,0,1-2.62-2.65A2.69,2.69,0,0,1,185,3,2.63,2.63,0,0,1,187.49,5.68Z"/><path class="cls-5" d="M152.31,1.81a2.6,2.6,0,0,1-2.57-2.65,2.63,2.63,0,0,1,2.61-2.62A2.69,2.69,0,0,1,155-.74,2.68,2.68,0,0,1,152.31,1.81Z"/><path class="cls-5" d="M188.8,5.62A2.62,2.62,0,0,1,191.41,3a2.69,2.69,0,0,1,2.64,2.63,2.67,2.67,0,0,1-2.63,2.63A2.62,2.62,0,0,1,188.8,5.62Z"/><path class="cls-5" d="M168,5.61a2.62,2.62,0,0,1-2.61,2.63,2.67,2.67,0,0,1-2.64-2.62A2.69,2.69,0,0,1,165.33,3,2.62,2.62,0,0,1,168,5.61Z"/><path class="cls-5" d="M207-.81a2.6,2.6,0,0,1-2.62,2.61,2.66,2.66,0,0,1-2.63-2.63,2.68,2.68,0,0,1,2.65-2.62A2.62,2.62,0,0,1,207-.81Z"/><path class="cls-5" d="M161.49,5.57A2.58,2.58,0,1,1,158.92,3,2.63,2.63,0,0,1,161.49,5.57Z"/><path class="cls-5" d="M197.81,3a2.6,2.6,0,1,1-2.54,2.69A2.6,2.6,0,0,1,197.81,3Z"/><path class="cls-5" d="M148.47-.78a2.56,2.56,0,0,1-2.55,2.53A2.6,2.6,0,0,1,143.36-.8,2.61,2.61,0,0,1,146-3.39,2.55,2.55,0,0,1,148.47-.78Z"/><path class="cls-5" d="M208.29-.87a2.53,2.53,0,0,1,2.59-2.5,2.58,2.58,0,0,1,2.5,2.61,2.6,2.6,0,0,1-2.61,2.5A2.54,2.54,0,0,1,208.29-.87Z"/><path class="cls-5" d="M154.87,5.62a2.51,2.51,0,0,1-2.54,2.53,2.58,2.58,0,0,1-2.51-2.6,2.53,2.53,0,0,1,2.51-2.45A2.47,2.47,0,0,1,154.87,5.62Z"/><path class="cls-5" d="M180.83,12.15a2.49,2.49,0,0,1-2.54,2.53,2.55,2.55,0,0,1-2.52-2.57,2.58,2.58,0,0,1,2.51-2.48A2.51,2.51,0,0,1,180.83,12.15Z"/><path class="cls-5" d="M184.82,9.63a2.53,2.53,0,1,1,.09,5,2.5,2.5,0,0,1-2.55-2.42A2.53,2.53,0,0,1,184.82,9.63Z"/><path class="cls-5" d="M174.39,12.18a2.5,2.5,0,0,1-2.47,2.5,2.53,2.53,0,1,1-.07-5A2.51,2.51,0,0,1,174.39,12.18Z"/><path class="cls-5" d="M201.89,5.58a2.46,2.46,0,0,1,2.48-2.47,2.55,2.55,0,0,1,2.56,2.54,2.57,2.57,0,0,1-2.52,2.48A2.49,2.49,0,0,1,201.89,5.58Z"/><path class="cls-5" d="M162.85,12.16a2.51,2.51,0,0,1,2.46-2.51,2.51,2.51,0,1,1,0,5A2.49,2.49,0,0,1,162.85,12.16Z"/><path class="cls-5" d="M193.9,12.17a2.5,2.5,0,0,1-2.47,2.49,2.51,2.51,0,1,1,0-5A2.51,2.51,0,0,1,193.9,12.17Z"/><path class="cls-5" d="M139.38,1.64a2.44,2.44,0,0,1-2.47-2.46,2.45,2.45,0,0,1,2.47-2.46,2.46,2.46,0,0,1,2.48,2.46A2.46,2.46,0,0,1,139.38,1.64Z"/><path class="cls-5" d="M158.85,9.68a2.48,2.48,0,1,1-2.41,2.56A2.48,2.48,0,0,1,158.85,9.68Z"/><path class="cls-5" d="M145.89,3.16a2.45,2.45,0,1,1,0,4.9,2.45,2.45,0,0,1,0-4.9Z"/><path class="cls-5" d="M217.35-3.27a2.45,2.45,0,0,1,2.49,2.46,2.44,2.44,0,0,1-2.5,2.43,2.42,2.42,0,0,1-2.43-2.39A2.43,2.43,0,0,1,217.35-3.27Z"/><path class="cls-5" d="M195.4,12.21a2.45,2.45,0,1,1,2.53,2.42A2.48,2.48,0,0,1,195.4,12.21Z"/><path class="cls-5" d="M210.82,3.18a2.4,2.4,0,0,1,2.43,2.37A2.39,2.39,0,0,1,210.83,8a2.43,2.43,0,1,1,0-4.86Z"/><path class="cls-5" d="M175.93,18.73a2.4,2.4,0,0,1,2.37-2.43,2.41,2.41,0,1,1,0,4.81A2.38,2.38,0,0,1,175.93,18.73Z"/><path class="cls-5" d="M152.45,9.77a2.42,2.42,0,0,1,2.34,2.48,2.46,2.46,0,0,1-2.52,2.32,2.39,2.39,0,0,1-2.3-2.5A2.35,2.35,0,0,1,152.45,9.77Z"/><path class="cls-5" d="M204.38,9.78a2.34,2.34,0,0,1,2.4,2.37,2.38,2.38,0,0,1-2.38,2.41A2.44,2.44,0,0,1,202,12.17,2.41,2.41,0,0,1,204.38,9.78Z"/><path class="cls-5" d="M187.24,18.7a2.38,2.38,0,0,1-2.4,2.4,2.43,2.43,0,0,1-2.38-2.45,2.46,2.46,0,0,1,2.37-2.35A2.4,2.4,0,0,1,187.24,18.7Z"/><path class="cls-5" d="M169.51,18.69a2.39,2.39,0,0,1,2.42-2.38,2.4,2.4,0,0,1,0,4.79A2.38,2.38,0,0,1,169.51,18.69Z"/><path class="cls-5" d="M223.86,1.56a2.4,2.4,0,0,1-2.42-2.27,2.4,2.4,0,0,1,2.31-2.49,2.42,2.42,0,0,1,2.43,2.38A2.41,2.41,0,0,1,223.86,1.56Z"/><path class="cls-5" d="M217.38,8a2.38,2.38,0,0,1,0-4.76,2.38,2.38,0,0,1,0,4.76Z"/><path class="cls-5" d="M193.78,18.87a2.37,2.37,0,1,1-2.26-2.54A2.4,2.4,0,0,1,193.78,18.87Z"/><path class="cls-5" d="M165.35,16.32a2.4,2.4,0,0,1,2.35,2.45,2.37,2.37,0,1,1-4.73-.13A2.42,2.42,0,0,1,165.35,16.32Z"/><path class="cls-5" d="M132.87-3.21a2.44,2.44,0,0,1,2.35,2.45,2.43,2.43,0,0,1-2.48,2.33,2.4,2.4,0,0,1-2.28-2.4A2.4,2.4,0,0,1,132.87-3.21Z"/><path class="cls-5" d="M141.75,5.61A2.38,2.38,0,0,1,139.35,8,2.43,2.43,0,0,1,137,5.67a2.44,2.44,0,0,1,2.36-2.45A2.4,2.4,0,0,1,141.75,5.61Z"/><path class="cls-5" d="M197.81,21.05a2.35,2.35,0,0,1,.06-4.69,2.35,2.35,0,0,1-.06,4.69Z"/><path class="cls-5" d="M158.9,21.05a2.35,2.35,0,0,1,0-4.69,2.35,2.35,0,0,1,0,4.69Z"/><path class="cls-5" d="M145.91,14.48a2.31,2.31,0,0,1-2.33-2.3,2.34,2.34,0,1,1,4.68,0A2.28,2.28,0,0,1,145.91,14.48Z"/><path class="cls-5" d="M210.85,9.84a2.32,2.32,0,1,1,0,4.64,2.32,2.32,0,0,1,0-4.64Z"/><path class="cls-5" d="M139.33,9.87a2.29,2.29,0,0,1,.15,4.57,2.29,2.29,0,0,1-.15-4.57Z"/><path class="cls-5" d="M135.1,5.67a2.26,2.26,0,0,1-2.27,2.23,2.33,2.33,0,0,1-2.3-2.35,2.3,2.3,0,0,1,2.3-2.21A2.23,2.23,0,0,1,135.1,5.67Z"/><path class="cls-5" d="M154.63,18.72A2.27,2.27,0,0,1,152.4,21a2.34,2.34,0,0,1-2.35-2.3,2.3,2.3,0,0,1,2.37-2.26A2.23,2.23,0,0,1,154.63,18.72Z"/><path class="cls-5" d="M204.46,16.45a2.26,2.26,0,0,1-.08,4.52,2.26,2.26,0,1,1,.08-4.52Z"/><path class="cls-5" d="M126.44-3.08A2.22,2.22,0,0,1,128.66-.8a2.24,2.24,0,0,1-2.25,2.25,2.3,2.3,0,0,1-2.3-2.34A2.29,2.29,0,0,1,126.44-3.08Z"/><path class="cls-5" d="M226.06,5.56a2.23,2.23,0,0,1-2.18,2.32,2.3,2.3,0,0,1-2.37-2.27,2.27,2.27,0,0,1,2.27-2.25A2.21,2.21,0,0,1,226.06,5.56Z"/><path class="cls-5" d="M184.81,27.37a2.23,2.23,0,1,1,.11-4.46,2.23,2.23,0,1,1-.11,4.46Z"/><path class="cls-5" d="M180.57,25.15a2.22,2.22,0,0,1-2.27,2.24,2.25,2.25,0,1,1,0-4.5A2.21,2.21,0,0,1,180.57,25.15Z"/><path class="cls-5" d="M171.93,22.9a2.24,2.24,0,1,1-2.31,2.2A2.25,2.25,0,0,1,171.93,22.9Z"/><path class="cls-5" d="M217.36,14.42a2.27,2.27,0,1,1,2.26-2.25A2.26,2.26,0,0,1,217.36,14.42Z"/><path class="cls-5" d="M230.39-3a2.24,2.24,0,0,1,2.22,2.27,2.23,2.23,0,0,1-2.3,2.19A2.21,2.21,0,0,1,228.1-.86,2.21,2.21,0,0,1,230.39-3Z"/><path class="cls-5" d="M165.31,27.36a2.22,2.22,0,1,1,2.27-2.22A2.21,2.21,0,0,1,165.31,27.36Z"/><path class="cls-5" d="M191.41,27.35a2.22,2.22,0,1,1,0-4.43,2.22,2.22,0,1,1,0,4.43Z"/><path class="cls-5" d="M146,20.92a2.22,2.22,0,1,1,0-4.43,2.22,2.22,0,1,1,0,4.43Z"/><path class="cls-5" d="M210.8,20.91a2.21,2.21,0,1,1,0-4.41,2.21,2.21,0,0,1,0,4.41Z"/><path class="cls-5" d="M158.94,27.33a2.2,2.2,0,1,1,0-4.39,2.2,2.2,0,0,1,0,4.39Z"/><path class="cls-5" d="M197.84,27.32a2.19,2.19,0,0,1-.05-4.37,2.19,2.19,0,1,1,.05,4.37Z"/><path class="cls-5" d="M128.6,5.59a2.21,2.21,0,0,1-2.17,2.2,2.18,2.18,0,0,1-.05-4.36A2.23,2.23,0,0,1,128.6,5.59Z"/><path class="cls-5" d="M232.5,5.6a2.15,2.15,0,0,1-2.17,2.18,2.2,2.2,0,0,1-2.17-2.21,2.25,2.25,0,0,1,2.15-2.14A2.16,2.16,0,0,1,232.5,5.6Z"/><path class="cls-5" d="M130.67,12.12A2.14,2.14,0,0,1,132.88,10,2.19,2.19,0,0,1,135,12.2a2.24,2.24,0,0,1-2.24,2.15A2.17,2.17,0,0,1,130.67,12.12Z"/><path class="cls-5" d="M226,12.15a2.21,2.21,0,0,1-2.2,2.18,2.15,2.15,0,0,1-2.14-2.1A2.12,2.12,0,0,1,223.76,10,2.18,2.18,0,0,1,226,12.15Z"/><path class="cls-5" d="M152.35,23a2.17,2.17,0,1,1,0,4.33,2.17,2.17,0,0,1,0-4.33Z"/><path class="cls-5" d="M122-.85a2.15,2.15,0,0,1-2.14,2.19,2.2,2.2,0,0,1-2.18-2.19A2.24,2.24,0,0,1,119.79-3,2.16,2.16,0,0,1,122-.85Z"/><path class="cls-5" d="M141.52,18.73a2.14,2.14,0,0,1-2.19,2.14,2.17,2.17,0,0,1,0-4.33A2.14,2.14,0,0,1,141.52,18.73Z"/><path class="cls-5" d="M206.53,25.15a2.15,2.15,0,0,1-2.1,2.14,2.19,2.19,0,0,1-2.2-2.16A2.22,2.22,0,0,1,204.35,23,2.16,2.16,0,0,1,206.53,25.15Z"/><path class="cls-5" d="M239-.81a2.2,2.2,0,0,1-2.12,2.14,2.15,2.15,0,0,1-2.15-2.21A2.16,2.16,0,0,1,236.93-3,2.19,2.19,0,0,1,239-.81Z"/><path class="cls-5" d="M217.41,20.85a2.15,2.15,0,1,1,0-4.29,2.15,2.15,0,0,1,0,4.29Z"/><path class="cls-5" d="M178.34,33.79a2.11,2.11,0,1,1,2.09-2.13A2.09,2.09,0,0,1,178.34,33.79Z"/><path class="cls-5" d="M171.88,33.78a2.1,2.1,0,1,1,0-4.19,2.1,2.1,0,1,1,0,4.19Z"/><path class="cls-5" d="M185,29.59a2.09,2.09,0,1,1-.26,4.18,2,2,0,0,1-2-2.21A2.06,2.06,0,0,1,185,29.59Z"/><path class="cls-5" d="M163.26,31.58a2.06,2.06,0,0,1,2.21-2,2.09,2.09,0,0,1-.2,4.17A2.06,2.06,0,0,1,163.26,31.58Z"/><path class="cls-5" d="M145.9,23a2.08,2.08,0,0,1,2.1,2.11,2.1,2.1,0,0,1-2,2.1,2.15,2.15,0,0,1-2.18-2.06A2.13,2.13,0,0,1,145.9,23Z"/><path class="cls-5" d="M128.46,12.11a2,2,0,0,1-2,2.12,2.08,2.08,0,1,1-.11-4.15A2,2,0,0,1,128.46,12.11Z"/><path class="cls-5" d="M193.47,31.7a2,2,0,0,1-2,2.06,2.08,2.08,0,1,1,0-4.15A2,2,0,0,1,193.47,31.7Z"/><path class="cls-5" d="M212.92,25.14a2.13,2.13,0,0,1-2.15,2.09,2.07,2.07,0,0,1-2-2.09,2.05,2.05,0,0,1,2-2.08A2.11,2.11,0,0,1,212.92,25.14Z"/><path class="cls-5" d="M230.34,10.09a2.07,2.07,0,1,1,0,4.13,2,2,0,0,1-2.07-2.1A2,2,0,0,1,230.34,10.09Z"/><path class="cls-5" d="M199.88,31.66a2,2,0,0,1-2,2.08,2.09,2.09,0,0,1-2.13-2.08,2.12,2.12,0,0,1,2.07-2A2,2,0,0,1,199.88,31.66Z"/><path class="cls-5" d="M161,31.69a2.09,2.09,0,0,1-2,2.05,2,2,0,0,1-2.06-2.12,2,2,0,0,1,2.08-2A2.11,2.11,0,0,1,161,31.69Z"/><path class="cls-5" d="M134.88,18.74a2,2,0,0,1-2,2,2.07,2.07,0,1,1,.06-4.13A2,2,0,0,1,134.88,18.74Z"/><path class="cls-5" d="M119.88,7.69a2.06,2.06,0,0,1-2.08-2,2,2,0,0,1,2-2.15,2.1,2.1,0,0,1,2.11,2A2.12,2.12,0,0,1,119.88,7.69Z"/><path class="cls-5" d="M236.89,3.59a2,2,0,0,1,2,2,2,2,0,0,1-2,2,2.07,2.07,0,0,1-2.08-2A2.06,2.06,0,0,1,236.89,3.59Z"/><path class="cls-5" d="M225.83,18.72a2,2,0,0,1-2,2,2,2,0,1,1,0-4.06A2,2,0,0,1,225.83,18.72Z"/><path class="cls-5" d="M115.46-.77a2,2,0,0,1-2.09,2,2,2,0,0,1-2-2.07,2,2,0,0,1,2.07-2A2,2,0,0,1,115.46-.77Z"/><path class="cls-5" d="M139.43,23.14a2,2,0,0,1,0,4,2,2,0,1,1,0-4Z"/><path class="cls-5" d="M154.37,31.69a2,2,0,0,1-2.05,2,2,2,0,1,1,2.05-2Z"/><path class="cls-5" d="M204.42,33.7a2,2,0,0,1-2-1.92,2,2,0,1,1,4-.18A2,2,0,0,1,204.42,33.7Z"/><path class="cls-5" d="M243.3,1.17a2,2,0,0,1-2-2,2,2,0,0,1,2-2,2,2,0,0,1,2,2A2,2,0,0,1,243.3,1.17Z"/><path class="cls-5" d="M219.38,25.09a2,2,0,1,1-2.12-1.94A2,2,0,0,1,219.38,25.09Z"/><path class="cls-5" d="M121.8,12.14a2,2,0,0,1-1.93,2,2,2,0,0,1-2-2,2,2,0,0,1,2-2A1.93,1.93,0,0,1,121.8,12.14Z"/><path class="cls-5" d="M178.32,36.15a2,2,0,0,1,2,2,2,2,0,0,1-2,2,2,2,0,0,1,0-3.94Z"/><path class="cls-5" d="M115.36,5.62a1.93,1.93,0,0,1-2,1.94,2,2,0,0,1-1.93-1.9,2,2,0,0,1,2-2A1.93,1.93,0,0,1,115.36,5.62Z"/><path class="cls-5" d="M230.39,20.65a2,2,0,0,1-2-1.93,2,2,0,0,1,2-2,1.93,1.93,0,0,1,1.92,1.89A1.9,1.9,0,0,1,230.39,20.65Z"/><path class="cls-5" d="M126.38,20.66a1.92,1.92,0,0,1-1.93-2,1.94,1.94,0,0,1,2-2,2,2,0,1,1,0,3.92Z"/><path class="cls-5" d="M186.8,38.14a1.94,1.94,0,0,1-2,1.93,2,2,0,0,1-1.91-1.92,2,2,0,0,1,2-2A1.9,1.9,0,0,1,186.8,38.14Z"/><path class="cls-5" d="M132.78,23.19a2,2,0,0,1,2,1.92,2,2,0,0,1-2,2,1.95,1.95,0,0,1-.05-3.89Z"/><path class="cls-5" d="M236.94,14.12a1.94,1.94,0,0,1-2-1.94,1.91,1.91,0,0,1,1.84-2,2,2,0,0,1,2.06,1.87A2,2,0,0,1,236.94,14.12Z"/><path class="cls-5" d="M173.85,38.06a2,2,0,0,1-1.93,2,1.94,1.94,0,0,1-2-1.85,1.9,1.9,0,0,1,1.84-2A2,2,0,0,1,173.85,38.06Z"/><path class="cls-5" d="M147.89,31.69a2,2,0,0,1-2,1.95,2,2,0,0,1-1.91-2,1.9,1.9,0,0,1,1.92-1.88A2,2,0,0,1,147.89,31.69Z"/><path class="cls-5" d="M223.76,27.07a1.92,1.92,0,0,1-1.87-2,1.94,1.94,0,0,1,2-1.84,2,2,0,0,1,1.9,1.92A2,2,0,0,1,223.76,27.07Z"/><path class="cls-5" d="M243.33,7.54a1.91,1.91,0,0,1-1.91-1.87,1.94,1.94,0,0,1,1.91-2,2,2,0,0,1,1.94,2A2,2,0,0,1,243.33,7.54Z"/><path class="cls-5" d="M165.36,40.05a1.93,1.93,0,1,1-.05-3.85A1.88,1.88,0,0,1,167.26,38,1.92,1.92,0,0,1,165.36,40.05Z"/><path class="cls-5" d="M191.44,36.2a1.93,1.93,0,1,1-.05,3.85,1.92,1.92,0,0,1-1.9-2A1.88,1.88,0,0,1,191.44,36.2Z"/><path class="cls-5" d="M212.75,31.67a1.93,1.93,0,0,1-2,1.95,2,2,0,0,1-1.91-1.92,1.94,1.94,0,0,1,2-1.93A1.88,1.88,0,0,1,212.75,31.67Z"/><path class="cls-5" d="M157,38a1.91,1.91,0,0,1,2.1-1.79A1.9,1.9,0,1,1,157,38Z"/><path class="cls-5" d="M108.77-.85a1.93,1.93,0,0,1-1.87,1.94A1.93,1.93,0,0,1,105-.79a1.93,1.93,0,0,1,1.86-1.94A1.94,1.94,0,0,1,108.77-.85Z"/><path class="cls-5" d="M197.87,36.24a1.88,1.88,0,1,1-.06,3.75,1.88,1.88,0,1,1,.06-3.75Z"/><path class="cls-5" d="M139.36,33.55a1.87,1.87,0,1,1,1.9-1.87A1.84,1.84,0,0,1,139.36,33.55Z"/><path class="cls-5" d="M217.35,29.83a1.86,1.86,0,0,1,.09,3.71,1.86,1.86,0,1,1-.09-3.71Z"/><path class="cls-5" d="M204.4,36.27a1.85,1.85,0,1,1,0,3.69,1.85,1.85,0,0,1,0-3.69Z"/><path class="cls-5" d="M154.19,38.15A1.8,1.8,0,0,1,152.38,40a1.86,1.86,0,0,1-1.89-1.87,1.88,1.88,0,0,1,1.95-1.82A1.81,1.81,0,0,1,154.19,38.15Z"/><path class="cls-5" d="M119.86,20.57a1.86,1.86,0,0,1,0-3.72,1.86,1.86,0,1,1,0,3.72Z"/><path class="cls-5" d="M126.45,27a1.89,1.89,0,0,1-1.9-1.77,1.86,1.86,0,0,1,1.74-1.91,1.8,1.8,0,0,1,1.93,1.81A1.83,1.83,0,0,1,126.45,27Z"/><path class="cls-5" d="M238.72,18.67A1.83,1.83,0,0,1,237,20.55,1.88,1.88,0,0,1,235,18.69a1.86,1.86,0,0,1,1.85-1.81A1.79,1.79,0,0,1,238.72,18.67Z"/><path class="cls-5" d="M113.46,14a1.79,1.79,0,0,1-1.86-1.76,1.82,1.82,0,0,1,1.84-1.91,1.84,1.84,0,0,1,0,3.67Z"/><path class="cls-5" d="M232.19,25.17a1.87,1.87,0,0,1-1.87,1.8,1.81,1.81,0,0,1-1.78-1.86,1.78,1.78,0,0,1,1.85-1.78A1.83,1.83,0,0,1,232.19,25.17Z"/><path class="cls-5" d="M245.14,12.12A1.81,1.81,0,0,1,243.39,14a1.83,1.83,0,1,1-.07-3.66A1.81,1.81,0,0,1,245.14,12.12Z"/><path class="cls-5" d="M132.86,33.49A1.83,1.83,0,0,1,131,31.68a1.85,1.85,0,0,1,1.83-1.81,1.82,1.82,0,0,1,1.76,1.76A1.79,1.79,0,0,1,132.86,33.49Z"/><path class="cls-5" d="M108.67,5.63a1.77,1.77,0,0,1-1.82,1.78A1.84,1.84,0,0,1,105,5.6a1.83,1.83,0,0,1,1.85-1.78A1.76,1.76,0,0,1,108.67,5.63Z"/><path class="cls-5" d="M147.72,38.16a1.8,1.8,0,0,1-1.86,1.76,1.85,1.85,0,0,1-1.74-1.78,1.87,1.87,0,0,1,1.82-1.84A1.83,1.83,0,0,1,147.72,38.16Z"/><path class="cls-5" d="M210.77,39.93a1.81,1.81,0,0,1,0-3.62,1.81,1.81,0,1,1,0,3.62Z"/><path class="cls-5" d="M225.58,31.64a1.8,1.8,0,0,1-1.78,1.84,1.8,1.8,0,1,1,1.78-1.84Z"/><path class="cls-5" d="M180.11,44.69a1.8,1.8,0,1,1-1.79-1.8A1.77,1.77,0,0,1,180.11,44.69Z"/><path class="cls-5" d="M186.65,44.66a1.79,1.79,0,1,1-1.73-1.76A1.76,1.76,0,0,1,186.65,44.66Z"/><path class="cls-5" d="M173.66,44.61a1.78,1.78,0,0,1-3.56.1,1.77,1.77,0,0,1,1.68-1.81A1.75,1.75,0,0,1,173.66,44.61Z"/><path class="cls-5" d="M193.18,44.65a1.74,1.74,0,0,1-1.72,1.76,1.71,1.71,0,0,1-1.8-1.67,1.73,1.73,0,0,1,1.77-1.83A1.76,1.76,0,0,1,193.18,44.65Z"/><path class="cls-5" d="M165.35,46.41a1.75,1.75,0,1,1,1.75-1.73A1.73,1.73,0,0,1,165.35,46.41Z"/><path class="cls-5" d="M100.42-2.55a1.75,1.75,0,0,1,1.77,1.7A1.75,1.75,0,0,1,100.48.91a1.7,1.7,0,0,1-1.76-1.7A1.71,1.71,0,0,1,100.42-2.55Z"/><path class="cls-5" d="M158.93,46.39a1.74,1.74,0,0,1-1.77-1.69,1.76,1.76,0,0,1,1.71-1.77,1.7,1.7,0,0,1,1.75,1.7A1.68,1.68,0,0,1,158.93,46.39Z"/><path class="cls-5" d="M199.59,44.7a1.74,1.74,0,0,1-1.78,1.69,1.68,1.68,0,0,1-1.68-1.76,1.71,1.71,0,0,1,1.76-1.7A1.76,1.76,0,0,1,199.59,44.7Z"/><path class="cls-5" d="M118.11,25.13a1.78,1.78,0,0,1,1.78-1.72,1.73,1.73,0,0,1,0,3.45A1.77,1.77,0,0,1,118.11,25.13Z"/><path class="cls-5" d="M113.4,20.42a1.72,1.72,0,1,1,.09-3.44,1.72,1.72,0,0,1,1.64,1.71A1.69,1.69,0,0,1,113.4,20.42Z"/><path class="cls-5" d="M236.89,23.42a1.72,1.72,0,1,1,0,3.43,1.7,1.7,0,0,1-1.71-1.76A1.72,1.72,0,0,1,236.89,23.42Z"/><path class="cls-5" d="M243.36,20.42a1.72,1.72,0,0,1-.05-3.43,1.72,1.72,0,1,1,.05,3.43Z"/><path class="cls-5" d="M152.39,46.36a1.7,1.7,0,0,1-.12-3.4,1.77,1.77,0,0,1,1.8,1.7A1.74,1.74,0,0,1,152.39,46.36Z"/><path class="cls-5" d="M141.08,38.17a1.69,1.69,0,0,1-1.78,1.67,1.77,1.77,0,0,1-1.66-1.71,1.75,1.75,0,0,1,1.76-1.72A1.67,1.67,0,0,1,141.08,38.17Z"/><path class="cls-5" d="M219.11,38.06a1.79,1.79,0,0,1-1.71,1.79,1.71,1.71,0,0,1-1.73-1.62,1.67,1.67,0,0,1,1.62-1.82A1.76,1.76,0,0,1,219.11,38.06Z"/><path class="cls-5" d="M106.85,13.86a1.68,1.68,0,0,1-1.67-1.78,1.66,1.66,0,0,1,1.72-1.61,1.7,1.7,0,1,1-.05,3.39Z"/><path class="cls-5" d="M128.11,31.73a1.71,1.71,0,0,1-1.72,1.63,1.68,1.68,0,1,1,.09-3.35A1.72,1.72,0,0,1,128.11,31.73Z"/><path class="cls-5" d="M204.39,43a1.7,1.7,0,0,1,1.67,1.69,1.68,1.68,0,0,1-1.66,1.69,1.71,1.71,0,0,1-1.69-1.68A1.73,1.73,0,0,1,204.39,43Z"/><path class="cls-5" d="M230.33,30a1.66,1.66,0,1,1,0,3.31,1.66,1.66,0,1,1,0-3.31Z"/><path class="cls-5" d="M98.78,5.62a1.66,1.66,0,1,1,1.7,1.67A1.7,1.7,0,0,1,98.78,5.62Z"/><path class="cls-5" d="M147.53,44.77a1.62,1.62,0,0,1-1.65,1.53A1.64,1.64,0,1,1,146,43,1.62,1.62,0,0,1,147.53,44.77Z"/><path class="cls-5" d="M132.83,39.74a1.63,1.63,0,0,1-1.65-1.67,1.64,1.64,0,0,1,1.64-1.58,1.6,1.6,0,0,1,1.64,1.68A1.58,1.58,0,0,1,132.83,39.74Z"/><path class="cls-5" d="M212.46,44.68a1.68,1.68,0,0,1-1.7,1.63,1.66,1.66,0,0,1-1.55-1.66A1.62,1.62,0,0,1,210.78,43,1.66,1.66,0,0,1,212.46,44.68Z"/><path class="cls-5" d="M179.91,51.14a1.61,1.61,0,0,1-1.6,1.58,1.67,1.67,0,0,1-1.62-1.6,1.65,1.65,0,0,1,1.69-1.63A1.58,1.58,0,0,1,179.91,51.14Z"/><path class="cls-5" d="M223.77,36.5a1.62,1.62,0,0,1,.06,3.23,1.64,1.64,0,0,1-1.67-1.64A1.65,1.65,0,0,1,223.77,36.5Z"/><path class="cls-5" d="M184.84,49.49A1.64,1.64,0,0,1,186.49,51a1.66,1.66,0,0,1-1.65,1.68,1.62,1.62,0,0,1-1.57-1.62A1.58,1.58,0,0,1,184.84,49.49Z"/><path class="cls-5" d="M173.48,51.14a1.61,1.61,0,0,1-1.61,1.58,1.67,1.67,0,0,1-1.61-1.6A1.65,1.65,0,0,1,172,49.49,1.58,1.58,0,0,1,173.48,51.14Z"/><path class="cls-5" d="M113.47,26.73a1.57,1.57,0,0,1-1.63-1.54,1.55,1.55,0,0,1,1.53-1.63,1.59,1.59,0,1,1,.1,3.17Z"/><path class="cls-5" d="M106.89,20.3a1.64,1.64,0,0,1-1.63-1.58,1.62,1.62,0,0,1,1.6-1.59,1.55,1.55,0,0,1,1.6,1.56A1.59,1.59,0,0,1,106.89,20.3Z"/><path class="cls-5" d="M165.34,49.52A1.6,1.6,0,0,1,167,51.1a1.62,1.62,0,0,1-1.61,1.59,1.57,1.57,0,0,1-1.58-1.59A1.54,1.54,0,0,1,165.34,49.52Z"/><path class="cls-5" d="M121.44,31.73a1.61,1.61,0,0,1-1.65,1.54,1.58,1.58,0,0,1-1.5-1.68,1.6,1.6,0,0,1,1.58-1.5A1.63,1.63,0,0,1,121.44,31.73Z"/><path class="cls-5" d="M238.45,31.71a1.56,1.56,0,1,1-3.12-.05,1.61,1.61,0,0,1,1.54-1.55A1.58,1.58,0,0,1,238.45,31.71Z"/><path class="cls-5" d="M95.49-.87A1.59,1.59,0,0,1,93.92.74,1.53,1.53,0,0,1,92.33-.71a1.53,1.53,0,0,1,1.48-1.67A1.59,1.59,0,0,1,95.49-.87Z"/><path class="cls-5" d="M243.38,23.58a1.56,1.56,0,0,1,0,3.12,1.56,1.56,0,1,1,0-3.12Z"/><path class="cls-5" d="M191.28,52.66a1.56,1.56,0,1,1,.32-3.11A1.52,1.52,0,0,1,193,51.2,1.55,1.55,0,0,1,191.28,52.66Z"/><path class="cls-5" d="M126.41,39.68A1.56,1.56,0,1,1,128,38.14,1.59,1.59,0,0,1,126.41,39.68Z"/><path class="cls-5" d="M100.44,13.72A1.56,1.56,0,1,1,102,12.19,1.58,1.58,0,0,1,100.44,13.72Z"/><path class="cls-5" d="M158.89,52.64a1.55,1.55,0,1,1,0-3.09,1.55,1.55,0,1,1,0,3.09Z"/><path class="cls-5" d="M141,44.68a1.57,1.57,0,0,1-1.64,1.53,1.55,1.55,0,1,1,.14-3.09A1.56,1.56,0,0,1,141,44.68Z"/><path class="cls-5" d="M217.39,46.19a1.53,1.53,0,0,1-.09-3,1.53,1.53,0,1,1,.09,3Z"/><path class="cls-5" d="M196.3,51.05a1.55,1.55,0,1,1,1.48,1.57A1.53,1.53,0,0,1,196.3,51.05Z"/><path class="cls-5" d="M231.86,38.08a1.53,1.53,0,0,1-1.48,1.58,1.54,1.54,0,0,1-.07-3.08A1.53,1.53,0,0,1,231.86,38.08Z"/><path class="cls-5" d="M152.4,49.59a1.54,1.54,0,0,1,1.48,1.58,1.52,1.52,0,0,1-1.62,1.42,1.45,1.45,0,0,1-1.39-1.51A1.47,1.47,0,0,1,152.4,49.59Z"/><path class="cls-5" d="M205.87,51.11a1.45,1.45,0,0,1-1.44,1.47,1.51,1.51,0,0,1-1.55-1.5,1.55,1.55,0,0,1,1.58-1.48A1.48,1.48,0,0,1,205.87,51.11Z"/><path class="cls-5" d="M93.93,4.13a1.48,1.48,0,0,1,0,3A1.52,1.52,0,0,1,92.4,5.55,1.55,1.55,0,0,1,93.93,4.13Z"/><path class="cls-5" d="M132.88,46.14a1.45,1.45,0,0,1-1.51-1.4,1.48,1.48,0,0,1,1.48-1.56,1.55,1.55,0,0,1,1.48,1.47A1.53,1.53,0,0,1,132.88,46.14Z"/><path class="cls-5" d="M106.84,26.6a1.45,1.45,0,0,1-1.41-1.49,1.47,1.47,0,0,1,1.48-1.44,1.47,1.47,0,1,1-.07,2.93Z"/><path class="cls-5" d="M223.75,46.13a1.47,1.47,0,0,1-1.4-1.52,1.49,1.49,0,0,1,1.5-1.42,1.53,1.53,0,0,1,1.42,1.53A1.5,1.5,0,0,1,223.75,46.13Z"/><path class="cls-5" d="M144.49,51.05a1.44,1.44,0,1,1,1.42,1.5A1.47,1.47,0,0,1,144.49,51.05Z"/><path class="cls-5" d="M114.87,31.68a1.44,1.44,0,0,1-1.45,1.45A1.47,1.47,0,0,1,112,31.69a1.44,1.44,0,0,1,1.46-1.44A1.41,1.41,0,0,1,114.87,31.68Z"/><path class="cls-5" d="M212.26,51.15a1.44,1.44,0,0,1-2.88,0,1.5,1.5,0,0,1,1.47-1.46A1.48,1.48,0,0,1,212.26,51.15Z"/><path class="cls-5" d="M101.85,18.74a1.44,1.44,0,0,1-1.39,1.4,1.44,1.44,0,0,1,0-2.87A1.44,1.44,0,0,1,101.85,18.74Z"/><path class="cls-5" d="M243.19,33.08a1.39,1.39,0,0,1-1.28-1.47,1.42,1.42,0,0,1,1.55-1.33,1.41,1.41,0,1,1-.27,2.8Z"/><path class="cls-5" d="M119.91,39.52a1.41,1.41,0,1,1-.1-2.81,1.41,1.41,0,1,1,.1,2.81Z"/><path class="cls-5" d="M236.89,39.51a1.4,1.4,0,1,1,.06-2.79,1.38,1.38,0,0,1,1.33,1.43A1.36,1.36,0,0,1,236.89,39.51Z"/><path class="cls-5" d="M173.27,57.7A1.36,1.36,0,0,1,171.85,59a1.4,1.4,0,0,1-1.37-1.39A1.41,1.41,0,0,1,172,56.25,1.38,1.38,0,0,1,173.27,57.7Z"/><path class="cls-5" d="M179.7,57.63a1.35,1.35,0,0,1-1.34,1.4,1.39,1.39,0,0,1-1.45-1.43,1.4,1.4,0,0,1,1.41-1.35A1.37,1.37,0,0,1,179.7,57.63Z"/><path class="cls-5" d="M184.83,59a1.39,1.39,0,0,1,0-2.78,1.39,1.39,0,1,1,0,2.78Z"/><path class="cls-5" d="M92.55,12.06A1.37,1.37,0,0,1,94,10.79a1.37,1.37,0,0,1-.19,2.74A1.37,1.37,0,0,1,92.55,12.06Z"/><path class="cls-5" d="M87.31-2.19a1.33,1.33,0,0,1,1.4,1.34A1.37,1.37,0,0,1,87.38.57,1.43,1.43,0,0,1,86-.78,1.4,1.4,0,0,1,87.31-2.19Z"/><path class="cls-5" d="M165.29,59a1.38,1.38,0,0,1,.11-2.76,1.43,1.43,0,0,1,1.33,1.44A1.4,1.4,0,0,1,165.29,59Z"/><path class="cls-5" d="M192.77,57.68a1.35,1.35,0,0,1-1.4,1.34A1.39,1.39,0,0,1,190,57.6a1.41,1.41,0,0,1,1.43-1.34A1.36,1.36,0,0,1,192.77,57.68Z"/><path class="cls-5" d="M199.18,57.62A1.35,1.35,0,0,1,197.81,59a1.39,1.39,0,0,1-1.32-1.33,1.4,1.4,0,0,1,1.39-1.38A1.36,1.36,0,0,1,199.18,57.62Z"/><path class="cls-5" d="M157.57,57.68a1.35,1.35,0,0,1,1.36-1.39,1.36,1.36,0,1,1-.05,2.71A1.36,1.36,0,0,1,157.57,57.68Z"/><path class="cls-5" d="M127.75,44.69a1.33,1.33,0,0,1-1.4,1.33,1.35,1.35,0,1,1,0-2.7A1.33,1.33,0,0,1,127.75,44.69Z"/><path class="cls-5" d="M139.37,52.46a1.34,1.34,0,0,1-1.34-1.4,1.31,1.31,0,0,1,1.31-1.31,1.39,1.39,0,0,1,1.42,1.33A1.42,1.42,0,0,1,139.37,52.46Z"/><path class="cls-5" d="M230.4,46a1.33,1.33,0,1,1-.1-2.65,1.33,1.33,0,1,1,.1,2.65Z"/><path class="cls-5" d="M218.71,51.12a1.33,1.33,0,0,1-1.31,1.31A1.37,1.37,0,0,1,216,51.07a1.36,1.36,0,0,1,1.44-1.3A1.31,1.31,0,0,1,218.71,51.12Z"/><path class="cls-5" d="M151.07,57.63a1.31,1.31,0,0,1,1.3-1.3,1.32,1.32,0,0,1,0,2.63A1.32,1.32,0,0,1,151.07,57.63Z"/><path class="cls-5" d="M106.84,30.37a1.32,1.32,0,1,1-1.26,1.35A1.32,1.32,0,0,1,106.84,30.37Z"/><path class="cls-5" d="M100.44,26.41a1.28,1.28,0,0,1,0-2.55,1.31,1.31,0,0,1,1.34,1.26A1.3,1.3,0,0,1,100.44,26.41Z"/><path class="cls-5" d="M87.35,6.88a1.23,1.23,0,0,1-1.27-1.29,1.24,1.24,0,0,1,1.21-1.25,1.3,1.3,0,0,1,1.35,1.24A1.28,1.28,0,0,1,87.35,6.88Z"/><path class="cls-5" d="M114.69,38.12a1.3,1.3,0,0,1-1.3,1.3,1.3,1.3,0,0,1,0-2.59A1.27,1.27,0,0,1,114.69,38.12Z"/><path class="cls-5" d="M205.66,57.66a1.3,1.3,0,0,1-1.32,1.28,1.33,1.33,0,0,1-1.24-1.37,1.32,1.32,0,0,1,1.28-1.21A1.26,1.26,0,0,1,205.66,57.66Z"/><path class="cls-5" d="M222.56,51.13a1.25,1.25,0,0,1,1.27-1.3,1.32,1.32,0,0,1,1.25,1.23,1.3,1.3,0,0,1-1.29,1.3A1.24,1.24,0,0,1,222.56,51.13Z"/><path class="cls-5" d="M242.09,38.09a1.21,1.21,0,0,1,1.24-1.22,1.26,1.26,0,0,1,1.27,1.22,1.28,1.28,0,0,1-1.33,1.29A1.23,1.23,0,0,1,242.09,38.09Z"/><path class="cls-5" d="M131.59,51.07a1.25,1.25,0,0,1,1.21-1.24,1.3,1.3,0,0,1,1.31,1.29,1.28,1.28,0,0,1-1.35,1.23A1.22,1.22,0,0,1,131.59,51.07Z"/><path class="cls-5" d="M95.13,18.68A1.24,1.24,0,0,1,94,20a1.3,1.3,0,0,1-1.32-1.27,1.32,1.32,0,0,1,1.26-1.23A1.27,1.27,0,0,1,95.13,18.68Z"/><path class="cls-5" d="M121.08,44.63a1.24,1.24,0,0,1-1.17,1.28,1.3,1.3,0,0,1-1.32-1.27,1.33,1.33,0,0,1,1.25-1.23A1.26,1.26,0,0,1,121.08,44.63Z"/><path class="cls-5" d="M238.13,44.68a1.26,1.26,0,0,1-1.27,1.21,1.23,1.23,0,0,1-1.18-1.29,1.25,1.25,0,0,1,1.2-1.17A1.29,1.29,0,0,1,238.13,44.68Z"/><path class="cls-5" d="M145.87,58.84a1.2,1.2,0,1,1,.17-2.39,1.2,1.2,0,1,1-.17,2.39Z"/><path class="cls-5" d="M210.82,58.85a1.21,1.21,0,1,1,.07-2.41,1.21,1.21,0,0,1-.07,2.41Z"/><path class="cls-5" d="M178.32,63a1.19,1.19,0,0,1,0,2.37,1.19,1.19,0,1,1,0-2.37Z"/><path class="cls-5" d="M88.5,12.2a1.11,1.11,0,0,1-1.17,1.12,1.17,1.17,0,0,1-1.17-1.14A1.19,1.19,0,0,1,87.41,11,1.13,1.13,0,0,1,88.5,12.2Z"/><path class="cls-5" d="M126.39,52.26a1.22,1.22,0,0,1-1.16-1.16A1.18,1.18,0,0,1,126.4,50a1.13,1.13,0,0,1,1.14,1.15A1.15,1.15,0,0,1,126.39,52.26Z"/><path class="cls-5" d="M108,38.12a1.12,1.12,0,0,1-1.06,1.13,1.18,1.18,0,0,1-1.2-1.13,1.2,1.2,0,0,1,1.2-1.14A1.13,1.13,0,0,1,108,38.12Z"/><path class="cls-5" d="M80.92-2A1.12,1.12,0,0,1,82.05-.81,1.14,1.14,0,0,1,80.9.34,1.2,1.2,0,0,1,79.75-.83,1.18,1.18,0,0,1,80.92-2Z"/><path class="cls-5" d="M139.38,56.5a1.21,1.21,0,0,1,1.15,1.2,1.19,1.19,0,0,1-1.15,1.08,1.12,1.12,0,0,1-1.12-1.19A1.15,1.15,0,0,1,139.38,56.5Z"/><path class="cls-5" d="M100.39,30.55a1.14,1.14,0,0,1,.1,2.27,1.14,1.14,0,1,1-.1-2.27Z"/><path class="cls-5" d="M218.49,57.62a1.13,1.13,0,0,1-1,1.16,1.19,1.19,0,0,1-1.23-1.11,1.21,1.21,0,0,1,1.18-1.17A1.15,1.15,0,0,1,218.49,57.62Z"/><path class="cls-5" d="M171.89,63a1.16,1.16,0,0,1,0,2.31,1.2,1.2,0,0,1-1.15-1.17A1.18,1.18,0,0,1,171.89,63Z"/><path class="cls-5" d="M184.82,65.36a1.17,1.17,0,0,1-1.09-1.21,1.12,1.12,0,0,1,1.19-1.1A1.16,1.16,0,0,1,186,64.24,1.23,1.23,0,0,1,184.82,65.36Z"/><path class="cls-5" d="M230.35,50a1.12,1.12,0,0,1,1.14,1.16,1.14,1.14,0,0,1-1.13,1.07,1.11,1.11,0,0,1-1.13-1.17A1.08,1.08,0,0,1,230.35,50Z"/><path class="cls-5" d="M165.31,65.32a1.11,1.11,0,0,1-1.09-1.1,1.08,1.08,0,0,1,1.15-1.14,1.15,1.15,0,0,1,1.12,1.09A1.18,1.18,0,0,1,165.31,65.32Z"/><path class="cls-5" d="M191.43,63.08a1.09,1.09,0,0,1,1.1,1.08,1.12,1.12,0,0,1-1.15,1.16,1.15,1.15,0,0,1-1.11-1.1A1.13,1.13,0,0,1,191.43,63.08Z"/><path class="cls-5" d="M160,64.24a1.1,1.1,0,0,1-1.13,1,1.07,1.07,0,0,1-1.08-1.19,1.06,1.06,0,0,1,1.17-1A1.09,1.09,0,0,1,160,64.24Z"/><path class="cls-5" d="M113.45,45.73a1.07,1.07,0,1,1-.06-2.13,1.07,1.07,0,0,1,1.11,1A1.05,1.05,0,0,1,113.45,45.73Z"/><path class="cls-5" d="M95,25.13a1.09,1.09,0,0,1-2.17,0,1.09,1.09,0,0,1,2.17,0Z"/><path class="cls-5" d="M198.93,64.2a1.09,1.09,0,1,1-1.08-1.08A1.07,1.07,0,0,1,198.93,64.2Z"/><path class="cls-5" d="M244.4,44.64a1.07,1.07,0,0,1-1,1.07,1,1,0,0,1-.17-2.09A1.07,1.07,0,0,1,244.4,44.64Z"/><path class="cls-5" d="M79.87,5.58a1,1,0,0,1,1-1A1.07,1.07,0,0,1,82,5.64a1,1,0,0,1-1.15,1A1,1,0,0,1,79.87,5.58Z"/><path class="cls-5" d="M133.88,57.68a1.08,1.08,0,0,1-1,1,1,1,0,0,1-1-1.12,1,1,0,0,1,1.08-.94A1.07,1.07,0,0,1,133.88,57.68Z"/><path class="cls-5" d="M88.4,18.71a1.07,1.07,0,0,1-1,1,1,1,0,0,1-1-1,1,1,0,0,1,1-1.09A1.08,1.08,0,0,1,88.4,18.71Z"/><path class="cls-5" d="M152.32,63.16a1.06,1.06,0,0,1,1.08,1,1,1,0,0,1-1.05,1.1,1,1,0,0,1-1-1A1,1,0,0,1,152.32,63.16Z"/><path class="cls-5" d="M205.41,64.25a1,1,0,0,1-1,1,1,1,0,1,1,.11-2.06A1,1,0,0,1,205.41,64.25Z"/><path class="cls-5" d="M119.84,52.11a1.06,1.06,0,0,1-1-1,1.07,1.07,0,0,1,1-1,1,1,0,0,1,1,1A1,1,0,0,1,119.84,52.11Z"/><path class="cls-5" d="M236.87,50.1a1.05,1.05,0,0,1,1,.92,1,1,0,0,1-1,1.07,1,1,0,0,1-1-.91A1,1,0,0,1,236.87,50.1Z"/><path class="cls-5" d="M224.82,57.68a1,1,0,0,1-1.08,1,1,1,0,0,1-.93-1.08,1,1,0,0,1,1-.89A1,1,0,0,1,224.82,57.68Z"/><path class="cls-5" d="M145.89,63.23a1,1,0,0,1,1,.9,1,1,0,0,1-.85,1,1,1,0,1,1-.12-1.93Z"/><path class="cls-5" d="M211.78,64.18a1,1,0,0,1-.91,1,1,1,0,0,1-1-1,1,1,0,0,1,1-.92A1,1,0,0,1,211.78,64.18Z"/><path class="cls-5" d="M80.89,11.24A.92.92,0,0,1,81,13.08a.92.92,0,1,1-.09-1.84Z"/><path class="cls-5" d="M100.4,37.2a.92.92,0,0,1,.13,1.83.92.92,0,1,1-.13-1.83Z"/><path class="cls-5" d="M93.93,32.59a.91.91,0,0,1-.92-.82.92.92,0,0,1,.86-1,1,1,0,0,1,.94.82A1,1,0,0,1,93.93,32.59Z"/><path class="cls-5" d="M127.28,57.62a.88.88,0,0,1-.8.92.92.92,0,0,1-1-.87,1,1,0,0,1,.94-.93A.9.9,0,0,1,127.28,57.62Z"/><path class="cls-5" d="M75.28-.85a1,1,0,0,1-.85.92.87.87,0,0,1-.94-.79.87.87,0,0,1,.87-1A.93.93,0,0,1,75.28-.85Z"/><path class="cls-5" d="M177.4,70.61a.92.92,0,0,1,.91-.86.88.88,0,1,1,0,1.76A1,1,0,0,1,177.4,70.61Z"/><path class="cls-5" d="M106.93,45.56a1,1,0,0,1-1-.81.89.89,0,0,1,.9-1,.85.85,0,0,1,.89.85A.88.88,0,0,1,106.93,45.56Z"/><path class="cls-5" d="M230.33,58.52a.88.88,0,0,1-.84-.89.9.9,0,0,1,.88-.87.88.88,0,0,1,0,1.76Z"/><path class="cls-5" d="M172.74,70.73a.86.86,0,1,1-.75-1A.84.84,0,0,1,172.74,70.73Z"/><path class="cls-5" d="M140.25,64.22a.87.87,0,0,1-.9.82.85.85,0,1,1,.06-1.7A.86.86,0,0,1,140.25,64.22Z"/><path class="cls-5" d="M185.74,70.66a.87.87,0,0,1-.91.81.85.85,0,1,1,.07-1.69A.85.85,0,0,1,185.74,70.66Z"/><path class="cls-5" d="M217.42,65a.78.78,0,0,1-.86-.71.8.8,0,0,1,.77-.93.84.84,0,0,1,.88.83A.83.83,0,0,1,217.42,65Z"/><path class="cls-5" d="M87.35,26a.79.79,0,0,1-.82-.77.81.81,0,0,1,.83-.88.85.85,0,0,1,.83.78A.83.83,0,0,1,87.35,26Z"/><path class="cls-5" d="M114.24,51.11a.78.78,0,0,1-.78.8.83.83,0,0,1-.88-.83.84.84,0,0,1,.91-.8A.79.79,0,0,1,114.24,51.11Z"/><path class="cls-5" d="M166.16,70.66a.78.78,0,0,1-.81.78.82.82,0,0,1-.85-.86.84.84,0,0,1,.93-.78A.81.81,0,0,1,166.16,70.66Z"/><path class="cls-5" d="M192.25,70.68a.84.84,0,0,1-.95.76.82.82,0,0,1,.12-1.64A.83.83,0,0,1,192.25,70.68Z"/><path class="cls-5" d="M159.69,70.59a.77.77,0,0,1-.76.83.8.8,0,1,1-.06-1.6A.78.78,0,0,1,159.69,70.59Z"/><path class="cls-5" d="M244.14,51.14a.81.81,0,0,1-.85.75.77.77,0,0,1-.75-.84.79.79,0,0,1,.84-.76A.84.84,0,0,1,244.14,51.14Z"/><path class="cls-5" d="M197.79,71.42a.77.77,0,0,1-.73-.85.78.78,0,0,1,.85-.75.85.85,0,0,1,.75.86A.84.84,0,0,1,197.79,71.42Z"/><path class="cls-5" d="M75.13,5.62a.77.77,0,0,1-1.54,0,.81.81,0,0,1,.76-.83A.79.79,0,0,1,75.13,5.62Z"/><path class="cls-5" d="M81.91,18.64c-.41.36-.63.68-.93.79s-.82-.31-.8-.73.3-.76.71-.71S81.45,18.34,81.91,18.64Z"/><path class="cls-5" d="M153.35,70.62c-.42.33-.66.64-1,.73s-.8-.36-.75-.78a.66.66,0,0,1,.75-.67C152.67,70,152.92,70.29,153.35,70.62Z"/><path class="cls-5" d="M133.82,64.25c-.45.31-.71.62-1,.66s-.69-.27-.71-.71.42-.87.8-.73S133.41,63.89,133.82,64.25Z"/><path class="cls-5" d="M120.59,57.73a.7.7,0,0,1-.77.63.72.72,0,1,1,.08-1.43A.72.72,0,0,1,120.59,57.73Z"/><path class="cls-5" d="M224.48,64.24c0,.39-.41.77-.74.63a1.22,1.22,0,0,1-.63-.67c-.11-.34.32-.71.7-.71A.68.68,0,0,1,224.48,64.24Z"/><path class="cls-5" d="M205.39,70.64a4.41,4.41,0,0,1-1,.67c-.36.08-.67-.35-.64-.75s.31-.68.67-.61S204.93,70.31,205.39,70.64Z"/><path class="cls-5" d="M237.57,57.7c0,.41-.39.75-.75.61a1.21,1.21,0,0,1-.61-.67c-.1-.35.33-.7.71-.69A.68.68,0,0,1,237.57,57.7Z"/><path class="cls-5" d="M94.81,38.07c-.38.32-.59.61-.86.69s-.63-.16-.7-.55.27-.83.64-.74A3.65,3.65,0,0,1,94.81,38.07Z"/><path class="cls-5" d="M88.25,31.67c-.43.31-.66.59-.92.62a.52.52,0,0,1-.57-.65c0-.22.36-.55.55-.55S87.81,31.38,88.25,31.67Z"/><path class="cls-5" d="M101.1,44.84c-.16.12-.38.4-.65.45a.57.57,0,0,1-.67-.61.6.6,0,0,1,.64-.65C100.83,44,101.06,44.24,101.1,44.84Z"/><path class="cls-5" d="M211,71.24c-.58,0-.86-.28-.75-.67a.86.86,0,0,1,.59-.52.49.49,0,0,1,.58.63C211.36,70.91,211.1,71.11,211,71.24Z"/><path class="cls-5" d="M146.87,70.65c-.5.28-.77.55-1,.53a.76.76,0,0,1-.51-.57.79.79,0,0,1,.54-.55C146.14,70.06,146.39,70.34,146.87,70.65Z"/><path class="cls-5" d="M107.82,51.11c-.5.29-.76.56-1,.54a.76.76,0,0,1-.52-.56.77.77,0,0,1,.54-.55C107.08,50.53,107.33,50.81,107.82,51.11Z"/><path class="cls-5" d="M74.42,11.33c.24.41.51.66.47.85s-.36.38-.56.56c-.18-.2-.49-.4-.51-.61S74.11,11.71,74.42,11.33Z"/><path class="cls-5" d="M230.24,63.43c.3.32.54.46.6.66a.44.44,0,0,1-.44.61.71.71,0,0,1-.54-.41C229.84,64.07,230.05,63.82,230.24,63.43Z"/><path class="cls-5" d="M126.44,63.43c.22.37.46.59.46.82s-.32.32-.5.48c-.17-.2-.44-.38-.48-.6S126.17,63.77,126.44,63.43Z"/><path class="cls-5" d="M80.89,25.9c-.24-.37-.51-.6-.47-.75s.35-.37.55-.55c.16.18.47.37.46.53S81.15,25.56,80.89,25.9Z"/><path class="cls-5" d="M140.09,70.6c-.35.24-.54.46-.74.48s-.4-.28-.4-.44.23-.47.36-.47S139.72,70.39,140.09,70.6Z"/><path class="cls-5" d="M217.29,70c.25.27.52.45.5.57s-.26.38-.4.57c-.16-.14-.46-.26-.46-.4S217.12,70.3,217.29,70Z"/><path class="cls-5" d="M113.42,57c.21.29.43.47.45.67s-.31.43-.4.4a.85.85,0,0,1-.47-.46C113,57.5,113.2,57.3,113.42,57Z"/><path class="cls-5" d="M243.91,57.69c-.24.17-.44.42-.55.38s-.34-.3-.51-.46c.19-.14.36-.36.57-.4S243.7,57.47,243.91,57.69Z"/><path class="cls-5" d="M172.46,77.24c-.24.16-.45.4-.56.36s-.33-.31-.49-.48c.19-.14.37-.35.58-.38S172.26,77,172.46,77.24Z"/><path class="cls-5" d="M178.89,77.24c-.24.16-.45.4-.56.36s-.33-.31-.49-.48c.19-.14.37-.35.58-.38S178.69,77,178.89,77.24Z"/><path class="cls-5" d="M184.88,76.53c.2.3.41.48.43.68s-.32.42-.41.39a.85.85,0,0,1-.46-.47C184.41,77,184.66,76.82,184.88,76.53Z"/><path class="cls-5" d="M165.3,77.74c-.16-.27-.36-.45-.34-.59s.26-.27.41-.4c.13.15.36.3.37.45S165.51,77.5,165.3,77.74Z"/><path class="cls-5" d="M191.45,76.6c.16.27.36.45.34.59s-.27.27-.41.4c-.13-.15-.36-.3-.37-.45S191.24,76.84,191.45,76.6Z"/><path class="cls-5" d="M68.41,5.7c-.27.11-.42.22-.56.21s-.28-.25-.26-.29.24-.31.37-.32S68.19,5.5,68.41,5.7Z"/><path class="cls-5" d="M120.32,64.24c-.24.13-.38.25-.53.25s-.29-.22-.27-.27.2-.33.33-.35S120.1,64.06,120.32,64.24Z"/><path class="cls-5" d="M93.93,45.14c-.18-.23-.38-.37-.37-.48s.22-.26.37-.31.27.17.27.27S94.06,44.9,93.93,45.14Z"/><path class="cls-5" d="M198.35,77.22c-.27.14-.44.3-.56.27a.53.53,0,0,1-.24-.42c0-.07.23-.25.31-.23S198.13,77,198.35,77.22Z"/><path class="cls-5" d="M74.51,18.34c.06.15.17.3.15.44s-.24.27-.29.24a.58.58,0,0,1-.33-.34c0-.16.12-.33.18-.5Z"/><path class="cls-5" d="M133.33,70.57c-.23.18-.34.33-.49.37s-.31-.16-.3-.22.13-.37.24-.4S133.07,70.44,133.33,70.57Z"/><path class="cls-5" d="M158.86,77.67c-.14-.26-.31-.43-.29-.55s.26-.23.41-.26.25.22.24.31S159,77.44,158.86,77.67Z"/><path class="cls-5" d="M100.39,50.68c.16.2.32.32.31.42s-.17.2-.3.26-.2-.14-.2-.21A1.6,1.6,0,0,1,100.39,50.68Z"/><path class="cls-5" d="M87.3,38.39c-.08-.09-.21-.2-.2-.24a1.38,1.38,0,0,1,.27-.27l.22.32Z"/></g><g class="cls-4"><path class="cls-5" d="M38.87,352.33A2.55,2.55,0,0,1,36.39,355a2.56,2.56,0,0,1-.1-5.12A2.52,2.52,0,0,1,38.87,352.33Z"/><path class="cls-5" d="M42.85,349.85a2.56,2.56,0,0,1,2.59,2.52,2.59,2.59,0,0,1-2.56,2.56,2.52,2.52,0,0,1-2.51-2.47A2.5,2.5,0,0,1,42.85,349.85Z"/><path class="cls-5" d="M32.43,352.4a2.52,2.52,0,0,1-2.57,2.53,2.58,2.58,0,0,1-2.5-2.51,2.55,2.55,0,0,1,2.54-2.57A2.49,2.49,0,0,1,32.43,352.4Z"/><path class="cls-5" d="M51.94,352.42a2.49,2.49,0,0,1-2.49,2.48,2.51,2.51,0,1,1,0-5A2.47,2.47,0,0,1,51.94,352.42Z"/><path class="cls-5" d="M20.86,352.34a2.48,2.48,0,0,1,2.5-2.46,2.51,2.51,0,1,1,0,5A2.49,2.49,0,0,1,20.86,352.34Z"/><path class="cls-5" d="M17,354.85a2.47,2.47,0,1,1,0-4.93,2.47,2.47,0,1,1,0,4.93Z"/><path class="cls-5" d="M58.34,352.31a2.48,2.48,0,1,1-2.55-2.38A2.45,2.45,0,0,1,58.34,352.31Z"/><path class="cls-5" d="M10.4,354.8a2.42,2.42,0,0,1,0-4.84,2.42,2.42,0,1,1,0,4.84Z"/><path class="cls-5" d="M64.82,352.42a2.39,2.39,0,0,1-2.41,2.38,2.42,2.42,0,1,1,.07-4.84A2.4,2.4,0,0,1,64.82,352.42Z"/><path class="cls-5" d="M36.22,348.27A2.43,2.43,0,0,1,34,345.63a2.37,2.37,0,0,1,2.58-2.2A2.43,2.43,0,0,1,38.77,346,2.48,2.48,0,0,1,36.22,348.27Z"/><path class="cls-5" d="M27.52,345.82a2.35,2.35,0,0,1,2.4-2.38,2.43,2.43,0,0,1,2.42,2.41,2.45,2.45,0,0,1-2.44,2.4A2.38,2.38,0,0,1,27.52,345.82Z"/><path class="cls-5" d="M45.28,345.87a2.39,2.39,0,0,1-2.42,2.38,2.46,2.46,0,0,1-2.4-2.44,2.43,2.43,0,0,1,2.46-2.37A2.36,2.36,0,0,1,45.28,345.87Z"/><path class="cls-5" d="M23.35,343.47a2.37,2.37,0,0,1,.08,4.74,2.37,2.37,0,1,1-.08-4.74Z"/><path class="cls-5" d="M47.06,345.84a2.33,2.33,0,0,1,2.4-2.37,2.37,2.37,0,1,1,0,4.74A2.35,2.35,0,0,1,47.06,345.84Z"/><path class="cls-5" d="M3.91,354.76A2.38,2.38,0,0,1,4,350a2.38,2.38,0,0,1-.08,4.76Z"/><path class="cls-5" d="M71.2,352.38A2.36,2.36,0,1,1,68.87,350,2.38,2.38,0,0,1,71.2,352.38Z"/><path class="cls-5" d="M17,348.17a2.34,2.34,0,1,1,2.31-2.35A2.32,2.32,0,0,1,17,348.17Z"/><path class="cls-5" d="M55.88,348.16a2.33,2.33,0,1,1,2.32-2.31A2.32,2.32,0,0,1,55.88,348.16Z"/><path class="cls-5" d="M12.67,345.79a2.26,2.26,0,0,1-2.27,2.35,2.31,2.31,0,0,1-.1-4.61A2.27,2.27,0,0,1,12.67,345.79Z"/><path class="cls-5" d="M60.14,345.89a2.25,2.25,0,0,1,2.28-2.35,2.3,2.3,0,1,1,0,4.59A2.25,2.25,0,0,1,60.14,345.89Z"/><path class="cls-5" d="M38.61,339.36a2.25,2.25,0,0,1-2.28,2.33,2.29,2.29,0,1,1,0-4.58A2.27,2.27,0,0,1,38.61,339.36Z"/><path class="cls-5" d="M29.89,341.68a2.28,2.28,0,1,1,.09-4.56,2.28,2.28,0,0,1-.09,4.56Z"/><path class="cls-5" d="M45.18,339.43a2.32,2.32,0,0,1-2.29,2.25,2.28,2.28,0,1,1,.06-4.56A2.33,2.33,0,0,1,45.18,339.43Z"/><path class="cls-5" d="M77.66,352.43a2.25,2.25,0,0,1-2.29,2.22,2.26,2.26,0,1,1,.1-4.52A2.22,2.22,0,0,1,77.66,352.43Z"/><path class="cls-5" d="M25.62,339.35a2.31,2.31,0,0,1-2.21,2.32,2.27,2.27,0,0,1-.1-4.54A2.31,2.31,0,0,1,25.62,339.35Z"/><path class="cls-5" d="M51.68,339.4a2.26,2.26,0,0,1-2.24,2.27,2.27,2.27,0,1,1,2.24-2.27Z"/><path class="cls-5" d="M6.19,345.82a2.26,2.26,0,0,1-2.25,2.27,2.26,2.26,0,0,1,0-4.51A2.28,2.28,0,0,1,6.19,345.82Z"/><path class="cls-5" d="M19.15,339.45a2.23,2.23,0,1,1-2.23-2.29A2.26,2.26,0,0,1,19.15,339.45Z"/><path class="cls-5" d="M68.86,348.08a2.25,2.25,0,1,1,2.2-2.32A2.25,2.25,0,0,1,68.86,348.08Z"/><path class="cls-5" d="M55.83,341.63a2.23,2.23,0,0,1,.08-4.46,2.23,2.23,0,0,1-.08,4.46Z"/><path class="cls-5" d="M84,352.4a2.21,2.21,0,0,1-2.2,2.16,2.18,2.18,0,0,1,0-4.36A2.22,2.22,0,0,1,84,352.4Z"/><path class="cls-5" d="M8.22,339.33a2.14,2.14,0,0,1,2.24-2.09,2.2,2.2,0,0,1,2.12,2.24,2.23,2.23,0,0,1-2.27,2.11A2.17,2.17,0,0,1,8.22,339.33Z"/><path class="cls-5" d="M62.4,337.25a2.16,2.16,0,0,1,.08,4.32,2.2,2.2,0,0,1-2.25-2.13A2.18,2.18,0,0,1,62.4,337.25Z"/><path class="cls-5" d="M38.5,332.91a2.2,2.2,0,0,1-2.27,2.1,2.16,2.16,0,0,1,.22-4.31A2.21,2.21,0,0,1,38.5,332.91Z"/><path class="cls-5" d="M75.43,348a2.14,2.14,0,1,1-.07-4.28,2.16,2.16,0,0,1,2.21,2.16A2.19,2.19,0,0,1,75.43,348Z"/><path class="cls-5" d="M32.05,332.9a2.18,2.18,0,0,1-2.16,2.1,2.15,2.15,0,1,1,.09-4.29A2.19,2.19,0,0,1,32.05,332.9Z"/><path class="cls-5" d="M42.94,335A2.15,2.15,0,1,1,45,332.83,2.15,2.15,0,0,1,42.94,335Z"/><path class="cls-5" d="M23.31,330.72a2.14,2.14,0,1,1-2.06,2.16A2.16,2.16,0,0,1,23.31,330.72Z"/><path class="cls-5" d="M4,337.3a2.09,2.09,0,0,1,2.09,2.14,2.07,2.07,0,0,1-2.15,2.06A2.1,2.1,0,1,1,4,337.3Z"/><path class="cls-5" d="M71,339.39a2.09,2.09,0,0,1-2.1,2.1,2.09,2.09,0,1,1,0-4.18A2.09,2.09,0,0,1,71,339.39Z"/><path class="cls-5" d="M51.53,332.8a2.12,2.12,0,0,1-2,2.18,2.12,2.12,0,0,1-.11-4.24A2.11,2.11,0,0,1,51.53,332.8Z"/><path class="cls-5" d="M19,332.88A2.13,2.13,0,0,1,16.85,335a2.08,2.08,0,0,1-2-2.11A2,2,0,0,1,17,330.78,2.09,2.09,0,0,1,19,332.88Z"/><path class="cls-5" d="M88.32,350.3a2.11,2.11,0,0,1,2.15,2.08,2.15,2.15,0,0,1-2,2.1,2.09,2.09,0,0,1-.12-4.18Z"/><path class="cls-5" d="M81.82,343.76a2.06,2.06,0,0,1,2.06,2,2,2,0,0,1-2,2.13,2.09,2.09,0,0,1-2.09-2A2.12,2.12,0,0,1,81.82,343.76Z"/><path class="cls-5" d="M55.84,334.93a2.11,2.11,0,0,1-2.05-2.16,2.08,2.08,0,0,1,2.11-2,2,2,0,0,1,2,2.15A2.05,2.05,0,0,1,55.84,334.93Z"/><path class="cls-5" d="M77.42,339.43a2,2,0,0,1-2,2,2,2,0,1,1,0-4.08A2.05,2.05,0,0,1,77.42,339.43Z"/><path class="cls-5" d="M64.46,332.8a2,2,0,0,1-2,2.07,2,2,0,1,1-.11-4A2,2,0,0,1,64.46,332.8Z"/><path class="cls-5" d="M12.41,332.88a2,2,0,0,1-2.05,2,2,2,0,1,1,0-4A2,2,0,0,1,12.41,332.88Z"/><path class="cls-5" d="M36.36,324.44a2,2,0,1,1-.09,4,1.93,1.93,0,0,1-1.9-2A2,2,0,0,1,36.36,324.44Z"/><path class="cls-5" d="M44.85,326.37a1.94,1.94,0,0,1-1.88,2,2,2,0,1,1-.11-3.94A1.94,1.94,0,0,1,44.85,326.37Z"/><path class="cls-5" d="M5.94,332.84a2,2,0,0,1-1.94,2,2,2,0,1,1,0-3.93A2,2,0,0,1,5.94,332.84Z"/><path class="cls-5" d="M29.86,324.45a2,2,0,1,1,.05,3.94,1.92,1.92,0,0,1-2-1.94A1.94,1.94,0,0,1,29.86,324.45Z"/><path class="cls-5" d="M90.32,345.87a2,2,0,0,1-2,1.94,2,2,0,1,1,.06-3.94A1.94,1.94,0,0,1,90.32,345.87Z"/><path class="cls-5" d="M93,352.37a1.94,1.94,0,0,1,2-1.95,2,2,0,0,1,2,2,2,2,0,0,1-2,1.95A1.93,1.93,0,0,1,93,352.37Z"/><path class="cls-5" d="M70.79,332.82a1.91,1.91,0,0,1-1.91,2,2,2,0,0,1-2-1.92,2,2,0,0,1,1.94-2A1.94,1.94,0,0,1,70.79,332.82Z"/><path class="cls-5" d="M49.38,328.38a1.92,1.92,0,0,1-1.89-2,1.94,1.94,0,0,1,2-1.91,2,2,0,1,1-.11,3.92Z"/><path class="cls-5" d="M25.31,326.44a1.92,1.92,0,0,1-2,1.94,2,2,0,0,1-2-2,2,2,0,0,1,2-1.94A1.94,1.94,0,0,1,25.31,326.44Z"/><path class="cls-5" d="M81.8,341.36a2,2,0,0,1-1.91-2,1.9,1.9,0,0,1,1.91-1.88,2,2,0,0,1,2,1.93A2,2,0,0,1,81.8,341.36Z"/><path class="cls-5" d="M18.84,326.39a1.92,1.92,0,0,1-1.94,2,1.94,1.94,0,1,1,.06-3.87A1.91,1.91,0,0,1,18.84,326.39Z"/><path class="cls-5" d="M55.83,324.49a1.94,1.94,0,1,1,.08,3.87,1.94,1.94,0,0,1-.08-3.87Z"/><path class="cls-5" d="M77.29,332.81a1.9,1.9,0,1,1-2-1.87A1.93,1.93,0,0,1,77.29,332.81Z"/><path class="cls-5" d="M10.43,328.32a1.9,1.9,0,0,1-.1-3.79,1.9,1.9,0,0,1,.1,3.79Z"/><path class="cls-5" d="M64.3,326.42a1.88,1.88,0,1,1-3.76,0,1.89,1.89,0,0,1,1.87-1.9A1.92,1.92,0,0,1,64.3,326.42Z"/><path class="cls-5" d="M95,347.68a1.85,1.85,0,1,1-.07-3.69,1.85,1.85,0,0,1,.07,3.69Z"/><path class="cls-5" d="M103.18,352.35a1.83,1.83,0,0,1-1.77,1.88,1.84,1.84,0,1,1-.07-3.68A1.81,1.81,0,0,1,103.18,352.35Z"/><path class="cls-5" d="M90.23,339.43a1.86,1.86,0,0,1-1.85,1.81,1.84,1.84,0,1,1,.05-3.68A1.89,1.89,0,0,1,90.23,339.43Z"/><path class="cls-5" d="M38.15,319.89a1.79,1.79,0,0,1-1.79,1.81,1.86,1.86,0,0,1-1.86-1.78A1.89,1.89,0,0,1,36.38,318,1.82,1.82,0,0,1,38.15,319.89Z"/><path class="cls-5" d="M5.76,326.39A1.8,1.8,0,0,1,4,328.25a1.86,1.86,0,0,1-1.87-1.79,1.82,1.82,0,0,1,1.8-1.84A1.78,1.78,0,0,1,5.76,326.39Z"/><path class="cls-5" d="M29.92,318.05a1.82,1.82,0,0,1,1.79,1.83,1.8,1.8,0,0,1-1.81,1.81,1.86,1.86,0,0,1-1.82-1.82A1.89,1.89,0,0,1,29.92,318.05Z"/><path class="cls-5" d="M42.92,318.05a1.83,1.83,0,1,1-.06,3.65,1.83,1.83,0,0,1,.06-3.65Z"/><path class="cls-5" d="M81.82,334.65a1.8,1.8,0,1,1,0-3.59,1.8,1.8,0,1,1,0,3.59Z"/><path class="cls-5" d="M23.5,318.07a1.81,1.81,0,1,1-.33,3.61,1.81,1.81,0,0,1,.33-3.61Z"/><path class="cls-5" d="M49.48,318.06A1.84,1.84,0,0,1,51.23,320a1.81,1.81,0,0,1-1.89,1.73,1.84,1.84,0,0,1-1.71-1.82A1.87,1.87,0,0,1,49.48,318.06Z"/><path class="cls-5" d="M68.89,324.63a1.8,1.8,0,1,1-.08,3.59,1.8,1.8,0,1,1,.08-3.59Z"/><path class="cls-5" d="M17,321.66a1.78,1.78,0,1,1,0-3.56,1.78,1.78,0,0,1,0,3.56Z"/><path class="cls-5" d="M57.63,319.91a1.8,1.8,0,0,1-1.79,1.73,1.77,1.77,0,0,1,.06-3.53A1.8,1.8,0,0,1,57.63,319.91Z"/><path class="cls-5" d="M75.38,324.69a1.73,1.73,0,1,1,0,3.46,1.68,1.68,0,0,1-1.73-1.71A1.7,1.7,0,0,1,75.38,324.69Z"/><path class="cls-5" d="M88.33,331.14a1.71,1.71,0,0,1,1.73,1.62,1.68,1.68,0,0,1-1.65,1.8,1.74,1.74,0,0,1-1.76-1.72A1.77,1.77,0,0,1,88.33,331.14Z"/><path class="cls-5" d="M109.58,352.34a1.7,1.7,0,0,1-1.61,1.74,1.7,1.7,0,1,1-.08-3.4A1.69,1.69,0,0,1,109.58,352.34Z"/><path class="cls-5" d="M12.12,319.85a1.78,1.78,0,0,1-1.73,1.76A1.71,1.71,0,0,1,8.68,320a1.68,1.68,0,0,1,1.65-1.8A1.74,1.74,0,0,1,12.12,319.85Z"/><path class="cls-5" d="M101.39,347.57a1.71,1.71,0,0,1-1.74-1.73,1.67,1.67,0,0,1,1.62-1.71,1.75,1.75,0,0,1,1.82,1.65A1.78,1.78,0,0,1,101.39,347.57Z"/><path class="cls-5" d="M94.9,341.13a1.69,1.69,0,0,1-1.68-1.77,1.66,1.66,0,0,1,1.67-1.66,1.75,1.75,0,0,1,1.77,1.7A1.78,1.78,0,0,1,94.9,341.13Z"/><path class="cls-5" d="M64.11,319.92a1.68,1.68,0,0,1-1.68,1.66,1.75,1.75,0,0,1-1.74-1.74,1.72,1.72,0,0,1,1.82-1.65A1.66,1.66,0,0,1,64.11,319.92Z"/><path class="cls-5" d="M83.48,326.44a1.66,1.66,0,1,1-1.67-1.69A1.69,1.69,0,0,1,83.48,326.44Z"/><path class="cls-5" d="M5.6,319.84A1.61,1.61,0,0,1,4,321.52a1.65,1.65,0,0,1-.08-3.29A1.63,1.63,0,0,1,5.6,319.84Z"/><path class="cls-5" d="M38,313.31A1.66,1.66,0,0,1,36.3,315a1.66,1.66,0,0,1,.07-3.32A1.67,1.67,0,0,1,38,313.31Z"/><path class="cls-5" d="M31.52,313.37a1.63,1.63,0,0,1-1.6,1.6,1.68,1.68,0,0,1-1.65-1.68,1.66,1.66,0,0,1,1.62-1.59A1.61,1.61,0,0,1,31.52,313.37Z"/><path class="cls-5" d="M42.85,311.7a1.64,1.64,0,0,1,.09,3.27,1.64,1.64,0,0,1-.09-3.27Z"/><path class="cls-5" d="M70.5,319.91a1.64,1.64,0,0,1-1.74,1.59,1.58,1.58,0,0,1-1.54-1.65,1.6,1.6,0,0,1,1.72-1.6A1.64,1.64,0,0,1,70.5,319.91Z"/><path class="cls-5" d="M49.46,311.73a1.57,1.57,0,0,1,1.57,1.6A1.61,1.61,0,0,1,49.47,315a1.66,1.66,0,0,1-1.66-1.67A1.64,1.64,0,0,1,49.46,311.73Z"/><path class="cls-5" d="M25,313.37A1.66,1.66,0,0,1,23.35,315a1.61,1.61,0,0,1-1.58-1.72,1.57,1.57,0,0,1,1.67-1.5A1.64,1.64,0,0,1,25,313.37Z"/><path class="cls-5" d="M102.93,339.42a1.57,1.57,0,0,1-1.6,1.58,1.63,1.63,0,0,1-1.59-1.62,1.66,1.66,0,0,1,1.63-1.58A1.59,1.59,0,0,1,102.93,339.42Z"/><path class="cls-5" d="M94.91,331.28a1.54,1.54,0,0,1,1.59,1.57,1.57,1.57,0,0,1-1.58,1.6,1.64,1.64,0,0,1-1.61-1.59A1.61,1.61,0,0,1,94.91,331.28Z"/><path class="cls-5" d="M107.85,344.24a1.64,1.64,0,0,1,1.64,1.57,1.61,1.61,0,0,1-1.59,1.61,1.59,1.59,0,0,1-1.57-1.5A1.61,1.61,0,0,1,107.85,344.24Z"/><path class="cls-5" d="M77,319.93a1.57,1.57,0,0,1-1.65,1.53,1.59,1.59,0,0,1,.11-3.18A1.6,1.6,0,0,1,77,319.93Z"/><path class="cls-5" d="M18.52,313.29a1.58,1.58,0,0,1-1.58,1.6,1.56,1.56,0,0,1-.08-3.12A1.59,1.59,0,0,1,18.52,313.29Z"/><path class="cls-5" d="M57.44,313.37a1.54,1.54,0,0,1-1.64,1.52,1.56,1.56,0,1,1,.08-3.12A1.54,1.54,0,0,1,57.44,313.37Z"/><path class="cls-5" d="M114.35,353.91a1.53,1.53,0,1,1,1.52-1.52A1.51,1.51,0,0,1,114.35,353.91Z"/><path class="cls-5" d="M88.41,324.9a1.53,1.53,0,1,1-1.58,1.45A1.52,1.52,0,0,1,88.41,324.9Z"/><path class="cls-5" d="M62.45,311.81a1.52,1.52,0,1,1-1.57,1.48A1.54,1.54,0,0,1,62.45,311.81Z"/><path class="cls-5" d="M10.37,311.81a1.54,1.54,0,0,1,1.55,1.5,1.51,1.51,0,0,1-1.51,1.53,1.52,1.52,0,1,1,0-3Z"/><path class="cls-5" d="M4,311.84a1.58,1.58,0,0,1,1.48,1.48,1.54,1.54,0,0,1-1.57,1.49,1.46,1.46,0,0,1-1.39-1.53A1.48,1.48,0,0,1,4,311.84Z"/><path class="cls-5" d="M81.79,321.34a1.46,1.46,0,0,1,0-2.92A1.49,1.49,0,0,1,83.32,320,1.51,1.51,0,0,1,81.79,321.34Z"/><path class="cls-5" d="M68.81,314.8a1.47,1.47,0,0,1,.07-2.94,1.47,1.47,0,0,1-.07,2.94Z"/><path class="cls-5" d="M101.31,334.32a1.46,1.46,0,0,1-1.41-1.5,1.5,1.5,0,0,1,1.5-1.44,1.53,1.53,0,0,1,1.42,1.52A1.5,1.5,0,0,1,101.31,334.32Z"/><path class="cls-5" d="M31.34,307A1.44,1.44,0,1,1,30,305.45,1.46,1.46,0,0,1,31.34,307Z"/><path class="cls-5" d="M107.94,340.84a1.44,1.44,0,1,1-.09-2.88,1.44,1.44,0,1,1,.09,2.88Z"/><path class="cls-5" d="M44.33,306.92a1.44,1.44,0,0,1-2.88,0,1.44,1.44,0,1,1,2.88,0Z"/><path class="cls-5" d="M37.78,306.85a1.44,1.44,0,1,1-1.52-1.4A1.48,1.48,0,0,1,37.78,306.85Z"/><path class="cls-5" d="M22,306.89a1.46,1.46,0,0,1,1.37-1.43,1.48,1.48,0,0,1,1.47,1.45,1.47,1.47,0,0,1-1.49,1.42A1.45,1.45,0,0,1,22,306.89Z"/><path class="cls-5" d="M96.33,326.38a1.45,1.45,0,0,1-1.42,1.48,1.44,1.44,0,0,1,0-2.87A1.44,1.44,0,0,1,96.33,326.38Z"/><path class="cls-5" d="M50.84,306.86a1.42,1.42,0,0,1-1.42,1.47,1.44,1.44,0,0,1,0-2.87A1.44,1.44,0,0,1,50.84,306.86Z"/><path class="cls-5" d="M115.76,345.79a1.4,1.4,0,0,1-1.32,1.44,1.37,1.37,0,0,1-1.51-1.35,1.38,1.38,0,0,1,1.3-1.45A1.42,1.42,0,0,1,115.76,345.79Z"/><path class="cls-5" d="M15.56,306.91a1.36,1.36,0,0,1,1.37-1.39,1.41,1.41,0,0,1,1.4,1.37,1.45,1.45,0,0,1-1.39,1.4A1.38,1.38,0,0,1,15.56,306.91Z"/><path class="cls-5" d="M75.45,312a1.35,1.35,0,0,1,1.31,1.44,1.37,1.37,0,0,1-1.43,1.33A1.44,1.44,0,0,1,74,313.27,1.41,1.41,0,0,1,75.45,312Z"/><path class="cls-5" d="M88.36,321.24A1.34,1.34,0,0,1,87,319.83a1.37,1.37,0,0,1,1.31-1.33,1.42,1.42,0,0,1,1.41,1.36A1.4,1.4,0,0,1,88.36,321.24Z"/><path class="cls-5" d="M55.87,305.52a1.34,1.34,0,0,1,1.36,1.38,1.37,1.37,0,0,1-1.36,1.39,1.44,1.44,0,0,1-1.4-1.39A1.41,1.41,0,0,1,55.87,305.52Z"/><path class="cls-5" d="M122.23,352.34a1.33,1.33,0,0,1-1.34,1.4,1.4,1.4,0,0,1-1.39-1.37,1.38,1.38,0,0,1,1.3-1.33A1.32,1.32,0,0,1,122.23,352.34Z"/><path class="cls-5" d="M11.7,306.85a1.28,1.28,0,0,1-1.24,1.35,1.31,1.31,0,1,1-.09-2.61A1.29,1.29,0,0,1,11.7,306.85Z"/><path class="cls-5" d="M62.45,308.2A1.28,1.28,0,0,1,61.1,307a1.3,1.3,0,0,1,1.33-1.37,1.31,1.31,0,1,1,0,2.61Z"/><path class="cls-5" d="M107.86,334.14a1.29,1.29,0,1,1,.08-2.57,1.26,1.26,0,0,1,1.25,1.33A1.25,1.25,0,0,1,107.86,334.14Z"/><path class="cls-5" d="M81.79,312.05a1.3,1.3,0,0,1,1.33,1.27,1.28,1.28,0,0,1-1.31,1.28,1.24,1.24,0,0,1-1.25-1.21A1.26,1.26,0,0,1,81.79,312.05Z"/><path class="cls-5" d="M115.6,339.44a1.29,1.29,0,0,1-1.34,1.26,1.34,1.34,0,0,1-1.22-1.28,1.3,1.3,0,0,1,1.3-1.3A1.26,1.26,0,0,1,115.6,339.44Z"/><path class="cls-5" d="M101.31,327.69a1.27,1.27,0,0,1,0-2.54,1.27,1.27,0,1,1,0,2.54Z"/><path class="cls-5" d="M4,308.16A1.22,1.22,0,0,1,2.71,307a1.24,1.24,0,0,1,1.23-1.34,1.32,1.32,0,0,1,1.29,1.2A1.3,1.3,0,0,1,4,308.16Z"/><path class="cls-5" d="M70.08,306.9a1.23,1.23,0,0,1-1.21,1.24,1.25,1.25,0,1,1,0-2.49A1.26,1.26,0,0,1,70.08,306.9Z"/><path class="cls-5" d="M119.65,345.89a1.19,1.19,0,0,1,1.18-1.27,1.25,1.25,0,0,1,1.31,1.17,1.27,1.27,0,0,1-1.21,1.28A1.21,1.21,0,0,1,119.65,345.89Z"/><path class="cls-5" d="M93.69,319.93a1.19,1.19,0,0,1,1.19-1.27,1.25,1.25,0,0,1,1.3,1.17A1.26,1.26,0,0,1,95,321.11,1.22,1.22,0,0,1,93.69,319.93Z"/><path class="cls-5" d="M36.3,301.55a1.2,1.2,0,1,1,.14-2.4,1.2,1.2,0,0,1-.14,2.4Z"/><path class="cls-5" d="M42.87,299.17a1.18,1.18,0,0,1,1.22,1.22,1.2,1.2,0,1,1-1.22-1.22Z"/><path class="cls-5" d="M30,301.53a1.18,1.18,0,1,1-.1-2.36,1.18,1.18,0,1,1,.1,2.36Z"/><path class="cls-5" d="M89.56,313.31a1.23,1.23,0,0,1-1.13,1.21,1.19,1.19,0,1,1,0-2.37A1.2,1.2,0,0,1,89.56,313.31Z"/><path class="cls-5" d="M50.59,300.4a1.11,1.11,0,0,1-1.18,1.11,1.17,1.17,0,0,1-1.16-1.16,1.19,1.19,0,0,1,1.26-1.17A1.14,1.14,0,0,1,50.59,300.4Z"/><path class="cls-5" d="M23.37,299.18a1.18,1.18,0,0,1,1.17,1.15,1.17,1.17,0,0,1-1.24,1.18,1.12,1.12,0,0,1-1.09-1.19A1.13,1.13,0,0,1,23.37,299.18Z"/><path class="cls-5" d="M16.93,299.2a1.19,1.19,0,0,1,1.17,1.15,1.17,1.17,0,0,1-1.16,1.15,1.15,1.15,0,0,1,0-2.3Z"/><path class="cls-5" d="M57,300.4a1.1,1.1,0,0,1-1.11,1.08,1.17,1.17,0,0,1-1.15-1.18,1.2,1.2,0,0,1,1.14-1.09A1.13,1.13,0,0,1,57,300.4Z"/><path class="cls-5" d="M76.53,306.86a1.15,1.15,0,0,1-1.1,1.2,1.22,1.22,0,0,1-1.2-1.12,1.17,1.17,0,0,1,1.12-1.19A1.12,1.12,0,0,1,76.53,306.86Z"/><path class="cls-5" d="M128.45,352.34a1.17,1.17,0,0,1-1.1,1.21,1.22,1.22,0,0,1-1.2-1.12,1.17,1.17,0,0,1,1.11-1.19A1.12,1.12,0,0,1,128.45,352.34Z"/><path class="cls-5" d="M114.28,331.74a1.12,1.12,0,1,1,.11,2.24,1.11,1.11,0,0,1-1.17-1.12A1.09,1.09,0,0,1,114.28,331.74Z"/><path class="cls-5" d="M107.85,325.31a1.15,1.15,0,0,1,1.2,1.12,1.17,1.17,0,0,1-1.09,1.12,1.11,1.11,0,0,1-1.18-1.12A1.1,1.1,0,0,1,107.85,325.31Z"/><path class="cls-5" d="M101.34,318.78a1.1,1.1,0,0,1,0,2.19,1.1,1.1,0,0,1,0-2.19Z"/><path class="cls-5" d="M10.41,301.45a1.1,1.1,0,0,1-.05-2.2,1.14,1.14,0,0,1,1.11,1.08A1.13,1.13,0,0,1,10.41,301.45Z"/><path class="cls-5" d="M120.84,340.5a1.11,1.11,0,0,1-1-1.13,1.08,1.08,0,1,1,2.16.07A1.11,1.11,0,0,1,120.84,340.5Z"/><path class="cls-5" d="M63.49,300.35a1.08,1.08,0,1,1-2.16,0,1.13,1.13,0,0,1,1.08-1.1A1.11,1.11,0,0,1,63.49,300.35Z"/><path class="cls-5" d="M82.89,306.85a1.05,1.05,0,0,1-1,1.09,1.05,1.05,0,0,1-.22-2.09A1.07,1.07,0,0,1,82.89,306.85Z"/><path class="cls-5" d="M96,313.38a1.07,1.07,0,0,1-1.06,1A1,1,0,1,1,95,312.3,1.08,1.08,0,0,1,96,313.38Z"/><path class="cls-5" d="M68.85,301.35a1,1,0,0,1-1-1,1,1,0,0,1,1.07-1,.94.94,0,0,1,.94.95A1,1,0,0,1,68.85,301.35Z"/><path class="cls-5" d="M127.3,344.85a1,1,0,0,1,1,1,1,1,0,0,1-1.05,1,1,1,0,0,1-1-.95A1,1,0,0,1,127.3,344.85Z"/><path class="cls-5" d="M4,299.36a1,1,0,0,1,1,1,1,1,0,0,1-1.09.94,1,1,0,0,1-.92-1A1,1,0,0,1,4,299.36Z"/><path class="cls-5" d="M89.31,306.85a1,1,0,0,1-.91,1,.91.91,0,0,1-.93-.82.9.9,0,0,1,.82-1A1,1,0,0,1,89.31,306.85Z"/><path class="cls-5" d="M43.83,293.88a1,1,0,0,1-.92,1A.9.9,0,0,1,42,294a.92.92,0,0,1,.85-1A1,1,0,0,1,43.83,293.88Z"/><path class="cls-5" d="M36.33,293a.93.93,0,0,1,.07,1.85.93.93,0,0,1-1-.89A1,1,0,0,1,36.33,293Z"/><path class="cls-5" d="M30.81,293.91a.89.89,0,0,1-.93.93.92.92,0,0,1,0-1.84A.88.88,0,0,1,30.81,293.91Z"/><path class="cls-5" d="M115.27,326.39a1,1,0,0,1-.92,1,.93.93,0,0,1-.08-1.86A1,1,0,0,1,115.27,326.39Z"/><path class="cls-5" d="M24.27,293.91a.93.93,0,0,1-.95.91.9.9,0,0,1-.84-.9.92.92,0,0,1,.83-.91A1,1,0,0,1,24.27,293.91Z"/><path class="cls-5" d="M75.38,301.25a.94.94,0,0,1-.9-1,1,1,0,0,1,.92-.84.92.92,0,0,1,.88,1A.89.89,0,0,1,75.38,301.25Z"/><path class="cls-5" d="M50.32,293.9a.89.89,0,0,1-.81.92.94.94,0,0,1-1-.88,1,1,0,0,1,.95-.93A.92.92,0,0,1,50.32,293.9Z"/><path class="cls-5" d="M108.81,319.88a.94.94,0,0,1-1,.9.9.9,0,0,1-.82-.91.91.91,0,0,1,.83-.9A1,1,0,0,1,108.81,319.88Z"/><path class="cls-5" d="M133.81,351.5a.94.94,0,0,1,1,.81.93.93,0,0,1-.92,1,.89.89,0,0,1,0-1.77Z"/><path class="cls-5" d="M121.76,332.85a.86.86,0,0,1-.84.9,1,1,0,0,1-1-.94.93.93,0,0,1,.93-.83A.84.84,0,0,1,121.76,332.85Z"/><path class="cls-5" d="M17.8,294a.93.93,0,0,1-.91.84.91.91,0,0,1-.82-.92A.89.89,0,0,1,17,293,.91.91,0,0,1,17.8,294Z"/><path class="cls-5" d="M128.15,339.35a.83.83,0,1,1-1.66.11.85.85,0,0,1,.72-.89A.87.87,0,0,1,128.15,339.35Z"/><path class="cls-5" d="M55.86,293.07a.87.87,0,0,1,.85.89.89.89,0,0,1-.82.81.85.85,0,0,1,0-1.7Z"/><path class="cls-5" d="M102.19,313.44a.85.85,0,0,1-1,.7.81.81,0,0,1-.65-.92.8.8,0,0,1,1-.7A.85.85,0,0,1,102.19,313.44Z"/><path class="cls-5" d="M10.18,293.16c.65,0,1,.42,1,.82a.74.74,0,0,1-.78.69.68.68,0,0,1-.73-.81A2.22,2.22,0,0,1,10.18,293.16Z"/><path class="cls-5" d="M82.61,300.53a2.14,2.14,0,0,1-.71.54.67.67,0,0,1-.83-.7.69.69,0,0,1,.68-.76C82.2,299.56,82.59,299.89,82.61,300.53Z"/><path class="cls-5" d="M63.46,293.92c-.45.34-.69.64-1,.73s-.82-.3-.83-.73a.72.72,0,0,1,.83-.73A4.41,4.41,0,0,1,63.46,293.92Z"/><path class="cls-5" d="M95.91,306.91c-.43.32-.67.63-1,.72s-.8-.38-.75-.79a.66.66,0,0,1,.76-.66C95.24,306.23,95.49,306.57,95.91,306.91Z"/><path class="cls-5" d="M134.6,345.86a.7.7,0,0,1-.77.69.68.68,0,0,1-.69-.75.67.67,0,0,1,.75-.68A.7.7,0,0,1,134.6,345.86Z"/><path class="cls-5" d="M4.63,293.9a.66.66,0,0,1-.7.71c-.39,0-.79-.38-.66-.73a1.2,1.2,0,0,1,.64-.63C4.28,293.12,4.62,293.49,4.63,293.9Z"/><path class="cls-5" d="M68.84,293c.31.42.58.64.66.91s-.33.74-.7.69-.66-.3-.58-.68S68.55,293.4,68.84,293Z"/><path class="cls-5" d="M115.24,319.82c-.37.32-.57.62-.84.69s-.64-.14-.71-.53.25-.83.62-.75A3.42,3.42,0,0,1,115.24,319.82Z"/><path class="cls-5" d="M121.83,326.48c-.47.28-.72.54-1,.57a.57.57,0,0,1-.62-.66.56.56,0,0,1,.68-.58C121.17,325.87,121.39,326.15,121.83,326.48Z"/><path class="cls-5" d="M127.37,333.7c-.31-.35-.58-.52-.64-.75a.53.53,0,0,1,.54-.69c.42,0,.69.22.64.61S127.63,333.32,127.37,333.7Z"/><path class="cls-5" d="M108.76,313.29c-.36.29-.54.55-.78.62a.53.53,0,0,1-.69-.55c0-.41.23-.68.63-.61C108.16,312.79,108.37,313,108.76,313.29Z"/><path class="cls-5" d="M88.38,299.52c.26.4.54.64.51.83s-.34.39-.52.59c-.2-.2-.52-.38-.55-.59S88.1,299.92,88.38,299.52Z"/><path class="cls-5" d="M30.72,287.45c-.45.22-.69.43-.92.41s-.39-.36-.37-.54.33-.48.48-.46S30.33,287.15,30.72,287.45Z"/><path class="cls-5" d="M37.16,287.3c-.4.3-.6.55-.83.57s-.46-.28-.47-.45.23-.53.38-.54S36.71,287.08,37.16,287.3Z"/><path class="cls-5" d="M102.17,306.82c-.4.3-.6.56-.82.58s-.46-.28-.48-.45a.69.69,0,0,1,.38-.55C101.47,306.38,101.72,306.6,102.17,306.82Z"/><path class="cls-5" d="M141.22,352.31c-.4.3-.6.55-.82.58s-.46-.28-.48-.46.23-.53.38-.54S140.77,352.09,141.22,352.31Z"/><path class="cls-5" d="M42.92,288.13c-.26-.34-.52-.54-.54-.76s.29-.36.46-.53c.19.18.47.33.54.54S43.16,287.77,42.92,288.13Z"/><path class="cls-5" d="M75.33,294.61c-.2-.32-.44-.53-.42-.7a.73.73,0,0,1,.48-.47.43.43,0,0,1,.51.54C75.86,294.18,75.6,294.33,75.33,294.61Z"/><path class="cls-5" d="M50,287.34c-.21.21-.38.51-.49.48s-.38-.27-.57-.42c.17-.17.32-.41.52-.48S49.78,287.16,50,287.34Z"/><path class="cls-5" d="M24.07,287.35c-.35.24-.54.45-.74.47s-.39-.27-.4-.43.24-.47.36-.47S23.7,287.13,24.07,287.35Z"/><path class="cls-5" d="M133.91,340c-.24-.27-.5-.45-.47-.57a.79.79,0,0,1,.43-.5c.09,0,.43.24.43.37S134.1,339.73,133.91,340Z"/><path class="cls-5" d="M56.44,287.38c-.28.18-.44.35-.61.35s-.25-.2-.38-.31c.13-.15.25-.38.4-.41S56.17,287.2,56.44,287.38Z"/><path class="cls-5" d="M16.92,286.84l.43.55a1.44,1.44,0,0,1-.48.35c-.08,0-.33-.23-.32-.33S16.74,287.09,16.92,286.84Z"/><path class="cls-5" d="M81.88,294.41c-.18-.22-.33-.34-.36-.48s.16-.33.22-.32.38.13.42.25S82,294.15,81.88,294.41Z"/><path class="cls-5" d="M140.91,345.86c-.25.15-.42.33-.54.3s-.24-.25-.27-.4.21-.27.3-.25S140.68,345.69,140.91,345.86Z"/><path class="cls-5" d="M62.88,287.53c-.29.07-.46.16-.6.12s-.22-.28-.19-.32.27-.27.4-.26S62.69,287.3,62.88,287.53Z"/><path class="cls-5" d="M10.88,287.32c-.23.18-.34.33-.49.37s-.31-.16-.3-.23.13-.37.24-.4S10.62,287.19,10.88,287.32Z"/><path class="cls-5" d="M95.43,300.34c-.24.17-.39.36-.51.34s-.26-.23-.31-.38.19-.28.28-.27S95.18,300.18,95.43,300.34Z"/><path class="cls-5" d="M121.38,319.88c-.24.16-.4.35-.52.32s-.25-.23-.29-.38.2-.28.29-.27S121.14,319.72,121.38,319.88Z"/><path class="cls-5" d="M127.26,326c.16.21.32.33.31.42s-.18.21-.3.27-.2-.14-.2-.21A1.75,1.75,0,0,1,127.26,326Z"/><path class="cls-5" d="M114.74,313.29c-.2.16-.32.32-.41.3s-.21-.18-.25-.3.13-.22.2-.21S114.52,313.18,114.74,313.29Z"/></g></g><path class="cls-9" d="M213.73,21.62h-7.68L189.52,56.53a16.18,16.18,0,0,1-14.63,9.26H67a16.17,16.17,0,0,1-14.63-9.26L35.85,21.62H28.17A8.33,8.33,0,0,0,19.84,30V322.06a8.33,8.33,0,0,0,8.33,8.33H60l8.85-18.69a12.29,12.29,0,0,1,11.12-7h82a12.29,12.29,0,0,1,11.12,7l8.85,18.69h31.81a8.33,8.33,0,0,0,8.33-8.33V30A8.33,8.33,0,0,0,213.73,21.62Z"/><path class="cls-10" d="M213.73,21.62h-7.68L189.52,56.53a16.18,16.18,0,0,1-14.63,9.26H67a16.17,16.17,0,0,1-14.63-9.26L35.85,21.62H28.17A8.33,8.33,0,0,0,19.84,30V322.06a8.33,8.33,0,0,0,8.33,8.33H60l8.85-18.69a12.29,12.29,0,0,1,11.12-7h82a12.29,12.29,0,0,1,11.12,7l8.85,18.69h31.81a8.33,8.33,0,0,0,8.33-8.33V30A8.33,8.33,0,0,0,213.73,21.62Z"/><path class="cls-11" d="M107.49,49.39a9.69,9.69,0,0,1-12.38-1.75,9.51,9.51,0,0,1,0-12.79c3.45-4,8.43-4.16,14.31-.31l1.34-1c-4.15-4.52-9.32-6.18-15.14-6.23-.94,0-1.82,0-2.39-1.19a30.25,30.25,0,0,1,8.93-.59c4,.54,7.9,1.25,11.91.9A2.58,2.58,0,0,1,117,28c1.13,2.72,3,3.39,5.82,2.84,2.11-.4,3.56-1.18,4.28-3.19.27-.77.58-1.53.79-2.31a3,3,0,0,0-2.86-3.81c-1.23,0-2.46.07-3.68,0-.4,0-.75-.51-1.13-.79.38-.28.75-.78,1.15-.81,1.44-.11,2.91.05,4.35-.09a2.66,2.66,0,0,1,3,1.69,2.39,2.39,0,0,0,1.51,1.22c2.36.25,2.36.18,2.94,2.48a5.87,5.87,0,0,0,.26,1.06c.47.94,0,1.37-.85,1.52.27.92.7,1.09,1.54.8a19.31,19.31,0,0,1,7.93-.73A1.85,1.85,0,0,1,144,29.66c-3.34-.69-6.62-.87-9.83.84l1.19,1.88c6.1-1.71,10.7,0,13,4.67a9.8,9.8,0,0,1-3.11,12,9.65,9.65,0,0,1-12.35-1,9,9,0,0,1-2.77-5.48,9.74,9.74,0,0,1,3.76-9.11l-1.49-2.31a41.76,41.76,0,0,0-3.56,5.14A37.85,37.85,0,0,0,127,42H115l-2.68-7.33L110.46,36C113.34,41.27,111.66,46.67,107.49,49.39ZM97.77,35.54a7.28,7.28,0,0,0-1.41,9.79,7.18,7.18,0,0,0,9.88,2,7.1,7.1,0,0,0,2.23-9.77c-1,.79-2.11,1.53-3.06,2.4-.28.26-.26.9-.29,1.37a2.83,2.83,0,0,1-2.93,2.77,3,3,0,0,1-2.82-3c.06-1.52,1.51-3.08,3-2.68,1.82.5,2.78-.54,3.93-1.42.35-.27.67-.59,1-.88C105.1,33.47,100.77,33.22,97.77,35.54Zm40.91,2.35a2,2,0,0,0,1.25.5,2.77,2.77,0,0,1,2.53,3.1A2.89,2.89,0,0,1,139.19,44a2.83,2.83,0,0,1-2.37-3.25c.1-.61.54-1.32.34-1.78a28.62,28.62,0,0,0-1.93-3.39A7,7,0,0,0,133.46,45a7.25,7.25,0,0,0,12.59-7.17,7,7,0,0,0-9.31-3.13C137.4,35.82,138,36.9,138.68,37.89Z"/><text class="cls-12" transform="translate(61.54 159.96)">Clear the <tspan x="-30.55" y="36">number order </tspan><tspan x="-24.46" y="72">from (51-60)</tspan></text><path class="cls-1" d="M189.52,56.53,203,28l-37.8,37.8h9.66A16.18,16.18,0,0,0,189.52,56.53Z"/><path class="cls-13" d="M222.06,30a8.33,8.33,0,0,0-8.33-8.33H209.4L203,28,189.52,56.53a16.18,16.18,0,0,1-14.63,9.26h-9.66L19.84,211.18v84.34L222.06,93.31Z"/><polygon class="cls-13" points="85.11 65.79 19.84 131.06 19.84 155.06 109.11 65.79 85.11 65.79"/><polygon class="cls-14" points="206.05 21.62 203.03 27.99 209.4 21.62 206.05 21.62"/><g class="cls-15"><g class="cls-4"><path class="cls-5" d="M247.23,352.43a1.93,1.93,0,0,1-2,1.92,2,2,0,0,1-2-2,2,2,0,0,1,2.06-2A1.94,1.94,0,0,1,247.23,352.43Z"/><path class="cls-5" d="M243.42,345.73a1.83,1.83,0,0,1,2-1.75,1.86,1.86,0,0,1-.2,3.71A1.83,1.83,0,0,1,243.42,345.73Z"/><path class="cls-5" d="M240.7,352.34a1.9,1.9,0,0,1-1.87,1.91,1.85,1.85,0,0,1-1.83-1.82,1.83,1.83,0,0,1,1.74-1.9A1.88,1.88,0,0,1,240.7,352.34Z"/><path class="cls-5" d="M240.57,345.79a1.75,1.75,0,0,1-1.69,1.81,1.77,1.77,0,0,1-.09-3.53A1.75,1.75,0,0,1,240.57,345.79Z"/><path class="cls-5" d="M247,339.37a1.75,1.75,0,0,1-1.7,1.8,1.77,1.77,0,0,1-.07-3.53A1.75,1.75,0,0,1,247,339.37Z"/><path class="cls-5" d="M234,352.36a1.75,1.75,0,0,1-1.74,1.74,1.72,1.72,0,0,1,0-3.44A1.77,1.77,0,0,1,234,352.36Z"/><path class="cls-5" d="M238.8,337.78a1.62,1.62,0,1,1,.08,3.24,1.62,1.62,0,0,1-.08-3.24Z"/><path class="cls-5" d="M245.3,334.47a1.61,1.61,0,0,1-.11-3.22,1.65,1.65,0,0,1,1.71,1.61A1.67,1.67,0,0,1,245.3,334.47Z"/><path class="cls-5" d="M232.24,347.44a1.61,1.61,0,1,1,.15-3.21,1.61,1.61,0,0,1-.15,3.21Z"/><path class="cls-5" d="M225.89,353.93a1.55,1.55,0,1,1-.06-3.09,1.55,1.55,0,1,1,.06,3.09Z"/><path class="cls-5" d="M238.86,334.33a1.48,1.48,0,1,1,0-3,1.48,1.48,0,0,1,1.43,1.49A1.45,1.45,0,0,1,238.86,334.33Z"/><path class="cls-5" d="M232.25,340.87a1.44,1.44,0,0,1-1.42-1.48,1.41,1.41,0,0,1,1.45-1.44,1.47,1.47,0,0,1,1.5,1.52A1.5,1.5,0,0,1,232.25,340.87Z"/><path class="cls-5" d="M246.72,326.44a1.47,1.47,0,0,1-1.46,1.45,1.47,1.47,0,0,1,0-2.94A1.48,1.48,0,0,1,246.72,326.44Z"/><path class="cls-5" d="M225.87,347.28a1.44,1.44,0,1,1,1.45-1.45A1.45,1.45,0,0,1,225.87,347.28Z"/><path class="cls-5" d="M217.94,352.4A1.34,1.34,0,0,1,219.3,351a1.41,1.41,0,0,1,1.41,1.36,1.44,1.44,0,0,1-1.39,1.4A1.37,1.37,0,0,1,217.94,352.4Z"/><path class="cls-5" d="M233.61,332.86a1.32,1.32,0,1,1-1.29-1.31A1.3,1.3,0,0,1,233.61,332.86Z"/><path class="cls-5" d="M225.82,338.09a1.32,1.32,0,0,1,.08,2.63,1.32,1.32,0,0,1-.08-2.63Z"/><path class="cls-5" d="M238.83,327.71a1.29,1.29,0,1,1,0-2.58,1.29,1.29,0,1,1,0,2.58Z"/><path class="cls-5" d="M220.55,345.81a1.23,1.23,0,0,1-1.19,1.29,1.3,1.3,0,0,1-1.33-1.29,1.28,1.28,0,0,1,1.28-1.22A1.2,1.2,0,0,1,220.55,345.81Z"/><path class="cls-5" d="M245.29,318.63a1.21,1.21,0,0,1,1.22,1.25,1.23,1.23,0,0,1-1.22,1.26,1.3,1.3,0,0,1-1.3-1.32A1.28,1.28,0,0,1,245.29,318.63Z"/><path class="cls-5" d="M213.92,352.4a1.17,1.17,0,0,1-1.15,1.17,1.19,1.19,0,1,1,0-2.37A1.17,1.17,0,0,1,213.92,352.4Z"/><path class="cls-5" d="M232.27,327.59a1.21,1.21,0,0,1-1.15-1.18,1.18,1.18,0,0,1,1.18-1.13,1.13,1.13,0,0,1,1.13,1.16A1.16,1.16,0,0,1,232.27,327.59Z"/><path class="cls-5" d="M227,332.86a1.15,1.15,0,0,1-1.14,1.16,1.21,1.21,0,0,1-1.16-1.17,1.18,1.18,0,0,1,1.17-1.14A1.11,1.11,0,0,1,227,332.86Z"/><path class="cls-5" d="M238.79,321a1.13,1.13,0,0,1,0-2.25A1.19,1.19,0,0,1,240,320,1.17,1.17,0,0,1,238.79,321Z"/><path class="cls-5" d="M219.35,338.28a1.18,1.18,0,0,1,1.08,1.13,1.16,1.16,0,0,1-1.21,1.11,1.12,1.12,0,0,1,.13-2.24Z"/><path class="cls-5" d="M212.74,344.77a1.09,1.09,0,0,1,1.09,1.1,1.13,1.13,0,0,1-1,1,1.07,1.07,0,0,1-1.07-1.1A1,1,0,0,1,212.74,344.77Z"/><path class="cls-5" d="M246.3,313.44a1,1,0,0,1-1.09.93,1,1,0,0,1-1-1.15,1.07,1.07,0,0,1,1.22-.93A1,1,0,0,1,246.3,313.44Z"/><path class="cls-5" d="M207.27,352.33a1,1,0,0,1-.86,1,1,1,0,1,1-.11-1.93A1,1,0,0,1,207.27,352.33Z"/><path class="cls-5" d="M225.89,327.39a1,1,0,0,1-1-.9,1,1,0,1,1,1,.9Z"/><path class="cls-5" d="M232.29,320.79a.93.93,0,0,1-.94-.94,1,1,0,0,1,1-.9.9.9,0,0,1,.85.89A.87.87,0,0,1,232.29,320.79Z"/><path class="cls-5" d="M219.3,333.79a.92.92,0,0,1-.9-1,.9.9,0,0,1,.87-.89.93.93,0,1,1,0,1.86Z"/><path class="cls-5" d="M212.81,338.52a.92.92,0,0,1,.82.93.9.9,0,0,1-.92.83.92.92,0,0,1-.82-.93A1,1,0,0,1,212.81,338.52Z"/><path class="cls-5" d="M239.71,313.37a.88.88,0,0,1-.92.81.85.85,0,1,1,.09-1.7A.87.87,0,0,1,239.71,313.37Z"/><path class="cls-5" d="M245.29,306.12a.77.77,0,0,1,.73.83.73.73,0,0,1-.73.72.81.81,0,0,1-.81-.77A.83.83,0,0,1,245.29,306.12Z"/><path class="cls-5" d="M207.11,345.84a.76.76,0,0,1-.84.74.75.75,0,0,1,0-1.49A.76.76,0,0,1,207.11,345.84Z"/><path class="cls-5" d="M219.49,325.72a2.36,2.36,0,0,1,.51.71c.1.34-.35.74-.71.7a.66.66,0,0,1-.66-.65C218.6,326.07,218.89,325.74,219.49,325.72Z"/><path class="cls-5" d="M226.53,319.89c0,.42-.34.78-.72.65a1.2,1.2,0,0,1-.64-.63c-.12-.34.29-.72.67-.73A.67.67,0,0,1,226.53,319.89Z"/><path class="cls-5" d="M233.23,313.26c-.43.35-.64.64-.91.7a.57.57,0,0,1-.69-.59.55.55,0,0,1,.61-.65C232.51,312.75,232.76,313,233.23,313.26Z"/><path class="cls-5" d="M211.82,332.8c.45-.27.7-.53,1-.56s.63.24.6.66-.3.67-.68.58S212.23,333.13,211.82,332.8Z"/><path class="cls-5" d="M200.64,352.37c-.36.28-.55.53-.79.59a.53.53,0,0,1-.68-.57c0-.4.25-.67.65-.59C200.06,351.85,200.27,352.1,200.64,352.37Z"/><path class="cls-5" d="M207.18,339.42c-.41.27-.62.51-.86.54s-.55-.21-.54-.57a.49.49,0,0,1,.57-.54C206.59,338.9,206.79,339.14,207.18,339.42Z"/><path class="cls-5" d="M239.67,306.92c-.41.26-.66.54-.85.51s-.38-.35-.57-.55c.2-.18.38-.49.6-.52S239.27,306.63,239.67,306.92Z"/><path class="cls-5" d="M245.83,300.39c-.26.16-.44.37-.58.35a.57.57,0,0,1-.36-.42.54.54,0,0,1,.41-.36C245.46,300,245.6,300.19,245.83,300.39Z"/><path class="cls-5" d="M219.87,319.85c-.23.19-.38.42-.53.42a.52.52,0,0,1-.4-.37.55.55,0,0,1,.35-.42C219.44,319.46,219.62,319.68,219.87,319.85Z"/><path class="cls-5" d="M200.34,345.87c-.25.17-.43.38-.58.36a.4.4,0,0,1,.05-.79C200,345.45,200.12,345.67,200.34,345.87Z"/><path class="cls-5" d="M212.79,326.9c-.17-.23-.32-.35-.34-.49s.18-.31.24-.29.36.14.39.27S212.94,326.66,212.79,326.9Z"/><path class="cls-5" d="M225.88,313.8c-.16-.22-.31-.34-.34-.48s.18-.31.24-.3.36.15.4.27S226,313.56,225.88,313.8Z"/><path class="cls-5" d="M206.83,333a1.54,1.54,0,0,1-.46.14c-.1,0-.18-.15-.27-.24a1.48,1.48,0,0,1,.29-.27S206.54,332.73,206.83,333Z"/><path class="cls-5" d="M232.63,306.89a1.5,1.5,0,0,1-.34.28s-.16-.12-.24-.18a1.37,1.37,0,0,1,.27-.31S232.48,306.78,232.63,306.89Z"/></g></g></g></g></svg>