<svg xmlns="http://www.w3.org/2000/svg" xmlns:xlink="http://www.w3.org/1999/xlink" viewBox="0 0 239.71 347.63"><defs><style>.cls-1,.cls-10{fill:none;}.cls-2{isolation:isolate;}.cls-3{clip-path:url(#clip-path);}.cls-4{opacity:0.28;mix-blend-mode:overlay;}.cls-22,.cls-5{fill:#fff;}.cls-6{fill:url(#linear-gradient);}.cls-7{fill:url(#linear-gradient-2);}.cls-8{clip-path:url(#clip-path-2);}.cls-9{fill:url(#linear-gradient-3);}.cls-10{stroke-linecap:round;stroke-linejoin:round;stroke-width:2px;stroke:url(#linear-gradient-4);}.cls-11{fill:url(#linear-gradient-5);}.cls-12{fill:url(#linear-gradient-6);}.cls-13{fill:url(#linear-gradient-7);}.cls-14{fill:url(#linear-gradient-8);}.cls-15{fill:url(#linear-gradient-9);}.cls-16{fill:url(#linear-gradient-10);}.cls-17{fill:url(#linear-gradient-11);}.cls-18{fill:url(#linear-gradient-12);}.cls-19{fill:url(#linear-gradient-13);}.cls-20{fill:url(#linear-gradient-14);}.cls-21{font-size:30px;fill:#f5cb16;font-family:Roboto-Regular, Roboto;}.cls-22{opacity:0.16;mix-blend-mode:hard-light;}.cls-23{fill:url(#linear-gradient-15);}.cls-24{clip-path:url(#clip-path-3);}</style><clipPath id="clip-path"><path class="cls-1" d="M-39.14,263.06V90.55a11.38,11.38,0,0,1,3.54-8.26,17.54,17.54,0,0,0,5.36-12.7V23.48A17.74,17.74,0,0,0-48,5.75h-201.3A17.74,17.74,0,0,0-267,23.48V69.59a17.54,17.54,0,0,0,5.36,12.7,11.38,11.38,0,0,1,3.54,8.26V263.06a11.38,11.38,0,0,1-3.54,8.26A17.54,17.54,0,0,0-267,284v46.11a17.74,17.74,0,0,0,17.74,17.73H-48a17.74,17.74,0,0,0,17.74-17.73V284a17.54,17.54,0,0,0-5.36-12.7A11.38,11.38,0,0,1-39.14,263.06Z"/></clipPath><linearGradient id="linear-gradient" x1="-22.57" y1="35.47" x2="260.09" y2="318.14" gradientUnits="userSpaceOnUse"><stop offset="0" stop-color="#fff"/><stop offset="0.5" stop-color="#e5e5e5"/><stop offset="1" stop-color="#c7c7c7"/></linearGradient><linearGradient id="linear-gradient-2" x1="118.76" y1="1.06" x2="118.76" y2="352.24" gradientUnits="userSpaceOnUse"><stop offset="0" stop-color="#f5cb16"/><stop offset="0.28" stop-color="#fef687"/><stop offset="0.34" stop-color="#f5e063"/><stop offset="0.42" stop-color="#ebc83c"/><stop offset="0.48" stop-color="#e5b924"/><stop offset="0.52" stop-color="#e3b31b"/><stop offset="0.65" stop-color="#f0d24e"/><stop offset="0.79" stop-color="#fff585"/><stop offset="0.87" stop-color="#fbe254"/><stop offset="0.96" stop-color="#f7d227"/><stop offset="1" stop-color="#f5cb16"/></linearGradient><clipPath id="clip-path-2"><path class="cls-1" d="M228.25,263.06V90.55a11.38,11.38,0,0,1,3.54-8.26,17.54,17.54,0,0,0,5.36-12.7V23.48A17.74,17.74,0,0,0,219.41,5.75H18.11A17.74,17.74,0,0,0,.37,23.48V69.59a17.54,17.54,0,0,0,5.36,12.7,11.38,11.38,0,0,1,3.54,8.26V263.06a11.38,11.38,0,0,1-3.54,8.26A17.54,17.54,0,0,0,.37,284v46.11a17.74,17.74,0,0,0,17.74,17.73h201.3a17.74,17.74,0,0,0,17.74-17.73V284a17.54,17.54,0,0,0-5.36-12.7A11.38,11.38,0,0,1,228.25,263.06Z"/></clipPath><linearGradient id="linear-gradient-3" x1="-6.55" y1="51.5" x2="244.07" y2="302.11" gradientUnits="userSpaceOnUse"><stop offset="0" stop-color="#8c0f02"/><stop offset="1" stop-color="#ff1124"/></linearGradient><linearGradient id="linear-gradient-4" x1="-7.25" y1="50.79" x2="244.77" y2="302.82" gradientUnits="userSpaceOnUse"><stop offset="0" stop-color="#c7c7c7"/><stop offset="0.5" stop-color="#e5e5e5"/><stop offset="1" stop-color="#fff"/></linearGradient><linearGradient id="linear-gradient-5" x1="88.39" y1="39.06" x2="142.13" y2="39.06" xlink:href="#linear-gradient-3"/><linearGradient id="linear-gradient-6" x1="88.39" y1="26.65" x2="142.13" y2="26.65" xlink:href="#linear-gradient-3"/><linearGradient id="linear-gradient-7" x1="88.39" y1="28.44" x2="142.13" y2="28.44" xlink:href="#linear-gradient-3"/><linearGradient id="linear-gradient-8" x1="88.39" y1="23.4" x2="142.13" y2="23.4" xlink:href="#linear-gradient-3"/><linearGradient id="linear-gradient-9" x1="88.39" y1="26.06" x2="142.13" y2="26.06" xlink:href="#linear-gradient-3"/><linearGradient id="linear-gradient-10" x1="88.39" y1="21.17" x2="142.13" y2="21.17" xlink:href="#linear-gradient-3"/><linearGradient id="linear-gradient-11" x1="88.39" y1="21.55" x2="142.13" y2="21.55" xlink:href="#linear-gradient-3"/><linearGradient id="linear-gradient-12" x1="88.39" y1="22.13" x2="142.13" y2="22.13" xlink:href="#linear-gradient-3"/><linearGradient id="linear-gradient-13" x1="88.39" y1="27.47" x2="142.13" y2="27.47" xlink:href="#linear-gradient-3"/><linearGradient id="linear-gradient-14" x1="88.39" y1="23.13" x2="142.13" y2="23.13" xlink:href="#linear-gradient-3"/><linearGradient id="linear-gradient-15" x1="111.69" y1="-66.74" x2="362.3" y2="183.88" xlink:href="#linear-gradient"/><clipPath id="clip-path-3"><path class="cls-1" d="M495.64,263.06V90.55a11.38,11.38,0,0,1,3.54-8.26,17.54,17.54,0,0,0,5.36-12.7V23.48A17.73,17.73,0,0,0,486.8,5.75H285.5a17.73,17.73,0,0,0-17.73,17.73V69.59a17.53,17.53,0,0,0,5.35,12.7,11.38,11.38,0,0,1,3.54,8.26V263.06a11.38,11.38,0,0,1-3.54,8.26,17.53,17.53,0,0,0-5.35,12.7v46.11a17.73,17.73,0,0,0,17.73,17.73H486.8a17.73,17.73,0,0,0,17.74-17.73V284a17.54,17.54,0,0,0-5.36-12.7A11.38,11.38,0,0,1,495.64,263.06Z"/></clipPath></defs><g class="cls-2"><g id="Layer_1" data-name="Layer 1"><g class="cls-3"><g class="cls-4"><path class="cls-5" d="M1.05,0A1.33,1.33,0,0,1-.23,1.31,1.36,1.36,0,0,1-1.65,0,1.36,1.36,0,0,1-.24-1.35,1.33,1.33,0,0,1,1.05,0Z"/><path class="cls-5" d="M-1.54,6.45A1.24,1.24,0,0,1-.27,5.15,1.31,1.31,0,0,1,1,6.37a1.29,1.29,0,0,1-1.3,1.3A1.23,1.23,0,0,1-1.54,6.45Z"/><path class="cls-5" d="M-.27,11.82A1.13,1.13,0,0,1,.82,13,1.11,1.11,0,0,1-.32,14.09,1.18,1.18,0,0,1-1.44,13,1.19,1.19,0,0,1-.27,11.82Z"/><path class="cls-5" d="M6.23,1.11A1.11,1.11,0,0,1,5.14,0,1.08,1.08,0,0,1,6.29-1.13,1.15,1.15,0,0,1,7.41,0,1.18,1.18,0,0,1,6.23,1.11Z"/><path class="cls-5" d="M6.24,7.42a1,1,0,0,1-1-1,1.08,1.08,0,0,1,1-1,1,1,0,0,1,1,1A1,1,0,0,1,6.24,7.42Z"/><path class="cls-5" d="M-.29,18.51a1,1,0,0,1,1,1.06,1,1,0,0,1-1,.93,1,1,0,0,1-1-1.06A1,1,0,0,1-.29,18.51Z"/><path class="cls-5" d="M7.13,13a.93.93,0,0,1-.91.84.91.91,0,0,1-.83-.92.9.9,0,0,1,.9-.84A.93.93,0,0,1,7.13,13Z"/><path class="cls-5" d="M13.64.09a.85.85,0,0,1-1,.7A.81.81,0,0,1,12-.13a.8.8,0,0,1,1-.7A.85.85,0,0,1,13.64.09Z"/><path class="cls-5" d="M-.29,26.74a.78.78,0,0,1-.79-.81.79.79,0,0,1,.8-.8.86.86,0,0,1,.81.81A.85.85,0,0,1-.29,26.74Z"/><path class="cls-5" d="M13.49,6.61a2.27,2.27,0,0,1-.71.48c-.36.09-.79-.38-.66-.71a1.23,1.23,0,0,1,.65-.64C13.12,5.62,13.48,6,13.49,6.61Z"/><path class="cls-5" d="M7.26,19.44c-.45.35-.69.67-1,.74a.58.58,0,0,1-.7-.56c-.06-.41.23-.85.6-.79A4.18,4.18,0,0,1,7.26,19.44Z"/><path class="cls-5" d="M.56,32.41c-.38.31-.59.61-.8.61a.81.81,0,0,1-.58-.49.44.44,0,0,1,.48-.59C-.09,32,.13,32.18.56,32.41Z"/><path class="cls-5" d="M12.81,12.26c.24.31.48.48.5.68a.43.43,0,0,1-.56.5.71.71,0,0,1-.43-.52C12.31,12.74,12.57,12.56,12.81,12.26Z"/><path class="cls-5" d="M6.31,25.29c.19.31.39.51.39.71s-.29.28-.45.42c-.15-.18-.38-.35-.42-.55S6.07,25.56,6.31,25.29Z"/><path class="cls-5" d="M19.81-.07c-.2.22-.37.52-.48.5S18.94.17,18.75,0c.17-.17.3-.42.5-.49S19.58-.25,19.81-.07Z"/><path class="cls-5" d="M13.05,19.45l-.37.26c0-.09-.14-.18-.13-.25a.36.36,0,0,1,.21-.21C12.81,19.24,12.9,19.35,13.05,19.45Z"/></g></g><path class="cls-6" d="M219.41,350.43H18.11a20.33,20.33,0,0,1-20.3-20.3V284A20.16,20.16,0,0,1,4,269.47a8.79,8.79,0,0,0,2.74-6.41V90.55A8.79,8.79,0,0,0,4,84.14,20.16,20.16,0,0,1-2.19,69.59V23.48a20.33,20.33,0,0,1,20.3-20.3h201.3a20.33,20.33,0,0,1,20.3,20.3V69.59a20.14,20.14,0,0,1-6.15,14.55,8.79,8.79,0,0,0-2.74,6.41V263.06a8.79,8.79,0,0,0,2.74,6.41A20.14,20.14,0,0,1,239.71,284v46.11A20.33,20.33,0,0,1,219.41,350.43ZM18.11,8.31A15.19,15.19,0,0,0,2.94,23.48V69.59A15,15,0,0,0,7.5,80.43a13.88,13.88,0,0,1,4.33,10.12V263.06A13.88,13.88,0,0,1,7.5,273.18,15,15,0,0,0,2.94,284v46.11A15.19,15.19,0,0,0,18.11,345.3h201.3a15.19,15.19,0,0,0,15.17-15.17V284A15,15,0,0,0,230,273.18a13.88,13.88,0,0,1-4.33-10.12V90.55A13.88,13.88,0,0,1,230,80.43a15,15,0,0,0,4.56-10.84V23.48A15.19,15.19,0,0,0,219.41,8.31Z"/><path class="cls-7" d="M228.25,263.06V90.55a11.38,11.38,0,0,1,3.54-8.26,17.54,17.54,0,0,0,5.36-12.7V23.48A17.74,17.74,0,0,0,219.41,5.75H18.11A17.74,17.74,0,0,0,.37,23.48V69.59a17.54,17.54,0,0,0,5.36,12.7,11.38,11.38,0,0,1,3.54,8.26V263.06a11.38,11.38,0,0,1-3.54,8.26A17.54,17.54,0,0,0,.37,284v46.11a17.74,17.74,0,0,0,17.74,17.73h201.3a17.74,17.74,0,0,0,17.74-17.73V284a17.54,17.54,0,0,0-5.36-12.7A11.38,11.38,0,0,1,228.25,263.06Z"/><g class="cls-8"><g class="cls-4"><path class="cls-5" d="M178.89,0a2.78,2.78,0,0,1-2.79,2.77A2.83,2.83,0,0,1,173.34,0a2.82,2.82,0,0,1,2.81-2.76A2.75,2.75,0,0,1,178.89,0Z"/><path class="cls-5" d="M169.73-2.78A2.72,2.72,0,0,1,172.44,0a2.76,2.76,0,0,1-2.78,2.74,2.82,2.82,0,0,1-2.74-2.82A2.78,2.78,0,0,1,169.73-2.78Z"/><path class="cls-5" d="M179.94-.06a2.7,2.7,0,0,1,2.81-2.7A2.76,2.76,0,0,1,185.45,0a2.8,2.8,0,0,1-2.78,2.78A2.73,2.73,0,0,1,179.94-.06Z"/><path class="cls-5" d="M163.15,2.71a2.69,2.69,0,0,1-2.72-2.79,2.68,2.68,0,0,1,2.72-2.66A2.74,2.74,0,0,1,165.9,0,2.76,2.76,0,0,1,163.15,2.71Z"/><path class="cls-5" d="M191.94,0a2.68,2.68,0,0,1-2.67,2.7A2.73,2.73,0,0,1,186.48,0a2.73,2.73,0,0,1,2.7-2.7A2.68,2.68,0,0,1,191.94,0Z"/><path class="cls-5" d="M193,0a2.67,2.67,0,0,1,2.7-2.67A2.68,2.68,0,0,1,198.35,0a2.66,2.66,0,0,1-2.7,2.66A2.65,2.65,0,0,1,193,0Z"/><path class="cls-5" d="M159.39.08a2.64,2.64,0,0,1-2.78,2.57A2.66,2.66,0,0,1,154-.13a2.66,2.66,0,0,1,2.79-2.56A2.63,2.63,0,0,1,159.39.08Z"/><path class="cls-5" d="M176.12,3.76a2.65,2.65,0,1,1,0,5.29,2.6,2.6,0,0,1-2.65-2.68A2.62,2.62,0,0,1,176.12,3.76Z"/><path class="cls-5" d="M169.68,3.76a2.65,2.65,0,1,1,0,5.29,2.6,2.6,0,0,1-2.64-2.68A2.62,2.62,0,0,1,169.68,3.76Z"/><path class="cls-5" d="M185.3,6.48a2.6,2.6,0,0,1-2.66,2.57A2.67,2.67,0,0,1,180,6.4a2.69,2.69,0,0,1,2.75-2.63A2.62,2.62,0,0,1,185.3,6.48Z"/><path class="cls-5" d="M150.12,2.61A2.6,2.6,0,0,1,147.56,0a2.62,2.62,0,0,1,2.6-2.62A2.69,2.69,0,0,1,152.82.06,2.68,2.68,0,0,1,150.12,2.61Z"/><path class="cls-5" d="M186.62,6.42a2.61,2.61,0,0,1,2.6-2.64,2.68,2.68,0,0,1,2.64,2.63A2.67,2.67,0,0,1,189.23,9,2.6,2.6,0,0,1,186.62,6.42Z"/><path class="cls-5" d="M165.76,6.41A2.62,2.62,0,0,1,163.15,9a2.67,2.67,0,0,1-2.64-2.62,2.69,2.69,0,0,1,2.64-2.64A2.62,2.62,0,0,1,165.76,6.41Z"/><path class="cls-5" d="M204.81,0a2.6,2.6,0,0,1-2.62,2.61A2.67,2.67,0,0,1,199.56,0a2.69,2.69,0,0,1,2.65-2.62A2.61,2.61,0,0,1,204.81,0Z"/><path class="cls-5" d="M159.3,6.37a2.58,2.58,0,1,1-2.57-2.55A2.63,2.63,0,0,1,159.3,6.37Z"/><path class="cls-5" d="M195.62,3.82a2.6,2.6,0,1,1-2.54,2.69A2.6,2.6,0,0,1,195.62,3.82Z"/><path class="cls-5" d="M146.28,0a2.56,2.56,0,0,1-2.55,2.53A2.6,2.6,0,0,1,141.17,0a2.61,2.61,0,0,1,2.63-2.59A2.55,2.55,0,0,1,146.28,0Z"/><path class="cls-5" d="M206.11-.08a2.52,2.52,0,0,1,2.58-2.49A2.57,2.57,0,0,1,211.19,0a2.6,2.6,0,0,1-2.61,2.5A2.53,2.53,0,0,1,206.11-.08Z"/><path class="cls-5" d="M152.68,6.42A2.51,2.51,0,0,1,150.14,9a2.58,2.58,0,0,1-2.51-2.6,2.53,2.53,0,0,1,2.51-2.45A2.47,2.47,0,0,1,152.68,6.42Z"/><path class="cls-5" d="M178.64,13a2.49,2.49,0,0,1-2.53,2.53,2.53,2.53,0,0,1,0-5.05A2.51,2.51,0,0,1,178.64,13Z"/><path class="cls-5" d="M182.64,10.43a2.53,2.53,0,1,1,.08,5.05,2.53,2.53,0,0,1-.08-5.05Z"/><path class="cls-5" d="M172.2,13a2.5,2.5,0,0,1-2.47,2.5,2.53,2.53,0,1,1-.07-5.05A2.51,2.51,0,0,1,172.2,13Z"/><path class="cls-5" d="M199.7,6.37a2.47,2.47,0,0,1,2.49-2.46,2.53,2.53,0,0,1,2.55,2.54,2.57,2.57,0,0,1-2.52,2.48A2.49,2.49,0,0,1,199.7,6.37Z"/><path class="cls-5" d="M160.66,13a2.51,2.51,0,0,1,2.46-2.51,2.51,2.51,0,1,1,0,5A2.49,2.49,0,0,1,160.66,13Z"/><path class="cls-5" d="M191.71,13a2.49,2.49,0,0,1-2.47,2.49,2.51,2.51,0,1,1,0-5A2.5,2.5,0,0,1,191.71,13Z"/><path class="cls-5" d="M137.19,2.44A2.45,2.45,0,0,1,134.72,0a2.44,2.44,0,0,1,2.47-2.46A2.46,2.46,0,0,1,139.67,0,2.46,2.46,0,0,1,137.19,2.44Z"/><path class="cls-5" d="M156.67,10.48A2.48,2.48,0,1,1,154.25,13,2.5,2.5,0,0,1,156.67,10.48Z"/><path class="cls-5" d="M143.7,4a2.45,2.45,0,1,1-2.42,2.52A2.44,2.44,0,0,1,143.7,4Z"/><path class="cls-5" d="M215.16-2.47A2.45,2.45,0,0,1,217.65,0a2.44,2.44,0,0,1-2.5,2.43A2.42,2.42,0,0,1,212.72,0,2.43,2.43,0,0,1,215.16-2.47Z"/><path class="cls-5" d="M193.22,13a2.46,2.46,0,0,1,2.41-2.52A2.47,2.47,0,1,1,193.22,13Z"/><path class="cls-5" d="M208.63,4a2.39,2.39,0,0,1,2.43,2.37,2.39,2.39,0,0,1-2.42,2.49,2.43,2.43,0,1,1,0-4.86Z"/><path class="cls-5" d="M173.74,19.53a2.4,2.4,0,0,1,2.37-2.43,2.41,2.41,0,1,1,0,4.81A2.39,2.39,0,0,1,173.74,19.53Z"/><path class="cls-5" d="M150.26,10.56a2.41,2.41,0,1,1-.18,4.81,2.39,2.39,0,0,1-2.3-2.5A2.36,2.36,0,0,1,150.26,10.56Z"/><path class="cls-5" d="M202.19,10.58a2.34,2.34,0,0,1,2.4,2.37,2.38,2.38,0,0,1-2.38,2.41,2.39,2.39,0,1,1,0-4.78Z"/><path class="cls-5" d="M185.05,19.5a2.38,2.38,0,0,1-2.4,2.4,2.4,2.4,0,0,1,0-4.8A2.4,2.4,0,0,1,185.05,19.5Z"/><path class="cls-5" d="M167.32,19.49a2.41,2.41,0,0,1,2.43-2.39,2.46,2.46,0,0,1,2.35,2.37,2.43,2.43,0,0,1-2.39,2.43A2.38,2.38,0,0,1,167.32,19.49Z"/><path class="cls-5" d="M221.67,2.36A2.4,2.4,0,0,1,219.25.09a2.4,2.4,0,0,1,2.31-2.49A2.42,2.42,0,0,1,224,0,2.41,2.41,0,0,1,221.67,2.36Z"/><path class="cls-5" d="M215.19,8.79a2.38,2.38,0,0,1,0-4.76,2.42,2.42,0,0,1,2.39,2.43A2.41,2.41,0,0,1,215.19,8.79Z"/><path class="cls-5" d="M191.59,19.67a2.37,2.37,0,1,1-2.26-2.54A2.4,2.4,0,0,1,191.59,19.67Z"/><path class="cls-5" d="M163.16,17.12a2.38,2.38,0,1,1-2.38,2.32A2.4,2.4,0,0,1,163.16,17.12Z"/><path class="cls-5" d="M130.68-2.41A2.44,2.44,0,0,1,133,0a2.41,2.41,0,0,1-2.48,2.32A2.39,2.39,0,0,1,128.27,0,2.4,2.4,0,0,1,130.68-2.41Z"/><path class="cls-5" d="M139.56,6.41a2.38,2.38,0,0,1-2.4,2.39,2.43,2.43,0,0,1-2.36-2.33A2.45,2.45,0,0,1,137.16,4,2.4,2.4,0,0,1,139.56,6.41Z"/><path class="cls-5" d="M195.62,21.85a2.35,2.35,0,0,1,.07-4.69,2.35,2.35,0,0,1-.07,4.69Z"/><path class="cls-5" d="M156.71,21.85a2.35,2.35,0,0,1,0-4.69,2.35,2.35,0,0,1,0,4.69Z"/><path class="cls-5" d="M143.73,15.28A2.33,2.33,0,1,1,146.07,13,2.28,2.28,0,0,1,143.73,15.28Z"/><path class="cls-5" d="M208.66,10.64a2.32,2.32,0,1,1,0,4.63,2.32,2.32,0,1,1,0-4.63Z"/><path class="cls-5" d="M137.15,10.67a2.29,2.29,0,0,1,.15,4.57,2.29,2.29,0,1,1-.15-4.57Z"/><path class="cls-5" d="M132.91,6.47a2.26,2.26,0,0,1-2.27,2.23,2.33,2.33,0,0,1-2.3-2.35,2.3,2.3,0,0,1,2.31-2.21A2.23,2.23,0,0,1,132.91,6.47Z"/><path class="cls-5" d="M152.44,19.52a2.25,2.25,0,0,1-2.23,2.27,2.33,2.33,0,0,1-2.35-2.29,2.3,2.3,0,0,1,2.38-2.26A2.22,2.22,0,0,1,152.44,19.52Z"/><path class="cls-5" d="M202.28,17.25a2.26,2.26,0,0,1-.09,4.52,2.26,2.26,0,1,1,.09-4.52Z"/><path class="cls-5" d="M124.25-2.28A2.22,2.22,0,0,1,126.47,0a2.23,2.23,0,0,1-2.25,2.25,2.29,2.29,0,0,1-2.3-2.33A2.29,2.29,0,0,1,124.25-2.28Z"/><path class="cls-5" d="M223.88,6.36a2.25,2.25,0,0,1-2.19,2.32,2.27,2.27,0,1,1-.1-4.53A2.23,2.23,0,0,1,223.88,6.36Z"/><path class="cls-5" d="M182.62,28.17a2.24,2.24,0,1,1,.11-4.47,2.24,2.24,0,1,1-.11,4.47Z"/><path class="cls-5" d="M178.38,26a2.23,2.23,0,0,1-2.27,2.24,2.25,2.25,0,1,1,0-4.5A2.21,2.21,0,0,1,178.38,26Z"/><path class="cls-5" d="M169.74,23.7a2.24,2.24,0,1,1-2.3,2.19A2.21,2.21,0,0,1,169.74,23.7Z"/><path class="cls-5" d="M215.17,15.22A2.27,2.27,0,1,1,217.43,13,2.27,2.27,0,0,1,215.17,15.22Z"/><path class="cls-5" d="M228.2-2.25A2.23,2.23,0,0,1,230.42,0a2.23,2.23,0,0,1-2.3,2.19,2.21,2.21,0,0,1-2.21-2.27A2.22,2.22,0,0,1,228.2-2.25Z"/><path class="cls-5" d="M163.12,28.16a2.22,2.22,0,1,1,2.27-2.23A2.21,2.21,0,0,1,163.12,28.16Z"/><path class="cls-5" d="M189.22,28.15a2.22,2.22,0,1,1,0-4.43,2.22,2.22,0,1,1,0,4.43Z"/><path class="cls-5" d="M143.77,21.72a2.22,2.22,0,1,1,2.2-2.18A2.19,2.19,0,0,1,143.77,21.72Z"/><path class="cls-5" d="M208.61,21.71a2.21,2.21,0,1,1,0-4.41,2.21,2.21,0,0,1,0,4.41Z"/><path class="cls-5" d="M156.75,28.13a2.2,2.2,0,1,1,0-4.39,2.2,2.2,0,0,1,0,4.39Z"/><path class="cls-5" d="M195.66,28.12a2.19,2.19,0,0,1,0-4.37,2.19,2.19,0,1,1,0,4.37Z"/><path class="cls-5" d="M126.41,6.39a2.21,2.21,0,0,1-2.17,2.2,2.18,2.18,0,0,1,0-4.36A2.23,2.23,0,0,1,126.41,6.39Z"/><path class="cls-5" d="M230.32,6.4a2.15,2.15,0,0,1-2.18,2.18A2.21,2.21,0,0,1,226,6.37a2.25,2.25,0,0,1,2.15-2.14A2.17,2.17,0,0,1,230.32,6.4Z"/><path class="cls-5" d="M128.48,12.92a2.14,2.14,0,0,1,2.21-2.13A2.19,2.19,0,0,1,132.84,13a2.22,2.22,0,0,1-2.23,2.14A2.16,2.16,0,0,1,128.48,12.92Z"/><path class="cls-5" d="M223.8,13a2.19,2.19,0,0,1-2.2,2.17,2.16,2.16,0,0,1,0-4.31A2.18,2.18,0,0,1,223.8,13Z"/><path class="cls-5" d="M150.16,23.77a2.17,2.17,0,1,1,0,4.33,2.17,2.17,0,0,1,0-4.33Z"/><path class="cls-5" d="M119.81,0a2.14,2.14,0,0,1-2.14,2.19A2.21,2.21,0,0,1,115.49,0a2.24,2.24,0,0,1,2.12-2.14A2.16,2.16,0,0,1,119.81,0Z"/><path class="cls-5" d="M139.34,19.53a2.15,2.15,0,0,1-2.2,2.14,2.17,2.17,0,0,1,.05-4.33A2.16,2.16,0,0,1,139.34,19.53Z"/><path class="cls-5" d="M204.34,26a2.15,2.15,0,0,1-2.09,2.14,2.16,2.16,0,1,1-.09-4.31A2.15,2.15,0,0,1,204.34,26Z"/><path class="cls-5" d="M236.85,0a2.18,2.18,0,0,1-2.12,2.13,2.15,2.15,0,0,1-2.15-2.2,2.16,2.16,0,0,1,2.16-2.09A2.19,2.19,0,0,1,236.85,0Z"/><path class="cls-5" d="M215.22,21.65a2.15,2.15,0,1,1,2.1-2.15A2.16,2.16,0,0,1,215.22,21.65Z"/><path class="cls-5" d="M176.16,34.59a2.11,2.11,0,1,1-.06-4.21,2.11,2.11,0,1,1,.06,4.21Z"/><path class="cls-5" d="M169.69,34.57a2.09,2.09,0,1,1,2.1-2.08A2,2,0,0,1,169.69,34.57Z"/><path class="cls-5" d="M182.81,30.39a2.09,2.09,0,1,1-.26,4.18,2.09,2.09,0,0,1,.26-4.18Z"/><path class="cls-5" d="M161.07,32.38a2.07,2.07,0,0,1,2.22-2,2.1,2.1,0,0,1,2,2.13,2.08,2.08,0,0,1-2.17,2A2,2,0,0,1,161.07,32.38Z"/><path class="cls-5" d="M143.71,23.84A2.09,2.09,0,0,1,145.82,26a2.12,2.12,0,0,1-2,2.1A2.15,2.15,0,0,1,141.64,26,2.12,2.12,0,0,1,143.71,23.84Z"/><path class="cls-5" d="M126.27,12.91a2,2,0,0,1-2,2.12,2.08,2.08,0,1,1-.1-4.15A2,2,0,0,1,126.27,12.91Z"/><path class="cls-5" d="M191.29,32.5a2,2,0,0,1-2,2.06,2.08,2.08,0,1,1,0-4.15A2.05,2.05,0,0,1,191.29,32.5Z"/><path class="cls-5" d="M210.73,25.94A2.13,2.13,0,0,1,208.58,28a2.07,2.07,0,0,1-2-2.09,2.05,2.05,0,0,1,2-2.08A2.11,2.11,0,0,1,210.73,25.94Z"/><path class="cls-5" d="M228.15,10.89a2.07,2.07,0,1,1,0,4.13,2,2,0,0,1-2.07-2.1A2,2,0,0,1,228.15,10.89Z"/><path class="cls-5" d="M197.7,32.46a2,2,0,0,1-2,2.08,2.06,2.06,0,1,1-.06-4.12A2.06,2.06,0,0,1,197.7,32.46Z"/><path class="cls-5" d="M158.79,32.49a2.09,2.09,0,0,1-2,2,2.06,2.06,0,1,1,0-4.12A2.11,2.11,0,0,1,158.79,32.49Z"/><path class="cls-5" d="M132.7,19.54a2.05,2.05,0,0,1-2,2,2.11,2.11,0,0,1-2.11-2.1,2.09,2.09,0,0,1,2.17-2A2,2,0,0,1,132.7,19.54Z"/><path class="cls-5" d="M117.69,8.49a2.06,2.06,0,0,1-2.07-2,2,2,0,0,1,2-2.15,2.09,2.09,0,0,1,2.11,2A2.12,2.12,0,0,1,117.69,8.49Z"/><path class="cls-5" d="M234.7,4.39a2,2,0,0,1,2,2,2,2,0,0,1-2,2,2,2,0,1,1,0-4Z"/><path class="cls-5" d="M223.65,19.52a2,2,0,0,1-2.05,2,2.08,2.08,0,0,1-2-2.05,2.06,2.06,0,0,1,2.08-2A2,2,0,0,1,223.65,19.52Z"/><path class="cls-5" d="M113.27,0a2,2,0,0,1-2.09,2,2,2,0,0,1-2-2.06,2,2,0,0,1,2.07-2A2,2,0,0,1,113.27,0Z"/><path class="cls-5" d="M137.24,23.94a2,2,0,0,1,0,4,2,2,0,1,1,0-4Z"/><path class="cls-5" d="M152.18,32.49a2,2,0,0,1-2,2,2,2,0,1,1,2-2Z"/><path class="cls-5" d="M202.23,34.5a2,2,0,1,1,2-2.11A2,2,0,0,1,202.23,34.5Z"/><path class="cls-5" d="M241.11,2a2,2,0,0,1-2-2,2,2,0,0,1,2-2,2,2,0,0,1,2,2A2,2,0,0,1,241.11,2Z"/><path class="cls-5" d="M217.19,25.89A2,2,0,1,1,215.08,24,2,2,0,0,1,217.19,25.89Z"/><path class="cls-5" d="M119.61,12.94a2,2,0,0,1-1.93,2,2,2,0,1,1,0-3.94A1.94,1.94,0,0,1,119.61,12.94Z"/><path class="cls-5" d="M176.14,37a2,2,0,0,1,2,2,2,2,0,0,1-2,2,2,2,0,0,1,0-3.94Z"/><path class="cls-5" d="M113.17,6.42a1.93,1.93,0,0,1-2,1.94,2,2,0,0,1,0-3.9A1.93,1.93,0,0,1,113.17,6.42Z"/><path class="cls-5" d="M228.2,21.45a2,2,0,0,1-2-1.93,2,2,0,0,1,2-2,2,2,0,0,1,0,3.9Z"/><path class="cls-5" d="M124.2,21.46a2,2,0,0,1,0-3.92,2,2,0,0,1,2,2A2,2,0,0,1,124.2,21.46Z"/><path class="cls-5" d="M184.61,38.94a1.93,1.93,0,0,1-2,1.93A2,2,0,0,1,180.71,39a2,2,0,0,1,2-2A1.9,1.9,0,0,1,184.61,38.94Z"/><path class="cls-5" d="M130.59,24a2,2,0,0,1,2,1.92,2,2,0,0,1-2,2A1.92,1.92,0,0,1,128.72,26,1.94,1.94,0,0,1,130.59,24Z"/><path class="cls-5" d="M234.75,14.92a1.93,1.93,0,0,1-2-1.95,1.89,1.89,0,0,1,1.83-2,2,2,0,0,1,2.06,1.87A2,2,0,0,1,234.75,14.92Z"/><path class="cls-5" d="M171.66,38.86a2,2,0,0,1-1.93,2,2,2,0,0,1-2-1.85A1.89,1.89,0,0,1,169.62,37,2,2,0,0,1,171.66,38.86Z"/><path class="cls-5" d="M145.71,32.49a2,2,0,0,1-2,1.95,1.93,1.93,0,0,1-1.9-2,1.88,1.88,0,0,1,1.91-1.87A2,2,0,0,1,145.71,32.49Z"/><path class="cls-5" d="M221.57,27.87a1.94,1.94,0,0,1,.09-3.87,1.94,1.94,0,1,1-.09,3.87Z"/><path class="cls-5" d="M241.14,8.34a1.94,1.94,0,0,1,0-3.87,2,2,0,0,1,1.94,2A2,2,0,0,1,241.14,8.34Z"/><path class="cls-5" d="M163.18,40.85a2,2,0,0,1-2-2A1.93,1.93,0,0,1,163.12,37a1.88,1.88,0,0,1,1.95,1.83A1.91,1.91,0,0,1,163.18,40.85Z"/><path class="cls-5" d="M189.25,37a1.93,1.93,0,1,1-.05,3.85,1.92,1.92,0,0,1-1.9-2A1.88,1.88,0,0,1,189.25,37Z"/><path class="cls-5" d="M210.56,32.47a1.91,1.91,0,0,1-2,2,2,2,0,0,1-1.91-1.92,1.94,1.94,0,0,1,2-1.93A1.88,1.88,0,0,1,210.56,32.47Z"/><path class="cls-5" d="M154.8,38.82A1.92,1.92,0,0,1,156.9,37a1.89,1.89,0,1,1-2.1,1.79Z"/><path class="cls-5" d="M106.58,0a1.93,1.93,0,0,1-1.86,1.94A1.93,1.93,0,0,1,102.79,0a1.93,1.93,0,0,1,1.86-1.94A1.93,1.93,0,0,1,106.58,0Z"/><path class="cls-5" d="M195.69,37a1.88,1.88,0,1,1-1.93,1.84A1.87,1.87,0,0,1,195.69,37Z"/><path class="cls-5" d="M137.17,34.35a1.87,1.87,0,0,1,0-3.73,1.87,1.87,0,1,1,0,3.73Z"/><path class="cls-5" d="M215.16,30.63a1.86,1.86,0,0,1,.09,3.71,1.86,1.86,0,1,1-.09-3.71Z"/><path class="cls-5" d="M202.21,37.07a1.85,1.85,0,1,1,0,3.69,1.85,1.85,0,0,1,0-3.69Z"/><path class="cls-5" d="M152,38.94a1.81,1.81,0,0,1-1.81,1.82,1.85,1.85,0,1,1,.05-3.69A1.82,1.82,0,0,1,152,38.94Z"/><path class="cls-5" d="M117.67,21.37a1.86,1.86,0,0,1,0-3.72,1.86,1.86,0,1,1,0,3.72Z"/><path class="cls-5" d="M124.26,27.79a1.89,1.89,0,0,1-1.9-1.77,1.86,1.86,0,0,1,1.74-1.91A1.8,1.8,0,0,1,126,25.92,1.83,1.83,0,0,1,124.26,27.79Z"/><path class="cls-5" d="M236.53,19.47a1.82,1.82,0,0,1-1.76,1.88,1.89,1.89,0,0,1-1.92-1.86,1.86,1.86,0,0,1,1.85-1.81A1.79,1.79,0,0,1,236.53,19.47Z"/><path class="cls-5" d="M111.28,14.79A1.79,1.79,0,0,1,109.41,13a1.82,1.82,0,0,1,1.84-1.91A1.89,1.89,0,0,1,113.09,13,1.86,1.86,0,0,1,111.28,14.79Z"/><path class="cls-5" d="M230,26a1.87,1.87,0,0,1-1.88,1.79,1.82,1.82,0,1,1,.07-3.63A1.84,1.84,0,0,1,230,26Z"/><path class="cls-5" d="M243,12.92a1.81,1.81,0,0,1-1.75,1.87,1.87,1.87,0,0,1-1.9-1.85,1.89,1.89,0,0,1,1.83-1.82A1.82,1.82,0,0,1,243,12.92Z"/><path class="cls-5" d="M130.67,34.29a1.84,1.84,0,0,1-1.83-1.81,1.86,1.86,0,0,1,1.83-1.81,1.82,1.82,0,0,1,1.76,1.76A1.79,1.79,0,0,1,130.67,34.29Z"/><path class="cls-5" d="M106.49,6.43a1.78,1.78,0,0,1-1.82,1.78,1.8,1.8,0,1,1,0-3.59A1.77,1.77,0,0,1,106.49,6.43Z"/><path class="cls-5" d="M145.53,39a1.8,1.8,0,0,1-1.86,1.76,1.85,1.85,0,0,1-1.74-1.79,1.87,1.87,0,0,1,1.82-1.83A1.83,1.83,0,0,1,145.53,39Z"/><path class="cls-5" d="M208.59,40.73a1.82,1.82,0,0,1,0-3.63,1.82,1.82,0,1,1,0,3.63Z"/><path class="cls-5" d="M223.39,32.44a1.8,1.8,0,0,1-1.78,1.84,1.8,1.8,0,0,1,0-3.59A1.8,1.8,0,0,1,223.39,32.44Z"/><path class="cls-5" d="M177.92,45.49a1.76,1.76,0,0,1-1.85,1.75,1.78,1.78,0,1,1,.06-3.55A1.75,1.75,0,0,1,177.92,45.49Z"/><path class="cls-5" d="M184.46,45.46a1.78,1.78,0,0,1-3.56,0,1.78,1.78,0,0,1,3.56,0Z"/><path class="cls-5" d="M171.48,45.41a1.76,1.76,0,0,1-1.68,1.81,1.76,1.76,0,1,1-.21-3.52A1.76,1.76,0,0,1,171.48,45.41Z"/><path class="cls-5" d="M191,45.45a1.74,1.74,0,0,1-1.72,1.76,1.71,1.71,0,0,1-1.8-1.67,1.73,1.73,0,0,1,1.77-1.83A1.75,1.75,0,0,1,191,45.45Z"/><path class="cls-5" d="M163.16,47.21a1.75,1.75,0,1,1,1.75-1.74A1.74,1.74,0,0,1,163.16,47.21Z"/><path class="cls-5" d="M98.23-1.75A1.75,1.75,0,0,1,100,0a1.75,1.75,0,0,1-1.71,1.76A1.69,1.69,0,0,1,96.54,0,1.69,1.69,0,0,1,98.23-1.75Z"/><path class="cls-5" d="M156.74,47.19a1.73,1.73,0,1,1-.06-3.46,1.73,1.73,0,1,1,.06,3.46Z"/><path class="cls-5" d="M197.41,45.5a1.76,1.76,0,0,1-1.79,1.69,1.73,1.73,0,0,1,.08-3.46A1.77,1.77,0,0,1,197.41,45.5Z"/><path class="cls-5" d="M115.93,25.93a1.76,1.76,0,0,1,1.77-1.72,1.73,1.73,0,0,1,0,3.45A1.75,1.75,0,0,1,115.93,25.93Z"/><path class="cls-5" d="M111.21,21.22a1.72,1.72,0,1,1,.09-3.44,1.72,1.72,0,0,1,1.64,1.71A1.69,1.69,0,0,1,111.21,21.22Z"/><path class="cls-5" d="M234.7,24.22a1.72,1.72,0,1,1,0,3.43,1.72,1.72,0,0,1,0-3.43Z"/><path class="cls-5" d="M241.17,21.21a1.69,1.69,0,0,1-1.72-1.62,1.7,1.7,0,0,1,1.67-1.8,1.77,1.77,0,0,1,1.75,1.75A1.75,1.75,0,0,1,241.17,21.21Z"/><path class="cls-5" d="M150.2,47.16a1.7,1.7,0,0,1-.12-3.4,1.77,1.77,0,0,1,1.8,1.7A1.74,1.74,0,0,1,150.2,47.16Z"/><path class="cls-5" d="M138.89,39a1.69,1.69,0,0,1-1.78,1.67,1.77,1.77,0,0,1-1.66-1.71,1.75,1.75,0,0,1,1.76-1.72A1.67,1.67,0,0,1,138.89,39Z"/><path class="cls-5" d="M216.92,38.86a1.79,1.79,0,0,1-1.71,1.79A1.72,1.72,0,0,1,213.48,39a1.67,1.67,0,0,1,1.62-1.82A1.76,1.76,0,0,1,216.92,38.86Z"/><path class="cls-5" d="M104.66,14.66A1.68,1.68,0,0,1,103,12.87a1.65,1.65,0,0,1,1.73-1.6,1.72,1.72,0,0,1,1.69,1.66A1.74,1.74,0,0,1,104.66,14.66Z"/><path class="cls-5" d="M125.92,32.53a1.7,1.7,0,0,1-1.72,1.63,1.68,1.68,0,1,1,.09-3.35A1.72,1.72,0,0,1,125.92,32.53Z"/><path class="cls-5" d="M202.2,43.77a1.72,1.72,0,0,1,1.68,1.69,1.7,1.7,0,0,1-1.67,1.69,1.69,1.69,0,0,1,0-3.38Z"/><path class="cls-5" d="M228.14,30.83a1.66,1.66,0,1,1,0,3.31,1.66,1.66,0,1,1,0-3.31Z"/><path class="cls-5" d="M96.59,6.42a1.66,1.66,0,1,1,1.7,1.67A1.7,1.7,0,0,1,96.59,6.42Z"/><path class="cls-5" d="M145.34,45.57a1.62,1.62,0,0,1-1.65,1.53,1.64,1.64,0,1,1,.09-3.27A1.61,1.61,0,0,1,145.34,45.57Z"/><path class="cls-5" d="M130.65,40.54A1.62,1.62,0,0,1,129,38.86a1.65,1.65,0,0,1,1.64-1.58A1.61,1.61,0,0,1,132.27,39,1.57,1.57,0,0,1,130.65,40.54Z"/><path class="cls-5" d="M210.27,45.48a1.63,1.63,0,1,1-3.25,0,1.62,1.62,0,0,1,1.58-1.62A1.66,1.66,0,0,1,210.27,45.48Z"/><path class="cls-5" d="M177.72,51.93a1.59,1.59,0,0,1-1.6,1.58,1.61,1.61,0,1,1,.07-3.22A1.58,1.58,0,0,1,177.72,51.93Z"/><path class="cls-5" d="M221.59,37.29a1.62,1.62,0,0,1,0,3.24,1.62,1.62,0,1,1,0-3.24Z"/><path class="cls-5" d="M182.65,50.29a1.64,1.64,0,0,1,1.65,1.55,1.66,1.66,0,0,1-1.65,1.68,1.62,1.62,0,0,1-1.57-1.62A1.58,1.58,0,0,1,182.65,50.29Z"/><path class="cls-5" d="M171.29,51.94a1.59,1.59,0,0,1-1.61,1.57,1.61,1.61,0,1,1,.08-3.22A1.58,1.58,0,0,1,171.29,51.94Z"/><path class="cls-5" d="M111.29,27.53A1.58,1.58,0,0,1,109.65,26a1.55,1.55,0,0,1,1.53-1.63,1.59,1.59,0,1,1,.11,3.17Z"/><path class="cls-5" d="M104.7,21.1a1.65,1.65,0,0,1-1.63-1.58,1.62,1.62,0,0,1,1.6-1.59,1.55,1.55,0,0,1,1.6,1.56A1.59,1.59,0,0,1,104.7,21.1Z"/><path class="cls-5" d="M163.15,50.32a1.6,1.6,0,0,1,1.61,1.57,1.63,1.63,0,0,1-1.6,1.6,1.58,1.58,0,0,1-1.59-1.59A1.55,1.55,0,0,1,163.15,50.32Z"/><path class="cls-5" d="M119.26,32.53a1.63,1.63,0,0,1-1.66,1.54,1.58,1.58,0,0,1-1.5-1.68,1.6,1.6,0,0,1,1.58-1.5A1.64,1.64,0,0,1,119.26,32.53Z"/><path class="cls-5" d="M236.26,32.51a1.58,1.58,0,0,1-1.52,1.55,1.58,1.58,0,0,1-.06-3.15A1.58,1.58,0,0,1,236.26,32.51Z"/><path class="cls-5" d="M93.3-.08a1.6,1.6,0,0,1-1.57,1.62A1.54,1.54,0,0,1,90.14.09a1.54,1.54,0,0,1,1.48-1.67A1.59,1.59,0,0,1,93.3-.08Z"/><path class="cls-5" d="M241.19,24.38a1.56,1.56,0,0,1-.05,3.12,1.56,1.56,0,1,1,.05-3.12Z"/><path class="cls-5" d="M189.09,53.45a1.56,1.56,0,1,1,.32-3.1,1.56,1.56,0,0,1-.32,3.1Z"/><path class="cls-5" d="M124.22,40.48a1.56,1.56,0,1,1,1.54-1.54A1.59,1.59,0,0,1,124.22,40.48Z"/><path class="cls-5" d="M98.25,14.52A1.56,1.56,0,1,1,99.8,13,1.58,1.58,0,0,1,98.25,14.52Z"/><path class="cls-5" d="M156.7,53.44a1.55,1.55,0,1,1,0-3.09,1.55,1.55,0,1,1,0,3.09Z"/><path class="cls-5" d="M138.76,45.47A1.56,1.56,0,0,1,137.12,47a1.55,1.55,0,1,1,.14-3.09A1.56,1.56,0,0,1,138.76,45.47Z"/><path class="cls-5" d="M215.2,47a1.53,1.53,0,0,1-.09-3.05A1.53,1.53,0,1,1,215.2,47Z"/><path class="cls-5" d="M194.12,51.85a1.54,1.54,0,1,1,1.47,1.57A1.51,1.51,0,0,1,194.12,51.85Z"/><path class="cls-5" d="M229.67,38.88a1.54,1.54,0,0,1-1.47,1.58,1.54,1.54,0,0,1-.08-3.08A1.53,1.53,0,0,1,229.67,38.88Z"/><path class="cls-5" d="M150.22,50.39a1.5,1.5,0,1,1-.14,3,1.45,1.45,0,0,1-1.4-1.51A1.47,1.47,0,0,1,150.22,50.39Z"/><path class="cls-5" d="M203.68,51.91a1.46,1.46,0,0,1-1.44,1.47,1.53,1.53,0,0,1-1.55-1.5,1.54,1.54,0,0,1,1.58-1.48A1.48,1.48,0,0,1,203.68,51.91Z"/><path class="cls-5" d="M91.74,4.93a1.48,1.48,0,0,1,0,3,1.51,1.51,0,0,1-1.5-1.54A1.53,1.53,0,0,1,91.74,4.93Z"/><path class="cls-5" d="M130.69,46.94a1.46,1.46,0,0,1-1.51-1.4A1.48,1.48,0,0,1,130.66,44a1.55,1.55,0,0,1,1.48,1.47A1.53,1.53,0,0,1,130.69,46.94Z"/><path class="cls-5" d="M104.65,27.4a1.45,1.45,0,0,1-1.41-1.5,1.48,1.48,0,0,1,1.48-1.44A1.53,1.53,0,0,1,106.15,26,1.5,1.5,0,0,1,104.65,27.4Z"/><path class="cls-5" d="M221.56,46.93a1.46,1.46,0,0,1-1.39-1.52,1.48,1.48,0,0,1,1.5-1.42,1.53,1.53,0,0,1,1.41,1.52A1.51,1.51,0,0,1,221.56,46.93Z"/><path class="cls-5" d="M142.3,51.85a1.44,1.44,0,1,1,1.42,1.5A1.49,1.49,0,0,1,142.3,51.85Z"/><path class="cls-5" d="M112.68,32.48a1.42,1.42,0,0,1-1.44,1.44,1.44,1.44,0,1,1,0-2.87A1.4,1.4,0,0,1,112.68,32.48Z"/><path class="cls-5" d="M210.07,52a1.44,1.44,0,0,1-2.88-.05,1.44,1.44,0,1,1,2.88.05Z"/><path class="cls-5" d="M99.66,19.54a1.44,1.44,0,0,1-1.39,1.4,1.44,1.44,0,0,1,0-2.87A1.44,1.44,0,0,1,99.66,19.54Z"/><path class="cls-5" d="M117.72,40.32a1.41,1.41,0,1,1-.1-2.81,1.41,1.41,0,1,1,.1,2.81Z"/><path class="cls-5" d="M234.7,40.3a1.38,1.38,0,0,1-1.4-1.36,1.41,1.41,0,0,1,1.46-1.42A1.37,1.37,0,0,1,236.09,39,1.35,1.35,0,0,1,234.7,40.3Z"/><path class="cls-5" d="M171.08,58.5a1.35,1.35,0,0,1-1.42,1.33,1.4,1.4,0,0,1-1.37-1.39,1.41,1.41,0,0,1,1.49-1.39A1.37,1.37,0,0,1,171.08,58.5Z"/><path class="cls-5" d="M177.51,58.42a1.35,1.35,0,0,1-1.34,1.41,1.39,1.39,0,1,1,0-2.78A1.36,1.36,0,0,1,177.51,58.42Z"/><path class="cls-5" d="M182.64,59.83a1.39,1.39,0,0,1,0-2.78,1.39,1.39,0,1,1,0,2.78Z"/><path class="cls-5" d="M90.36,12.86a1.36,1.36,0,0,1,1.48-1.27A1.44,1.44,0,0,1,93.09,13a1.41,1.41,0,0,1-1.45,1.32A1.35,1.35,0,0,1,90.36,12.86Z"/><path class="cls-5" d="M85.12-1.39A1.33,1.33,0,0,1,86.52,0a1.37,1.37,0,0,1-1.33,1.42A1.44,1.44,0,0,1,83.76,0,1.4,1.4,0,0,1,85.12-1.39Z"/><path class="cls-5" d="M163.1,59.82a1.38,1.38,0,0,1,.11-2.76,1.43,1.43,0,0,1,1.34,1.44A1.41,1.41,0,0,1,163.1,59.82Z"/><path class="cls-5" d="M190.59,58.48a1.36,1.36,0,0,1-1.41,1.34,1.4,1.4,0,0,1-1.35-1.42,1.41,1.41,0,0,1,1.43-1.34A1.36,1.36,0,0,1,190.59,58.48Z"/><path class="cls-5" d="M197,58.42a1.34,1.34,0,0,1-1.37,1.37,1.37,1.37,0,0,1-1.32-1.32,1.41,1.41,0,0,1,1.39-1.39A1.36,1.36,0,0,1,197,58.42Z"/><path class="cls-5" d="M155.38,58.48a1.36,1.36,0,0,1,1.36-1.39,1.41,1.41,0,0,1,1.33,1.32,1.38,1.38,0,0,1-1.37,1.39A1.36,1.36,0,0,1,155.38,58.48Z"/><path class="cls-5" d="M125.56,45.49a1.33,1.33,0,0,1-1.4,1.33,1.4,1.4,0,0,1-1.33-1.32,1.37,1.37,0,0,1,1.37-1.38A1.31,1.31,0,0,1,125.56,45.49Z"/><path class="cls-5" d="M137.18,53.26a1.34,1.34,0,0,1-1.34-1.4,1.32,1.32,0,0,1,1.31-1.31,1.39,1.39,0,0,1,1.43,1.33A1.43,1.43,0,0,1,137.18,53.26Z"/><path class="cls-5" d="M228.21,46.79a1.33,1.33,0,1,1-.1-2.65,1.33,1.33,0,1,1,.1,2.65Z"/><path class="cls-5" d="M216.52,51.92a1.32,1.32,0,0,1-1.31,1.31,1.37,1.37,0,0,1-1.39-1.36,1.36,1.36,0,0,1,1.44-1.3A1.31,1.31,0,0,1,216.52,51.92Z"/><path class="cls-5" d="M148.88,58.43a1.33,1.33,0,0,1,1.31-1.3,1.32,1.32,0,0,1,0,2.63A1.32,1.32,0,0,1,148.88,58.43Z"/><path class="cls-5" d="M104.65,31.17a1.32,1.32,0,0,1,.08,2.63,1.32,1.32,0,0,1-.08-2.63Z"/><path class="cls-5" d="M98.25,27.21a1.28,1.28,0,0,1,0-2.55,1.28,1.28,0,1,1,0,2.55Z"/><path class="cls-5" d="M85.17,7.68a1.24,1.24,0,0,1-1.28-1.3A1.26,1.26,0,0,1,85.1,5.13a1.31,1.31,0,0,1,1.35,1.25A1.29,1.29,0,0,1,85.17,7.68Z"/><path class="cls-5" d="M112.5,38.92a1.28,1.28,0,0,1-1.3,1.29,1.29,1.29,0,0,1,0-2.58A1.27,1.27,0,0,1,112.5,38.92Z"/><path class="cls-5" d="M203.47,58.46a1.29,1.29,0,0,1-1.32,1.28,1.3,1.3,0,0,1,0-2.59A1.28,1.28,0,0,1,203.47,58.46Z"/><path class="cls-5" d="M220.37,51.93a1.25,1.25,0,0,1,1.27-1.3,1.3,1.3,0,0,1,1.25,1.23,1.27,1.27,0,0,1-1.29,1.29A1.22,1.22,0,0,1,220.37,51.93Z"/><path class="cls-5" d="M129.4,51.87a1.25,1.25,0,0,1,1.21-1.24,1.26,1.26,0,1,1,0,2.52A1.23,1.23,0,0,1,129.4,51.87Z"/><path class="cls-5" d="M92.94,19.48a1.24,1.24,0,0,1-1.18,1.27,1.28,1.28,0,0,1-1.31-1.27,1.3,1.3,0,0,1,1.25-1.23A1.27,1.27,0,0,1,92.94,19.48Z"/><path class="cls-5" d="M118.9,45.43a1.26,1.26,0,0,1-1.18,1.28,1.3,1.3,0,0,1-1.32-1.27,1.33,1.33,0,0,1,1.26-1.23A1.26,1.26,0,0,1,118.9,45.43Z"/><path class="cls-5" d="M235.94,45.48a1.26,1.26,0,0,1-1.27,1.21,1.22,1.22,0,0,1-1.17-1.3,1.24,1.24,0,0,1,1.19-1.16A1.29,1.29,0,0,1,235.94,45.48Z"/><path class="cls-5" d="M143.69,59.64a1.2,1.2,0,1,1,.16-2.39,1.2,1.2,0,1,1-.16,2.39Z"/><path class="cls-5" d="M208.63,59.65a1.21,1.21,0,1,1,.07-2.41,1.21,1.21,0,0,1-.07,2.41Z"/><path class="cls-5" d="M176.13,63.81a1.19,1.19,0,0,1,0,2.37A1.23,1.23,0,0,1,174.94,65,1.21,1.21,0,0,1,176.13,63.81Z"/><path class="cls-5" d="M86.32,13a1.12,1.12,0,0,1-1.17,1.12A1.17,1.17,0,0,1,84,13a1.19,1.19,0,0,1,1.24-1.19A1.14,1.14,0,0,1,86.32,13Z"/><path class="cls-5" d="M124.2,53.06A1.22,1.22,0,0,1,123,51.89a1.18,1.18,0,0,1,1.17-1.14,1.13,1.13,0,0,1,1.14,1.15A1.16,1.16,0,0,1,124.2,53.06Z"/><path class="cls-5" d="M105.8,38.92a1.12,1.12,0,0,1-1.06,1.13,1.14,1.14,0,1,1,0-2.27A1.13,1.13,0,0,1,105.8,38.92Z"/><path class="cls-5" d="M78.73-1.17A1.12,1.12,0,0,1,79.86,0a1.14,1.14,0,0,1-1.15,1.15A1.2,1.2,0,0,1,77.56,0,1.18,1.18,0,0,1,78.73-1.17Z"/><path class="cls-5" d="M137.19,57.3a1.14,1.14,0,1,1,0,2.28,1.11,1.11,0,0,1-1.12-1.19A1.12,1.12,0,0,1,137.19,57.3Z"/><path class="cls-5" d="M98.2,31.35a1.14,1.14,0,0,1,.1,2.27,1.14,1.14,0,1,1-.1-2.27Z"/><path class="cls-5" d="M216.3,58.42a1.13,1.13,0,0,1-1,1.16A1.19,1.19,0,0,1,214,58.47a1.21,1.21,0,0,1,1.18-1.17A1.15,1.15,0,0,1,216.3,58.42Z"/><path class="cls-5" d="M169.7,63.84A1.12,1.12,0,0,1,170.83,65a1.14,1.14,0,0,1-1.15,1.15A1.2,1.2,0,0,1,168.53,65,1.17,1.17,0,0,1,169.7,63.84Z"/><path class="cls-5" d="M182.63,66.15a1.15,1.15,0,0,1-1.09-1.21,1.12,1.12,0,0,1,1.19-1.09A1.16,1.16,0,0,1,183.84,65,1.22,1.22,0,0,1,182.63,66.15Z"/><path class="cls-5" d="M228.16,50.78A1.14,1.14,0,0,1,229.31,52,1.17,1.17,0,0,1,228.17,53,1.12,1.12,0,0,1,227,51.84,1.09,1.09,0,0,1,228.16,50.78Z"/><path class="cls-5" d="M163.12,66.12A1.12,1.12,0,0,1,162,65a1.08,1.08,0,0,1,1.15-1.14A1.15,1.15,0,0,1,164.3,65,1.17,1.17,0,0,1,163.12,66.12Z"/><path class="cls-5" d="M189.25,63.88A1.08,1.08,0,0,1,190.34,65a1.12,1.12,0,0,1-1.15,1.16,1.16,1.16,0,0,1-1.11-1.1A1.13,1.13,0,0,1,189.25,63.88Z"/><path class="cls-5" d="M157.83,65a1.09,1.09,0,0,1-1.13,1,1.09,1.09,0,1,1,.09-2.18A1.1,1.1,0,0,1,157.83,65Z"/><path class="cls-5" d="M111.26,46.53a1.07,1.07,0,1,1,1-1.1A1.05,1.05,0,0,1,111.26,46.53Z"/><path class="cls-5" d="M92.79,25.93a1.09,1.09,0,1,1-1.09-1.06A1.06,1.06,0,0,1,92.79,25.93Z"/><path class="cls-5" d="M196.74,65a1.09,1.09,0,0,1-2.17,0,1.09,1.09,0,0,1,2.17,0Z"/><path class="cls-5" d="M77.69,6.38a1,1,0,0,1,1-1,1.06,1.06,0,0,1,1.08,1.08,1,1,0,0,1-1.14,1A1,1,0,0,1,77.69,6.38Z"/><path class="cls-5" d="M131.69,58.48a1.08,1.08,0,0,1-1,1,1,1,0,0,1-1-1.12,1,1,0,0,1,1.08-.94A1.06,1.06,0,0,1,131.69,58.48Z"/><path class="cls-5" d="M86.21,19.5a1.08,1.08,0,0,1-1,1,1,1,0,0,1-1-1,1,1,0,0,1,1-1.09A1.08,1.08,0,0,1,86.21,19.5Z"/><path class="cls-5" d="M150.14,64a1,1,0,1,1,0,2.06,1,1,0,0,1,0-2.06Z"/><path class="cls-5" d="M203.22,65.05a1,1,0,0,1-1.05,1,1,1,0,1,1,.11-2.06A1,1,0,0,1,203.22,65.05Z"/><path class="cls-5" d="M117.65,52.91a1.06,1.06,0,0,1-1-1,1.07,1.07,0,0,1,1-1,1,1,0,0,1,0,2Z"/><path class="cls-5" d="M234.68,50.9a1.05,1.05,0,0,1,1,.92,1,1,0,0,1-1,1.07,1,1,0,0,1,0-2Z"/><path class="cls-5" d="M222.63,58.48a1,1,0,0,1-1.08,1,1,1,0,0,1,.08-2A1,1,0,0,1,222.63,58.48Z"/><path class="cls-5" d="M143.7,64a1,1,0,0,1,1,.9,1,1,0,0,1-.86,1A1,1,0,1,1,143.7,64Z"/><path class="cls-5" d="M209.6,65a1,1,0,0,1-.92,1,1,1,0,1,1,0-1.92A1,1,0,0,1,209.6,65Z"/><path class="cls-5" d="M78.7,12a.93.93,0,0,1,.1,1.85A.93.93,0,1,1,78.7,12Z"/><path class="cls-5" d="M98.21,38a.91.91,0,0,1,1,.92.88.88,0,0,1-.82.92.94.94,0,0,1-1-.85A1,1,0,0,1,98.21,38Z"/><path class="cls-5" d="M91.74,33.38a.89.89,0,0,1-.92-.81.92.92,0,0,1,.86-1,1,1,0,0,1,.94.82A.94.94,0,0,1,91.74,33.38Z"/><path class="cls-5" d="M125.09,58.42a.88.88,0,0,1-.8.92.94.94,0,0,1-1-.87,1,1,0,0,1,.94-.94A.91.91,0,0,1,125.09,58.42Z"/><path class="cls-5" d="M73.1,0a1,1,0,0,1-.85.92.87.87,0,0,1-1-.79.86.86,0,0,1,.88-1A.93.93,0,0,1,73.1,0Z"/><path class="cls-5" d="M175.21,71.4a.92.92,0,0,1,.91-.85.85.85,0,0,1,.89,1,.86.86,0,0,1-.93.81A1,1,0,0,1,175.21,71.4Z"/><path class="cls-5" d="M104.74,46.36a1,1,0,0,1-1-.81.9.9,0,0,1,.9-1,.85.85,0,0,1,.89.85A.87.87,0,0,1,104.74,46.36Z"/><path class="cls-5" d="M228.14,59.32a.88.88,0,0,1-.84-.89.9.9,0,0,1,.88-.87.88.88,0,0,1,0,1.76Z"/><path class="cls-5" d="M170.55,71.53a.86.86,0,1,1-.74-1A.83.83,0,0,1,170.55,71.53Z"/><path class="cls-5" d="M138.06,65a.86.86,0,0,1-.9.82.85.85,0,1,1,.06-1.7A.85.85,0,0,1,138.06,65Z"/><path class="cls-5" d="M183.55,71.45a.87.87,0,0,1-.91.82.85.85,0,1,1,.91-.82Z"/><path class="cls-5" d="M215.23,65.81a.78.78,0,0,1-.86-.72.8.8,0,0,1,.77-.92A.84.84,0,0,1,216,65,.85.85,0,0,1,215.23,65.81Z"/><path class="cls-5" d="M85.16,26.76a.79.79,0,0,1-.82-.77.81.81,0,0,1,.83-.88.83.83,0,1,1,0,1.65Z"/><path class="cls-5" d="M112.06,51.91a.79.79,0,0,1-.79.8.83.83,0,0,1-.88-.83.85.85,0,0,1,.91-.81A.82.82,0,0,1,112.06,51.91Z"/><path class="cls-5" d="M164,71.46a.78.78,0,0,1-.81.78.83.83,0,0,1-.85-.86.84.84,0,0,1,.93-.78A.8.8,0,0,1,164,71.46Z"/><path class="cls-5" d="M190.06,71.48a.84.84,0,0,1-.95.76.8.8,0,0,1-.7-.88.79.79,0,0,1,.82-.76A.83.83,0,0,1,190.06,71.48Z"/><path class="cls-5" d="M157.5,71.39a.76.76,0,0,1-.76.83.8.8,0,1,1-.05-1.6A.77.77,0,0,1,157.5,71.39Z"/><path class="cls-5" d="M195.6,72.22a.8.8,0,0,1,.12-1.6.85.85,0,0,1,.75.86A.84.84,0,0,1,195.6,72.22Z"/><path class="cls-5" d="M72.94,6.42a.77.77,0,0,1-1.54,0,.81.81,0,0,1,.76-.83A.78.78,0,0,1,72.94,6.42Z"/><path class="cls-5" d="M79.72,19.44c-.41.36-.63.68-.92.79S78,19.92,78,19.5s.31-.76.71-.71S79.27,19.13,79.72,19.44Z"/><path class="cls-5" d="M151.16,71.42c-.42.33-.66.64-1,.73s-.8-.36-.76-.78a.66.66,0,0,1,.75-.67C150.49,70.75,150.73,71.09,151.16,71.42Z"/><path class="cls-5" d="M131.64,65.05c-.45.31-.72.62-1,.66s-.69-.27-.71-.71.42-.87.8-.73S131.23,64.69,131.64,65.05Z"/><path class="cls-5" d="M118.4,58.52a.73.73,0,0,1-1.46-.12.68.68,0,0,1,.77-.67A.72.72,0,0,1,118.4,58.52Z"/><path class="cls-5" d="M222.3,65c0,.39-.42.77-.75.63a1.23,1.23,0,0,1-.62-.67c-.12-.34.31-.71.7-.71A.7.7,0,0,1,222.3,65Z"/><path class="cls-5" d="M203.2,71.44a4,4,0,0,1-1,.67c-.36.08-.67-.35-.64-.75s.31-.68.67-.61S202.74,71.11,203.2,71.44Z"/><path class="cls-5" d="M235.39,58.5c0,.41-.4.75-.76.6a1.15,1.15,0,0,1-.6-.66c-.11-.35.32-.7.7-.69A.68.68,0,0,1,235.39,58.5Z"/><path class="cls-5" d="M92.62,38.87c-.38.32-.59.61-.86.68s-.63-.16-.7-.54.27-.83.64-.74S92.21,38.59,92.62,38.87Z"/><path class="cls-5" d="M86.06,32.47c-.43.31-.66.59-.92.62a.52.52,0,0,1-.57-.65c.05-.22.37-.55.56-.55S85.62,32.18,86.06,32.47Z"/><path class="cls-5" d="M98.92,45.64c-.17.12-.39.4-.66.45a.57.57,0,0,1-.67-.61.6.6,0,0,1,.64-.65C98.64,44.82,98.87,45,98.92,45.64Z"/><path class="cls-5" d="M208.81,72c-.59-.05-.87-.29-.76-.67a.88.88,0,0,1,.59-.52.49.49,0,0,1,.58.63C209.18,71.71,208.91,71.9,208.81,72Z"/><path class="cls-5" d="M144.69,71.45c-.51.28-.77.54-1,.53a.76.76,0,0,1-.51-.58.77.77,0,0,1,.54-.54C144,70.86,144.2,71.14,144.69,71.45Z"/><path class="cls-5" d="M105.63,51.91c-.49.29-.76.55-1,.54a.73.73,0,0,1-.51-.56.77.77,0,0,1,.53-.56C104.89,51.33,105.14,51.61,105.63,51.91Z"/><path class="cls-5" d="M72.23,12.13c.24.41.51.66.47.85s-.36.37-.55.56c-.19-.2-.5-.4-.52-.61S71.93,12.51,72.23,12.13Z"/><path class="cls-5" d="M228.05,64.23c.3.32.54.46.6.66a.44.44,0,0,1-.44.61.71.71,0,0,1-.54-.41C227.65,64.87,227.87,64.62,228.05,64.23Z"/><path class="cls-5" d="M124.25,64.23c.23.36.46.59.46.81s-.32.33-.5.49c-.17-.2-.44-.38-.48-.6S124,64.57,124.25,64.23Z"/><path class="cls-5" d="M78.7,26.7c-.24-.37-.51-.61-.46-.75s.35-.37.54-.55c.16.18.47.37.46.53S79,26.35,78.7,26.7Z"/><path class="cls-5" d="M66.44,0c-.28.24-.49.54-.63.51S65.4.16,65.2,0c.2-.18.38-.45.61-.5S66.16-.26,66.44,0Z"/><path class="cls-5" d="M137.9,71.4c-.35.24-.54.46-.74.47s-.39-.27-.4-.43.24-.47.36-.47S137.53,71.18,137.9,71.4Z"/><path class="cls-5" d="M215.1,70.77c.25.27.52.44.5.57s-.26.38-.4.57c-.16-.14-.45-.26-.46-.4S214.93,71.1,215.1,70.77Z"/><path class="cls-5" d="M111.23,57.8c.21.29.43.47.45.67s-.31.43-.4.4a.85.85,0,0,1-.47-.46C110.77,58.3,111,58.09,111.23,57.8Z"/><path class="cls-5" d="M170.27,78c-.24.16-.45.4-.56.36s-.33-.31-.49-.48c.19-.14.37-.35.58-.38S170.07,77.81,170.27,78Z"/><path class="cls-5" d="M176.71,78c-.25.16-.46.4-.57.36s-.33-.31-.49-.48c.2-.14.38-.35.58-.38S176.5,77.81,176.71,78Z"/><path class="cls-5" d="M182.69,77.33c.2.29.42.48.43.67s-.32.43-.41.39a.8.8,0,0,1-.46-.46C182.22,77.81,182.47,77.62,182.69,77.33Z"/><path class="cls-5" d="M163.12,78.53c-.17-.26-.37-.44-.35-.58s.27-.27.41-.4c.13.15.36.29.37.45S163.32,78.3,163.12,78.53Z"/><path class="cls-5" d="M189.26,77.4c.16.26.36.44.34.59s-.26.27-.41.4c-.13-.15-.36-.3-.36-.45S189.06,77.64,189.26,77.4Z"/><path class="cls-5" d="M66.22,6.5a1.65,1.65,0,0,1-.56.21c-.1,0-.28-.26-.25-.29s.23-.31.36-.32S66,6.3,66.22,6.5Z"/><path class="cls-5" d="M118.14,65c-.25.12-.39.25-.54.25s-.29-.22-.27-.27.2-.33.33-.35S117.91,64.86,118.14,65Z"/><path class="cls-5" d="M91.74,45.94c-.18-.23-.38-.37-.36-.48s.22-.26.36-.31.27.17.27.27S91.88,45.7,91.74,45.94Z"/><path class="cls-5" d="M196.16,78c-.26.14-.44.3-.56.27s-.22-.26-.24-.42.23-.25.31-.23S195.94,77.84,196.16,78Z"/><path class="cls-5" d="M72.32,19.14a1.18,1.18,0,0,1,.16.44c0,.1-.24.27-.3.24s-.31-.21-.33-.34.12-.33.19-.5Z"/><path class="cls-5" d="M131.14,71.37c-.23.18-.34.33-.49.37s-.31-.16-.3-.23.13-.37.24-.39S130.88,71.24,131.14,71.37Z"/><path class="cls-5" d="M156.67,78.47c-.14-.26-.31-.43-.28-.55s.25-.23.41-.26.24.22.23.31S156.85,78.24,156.67,78.47Z"/><path class="cls-5" d="M98.2,51.47c.17.21.33.33.31.42s-.17.21-.29.27S98,52,98,52A1.75,1.75,0,0,1,98.2,51.47Z"/><path class="cls-5" d="M85.11,39.19C85,39.1,84.9,39,84.92,39s.17-.18.26-.27l.23.32Z"/></g><g class="cls-4"><path class="cls-5" d="M34,349.06a2.41,2.41,0,0,1-2.27-2.63,2.38,2.38,0,0,1,2.58-2.2,2.43,2.43,0,0,1,2.24,2.56A2.47,2.47,0,0,1,34,349.06Z"/><path class="cls-5" d="M25.33,346.62a2.35,2.35,0,0,1,2.41-2.38,2.42,2.42,0,0,1,2.41,2.41,2.45,2.45,0,0,1-2.44,2.4A2.38,2.38,0,0,1,25.33,346.62Z"/><path class="cls-5" d="M43.09,346.67a2.39,2.39,0,0,1-2.42,2.38,2.47,2.47,0,0,1-2.4-2.44,2.43,2.43,0,0,1,2.46-2.37A2.34,2.34,0,0,1,43.09,346.67Z"/><path class="cls-5" d="M21.17,344.26a2.38,2.38,0,0,1,.07,4.75,2.38,2.38,0,1,1-.07-4.75Z"/><path class="cls-5" d="M44.87,346.64a2.35,2.35,0,0,1,2.4-2.38,2.38,2.38,0,1,1,0,4.75A2.35,2.35,0,0,1,44.87,346.64Z"/><path class="cls-5" d="M14.78,349a2.34,2.34,0,1,1,2.32-2.35A2.33,2.33,0,0,1,14.78,349Z"/><path class="cls-5" d="M53.7,349a2.32,2.32,0,0,1-2.37-2.28,2.34,2.34,0,0,1,2.39-2.38,2.33,2.33,0,0,1,0,4.66Z"/><path class="cls-5" d="M10.49,346.59a2.27,2.27,0,0,1-2.28,2.35,2.31,2.31,0,0,1-.1-4.61A2.28,2.28,0,0,1,10.49,346.59Z"/><path class="cls-5" d="M58,346.69a2.28,2.28,0,0,1,2.29-2.36,2.35,2.35,0,0,1,2.3,2.25,2.33,2.33,0,0,1-2.32,2.35A2.25,2.25,0,0,1,58,346.69Z"/><path class="cls-5" d="M36.42,340.15a2.25,2.25,0,0,1-2.28,2.34,2.29,2.29,0,1,1,0-4.58A2.26,2.26,0,0,1,36.42,340.15Z"/><path class="cls-5" d="M27.71,342.48a2.28,2.28,0,1,1,.08-4.56A2.27,2.27,0,0,1,30,340.25,2.25,2.25,0,0,1,27.71,342.48Z"/><path class="cls-5" d="M43,340.23a2.31,2.31,0,0,1-2.29,2.25,2.28,2.28,0,1,1,.06-4.56A2.33,2.33,0,0,1,43,340.23Z"/><path class="cls-5" d="M23.43,340.15a2.3,2.3,0,0,1-2.2,2.32,2.27,2.27,0,0,1-.11-4.54A2.31,2.31,0,0,1,23.43,340.15Z"/><path class="cls-5" d="M49.49,340.2a2.27,2.27,0,0,1-2.24,2.27,2.27,2.27,0,1,1,2.24-2.27Z"/><path class="cls-5" d="M4,346.62a2.26,2.26,0,0,1-2.25,2.27,2.26,2.26,0,0,1,0-4.51A2.27,2.27,0,0,1,4,346.62Z"/><path class="cls-5" d="M17,340.25A2.23,2.23,0,1,1,14.73,338,2.26,2.26,0,0,1,17,340.25Z"/><path class="cls-5" d="M66.68,348.88a2.25,2.25,0,1,1,2.2-2.32A2.27,2.27,0,0,1,66.68,348.88Z"/><path class="cls-5" d="M53.64,342.43a2.23,2.23,0,0,1,.08-4.46,2.23,2.23,0,0,1-.08,4.46Z"/><path class="cls-5" d="M6,340.13A2.13,2.13,0,0,1,8.28,338a2.18,2.18,0,0,1,2.11,2.24,2.23,2.23,0,0,1-2.27,2.11A2.17,2.17,0,0,1,6,340.13Z"/><path class="cls-5" d="M60.22,338.05a2.11,2.11,0,0,1,2.16,2.17,2.14,2.14,0,0,1-2.09,2.15A2.22,2.22,0,0,1,58,340.24,2.19,2.19,0,0,1,60.22,338.05Z"/><path class="cls-5" d="M36.31,333.71a2.2,2.2,0,0,1-2.27,2.1,2.16,2.16,0,0,1,.22-4.31A2.21,2.21,0,0,1,36.31,333.71Z"/><path class="cls-5" d="M73.24,348.78a2.14,2.14,0,1,1-.07-4.28,2.16,2.16,0,0,1,2.21,2.16A2.18,2.18,0,0,1,73.24,348.78Z"/><path class="cls-5" d="M29.86,333.7a2.18,2.18,0,0,1-2.15,2.1,2.15,2.15,0,1,1,.08-4.29A2.19,2.19,0,0,1,29.86,333.7Z"/><path class="cls-5" d="M40.75,335.8a2.15,2.15,0,1,1,2.08-2.17A2.17,2.17,0,0,1,40.75,335.8Z"/><path class="cls-5" d="M21.12,331.52a2.14,2.14,0,1,1-2.06,2.16A2.15,2.15,0,0,1,21.12,331.52Z"/><path class="cls-5" d="M1.79,338.1a2.1,2.1,0,1,1-.06,4.2,2.1,2.1,0,1,1,.06-4.2Z"/><path class="cls-5" d="M68.77,340.19a2.09,2.09,0,0,1-2.1,2.1,2.09,2.09,0,0,1,0-4.18A2.09,2.09,0,0,1,68.77,340.19Z"/><path class="cls-5" d="M49.34,333.6a2.13,2.13,0,0,1-2,2.18,2.16,2.16,0,0,1-2.16-2.07,2.1,2.1,0,1,1,4.2-.11Z"/><path class="cls-5" d="M16.84,333.68a2.15,2.15,0,0,1-2.17,2.07,2.08,2.08,0,0,1-2-2.11,2.05,2.05,0,0,1,2.14-2.06A2.11,2.11,0,0,1,16.84,333.68Z"/><path class="cls-5" d="M79.63,344.56a2.06,2.06,0,0,1,2.06,2,2,2,0,0,1-2,2.13,2.07,2.07,0,1,1,0-4.14Z"/><path class="cls-5" d="M53.65,335.73a2.11,2.11,0,0,1-2-2.16,2.08,2.08,0,0,1,2.11-2,2,2,0,0,1,2,2.14A2.05,2.05,0,0,1,53.65,335.73Z"/><path class="cls-5" d="M75.23,340.23a2,2,0,0,1-2,2,2,2,0,1,1,0-4.08A2,2,0,0,1,75.23,340.23Z"/><path class="cls-5" d="M62.27,333.6a2,2,0,0,1-2,2.07,2,2,0,1,1-.11-4A2,2,0,0,1,62.27,333.6Z"/><path class="cls-5" d="M10.22,333.68a2,2,0,0,1-2.05,2,2,2,0,1,1,.05-4A2,2,0,0,1,10.22,333.68Z"/><path class="cls-5" d="M34.17,325.24a2,2,0,1,1-.09,4,2,2,0,0,1,.09-4Z"/><path class="cls-5" d="M42.66,327.17a1.92,1.92,0,0,1-1.88,2,2,2,0,1,1-.11-3.94A1.94,1.94,0,0,1,42.66,327.17Z"/><path class="cls-5" d="M3.75,333.64a2,2,0,0,1-1.94,2,1.93,1.93,0,0,1-2-1.89,2,2,0,0,1,2-2.05A2,2,0,0,1,3.75,333.64Z"/><path class="cls-5" d="M27.67,325.25a2,2,0,0,1,2,1.89,2,2,0,0,1-2,2.05,1.92,1.92,0,0,1-2-1.94A1.94,1.94,0,0,1,27.67,325.25Z"/><path class="cls-5" d="M88.13,346.67a2,2,0,0,1-2,1.94,2,2,0,1,1,.06-3.94A1.94,1.94,0,0,1,88.13,346.67Z"/><path class="cls-5" d="M68.6,333.62a1.91,1.91,0,0,1-1.91,2,2,2,0,0,1-2-1.92,2,2,0,0,1,1.94-2A1.93,1.93,0,0,1,68.6,333.62Z"/><path class="cls-5" d="M47.19,329.18a2,2,0,0,1,.12-3.92,2,2,0,1,1-.12,3.92Z"/><path class="cls-5" d="M23.12,327.24a1.92,1.92,0,0,1-2,1.94,2,2,0,0,1-1.95-2,2,2,0,0,1,2-1.94A1.93,1.93,0,0,1,23.12,327.24Z"/><path class="cls-5" d="M79.62,342.16a1.93,1.93,0,0,1-1.91-2,1.88,1.88,0,0,1,1.9-1.88,2,2,0,0,1,2,1.93A2,2,0,0,1,79.62,342.16Z"/><path class="cls-5" d="M16.66,327.19a1.93,1.93,0,0,1-1.95,2,1.93,1.93,0,1,1,.06-3.86A1.93,1.93,0,0,1,16.66,327.19Z"/><path class="cls-5" d="M53.64,325.29a1.93,1.93,0,1,1,.08,3.86,1.91,1.91,0,0,1-1.95-1.83A1.93,1.93,0,0,1,53.64,325.29Z"/><path class="cls-5" d="M75.1,333.61a1.9,1.9,0,1,1-1.95-1.87A1.93,1.93,0,0,1,75.1,333.61Z"/><path class="cls-5" d="M8.24,329.12a1.9,1.9,0,0,1-.1-3.79,1.9,1.9,0,0,1,.1,3.79Z"/><path class="cls-5" d="M62.11,327.22a1.88,1.88,0,1,1-3.76,0,1.88,1.88,0,1,1,3.76,0Z"/><path class="cls-5" d="M92.76,348.48a1.85,1.85,0,0,1-1.89-1.87,1.88,1.88,0,0,1,1.82-1.83,1.85,1.85,0,0,1,.07,3.7Z"/><path class="cls-5" d="M88,340.23A1.86,1.86,0,0,1,86.19,342a1.84,1.84,0,1,1,0-3.68A1.88,1.88,0,0,1,88,340.23Z"/><path class="cls-5" d="M36,320.69a1.79,1.79,0,0,1-1.79,1.81,1.87,1.87,0,0,1-1.86-1.78,1.89,1.89,0,0,1,1.88-1.88A1.81,1.81,0,0,1,36,320.69Z"/><path class="cls-5" d="M3.57,327.19a1.8,1.8,0,0,1-1.78,1.86,1.86,1.86,0,0,1-1.87-1.79,1.83,1.83,0,0,1,1.8-1.84A1.76,1.76,0,0,1,3.57,327.19Z"/><path class="cls-5" d="M27.73,318.85a1.82,1.82,0,0,1,1.79,1.83,1.8,1.8,0,0,1-1.81,1.81,1.87,1.87,0,0,1-1.82-1.82A1.89,1.89,0,0,1,27.73,318.85Z"/><path class="cls-5" d="M40.73,318.85a1.88,1.88,0,0,1,1.8,1.86,1.86,1.86,0,0,1-1.86,1.78,1.8,1.8,0,0,1-1.77-1.85A1.82,1.82,0,0,1,40.73,318.85Z"/><path class="cls-5" d="M79.63,335.45a1.8,1.8,0,1,1,0-3.59,1.8,1.8,0,1,1,0,3.59Z"/><path class="cls-5" d="M21.31,318.87a1.81,1.81,0,1,1-.33,3.6,1.81,1.81,0,0,1-1.59-2A1.83,1.83,0,0,1,21.31,318.87Z"/><path class="cls-5" d="M47.29,318.86A1.84,1.84,0,0,1,49,320.75a1.8,1.8,0,0,1-1.89,1.73,1.85,1.85,0,0,1-1.71-1.82A1.87,1.87,0,0,1,47.29,318.86Z"/><path class="cls-5" d="M66.71,325.43a1.8,1.8,0,1,1-.09,3.59,1.8,1.8,0,1,1,.09-3.59Z"/><path class="cls-5" d="M14.78,322.46a1.79,1.79,0,1,1,0-3.57,1.79,1.79,0,0,1,0,3.57Z"/><path class="cls-5" d="M55.44,320.71a1.8,1.8,0,0,1-1.79,1.73,1.77,1.77,0,0,1,.07-3.53A1.8,1.8,0,0,1,55.44,320.71Z"/><path class="cls-5" d="M73.2,325.49a1.73,1.73,0,1,1,0,3.46,1.73,1.73,0,0,1,0-3.46Z"/><path class="cls-5" d="M86.15,331.94a1.72,1.72,0,0,1,1.73,1.62,1.7,1.7,0,0,1-1.66,1.8,1.75,1.75,0,0,1-1.76-1.73A1.77,1.77,0,0,1,86.15,331.94Z"/><path class="cls-5" d="M9.93,320.65A1.76,1.76,0,0,1,8.2,322.4a1.71,1.71,0,0,1-1.71-1.63A1.68,1.68,0,0,1,8.14,319,1.74,1.74,0,0,1,9.93,320.65Z"/><path class="cls-5" d="M99.2,348.36a1.7,1.7,0,0,1-1.74-1.72,1.67,1.67,0,0,1,1.62-1.71,1.73,1.73,0,0,1,1.82,1.65A1.77,1.77,0,0,1,99.2,348.36Z"/><path class="cls-5" d="M92.71,341.93A1.7,1.7,0,0,1,91,340.16a1.67,1.67,0,0,1,1.67-1.67,1.75,1.75,0,0,1,1.77,1.71A1.78,1.78,0,0,1,92.71,341.93Z"/><path class="cls-5" d="M61.92,320.72a1.68,1.68,0,0,1-1.68,1.66,1.75,1.75,0,0,1-1.74-1.74A1.72,1.72,0,0,1,60.32,319,1.65,1.65,0,0,1,61.92,320.72Z"/><path class="cls-5" d="M81.29,327.24a1.66,1.66,0,1,1-1.67-1.69A1.69,1.69,0,0,1,81.29,327.24Z"/><path class="cls-5" d="M3.42,320.64a1.63,1.63,0,0,1-1.65,1.68A1.65,1.65,0,0,1,1.69,319,1.64,1.64,0,0,1,3.42,320.64Z"/><path class="cls-5" d="M35.78,314.11a1.66,1.66,0,0,1-1.67,1.68,1.66,1.66,0,0,1,.07-3.32A1.67,1.67,0,0,1,35.78,314.11Z"/><path class="cls-5" d="M29.33,314.17a1.63,1.63,0,0,1-1.6,1.6,1.64,1.64,0,1,1,0-3.27A1.61,1.61,0,0,1,29.33,314.17Z"/><path class="cls-5" d="M40.66,312.5a1.66,1.66,0,0,1,1.68,1.64,1.68,1.68,0,0,1-1.59,1.63,1.64,1.64,0,0,1-.09-3.27Z"/><path class="cls-5" d="M68.31,320.71a1.63,1.63,0,0,1-1.73,1.59A1.59,1.59,0,0,1,65,320.65a1.6,1.6,0,0,1,1.72-1.6A1.64,1.64,0,0,1,68.31,320.71Z"/><path class="cls-5" d="M47.27,312.53a1.57,1.57,0,0,1,1.57,1.6,1.61,1.61,0,0,1-1.56,1.62,1.66,1.66,0,0,1-1.66-1.67A1.63,1.63,0,0,1,47.27,312.53Z"/><path class="cls-5" d="M22.8,314.17a1.66,1.66,0,0,1-1.64,1.58A1.62,1.62,0,0,1,19.58,314a1.57,1.57,0,0,1,1.67-1.5A1.63,1.63,0,0,1,22.8,314.17Z"/><path class="cls-5" d="M100.74,340.22a1.57,1.57,0,0,1-1.6,1.58,1.64,1.64,0,0,1-1.59-1.62,1.66,1.66,0,0,1,1.63-1.58A1.59,1.59,0,0,1,100.74,340.22Z"/><path class="cls-5" d="M92.73,332.08a1.54,1.54,0,0,1,1.58,1.57,1.56,1.56,0,0,1-1.58,1.6,1.64,1.64,0,0,1-1.61-1.59A1.61,1.61,0,0,1,92.73,332.08Z"/><path class="cls-5" d="M105.66,345a1.63,1.63,0,0,1,1.64,1.57,1.61,1.61,0,0,1-1.59,1.61,1.59,1.59,0,0,1-1.57-1.5A1.61,1.61,0,0,1,105.66,345Z"/><path class="cls-5" d="M74.77,320.73a1.57,1.57,0,0,1-1.65,1.53,1.59,1.59,0,0,1,.11-3.18A1.6,1.6,0,0,1,74.77,320.73Z"/><path class="cls-5" d="M16.33,314.09a1.58,1.58,0,0,1-1.58,1.6,1.56,1.56,0,0,1-.07-3.12A1.58,1.58,0,0,1,16.33,314.09Z"/><path class="cls-5" d="M55.25,314.17a1.54,1.54,0,0,1-1.64,1.52,1.56,1.56,0,0,1,.08-3.12A1.54,1.54,0,0,1,55.25,314.17Z"/><path class="cls-5" d="M86.23,325.7a1.53,1.53,0,1,1-1.59,1.45A1.52,1.52,0,0,1,86.23,325.7Z"/><path class="cls-5" d="M60.26,312.61a1.52,1.52,0,1,1-.08,3,1.51,1.51,0,0,1-1.49-1.55A1.54,1.54,0,0,1,60.26,312.61Z"/><path class="cls-5" d="M8.18,312.61a1.53,1.53,0,0,1,1.55,1.5,1.51,1.51,0,0,1-1.51,1.53,1.52,1.52,0,1,1,0-3Z"/><path class="cls-5" d="M1.79,312.64a1.56,1.56,0,0,1,1.47,1.48,1.52,1.52,0,0,1-1.57,1.48A1.46,1.46,0,0,1,.3,314.08,1.48,1.48,0,0,1,1.79,312.64Z"/><path class="cls-5" d="M79.6,322.14a1.44,1.44,0,0,1-1.42-1.47,1.42,1.42,0,0,1,1.44-1.45,1.48,1.48,0,0,1,1.51,1.53A1.5,1.5,0,0,1,79.6,322.14Z"/><path class="cls-5" d="M66.63,315.6a1.47,1.47,0,0,1,.06-2.94,1.47,1.47,0,0,1-.06,2.94Z"/><path class="cls-5" d="M99.12,335.12a1.45,1.45,0,0,1-1.4-1.51,1.48,1.48,0,0,1,1.49-1.43,1.53,1.53,0,0,1,1.42,1.52A1.5,1.5,0,0,1,99.12,335.12Z"/><path class="cls-5" d="M29.16,307.8a1.44,1.44,0,1,1-2.87-.27,1.44,1.44,0,0,1,2.87.27Z"/><path class="cls-5" d="M105.76,341.64a1.44,1.44,0,1,1-.09-2.88,1.44,1.44,0,1,1,.09,2.88Z"/><path class="cls-5" d="M42.14,307.72a1.44,1.44,0,0,1-2.88,0,1.44,1.44,0,1,1,2.88,0Z"/><path class="cls-5" d="M35.59,307.65a1.48,1.48,0,0,1-1.42,1.5,1.45,1.45,0,1,1,1.42-1.5Z"/><path class="cls-5" d="M19.76,307.69a1.42,1.42,0,1,1,1.35,1.44A1.46,1.46,0,0,1,19.76,307.69Z"/><path class="cls-5" d="M94.14,327.18a1.44,1.44,0,0,1-1.42,1.48,1.44,1.44,0,0,1,0-2.87A1.43,1.43,0,0,1,94.14,327.18Z"/><path class="cls-5" d="M48.66,307.65a1.44,1.44,0,0,1-1.43,1.48,1.44,1.44,0,0,1,0-2.87A1.46,1.46,0,0,1,48.66,307.65Z"/><path class="cls-5" d="M113.57,346.59a1.4,1.4,0,0,1-1.32,1.44,1.37,1.37,0,0,1-1.51-1.35,1.38,1.38,0,0,1,1.31-1.45A1.42,1.42,0,0,1,113.57,346.59Z"/><path class="cls-5" d="M13.38,307.71a1.34,1.34,0,0,1,1.36-1.39,1.41,1.41,0,0,1,1.4,1.37,1.45,1.45,0,0,1-1.39,1.4A1.37,1.37,0,0,1,13.38,307.71Z"/><path class="cls-5" d="M73.26,312.75a1.35,1.35,0,0,1,1.31,1.44,1.37,1.37,0,0,1-1.42,1.33,1.44,1.44,0,0,1-1.34-1.45A1.42,1.42,0,0,1,73.26,312.75Z"/><path class="cls-5" d="M86.17,322a1.34,1.34,0,0,1-1.33-1.41,1.36,1.36,0,0,1,1.31-1.33,1.43,1.43,0,0,1,1.42,1.36A1.41,1.41,0,0,1,86.17,322Z"/><path class="cls-5" d="M53.68,306.32a1.34,1.34,0,0,1,1.37,1.38,1.38,1.38,0,0,1-1.37,1.39,1.44,1.44,0,0,1-1.4-1.39A1.41,1.41,0,0,1,53.68,306.32Z"/><path class="cls-5" d="M9.52,307.65A1.3,1.3,0,0,1,8.27,309a1.31,1.31,0,1,1,1.25-1.35Z"/><path class="cls-5" d="M60.27,309a1.31,1.31,0,1,1,0-2.61,1.31,1.31,0,0,1,0,2.61Z"/><path class="cls-5" d="M105.67,334.94a1.29,1.29,0,1,1,.08-2.57,1.29,1.29,0,1,1-.08,2.57Z"/><path class="cls-5" d="M79.61,312.85a1.3,1.3,0,0,1,1.32,1.27,1.29,1.29,0,0,1-1.31,1.28,1.23,1.23,0,0,1-1.24-1.21A1.24,1.24,0,0,1,79.61,312.85Z"/><path class="cls-5" d="M113.41,340.24a1.28,1.28,0,0,1-1.34,1.26,1.34,1.34,0,0,1-1.22-1.28,1.32,1.32,0,0,1,1.3-1.31A1.28,1.28,0,0,1,113.41,340.24Z"/><path class="cls-5" d="M99.12,328.49a1.27,1.27,0,0,1,0-2.54,1.27,1.27,0,1,1,0,2.54Z"/><path class="cls-5" d="M1.78,309a1.22,1.22,0,0,1-1.26-1.19,1.24,1.24,0,0,1,1.23-1.34,1.27,1.27,0,1,1,0,2.53Z"/><path class="cls-5" d="M67.89,307.7a1.23,1.23,0,0,1-1.21,1.24,1.28,1.28,0,0,1-1.28-1.19,1.3,1.3,0,0,1,1.28-1.31A1.27,1.27,0,0,1,67.89,307.7Z"/><path class="cls-5" d="M117.46,346.68a1.2,1.2,0,0,1,1.19-1.27,1.23,1.23,0,1,1,.09,2.46A1.22,1.22,0,0,1,117.46,346.68Z"/><path class="cls-5" d="M91.5,320.73a1.19,1.19,0,0,1,1.19-1.27,1.24,1.24,0,0,1,1.3,1.17,1.26,1.26,0,0,1-1.21,1.28A1.22,1.22,0,0,1,91.5,320.73Z"/><path class="cls-5" d="M34.12,302.35a1.2,1.2,0,1,1,.13-2.4,1.2,1.2,0,0,1-.13,2.4Z"/><path class="cls-5" d="M40.68,300a1.18,1.18,0,1,1,0,2.36,1.18,1.18,0,1,1,0-2.36Z"/><path class="cls-5" d="M27.77,302.33a1.18,1.18,0,1,1-.1-2.36,1.18,1.18,0,1,1,.1,2.36Z"/><path class="cls-5" d="M87.37,314.11a1.23,1.23,0,0,1-1.13,1.21,1.19,1.19,0,1,1,0-2.38A1.22,1.22,0,0,1,87.37,314.11Z"/><path class="cls-5" d="M48.4,301.2a1.11,1.11,0,0,1-1.18,1.11,1.17,1.17,0,0,1-1.15-1.16A1.18,1.18,0,0,1,47.33,300,1.13,1.13,0,0,1,48.4,301.2Z"/><path class="cls-5" d="M21.18,300a1.2,1.2,0,0,1,1.18,1.15,1.18,1.18,0,0,1-1.25,1.18,1.17,1.17,0,0,1,.07-2.33Z"/><path class="cls-5" d="M14.74,300a1.15,1.15,0,1,1,0,2.3,1.15,1.15,0,0,1,0-2.3Z"/><path class="cls-5" d="M54.8,301.2a1.11,1.11,0,0,1-1.11,1.08,1.17,1.17,0,0,1-1.16-1.18A1.2,1.2,0,0,1,53.67,300,1.13,1.13,0,0,1,54.8,301.2Z"/><path class="cls-5" d="M74.34,307.66a1.15,1.15,0,0,1-1.1,1.2,1.22,1.22,0,0,1-1.2-1.12,1.17,1.17,0,0,1,1.12-1.19A1.12,1.12,0,0,1,74.34,307.66Z"/><path class="cls-5" d="M112.09,332.54a1.14,1.14,0,0,1,1.2,1.12,1.17,1.17,0,0,1-1.09,1.12,1.11,1.11,0,0,1-1.17-1.12A1.09,1.09,0,0,1,112.09,332.54Z"/><path class="cls-5" d="M105.66,326.11a1.15,1.15,0,0,1,1.2,1.12,1.17,1.17,0,0,1-1.09,1.12,1.1,1.1,0,0,1-1.17-1.13A1.08,1.08,0,0,1,105.66,326.11Z"/><path class="cls-5" d="M99.15,319.58a1.1,1.1,0,0,1,0,2.19,1.1,1.1,0,0,1,0-2.19Z"/><path class="cls-5" d="M8.22,302.25a1.12,1.12,0,0,1-1.1-1.08,1.1,1.1,0,0,1,1-1.12,1.1,1.1,0,0,1,.05,2.2Z"/><path class="cls-5" d="M118.65,341.3a1.11,1.11,0,0,1-1-1.14,1.08,1.08,0,1,1,2.16.08A1.11,1.11,0,0,1,118.65,341.3Z"/><path class="cls-5" d="M61.3,301.15a1.1,1.1,0,0,1-1.07,1.1,1.1,1.1,0,1,1,1.07-1.1Z"/><path class="cls-5" d="M80.7,307.65a1.05,1.05,0,0,1-1,1.09,1.05,1.05,0,0,1-.21-2.09A1.06,1.06,0,0,1,80.7,307.65Z"/><path class="cls-5" d="M93.78,314.17a1.07,1.07,0,0,1-1.06,1,1,1,0,1,1,.09-2.06A1.07,1.07,0,0,1,93.78,314.17Z"/><path class="cls-5" d="M66.66,302.14a1,1,0,1,1,0-2,1,1,0,0,1,0,2Z"/><path class="cls-5" d="M125.11,345.65a1,1,0,0,1,1,1,1,1,0,0,1-1,1,1,1,0,0,1-1-.95A1,1,0,0,1,125.11,345.65Z"/><path class="cls-5" d="M1.79,300.16a1,1,0,0,1,1,1,1,1,0,0,1-1.09.94,1,1,0,0,1,.1-2Z"/><path class="cls-5" d="M87.12,307.64a1,1,0,0,1-.9,1,.92.92,0,0,1-.94-.82.9.9,0,0,1,.83-1A1,1,0,0,1,87.12,307.64Z"/><path class="cls-5" d="M41.64,294.68a.94.94,0,0,1-.92.95.87.87,0,0,1-.92-.82.92.92,0,0,1,.84-1A1,1,0,0,1,41.64,294.68Z"/><path class="cls-5" d="M34.15,293.79a.93.93,0,0,1,.06,1.85.93.93,0,0,1-1-.89A1,1,0,0,1,34.15,293.79Z"/><path class="cls-5" d="M28.63,294.71a.88.88,0,0,1-.93.92,1,1,0,0,1-.92-1,1,1,0,0,1,.9-.88A.91.91,0,0,1,28.63,294.71Z"/><path class="cls-5" d="M113.08,327.19a1,1,0,0,1-.92,1,.92.92,0,0,1-.92-.84.9.9,0,0,1,.84-1A1,1,0,0,1,113.08,327.19Z"/><path class="cls-5" d="M22.09,294.71a.94.94,0,0,1-1,.91.9.9,0,0,1-.84-.9.91.91,0,0,1,.83-.91A1,1,0,0,1,22.09,294.71Z"/><path class="cls-5" d="M73.19,302.05a.94.94,0,0,1-.9-1,1,1,0,0,1,.92-.84.92.92,0,0,1,.88,1A.88.88,0,0,1,73.19,302.05Z"/><path class="cls-5" d="M48.13,294.69a.89.89,0,0,1-.81.93.94.94,0,0,1-1-.88,1,1,0,0,1,.94-.93A.91.91,0,0,1,48.13,294.69Z"/><path class="cls-5" d="M106.62,320.68a.94.94,0,0,1-1,.9.91.91,0,0,1,0-1.81A1,1,0,0,1,106.62,320.68Z"/><path class="cls-5" d="M119.57,333.65a.86.86,0,0,1-.84.9,1,1,0,0,1-1-.94.91.91,0,0,1,.93-.83A.83.83,0,0,1,119.57,333.65Z"/><path class="cls-5" d="M15.61,294.76a.93.93,0,0,1-.91.84.91.91,0,0,1-.82-.93.89.89,0,0,1,.9-.83A.91.91,0,0,1,15.61,294.76Z"/><path class="cls-5" d="M126,340.15a.83.83,0,1,1-1.66.11.85.85,0,0,1,.72-.89A.86.86,0,0,1,126,340.15Z"/><path class="cls-5" d="M53.67,293.87a.87.87,0,0,1,.85.89.89.89,0,0,1-.82.81.85.85,0,0,1,0-1.7Z"/><path class="cls-5" d="M100,314.24a.85.85,0,0,1-1,.7.83.83,0,0,1,.33-1.62A.84.84,0,0,1,100,314.24Z"/><path class="cls-5" d="M8,294c.65,0,1,.41,1,.82a.74.74,0,0,1-.78.69.68.68,0,0,1-.73-.81A2.22,2.22,0,0,1,8,294Z"/><path class="cls-5" d="M80.43,301.33c-.18.14-.41.45-.72.54a.67.67,0,0,1-.83-.7.69.69,0,0,1,.68-.76C80,300.36,80.4,300.69,80.43,301.33Z"/><path class="cls-5" d="M61.27,294.71c-.45.35-.69.65-1,.73a.73.73,0,1,1,0-1.45C60.58,294.08,60.82,294.38,61.27,294.71Z"/><path class="cls-5" d="M93.72,307.7c-.42.33-.67.64-1,.73s-.8-.38-.75-.79.36-.74.76-.66S93.3,307.37,93.72,307.7Z"/><path class="cls-5" d="M132.41,346.66a.7.7,0,0,1-.77.69.68.68,0,0,1-.69-.75.67.67,0,0,1,.76-.68A.69.69,0,0,1,132.41,346.66Z"/><path class="cls-5" d="M2.44,294.7a.65.65,0,0,1-.7.7c-.39,0-.79-.38-.66-.72a1.2,1.2,0,0,1,.64-.63C2.09,293.92,2.43,294.29,2.44,294.7Z"/><path class="cls-5" d="M66.65,293.78c.31.42.58.64.66.91s-.33.74-.7.69-.66-.31-.58-.69S66.36,294.2,66.65,293.78Z"/><path class="cls-5" d="M113.05,320.62c-.37.32-.57.62-.84.69s-.64-.14-.71-.53.25-.83.62-.75A3.42,3.42,0,0,1,113.05,320.62Z"/><path class="cls-5" d="M119.64,327.28c-.47.28-.72.53-1,.57a.57.57,0,0,1-.62-.66.56.56,0,0,1,.69-.58C119,326.67,119.2,326.94,119.64,327.28Z"/><path class="cls-5" d="M125.18,334.5c-.3-.35-.58-.52-.64-.76a.52.52,0,0,1,.55-.68c.41,0,.68.22.63.61C125.69,333.91,125.44,334.12,125.18,334.5Z"/><path class="cls-5" d="M106.57,314.09c-.36.29-.54.55-.78.61a.53.53,0,0,1-.69-.54c0-.41.23-.68.63-.61C106,313.59,106.18,313.83,106.57,314.09Z"/><path class="cls-5" d="M86.2,300.32c.26.4.53.64.51.83s-.34.39-.53.58c-.2-.19-.52-.37-.54-.59S85.91,300.71,86.2,300.32Z"/><path class="cls-5" d="M28.54,288.25c-.46.22-.7.43-.92.41s-.4-.36-.38-.54.33-.48.48-.46S28.14,288,28.54,288.25Z"/><path class="cls-5" d="M35,288.1c-.4.3-.6.55-.83.57s-.46-.28-.47-.45.23-.53.38-.54S34.52,287.88,35,288.1Z"/><path class="cls-5" d="M100,307.62c-.4.3-.6.56-.82.58s-.46-.28-.48-.45.23-.54.38-.55S99.53,307.4,100,307.62Z"/><path class="cls-5" d="M40.73,288.93c-.26-.34-.52-.54-.54-.77s.29-.35.46-.53c.19.18.47.33.54.55S41,288.57,40.73,288.93Z"/><path class="cls-5" d="M73.14,295.41c-.2-.32-.44-.53-.42-.7a.74.74,0,0,1,.48-.48.44.44,0,0,1,.52.55C73.67,295,73.41,295.13,73.14,295.41Z"/><path class="cls-5" d="M47.82,288.13c-.2.22-.38.52-.49.49s-.38-.27-.57-.42c.17-.17.32-.41.52-.48S47.6,288,47.82,288.13Z"/><path class="cls-5" d="M21.88,288.15c-.35.24-.53.45-.74.47s-.39-.27-.4-.43.24-.47.36-.47S21.52,287.93,21.88,288.15Z"/><path class="cls-5" d="M131.73,340.84c-.24-.28-.51-.46-.48-.57a.82.82,0,0,1,.43-.5c.09,0,.44.24.44.37S131.91,340.53,131.73,340.84Z"/><path class="cls-5" d="M54.25,288.18c-.28.17-.44.34-.61.35s-.25-.2-.38-.31c.14-.15.25-.38.4-.41S54,288,54.25,288.18Z"/><path class="cls-5" d="M14.73,287.64c.19.25.32.4.44.55-.16.12-.31.3-.48.34s-.34-.22-.33-.32S14.55,287.89,14.73,287.64Z"/><path class="cls-5" d="M79.7,295.21c-.18-.22-.34-.34-.37-.48s.16-.33.22-.32.39.13.42.25S79.83,295,79.7,295.21Z"/><path class="cls-5" d="M138.72,346.66c-.25.15-.42.33-.54.3s-.24-.25-.27-.4.22-.27.31-.25S138.49,346.49,138.72,346.66Z"/><path class="cls-5" d="M60.69,288.33a1.76,1.76,0,0,1-.6.12c-.09,0-.22-.28-.19-.32s.27-.27.4-.26S60.51,288.1,60.69,288.33Z"/><path class="cls-5" d="M8.69,288.12c-.23.18-.34.33-.49.37s-.31-.16-.3-.23.13-.37.24-.4S8.43,288,8.69,288.12Z"/><path class="cls-5" d="M93.24,301.14c-.24.17-.39.36-.51.34s-.26-.23-.31-.38.19-.28.28-.27S93,301,93.24,301.14Z"/><path class="cls-5" d="M119.2,320.68c-.25.16-.41.35-.52.32s-.26-.23-.3-.38.2-.28.29-.27S119,320.52,119.2,320.68Z"/><path class="cls-5" d="M125.07,326.8c.17.21.33.33.31.42s-.17.21-.29.26-.21-.13-.21-.2A1.75,1.75,0,0,1,125.07,326.8Z"/><path class="cls-5" d="M112.55,314.09c-.2.16-.32.32-.41.3s-.21-.18-.25-.3.13-.22.2-.21S112.33,314,112.55,314.09Z"/></g></g><path class="cls-9" d="M211.54,22.42h-7.68L187.33,57.33a16.18,16.18,0,0,1-14.63,9.26H64.82a16.18,16.18,0,0,1-14.63-9.26L33.66,22.42H26a8.33,8.33,0,0,0-8.33,8.33V322.86A8.33,8.33,0,0,0,26,331.19H57.79l8.85-18.69a12.29,12.29,0,0,1,11.12-7h82a12.29,12.29,0,0,1,11.12,7l8.85,18.69h31.81a8.33,8.33,0,0,0,8.33-8.33V30.75A8.33,8.33,0,0,0,211.54,22.42Z"/><path class="cls-10" d="M211.54,22.42h-7.68L187.33,57.33a16.18,16.18,0,0,1-14.63,9.26H64.82a16.18,16.18,0,0,1-14.63-9.26L33.66,22.42H26a8.33,8.33,0,0,0-8.33,8.33V322.86A8.33,8.33,0,0,0,26,331.19H57.79l8.85-18.69a12.29,12.29,0,0,1,11.12-7h82a12.29,12.29,0,0,1,11.12,7l8.85,18.69h31.81a8.33,8.33,0,0,0,8.33-8.33V30.75A8.33,8.33,0,0,0,211.54,22.42Z"/><path class="cls-11" d="M109.6,52.06a13.64,13.64,0,0,1-9-3.48,12.91,12.91,0,0,1-3.89-5.89,12.35,12.35,0,0,1,.26-8.37,12.88,12.88,0,0,1,9.79-8,13.54,13.54,0,0,1,7.47.78,14.74,14.74,0,0,1,5.48,3.73,12.08,12.08,0,0,1,1.32,1.7,11,11,0,0,1,1,1.92,11.89,11.89,0,0,1,.64,2.08,11.58,11.58,0,0,1-.79,7.11,14.41,14.41,0,0,1-6.62,7,12.1,12.1,0,0,1-4.3,1.37C110.45,52,110,52,109.6,52.06ZM97.83,39c0,.22,0,.64,0,1.06a4.3,4.3,0,0,0,.13.7c.06.2.15.23.35.17a.63.63,0,0,0,.42-.43,4.62,4.62,0,0,0,.18-.82c.15-1,.26-2.06.41-3.09a7.49,7.49,0,0,1,.71-2.3,11.18,11.18,0,0,1,1.67-2.47,7.47,7.47,0,0,1,3.87-2.42,1.91,1.91,0,0,0,.56-.26,1,1,0,0,0,.3-.32c.16-.27,0-.5-.27-.5a2.3,2.3,0,0,0-.58.07,10.56,10.56,0,0,0-4.83,2.81,9.52,9.52,0,0,0-2.31,3.58A12.84,12.84,0,0,0,97.83,39Z"/><path class="cls-12" d="M109.42,25.43c0-.21.1-.42.16-.62.14-.43.29-.87.44-1.3a1.91,1.91,0,0,1,.16-.32.45.45,0,0,1,.41-.24c.38,0,.76,0,1.13,0A23.34,23.34,0,0,1,117,24.07a10.23,10.23,0,0,1,2.82,1.37,3.72,3.72,0,0,1,.89.88,2.1,2.1,0,0,1,.26,2c-.27.68-.58,1.33-.88,2A15.73,15.73,0,0,0,109.42,25.43Z"/><path class="cls-13" d="M134.66,28.61l-1.22-.74,1.41-.32-1-2.39,0,0,2.33,1.3.06-1.6L137.49,26l2.86-2.24,0,0-1.2,2.83,2.26.66-2.09,1,2.1,2.94v0l-3.56-1.3v1.54l-1.17-1-1.79,2.74h0l.38-3.08-2.81-.14v0Z"/><path class="cls-14" d="M126.59,22a23,23,0,0,1,2.15,2.26l0,0-1.56.58s-.11,0-.13,0a14,14,0,0,0-2.05-1.7A6.87,6.87,0,0,1,126.59,22Z"/><path class="cls-15" d="M127.44,25.36a3.54,3.54,0,0,1,.5-.27c.37-.15.76-.27,1.14-.4a.19.19,0,0,1,.15.06,6.73,6.73,0,0,0,1.2,1c.28.17.57.31.86.47l.16.07-.46.36-1,.74c-.05,0-.09.07-.15,0a13.75,13.75,0,0,1-2-1.6C127.71,25.67,127.59,25.52,127.44,25.36Z"/><path class="cls-16" d="M120,22.11c-.07-.34-.14-.67-.2-1,0-.15,0-.3-.08-.46s0-.1.08-.12a6.6,6.6,0,0,1,3-.24h0L122,22.05A5.43,5.43,0,0,0,120,22.11Z"/><path class="cls-17" d="M122.7,22.17a6.66,6.66,0,0,1,.74-1.68.13.13,0,0,1,.11,0,7.47,7.47,0,0,1,2.4,1l0,0-.51.31a5.07,5.07,0,0,0-1,.78.19.19,0,0,1-.16,0l-1.55-.46Z"/><path class="cls-18" d="M119.05,20.82l.34,1.49a4.41,4.41,0,0,0-1.67,1.14c-.2-.32-.42-.61-.59-.93s-.24-.29.11-.58a8,8,0,0,1,1.68-1.07Z"/><path class="cls-19" d="M132,27.64l1.22.73a7.68,7.68,0,0,1-2.55-.61l.11-.1,1.38-1.05a.27.27,0,0,1,.23-.05c.47.08.94.15,1.41.2.11,0,.18,0,.21.15a1.54,1.54,0,0,0,.1.24Z"/><path class="cls-20" d="M117.3,23.67l-1.37-.39.6-.7Z"/><text class="cls-21" transform="translate(59.35 160.76)">Clear the <tspan x="-30.55" y="36">number order </tspan><tspan x="-24.46" y="72">from (61-70)</tspan></text><path class="cls-1" d="M187.33,57.33l13.51-28.54L163,66.59h9.66A16.18,16.18,0,0,0,187.33,57.33Z"/><path class="cls-22" d="M219.87,30.75a8.33,8.33,0,0,0-8.33-8.33h-4.33l-6.37,6.37L187.33,57.33a16.18,16.18,0,0,1-14.63,9.26H163L17.65,212v84.34L219.87,94.1Z"/><polygon class="cls-22" points="82.92 66.59 17.65 131.86 17.65 155.86 106.92 66.59 82.92 66.59"/><polygon class="cls-23" points="203.86 22.42 200.84 28.79 207.21 22.42 203.86 22.42"/><g class="cls-24"><g class="cls-4"><path class="cls-5" d="M238.38,346.59a1.75,1.75,0,0,1-1.69,1.81,1.77,1.77,0,0,1-.09-3.53A1.75,1.75,0,0,1,238.38,346.59Z"/><path class="cls-5" d="M236.61,338.58a1.62,1.62,0,1,1,.08,3.24,1.62,1.62,0,0,1-.08-3.24Z"/><path class="cls-5" d="M230.05,348.24a1.63,1.63,0,0,1-1.57-1.62,1.65,1.65,0,0,1,1.72-1.6,1.59,1.59,0,0,1,1.49,1.69A1.57,1.57,0,0,1,230.05,348.24Z"/><path class="cls-5" d="M236.67,335.13a1.48,1.48,0,1,1,0-3,1.48,1.48,0,0,1,1.43,1.49A1.45,1.45,0,0,1,236.67,335.13Z"/><path class="cls-5" d="M230.06,341.67a1.44,1.44,0,0,1-1.42-1.48,1.42,1.42,0,0,1,1.45-1.44,1.47,1.47,0,0,1,1.5,1.52A1.5,1.5,0,0,1,230.06,341.67Z"/><path class="cls-5" d="M223.68,348.08a1.43,1.43,0,0,1-1.46-1.44,1.41,1.41,0,0,1,1.44-1.44,1.44,1.44,0,1,1,0,2.88Z"/><path class="cls-5" d="M231.42,333.65a1.32,1.32,0,1,1-1.29-1.3A1.29,1.29,0,0,1,231.42,333.65Z"/><path class="cls-5" d="M223.63,338.89a1.32,1.32,0,0,1,.08,2.63,1.32,1.32,0,0,1-.08-2.63Z"/><path class="cls-5" d="M236.64,328.51a1.29,1.29,0,1,1,0-2.58,1.29,1.29,0,1,1,0,2.58Z"/><path class="cls-5" d="M218.36,346.61a1.23,1.23,0,0,1-1.18,1.29,1.26,1.26,0,1,1-.06-2.52A1.21,1.21,0,0,1,218.36,346.61Z"/><path class="cls-5" d="M230.08,328.38a1.16,1.16,0,1,1,0-2.31,1.16,1.16,0,0,1,0,2.31Z"/><path class="cls-5" d="M224.81,333.66a1.17,1.17,0,0,1-1.15,1.16,1.22,1.22,0,0,1-1.16-1.17,1.18,1.18,0,0,1,1.17-1.14A1.13,1.13,0,0,1,224.81,333.66Z"/><path class="cls-5" d="M236.6,321.79a1.11,1.11,0,0,1-1-1.13,1.14,1.14,0,0,1,1.09-1.11,1.18,1.18,0,0,1,1.12,1.2A1.15,1.15,0,0,1,236.6,321.79Z"/><path class="cls-5" d="M217.16,339.08a1.18,1.18,0,0,1,1.08,1.13,1.16,1.16,0,0,1-1.21,1.11,1.12,1.12,0,0,1,.13-2.24Z"/><path class="cls-5" d="M210.55,345.57a1.09,1.09,0,0,1,1.09,1.09,1.12,1.12,0,0,1-1,1,1.07,1.07,0,0,1-1.08-1.1A1,1,0,0,1,210.55,345.57Z"/><path class="cls-5" d="M223.7,328.19a1,1,0,0,1-1-.9,1,1,0,0,1,1-1,1,1,0,0,1,.93.95A1,1,0,0,1,223.7,328.19Z"/><path class="cls-5" d="M230.1,321.59a.94.94,0,0,1-.94-.94,1,1,0,0,1,1-.9.91.91,0,0,1,.86.89A.89.89,0,0,1,230.1,321.59Z"/><path class="cls-5" d="M217.11,334.59a.92.92,0,0,1-.9-1,.91.91,0,0,1,.87-.89,1,1,0,0,1,1,.91A1,1,0,0,1,217.11,334.59Z"/><path class="cls-5" d="M210.62,339.32a.92.92,0,0,1,.82.93.9.9,0,0,1-.92.83.92.92,0,0,1-.82-.93A1,1,0,0,1,210.62,339.32Z"/><path class="cls-5" d="M237.52,314.17a.88.88,0,0,1-.92.81.85.85,0,1,1,.09-1.7A.86.86,0,0,1,237.52,314.17Z"/><path class="cls-5" d="M204.92,346.64a.77.77,0,0,1-.83.74.69.69,0,0,1-.7-.75.68.68,0,0,1,.7-.74A.76.76,0,0,1,204.92,346.64Z"/><path class="cls-5" d="M217.3,326.52a2.36,2.36,0,0,1,.51.71c.1.34-.34.74-.71.69a.66.66,0,0,1-.66-.64C216.41,326.87,216.71,326.54,217.3,326.52Z"/><path class="cls-5" d="M224.35,320.69c0,.42-.35.77-.72.65a1.13,1.13,0,0,1-.64-.63c-.13-.34.28-.72.66-.73A.67.67,0,0,1,224.35,320.69Z"/><path class="cls-5" d="M231,314.06c-.43.34-.64.63-.91.69a.56.56,0,0,1-.69-.58.55.55,0,0,1,.61-.65C230.32,313.55,230.57,313.79,231,314.06Z"/><path class="cls-5" d="M209.63,333.6c.45-.27.71-.53,1-.56s.63.24.61.66-.31.67-.69.58S210.05,333.92,209.63,333.6Z"/><path class="cls-5" d="M205,340.22c-.41.27-.62.51-.86.54s-.55-.21-.54-.57a.49.49,0,0,1,.57-.54C204.4,339.69,204.6,339.94,205,340.22Z"/><path class="cls-5" d="M237.48,307.72c-.41.26-.66.54-.85.51s-.38-.35-.57-.55c.2-.19.38-.5.6-.52S237.08,307.43,237.48,307.72Z"/><path class="cls-5" d="M217.68,320.65c-.23.19-.38.42-.53.42s-.4-.23-.4-.37a.54.54,0,0,1,.35-.42C217.25,320.26,217.43,320.47,217.68,320.65Z"/><path class="cls-5" d="M198.15,346.67c-.25.17-.43.38-.57.36a.4.4,0,0,1,0-.79C197.78,346.24,197.93,346.47,198.15,346.67Z"/><path class="cls-5" d="M210.6,327.7c-.17-.23-.31-.35-.34-.49s.18-.31.24-.3.36.15.4.27S210.75,327.46,210.6,327.7Z"/><path class="cls-5" d="M223.69,314.6c-.16-.22-.31-.34-.34-.49s.18-.3.25-.29a.57.57,0,0,1,.39.27C224,314.2,223.84,314.36,223.69,314.6Z"/><path class="cls-5" d="M204.64,333.78a1.54,1.54,0,0,1-.46.14c-.1,0-.18-.16-.27-.24a1.48,1.48,0,0,1,.29-.27S204.35,333.53,204.64,333.78Z"/><path class="cls-5" d="M230.44,307.69a1.17,1.17,0,0,1-.34.28s-.16-.12-.24-.18a1.37,1.37,0,0,1,.27-.31S230.29,307.58,230.44,307.69Z"/></g></g></g></g></svg>