<svg xmlns="http://www.w3.org/2000/svg" xmlns:xlink="http://www.w3.org/1999/xlink" viewBox="0 0 224.48 224.28"><defs><style>.cls-1{fill:none;}.cls-2{isolation:isolate;}.cls-3{clip-path:url(#clip-path);}.cls-4{clip-path:url(#clip-path-2);}.cls-5,.cls-6{mix-blend-mode:screen;}.cls-5{fill:url(#radial-gradient);}.cls-6{opacity:0.11;}.cls-7{fill:url(#linear-gradient);}.cls-8{fill:url(#linear-gradient-2);}.cls-9{fill:url(#linear-gradient-3);}.cls-10{fill:url(#linear-gradient-4);}.cls-11{fill:url(#linear-gradient-5);}.cls-12{fill:#fff;opacity:0.16;mix-blend-mode:hard-light;}</style><clipPath id="clip-path"><rect class="cls-1" x="-1160.15" y="483.76" width="1440" height="576.41"/></clipPath><clipPath id="clip-path-2"><rect class="cls-1" x="-1217.24" y="253.91" width="1554.18" height="1036.12"/></clipPath><radialGradient id="radial-gradient" cx="-453.42" cy="706.78" r="679.21" gradientUnits="userSpaceOnUse"><stop offset="0" stop-color="#800019"/><stop offset="1"/></radialGradient><linearGradient id="linear-gradient" x1="-383.24" y1="578.61" x2="-296.23" y2="-176.07" gradientTransform="translate(273.6 373.98) rotate(36)" xlink:href="#radial-gradient"/><linearGradient id="linear-gradient-2" x1="32.89" y1="191.83" x2="191.59" y2="33.13" gradientUnits="userSpaceOnUse"><stop offset="0" stop-color="#953900"/><stop offset="0.25" stop-color="#c89b14"/><stop offset="0.5" stop-color="#953900"/><stop offset="0.81" stop-color="#c89b14"/><stop offset="1" stop-color="#953900"/></linearGradient><linearGradient id="linear-gradient-3" x1="3.49" y1="112.14" x2="220.99" y2="112.14" gradientUnits="userSpaceOnUse"><stop offset="0" stop-color="#8c0f02"/><stop offset="1" stop-color="#ff1124"/></linearGradient><linearGradient id="linear-gradient-4" x1="35.36" y1="35.6" x2="189.12" y2="189.36" gradientUnits="userSpaceOnUse"><stop offset="0" stop-color="#fab865"/><stop offset="0.25" stop-color="#fffe9e"/><stop offset="0.5" stop-color="#fab865"/><stop offset="0.81" stop-color="#fffe9e"/><stop offset="1" stop-color="#fab865"/></linearGradient><linearGradient id="linear-gradient-5" x1="46.22" y1="46.12" x2="178.26" y2="178.16" xlink:href="#linear-gradient-4"/></defs><g class="cls-2"><g id="Layer_1" data-name="Layer 1"><g class="cls-3"><g class="cls-4"><circle class="cls-5" cx="-453.42" cy="706.78" r="679.21"/><g class="cls-6"><polygon class="cls-7" points="-429.64 779.61 -447.54 766.61 -33.74 138.68 39.69 192.03 -429.64 779.61"/></g></g></g><path class="cls-8" d="M121.07,224.28a13.75,13.75,0,0,1-8.83-3.19,13.75,13.75,0,0,1-8.83,3.19c-.41,0-.83,0-1.24-.05a13.72,13.72,0,0,1-9.35-4.9,13.74,13.74,0,0,1-6.8,1.8,13.42,13.42,0,0,1-3.67-.5A13.74,13.74,0,0,1,74,214.15a14.08,14.08,0,0,1-4.55.78,13.92,13.92,0,0,1-6-1.37,13.77,13.77,0,0,1-7-7.87,14.09,14.09,0,0,1-2.16.17A13.77,13.77,0,0,1,40.7,194.23a13.8,13.8,0,0,1-13.48-14.09,13.8,13.8,0,0,1-10.74-16.27A13.79,13.79,0,0,1,8.82,146a13.82,13.82,0,0,1-4.34-19,13.77,13.77,0,0,1-.87-19.47A13.8,13.8,0,0,1,6.22,88.14a13.8,13.8,0,0,1,6-18.54,13.79,13.79,0,0,1,9.24-17.16A13.8,13.8,0,0,1,33.64,37.19,13.79,13.79,0,0,1,47.4,24.34l.92,0a13.78,13.78,0,0,1,16.74-10A13.79,13.79,0,0,1,83.31,7.51a13.77,13.77,0,0,1,8.87-5.7,13.57,13.57,0,0,1,2.46-.23A13.87,13.87,0,0,1,102.49,4,13.79,13.79,0,0,1,122,4a13.87,13.87,0,0,1,7.85-2.46,13.57,13.57,0,0,1,2.46.23,13.77,13.77,0,0,1,8.87,5.7,13.71,13.71,0,0,1,5.7-1.23,13.77,13.77,0,0,1,12.55,8.09,13.79,13.79,0,0,1,16.74,10l.92,0a13.79,13.79,0,0,1,13.76,12.85A13.81,13.81,0,0,1,203,52.44a13.78,13.78,0,0,1,9.24,17.16,13.81,13.81,0,0,1,6,18.54,13.78,13.78,0,0,1,2.61,19.32,13.77,13.77,0,0,1-.87,19.47,13.79,13.79,0,0,1-4.34,19A13.79,13.79,0,0,1,208,163.87a13.8,13.8,0,0,1-10.74,16.27,13.8,13.8,0,0,1-13.47,14.09,13.79,13.79,0,0,1-13.62,11.63,14,14,0,0,1-2.15-.17,13.83,13.83,0,0,1-13,9.23,14.07,14.07,0,0,1-4.55-.77,13.76,13.76,0,0,1-8.33,6.48,13.3,13.3,0,0,1-3.66.5,13.77,13.77,0,0,1-6.8-1.8,13.72,13.72,0,0,1-9.35,4.9C121.9,224.26,121.48,224.28,121.07,224.28Z"/><path class="cls-9" d="M103.69,8.05a10.3,10.3,0,0,1,17.1,0l.74,1.1.92-1a10.3,10.3,0,0,1,16.83,3.05l.52,1.22,1.08-.77a10.3,10.3,0,0,1,16,6l.3,1.3,1.2-.57a10.29,10.29,0,0,1,14.68,8.77l.07,1.32,1.28-.34a10.29,10.29,0,0,1,12.87,11.25l-.16,1.31,1.31-.1A10.29,10.29,0,0,1,199.11,54l-.41,1.26,1.32.14a10.29,10.29,0,0,1,8.11,15.05l-.62,1.17,1.27.36a10.29,10.29,0,0,1,5.28,16.26l-.81,1.05,1.19.58a10.3,10.3,0,0,1,2.29,16.94l-1,.88,1.07.79a10.29,10.29,0,0,1-.77,17.08l-1.13.69.91,1A10.3,10.3,0,0,1,212,143.88l-1.23.48.71,1.11a10.29,10.29,0,0,1-6.71,15.72l-1.31.24.51,1.23a10.29,10.29,0,0,1-9.41,14.27h-1.33l.29,1.29a10.3,10.3,0,0,1-11.82,12.36l-1.3-.23,0,1.32a10.29,10.29,0,0,1-13.83,10.06l-1.24-.46-.19,1.31a10.29,10.29,0,0,1-15.4,7.42l-1.14-.67-.42,1.26a10.3,10.3,0,0,1-16.49,4.55l-1-.87-.64,1.16a10.29,10.29,0,0,1-17,1.53l-.83-1-.83,1a10.29,10.29,0,0,1-17-1.53l-.64-1.16-1,.87a10.3,10.3,0,0,1-16.49-4.55l-.41-1.26-1.15.67a10.29,10.29,0,0,1-15.4-7.42l-.18-1.31-1.25.46A10.29,10.29,0,0,1,44,191.68l0-1.32-1.31.23A10.29,10.29,0,0,1,31,178.23l.28-1.29H29.91a10.31,10.31,0,0,1-9.42-14.27l.52-1.23-1.31-.24A10.29,10.29,0,0,1,13,145.47l.72-1.11-1.24-.48a10.29,10.29,0,0,1-3.8-16.67l.91-1-1.14-.69a10.29,10.29,0,0,1-.76-17.08l1.06-.79-1-.88a10.29,10.29,0,0,1,2.3-16.94l1.18-.58-.82-1.05A10.3,10.3,0,0,1,15.7,72L17,71.62l-.62-1.17A10.29,10.29,0,0,1,24.46,55.4l1.32-.14L25.37,54A10.29,10.29,0,0,1,36,40.64l1.33.1-.17-1.31A10.29,10.29,0,0,1,50.06,28.18l1.28.34.07-1.32a10.29,10.29,0,0,1,14.68-8.77l1.2.57.3-1.3a10.3,10.3,0,0,1,16-6l1.08.77.53-1.22a10.28,10.28,0,0,1,16.82-3l.92.94Z"/><path class="cls-10" d="M103.69,8.05a10.3,10.3,0,0,1,17.1,0l.74,1.1.92-1a10.3,10.3,0,0,1,16.83,3.05l.52,1.22,1.08-.77a10.3,10.3,0,0,1,16,6l.3,1.3,1.2-.57a10.29,10.29,0,0,1,14.68,8.77l.07,1.32,1.28-.34a10.29,10.29,0,0,1,12.87,11.25l-.16,1.31,1.31-.1A10.29,10.29,0,0,1,199.11,54l-.41,1.26,1.32.14a10.29,10.29,0,0,1,8.11,15.05l-.62,1.17,1.27.36a10.29,10.29,0,0,1,5.28,16.26l-.81,1.05,1.19.58a10.3,10.3,0,0,1,2.29,16.94l-1,.88,1.07.79a10.29,10.29,0,0,1-.77,17.08l-1.13.69.91,1A10.3,10.3,0,0,1,212,143.88l-1.23.48.71,1.11a10.29,10.29,0,0,1-6.71,15.72l-1.31.24.51,1.23a10.29,10.29,0,0,1-9.41,14.27h-1.33l.29,1.29a10.3,10.3,0,0,1-11.82,12.36l-1.3-.23,0,1.32a10.29,10.29,0,0,1-13.83,10.06l-1.24-.46-.19,1.31a10.29,10.29,0,0,1-15.4,7.42l-1.14-.67-.42,1.26a10.3,10.3,0,0,1-16.49,4.55l-1-.87-.64,1.16a10.29,10.29,0,0,1-17,1.53l-.83-1-.83,1a10.29,10.29,0,0,1-17-1.53l-.64-1.16-1,.87a10.3,10.3,0,0,1-16.49-4.55l-.41-1.26-1.15.67a10.29,10.29,0,0,1-15.4-7.42l-.18-1.31-1.25.46A10.29,10.29,0,0,1,44,191.68l0-1.32-1.31.23A10.29,10.29,0,0,1,31,178.23l.28-1.29H29.91a10.31,10.31,0,0,1-9.42-14.27l.52-1.23-1.31-.24A10.29,10.29,0,0,1,13,145.47l.72-1.11-1.24-.48a10.29,10.29,0,0,1-3.8-16.67l.91-1-1.14-.69a10.29,10.29,0,0,1-.76-17.08l1.06-.79-1-.88a10.29,10.29,0,0,1,2.3-16.94l1.18-.58-.82-1.05A10.3,10.3,0,0,1,15.7,72L17,71.62l-.62-1.17A10.29,10.29,0,0,1,24.46,55.4l1.32-.14L25.37,54A10.29,10.29,0,0,1,36,40.64l1.33.1-.17-1.31A10.29,10.29,0,0,1,50.06,28.18l1.28.34.07-1.32a10.29,10.29,0,0,1,14.68-8.77l1.2.57.3-1.3a10.3,10.3,0,0,1,16-6l1.08.77.53-1.22a10.28,10.28,0,0,1,16.82-3l.92.94ZM210,112.14a97.78,97.78,0,1,0-97.78,97.78A97.89,97.89,0,0,0,210,112.14Z"/><path class="cls-11" d="M205.61,112.14a93.37,93.37,0,1,1-93.37-93.37A93.37,93.37,0,0,1,205.61,112.14Zm-2.68,0a90.69,90.69,0,1,0-90.69,90.69A90.79,90.79,0,0,0,202.93,112.14Z"/><path class="cls-12" d="M220.1,97.73a10.29,10.29,0,0,0-5.66-7.86l-1.19-.58.81-1.05A10.29,10.29,0,0,0,208.78,72l-1.27-.36.62-1.17A10.29,10.29,0,0,0,200,55.4l-1.32-.14.41-1.26a10.29,10.29,0,0,0-10.67-13.36l-1.31.1.16-1.31a10.29,10.29,0,0,0-12.87-11.25l-1.28.34-.07-1.32a10.29,10.29,0,0,0-14.68-8.77l-1.2.57-.3-1.3a10.3,10.3,0,0,0-16-6l-1.08.77-.52-1.22A10.3,10.3,0,0,0,122.45,8.2l-.92,1-.74-1.1a10.3,10.3,0,0,0-17.1,0L103,9.15,102,8.21a10.28,10.28,0,0,0-16.82,3l-.53,1.22L83.6,11.7a10.3,10.3,0,0,0-16,6l-.3,1.3-1.2-.57A10.29,10.29,0,0,0,51.41,27.2l-.07,1.32-1.28-.34A10.29,10.29,0,0,0,37.19,39.43l.17,1.31L36,40.64A10.29,10.29,0,0,0,25.37,54l.41,1.26-1.32.14a10.29,10.29,0,0,0-8.11,15.05L17,71.62,15.7,72a10.3,10.3,0,0,0-5.29,16.26l.82,1.05-1.18.58a10.28,10.28,0,0,0-3.25,16C38.59,117.05,74.55,123,112.24,123s73.65-5.9,105.44-17.11A10.26,10.26,0,0,0,220.1,97.73Z"/></g></g></svg>