<svg xmlns="http://www.w3.org/2000/svg" xmlns:xlink="http://www.w3.org/1999/xlink" viewBox="0 0 85.08 27.2"><defs><style>.cls-1{fill:none;}.cls-2{isolation:isolate;}.cls-3{clip-path:url(#clip-path);}.cls-4{clip-path:url(#clip-path-2);}.cls-5{fill:url(#radial-gradient);}.cls-6{clip-path:url(#clip-path-3);}.cls-7{fill:url(#linear-gradient);}.cls-8{clip-path:url(#clip-path-4);}.cls-9{fill:url(#linear-gradient-2);}.cls-10{opacity:0.5;}.cls-10,.cls-14{mix-blend-mode:screen;}.cls-11{clip-path:url(#clip-path-5);}.cls-12{clip-path:url(#clip-path-6);}.cls-13{fill:url(#linear-gradient-3);}.cls-15{clip-path:url(#clip-path-7);}.cls-16{clip-path:url(#clip-path-8);}.cls-17{fill:url(#radial-gradient-2);}.cls-18{clip-path:url(#clip-path-9);}.cls-19{clip-path:url(#clip-path-10);}.cls-20{fill:url(#radial-gradient-3);}.cls-21{clip-path:url(#clip-path-11);}.cls-22{clip-path:url(#clip-path-12);}.cls-23{fill:url(#radial-gradient-4);}.cls-24{clip-path:url(#clip-path-13);}.cls-25{clip-path:url(#clip-path-14);}.cls-26{fill:url(#radial-gradient-5);}.cls-27{clip-path:url(#clip-path-15);}.cls-28{clip-path:url(#clip-path-16);}.cls-29{fill:url(#radial-gradient-6);}.cls-30{clip-path:url(#clip-path-17);}.cls-31{clip-path:url(#clip-path-18);}.cls-32{fill:url(#radial-gradient-7);}.cls-33{clip-path:url(#clip-path-19);}.cls-34{clip-path:url(#clip-path-20);}.cls-35{fill:url(#radial-gradient-8);}.cls-36{clip-path:url(#clip-path-21);}.cls-37{clip-path:url(#clip-path-22);}.cls-38{fill:url(#radial-gradient-9);}.cls-39{clip-path:url(#clip-path-23);}.cls-40{clip-path:url(#clip-path-24);}.cls-41{fill:url(#radial-gradient-10);}.cls-42{clip-path:url(#clip-path-25);}.cls-43{clip-path:url(#clip-path-26);}.cls-44{fill:url(#radial-gradient-11);}.cls-45{clip-path:url(#clip-path-27);}.cls-46{clip-path:url(#clip-path-28);}.cls-47{fill:url(#radial-gradient-12);}.cls-48{clip-path:url(#clip-path-29);}.cls-49{clip-path:url(#clip-path-30);}.cls-50{fill:url(#radial-gradient-13);}.cls-51{clip-path:url(#clip-path-31);}.cls-52{clip-path:url(#clip-path-32);}.cls-53{fill:url(#radial-gradient-14);}.cls-54{clip-path:url(#clip-path-33);}.cls-55{clip-path:url(#clip-path-34);}.cls-56{fill:url(#radial-gradient-15);}.cls-57{clip-path:url(#clip-path-35);}.cls-58{clip-path:url(#clip-path-36);}.cls-59{fill:url(#radial-gradient-16);}.cls-60{clip-path:url(#clip-path-37);}.cls-61{clip-path:url(#clip-path-38);}.cls-62{fill:url(#radial-gradient-17);}.cls-63{clip-path:url(#clip-path-39);}.cls-64{clip-path:url(#clip-path-40);}.cls-65{fill:url(#radial-gradient-18);}.cls-66{clip-path:url(#clip-path-41);}.cls-67{clip-path:url(#clip-path-42);}.cls-68{fill:url(#radial-gradient-19);}.cls-69{clip-path:url(#clip-path-43);}.cls-70{clip-path:url(#clip-path-44);}.cls-71{fill:url(#radial-gradient-20);}.cls-72{clip-path:url(#clip-path-45);}.cls-73{clip-path:url(#clip-path-46);}.cls-74{fill:url(#radial-gradient-21);}.cls-75{clip-path:url(#clip-path-47);}.cls-76{clip-path:url(#clip-path-48);}.cls-77{fill:url(#radial-gradient-22);}.cls-78{clip-path:url(#clip-path-49);}.cls-79{clip-path:url(#clip-path-50);}.cls-80{fill:url(#radial-gradient-23);}.cls-81{clip-path:url(#clip-path-51);}.cls-82{clip-path:url(#clip-path-52);}.cls-83{fill:url(#radial-gradient-24);}.cls-84{clip-path:url(#clip-path-53);}.cls-85{clip-path:url(#clip-path-54);}.cls-86{fill:url(#radial-gradient-25);}.cls-87{clip-path:url(#clip-path-55);}.cls-88{clip-path:url(#clip-path-56);}.cls-89{fill:url(#radial-gradient-26);}.cls-90{clip-path:url(#clip-path-57);}.cls-91{clip-path:url(#clip-path-58);}.cls-92{fill:url(#radial-gradient-27);}.cls-93{clip-path:url(#clip-path-59);}.cls-94{clip-path:url(#clip-path-60);}.cls-95{fill:url(#radial-gradient-28);}.cls-96{clip-path:url(#clip-path-61);}.cls-97{clip-path:url(#clip-path-62);}.cls-98{fill:url(#radial-gradient-29);}.cls-99{clip-path:url(#clip-path-63);}.cls-100{clip-path:url(#clip-path-64);}.cls-101{fill:url(#radial-gradient-30);}.cls-102{clip-path:url(#clip-path-65);}.cls-103{clip-path:url(#clip-path-66);}.cls-104{fill:url(#radial-gradient-31);}.cls-105{clip-path:url(#clip-path-67);}.cls-106{clip-path:url(#clip-path-68);}.cls-107{fill:url(#radial-gradient-32);}.cls-108{clip-path:url(#clip-path-69);}.cls-109{clip-path:url(#clip-path-70);}.cls-110{fill:url(#radial-gradient-33);}.cls-111{clip-path:url(#clip-path-71);}.cls-112{clip-path:url(#clip-path-72);}.cls-113{fill:url(#radial-gradient-34);}.cls-114{clip-path:url(#clip-path-73);}.cls-115{clip-path:url(#clip-path-74);}.cls-116{fill:url(#radial-gradient-35);}.cls-117{clip-path:url(#clip-path-75);}.cls-118{clip-path:url(#clip-path-76);}.cls-119{fill:url(#radial-gradient-36);}.cls-120{clip-path:url(#clip-path-77);}.cls-121{clip-path:url(#clip-path-78);}.cls-122{fill:url(#radial-gradient-37);}.cls-123{clip-path:url(#clip-path-79);}.cls-124{clip-path:url(#clip-path-80);}.cls-125{fill:url(#radial-gradient-38);}.cls-126{clip-path:url(#clip-path-81);}.cls-127{clip-path:url(#clip-path-82);}.cls-128{fill:url(#radial-gradient-39);}.cls-129{clip-path:url(#clip-path-83);}.cls-130{clip-path:url(#clip-path-84);}.cls-131{fill:url(#radial-gradient-40);}.cls-132{clip-path:url(#clip-path-85);}.cls-133{clip-path:url(#clip-path-86);}.cls-134{fill:url(#radial-gradient-41);}.cls-135{clip-path:url(#clip-path-87);}.cls-136{clip-path:url(#clip-path-88);}.cls-137{fill:url(#radial-gradient-42);}.cls-138{clip-path:url(#clip-path-89);}.cls-139{clip-path:url(#clip-path-90);}.cls-140{fill:url(#radial-gradient-43);}.cls-141{clip-path:url(#clip-path-91);}.cls-142{clip-path:url(#clip-path-92);}.cls-143{fill:url(#radial-gradient-44);}.cls-144{font-size:15.84px;fill:#fff;font-family:Roboto-Bold, Roboto;font-weight:700;}.cls-145{clip-path:url(#clip-path-93);}.cls-146{clip-path:url(#clip-path-94);}.cls-147{fill:url(#radial-gradient-45);}</style><clipPath id="clip-path"><rect class="cls-1" x="-1495.6" y="-79.4" width="1440" height="576.41"/></clipPath><clipPath id="clip-path-2"><rect class="cls-1" x="-1552.69" y="-309.25" width="1554.18" height="1036.12"/></clipPath><radialGradient id="radial-gradient" cx="-810.83" cy="285.48" r="1006.95" gradientUnits="userSpaceOnUse"><stop offset="0" stop-color="#800019"/><stop offset="1" stop-color="#30000f"/></radialGradient><clipPath id="clip-path-3"><rect class="cls-1" y="1.18" width="83.86" height="26.02" rx="9.52"/></clipPath><linearGradient id="linear-gradient" x1="2835.25" y1="301.75" x2="2836.25" y2="301.75" gradientTransform="matrix(0, 73.12, 73.12, 0, -22022.91, -207345.58)" gradientUnits="userSpaceOnUse"><stop offset="0" stop-color="#f5cb16"/><stop offset="0.28" stop-color="#fef687"/><stop offset="0.34" stop-color="#f5e064"/><stop offset="0.42" stop-color="#ebc83c"/><stop offset="0.48" stop-color="#e5b924"/><stop offset="0.52" stop-color="#e3b31b"/><stop offset="0.65" stop-color="#f0d34e"/><stop offset="0.79" stop-color="#fff585"/><stop offset="0.87" stop-color="#fbe355"/><stop offset="0.96" stop-color="#f7d227"/><stop offset="1" stop-color="#f5cb16"/></linearGradient><clipPath id="clip-path-4"><rect class="cls-1" x="1.35" y="1.81" width="81.17" height="24.76" rx="7.79"/></clipPath><linearGradient id="linear-gradient-2" x1="2894.02" y1="466.29" x2="2895.02" y2="466.29" gradientTransform="matrix(0, -24.76, -24.76, 0, 11586.65, 71678.27)" gradientUnits="userSpaceOnUse"><stop offset="0" stop-color="#a00003"/><stop offset="1" stop-color="#730000"/></linearGradient><clipPath id="clip-path-5"><rect class="cls-1" x="1.35" y="1.81" width="81.17" height="16.62"/></clipPath><clipPath id="clip-path-6"><path class="cls-1" d="M76.47,1.81H7.39c-3.34,0-6,1.6-6,3.57V18.43H82.52v-13"/></clipPath><linearGradient id="linear-gradient-3" x1="2898.23" y1="540.85" x2="2899.23" y2="540.85" gradientTransform="matrix(0, -16.62, -16.62, 0, 9030.8, 48186.82)" gradientUnits="userSpaceOnUse"><stop offset="0"/><stop offset="0" stop-color="#070503"/><stop offset="0.01" stop-color="#3b2c1d"/><stop offset="0.02" stop-color="#694e34"/><stop offset="0.03" stop-color="#926c47"/><stop offset="0.03" stop-color="#b38658"/><stop offset="0.04" stop-color="#cf9a65"/><stop offset="0.05" stop-color="#e4aa70"/><stop offset="0.06" stop-color="#f3b577"/><stop offset="0.08" stop-color="#fcbc7c"/><stop offset="0.1" stop-color="#ffbe7d"/><stop offset="0.19" stop-color="#d39d68"/><stop offset="0.34" stop-color="#946e48"/><stop offset="0.48" stop-color="#5f472f"/><stop offset="0.61" stop-color="#36281a"/><stop offset="0.72" stop-color="#18120c"/><stop offset="0.83" stop-color="#060503"/><stop offset="0.9"/><stop offset="1"/></linearGradient><clipPath id="clip-path-7"><rect class="cls-1" x="48.32" y="19.61" width="3.12" height="3.12"/></clipPath><clipPath id="clip-path-8"><path class="cls-1" d="M51.42,20.89a1.56,1.56,0,1,1-1.81-1.26,1.56,1.56,0,0,1,1.81,1.26"/></clipPath><radialGradient id="radial-gradient-2" cx="531.19" cy="876.09" r="1" gradientTransform="matrix(1.56, 0, 0, -1.56, -778.75, 1387.81)" gradientUnits="userSpaceOnUse"><stop offset="0" stop-color="#ffee8f"/><stop offset="0.09" stop-color="#ffee8f"/><stop offset="0.21" stop-color="#b7ab67"/><stop offset="0.32" stop-color="#776f43"/><stop offset="0.43" stop-color="#443f26"/><stop offset="0.52" stop-color="#1f1d11"/><stop offset="0.59" stop-color="#080805"/><stop offset="0.64"/><stop offset="1"/></radialGradient><clipPath id="clip-path-9"><rect class="cls-1" x="59.14" y="18.3" width="2.71" height="2.71"/></clipPath><clipPath id="clip-path-10"><path class="cls-1" d="M61.85,19.65A1.36,1.36,0,1,1,60.5,18.3a1.35,1.35,0,0,1,1.35,1.35"/></clipPath><radialGradient id="radial-gradient-3" cx="99.53" cy="471.65" r="1" gradientTransform="matrix(1.35, 0, 0, -1.35, -74.18, 657.85)" xlink:href="#radial-gradient-2"/><clipPath id="clip-path-11"><rect class="cls-1" x="68.27" y="19.96" width="2.6" height="2.6"/></clipPath><clipPath id="clip-path-12"><path class="cls-1" d="M70.87,21.26a1.3,1.3,0,1,1-1.3-1.3,1.3,1.3,0,0,1,1.3,1.3"/></clipPath><radialGradient id="radial-gradient-4" cx="-16.74" cy="478.23" r="1" gradientTransform="matrix(1.3, 0, 0, -1.3, 91.3, 642.43)" xlink:href="#radial-gradient-2"/><clipPath id="clip-path-13"><rect class="cls-1" x="52.67" y="20.86" width="1.78" height="1.78"/></clipPath><clipPath id="clip-path-14"><path class="cls-1" d="M54.44,21.59a.89.89,0,1,1-1-.72.89.89,0,0,1,1,.72"/></clipPath><radialGradient id="radial-gradient-5" cx="-1236.02" cy="1298" r="1" gradientTransform="matrix(0.89, 0, 0, -0.89, 1154.93, 1178.34)" xlink:href="#radial-gradient-2"/><clipPath id="clip-path-15"><rect class="cls-1" x="48.47" y="19.47" width="1.98" height="1.98"/></clipPath><clipPath id="clip-path-16"><path class="cls-1" d="M50.43,20.28a1,1,0,1,1-1.15-.8,1,1,0,0,1,1.15.8"/></clipPath><radialGradient id="radial-gradient-6" cx="-833.1" cy="1201.81" r="1" gradientTransform="matrix(0.99, 0, 0, -0.99, 872.24, 1207.37)" xlink:href="#radial-gradient-2"/><clipPath id="clip-path-17"><rect class="cls-1" x="39.14" y="17.25" width="2.55" height="2.55"/></clipPath><clipPath id="clip-path-18"><path class="cls-1" d="M41.67,18.3a1.29,1.29,0,0,1-1,1.49,1.28,1.28,0,1,1,1-1.49"/></clipPath><radialGradient id="radial-gradient-7" cx="6.9" cy="1001.26" r="1" gradientTransform="matrix(1.28, 0, 0, -1.28, 31.61, 1295.95)" xlink:href="#radial-gradient-2"/><clipPath id="clip-path-19"><rect class="cls-1" x="35.13" y="19.9" width="2.71" height="2.71"/></clipPath><clipPath id="clip-path-20"><path class="cls-1" d="M37.82,21a1.36,1.36,0,1,1-1.58-1.1A1.36,1.36,0,0,1,37.82,21"/></clipPath><radialGradient id="radial-gradient-8" cx="178.44" cy="960.31" r="1" gradientTransform="matrix(1.36, 0, 0, -1.36, -205.6, 1324.07)" xlink:href="#radial-gradient-2"/><clipPath id="clip-path-21"><rect class="cls-1" x="29.3" y="16.27" width="5" height="5"/></clipPath><clipPath id="clip-path-22"><path class="cls-1" d="M34.3,18.77a2.5,2.5,0,1,1-2.5-2.5,2.5,2.5,0,0,1,2.5,2.5"/></clipPath><radialGradient id="radial-gradient-9" cx="1377.24" cy="399.36" r="1" gradientTransform="matrix(2.5, 0, 0, -2.5, -3410.57, 1016.96)" xlink:href="#radial-gradient-2"/><clipPath id="clip-path-23"><rect class="cls-1" x="47.88" y="17.22" width="1.51" height="1.51"/></clipPath><clipPath id="clip-path-24"><path class="cls-1" d="M49.38,18a.75.75,0,1,1-.75-.76.75.75,0,0,1,.75.76"/></clipPath><radialGradient id="radial-gradient-10" cx="-2116.23" cy="597.01" r="1" gradientTransform="matrix(0.75, 0, 0, -0.75, 1643.58, 467.93)" xlink:href="#radial-gradient-2"/><clipPath id="clip-path-25"><rect class="cls-1" x="28.88" y="15.6" width="1.84" height="1.84"/></clipPath><clipPath id="clip-path-26"><path class="cls-1" d="M30.72,16.52a.92.92,0,1,1-.92-.92.92.92,0,0,1,.92.92"/></clipPath><radialGradient id="radial-gradient-11" cx="-1214.88" cy="546.02" r="1" gradientTransform="matrix(0.92, 0, 0, -0.92, 1146.69, 518.5)" xlink:href="#radial-gradient-2"/><clipPath id="clip-path-27"><rect class="cls-1" x="21.52" y="14.57" width="1.31" height="1.31"/></clipPath><clipPath id="clip-path-28"><path class="cls-1" d="M22.83,15.22a.67.67,0,0,1-.66.66.66.66,0,0,1-.65-.66.65.65,0,0,1,.65-.65.66.66,0,0,1,.66.65"/></clipPath><radialGradient id="radial-gradient-12" cx="-2877.42" cy="640.08" r="1" gradientTransform="matrix(0.65, 0, 0, -0.65, 1904.36, 433.91)" xlink:href="#radial-gradient-2"/><clipPath id="clip-path-29"><rect class="cls-1" x="50.7" y="18.62" width="1.7" height="1.7"/></clipPath><clipPath id="clip-path-30"><path class="cls-1" d="M52.4,19.47a.85.85,0,1,1-.85-.85.85.85,0,0,1,.85.85"/></clipPath><radialGradient id="radial-gradient-13" cx="-1549.79" cy="564.97" r="1" gradientTransform="matrix(0.85, 0, 0, -0.85, 1368.76, 499.65)" xlink:href="#radial-gradient-2"/><clipPath id="clip-path-31"><rect class="cls-1" x="53.3" y="15.64" width="1.8" height="1.8"/></clipPath><clipPath id="clip-path-32"><path class="cls-1" d="M55.1,16.54a.9.9,0,1,1-1.8,0,.9.9,0,1,1,1.8,0"/></clipPath><radialGradient id="radial-gradient-14" cx="-1302.15" cy="550.95" r="1" gradientTransform="matrix(0.9, 0, 0, -0.9, 1226.38, 512.5)" xlink:href="#radial-gradient-2"/><clipPath id="clip-path-33"><rect class="cls-1" x="75.6" y="17.04" width="2.38" height="2.38"/></clipPath><clipPath id="clip-path-34"><path class="cls-1" d="M78,18.23A1.19,1.19,0,1,1,76.79,17,1.19,1.19,0,0,1,78,18.23"/></clipPath><radialGradient id="radial-gradient-15" cx="-277.56" cy="492.99" r="1" gradientTransform="matrix(1.19, 0, 0, -1.19, 407.58, 605.77)" xlink:href="#radial-gradient-2"/><clipPath id="clip-path-35"><rect class="cls-1" x="60.13" y="20.45" width="1.9" height="1.89"/></clipPath><clipPath id="clip-path-36"><path class="cls-1" d="M62,21.4a1,1,0,1,1-1-.95.94.94,0,0,1,1,.95"/></clipPath><radialGradient id="radial-gradient-16" cx="-1093.93" cy="539.17" r="1" gradientTransform="matrix(0.95, 0, 0, -0.95, 1097.35, 532.15)" xlink:href="#radial-gradient-2"/><clipPath id="clip-path-37"><rect class="cls-1" x="66.27" y="18.27" width="1.19" height="1.19"/></clipPath><clipPath id="clip-path-38"><path class="cls-1" d="M67.47,18.87a.6.6,0,0,1-1.2,0,.6.6,0,0,1,1.2,0"/></clipPath><radialGradient id="radial-gradient-17" cx="-3440.51" cy="671.94" r="1" gradientTransform="matrix(0.6, 0, 0, -0.6, 2117.06, 419.27)" xlink:href="#radial-gradient-2"/><clipPath id="clip-path-39"><rect class="cls-1" x="43.78" y="17.72" width="2.25" height="2.25"/></clipPath><clipPath id="clip-path-40"><path class="cls-1" d="M46,18.65a1.12,1.12,0,0,1-.9,1.3,1.12,1.12,0,1,1,.9-1.3"/></clipPath><radialGradient id="radial-gradient-18" cx="-383.25" cy="1094.41" r="1" gradientTransform="matrix(1.12, 0, 0, -1.12, 475.5, 1248.44)" xlink:href="#radial-gradient-2"/><clipPath id="clip-path-41"><rect class="cls-1" x="40.1" y="17.88" width="1.51" height="1.51"/></clipPath><clipPath id="clip-path-42"><path class="cls-1" d="M41.6,18.51a.74.74,0,0,1-.61.87.76.76,0,1,1,.61-.87"/></clipPath><radialGradient id="radial-gradient-19" cx="-1972.22" cy="1473.77" r="1" gradientTransform="matrix(0.76, 0, 0, -0.76, 1531.88, 1132.82)" xlink:href="#radial-gradient-2"/><clipPath id="clip-path-43"><rect class="cls-1" x="59.2" y="15.67" width="2.58" height="2.58"/></clipPath><clipPath id="clip-path-44"><path class="cls-1" d="M61.79,17a1.3,1.3,0,1,1-1.29-1.29A1.29,1.29,0,0,1,61.79,17"/></clipPath><radialGradient id="radial-gradient-20" cx="-36.11" cy="479.33" r="1" gradientTransform="matrix(1.29, 0, 0, -1.29, 107.08, 635.43)" xlink:href="#radial-gradient-2"/><clipPath id="clip-path-45"><rect class="cls-1" x="52.92" y="17.86" width="2.98" height="2.98"/></clipPath><clipPath id="clip-path-46"><path class="cls-1" d="M55.9,19.35a1.49,1.49,0,1,1-1.49-1.49,1.49,1.49,0,0,1,1.49,1.49"/></clipPath><radialGradient id="radial-gradient-21" cx="356.9" cy="457.09" r="1" gradientTransform="matrix(1.49, 0, 0, -1.49, -477.68, 700.81)" xlink:href="#radial-gradient-2"/><clipPath id="clip-path-47"><rect class="cls-1" x="63.56" y="18.68" width="2.69" height="2.69"/></clipPath><clipPath id="clip-path-48"><path class="cls-1" d="M66.25,20a1.35,1.35,0,1,1-1.35-1.35A1.34,1.34,0,0,1,66.25,20"/></clipPath><radialGradient id="radial-gradient-22" cx="85.19" cy="472.46" r="1" gradientTransform="matrix(1.35, 0, 0, -1.35, -49.78, 656.05)" xlink:href="#radial-gradient-2"/><clipPath id="clip-path-49"><rect class="cls-1" x="17.37" y="18.35" width="2.43" height="2.43"/></clipPath><clipPath id="clip-path-50"><path class="cls-1" d="M19.8,19.56a1.22,1.22,0,1,1-1.22-1.21,1.22,1.22,0,0,1,1.22,1.21"/></clipPath><radialGradient id="radial-gradient-23" cx="-218.88" cy="489.67" r="1" gradientTransform="matrix(1.21, 0, 0, -1.21, 284.37, 614.17)" xlink:href="#radial-gradient-2"/><clipPath id="clip-path-51"><rect class="cls-1" x="9.88" y="19.68" width="2.38" height="2.38"/></clipPath><clipPath id="clip-path-52"><path class="cls-1" d="M12.26,20.87a1.19,1.19,0,1,1-1.19-1.19,1.19,1.19,0,0,1,1.19,1.19"/></clipPath><radialGradient id="radial-gradient-24" cx="-280.55" cy="493.16" r="1" gradientTransform="matrix(1.19, 0, 0, -1.19, 345.12, 608.06)" xlink:href="#radial-gradient-2"/><clipPath id="clip-path-53"><rect class="cls-1" x="21.24" y="14.69" width="2.37" height="2.36"/></clipPath><clipPath id="clip-path-54"><path class="cls-1" d="M23.61,15.88a1.19,1.19,0,1,1-1.18-1.19,1.18,1.18,0,0,1,1.18,1.19"/></clipPath><radialGradient id="radial-gradient-25" cx="-302.59" cy="494.4" r="1" gradientTransform="matrix(1.18, 0, 0, -1.18, 380.22, 600.47)" xlink:href="#radial-gradient-2"/><clipPath id="clip-path-55"><rect class="cls-1" x="24.85" y="13.12" width="1.73" height="1.73"/></clipPath><clipPath id="clip-path-56"><path class="cls-1" d="M26.58,14a.87.87,0,1,1-.86-.86.86.86,0,0,1,.86.86"/></clipPath><radialGradient id="radial-gradient-26" cx="-1477.77" cy="560.89" r="1" gradientTransform="matrix(0.86, 0, 0, -0.86, 1302.45, 498.57)" xlink:href="#radial-gradient-2"/><clipPath id="clip-path-57"><rect class="cls-1" x="39.53" y="18.66" width="1.07" height="1.07"/></clipPath><clipPath id="clip-path-58"><path class="cls-1" d="M40.6,19.2a.54.54,0,1,1-.53-.54.54.54,0,0,1,.53.54"/></clipPath><radialGradient id="radial-gradient-27" cx="-4136.3" cy="711.3" r="1" gradientTransform="matrix(0.54, 0, 0, -0.54, 2260.64, 401.06)" xlink:href="#radial-gradient-2"/><clipPath id="clip-path-59"><rect class="cls-1" x="13.88" y="13.7" width="1.44" height="1.44"/></clipPath><clipPath id="clip-path-60"><path class="cls-1" d="M15.32,14.43a.72.72,0,1,1-.72-.73.72.72,0,0,1,.72.73"/></clipPath><radialGradient id="radial-gradient-28" cx="-2333.2" cy="609.29" r="1" gradientTransform="matrix(0.72, 0, 0, -0.72, 1699.96, 454.54)" xlink:href="#radial-gradient-2"/><clipPath id="clip-path-61"><rect class="cls-1" x="38.8" y="20.57" width="1.4" height="1.4"/></clipPath><clipPath id="clip-path-62"><path class="cls-1" d="M40.2,21.27a.7.7,0,0,1-1.4,0,.7.7,0,1,1,1.4,0"/></clipPath><radialGradient id="radial-gradient-29" cx="-2506.8" cy="619.11" r="1" gradientTransform="matrix(0.7, 0, 0, -0.7, 1791.96, 454.08)" xlink:href="#radial-gradient-2"/><clipPath id="clip-path-63"><rect class="cls-1" x="2.88" y="12.55" width="2.22" height="2.22"/></clipPath><clipPath id="clip-path-64"><path class="cls-1" d="M5.1,13.66A1.11,1.11,0,1,1,4,12.55,1.11,1.11,0,0,1,5.1,13.66"/></clipPath><radialGradient id="radial-gradient-30" cx="-514.3" cy="506.38" r="1" gradientTransform="matrix(1.11, 0, 0, -1.11, 574.24, 575.14)" xlink:href="#radial-gradient-2"/><clipPath id="clip-path-65"><rect class="cls-1" x="52.11" y="14.75" width="1.05" height="1.05"/></clipPath><clipPath id="clip-path-66"><path class="cls-1" d="M53.16,15.27a.53.53,0,0,1-.53.53.52.52,0,0,1-.52-.53.52.52,0,0,1,.52-.52.52.52,0,0,1,.53.52"/></clipPath><radialGradient id="radial-gradient-31" cx="-4276.22" cy="719.22" r="1" gradientTransform="matrix(0.53, 0, 0, -0.53, 2303.47, 393.84)" xlink:href="#radial-gradient-2"/><clipPath id="clip-path-67"><rect class="cls-1" x="24.02" y="18.87" width="2.2" height="2.2"/></clipPath><clipPath id="clip-path-68"><path class="cls-1" d="M26.22,20a1.1,1.1,0,1,1-1.1-1.1,1.1,1.1,0,0,1,1.1,1.1"/></clipPath><radialGradient id="radial-gradient-32" cx="-539.43" cy="507.8" r="1" gradientTransform="matrix(1.1, 0, 0, -1.1, 618.85, 578.89)" xlink:href="#radial-gradient-2"/><clipPath id="clip-path-69"><rect class="cls-1" x="45.22" y="21.43" width="1.24" height="1.24"/></clipPath><clipPath id="clip-path-70"><path class="cls-1" d="M46.47,22.05a.63.63,0,1,1-.63-.62.63.63,0,0,1,.63.62"/></clipPath><radialGradient id="radial-gradient-33" cx="-3174.43" cy="656.88" r="1" gradientTransform="matrix(0.62, 0, 0, -0.62, 2020.54, 430.67)" xlink:href="#radial-gradient-2"/><clipPath id="clip-path-71"><rect class="cls-1" x="44.35" y="12.21" width="2.99" height="2.99"/></clipPath><clipPath id="clip-path-72"><path class="cls-1" d="M47.34,13.7a1.5,1.5,0,1,1-1.5-1.49,1.5,1.5,0,0,1,1.5,1.49"/></clipPath><radialGradient id="radial-gradient-34" cx="363.25" cy="456.73" r="1" gradientTransform="matrix(1.49, 0, 0, -1.49, -497.07, 696.33)" xlink:href="#radial-gradient-2"/><clipPath id="clip-path-73"><rect class="cls-1" x="72.56" y="17.25" width="1.27" height="1.26"/></clipPath><clipPath id="clip-path-74"><path class="cls-1" d="M73.82,17.88a.63.63,0,1,1-1.26,0,.63.63,0,1,1,1.26,0"/></clipPath><radialGradient id="radial-gradient-35" cx="-3077.92" cy="651.42" r="1" gradientTransform="matrix(0.63, 0, 0, -0.63, 2018.83, 429.67)" xlink:href="#radial-gradient-2"/><clipPath id="clip-path-75"><rect class="cls-1" x="37.96" y="13.49" width="1.54" height="1.54"/></clipPath><clipPath id="clip-path-76"><path class="cls-1" d="M39.5,14.26a.77.77,0,1,1-.77-.77.77.77,0,0,1,.77.77"/></clipPath><radialGradient id="radial-gradient-36" cx="-2010.19" cy="591.01" r="1" gradientTransform="matrix(0.77, 0, 0, -0.77, 1586.57, 469.34)" xlink:href="#radial-gradient-2"/><clipPath id="clip-path-77"><rect class="cls-1" x="28.79" y="14.12" width="1.43" height="1.43"/></clipPath><clipPath id="clip-path-78"><path class="cls-1" d="M30.22,14.83a.72.72,0,1,1-.72-.71.72.72,0,0,1,.72.71"/></clipPath><radialGradient id="radial-gradient-37" cx="-2391.93" cy="612.61" r="1" gradientTransform="matrix(0.71, 0, 0, -0.71, 1738.06, 452.42)" xlink:href="#radial-gradient-2"/><clipPath id="clip-path-79"><rect class="cls-1" x="11.05" y="17.32" width="1.13" height="1.13"/></clipPath><clipPath id="clip-path-80"><path class="cls-1" d="M12.17,17.88a.56.56,0,1,1-.56-.56.56.56,0,0,1,.56.56"/></clipPath><radialGradient id="radial-gradient-38" cx="-3813.61" cy="693.04" r="1" gradientTransform="matrix(0.56, 0, 0, -0.56, 2157.56, 407.86)" xlink:href="#radial-gradient-2"/><clipPath id="clip-path-81"><rect class="cls-1" x="21.83" y="17.36" width="2.29" height="2.29"/></clipPath><clipPath id="clip-path-82"><path class="cls-1" d="M24.12,18.5A1.15,1.15,0,1,1,23,17.36a1.14,1.14,0,0,1,1.14,1.14"/></clipPath><radialGradient id="radial-gradient-39" cx="-406.94" cy="500.31" r="1" gradientTransform="matrix(1.14, 0, 0, -1.14, 488.91, 591.34)" xlink:href="#radial-gradient-2"/><clipPath id="clip-path-83"><rect class="cls-1" x="18.62" y="20.63" width="1.95" height="1.95"/></clipPath><clipPath id="clip-path-84"><path class="cls-1" d="M20.57,21.6a1,1,0,1,1-1.95,0,1,1,0,0,1,1.95,0"/></clipPath><radialGradient id="radial-gradient-40" cx="-979.52" cy="532.7" r="1" gradientTransform="matrix(0.98, 0, 0, -0.98, 974.95, 541.17)" xlink:href="#radial-gradient-2"/><clipPath id="clip-path-85"><rect class="cls-1" x="12.96" y="18.17" width="1.76" height="1.76"/></clipPath><clipPath id="clip-path-86"><path class="cls-1" d="M14.72,19.05a.88.88,0,1,1-.88-.88.88.88,0,0,1,.88.88"/></clipPath><radialGradient id="radial-gradient-41" cx="-1401.88" cy="556.6" r="1" gradientTransform="matrix(0.88, 0, 0, -0.88, 1246.44, 508.44)" xlink:href="#radial-gradient-2"/><clipPath id="clip-path-87"><rect class="cls-1" x="43.93" y="19.81" width="1.61" height="1.61"/></clipPath><clipPath id="clip-path-88"><path class="cls-1" d="M45.54,20.61a.81.81,0,1,1-.8-.8.8.8,0,0,1,.8.8"/></clipPath><radialGradient id="radial-gradient-42" cx="-1791.51" cy="578.64" r="1" gradientTransform="matrix(0.81, 0, 0, -0.81, 1488.69, 487)" xlink:href="#radial-gradient-2"/><clipPath id="clip-path-89"><rect class="cls-1" x="74.36" y="20.04" width="2.05" height="2.05"/></clipPath><clipPath id="clip-path-90"><path class="cls-1" d="M76.41,21.06a1,1,0,1,1-1-1,1,1,0,0,1,1,1"/></clipPath><radialGradient id="radial-gradient-43" cx="-796.71" cy="522.36" r="1" gradientTransform="matrix(1.02, 0, 0, -1.02, 891.02, 555.83)" xlink:href="#radial-gradient-2"/><clipPath id="clip-path-91"><rect class="cls-1" x="78.2" y="19.03" width="2.14" height="2.14"/></clipPath><clipPath id="clip-path-92"><path class="cls-1" d="M80.34,20.1A1.07,1.07,0,1,1,79.27,19a1.07,1.07,0,0,1,1.07,1.07"/></clipPath><radialGradient id="radial-gradient-44" cx="-635.37" cy="513.23" r="1" gradientTransform="matrix(1.07, 0, 0, -1.07, 759.54, 569.6)" xlink:href="#radial-gradient-2"/><clipPath id="clip-path-93"><rect class="cls-1" x="-1495.6" y="-687.61" width="1440" height="576.41"/></clipPath><clipPath id="clip-path-94"><rect class="cls-1" x="-1552.69" y="-917.46" width="1554.18" height="1036.12"/></clipPath><radialGradient id="radial-gradient-45" cx="-810.83" cy="-322.73" r="1006.95" xlink:href="#radial-gradient"/></defs><g class="cls-2"><g id="Layer_1" data-name="Layer 1"><g class="cls-3"><g class="cls-4"><rect class="cls-5" x="-1552.69" y="-309.25" width="1554.18" height="1036.12"/></g></g><g class="cls-6"><rect class="cls-7" x="17.23" y="-29.71" width="49.4" height="87.8" transform="translate(16.1 50.14) rotate(-73)"/></g><g class="cls-8"><rect class="cls-9" x="1.34" y="1.81" width="81.17" height="24.76"/></g><g class="cls-10"><g class="cls-11"><g class="cls-12"><rect class="cls-13" x="1.35" y="1.81" width="81.17" height="16.62"/></g></g></g><g class="cls-14"><g class="cls-15"><g class="cls-16"><rect class="cls-17" x="47.92" y="19.21" width="3.92" height="3.92" transform="translate(-2.96 9.16) rotate(-10.19)"/></g></g></g><g class="cls-14"><g class="cls-18"><g class="cls-19"><rect class="cls-20" x="59.14" y="18.3" width="2.71" height="2.71"/></g></g></g><g class="cls-14"><g class="cls-21"><g class="cls-22"><rect class="cls-23" x="68.27" y="19.96" width="2.6" height="2.6"/></g></g></g><g class="cls-14"><g class="cls-24"><g class="cls-25"><rect class="cls-26" x="52.44" y="20.63" width="2.24" height="2.24" transform="translate(-3 9.82) rotate(-10.19)"/></g></g></g><g class="cls-14"><g class="cls-27"><g class="cls-28"><rect class="cls-29" x="48.22" y="19.21" width="2.48" height="2.48" transform="translate(-2.84 9.07) rotate(-10.19)"/></g></g></g><g class="cls-14"><g class="cls-30"><g class="cls-31"><rect class="cls-32" x="38.81" y="16.93" width="3.21" height="3.21" transform="translate(-2.64 7.44) rotate(-10.19)"/></g></g></g><g class="cls-14"><g class="cls-33"><g class="cls-34"><rect class="cls-35" x="34.78" y="19.55" width="3.41" height="3.41" transform="translate(-3.19 6.79) rotate(-10.19)"/></g></g></g><g class="cls-14"><g class="cls-36"><g class="cls-37"><rect class="cls-38" x="29.3" y="16.27" width="5" height="5"/></g></g></g><g class="cls-14"><g class="cls-39"><g class="cls-40"><rect class="cls-41" x="47.88" y="17.22" width="1.51" height="1.51"/></g></g></g><g class="cls-14"><g class="cls-42"><g class="cls-43"><rect class="cls-44" x="28.88" y="15.6" width="1.84" height="1.84"/></g></g></g><g class="cls-14"><g class="cls-45"><g class="cls-46"><rect class="cls-47" x="21.52" y="14.57" width="1.31" height="1.31"/></g></g></g><g class="cls-14"><g class="cls-48"><g class="cls-49"><rect class="cls-50" x="50.7" y="18.62" width="1.7" height="1.7"/></g></g></g><g class="cls-14"><g class="cls-51"><g class="cls-52"><rect class="cls-53" x="53.3" y="15.64" width="1.8" height="1.8"/></g></g></g><g class="cls-14"><g class="cls-54"><g class="cls-55"><rect class="cls-56" x="75.6" y="17.04" width="2.38" height="2.38"/></g></g></g><g class="cls-14"><g class="cls-57"><g class="cls-58"><rect class="cls-59" x="60.13" y="20.45" width="1.9" height="1.89"/></g></g></g><g class="cls-14"><g class="cls-60"><g class="cls-61"><rect class="cls-62" x="66.27" y="18.27" width="1.19" height="1.19"/></g></g></g><g class="cls-14"><g class="cls-63"><g class="cls-64"><rect class="cls-65" x="43.5" y="17.43" width="2.82" height="2.82" transform="translate(-2.63 8.24) rotate(-10.19)"/></g></g></g><g class="cls-14"><g class="cls-66"><g class="cls-67"><rect class="cls-68" x="39.91" y="17.69" width="1.9" height="1.9" transform="translate(-2.65 7.52) rotate(-10.19)"/></g></g></g><g class="cls-14"><g class="cls-69"><g class="cls-70"><rect class="cls-71" x="59.2" y="15.67" width="2.58" height="2.58"/></g></g></g><g class="cls-14"><g class="cls-72"><g class="cls-73"><rect class="cls-74" x="52.92" y="17.86" width="2.98" height="2.98"/></g></g></g><g class="cls-14"><g class="cls-75"><g class="cls-76"><rect class="cls-77" x="63.56" y="18.68" width="2.69" height="2.69"/></g></g></g><g class="cls-14"><g class="cls-78"><g class="cls-79"><rect class="cls-80" x="17.37" y="18.35" width="2.43" height="2.43"/></g></g></g><g class="cls-14"><g class="cls-81"><g class="cls-82"><rect class="cls-83" x="9.88" y="19.68" width="2.38" height="2.38"/></g></g></g><g class="cls-14"><g class="cls-84"><g class="cls-85"><rect class="cls-86" x="21.24" y="14.69" width="2.37" height="2.36"/></g></g></g><g class="cls-14"><g class="cls-87"><g class="cls-88"><rect class="cls-89" x="24.85" y="13.12" width="1.73" height="1.73"/></g></g></g><g class="cls-14"><g class="cls-90"><g class="cls-91"><rect class="cls-92" x="39.53" y="18.66" width="1.07" height="1.07"/></g></g></g><g class="cls-14"><g class="cls-93"><g class="cls-94"><rect class="cls-95" x="13.88" y="13.7" width="1.44" height="1.44"/></g></g></g><g class="cls-14"><g class="cls-96"><g class="cls-97"><rect class="cls-98" x="38.8" y="20.57" width="1.4" height="1.4"/></g></g></g><g class="cls-14"><g class="cls-99"><g class="cls-100"><rect class="cls-101" x="2.88" y="12.55" width="2.22" height="2.22"/></g></g></g><g class="cls-14"><g class="cls-102"><g class="cls-103"><rect class="cls-104" x="52.11" y="14.75" width="1.05" height="1.05"/></g></g></g><g class="cls-14"><g class="cls-105"><g class="cls-106"><rect class="cls-107" x="24.02" y="18.87" width="2.2" height="2.2"/></g></g></g><g class="cls-14"><g class="cls-108"><g class="cls-109"><rect class="cls-110" x="45.22" y="21.43" width="1.24" height="1.24"/></g></g></g><g class="cls-14"><g class="cls-111"><g class="cls-112"><rect class="cls-113" x="44.35" y="12.21" width="2.99" height="2.99"/></g></g></g><g class="cls-14"><g class="cls-114"><g class="cls-115"><rect class="cls-116" x="72.56" y="17.25" width="1.26" height="1.26"/></g></g></g><g class="cls-14"><g class="cls-117"><g class="cls-118"><rect class="cls-119" x="37.96" y="13.49" width="1.54" height="1.54"/></g></g></g><g class="cls-14"><g class="cls-120"><g class="cls-121"><rect class="cls-122" x="28.79" y="14.12" width="1.43" height="1.43"/></g></g></g><g class="cls-14"><g class="cls-123"><g class="cls-124"><rect class="cls-125" x="11.05" y="17.32" width="1.13" height="1.12"/></g></g></g><g class="cls-14"><g class="cls-126"><g class="cls-127"><rect class="cls-128" x="21.83" y="17.36" width="2.29" height="2.29"/></g></g></g><g class="cls-14"><g class="cls-129"><g class="cls-130"><rect class="cls-131" x="18.62" y="20.63" width="1.95" height="1.95"/></g></g></g><g class="cls-14"><g class="cls-132"><g class="cls-133"><rect class="cls-134" x="12.96" y="18.17" width="1.76" height="1.76"/></g></g></g><g class="cls-14"><g class="cls-135"><g class="cls-136"><rect class="cls-137" x="43.93" y="19.81" width="1.61" height="1.61"/></g></g></g><g class="cls-14"><g class="cls-138"><g class="cls-139"><rect class="cls-140" x="74.36" y="20.04" width="2.05" height="2.05"/></g></g></g><g class="cls-14"><g class="cls-141"><g class="cls-142"><rect class="cls-143" x="78.2" y="19.03" width="2.14" height="2.14"/></g></g></g><text class="cls-144" transform="translate(14.78 18.82)">Housee</text><g class="cls-145"><g class="cls-146"><rect class="cls-147" x="-1552.69" y="-917.46" width="1554.18" height="1036.12"/></g></g></g></g></svg>