<svg xmlns="http://www.w3.org/2000/svg" xmlns:xlink="http://www.w3.org/1999/xlink" viewBox="0 0 241.9 352.4"><defs><style>.cls-1,.cls-10{fill:none;}.cls-2{isolation:isolate;}.cls-3{clip-path:url(#clip-path);}.cls-4{opacity:0.28;mix-blend-mode:overlay;}.cls-15,.cls-5{fill:#fff;}.cls-6{fill:url(#linear-gradient);}.cls-7{fill:url(#linear-gradient-2);}.cls-8{clip-path:url(#clip-path-2);}.cls-9{fill:url(#linear-gradient-3);}.cls-10{stroke-linecap:round;stroke-linejoin:round;stroke-width:2px;stroke:url(#linear-gradient-4);}.cls-11{fill:url(#linear-gradient-5);}.cls-12{fill:url(#linear-gradient-6);}.cls-13{fill:url(#linear-gradient-7);}.cls-14{font-size:30px;fill:#f5cb16;font-family:Roboto-Regular, Roboto;}.cls-15{opacity:0.16;mix-blend-mode:hard-light;}.cls-16{fill:url(#linear-gradient-8);}</style><clipPath id="clip-path"><path class="cls-1" d="M-36.95,262.31V89.8a11.38,11.38,0,0,1,3.54-8.26,17.53,17.53,0,0,0,5.35-12.7V22.73A17.73,17.73,0,0,0-45.79,5h-201.3a17.73,17.73,0,0,0-17.74,17.73V68.84a17.54,17.54,0,0,0,5.36,12.7,11.38,11.38,0,0,1,3.54,8.26V262.31a11.38,11.38,0,0,1-3.54,8.26,17.54,17.54,0,0,0-5.36,12.7v46.1a17.74,17.74,0,0,0,17.74,17.74h201.3a17.73,17.73,0,0,0,17.73-17.74v-46.1a17.53,17.53,0,0,0-5.35-12.7A11.38,11.38,0,0,1-36.95,262.31Z"/></clipPath><linearGradient id="linear-gradient" x1="-20.38" y1="34.72" x2="262.28" y2="317.39" gradientUnits="userSpaceOnUse"><stop offset="0" stop-color="#fff"/><stop offset="0.5" stop-color="#e5e5e5"/><stop offset="1" stop-color="#c7c7c7"/></linearGradient><linearGradient id="linear-gradient-2" x1="120.95" y1="0.31" x2="120.95" y2="351.48" gradientUnits="userSpaceOnUse"><stop offset="0" stop-color="#f5cb16"/><stop offset="0.28" stop-color="#fef687"/><stop offset="0.34" stop-color="#f5e063"/><stop offset="0.42" stop-color="#ebc83c"/><stop offset="0.48" stop-color="#e5b924"/><stop offset="0.52" stop-color="#e3b31b"/><stop offset="0.65" stop-color="#f0d24e"/><stop offset="0.79" stop-color="#fff585"/><stop offset="0.87" stop-color="#fbe254"/><stop offset="0.96" stop-color="#f7d227"/><stop offset="1" stop-color="#f5cb16"/></linearGradient><clipPath id="clip-path-2"><path class="cls-1" d="M230.44,262.31V89.8A11.38,11.38,0,0,1,234,81.54a17.53,17.53,0,0,0,5.35-12.7V22.73A17.73,17.73,0,0,0,221.6,5H20.3A17.73,17.73,0,0,0,2.56,22.73V68.84a17.54,17.54,0,0,0,5.36,12.7,11.38,11.38,0,0,1,3.54,8.26V262.31a11.38,11.38,0,0,1-3.54,8.26,17.54,17.54,0,0,0-5.36,12.7v46.1A17.74,17.74,0,0,0,20.3,347.11H221.6a17.73,17.73,0,0,0,17.73-17.74v-46.1a17.53,17.53,0,0,0-5.35-12.7A11.38,11.38,0,0,1,230.44,262.31Z"/></clipPath><linearGradient id="linear-gradient-3" x1="-4.36" y1="50.75" x2="246.26" y2="301.36" gradientUnits="userSpaceOnUse"><stop offset="0" stop-color="#8c0f02"/><stop offset="1" stop-color="#ff1124"/></linearGradient><linearGradient id="linear-gradient-4" x1="-5.06" y1="50.04" x2="246.96" y2="302.07" gradientUnits="userSpaceOnUse"><stop offset="0" stop-color="#c7c7c7"/><stop offset="0.5" stop-color="#e5e5e5"/><stop offset="1" stop-color="#fff"/></linearGradient><linearGradient id="linear-gradient-5" x1="79.42" y1="33.22" x2="160.97" y2="33.22" xlink:href="#linear-gradient-3"/><linearGradient id="linear-gradient-6" x1="79.42" y1="41.64" x2="160.97" y2="41.64" xlink:href="#linear-gradient-3"/><linearGradient id="linear-gradient-7" x1="79.42" y1="41.64" x2="160.97" y2="41.64" xlink:href="#linear-gradient-3"/><linearGradient id="linear-gradient-8" x1="113.88" y1="-67.49" x2="364.49" y2="183.13" xlink:href="#linear-gradient"/></defs><g class="cls-2"><g id="Layer_1" data-name="Layer 1"><g class="cls-3"><g class="cls-4"><path class="cls-5" d="M3.23-.78A1.31,1.31,0,0,1,2,.56,1.36,1.36,0,0,1,.54-.76,1.35,1.35,0,0,1,1.94-2.1,1.31,1.31,0,0,1,3.23-.78Z"/><path class="cls-5" d="M.65,5.7A1.26,1.26,0,0,1,1.92,4.39,1.31,1.31,0,0,1,3.17,5.62a1.28,1.28,0,0,1-1.29,1.3A1.23,1.23,0,0,1,.65,5.7Z"/><path class="cls-5" d="M1.92,11.07A1.13,1.13,0,0,1,3,12.29a1.12,1.12,0,0,1-1.14,1.05,1.18,1.18,0,0,1-1.12-1.1A1.19,1.19,0,0,1,1.92,11.07Z"/><path class="cls-5" d="M8.41.36A1.11,1.11,0,0,1,7.33-.75,1.08,1.08,0,0,1,8.48-1.88,1.14,1.14,0,0,1,9.59-.79,1.17,1.17,0,0,1,8.41.36Z"/><path class="cls-5" d="M8.43,6.67a1.06,1.06,0,0,1-1-1,1.08,1.08,0,0,1,1-1,1,1,0,0,1,1,1A1,1,0,0,1,8.43,6.67Z"/><path class="cls-5" d="M1.9,17.76a1,1,0,0,1,1,1.06,1,1,0,0,1-1,.93,1,1,0,0,1,0-2Z"/><path class="cls-5" d="M9.32,12.25a.94.94,0,0,1-.92.84.9.9,0,0,1-.82-.92.89.89,0,0,1,.9-.84A.93.93,0,0,1,9.32,12.25Z"/><path class="cls-5" d="M15.82-.66a.85.85,0,0,1-1,.7.8.8,0,0,1-.65-.92.8.8,0,0,1,1-.7A.82.82,0,0,1,15.82-.66Z"/><path class="cls-5" d="M1.9,26a.77.77,0,0,1-.79-.81.78.78,0,0,1,.8-.8A.81.81,0,1,1,1.9,26Z"/><path class="cls-5" d="M15.68,5.86a2.27,2.27,0,0,1-.71.48c-.36.09-.79-.38-.66-.71A1.21,1.21,0,0,1,15,5C15.31,4.86,15.67,5.25,15.68,5.86Z"/><path class="cls-5" d="M9.44,18.68c-.45.36-.68.68-1,.75s-.64-.17-.7-.57.22-.84.59-.78A4.07,4.07,0,0,1,9.44,18.68Z"/><path class="cls-5" d="M2.75,31.66c-.38.31-.59.61-.8.61a.87.87,0,0,1-.59-.49.45.45,0,0,1,.49-.59C2.1,31.21,2.32,31.43,2.75,31.66Z"/><path class="cls-5" d="M15,11.51c.23.3.47.48.5.68a.43.43,0,0,1-.56.49.69.69,0,0,1-.43-.51C14.5,12,14.76,11.81,15,11.51Z"/><path class="cls-5" d="M8.5,24.54c.18.31.39.51.39.71s-.29.28-.45.42c-.15-.18-.38-.35-.42-.55S8.26,24.81,8.5,24.54Z"/><path class="cls-5" d="M15.23,18.7l-.36.26c0-.09-.14-.18-.13-.26a.35.35,0,0,1,.21-.2C15,18.49,15.09,18.6,15.23,18.7Z"/></g></g><path class="cls-6" d="M221.6,349.68H20.3A20.33,20.33,0,0,1,0,329.38V283.27a20.14,20.14,0,0,1,6.15-14.55,8.79,8.79,0,0,0,2.74-6.41V89.8a8.79,8.79,0,0,0-2.74-6.41A20.16,20.16,0,0,1,0,68.84V22.73A20.33,20.33,0,0,1,20.3,2.43H221.6a20.33,20.33,0,0,1,20.3,20.3V68.84a20.16,20.16,0,0,1-6.15,14.55A8.8,8.8,0,0,0,233,89.8V262.31a8.8,8.8,0,0,0,2.75,6.41,20.14,20.14,0,0,1,6.15,14.55v46.11A20.33,20.33,0,0,1,221.6,349.68ZM20.3,7.56A15.19,15.19,0,0,0,5.13,22.73V68.84A15,15,0,0,0,9.69,79.68,13.88,13.88,0,0,1,14,89.8V262.31a13.88,13.88,0,0,1-4.33,10.12,15,15,0,0,0-4.56,10.84v46.11A15.19,15.19,0,0,0,20.3,344.55H221.6a15.19,15.19,0,0,0,15.17-15.17V283.27a15,15,0,0,0-4.56-10.84,13.88,13.88,0,0,1-4.33-10.12V89.8a13.88,13.88,0,0,1,4.33-10.12,15,15,0,0,0,4.56-10.84V22.73A15.19,15.19,0,0,0,221.6,7.56Z"/><path class="cls-7" d="M230.44,262.31V89.8A11.38,11.38,0,0,1,234,81.54a17.53,17.53,0,0,0,5.35-12.7V22.73A17.73,17.73,0,0,0,221.6,5H20.3A17.73,17.73,0,0,0,2.56,22.73V68.84a17.54,17.54,0,0,0,5.36,12.7,11.38,11.38,0,0,1,3.54,8.26V262.31a11.38,11.38,0,0,1-3.54,8.26,17.54,17.54,0,0,0-5.36,12.7v46.1A17.74,17.74,0,0,0,20.3,347.11H221.6a17.73,17.73,0,0,0,17.73-17.74v-46.1a17.53,17.53,0,0,0-5.35-12.7A11.38,11.38,0,0,1,230.44,262.31Z"/><g class="cls-8"><g class="cls-4"><path class="cls-5" d="M181.07-.75A2.77,2.77,0,0,1,178.29,2a2.83,2.83,0,0,1-2.76-2.81,2.8,2.8,0,0,1,2.81-2.76A2.75,2.75,0,0,1,181.07-.75Z"/><path class="cls-5" d="M171.92-3.54a2.73,2.73,0,0,1,2.71,2.81A2.77,2.77,0,0,1,171.84,2a2.82,2.82,0,0,1-2.73-2.82A2.8,2.8,0,0,1,171.92-3.54Z"/><path class="cls-5" d="M182.13-.81a2.69,2.69,0,0,1,2.81-2.7,2.76,2.76,0,0,1,2.7,2.72A2.81,2.81,0,0,1,184.85,2,2.73,2.73,0,0,1,182.13-.81Z"/><path class="cls-5" d="M165.34,2a2.7,2.7,0,0,1-2.72-2.79,2.67,2.67,0,0,1,2.72-2.66,2.74,2.74,0,0,1,2.75,2.78A2.76,2.76,0,0,1,165.34,2Z"/><path class="cls-5" d="M194.13-.76a2.68,2.68,0,0,1-2.67,2.7,2.73,2.73,0,0,1-2.79-2.72,2.73,2.73,0,0,1,2.69-2.7A2.68,2.68,0,0,1,194.13-.76Z"/><path class="cls-5" d="M195.16-.78a2.67,2.67,0,0,1,2.7-2.67,2.67,2.67,0,0,1,2.67,2.69,2.65,2.65,0,0,1-2.69,2.66A2.65,2.65,0,0,1,195.16-.78Z"/><path class="cls-5" d="M161.58-.67A2.64,2.64,0,0,1,158.8,1.9a2.66,2.66,0,0,1-2.58-2.78A2.67,2.67,0,0,1,159-3.45,2.66,2.66,0,0,1,161.58-.67Z"/><path class="cls-5" d="M178.31,3a2.65,2.65,0,1,1,0,5.29,2.6,2.6,0,0,1-2.64-2.68A2.62,2.62,0,0,1,178.31,3Z"/><path class="cls-5" d="M171.87,3a2.69,2.69,0,0,1,2.68,2.69,2.66,2.66,0,0,1-2.65,2.6,2.6,2.6,0,0,1-2.64-2.68A2.61,2.61,0,0,1,171.87,3Z"/><path class="cls-5" d="M187.49,5.73a2.6,2.6,0,0,1-2.66,2.57,2.67,2.67,0,0,1-2.62-2.65A2.69,2.69,0,0,1,185,3,2.62,2.62,0,0,1,187.49,5.73Z"/><path class="cls-5" d="M152.31,1.86a2.61,2.61,0,0,1-2.57-2.65,2.62,2.62,0,0,1,2.61-2.62A2.69,2.69,0,0,1,155-.69,2.69,2.69,0,0,1,152.31,1.86Z"/><path class="cls-5" d="M188.8,5.67A2.62,2.62,0,0,1,191.41,3a2.69,2.69,0,0,1,2.64,2.62,2.66,2.66,0,0,1-2.63,2.63A2.6,2.6,0,0,1,188.8,5.67Z"/><path class="cls-5" d="M168,5.66a2.6,2.6,0,0,1-2.61,2.62,2.66,2.66,0,0,1-2.64-2.62A2.69,2.69,0,0,1,165.33,3,2.62,2.62,0,0,1,168,5.66Z"/><path class="cls-5" d="M207-.76a2.6,2.6,0,0,1-2.62,2.61,2.67,2.67,0,0,1-2.63-2.63A2.68,2.68,0,0,1,204.4-3.4,2.62,2.62,0,0,1,207-.76Z"/><path class="cls-5" d="M161.49,5.62a2.58,2.58,0,1,1-2.57-2.56A2.63,2.63,0,0,1,161.49,5.62Z"/><path class="cls-5" d="M197.81,3.07a2.59,2.59,0,1,1-2.54,2.68A2.6,2.6,0,0,1,197.81,3.07Z"/><path class="cls-5" d="M148.47-.73a2.56,2.56,0,0,1-2.55,2.53,2.6,2.6,0,0,1-2.56-2.55A2.61,2.61,0,0,1,146-3.34,2.55,2.55,0,0,1,148.47-.73Z"/><path class="cls-5" d="M208.29-.83a2.53,2.53,0,0,1,2.59-2.49,2.58,2.58,0,0,1,2.5,2.61,2.6,2.6,0,0,1-2.61,2.5A2.55,2.55,0,0,1,208.29-.83Z"/><path class="cls-5" d="M154.87,5.66a2.5,2.5,0,0,1-2.54,2.53,2.57,2.57,0,0,1-2.51-2.59,2.53,2.53,0,0,1,2.51-2.45A2.47,2.47,0,0,1,154.87,5.66Z"/><path class="cls-5" d="M180.83,12.2a2.49,2.49,0,0,1-2.54,2.53,2.53,2.53,0,0,1,0-5.05A2.51,2.51,0,0,1,180.83,12.2Z"/><path class="cls-5" d="M184.82,9.68a2.58,2.58,0,0,1,2.58,2.54,2.55,2.55,0,0,1-2.49,2.5,2.49,2.49,0,0,1-2.55-2.41A2.53,2.53,0,0,1,184.82,9.68Z"/><path class="cls-5" d="M174.39,12.23a2.5,2.5,0,0,1-2.47,2.5,2.53,2.53,0,1,1-.07-5.05A2.51,2.51,0,0,1,174.39,12.23Z"/><path class="cls-5" d="M201.89,5.62a2.46,2.46,0,0,1,2.48-2.46,2.54,2.54,0,0,1,2.56,2.54,2.58,2.58,0,0,1-2.52,2.48A2.49,2.49,0,0,1,201.89,5.62Z"/><path class="cls-5" d="M162.85,12.21a2.51,2.51,0,0,1,2.46-2.51,2.51,2.51,0,1,1,0,5A2.49,2.49,0,0,1,162.85,12.21Z"/><path class="cls-5" d="M193.9,12.22a2.5,2.5,0,0,1-2.47,2.49,2.51,2.51,0,1,1,0-5A2.51,2.51,0,0,1,193.9,12.22Z"/><path class="cls-5" d="M139.38,1.68a2.43,2.43,0,0,1-2.47-2.45,2.44,2.44,0,0,1,2.47-2.46,2.46,2.46,0,0,1,2.48,2.46A2.45,2.45,0,0,1,139.38,1.68Z"/><path class="cls-5" d="M158.85,9.73a2.48,2.48,0,1,1-2.41,2.56A2.48,2.48,0,0,1,158.85,9.73Z"/><path class="cls-5" d="M145.89,3.21a2.45,2.45,0,1,1-2.42,2.51A2.44,2.44,0,0,1,145.89,3.21Z"/><path class="cls-5" d="M217.35-3.22a2.45,2.45,0,0,1,2.49,2.46,2.44,2.44,0,0,1-2.5,2.43,2.42,2.42,0,0,1-2.43-2.39A2.43,2.43,0,0,1,217.35-3.22Z"/><path class="cls-5" d="M195.4,12.26a2.45,2.45,0,1,1,4.9,0,2.45,2.45,0,0,1-4.9,0Z"/><path class="cls-5" d="M210.82,3.23a2.39,2.39,0,0,1,2.43,2.37,2.39,2.39,0,0,1-2.42,2.49,2.43,2.43,0,1,1,0-4.86Z"/><path class="cls-5" d="M175.93,18.78a2.4,2.4,0,0,1,2.37-2.43,2.41,2.41,0,1,1,0,4.81A2.39,2.39,0,0,1,175.93,18.78Z"/><path class="cls-5" d="M152.45,9.81a2.43,2.43,0,0,1,2.34,2.49,2.46,2.46,0,0,1-2.52,2.32,2.39,2.39,0,0,1-2.3-2.5A2.36,2.36,0,0,1,152.45,9.81Z"/><path class="cls-5" d="M204.38,9.82a2.4,2.4,0,0,1,0,4.79,2.4,2.4,0,1,1,0-4.79Z"/><path class="cls-5" d="M187.24,18.75a2.38,2.38,0,0,1-2.4,2.4,2.4,2.4,0,0,1,0-4.8A2.4,2.4,0,0,1,187.24,18.75Z"/><path class="cls-5" d="M169.51,18.74a2.4,2.4,0,0,1,2.42-2.39,2.47,2.47,0,0,1,2.36,2.36,2.44,2.44,0,0,1-2.39,2.44A2.38,2.38,0,0,1,169.51,18.74Z"/><path class="cls-5" d="M223.86,1.61a2.4,2.4,0,0,1-2.42-2.27,2.39,2.39,0,0,1,2.31-2.49,2.42,2.42,0,0,1,2.43,2.38A2.43,2.43,0,0,1,223.86,1.61Z"/><path class="cls-5" d="M217.38,8a2.38,2.38,0,1,1,2.36-2.33A2.39,2.39,0,0,1,217.38,8Z"/><path class="cls-5" d="M193.78,18.92a2.37,2.37,0,1,1-2.26-2.55A2.4,2.4,0,0,1,193.78,18.92Z"/><path class="cls-5" d="M165.35,16.37A2.38,2.38,0,1,1,163,18.69,2.4,2.4,0,0,1,165.35,16.37Z"/><path class="cls-5" d="M132.87-3.17a2.45,2.45,0,0,1,2.35,2.46,2.41,2.41,0,0,1-2.48,2.32,2.39,2.39,0,0,1-2.28-2.39A2.41,2.41,0,0,1,132.87-3.17Z"/><path class="cls-5" d="M141.75,5.66a2.39,2.39,0,0,1-2.4,2.39A2.43,2.43,0,0,1,137,5.72a2.44,2.44,0,0,1,2.36-2.45A2.4,2.4,0,0,1,141.75,5.66Z"/><path class="cls-5" d="M197.81,21.1a2.35,2.35,0,0,1,.06-4.69,2.35,2.35,0,0,1-.06,4.69Z"/><path class="cls-5" d="M158.9,21.1a2.35,2.35,0,0,1,0-4.69,2.35,2.35,0,0,1,0,4.69Z"/><path class="cls-5" d="M145.91,14.53a2.31,2.31,0,0,1-2.33-2.3,2.34,2.34,0,1,1,4.68,0A2.28,2.28,0,0,1,145.91,14.53Z"/><path class="cls-5" d="M210.85,9.89a2.32,2.32,0,1,1,0,4.63,2.32,2.32,0,1,1,0-4.63Z"/><path class="cls-5" d="M139.33,9.92a2.29,2.29,0,0,1,.15,4.57,2.29,2.29,0,0,1-.15-4.57Z"/><path class="cls-5" d="M135.1,5.72A2.26,2.26,0,0,1,132.83,8a2.33,2.33,0,0,1-2.3-2.35,2.3,2.3,0,0,1,2.3-2.21A2.23,2.23,0,0,1,135.1,5.72Z"/><path class="cls-5" d="M154.63,18.77A2.25,2.25,0,0,1,152.4,21a2.28,2.28,0,1,1,0-4.56A2.25,2.25,0,0,1,154.63,18.77Z"/><path class="cls-5" d="M204.46,16.5a2.26,2.26,0,0,1-.08,4.52,2.26,2.26,0,1,1,.08-4.52Z"/><path class="cls-5" d="M126.44-3a2.22,2.22,0,0,1,2.22,2.27,2.23,2.23,0,0,1-2.25,2.25,2.29,2.29,0,0,1-2.3-2.33A2.29,2.29,0,0,1,126.44-3Z"/><path class="cls-5" d="M226.06,5.61a2.23,2.23,0,0,1-2.18,2.31,2.26,2.26,0,1,1-.1-4.52A2.22,2.22,0,0,1,226.06,5.61Z"/><path class="cls-5" d="M184.81,27.42a2.24,2.24,0,1,1,.11-4.47,2.24,2.24,0,1,1-.11,4.47Z"/><path class="cls-5" d="M180.57,25.2a2.22,2.22,0,0,1-2.27,2.23,2.25,2.25,0,1,1,0-4.49A2.21,2.21,0,0,1,180.57,25.2Z"/><path class="cls-5" d="M171.93,23a2.24,2.24,0,1,1-.09,4.47,2.24,2.24,0,1,1,.09-4.47Z"/><path class="cls-5" d="M217.36,14.47a2.27,2.27,0,1,1,2.26-2.25A2.27,2.27,0,0,1,217.36,14.47Z"/><path class="cls-5" d="M230.39-3a2.23,2.23,0,0,1,2.22,2.27,2.23,2.23,0,0,1-2.3,2.19A2.22,2.22,0,0,1,228.1-.81,2.21,2.21,0,0,1,230.39-3Z"/><path class="cls-5" d="M165.31,27.41a2.23,2.23,0,1,1,2.27-2.23A2.21,2.21,0,0,1,165.31,27.41Z"/><path class="cls-5" d="M191.41,27.4a2.22,2.22,0,1,1,0-4.43,2.22,2.22,0,1,1,0,4.43Z"/><path class="cls-5" d="M146,21a2.22,2.22,0,1,1,0-4.43A2.22,2.22,0,1,1,146,21Z"/><path class="cls-5" d="M210.8,21a2.21,2.21,0,1,1,0-4.41,2.21,2.21,0,0,1,0,4.41Z"/><path class="cls-5" d="M158.94,27.38a2.2,2.2,0,1,1,0-4.39,2.2,2.2,0,0,1,0,4.39Z"/><path class="cls-5" d="M197.84,27.37a2.19,2.19,0,0,1-.05-4.37,2.19,2.19,0,1,1,.05,4.37Z"/><path class="cls-5" d="M128.6,5.64a2.21,2.21,0,0,1-2.17,2.2,2.15,2.15,0,0,1-2.19-2.16,2.15,2.15,0,0,1,2.14-2.2A2.23,2.23,0,0,1,128.6,5.64Z"/><path class="cls-5" d="M232.5,5.65a2.15,2.15,0,0,1-2.17,2.18,2.2,2.2,0,0,1-2.17-2.21,2.25,2.25,0,0,1,2.15-2.14A2.16,2.16,0,0,1,232.5,5.65Z"/><path class="cls-5" d="M130.67,12.17A2.14,2.14,0,0,1,132.88,10,2.19,2.19,0,0,1,135,12.25a2.23,2.23,0,0,1-2.24,2.14A2.16,2.16,0,0,1,130.67,12.17Z"/><path class="cls-5" d="M226,12.2a2.19,2.19,0,0,1-2.2,2.17,2.16,2.16,0,0,1,0-4.31A2.18,2.18,0,0,1,226,12.2Z"/><path class="cls-5" d="M152.35,23a2.17,2.17,0,1,1,0,4.33,2.17,2.17,0,0,1,0-4.33Z"/><path class="cls-5" d="M122-.8a2.15,2.15,0,0,1-2.14,2.19A2.21,2.21,0,0,1,117.68-.8a2.23,2.23,0,0,1,2.11-2.14A2.16,2.16,0,0,1,122-.8Z"/><path class="cls-5" d="M141.52,18.78a2.15,2.15,0,0,1-2.19,2.14,2.17,2.17,0,0,1,0-4.34A2.16,2.16,0,0,1,141.52,18.78Z"/><path class="cls-5" d="M206.53,25.2a2.15,2.15,0,0,1-2.1,2.14,2.16,2.16,0,1,1-.08-4.31A2.16,2.16,0,0,1,206.53,25.2Z"/><path class="cls-5" d="M239-.76a2.18,2.18,0,0,1-2.12,2.13,2.14,2.14,0,0,1-2.15-2.21,2.16,2.16,0,0,1,2.16-2.08A2.19,2.19,0,0,1,239-.76Z"/><path class="cls-5" d="M217.41,20.9a2.15,2.15,0,1,1,0-4.29,2.15,2.15,0,0,1,0,4.29Z"/><path class="cls-5" d="M178.34,33.83a2.1,2.1,0,1,1,2.09-2.12A2.08,2.08,0,0,1,178.34,33.83Z"/><path class="cls-5" d="M171.88,33.82a2.09,2.09,0,1,1,0-4.18,2.09,2.09,0,1,1,0,4.18Z"/><path class="cls-5" d="M185,29.64a2.09,2.09,0,1,1-.26,4.18,2.09,2.09,0,0,1,.26-4.18Z"/><path class="cls-5" d="M163.26,31.63a2.06,2.06,0,0,1,2.21-2,2.08,2.08,0,0,1-.2,4.16A2,2,0,0,1,163.26,31.63Z"/><path class="cls-5" d="M145.9,23.08a2.11,2.11,0,0,1,.1,4.21,2.11,2.11,0,1,1-.1-4.21Z"/><path class="cls-5" d="M128.46,12.16a2,2,0,0,1-2,2.12,2.08,2.08,0,1,1-.11-4.15A2,2,0,0,1,128.46,12.16Z"/><path class="cls-5" d="M193.47,31.75a2,2,0,0,1-2,2.06,2.08,2.08,0,1,1,0-4.15A2,2,0,0,1,193.47,31.75Z"/><path class="cls-5" d="M212.92,25.19a2.13,2.13,0,0,1-2.15,2.09,2.07,2.07,0,0,1-2-2.09,2.05,2.05,0,0,1,2-2.08A2.11,2.11,0,0,1,212.92,25.19Z"/><path class="cls-5" d="M230.34,10.14a2.07,2.07,0,1,1,0,4.13,2.07,2.07,0,0,1,0-4.13Z"/><path class="cls-5" d="M199.88,31.7a2,2,0,0,1-2,2.09,2.09,2.09,0,0,1-2.13-2.08,2.12,2.12,0,0,1,2.07-2A2,2,0,0,1,199.88,31.7Z"/><path class="cls-5" d="M161,31.74a2.09,2.09,0,0,1-2,2.05,2.06,2.06,0,1,1,0-4.12A2.11,2.11,0,0,1,161,31.74Z"/><path class="cls-5" d="M134.88,18.79a2,2,0,0,1-2,2,2.11,2.11,0,0,1-2.11-2.1,2.09,2.09,0,0,1,2.17-2A2,2,0,0,1,134.88,18.79Z"/><path class="cls-5" d="M119.88,7.74a2.07,2.07,0,0,1-2.08-2,2,2,0,0,1,2-2.15,2.1,2.1,0,0,1,2.11,2A2.12,2.12,0,0,1,119.88,7.74Z"/><path class="cls-5" d="M236.89,3.64a2,2,0,0,1,2,2,2,2,0,0,1-2,2,2.07,2.07,0,0,1-2.08-2A2.06,2.06,0,0,1,236.89,3.64Z"/><path class="cls-5" d="M225.83,18.77a2,2,0,0,1-2,2,2.08,2.08,0,0,1-2-2.05,2.06,2.06,0,0,1,2.08-2A2,2,0,0,1,225.83,18.77Z"/><path class="cls-5" d="M115.46-.72a2,2,0,0,1-2.09,2,2,2,0,0,1-2-2.06,2,2,0,0,1,2.07-2A2,2,0,0,1,115.46-.72Z"/><path class="cls-5" d="M139.43,23.19a2,2,0,1,1-2.06,2A2,2,0,0,1,139.43,23.19Z"/><path class="cls-5" d="M154.37,31.74a2,2,0,1,1-4-.07,2.06,2.06,0,0,1,2-2A2,2,0,0,1,154.37,31.74Z"/><path class="cls-5" d="M204.42,33.75a2,2,0,1,1,2-2.11A2,2,0,0,1,204.42,33.75Z"/><path class="cls-5" d="M243.3,1.21a2,2,0,0,1-2-2,2,2,0,0,1,2-2,2,2,0,0,1,2,2A2,2,0,0,1,243.3,1.21Z"/><path class="cls-5" d="M219.38,25.14a2,2,0,1,1-2.12-1.94A2,2,0,0,1,219.38,25.14Z"/><path class="cls-5" d="M121.8,12.19a2,2,0,0,1-1.93,2,2,2,0,0,1-2-1.95,2,2,0,0,1,2-2A1.94,1.94,0,0,1,121.8,12.19Z"/><path class="cls-5" d="M178.32,36.2a2,2,0,0,1,2,2,2,2,0,0,1-2,2,2,2,0,0,1-1.95-2A1.94,1.94,0,0,1,178.32,36.2Z"/><path class="cls-5" d="M115.36,5.67a1.93,1.93,0,0,1-2,1.94,2,2,0,0,1-1.93-1.9,2,2,0,0,1,2-2A1.93,1.93,0,0,1,115.36,5.67Z"/><path class="cls-5" d="M230.39,20.7a2,2,0,1,1,0-3.9,2,2,0,0,1,0,3.9Z"/><path class="cls-5" d="M126.38,20.71a1.92,1.92,0,0,1-1.93-2,1.94,1.94,0,0,1,2-1.95,2,2,0,1,1,0,3.92Z"/><path class="cls-5" d="M186.8,38.19a1.94,1.94,0,0,1-2,1.93,2,2,0,0,1-1.91-1.92,2,2,0,0,1,2-2A1.9,1.9,0,0,1,186.8,38.19Z"/><path class="cls-5" d="M132.78,23.24a2,2,0,0,1,2,1.92,2,2,0,0,1-2,2,1.95,1.95,0,0,1-.05-3.89Z"/><path class="cls-5" d="M236.94,14.17a2,2,0,0,1-2-1.95,1.9,1.9,0,0,1,1.84-2,2,2,0,0,1,2.06,1.87A2,2,0,0,1,236.94,14.17Z"/><path class="cls-5" d="M173.85,38.11a2,2,0,0,1-1.93,2,1.93,1.93,0,0,1-2-1.84,1.89,1.89,0,0,1,1.84-2.05A2,2,0,0,1,173.85,38.11Z"/><path class="cls-5" d="M147.89,31.74a2,2,0,0,1-2,1.95,2,2,0,0,1-1.91-2,1.9,1.9,0,0,1,1.92-1.87A2,2,0,0,1,147.89,31.74Z"/><path class="cls-5" d="M223.76,27.12a1.94,1.94,0,0,1,.08-3.87,1.94,1.94,0,1,1-.08,3.87Z"/><path class="cls-5" d="M243.33,7.59a1.91,1.91,0,0,1-1.91-1.87,1.94,1.94,0,0,1,1.91-2,2,2,0,0,1,1.94,2A2,2,0,0,1,243.33,7.59Z"/><path class="cls-5" d="M165.36,40.1a1.93,1.93,0,1,1-.05-3.86,1.89,1.89,0,0,1,1.95,1.84A1.92,1.92,0,0,1,165.36,40.1Z"/><path class="cls-5" d="M191.44,36.24a1.93,1.93,0,1,1-.05,3.86,1.92,1.92,0,0,1-1.9-2A1.89,1.89,0,0,1,191.44,36.24Z"/><path class="cls-5" d="M212.75,31.72a1.93,1.93,0,0,1-2,2,1.93,1.93,0,1,1,.08-3.86A1.89,1.89,0,0,1,212.75,31.72Z"/><path class="cls-5" d="M157,38.07a1.91,1.91,0,0,1,2.1-1.79,1.89,1.89,0,0,1,1.72,2,1.87,1.87,0,0,1-2,1.73A1.89,1.89,0,0,1,157,38.07Z"/><path class="cls-5" d="M108.77-.8a1.93,1.93,0,0,1-1.87,1.94A1.93,1.93,0,0,1,105-.74a1.93,1.93,0,0,1,1.86-1.94A1.93,1.93,0,0,1,108.77-.8Z"/><path class="cls-5" d="M197.87,36.29a1.88,1.88,0,1,1-.06,3.75,1.88,1.88,0,1,1,.06-3.75Z"/><path class="cls-5" d="M139.36,33.6a1.87,1.87,0,0,1,0-3.74,1.87,1.87,0,0,1,1.91,1.87A1.85,1.85,0,0,1,139.36,33.6Z"/><path class="cls-5" d="M217.35,29.87a1.84,1.84,0,0,1,1.87,1.88,1.82,1.82,0,0,1-1.78,1.84,1.86,1.86,0,1,1-.09-3.72Z"/><path class="cls-5" d="M204.4,36.32a1.85,1.85,0,1,1,0,3.69,1.85,1.85,0,0,1,0-3.69Z"/><path class="cls-5" d="M154.19,38.19A1.8,1.8,0,0,1,152.38,40a1.85,1.85,0,1,1,.06-3.69A1.8,1.8,0,0,1,154.19,38.19Z"/><path class="cls-5" d="M119.86,20.62a1.86,1.86,0,0,1,0-3.72,1.86,1.86,0,1,1,0,3.72Z"/><path class="cls-5" d="M126.45,27a1.89,1.89,0,0,1-1.9-1.77,1.86,1.86,0,0,1,1.74-1.91,1.8,1.8,0,0,1,1.93,1.81A1.83,1.83,0,0,1,126.45,27Z"/><path class="cls-5" d="M238.72,18.72A1.83,1.83,0,0,1,237,20.6,1.89,1.89,0,0,1,235,18.73a1.86,1.86,0,0,1,1.85-1.8A1.79,1.79,0,0,1,238.72,18.72Z"/><path class="cls-5" d="M113.46,14a1.79,1.79,0,0,1-1.86-1.76,1.81,1.81,0,0,1,1.84-1.91,1.84,1.84,0,0,1,0,3.67Z"/><path class="cls-5" d="M232.19,25.22A1.86,1.86,0,0,1,230.32,27a1.82,1.82,0,1,1,.07-3.63A1.83,1.83,0,0,1,232.19,25.22Z"/><path class="cls-5" d="M245.14,12.17A1.8,1.8,0,0,1,243.39,14a1.86,1.86,0,0,1-1.9-1.84,1.89,1.89,0,0,1,1.83-1.82A1.83,1.83,0,0,1,245.14,12.17Z"/><path class="cls-5" d="M132.86,33.54a1.81,1.81,0,1,1,0-3.62,1.82,1.82,0,0,1,1.76,1.76A1.8,1.8,0,0,1,132.86,33.54Z"/><path class="cls-5" d="M108.67,5.68a1.77,1.77,0,0,1-1.82,1.78A1.84,1.84,0,0,1,105,5.64a1.82,1.82,0,0,1,1.85-1.77A1.75,1.75,0,0,1,108.67,5.68Z"/><path class="cls-5" d="M147.72,38.21A1.8,1.8,0,0,1,145.86,40a1.85,1.85,0,0,1-1.74-1.79,1.87,1.87,0,0,1,1.82-1.83A1.82,1.82,0,0,1,147.72,38.21Z"/><path class="cls-5" d="M210.77,40A1.81,1.81,0,0,1,209,38.09a1.83,1.83,0,0,1,1.78-1.74,1.86,1.86,0,0,1,1.82,1.84A1.84,1.84,0,0,1,210.77,40Z"/><path class="cls-5" d="M225.58,31.68a1.81,1.81,0,0,1-1.78,1.85,1.8,1.8,0,1,1,1.78-1.85Z"/><path class="cls-5" d="M180.11,44.74a1.77,1.77,0,0,1-1.85,1.75,1.78,1.78,0,0,1,.06-3.56A1.77,1.77,0,0,1,180.11,44.74Z"/><path class="cls-5" d="M186.65,44.71A1.79,1.79,0,1,1,184.92,43,1.75,1.75,0,0,1,186.65,44.71Z"/><path class="cls-5" d="M173.66,44.66a1.78,1.78,0,0,1-3.56.1A1.77,1.77,0,0,1,171.78,43,1.75,1.75,0,0,1,173.66,44.66Z"/><path class="cls-5" d="M193.18,44.7a1.74,1.74,0,0,1-1.72,1.76,1.71,1.71,0,0,1-1.8-1.67A1.73,1.73,0,0,1,191.43,43,1.75,1.75,0,0,1,193.18,44.7Z"/><path class="cls-5" d="M165.35,46.46a1.75,1.75,0,1,1,1.75-1.74A1.74,1.74,0,0,1,165.35,46.46Z"/><path class="cls-5" d="M100.42-2.51A1.76,1.76,0,0,1,102.19-.8,1.75,1.75,0,0,1,100.48,1a1.71,1.71,0,0,1-1.76-1.7A1.72,1.72,0,0,1,100.42-2.51Z"/><path class="cls-5" d="M158.93,46.44a1.73,1.73,0,1,1-.06-3.46,1.73,1.73,0,0,1,.06,3.46Z"/><path class="cls-5" d="M199.59,44.75a1.74,1.74,0,0,1-1.78,1.69,1.73,1.73,0,0,1,.08-3.46A1.76,1.76,0,0,1,199.59,44.75Z"/><path class="cls-5" d="M118.11,25.18a1.77,1.77,0,0,1,1.78-1.72,1.71,1.71,0,0,1,1.67,1.79,1.68,1.68,0,0,1-1.69,1.65A1.75,1.75,0,0,1,118.11,25.18Z"/><path class="cls-5" d="M113.4,20.47a1.72,1.72,0,1,1,.09-3.44,1.72,1.72,0,0,1-.09,3.44Z"/><path class="cls-5" d="M236.89,23.47a1.72,1.72,0,1,1,0,3.43,1.72,1.72,0,0,1,0-3.43Z"/><path class="cls-5" d="M243.36,20.46a1.69,1.69,0,0,1-1.72-1.62,1.7,1.7,0,0,1,1.67-1.8,1.76,1.76,0,0,1,1.74,1.75A1.75,1.75,0,0,1,243.36,20.46Z"/><path class="cls-5" d="M152.39,46.41a1.7,1.7,0,0,1-.12-3.4,1.7,1.7,0,1,1,.12,3.4Z"/><path class="cls-5" d="M141.08,38.22a1.69,1.69,0,0,1-1.78,1.67,1.77,1.77,0,0,1-1.66-1.71,1.75,1.75,0,0,1,1.76-1.72A1.67,1.67,0,0,1,141.08,38.22Z"/><path class="cls-5" d="M219.11,38.11a1.79,1.79,0,0,1-1.71,1.79,1.72,1.72,0,0,1-1.73-1.62,1.67,1.67,0,0,1,1.62-1.82A1.76,1.76,0,0,1,219.11,38.11Z"/><path class="cls-5" d="M106.85,13.91a1.68,1.68,0,0,1-1.67-1.79,1.65,1.65,0,0,1,1.72-1.6,1.7,1.7,0,1,1-.05,3.39Z"/><path class="cls-5" d="M128.11,31.78a1.71,1.71,0,0,1-1.72,1.63,1.68,1.68,0,1,1,.09-3.35A1.72,1.72,0,0,1,128.11,31.78Z"/><path class="cls-5" d="M204.39,43a1.7,1.7,0,0,1,1.67,1.69,1.68,1.68,0,0,1-1.66,1.69,1.69,1.69,0,0,1,0-3.38Z"/><path class="cls-5" d="M230.33,30.08a1.66,1.66,0,1,1,0,3.31,1.66,1.66,0,1,1,0-3.31Z"/><path class="cls-5" d="M98.78,5.67a1.66,1.66,0,1,1,1.7,1.67A1.71,1.71,0,0,1,98.78,5.67Z"/><path class="cls-5" d="M147.53,44.82a1.62,1.62,0,0,1-1.65,1.53,1.64,1.64,0,1,1,.09-3.27A1.62,1.62,0,0,1,147.53,44.82Z"/><path class="cls-5" d="M132.83,39.79a1.63,1.63,0,0,1-1.65-1.68,1.66,1.66,0,0,1,1.64-1.58,1.61,1.61,0,0,1,1.64,1.69A1.59,1.59,0,0,1,132.83,39.79Z"/><path class="cls-5" d="M212.46,44.73a1.66,1.66,0,0,1-1.7,1.62,1.64,1.64,0,0,1-1.55-1.65,1.62,1.62,0,0,1,1.57-1.62A1.66,1.66,0,0,1,212.46,44.73Z"/><path class="cls-5" d="M179.91,51.18a1.59,1.59,0,0,1-1.6,1.58,1.61,1.61,0,1,1,.07-3.22A1.57,1.57,0,0,1,179.91,51.18Z"/><path class="cls-5" d="M223.77,36.54a1.62,1.62,0,0,1,.06,3.24,1.62,1.62,0,1,1-.06-3.24Z"/><path class="cls-5" d="M184.84,49.54a1.64,1.64,0,0,1,1.65,1.55,1.66,1.66,0,0,1-1.65,1.68,1.62,1.62,0,0,1-1.57-1.63A1.57,1.57,0,0,1,184.84,49.54Z"/><path class="cls-5" d="M173.48,51.18a1.6,1.6,0,0,1-1.61,1.58,1.61,1.61,0,1,1,.08-3.22A1.58,1.58,0,0,1,173.48,51.18Z"/><path class="cls-5" d="M113.47,26.78a1.57,1.57,0,0,1-1.63-1.54,1.55,1.55,0,0,1,1.53-1.63A1.6,1.6,0,0,1,115,25.14,1.62,1.62,0,0,1,113.47,26.78Z"/><path class="cls-5" d="M106.89,20.35a1.65,1.65,0,0,1-1.63-1.58,1.62,1.62,0,0,1,1.6-1.59,1.55,1.55,0,0,1,1.6,1.56A1.59,1.59,0,0,1,106.89,20.35Z"/><path class="cls-5" d="M165.34,49.57A1.6,1.6,0,0,1,167,51.14a1.64,1.64,0,0,1-1.61,1.6,1.57,1.57,0,0,1-1.58-1.59A1.54,1.54,0,0,1,165.34,49.57Z"/><path class="cls-5" d="M121.44,31.77a1.61,1.61,0,0,1-1.65,1.55,1.59,1.59,0,0,1,.08-3.18A1.63,1.63,0,0,1,121.44,31.77Z"/><path class="cls-5" d="M238.45,31.76a1.58,1.58,0,0,1-1.52,1.55,1.58,1.58,0,0,1-.06-3.15A1.58,1.58,0,0,1,238.45,31.76Z"/><path class="cls-5" d="M95.49-.83A1.6,1.6,0,0,1,93.92.79,1.55,1.55,0,0,1,92.33-.66a1.53,1.53,0,0,1,1.48-1.67A1.59,1.59,0,0,1,95.49-.83Z"/><path class="cls-5" d="M243.38,23.63a1.56,1.56,0,0,1,0,3.12,1.56,1.56,0,1,1,0-3.12Z"/><path class="cls-5" d="M191.28,52.7a1.56,1.56,0,1,1,.32-3.1,1.56,1.56,0,0,1-.32,3.1Z"/><path class="cls-5" d="M126.41,39.73A1.56,1.56,0,1,1,128,38.19,1.58,1.58,0,0,1,126.41,39.73Z"/><path class="cls-5" d="M100.44,13.77A1.56,1.56,0,1,1,102,12.24,1.59,1.59,0,0,1,100.44,13.77Z"/><path class="cls-5" d="M158.89,52.69a1.55,1.55,0,1,1,0-3.09,1.55,1.55,0,1,1,0,3.09Z"/><path class="cls-5" d="M141,44.72a1.58,1.58,0,0,1-1.64,1.54,1.55,1.55,0,1,1,.14-3.09A1.56,1.56,0,0,1,141,44.72Z"/><path class="cls-5" d="M217.39,46.24a1.53,1.53,0,1,1,1.53-1.52A1.51,1.51,0,0,1,217.39,46.24Z"/><path class="cls-5" d="M196.3,51.1a1.55,1.55,0,1,1,1.48,1.57A1.53,1.53,0,0,1,196.3,51.1Z"/><path class="cls-5" d="M231.86,38.13a1.54,1.54,0,0,1-1.48,1.58,1.54,1.54,0,0,1-.07-3.08A1.53,1.53,0,0,1,231.86,38.13Z"/><path class="cls-5" d="M152.4,49.64a1.5,1.5,0,1,1-.14,3,1.5,1.5,0,0,1,.14-3Z"/><path class="cls-5" d="M205.87,51.16a1.46,1.46,0,0,1-1.44,1.47,1.52,1.52,0,0,1-1.55-1.5,1.54,1.54,0,0,1,1.58-1.48A1.48,1.48,0,0,1,205.87,51.16Z"/><path class="cls-5" d="M93.93,4.18a1.48,1.48,0,0,1,0,3A1.52,1.52,0,0,1,92.4,5.59,1.55,1.55,0,0,1,93.93,4.18Z"/><path class="cls-5" d="M132.88,46.19a1.46,1.46,0,0,1-1.51-1.4,1.48,1.48,0,0,1,1.48-1.56,1.55,1.55,0,0,1,1.48,1.47A1.53,1.53,0,0,1,132.88,46.19Z"/><path class="cls-5" d="M106.84,26.65a1.45,1.45,0,0,1-1.41-1.5,1.48,1.48,0,0,1,1.48-1.44,1.53,1.53,0,0,1,1.43,1.51A1.5,1.5,0,0,1,106.84,26.65Z"/><path class="cls-5" d="M223.75,46.18a1.47,1.47,0,0,1-1.4-1.52,1.49,1.49,0,0,1,1.5-1.42,1.53,1.53,0,0,1,1.42,1.52A1.51,1.51,0,0,1,223.75,46.18Z"/><path class="cls-5" d="M144.49,51.1A1.48,1.48,0,0,1,146,49.69a1.5,1.5,0,0,1,1.37,1.45,1.44,1.44,0,1,1-2.88,0Z"/><path class="cls-5" d="M114.87,31.73a1.42,1.42,0,0,1-1.45,1.44,1.44,1.44,0,1,1,0-2.87A1.41,1.41,0,0,1,114.87,31.73Z"/><path class="cls-5" d="M212.26,51.2a1.44,1.44,0,0,1-2.88-.05,1.44,1.44,0,1,1,2.88.05Z"/><path class="cls-5" d="M101.85,18.79a1.44,1.44,0,0,1-1.39,1.4,1.44,1.44,0,0,1,0-2.87A1.44,1.44,0,0,1,101.85,18.79Z"/><path class="cls-5" d="M119.91,39.57a1.41,1.41,0,1,1-.1-2.81,1.41,1.41,0,1,1,.1,2.81Z"/><path class="cls-5" d="M236.89,39.55a1.38,1.38,0,0,1-1.4-1.36A1.41,1.41,0,0,1,237,36.77a1.38,1.38,0,0,1,1.33,1.43A1.35,1.35,0,0,1,236.89,39.55Z"/><path class="cls-5" d="M173.27,57.75a1.36,1.36,0,0,1-1.42,1.33,1.4,1.4,0,0,1-1.37-1.39A1.41,1.41,0,0,1,172,56.3,1.38,1.38,0,0,1,173.27,57.75Z"/><path class="cls-5" d="M179.7,57.67a1.36,1.36,0,0,1-1.34,1.41,1.39,1.39,0,1,1,0-2.78A1.36,1.36,0,0,1,179.7,57.67Z"/><path class="cls-5" d="M184.83,59.08a1.39,1.39,0,0,1,0-2.78,1.39,1.39,0,1,1,0,2.78Z"/><path class="cls-5" d="M92.55,12.11A1.36,1.36,0,0,1,94,10.84a1.42,1.42,0,0,1,1.25,1.41,1.4,1.4,0,0,1-1.44,1.32A1.35,1.35,0,0,1,92.55,12.11Z"/><path class="cls-5" d="M87.31-2.15A1.34,1.34,0,0,1,88.71-.8,1.37,1.37,0,0,1,87.38.62,1.44,1.44,0,0,1,86-.74,1.4,1.4,0,0,1,87.31-2.15Z"/><path class="cls-5" d="M165.29,59.07a1.38,1.38,0,0,1,.11-2.76,1.42,1.42,0,0,1,1.33,1.44A1.4,1.4,0,0,1,165.29,59.07Z"/><path class="cls-5" d="M192.77,57.73a1.35,1.35,0,0,1-1.4,1.34A1.4,1.4,0,0,1,190,57.65a1.41,1.41,0,0,1,1.43-1.34A1.35,1.35,0,0,1,192.77,57.73Z"/><path class="cls-5" d="M199.18,57.67A1.34,1.34,0,0,1,197.81,59a1.38,1.38,0,0,1-1.32-1.32,1.41,1.41,0,0,1,1.39-1.39A1.37,1.37,0,0,1,199.18,57.67Z"/><path class="cls-5" d="M157.57,57.73a1.35,1.35,0,0,1,1.36-1.39,1.41,1.41,0,0,1,1.33,1.32A1.38,1.38,0,0,1,158.88,59,1.34,1.34,0,0,1,157.57,57.73Z"/><path class="cls-5" d="M127.75,44.74a1.33,1.33,0,0,1-1.4,1.33A1.4,1.4,0,0,1,125,44.75a1.37,1.37,0,0,1,1.37-1.38A1.32,1.32,0,0,1,127.75,44.74Z"/><path class="cls-5" d="M139.37,52.51a1.34,1.34,0,0,1-1.34-1.4,1.31,1.31,0,0,1,1.31-1.31,1.38,1.38,0,0,1,1.42,1.33A1.42,1.42,0,0,1,139.37,52.51Z"/><path class="cls-5" d="M230.4,46a1.33,1.33,0,1,1-.1-2.65,1.35,1.35,0,0,1,1.41,1.33A1.36,1.36,0,0,1,230.4,46Z"/><path class="cls-5" d="M218.71,51.17a1.31,1.31,0,0,1-1.31,1.3,1.33,1.33,0,1,1,0-2.65A1.31,1.31,0,0,1,218.71,51.17Z"/><path class="cls-5" d="M151.07,57.68a1.31,1.31,0,0,1,1.3-1.3,1.32,1.32,0,0,1,0,2.63A1.32,1.32,0,0,1,151.07,57.68Z"/><path class="cls-5" d="M106.84,30.42a1.32,1.32,0,1,1-1.26,1.35A1.31,1.31,0,0,1,106.84,30.42Z"/><path class="cls-5" d="M100.44,26.46a1.28,1.28,0,0,1,0-2.55,1.28,1.28,0,1,1,0,2.55Z"/><path class="cls-5" d="M87.35,6.93a1.24,1.24,0,0,1-1.27-1.3,1.25,1.25,0,0,1,1.21-1.25,1.31,1.31,0,0,1,1.35,1.25A1.29,1.29,0,0,1,87.35,6.93Z"/><path class="cls-5" d="M114.69,38.17a1.3,1.3,0,0,1-1.3,1.29,1.33,1.33,0,0,1-1.26-1.35,1.32,1.32,0,0,1,1.26-1.23A1.27,1.27,0,0,1,114.69,38.17Z"/><path class="cls-5" d="M205.66,57.71A1.3,1.3,0,0,1,204.34,59a1.3,1.3,0,0,1,0-2.59A1.27,1.27,0,0,1,205.66,57.71Z"/><path class="cls-5" d="M222.56,51.18a1.24,1.24,0,0,1,1.27-1.3,1.31,1.31,0,0,1,1.25,1.23,1.28,1.28,0,0,1-1.29,1.29A1.22,1.22,0,0,1,222.56,51.18Z"/><path class="cls-5" d="M131.59,51.12a1.25,1.25,0,0,1,1.21-1.24,1.3,1.3,0,0,1,1.31,1.29,1.28,1.28,0,0,1-1.35,1.23A1.23,1.23,0,0,1,131.59,51.12Z"/><path class="cls-5" d="M95.13,18.73A1.24,1.24,0,0,1,94,20a1.3,1.3,0,0,1-1.32-1.28,1.32,1.32,0,0,1,1.26-1.22A1.27,1.27,0,0,1,95.13,18.73Z"/><path class="cls-5" d="M121.08,44.68A1.24,1.24,0,0,1,119.91,46a1.3,1.3,0,0,1-1.32-1.27,1.32,1.32,0,0,1,1.25-1.23A1.25,1.25,0,0,1,121.08,44.68Z"/><path class="cls-5" d="M238.13,44.73a1.26,1.26,0,0,1-1.27,1.21,1.23,1.23,0,0,1,0-2.46A1.29,1.29,0,0,1,238.13,44.73Z"/><path class="cls-5" d="M145.87,58.89A1.2,1.2,0,1,1,146,56.5a1.2,1.2,0,1,1-.17,2.39Z"/><path class="cls-5" d="M210.82,58.9a1.21,1.21,0,1,1,.07-2.41,1.21,1.21,0,0,1-.07,2.41Z"/><path class="cls-5" d="M178.32,63.05a1.19,1.19,0,0,1,0,2.38,1.19,1.19,0,1,1,0-2.38Z"/><path class="cls-5" d="M88.5,12.25a1.11,1.11,0,0,1-1.17,1.12,1.17,1.17,0,0,1-1.17-1.15A1.19,1.19,0,0,1,87.41,11,1.13,1.13,0,0,1,88.5,12.25Z"/><path class="cls-5" d="M126.39,52.31a1.22,1.22,0,0,1-1.16-1.17A1.18,1.18,0,0,1,126.4,50a1.13,1.13,0,0,1,1.14,1.15A1.16,1.16,0,0,1,126.39,52.31Z"/><path class="cls-5" d="M108,38.16a1.12,1.12,0,0,1-1.06,1.14,1.18,1.18,0,0,1-1.2-1.13,1.2,1.2,0,0,1,1.2-1.15A1.14,1.14,0,0,1,108,38.16Z"/><path class="cls-5" d="M80.92-1.92A1.12,1.12,0,0,1,82.05-.76,1.14,1.14,0,0,1,80.9.39,1.2,1.2,0,0,1,79.75-.78,1.17,1.17,0,0,1,80.92-1.92Z"/><path class="cls-5" d="M139.38,56.55a1.14,1.14,0,1,1,0,2.28,1.12,1.12,0,0,1-1.12-1.19A1.14,1.14,0,0,1,139.38,56.55Z"/><path class="cls-5" d="M100.39,30.6a1.14,1.14,0,0,1,.1,2.27,1.14,1.14,0,1,1-.1-2.27Z"/><path class="cls-5" d="M218.49,57.66a1.12,1.12,0,0,1-1,1.16,1.18,1.18,0,0,1-1.23-1.1,1.21,1.21,0,0,1,1.18-1.17A1.14,1.14,0,0,1,218.49,57.66Z"/><path class="cls-5" d="M171.89,63.09A1.12,1.12,0,0,1,173,64.25a1.14,1.14,0,0,1-1.15,1.15,1.2,1.2,0,0,1-1.15-1.17A1.17,1.17,0,0,1,171.89,63.09Z"/><path class="cls-5" d="M184.82,65.4a1.15,1.15,0,0,1-1.09-1.21,1.13,1.13,0,0,1,1.19-1.1,1.17,1.17,0,0,1,1.11,1.2A1.22,1.22,0,0,1,184.82,65.4Z"/><path class="cls-5" d="M230.35,50a1.13,1.13,0,0,1,1.14,1.17,1.15,1.15,0,0,1-1.13,1.07,1.11,1.11,0,0,1-1.13-1.18A1.09,1.09,0,0,1,230.35,50Z"/><path class="cls-5" d="M165.31,65.37a1.12,1.12,0,0,1-1.09-1.1,1.08,1.08,0,0,1,1.15-1.14,1.15,1.15,0,0,1,1.12,1.08A1.18,1.18,0,0,1,165.31,65.37Z"/><path class="cls-5" d="M191.43,63.13a1.12,1.12,0,1,1-.05,2.23,1.14,1.14,0,0,1-1.11-1.09A1.12,1.12,0,0,1,191.43,63.13Z"/><path class="cls-5" d="M160,64.29a1.1,1.1,0,0,1-1.13,1,1.07,1.07,0,0,1-1.08-1.19,1.06,1.06,0,0,1,1.17-1A1.11,1.11,0,0,1,160,64.29Z"/><path class="cls-5" d="M113.45,45.78a1.07,1.07,0,1,1-.06-2.14,1.07,1.07,0,0,1,1.11,1A1.05,1.05,0,0,1,113.45,45.78Z"/><path class="cls-5" d="M95,25.18a1.09,1.09,0,1,1-1.1-1.06A1.06,1.06,0,0,1,95,25.18Z"/><path class="cls-5" d="M198.93,64.24a1.09,1.09,0,0,1-2.17,0,1.09,1.09,0,0,1,2.17,0Z"/><path class="cls-5" d="M79.87,5.63a1,1,0,0,1,1-1A1.07,1.07,0,0,1,82,5.69a1,1,0,0,1-1.15,1A1,1,0,0,1,79.87,5.63Z"/><path class="cls-5" d="M133.88,57.73a1.08,1.08,0,0,1-1,1,1,1,0,0,1-1-1.12,1,1,0,0,1,1.08-.94A1.06,1.06,0,0,1,133.88,57.73Z"/><path class="cls-5" d="M88.4,18.75a1.06,1.06,0,0,1-1,1,1,1,0,0,1-1-1,1,1,0,0,1,1-1.09A1.08,1.08,0,0,1,88.4,18.75Z"/><path class="cls-5" d="M152.32,63.21a1,1,0,1,1,0,2.06,1,1,0,0,1,0-2.06Z"/><path class="cls-5" d="M205.41,64.3a1,1,0,0,1-1,1,1,1,0,1,1,.11-2.06A1,1,0,0,1,205.41,64.3Z"/><path class="cls-5" d="M119.84,52.16a1.06,1.06,0,0,1-1-1,1.07,1.07,0,0,1,1-1,1,1,0,0,1,0,2Z"/><path class="cls-5" d="M236.87,50.15a1,1,0,0,1,1,.91,1,1,0,0,1-1,1.08,1,1,0,0,1,0-2Z"/><path class="cls-5" d="M224.82,57.73a1,1,0,0,1-1.08,1,1,1,0,0,1,.07-2A1,1,0,0,1,224.82,57.73Z"/><path class="cls-5" d="M145.89,63.28a1,1,0,0,1,1,.9,1,1,0,0,1-.85,1,1,1,0,1,1-.12-1.92Z"/><path class="cls-5" d="M211.78,64.23a1,1,0,1,1-1.9,0,1,1,0,0,1,1-.92A1,1,0,0,1,211.78,64.23Z"/><path class="cls-5" d="M80.89,11.28A.93.93,0,0,1,81,13.13a.93.93,0,1,1-.09-1.85Z"/><path class="cls-5" d="M100.4,37.24a.91.91,0,0,1,.95.92.89.89,0,0,1-.82.92.93.93,0,0,1-1-.85A1,1,0,0,1,100.4,37.24Z"/><path class="cls-5" d="M93.93,32.63a.9.9,0,0,1-.92-.81.92.92,0,0,1,.86-1,1,1,0,0,1,.94.82A.94.94,0,0,1,93.93,32.63Z"/><path class="cls-5" d="M127.28,57.67a.88.88,0,0,1-.8.92.93.93,0,0,1-1-.87,1,1,0,0,1,.94-.94A.92.92,0,0,1,127.28,57.67Z"/><path class="cls-5" d="M75.28-.8a.94.94,0,0,1-.85.91.86.86,0,0,1-.94-.79.85.85,0,0,1,.87-1A.93.93,0,0,1,75.28-.8Z"/><path class="cls-5" d="M177.4,70.65a.91.91,0,0,1,.91-.85.85.85,0,0,1,.89,1,.86.86,0,0,1-.93.81A1,1,0,0,1,177.4,70.65Z"/><path class="cls-5" d="M106.93,45.61a1,1,0,0,1-1-.81.89.89,0,0,1,.9-1,.84.84,0,0,1,.89.85A.88.88,0,0,1,106.93,45.61Z"/><path class="cls-5" d="M230.33,58.57a.88.88,0,0,1-.84-.9.9.9,0,0,1,.88-.86.88.88,0,0,1,0,1.76Z"/><path class="cls-5" d="M172.74,70.78a.86.86,0,1,1-.75-1A.84.84,0,0,1,172.74,70.78Z"/><path class="cls-5" d="M140.25,64.27a.87.87,0,0,1-.9.82.85.85,0,1,1,.06-1.7A.86.86,0,0,1,140.25,64.27Z"/><path class="cls-5" d="M185.74,70.7a.87.87,0,0,1-.91.82.84.84,0,0,1-.83-.88.85.85,0,0,1,.9-.82A.86.86,0,0,1,185.74,70.7Z"/><path class="cls-5" d="M217.42,65.06a.78.78,0,0,1-.86-.72.8.8,0,0,1,.77-.92.82.82,0,1,1,.09,1.64Z"/><path class="cls-5" d="M87.35,26a.79.79,0,0,1-.82-.77.81.81,0,0,1,.83-.88.83.83,0,1,1,0,1.65Z"/><path class="cls-5" d="M114.24,51.16a.79.79,0,0,1-.78.8.83.83,0,0,1-.88-.83.85.85,0,0,1,.91-.81A.81.81,0,0,1,114.24,51.16Z"/><path class="cls-5" d="M166.16,70.71a.78.78,0,0,1-.81.78.83.83,0,0,1-.85-.86.84.84,0,0,1,.93-.78A.81.81,0,0,1,166.16,70.71Z"/><path class="cls-5" d="M192.25,70.73a.83.83,0,0,1-.95.75.78.78,0,0,1-.7-.87.79.79,0,0,1,.82-.76A.83.83,0,0,1,192.25,70.73Z"/><path class="cls-5" d="M159.69,70.64a.77.77,0,0,1-.76.83.8.8,0,1,1-.06-1.6A.78.78,0,0,1,159.69,70.64Z"/><path class="cls-5" d="M197.79,71.47a.8.8,0,0,1,.12-1.6.8.8,0,1,1-.12,1.6Z"/><path class="cls-5" d="M75.13,5.67a.77.77,0,0,1-1.54,0,.83.83,0,0,1,.76-.84A.8.8,0,0,1,75.13,5.67Z"/><path class="cls-5" d="M81.91,18.69c-.41.36-.63.67-.93.78s-.82-.3-.8-.72.3-.76.71-.71S81.45,18.38,81.91,18.69Z"/><path class="cls-5" d="M153.35,70.67c-.42.33-.66.64-1,.73s-.8-.36-.75-.78a.66.66,0,0,1,.75-.67C152.67,70,152.92,70.34,153.35,70.67Z"/><path class="cls-5" d="M133.82,64.3c-.45.31-.71.62-1,.66s-.69-.27-.71-.71.42-.87.8-.73S133.41,63.94,133.82,64.3Z"/><path class="cls-5" d="M120.59,57.77a.73.73,0,0,1-1.46-.12.68.68,0,0,1,.77-.67A.72.72,0,0,1,120.59,57.77Z"/><path class="cls-5" d="M224.48,64.29c0,.39-.41.77-.74.63a1.22,1.22,0,0,1-.63-.67c-.11-.34.32-.71.7-.71A.68.68,0,0,1,224.48,64.29Z"/><path class="cls-5" d="M205.39,70.69a4.41,4.41,0,0,1-1,.67c-.36.08-.67-.35-.64-.76s.31-.67.67-.6S204.93,70.36,205.39,70.69Z"/><path class="cls-5" d="M237.57,57.75c0,.41-.39.75-.75.6a1.16,1.16,0,0,1-.61-.66c-.1-.35.33-.7.71-.69A.68.68,0,0,1,237.57,57.75Z"/><path class="cls-5" d="M94.81,38.12c-.38.32-.59.61-.86.68s-.63-.16-.7-.55.27-.82.64-.73A3.65,3.65,0,0,1,94.81,38.12Z"/><path class="cls-5" d="M88.25,31.72c-.43.31-.66.59-.92.62a.52.52,0,0,1-.57-.65c0-.22.36-.55.55-.55S87.81,31.43,88.25,31.72Z"/><path class="cls-5" d="M101.1,44.89c-.16.12-.38.4-.65.45a.57.57,0,0,1-.67-.61.6.6,0,0,1,.64-.65C100.83,44.07,101.06,44.28,101.1,44.89Z"/><path class="cls-5" d="M211,71.29c-.58-.05-.86-.29-.75-.67a.87.87,0,0,1,.59-.53.5.5,0,0,1,.58.64C211.36,71,211.1,71.15,211,71.29Z"/><path class="cls-5" d="M146.87,70.7c-.5.28-.77.54-1,.53a.76.76,0,0,1-.51-.58.77.77,0,0,1,.54-.54C146.14,70.11,146.39,70.39,146.87,70.7Z"/><path class="cls-5" d="M107.82,51.16c-.5.28-.76.55-1,.54a.78.78,0,0,1-.52-.56.8.8,0,0,1,.54-.56C107.08,50.58,107.33,50.85,107.82,51.16Z"/><path class="cls-5" d="M74.42,11.38c.24.41.51.66.47.85s-.36.37-.56.56c-.18-.21-.49-.4-.51-.61S74.11,11.76,74.42,11.38Z"/><path class="cls-5" d="M230.24,63.48c.3.32.54.46.6.66a.44.44,0,0,1-.44.61.71.71,0,0,1-.54-.41C229.84,64.12,230.05,63.87,230.24,63.48Z"/><path class="cls-5" d="M126.44,63.47c.22.37.46.6.46.82s-.32.33-.5.49c-.17-.2-.44-.38-.48-.6S126.17,63.81,126.44,63.47Z"/><path class="cls-5" d="M80.89,26c-.24-.37-.51-.61-.47-.75s.35-.37.55-.55c.16.18.47.37.46.53S81.15,25.6,80.89,26Z"/><path class="cls-5" d="M140.09,70.65c-.35.24-.54.46-.74.47s-.4-.27-.4-.43.23-.47.36-.47S139.72,70.43,140.09,70.65Z"/><path class="cls-5" d="M217.29,70c.25.27.52.44.5.57s-.26.38-.4.56c-.16-.13-.46-.25-.46-.4S217.12,70.34,217.29,70Z"/><path class="cls-5" d="M113.42,57.05c.21.29.43.47.45.66s-.31.43-.4.41a.85.85,0,0,1-.47-.46C113,57.55,113.2,57.34,113.42,57.05Z"/><path class="cls-5" d="M172.46,77.28c-.24.17-.45.41-.56.37s-.33-.31-.49-.48c.19-.14.37-.35.58-.38S172.26,77.06,172.46,77.28Z"/><path class="cls-5" d="M178.89,77.28c-.24.17-.45.41-.56.37s-.33-.31-.49-.48c.19-.14.37-.35.58-.38S178.69,77.06,178.89,77.28Z"/><path class="cls-5" d="M184.88,76.58c.2.29.41.48.43.67s-.32.42-.41.39a.82.82,0,0,1-.46-.47C184.41,77.06,184.66,76.86,184.88,76.58Z"/><path class="cls-5" d="M165.3,77.78c-.16-.26-.36-.44-.34-.59s.26-.26.41-.4c.13.16.36.3.37.46S165.51,77.55,165.3,77.78Z"/><path class="cls-5" d="M191.45,76.65c.16.26.36.44.34.59s-.27.27-.41.4c-.13-.15-.36-.3-.37-.45S191.24,76.89,191.45,76.65Z"/><path class="cls-5" d="M68.41,5.75c-.27.11-.42.22-.56.21s-.28-.26-.26-.29.24-.31.37-.32S68.19,5.55,68.41,5.75Z"/><path class="cls-5" d="M120.32,64.29c-.24.12-.38.25-.53.25s-.29-.22-.27-.27.2-.33.33-.35S120.1,64.1,120.32,64.29Z"/><path class="cls-5" d="M93.93,45.19c-.18-.23-.38-.37-.37-.48s.22-.26.37-.31.27.17.27.26S94.06,45,93.93,45.19Z"/><path class="cls-5" d="M198.35,77.27c-.27.14-.44.3-.56.27a.53.53,0,0,1-.24-.42c0-.07.23-.25.31-.23S198.13,77.09,198.35,77.27Z"/><path class="cls-5" d="M74.51,18.39c.06.15.17.3.15.44s-.24.27-.29.24-.31-.21-.33-.35.12-.33.18-.49Z"/><path class="cls-5" d="M133.33,70.62c-.23.18-.34.33-.49.37s-.31-.16-.3-.23.13-.37.24-.4S133.07,70.49,133.33,70.62Z"/><path class="cls-5" d="M158.86,77.71c-.14-.25-.31-.42-.29-.54s.26-.23.41-.26.25.22.24.31S159,77.49,158.86,77.71Z"/><path class="cls-5" d="M100.39,50.72c.16.21.32.33.31.42s-.17.21-.3.27-.2-.14-.2-.21A1.75,1.75,0,0,1,100.39,50.72Z"/><path class="cls-5" d="M87.3,38.44c-.08-.09-.21-.21-.2-.24a1.19,1.19,0,0,1,.27-.28l.22.33Z"/></g><g class="cls-4"><path class="cls-5" d="M38.87,352.38A2.54,2.54,0,0,1,36.39,355a2.56,2.56,0,1,1-.1-5.11A2.52,2.52,0,0,1,38.87,352.38Z"/><path class="cls-5" d="M42.85,349.89a2.55,2.55,0,1,1,0,5.09,2.55,2.55,0,0,1,0-5.09Z"/><path class="cls-5" d="M32.43,352.45A2.53,2.53,0,0,1,29.86,355a2.58,2.58,0,0,1-2.5-2.51,2.55,2.55,0,0,1,2.54-2.57A2.49,2.49,0,0,1,32.43,352.45Z"/><path class="cls-5" d="M51.94,352.47A2.49,2.49,0,0,1,49.45,355a2.57,2.57,0,0,1-2.55-2.56,2.53,2.53,0,0,1,2.51-2.46A2.47,2.47,0,0,1,51.94,352.47Z"/><path class="cls-5" d="M20.86,352.38a2.47,2.47,0,0,1,2.5-2.45,2.54,2.54,0,0,1,2.54,2.55A2.57,2.57,0,0,1,23.37,355,2.49,2.49,0,0,1,20.86,352.38Z"/><path class="cls-5" d="M17,354.9a2.47,2.47,0,1,1,0-4.94,2.47,2.47,0,1,1,0,4.94Z"/><path class="cls-5" d="M58.34,352.35A2.48,2.48,0,1,1,55.79,350,2.45,2.45,0,0,1,58.34,352.35Z"/><path class="cls-5" d="M10.4,354.85a2.43,2.43,0,0,1,0-4.85,2.43,2.43,0,1,1,0,4.85Z"/><path class="cls-5" d="M64.82,352.47a2.37,2.37,0,0,1-2.41,2.37A2.42,2.42,0,0,1,60,352.45a2.45,2.45,0,0,1,2.5-2.44A2.4,2.4,0,0,1,64.82,352.47Z"/><path class="cls-5" d="M36.22,348.31A2.42,2.42,0,0,1,34,345.67a2.37,2.37,0,0,1,2.58-2.19A2.42,2.42,0,0,1,38.77,346,2.47,2.47,0,0,1,36.22,348.31Z"/><path class="cls-5" d="M27.52,345.87a2.35,2.35,0,0,1,2.4-2.38,2.43,2.43,0,0,1,2.42,2.41,2.46,2.46,0,0,1-2.44,2.4A2.39,2.39,0,0,1,27.52,345.87Z"/><path class="cls-5" d="M45.28,345.91a2.4,2.4,0,0,1-2.42,2.39,2.46,2.46,0,0,1-2.4-2.44,2.43,2.43,0,0,1,2.46-2.37A2.35,2.35,0,0,1,45.28,345.91Z"/><path class="cls-5" d="M23.35,343.51a2.38,2.38,0,0,1,.08,4.75,2.38,2.38,0,1,1-.08-4.75Z"/><path class="cls-5" d="M47.06,345.89a2.34,2.34,0,0,1,2.4-2.38,2.38,2.38,0,1,1,0,4.75A2.35,2.35,0,0,1,47.06,345.89Z"/><path class="cls-5" d="M3.91,354.81A2.38,2.38,0,0,1,4,350.05a2.38,2.38,0,0,1-.08,4.76Z"/><path class="cls-5" d="M71.2,352.43a2.36,2.36,0,1,1-2.33-2.37A2.39,2.39,0,0,1,71.2,352.43Z"/><path class="cls-5" d="M17,348.22a2.34,2.34,0,1,1,2.31-2.35A2.32,2.32,0,0,1,17,348.22Z"/><path class="cls-5" d="M55.88,348.21a2.33,2.33,0,1,1,2.32-2.32A2.32,2.32,0,0,1,55.88,348.21Z"/><path class="cls-5" d="M12.67,345.83a2.24,2.24,0,0,1-2.27,2.35,2.31,2.31,0,0,1-2.34-2.3,2.34,2.34,0,0,1,2.24-2.3A2.26,2.26,0,0,1,12.67,345.83Z"/><path class="cls-5" d="M60.14,345.93a2.26,2.26,0,0,1,2.28-2.35,2.3,2.3,0,1,1,0,4.6A2.26,2.26,0,0,1,60.14,345.93Z"/><path class="cls-5" d="M38.61,339.4a2.25,2.25,0,0,1-2.28,2.34,2.29,2.29,0,1,1,0-4.58A2.26,2.26,0,0,1,38.61,339.4Z"/><path class="cls-5" d="M29.89,341.73a2.28,2.28,0,1,1,.09-4.56,2.28,2.28,0,0,1-.09,4.56Z"/><path class="cls-5" d="M45.18,339.48a2.32,2.32,0,0,1-2.29,2.25,2.28,2.28,0,1,1,.06-4.56A2.33,2.33,0,0,1,45.18,339.48Z"/><path class="cls-5" d="M77.66,352.48a2.25,2.25,0,0,1-2.29,2.22,2.31,2.31,0,0,1-2.27-2.26,2.28,2.28,0,0,1,2.37-2.26A2.21,2.21,0,0,1,77.66,352.48Z"/><path class="cls-5" d="M25.62,339.4a2.29,2.29,0,0,1-2.21,2.31,2.25,2.25,0,0,1-2.29-2.21,2.28,2.28,0,0,1,2.19-2.32A2.31,2.31,0,0,1,25.62,339.4Z"/><path class="cls-5" d="M51.68,339.45a2.27,2.27,0,0,1-2.24,2.27,2.27,2.27,0,1,1,2.24-2.27Z"/><path class="cls-5" d="M6.19,345.87a2.26,2.26,0,0,1-2.25,2.27,2.26,2.26,0,0,1,0-4.51A2.28,2.28,0,0,1,6.19,345.87Z"/><path class="cls-5" d="M19.15,339.5a2.23,2.23,0,1,1-2.23-2.29A2.26,2.26,0,0,1,19.15,339.5Z"/><path class="cls-5" d="M68.86,348.13a2.25,2.25,0,0,1,0-4.49,2.25,2.25,0,0,1,0,4.49Z"/><path class="cls-5" d="M55.83,341.68a2.23,2.23,0,0,1,.08-4.46,2.23,2.23,0,0,1-.08,4.46Z"/><path class="cls-5" d="M84,352.44a2.21,2.21,0,0,1-2.2,2.17,2.18,2.18,0,0,1,0-4.36A2.22,2.22,0,0,1,84,352.44Z"/><path class="cls-5" d="M8.22,339.38a2.13,2.13,0,0,1,2.24-2.09,2.19,2.19,0,0,1,2.12,2.24,2.23,2.23,0,0,1-2.27,2.11A2.17,2.17,0,0,1,8.22,339.38Z"/><path class="cls-5" d="M62.4,337.3a2.12,2.12,0,0,1,2.17,2.17,2.14,2.14,0,0,1-2.09,2.15,2.2,2.2,0,0,1-2.25-2.13A2.17,2.17,0,0,1,62.4,337.3Z"/><path class="cls-5" d="M38.5,333a2.2,2.2,0,0,1-2.27,2.1,2.16,2.16,0,0,1,.22-4.31A2.21,2.21,0,0,1,38.5,333Z"/><path class="cls-5" d="M75.43,348a2.14,2.14,0,1,1-.07-4.28,2.16,2.16,0,0,1,2.21,2.16A2.19,2.19,0,0,1,75.43,348Z"/><path class="cls-5" d="M32.05,333a2.18,2.18,0,0,1-2.16,2.1,2.15,2.15,0,1,1,.09-4.29A2.19,2.19,0,0,1,32.05,333Z"/><path class="cls-5" d="M42.94,335.05A2.15,2.15,0,1,1,45,332.88,2.16,2.16,0,0,1,42.94,335.05Z"/><path class="cls-5" d="M23.31,330.77a2.14,2.14,0,1,1-2.06,2.16A2.15,2.15,0,0,1,23.31,330.77Z"/><path class="cls-5" d="M4,337.35a2.1,2.1,0,1,1-.06,4.2,2.1,2.1,0,1,1,.06-4.2Z"/><path class="cls-5" d="M71,339.44a2.09,2.09,0,0,1-2.1,2.1,2.09,2.09,0,1,1,0-4.18A2.09,2.09,0,0,1,71,339.44Z"/><path class="cls-5" d="M51.53,332.85a2.13,2.13,0,0,1-2,2.18A2.17,2.17,0,0,1,47.32,333a2.14,2.14,0,0,1,2.06-2.17A2.11,2.11,0,0,1,51.53,332.85Z"/><path class="cls-5" d="M19,332.93A2.13,2.13,0,0,1,16.85,335a2.08,2.08,0,0,1-2-2.12A2,2,0,0,1,17,330.83,2.09,2.09,0,0,1,19,332.93Z"/><path class="cls-5" d="M88.32,350.35a2.09,2.09,0,1,1,.12,4.17,2.09,2.09,0,0,1-.12-4.17Z"/><path class="cls-5" d="M81.82,343.81a2.07,2.07,0,0,1,0,4.14,2.07,2.07,0,1,1,0-4.14Z"/><path class="cls-5" d="M55.84,335a2.11,2.11,0,0,1-2.05-2.16,2.08,2.08,0,0,1,2.11-2,2,2,0,0,1,2,2.14A2.05,2.05,0,0,1,55.84,335Z"/><path class="cls-5" d="M77.42,339.48a2,2,0,0,1-2,2,2,2,0,1,1,0-4.08A2.05,2.05,0,0,1,77.42,339.48Z"/><path class="cls-5" d="M64.46,332.85a2,2,0,0,1-2,2.07,2,2,0,1,1-.11-4A2,2,0,0,1,64.46,332.85Z"/><path class="cls-5" d="M12.41,332.93a2,2,0,0,1-2.05,2,2,2,0,1,1,0-4A2,2,0,0,1,12.41,332.93Z"/><path class="cls-5" d="M36.36,324.49a2,2,0,1,1-.09,4,2,2,0,0,1,.09-4Z"/><path class="cls-5" d="M44.85,326.42a1.94,1.94,0,0,1-1.88,2,2,2,0,1,1-.11-3.94A1.94,1.94,0,0,1,44.85,326.42Z"/><path class="cls-5" d="M5.94,332.89a2,2,0,0,1-1.94,2,2,2,0,1,1,0-3.94A2,2,0,0,1,5.94,332.89Z"/><path class="cls-5" d="M29.86,324.5a2,2,0,1,1,.05,3.94,1.92,1.92,0,0,1-2-1.94A1.94,1.94,0,0,1,29.86,324.5Z"/><path class="cls-5" d="M90.32,345.91a2,2,0,0,1-2,1.95,2,2,0,0,1-1.94-2,2,2,0,0,1,2-1.94A1.94,1.94,0,0,1,90.32,345.91Z"/><path class="cls-5" d="M93,352.42a1.94,1.94,0,0,1,2-1.95,2,2,0,1,1,0,3.92A1.93,1.93,0,0,1,93,352.42Z"/><path class="cls-5" d="M70.79,332.87a1.91,1.91,0,0,1-1.91,2,2,2,0,0,1-2-1.92,2,2,0,0,1,1.94-2A1.93,1.93,0,0,1,70.79,332.87Z"/><path class="cls-5" d="M49.38,328.43a2,2,0,0,1,.11-3.92,2,2,0,1,1-.11,3.92Z"/><path class="cls-5" d="M25.31,326.49a1.92,1.92,0,0,1-2,1.94,2,2,0,0,1-2-2,2,2,0,0,1,2-1.94A1.93,1.93,0,0,1,25.31,326.49Z"/><path class="cls-5" d="M81.8,341.41a2,2,0,0,1-1.91-2,1.91,1.91,0,0,1,1.91-1.89,2,2,0,0,1,2,1.94A2,2,0,0,1,81.8,341.41Z"/><path class="cls-5" d="M18.84,326.44a1.92,1.92,0,0,1-1.94,2,1.93,1.93,0,1,1,.06-3.86A1.91,1.91,0,0,1,18.84,326.44Z"/><path class="cls-5" d="M55.83,324.54a1.93,1.93,0,1,1,.08,3.86A1.9,1.9,0,0,1,54,326.57,1.93,1.93,0,0,1,55.83,324.54Z"/><path class="cls-5" d="M77.29,332.85a1.9,1.9,0,1,1-2-1.86A1.94,1.94,0,0,1,77.29,332.85Z"/><path class="cls-5" d="M10.43,328.37a1.9,1.9,0,0,1-.1-3.79,1.9,1.9,0,0,1,.1,3.79Z"/><path class="cls-5" d="M64.3,326.46a1.93,1.93,0,0,1-1.87,1.91,1.9,1.9,0,0,1,0-3.8A1.93,1.93,0,0,1,64.3,326.46Z"/><path class="cls-5" d="M95,347.73a1.87,1.87,0,0,1-1.9-1.87A1.89,1.89,0,0,1,94.88,344a1.85,1.85,0,0,1,.07,3.7Z"/><path class="cls-5" d="M103.18,352.4a1.84,1.84,0,0,1-1.77,1.88,1.88,1.88,0,0,1-1.91-1.87,1.86,1.86,0,0,1,1.84-1.81A1.81,1.81,0,0,1,103.18,352.4Z"/><path class="cls-5" d="M90.23,339.48a1.87,1.87,0,0,1-1.85,1.81,1.84,1.84,0,1,1,.05-3.68A1.89,1.89,0,0,1,90.23,339.48Z"/><path class="cls-5" d="M38.15,319.94a1.79,1.79,0,0,1-1.79,1.81A1.86,1.86,0,0,1,34.5,320a1.89,1.89,0,0,1,1.88-1.88A1.82,1.82,0,0,1,38.15,319.94Z"/><path class="cls-5" d="M5.76,326.44A1.8,1.8,0,0,1,4,328.3a1.86,1.86,0,0,1-1.87-1.79,1.84,1.84,0,0,1,1.8-1.85A1.79,1.79,0,0,1,5.76,326.44Z"/><path class="cls-5" d="M29.92,318.1a1.82,1.82,0,0,1,1.79,1.83,1.8,1.8,0,0,1-1.81,1.81,1.86,1.86,0,0,1-1.82-1.82A1.89,1.89,0,0,1,29.92,318.1Z"/><path class="cls-5" d="M42.92,318.1a1.82,1.82,0,1,1-.06,3.64,1.82,1.82,0,0,1,.06-3.64Z"/><path class="cls-5" d="M81.82,334.7a1.8,1.8,0,1,1,0-3.59,1.8,1.8,0,1,1,0,3.59Z"/><path class="cls-5" d="M23.5,318.12a1.85,1.85,0,0,1,1.66,2,1.8,1.8,0,1,1-1.66-2Z"/><path class="cls-5" d="M49.48,318.11a1.81,1.81,0,1,1-.14,3.62,1.81,1.81,0,0,1,.14-3.62Z"/><path class="cls-5" d="M68.89,324.68a1.8,1.8,0,0,1,1.78,1.84,1.82,1.82,0,0,1-1.86,1.75,1.8,1.8,0,1,1,.08-3.59Z"/><path class="cls-5" d="M17,321.71a1.79,1.79,0,1,1,0-3.57,1.79,1.79,0,0,1,0,3.57Z"/><path class="cls-5" d="M57.63,320a1.8,1.8,0,0,1-1.79,1.73,1.77,1.77,0,0,1,.06-3.53A1.8,1.8,0,0,1,57.63,320Z"/><path class="cls-5" d="M75.38,324.74a1.73,1.73,0,1,1,0,3.46,1.73,1.73,0,0,1,0-3.46Z"/><path class="cls-5" d="M88.33,331.19a1.71,1.71,0,0,1,.08,3.42,1.74,1.74,0,0,1-1.76-1.73A1.77,1.77,0,0,1,88.33,331.19Z"/><path class="cls-5" d="M109.58,352.39a1.7,1.7,0,0,1-1.61,1.74,1.7,1.7,0,1,1-.08-3.4A1.69,1.69,0,0,1,109.58,352.39Z"/><path class="cls-5" d="M12.12,319.89a1.76,1.76,0,0,1-1.73,1.76,1.72,1.72,0,0,1-.06-3.43A1.74,1.74,0,0,1,12.12,319.89Z"/><path class="cls-5" d="M101.39,347.61a1.7,1.7,0,0,1-1.74-1.72,1.67,1.67,0,0,1,1.62-1.71,1.74,1.74,0,0,1,1.82,1.65A1.77,1.77,0,0,1,101.39,347.61Z"/><path class="cls-5" d="M94.9,341.18a1.7,1.7,0,0,1-1.68-1.77,1.67,1.67,0,0,1,1.67-1.67,1.72,1.72,0,1,1,0,3.44Z"/><path class="cls-5" d="M64.11,320a1.68,1.68,0,0,1-1.68,1.66,1.75,1.75,0,0,1-1.74-1.74,1.72,1.72,0,0,1,1.82-1.65A1.65,1.65,0,0,1,64.11,320Z"/><path class="cls-5" d="M83.48,326.49a1.66,1.66,0,1,1-1.67-1.69A1.69,1.69,0,0,1,83.48,326.49Z"/><path class="cls-5" d="M5.6,319.88A1.62,1.62,0,0,1,4,321.57a1.65,1.65,0,0,1-.08-3.29A1.62,1.62,0,0,1,5.6,319.88Z"/><path class="cls-5" d="M38,313.36A1.67,1.67,0,0,1,36.3,315a1.66,1.66,0,0,1,.07-3.32A1.67,1.67,0,0,1,38,313.36Z"/><path class="cls-5" d="M31.52,313.42a1.63,1.63,0,0,1-1.6,1.6,1.68,1.68,0,0,1-1.65-1.68,1.66,1.66,0,0,1,1.62-1.59A1.61,1.61,0,0,1,31.52,313.42Z"/><path class="cls-5" d="M42.85,311.75a1.66,1.66,0,0,1,1.68,1.64A1.68,1.68,0,0,1,42.94,315a1.64,1.64,0,0,1-1.66-1.54A1.62,1.62,0,0,1,42.85,311.75Z"/><path class="cls-5" d="M70.5,320a1.64,1.64,0,0,1-1.74,1.6,1.59,1.59,0,0,1-1.54-1.66,1.61,1.61,0,0,1,1.72-1.6A1.66,1.66,0,0,1,70.5,320Z"/><path class="cls-5" d="M49.46,311.77a1.58,1.58,0,0,1,1.57,1.6A1.61,1.61,0,0,1,49.47,315a1.62,1.62,0,1,1,0-3.23Z"/><path class="cls-5" d="M25,313.42A1.67,1.67,0,0,1,23.35,315a1.61,1.61,0,0,1-1.58-1.72,1.57,1.57,0,0,1,1.67-1.5A1.64,1.64,0,0,1,25,313.42Z"/><path class="cls-5" d="M102.93,339.47a1.57,1.57,0,0,1-1.6,1.58,1.6,1.6,0,1,1,0-3.2A1.58,1.58,0,0,1,102.93,339.47Z"/><path class="cls-5" d="M94.91,331.33a1.53,1.53,0,0,1,1.59,1.57,1.57,1.57,0,0,1-1.58,1.6,1.64,1.64,0,0,1-1.61-1.59A1.6,1.6,0,0,1,94.91,331.33Z"/><path class="cls-5" d="M107.85,344.29a1.64,1.64,0,0,1,1.64,1.57,1.62,1.62,0,0,1-1.59,1.61,1.59,1.59,0,0,1-1.57-1.5A1.61,1.61,0,0,1,107.85,344.29Z"/><path class="cls-5" d="M77,320a1.57,1.57,0,0,1-1.65,1.53,1.59,1.59,0,0,1,.11-3.18A1.6,1.6,0,0,1,77,320Z"/><path class="cls-5" d="M18.52,313.34a1.58,1.58,0,0,1-1.58,1.6,1.56,1.56,0,0,1-.08-3.12A1.58,1.58,0,0,1,18.52,313.34Z"/><path class="cls-5" d="M57.44,313.42a1.54,1.54,0,0,1-1.64,1.52,1.6,1.6,0,0,1-1.53-1.55,1.58,1.58,0,0,1,1.61-1.57A1.53,1.53,0,0,1,57.44,313.42Z"/><path class="cls-5" d="M114.35,354a1.53,1.53,0,1,1,1.52-1.52A1.52,1.52,0,0,1,114.35,354Z"/><path class="cls-5" d="M88.41,324.94a1.53,1.53,0,0,1,0,3.06,1.52,1.52,0,0,1-1.56-1.6A1.53,1.53,0,0,1,88.41,324.94Z"/><path class="cls-5" d="M62.45,311.86a1.52,1.52,0,1,1-.08,3,1.52,1.52,0,0,1-1.49-1.55A1.54,1.54,0,0,1,62.45,311.86Z"/><path class="cls-5" d="M10.37,311.86a1.53,1.53,0,0,1,1.55,1.5,1.51,1.51,0,0,1-1.51,1.53,1.52,1.52,0,1,1,0-3Z"/><path class="cls-5" d="M4,311.89a1.57,1.57,0,0,1,1.48,1.48,1.52,1.52,0,0,1-1.57,1.48,1.45,1.45,0,0,1-1.39-1.52A1.48,1.48,0,0,1,4,311.89Z"/><path class="cls-5" d="M81.79,321.39a1.44,1.44,0,0,1-1.42-1.47,1.42,1.42,0,0,1,1.44-1.45A1.49,1.49,0,0,1,83.32,320,1.51,1.51,0,0,1,81.79,321.39Z"/><path class="cls-5" d="M68.81,314.84a1.5,1.5,0,0,1-1.43-1.49,1.52,1.52,0,0,1,1.5-1.44,1.48,1.48,0,0,1,1.42,1.5A1.46,1.46,0,0,1,68.81,314.84Z"/><path class="cls-5" d="M101.31,334.37a1.47,1.47,0,0,1-1.41-1.51,1.5,1.5,0,0,1,1.5-1.43,1.53,1.53,0,0,1,1.42,1.52A1.5,1.5,0,0,1,101.31,334.37Z"/><path class="cls-5" d="M31.34,307.05a1.44,1.44,0,1,1-2.86-.27,1.44,1.44,0,0,1,2.86.27Z"/><path class="cls-5" d="M107.94,340.89a1.44,1.44,0,1,1-.09-2.88,1.44,1.44,0,1,1,.09,2.88Z"/><path class="cls-5" d="M44.33,307a1.47,1.47,0,0,1-1.49,1.43A1.46,1.46,0,1,1,44.33,307Z"/><path class="cls-5" d="M37.78,306.9a1.48,1.48,0,0,1-1.42,1.5,1.46,1.46,0,0,1-.1-2.91A1.49,1.49,0,0,1,37.78,306.9Z"/><path class="cls-5" d="M22,306.93a1.46,1.46,0,0,1,1.37-1.42,1.44,1.44,0,1,1,0,2.87A1.45,1.45,0,0,1,22,306.93Z"/><path class="cls-5" d="M96.33,326.43a1.45,1.45,0,0,1-1.42,1.48,1.44,1.44,0,0,1,0-2.87A1.43,1.43,0,0,1,96.33,326.43Z"/><path class="cls-5" d="M50.84,306.9a1.43,1.43,0,0,1-1.42,1.48,1.44,1.44,0,0,1,0-2.87A1.44,1.44,0,0,1,50.84,306.9Z"/><path class="cls-5" d="M115.76,345.84a1.4,1.4,0,0,1-1.32,1.44,1.37,1.37,0,0,1-1.51-1.35,1.38,1.38,0,0,1,1.3-1.45A1.42,1.42,0,0,1,115.76,345.84Z"/><path class="cls-5" d="M15.56,307a1.35,1.35,0,0,1,1.37-1.38,1.41,1.41,0,0,1,1.4,1.37,1.45,1.45,0,0,1-1.39,1.4A1.38,1.38,0,0,1,15.56,307Z"/><path class="cls-5" d="M75.45,312a1.35,1.35,0,0,1,1.31,1.44,1.37,1.37,0,0,1-1.43,1.33A1.44,1.44,0,0,1,74,313.32,1.41,1.41,0,0,1,75.45,312Z"/><path class="cls-5" d="M88.36,321.29A1.34,1.34,0,0,1,87,319.88a1.36,1.36,0,0,1,1.31-1.33,1.42,1.42,0,0,1,1.41,1.36A1.4,1.4,0,0,1,88.36,321.29Z"/><path class="cls-5" d="M55.87,305.57A1.34,1.34,0,0,1,57.23,307a1.37,1.37,0,0,1-1.36,1.39,1.44,1.44,0,0,1-1.4-1.39A1.41,1.41,0,0,1,55.87,305.57Z"/><path class="cls-5" d="M122.23,352.39a1.34,1.34,0,0,1-1.34,1.4,1.4,1.4,0,0,1-1.39-1.37,1.37,1.37,0,0,1,1.3-1.33A1.32,1.32,0,0,1,122.23,352.39Z"/><path class="cls-5" d="M11.7,306.9a1.29,1.29,0,0,1-1.24,1.35,1.31,1.31,0,1,1-.09-2.61A1.29,1.29,0,0,1,11.7,306.9Z"/><path class="cls-5" d="M62.45,308.25A1.28,1.28,0,0,1,61.1,307a1.33,1.33,0,1,1,2.65-.08A1.31,1.31,0,0,1,62.45,308.25Z"/><path class="cls-5" d="M107.86,334.19a1.3,1.3,0,0,1-1.27-1.33,1.31,1.31,0,0,1,1.35-1.25,1.29,1.29,0,0,1-.08,2.58Z"/><path class="cls-5" d="M81.79,312.1a1.28,1.28,0,1,1,0,2.55,1.24,1.24,0,0,1-1.25-1.21A1.26,1.26,0,0,1,81.79,312.1Z"/><path class="cls-5" d="M115.6,339.49a1.29,1.29,0,0,1-1.34,1.26,1.35,1.35,0,0,1-1.22-1.28,1.32,1.32,0,0,1,1.3-1.31A1.28,1.28,0,0,1,115.6,339.49Z"/><path class="cls-5" d="M101.31,327.74a1.24,1.24,0,0,1-1.22-1.34,1.26,1.26,0,0,1,1.26-1.21,1.28,1.28,0,1,1,0,2.55Z"/><path class="cls-5" d="M4,308.2A1.21,1.21,0,0,1,2.71,307a1.24,1.24,0,0,1,1.23-1.34,1.32,1.32,0,0,1,1.29,1.19A1.29,1.29,0,0,1,4,308.2Z"/><path class="cls-5" d="M70.08,307a1.24,1.24,0,0,1-1.21,1.24A1.29,1.29,0,0,1,67.59,307a1.3,1.3,0,0,1,1.28-1.31A1.26,1.26,0,0,1,70.08,307Z"/><path class="cls-5" d="M119.65,345.93a1.2,1.2,0,0,1,1.18-1.27,1.23,1.23,0,1,1,.1,2.46A1.22,1.22,0,0,1,119.65,345.93Z"/><path class="cls-5" d="M93.69,320a1.2,1.2,0,0,1,1.19-1.27,1.23,1.23,0,1,1,.09,2.46A1.22,1.22,0,0,1,93.69,320Z"/><path class="cls-5" d="M36.3,301.6a1.2,1.2,0,1,1,.14-2.4,1.2,1.2,0,0,1-.14,2.4Z"/><path class="cls-5" d="M42.87,299.21a1.19,1.19,0,0,1,1.22,1.22,1.2,1.2,0,1,1-1.22-1.22Z"/><path class="cls-5" d="M30,301.58a1.18,1.18,0,1,1-.1-2.36,1.18,1.18,0,1,1,.1,2.36Z"/><path class="cls-5" d="M89.56,313.36a1.23,1.23,0,0,1-1.13,1.21,1.19,1.19,0,1,1,0-2.38A1.22,1.22,0,0,1,89.56,313.36Z"/><path class="cls-5" d="M50.59,300.45a1.12,1.12,0,0,1-1.18,1.11,1.17,1.17,0,0,1-1.16-1.16,1.19,1.19,0,0,1,1.26-1.17A1.13,1.13,0,0,1,50.59,300.45Z"/><path class="cls-5" d="M23.37,299.23a1.18,1.18,0,0,1,1.17,1.15,1.17,1.17,0,0,1-1.24,1.18,1.17,1.17,0,0,1,.07-2.33Z"/><path class="cls-5" d="M16.93,299.25a1.15,1.15,0,1,1,0,2.3,1.15,1.15,0,0,1,0-2.3Z"/><path class="cls-5" d="M57,300.45a1.1,1.1,0,0,1-1.11,1.08,1.17,1.17,0,0,1-1.15-1.18,1.2,1.2,0,0,1,1.14-1.09A1.12,1.12,0,0,1,57,300.45Z"/><path class="cls-5" d="M76.53,306.91a1.15,1.15,0,0,1-1.1,1.2,1.22,1.22,0,0,1-1.2-1.12,1.17,1.17,0,0,1,1.12-1.19A1.12,1.12,0,0,1,76.53,306.91Z"/><path class="cls-5" d="M128.45,352.39a1.17,1.17,0,0,1-1.1,1.21,1.22,1.22,0,0,1-1.2-1.12,1.16,1.16,0,0,1,1.11-1.19A1.12,1.12,0,0,1,128.45,352.39Z"/><path class="cls-5" d="M114.28,331.79a1.15,1.15,0,0,1,1.2,1.12,1.17,1.17,0,0,1-1.09,1.12,1.11,1.11,0,0,1-1.17-1.12A1.09,1.09,0,0,1,114.28,331.79Z"/><path class="cls-5" d="M107.85,325.36a1.15,1.15,0,0,1,1.2,1.12A1.18,1.18,0,0,1,108,327.6a1.12,1.12,0,0,1-1.18-1.13A1.09,1.09,0,0,1,107.85,325.36Z"/><path class="cls-5" d="M101.34,318.83a1.1,1.1,0,0,1,0,2.19,1.1,1.1,0,0,1,0-2.19Z"/><path class="cls-5" d="M10.41,301.5a1.12,1.12,0,0,1-1.1-1.08,1.1,1.1,0,0,1,1-1.12,1.1,1.1,0,0,1,.05,2.2Z"/><path class="cls-5" d="M120.84,340.55a1.1,1.1,0,0,1,.08-2.2,1.14,1.14,0,0,1,1,1.14A1.11,1.11,0,0,1,120.84,340.55Z"/><path class="cls-5" d="M63.49,300.4a1.08,1.08,0,1,1-2.16,0,1.13,1.13,0,0,1,1.08-1.1A1.11,1.11,0,0,1,63.49,300.4Z"/><path class="cls-5" d="M82.89,306.9a1,1,0,0,1-1,1.08,1,1,0,0,1-1.15-1,1,1,0,0,1,.93-1.1A1.06,1.06,0,0,1,82.89,306.9Z"/><path class="cls-5" d="M96,313.42a1.07,1.07,0,0,1-1.06,1,1,1,0,1,1,.09-2.06A1.08,1.08,0,0,1,96,313.42Z"/><path class="cls-5" d="M68.85,301.39a1,1,0,0,1-1-1,1,1,0,0,1,1.07-1,1,1,0,0,1-.05,2Z"/><path class="cls-5" d="M127.3,344.9a1,1,0,0,1,1,1,1,1,0,0,1-1.05,1,1,1,0,0,1-1-.95A1,1,0,0,1,127.3,344.9Z"/><path class="cls-5" d="M4,299.41a1,1,0,0,1,1,1,1,1,0,0,1-1.09.94,1,1,0,0,1,.1-2Z"/><path class="cls-5" d="M89.31,306.89a1,1,0,0,1-.91,1,.91.91,0,0,1-.93-.82.9.9,0,0,1,.82-1A1,1,0,0,1,89.31,306.89Z"/><path class="cls-5" d="M43.83,293.93a.94.94,0,0,1-.92.95.89.89,0,0,1-.93-.82.92.92,0,0,1,.85-1A1,1,0,0,1,43.83,293.93Z"/><path class="cls-5" d="M36.33,293a.93.93,0,0,1,.07,1.85.93.93,0,0,1-1-.89A1,1,0,0,1,36.33,293Z"/><path class="cls-5" d="M30.81,294a.87.87,0,0,1-.93.92.94.94,0,0,1-.91-1,1,1,0,0,1,.9-.88A.89.89,0,0,1,30.81,294Z"/><path class="cls-5" d="M115.27,326.43a1,1,0,0,1-.92,1,.93.93,0,0,1-.92-.84.9.9,0,0,1,.84-1A1,1,0,0,1,115.27,326.43Z"/><path class="cls-5" d="M24.27,294a.93.93,0,0,1-.95.91.9.9,0,0,1-.84-.9.91.91,0,0,1,.83-.91A1,1,0,0,1,24.27,294Z"/><path class="cls-5" d="M75.38,301.3a.94.94,0,0,1-.9-1,1,1,0,0,1,.92-.84.92.92,0,0,1,.88,1A.9.9,0,0,1,75.38,301.3Z"/><path class="cls-5" d="M50.32,293.94a.9.9,0,0,1-.81.93.94.94,0,0,1-1-.88,1,1,0,0,1,.95-.93A.9.9,0,0,1,50.32,293.94Z"/><path class="cls-5" d="M108.81,319.93a.94.94,0,0,1-1,.9.91.91,0,0,1,0-1.81A1,1,0,0,1,108.81,319.93Z"/><path class="cls-5" d="M133.81,351.55a.94.94,0,0,1,1,.8.93.93,0,0,1-.92,1,.89.89,0,0,1,0-1.77Z"/><path class="cls-5" d="M121.76,332.9a.86.86,0,0,1-.84.9,1,1,0,0,1-1-.94.93.93,0,0,1,.93-.83A.83.83,0,0,1,121.76,332.9Z"/><path class="cls-5" d="M17.8,294a.93.93,0,0,1-.91.84.91.91,0,0,1-.82-.93.89.89,0,0,1,.9-.83A.91.91,0,0,1,17.8,294Z"/><path class="cls-5" d="M128.15,339.4a.83.83,0,1,1-1.66.1.84.84,0,0,1,.72-.88A.86.86,0,0,1,128.15,339.4Z"/><path class="cls-5" d="M55.86,293.12a.87.87,0,0,1,.85.89.89.89,0,0,1-.82.81.85.85,0,0,1,0-1.7Z"/><path class="cls-5" d="M102.19,313.49a.86.86,0,0,1-1,.7.81.81,0,0,1-.65-.92.8.8,0,0,1,1-.7A.84.84,0,0,1,102.19,313.49Z"/><path class="cls-5" d="M10.18,293.21c.65,0,1,.41,1,.82a.74.74,0,0,1-.78.69.68.68,0,0,1-.73-.81A2.22,2.22,0,0,1,10.18,293.21Z"/><path class="cls-5" d="M82.61,300.58a2.14,2.14,0,0,1-.71.54.67.67,0,0,1-.83-.7.68.68,0,0,1,.68-.76C82.2,299.61,82.59,299.94,82.61,300.58Z"/><path class="cls-5" d="M63.46,294c-.45.35-.69.65-1,.73a.72.72,0,0,1-.83-.72.71.71,0,0,1,.83-.73A4.63,4.63,0,0,1,63.46,294Z"/><path class="cls-5" d="M95.91,307c-.43.33-.67.63-1,.72s-.8-.37-.75-.78a.67.67,0,0,1,.76-.67C95.24,306.28,95.49,306.62,95.91,307Z"/><path class="cls-5" d="M134.6,345.9a.71.71,0,0,1-.77.7.69.69,0,0,1-.69-.75.67.67,0,0,1,.75-.68A.69.69,0,0,1,134.6,345.9Z"/><path class="cls-5" d="M4.63,294a.65.65,0,0,1-.7.7c-.39,0-.79-.38-.66-.72a1.2,1.2,0,0,1,.64-.63C4.28,293.17,4.62,293.54,4.63,294Z"/><path class="cls-5" d="M68.84,293c.31.42.58.64.66.91s-.33.74-.7.69-.66-.31-.58-.69S68.55,293.45,68.84,293Z"/><path class="cls-5" d="M115.24,319.87c-.37.32-.57.61-.84.69s-.64-.15-.71-.54.25-.82.62-.74A3.42,3.42,0,0,1,115.24,319.87Z"/><path class="cls-5" d="M121.83,326.53c-.47.28-.72.53-1,.56a.62.62,0,1,1,.06-1.23C121.17,325.92,121.39,326.19,121.83,326.53Z"/><path class="cls-5" d="M127.37,333.75c-.31-.35-.58-.53-.64-.76a.52.52,0,0,1,.54-.68c.42,0,.69.21.64.61C127.88,333.16,127.63,333.37,127.37,333.75Z"/><path class="cls-5" d="M108.76,313.34c-.36.29-.54.55-.78.61a.52.52,0,0,1-.69-.54c0-.41.23-.68.63-.61C108.16,312.84,108.37,313.08,108.76,313.34Z"/><path class="cls-5" d="M88.38,299.57c.26.4.54.63.51.83s-.34.39-.52.58c-.2-.19-.52-.37-.55-.59S88.1,300,88.38,299.57Z"/><path class="cls-5" d="M30.72,287.5c-.45.22-.69.43-.92.41s-.39-.36-.37-.54.33-.48.48-.46S30.33,287.2,30.72,287.5Z"/><path class="cls-5" d="M37.16,287.35c-.4.3-.6.55-.83.57s-.46-.28-.47-.46a.69.69,0,0,1,.38-.54C36.47,286.91,36.71,287.12,37.16,287.35Z"/><path class="cls-5" d="M102.17,306.87c-.4.3-.6.56-.82.58s-.46-.28-.48-.45.23-.54.38-.55S101.72,306.65,102.17,306.87Z"/><path class="cls-5" d="M141.22,352.36c-.4.3-.6.55-.82.57s-.46-.28-.48-.45.23-.53.38-.54S140.77,352.13,141.22,352.36Z"/><path class="cls-5" d="M42.92,288.18c-.26-.34-.52-.55-.54-.77s.29-.35.46-.53c.19.18.47.33.54.55S43.16,287.81,42.92,288.18Z"/><path class="cls-5" d="M75.33,294.66c-.2-.32-.44-.53-.42-.7a.74.74,0,0,1,.48-.48.43.43,0,0,1,.51.55C75.86,294.23,75.6,294.38,75.33,294.66Z"/><path class="cls-5" d="M50,287.38c-.21.22-.38.52-.49.49s-.38-.27-.57-.42c.17-.17.32-.41.52-.48S49.78,287.2,50,287.38Z"/><path class="cls-5" d="M24.07,287.4c-.35.23-.54.45-.74.47s-.39-.27-.4-.43.24-.47.36-.47S23.7,287.18,24.07,287.4Z"/><path class="cls-5" d="M133.91,340.09c-.24-.28-.5-.46-.47-.57a.79.79,0,0,1,.43-.5c.09,0,.43.23.43.37S134.1,339.78,133.91,340.09Z"/><path class="cls-5" d="M56.44,287.43c-.28.17-.44.34-.61.35s-.25-.2-.38-.32c.13-.14.25-.37.4-.4S56.17,287.25,56.44,287.43Z"/><path class="cls-5" d="M16.92,286.89l.43.55c-.15.12-.3.3-.48.34s-.33-.22-.32-.33S16.74,287.14,16.92,286.89Z"/><path class="cls-5" d="M81.88,294.46c-.18-.22-.33-.34-.36-.48s.16-.33.22-.32.38.13.42.25S82,294.2,81.88,294.46Z"/><path class="cls-5" d="M140.91,345.91c-.25.15-.42.33-.54.3a.59.59,0,0,1-.27-.4c0-.07.21-.27.3-.25S140.68,345.74,140.91,345.91Z"/><path class="cls-5" d="M62.88,287.58a1.76,1.76,0,0,1-.6.12c-.09,0-.22-.28-.19-.32s.27-.27.4-.26S62.69,287.35,62.88,287.58Z"/><path class="cls-5" d="M10.88,287.36c-.23.19-.34.34-.49.38s-.31-.16-.3-.23.13-.37.24-.4S10.62,287.24,10.88,287.36Z"/><path class="cls-5" d="M95.43,300.39c-.24.17-.39.36-.51.34s-.26-.23-.31-.38.19-.28.28-.27S95.18,300.23,95.43,300.39Z"/><path class="cls-5" d="M121.38,319.93c-.24.16-.4.35-.52.32s-.25-.23-.29-.38.2-.28.29-.27S121.14,319.77,121.38,319.93Z"/><path class="cls-5" d="M127.26,326.05c.16.21.32.33.31.42s-.18.21-.3.26-.2-.13-.2-.2A1.63,1.63,0,0,1,127.26,326.05Z"/><path class="cls-5" d="M114.74,313.33c-.2.16-.32.33-.41.31s-.21-.18-.25-.3.13-.22.2-.22A2,2,0,0,1,114.74,313.33Z"/></g></g><path class="cls-9" d="M213.73,21.67h-7.68L189.52,56.58a16.18,16.18,0,0,1-14.63,9.26H67a16.17,16.17,0,0,1-14.63-9.26L35.85,21.67H28.17A8.33,8.33,0,0,0,19.84,30V322.11a8.33,8.33,0,0,0,8.33,8.33H60l8.85-18.69a12.29,12.29,0,0,1,11.12-7h82a12.29,12.29,0,0,1,11.12,7l8.85,18.69h31.81a8.33,8.33,0,0,0,8.33-8.33V30A8.33,8.33,0,0,0,213.73,21.67Z"/><path class="cls-10" d="M213.73,21.67h-7.68L189.52,56.58a16.18,16.18,0,0,1-14.63,9.26H67a16.17,16.17,0,0,1-14.63-9.26L35.85,21.67H28.17A8.33,8.33,0,0,0,19.84,30V322.11a8.33,8.33,0,0,0,8.33,8.33H60l8.85-18.69a12.29,12.29,0,0,1,11.12-7h82a12.29,12.29,0,0,1,11.12,7l8.85,18.69h31.81a8.33,8.33,0,0,0,8.33-8.33V30A8.33,8.33,0,0,0,213.73,21.67Z"/><path class="cls-11" d="M98.75,35.42a6.19,6.19,0,0,0-4,.8,6.54,6.54,0,0,0-3.2,5,8.06,8.06,0,0,1-2.38-1,4.4,4.4,0,0,1-1.31-2.35,13.62,13.62,0,0,1,0-4.13,30.91,30.91,0,0,1,1.17-3.89.76.76,0,0,1,.72-.6c.65-.1,1.3-.23,2-.36-.15-.3-.24-.51-.35-.7a3.9,3.9,0,0,0-2.13-1.67A1.6,1.6,0,0,1,88.08,25c1.25.1,2.45.17,3.63.3a1.25,1.25,0,0,1,.79.49c.62.91,1.17,1.87,1.77,2.85,1.47-.47,2.93-.83,4.3-1.41a41.65,41.65,0,0,1,17.58-3.34,24.91,24.91,0,0,1,12.51,3.45c1.07.65,2.2,1.18,3.28,1.78a7.31,7.31,0,0,0,3.57,1c1.29,0,2.58,0,3.87.1a38.73,38.73,0,0,1,4.27.69c1.09.23,2.15.63,3.22.95.84.24,1.71.4,2.52.7A5.05,5.05,0,0,1,153,37.06,19.91,19.91,0,0,1,153,40c0,.49.06.78.54.95s.83.35.61.82a1.17,1.17,0,0,1-.87.42c-1.91.12-3.82.2-5.73.28a3.25,3.25,0,0,1-.45-.07c-.32-4.28-2.48-6.79-5.95-7a6.27,6.27,0,0,0-4.43,1.42,6.36,6.36,0,0,0-2.28,5.78l-30-.53C103.72,37.92,101.87,35.79,98.75,35.42Zm15.54-9.33v4.65h16.3A25.82,25.82,0,0,0,114.29,26.09Zm-1.19.07c-6.47,0-12.3,2.4-18.31,4.59H113.1Z"/><path class="cls-12" d="M140.61,36.37a5.28,5.28,0,1,1-5.23,5.31A5.3,5.3,0,0,1,140.61,36.37Zm2.58,5.28a2.49,2.49,0,0,0-2.45-2.48,2.48,2.48,0,1,0,0,4.95A2.48,2.48,0,0,0,143.19,41.65Z"/><path class="cls-13" d="M97.86,36.37a5.28,5.28,0,1,1-5.24,5.31A5.31,5.31,0,0,1,97.86,36.37Zm2.57,5.28a2.49,2.49,0,0,0-2.52-2.48,2.48,2.48,0,1,0,0,4.95A2.48,2.48,0,0,0,100.43,41.65Z"/><text class="cls-14" transform="translate(61.54 160.01)">Clear the <tspan x="-30.55" y="36">number order </tspan><tspan x="-24.46" y="72">from (71-80)</tspan></text><path class="cls-1" d="M189.52,56.58,203,28l-37.8,37.8h9.66A16.18,16.18,0,0,0,189.52,56.58Z"/><path class="cls-15" d="M222.06,30a8.33,8.33,0,0,0-8.33-8.33H209.4L203,28,189.52,56.58a16.18,16.18,0,0,1-14.63,9.26h-9.66L19.84,211.23v84.34L222.06,93.35Z"/><polygon class="cls-15" points="85.11 65.84 19.84 131.11 19.84 155.1 109.11 65.84 85.11 65.84"/><polygon class="cls-16" points="206.05 21.67 203.03 28.04 209.4 21.67 206.05 21.67"/></g></g></svg>