<svg xmlns="http://www.w3.org/2000/svg" xmlns:xlink="http://www.w3.org/1999/xlink" viewBox="0 0 241.9 352.44"><defs><style>.cls-1,.cls-11{fill:none;}.cls-2{isolation:isolate;}.cls-3{clip-path:url(#clip-path);}.cls-4{opacity:0.28;mix-blend-mode:overlay;}.cls-13,.cls-5{fill:#fff;}.cls-6{clip-path:url(#clip-path-2);}.cls-7{fill:url(#linear-gradient);}.cls-8{fill:url(#linear-gradient-2);}.cls-9{clip-path:url(#clip-path-3);}.cls-10{fill:url(#linear-gradient-3);}.cls-11{stroke-linecap:round;stroke-linejoin:round;stroke-width:2px;stroke:url(#linear-gradient-4);}.cls-12{font-size:30px;fill:#f5cb16;font-family:Roboto-Regular, Roboto;}.cls-13{opacity:0.16;mix-blend-mode:hard-light;}.cls-14{fill:url(#linear-gradient-5);}.cls-15{fill:url(#linear-gradient-6);}.cls-16{clip-path:url(#clip-path-4);}</style><clipPath id="clip-path"><path class="cls-1" d="M250.55,767.17V594.66a11.38,11.38,0,0,1,3.54-8.26,17.54,17.54,0,0,0,5.36-12.7V527.59a17.74,17.74,0,0,0-17.74-17.74H40.41a17.74,17.74,0,0,0-17.73,17.74V573.7A17.53,17.53,0,0,0,28,586.4a11.38,11.38,0,0,1,3.54,8.26V767.17A11.38,11.38,0,0,1,28,775.43a17.53,17.53,0,0,0-5.35,12.7v46.1A17.73,17.73,0,0,0,40.41,852h201.3a17.74,17.74,0,0,0,17.74-17.74v-46.1a17.54,17.54,0,0,0-5.36-12.7A11.38,11.38,0,0,1,250.55,767.17Z"/></clipPath><clipPath id="clip-path-2"><path class="cls-1" d="M-41.78,263.06V90.55a11.38,11.38,0,0,1,3.54-8.26,17.53,17.53,0,0,0,5.35-12.7V23.48A17.73,17.73,0,0,0-50.63,5.75H-251.92a17.73,17.73,0,0,0-17.74,17.73V69.59a17.53,17.53,0,0,0,5.35,12.7,11.38,11.38,0,0,1,3.54,8.26V263.06a11.38,11.38,0,0,1-3.54,8.26,17.53,17.53,0,0,0-5.35,12.7v46.11a17.73,17.73,0,0,0,17.74,17.73H-50.63a17.73,17.73,0,0,0,17.74-17.73V284a17.53,17.53,0,0,0-5.35-12.7A11.38,11.38,0,0,1-41.78,263.06Z"/></clipPath><linearGradient id="linear-gradient" x1="-20.38" y1="35.47" x2="262.28" y2="318.14" gradientUnits="userSpaceOnUse"><stop offset="0" stop-color="#fff"/><stop offset="0.5" stop-color="#e5e5e5"/><stop offset="1" stop-color="#c7c7c7"/></linearGradient><linearGradient id="linear-gradient-2" x1="120.95" y1="1.06" x2="120.95" y2="352.24" gradientUnits="userSpaceOnUse"><stop offset="0" stop-color="#f5cb16"/><stop offset="0.28" stop-color="#fef687"/><stop offset="0.34" stop-color="#f5e063"/><stop offset="0.42" stop-color="#ebc83c"/><stop offset="0.48" stop-color="#e5b924"/><stop offset="0.52" stop-color="#e3b31b"/><stop offset="0.65" stop-color="#f0d24e"/><stop offset="0.79" stop-color="#fff585"/><stop offset="0.87" stop-color="#fbe254"/><stop offset="0.96" stop-color="#f7d227"/><stop offset="1" stop-color="#f5cb16"/></linearGradient><clipPath id="clip-path-3"><path class="cls-1" d="M230.44,263.06V90.55A11.38,11.38,0,0,1,234,82.29a17.53,17.53,0,0,0,5.35-12.7V23.48A17.73,17.73,0,0,0,221.6,5.75H20.3A17.73,17.73,0,0,0,2.56,23.48V69.59a17.54,17.54,0,0,0,5.36,12.7,11.38,11.38,0,0,1,3.54,8.26V263.06a11.38,11.38,0,0,1-3.54,8.26A17.54,17.54,0,0,0,2.56,284v46.11A17.73,17.73,0,0,0,20.3,347.86H221.6a17.73,17.73,0,0,0,17.73-17.73V284a17.53,17.53,0,0,0-5.35-12.7A11.38,11.38,0,0,1,230.44,263.06Z"/></clipPath><linearGradient id="linear-gradient-3" x1="-4.36" y1="51.5" x2="246.26" y2="302.11" gradientUnits="userSpaceOnUse"><stop offset="0" stop-color="#8c0f02"/><stop offset="1" stop-color="#ff1124"/></linearGradient><linearGradient id="linear-gradient-4" x1="-5.06" y1="50.79" x2="246.96" y2="302.82" gradientUnits="userSpaceOnUse"><stop offset="0" stop-color="#c7c7c7"/><stop offset="0.5" stop-color="#e5e5e5"/><stop offset="1" stop-color="#fff"/></linearGradient><linearGradient id="linear-gradient-5" x1="113.04" y1="-65.9" x2="363.65" y2="184.72" xlink:href="#linear-gradient"/><linearGradient id="linear-gradient-6" x1="103.09" y1="36.14" x2="138.81" y2="36.14" xlink:href="#linear-gradient-3"/><clipPath id="clip-path-4"><path class="cls-1" d="M502.28,263.06V90.55a11.37,11.37,0,0,1,3.53-8.26,17.54,17.54,0,0,0,5.36-12.7V23.48A17.73,17.73,0,0,0,493.43,5.75H292.13A17.73,17.73,0,0,0,274.4,23.48V69.59a17.53,17.53,0,0,0,5.35,12.7,11.38,11.38,0,0,1,3.54,8.26V263.06a11.38,11.38,0,0,1-3.54,8.26A17.53,17.53,0,0,0,274.4,284v46.11a17.73,17.73,0,0,0,17.73,17.73h201.3a17.73,17.73,0,0,0,17.74-17.73V284a17.54,17.54,0,0,0-5.36-12.7A11.37,11.37,0,0,1,502.28,263.06Z"/></clipPath></defs><g class="cls-2"><g id="Layer_1" data-name="Layer 1"><g class="cls-3"><g class="cls-4"><path class="cls-5" d="M192.81,348.19c-.45.22-.69.43-.92.41a.68.68,0,0,1-.37-.54c0-.18.33-.48.47-.46S192.42,347.88,192.81,348.19Z"/><path class="cls-5" d="M199.25,348c-.4.29-.6.55-.83.57s-.46-.28-.47-.46.23-.53.38-.54S198.8,347.81,199.25,348Z"/><path class="cls-5" d="M205,348.87c-.26-.35-.53-.55-.54-.77s.29-.35.46-.53c.19.18.47.33.54.55S205.25,348.5,205,348.87Z"/><path class="cls-5" d="M212.1,348.07c-.21.21-.38.51-.49.49s-.38-.27-.57-.42c.17-.17.32-.41.52-.48S211.87,347.89,212.1,348.07Z"/><path class="cls-5" d="M186.16,348.08c-.35.24-.54.46-.74.48s-.39-.28-.4-.43.24-.48.36-.47S185.79,347.87,186.16,348.08Z"/><path class="cls-5" d="M218.53,348.12c-.28.17-.44.34-.61.35s-.25-.21-.38-.32c.13-.14.25-.38.4-.4S218.26,347.93,218.53,348.12Z"/><path class="cls-5" d="M179,347.57l.44.56c-.15.12-.3.3-.48.34s-.33-.22-.32-.33S178.83,347.83,179,347.57Z"/><path class="cls-5" d="M225,348.26c-.3.07-.46.16-.6.13s-.22-.29-.19-.33.27-.27.4-.26S224.78,348,225,348.26Z"/><path class="cls-5" d="M173,348.05c-.23.18-.34.34-.49.37s-.31-.16-.3-.22.13-.37.24-.4S172.71,347.92,173,348.05Z"/></g></g><g class="cls-6"><g class="cls-4"><path class="cls-5" d="M3.58,1.11A1.11,1.11,0,0,1,2.5,0,1.08,1.08,0,0,1,3.65-1.13,1.14,1.14,0,0,1,4.76,0,1.18,1.18,0,0,1,3.58,1.11Z"/><path class="cls-5" d="M3.59,7.42a1.06,1.06,0,0,1-1-1,1.08,1.08,0,0,1,1-1,1,1,0,0,1,1,1A1,1,0,0,1,3.59,7.42Z"/><path class="cls-5" d="M4.48,13a.92.92,0,0,1-.91.84.88.88,0,0,1,.08-1.76A.91.91,0,0,1,4.48,13Z"/><path class="cls-5" d="M11,.09a.84.84,0,0,1-1,.7.8.8,0,0,1-.65-.92.8.8,0,0,1,1-.7A.84.84,0,0,1,11,.09Z"/><path class="cls-5" d="M10.85,6.61a2.21,2.21,0,0,1-.72.48.62.62,0,0,1-.66-.71,1.27,1.27,0,0,1,.65-.64C10.48,5.62,10.84,6,10.85,6.61Z"/><path class="cls-5" d="M4.61,19.44c-.45.35-.68.67-1,.74S3,20,2.94,19.62s.22-.85.59-.79A4,4,0,0,1,4.61,19.44Z"/><path class="cls-5" d="M10.16,12.26c.24.31.48.48.51.68a.44.44,0,0,1-.57.5.7.7,0,0,1-.42-.52C9.67,12.74,9.93,12.56,10.16,12.26Z"/><path class="cls-5" d="M3.67,25.29c.18.31.39.51.39.71s-.29.28-.45.42c-.15-.18-.38-.35-.42-.55S3.43,25.56,3.67,25.29Z"/><path class="cls-5" d="M17.16-.07c-.2.22-.37.52-.47.5S16.3.17,16.11,0c.16-.17.3-.42.5-.49S16.93-.25,17.16-.07Z"/><path class="cls-5" d="M10.4,19.45l-.36.26c0-.09-.15-.18-.13-.25s.12-.18.21-.21S10.26,19.35,10.4,19.45Z"/></g></g><path class="cls-7" d="M221.6,350.43H20.3A20.33,20.33,0,0,1,0,330.13V284a20.16,20.16,0,0,1,6.15-14.55,8.79,8.79,0,0,0,2.74-6.41V90.55a8.79,8.79,0,0,0-2.74-6.41A20.16,20.16,0,0,1,0,69.59V23.48A20.33,20.33,0,0,1,20.3,3.18H221.6a20.33,20.33,0,0,1,20.3,20.3V69.59a20.14,20.14,0,0,1-6.15,14.55A8.8,8.8,0,0,0,233,90.55V263.06a8.8,8.8,0,0,0,2.75,6.41A20.14,20.14,0,0,1,241.9,284v46.11A20.33,20.33,0,0,1,221.6,350.43ZM20.3,8.31A15.19,15.19,0,0,0,5.13,23.48V69.59A15,15,0,0,0,9.69,80.43,13.88,13.88,0,0,1,14,90.55V263.06a13.88,13.88,0,0,1-4.33,10.12A15,15,0,0,0,5.13,284v46.11A15.19,15.19,0,0,0,20.3,345.3H221.6a15.19,15.19,0,0,0,15.17-15.17V284a15,15,0,0,0-4.56-10.84,13.88,13.88,0,0,1-4.33-10.12V90.55a13.88,13.88,0,0,1,4.33-10.12,15,15,0,0,0,4.56-10.84V23.48A15.19,15.19,0,0,0,221.6,8.31Z"/><path class="cls-8" d="M230.44,263.06V90.55A11.38,11.38,0,0,1,234,82.29a17.53,17.53,0,0,0,5.35-12.7V23.48A17.73,17.73,0,0,0,221.6,5.75H20.3A17.73,17.73,0,0,0,2.56,23.48V69.59a17.54,17.54,0,0,0,5.36,12.7,11.38,11.38,0,0,1,3.54,8.26V263.06a11.38,11.38,0,0,1-3.54,8.26A17.54,17.54,0,0,0,2.56,284v46.11A17.73,17.73,0,0,0,20.3,347.86H221.6a17.73,17.73,0,0,0,17.73-17.73V284a17.53,17.53,0,0,0-5.35-12.7A11.38,11.38,0,0,1,230.44,263.06Z"/><g class="cls-9"><g class="cls-4"><path class="cls-5" d="M181.07,0a2.77,2.77,0,0,1-2.78,2.77A2.83,2.83,0,0,1,175.53,0a2.81,2.81,0,0,1,2.81-2.76A2.75,2.75,0,0,1,181.07,0Z"/><path class="cls-5" d="M171.92-2.78A2.73,2.73,0,0,1,174.63,0a2.77,2.77,0,0,1-2.79,2.74,2.82,2.82,0,0,1-2.73-2.82A2.78,2.78,0,0,1,171.92-2.78Z"/><path class="cls-5" d="M182.13-.06a2.7,2.7,0,0,1,2.81-2.7A2.76,2.76,0,0,1,187.64,0a2.81,2.81,0,0,1-2.79,2.78A2.73,2.73,0,0,1,182.13-.06Z"/><path class="cls-5" d="M165.34,2.71a2.69,2.69,0,0,1-2.72-2.79,2.67,2.67,0,0,1,2.72-2.66A2.74,2.74,0,0,1,168.09,0,2.76,2.76,0,0,1,165.34,2.71Z"/><path class="cls-5" d="M194.13,0a2.68,2.68,0,0,1-2.67,2.7A2.73,2.73,0,0,1,188.67,0a2.73,2.73,0,0,1,2.69-2.7A2.68,2.68,0,0,1,194.13,0Z"/><path class="cls-5" d="M195.16,0a2.67,2.67,0,0,1,2.7-2.67A2.67,2.67,0,0,1,200.53,0a2.65,2.65,0,0,1-2.69,2.66A2.65,2.65,0,0,1,195.16,0Z"/><path class="cls-5" d="M161.58.08a2.64,2.64,0,0,1-2.78,2.57,2.66,2.66,0,0,1-2.58-2.78A2.66,2.66,0,0,1,159-2.69,2.64,2.64,0,0,1,161.58.08Z"/><path class="cls-5" d="M178.31,3.76a2.65,2.65,0,1,1,0,5.29,2.6,2.6,0,0,1-2.64-2.68A2.62,2.62,0,0,1,178.31,3.76Z"/><path class="cls-5" d="M171.87,3.76a2.65,2.65,0,1,1,0,5.29,2.6,2.6,0,0,1-2.64-2.68A2.61,2.61,0,0,1,171.87,3.76Z"/><path class="cls-5" d="M187.49,6.48a2.6,2.6,0,0,1-2.66,2.57,2.67,2.67,0,0,1-2.62-2.65A2.69,2.69,0,0,1,185,3.77,2.63,2.63,0,0,1,187.49,6.48Z"/><path class="cls-5" d="M152.31,2.61A2.61,2.61,0,0,1,149.74,0a2.63,2.63,0,0,1,2.61-2.62A2.69,2.69,0,0,1,155,.06,2.68,2.68,0,0,1,152.31,2.61Z"/><path class="cls-5" d="M188.8,6.42a2.62,2.62,0,0,1,2.61-2.64,2.69,2.69,0,0,1,2.64,2.63A2.67,2.67,0,0,1,191.42,9,2.62,2.62,0,0,1,188.8,6.42Z"/><path class="cls-5" d="M168,6.41A2.62,2.62,0,0,1,165.34,9a2.67,2.67,0,0,1-2.64-2.62,2.69,2.69,0,0,1,2.63-2.64A2.62,2.62,0,0,1,168,6.41Z"/><path class="cls-5" d="M207,0a2.6,2.6,0,0,1-2.62,2.61A2.67,2.67,0,0,1,201.75,0a2.68,2.68,0,0,1,2.65-2.62A2.62,2.62,0,0,1,207,0Z"/><path class="cls-5" d="M161.49,6.37a2.58,2.58,0,1,1-2.57-2.55A2.63,2.63,0,0,1,161.49,6.37Z"/><path class="cls-5" d="M197.81,3.82a2.6,2.6,0,1,1-2.54,2.69A2.6,2.6,0,0,1,197.81,3.82Z"/><path class="cls-5" d="M148.47,0a2.56,2.56,0,0,1-2.55,2.53A2.6,2.6,0,0,1,143.36,0,2.61,2.61,0,0,1,146-2.59,2.55,2.55,0,0,1,148.47,0Z"/><path class="cls-5" d="M208.29-.08a2.53,2.53,0,0,1,2.59-2.49A2.58,2.58,0,0,1,213.38,0a2.6,2.6,0,0,1-2.61,2.5A2.55,2.55,0,0,1,208.29-.08Z"/><path class="cls-5" d="M154.87,6.42A2.51,2.51,0,0,1,152.33,9a2.58,2.58,0,0,1-2.51-2.6,2.53,2.53,0,0,1,2.51-2.45A2.47,2.47,0,0,1,154.87,6.42Z"/><path class="cls-5" d="M180.83,13a2.49,2.49,0,0,1-2.54,2.53,2.53,2.53,0,0,1,0-5.05A2.51,2.51,0,0,1,180.83,13Z"/><path class="cls-5" d="M184.82,10.43a2.53,2.53,0,1,1,.09,5.05,2.5,2.5,0,0,1-2.55-2.42A2.53,2.53,0,0,1,184.82,10.43Z"/><path class="cls-5" d="M174.39,13a2.5,2.5,0,0,1-2.47,2.5,2.53,2.53,0,1,1-.07-5.05A2.51,2.51,0,0,1,174.39,13Z"/><path class="cls-5" d="M201.89,6.37a2.46,2.46,0,0,1,2.48-2.46,2.54,2.54,0,0,1,2.56,2.54,2.57,2.57,0,0,1-2.52,2.48A2.49,2.49,0,0,1,201.89,6.37Z"/><path class="cls-5" d="M162.85,13a2.51,2.51,0,0,1,2.46-2.51,2.51,2.51,0,1,1,0,5A2.49,2.49,0,0,1,162.85,13Z"/><path class="cls-5" d="M193.9,13a2.5,2.5,0,0,1-2.47,2.49,2.51,2.51,0,1,1,0-5A2.51,2.51,0,0,1,193.9,13Z"/><path class="cls-5" d="M139.38,2.44A2.45,2.45,0,0,1,136.91,0a2.44,2.44,0,0,1,2.47-2.46A2.46,2.46,0,0,1,141.86,0,2.46,2.46,0,0,1,139.38,2.44Z"/><path class="cls-5" d="M158.85,10.48A2.48,2.48,0,1,1,156.44,13,2.48,2.48,0,0,1,158.85,10.48Z"/><path class="cls-5" d="M145.89,4a2.45,2.45,0,1,1,0,4.9,2.45,2.45,0,0,1,0-4.9Z"/><path class="cls-5" d="M217.35-2.47A2.45,2.45,0,0,1,219.84,0a2.44,2.44,0,0,1-2.5,2.43A2.42,2.42,0,0,1,214.91,0,2.43,2.43,0,0,1,217.35-2.47Z"/><path class="cls-5" d="M195.4,13a2.45,2.45,0,1,1,4.9,0,2.45,2.45,0,0,1-4.9,0Z"/><path class="cls-5" d="M210.82,4a2.39,2.39,0,0,1,2.43,2.37,2.39,2.39,0,0,1-2.42,2.49,2.43,2.43,0,1,1,0-4.86Z"/><path class="cls-5" d="M175.93,19.53a2.4,2.4,0,0,1,2.37-2.43,2.41,2.41,0,1,1,0,4.81A2.39,2.39,0,0,1,175.93,19.53Z"/><path class="cls-5" d="M152.45,10.56a2.41,2.41,0,1,1-.18,4.81,2.39,2.39,0,0,1-2.3-2.5A2.36,2.36,0,0,1,152.45,10.56Z"/><path class="cls-5" d="M204.38,10.58a2.34,2.34,0,0,1,2.4,2.37,2.38,2.38,0,0,1-2.38,2.41A2.44,2.44,0,0,1,202,13,2.41,2.41,0,0,1,204.38,10.58Z"/><path class="cls-5" d="M187.24,19.5a2.38,2.38,0,0,1-2.4,2.4,2.4,2.4,0,0,1,0-4.8A2.4,2.4,0,0,1,187.24,19.5Z"/><path class="cls-5" d="M169.51,19.49a2.41,2.41,0,0,1,2.42-2.39,2.47,2.47,0,0,1,2.36,2.37,2.43,2.43,0,0,1-2.39,2.43A2.38,2.38,0,0,1,169.51,19.49Z"/><path class="cls-5" d="M223.86,2.36A2.4,2.4,0,0,1,221.44.09a2.4,2.4,0,0,1,2.31-2.49A2.42,2.42,0,0,1,226.18,0,2.42,2.42,0,0,1,223.86,2.36Z"/><path class="cls-5" d="M217.38,8.79a2.38,2.38,0,1,1,2.36-2.33A2.39,2.39,0,0,1,217.38,8.79Z"/><path class="cls-5" d="M193.78,19.67a2.37,2.37,0,1,1-2.26-2.54A2.4,2.4,0,0,1,193.78,19.67Z"/><path class="cls-5" d="M165.35,17.12A2.38,2.38,0,1,1,163,19.44,2.4,2.4,0,0,1,165.35,17.12Z"/><path class="cls-5" d="M132.87-2.41A2.44,2.44,0,0,1,135.22,0a2.41,2.41,0,0,1-2.48,2.32A2.39,2.39,0,0,1,130.46,0,2.4,2.4,0,0,1,132.87-2.41Z"/><path class="cls-5" d="M141.75,6.41a2.38,2.38,0,0,1-2.4,2.39A2.43,2.43,0,0,1,137,6.47,2.44,2.44,0,0,1,139.35,4,2.4,2.4,0,0,1,141.75,6.41Z"/><path class="cls-5" d="M197.81,21.85a2.35,2.35,0,0,1,.06-4.69,2.35,2.35,0,0,1-.06,4.69Z"/><path class="cls-5" d="M158.9,21.85a2.35,2.35,0,0,1,0-4.69,2.35,2.35,0,0,1,0,4.69Z"/><path class="cls-5" d="M145.91,15.28a2.31,2.31,0,0,1-2.33-2.3,2.34,2.34,0,1,1,4.68,0A2.28,2.28,0,0,1,145.91,15.28Z"/><path class="cls-5" d="M210.85,10.64A2.33,2.33,0,0,1,213.16,13a2.3,2.3,0,0,1-2.35,2.29,2.32,2.32,0,1,1,0-4.63Z"/><path class="cls-5" d="M139.33,10.67a2.29,2.29,0,0,1,.15,4.57,2.29,2.29,0,0,1-.15-4.57Z"/><path class="cls-5" d="M135.1,6.47a2.26,2.26,0,0,1-2.27,2.23,2.33,2.33,0,0,1-2.3-2.35,2.3,2.3,0,0,1,2.3-2.21A2.23,2.23,0,0,1,135.1,6.47Z"/><path class="cls-5" d="M154.63,19.52a2.25,2.25,0,0,1-2.23,2.27,2.33,2.33,0,0,1-2.35-2.29,2.3,2.3,0,0,1,2.37-2.26A2.23,2.23,0,0,1,154.63,19.52Z"/><path class="cls-5" d="M204.46,17.25a2.26,2.26,0,0,1-.08,4.52,2.26,2.26,0,1,1,.08-4.52Z"/><path class="cls-5" d="M126.44-2.28A2.22,2.22,0,0,1,128.66,0a2.23,2.23,0,0,1-2.25,2.25,2.29,2.29,0,0,1-2.3-2.33A2.29,2.29,0,0,1,126.44-2.28Z"/><path class="cls-5" d="M226.06,6.36a2.24,2.24,0,0,1-2.18,2.32,2.27,2.27,0,1,1-.1-4.53A2.22,2.22,0,0,1,226.06,6.36Z"/><path class="cls-5" d="M184.81,28.17a2.24,2.24,0,1,1,.11-4.47,2.24,2.24,0,1,1-.11,4.47Z"/><path class="cls-5" d="M180.57,26a2.23,2.23,0,0,1-2.27,2.24,2.25,2.25,0,1,1,0-4.5A2.21,2.21,0,0,1,180.57,26Z"/><path class="cls-5" d="M171.93,23.7a2.24,2.24,0,1,1-.09,4.47,2.24,2.24,0,1,1,.09-4.47Z"/><path class="cls-5" d="M217.36,15.22A2.27,2.27,0,1,1,219.62,13,2.27,2.27,0,0,1,217.36,15.22Z"/><path class="cls-5" d="M230.39-2.25A2.23,2.23,0,0,1,232.61,0a2.23,2.23,0,0,1-2.3,2.19A2.21,2.21,0,0,1,228.1-.06,2.21,2.21,0,0,1,230.39-2.25Z"/><path class="cls-5" d="M165.31,28.16a2.22,2.22,0,1,1,2.27-2.23A2.21,2.21,0,0,1,165.31,28.16Z"/><path class="cls-5" d="M191.41,28.15a2.22,2.22,0,1,1,0-4.43,2.22,2.22,0,1,1,0,4.43Z"/><path class="cls-5" d="M146,21.72a2.22,2.22,0,1,1,0-4.43,2.22,2.22,0,1,1,0,4.43Z"/><path class="cls-5" d="M210.8,21.71a2.21,2.21,0,1,1,0-4.41,2.21,2.21,0,0,1,0,4.41Z"/><path class="cls-5" d="M158.94,28.13a2.2,2.2,0,1,1,0-4.39,2.2,2.2,0,0,1,0,4.39Z"/><path class="cls-5" d="M197.84,28.12a2.19,2.19,0,0,1-.05-4.37,2.19,2.19,0,1,1,.05,4.37Z"/><path class="cls-5" d="M128.6,6.39a2.21,2.21,0,0,1-2.17,2.2,2.18,2.18,0,0,1-.05-4.36A2.23,2.23,0,0,1,128.6,6.39Z"/><path class="cls-5" d="M232.5,6.4a2.15,2.15,0,0,1-2.17,2.18,2.2,2.2,0,0,1-2.17-2.21,2.25,2.25,0,0,1,2.15-2.14A2.16,2.16,0,0,1,232.5,6.4Z"/><path class="cls-5" d="M130.67,12.92a2.14,2.14,0,0,1,2.21-2.13A2.19,2.19,0,0,1,135,13a2.22,2.22,0,0,1-2.24,2.14A2.16,2.16,0,0,1,130.67,12.92Z"/><path class="cls-5" d="M226,13a2.19,2.19,0,0,1-2.2,2.17,2.16,2.16,0,0,1,0-4.31A2.18,2.18,0,0,1,226,13Z"/><path class="cls-5" d="M152.35,23.77a2.17,2.17,0,1,1,0,4.33,2.17,2.17,0,0,1,0-4.33Z"/><path class="cls-5" d="M122,0a2.15,2.15,0,0,1-2.14,2.19A2.21,2.21,0,0,1,117.68,0a2.23,2.23,0,0,1,2.11-2.14A2.16,2.16,0,0,1,122,0Z"/><path class="cls-5" d="M141.52,19.53a2.14,2.14,0,0,1-2.19,2.14,2.17,2.17,0,0,1,0-4.33A2.14,2.14,0,0,1,141.52,19.53Z"/><path class="cls-5" d="M206.53,26a2.15,2.15,0,0,1-2.1,2.14,2.16,2.16,0,1,1-.08-4.31A2.16,2.16,0,0,1,206.53,26Z"/><path class="cls-5" d="M239,0a2.18,2.18,0,0,1-2.12,2.13,2.14,2.14,0,0,1-2.15-2.2,2.16,2.16,0,0,1,2.16-2.09A2.19,2.19,0,0,1,239,0Z"/><path class="cls-5" d="M217.41,21.65a2.15,2.15,0,1,1,0-4.29,2.15,2.15,0,0,1,0,4.29Z"/><path class="cls-5" d="M178.34,34.59a2.11,2.11,0,1,1,2.09-2.13A2.1,2.1,0,0,1,178.34,34.59Z"/><path class="cls-5" d="M171.88,34.57a2.09,2.09,0,1,1,2.1-2.08A2,2,0,0,1,171.88,34.57Z"/><path class="cls-5" d="M185,30.39a2.09,2.09,0,1,1-.26,4.18,2.09,2.09,0,0,1,.26-4.18Z"/><path class="cls-5" d="M163.26,32.38a2.06,2.06,0,0,1,2.21-2,2.08,2.08,0,0,1-.2,4.16A2,2,0,0,1,163.26,32.38Z"/><path class="cls-5" d="M145.9,23.84A2.08,2.08,0,0,1,148,26a2.1,2.1,0,0,1-2,2.1A2.16,2.16,0,0,1,143.82,26,2.13,2.13,0,0,1,145.9,23.84Z"/><path class="cls-5" d="M128.46,12.91a2,2,0,0,1-2,2.12,2.08,2.08,0,1,1-.11-4.15A2,2,0,0,1,128.46,12.91Z"/><path class="cls-5" d="M193.47,32.5a2,2,0,0,1-2,2.06,2.08,2.08,0,1,1,0-4.15A2,2,0,0,1,193.47,32.5Z"/><path class="cls-5" d="M212.92,25.94A2.13,2.13,0,0,1,210.77,28a2.07,2.07,0,0,1-2-2.09,2.05,2.05,0,0,1,2-2.08A2.11,2.11,0,0,1,212.92,25.94Z"/><path class="cls-5" d="M230.34,10.89a2.07,2.07,0,1,1,0,4.13,2,2,0,0,1-2.07-2.1A2,2,0,0,1,230.34,10.89Z"/><path class="cls-5" d="M199.88,32.46a2,2,0,0,1-2,2.08,2.09,2.09,0,0,1-2.13-2.08,2.12,2.12,0,0,1,2.07-2A2,2,0,0,1,199.88,32.46Z"/><path class="cls-5" d="M161,32.49a2.09,2.09,0,0,1-2,2,2,2,0,0,1-2.06-2.12,2,2,0,0,1,2.08-2A2.11,2.11,0,0,1,161,32.49Z"/><path class="cls-5" d="M134.88,19.54a2,2,0,0,1-2,2,2.11,2.11,0,0,1-2.11-2.1,2.09,2.09,0,0,1,2.17-2A2,2,0,0,1,134.88,19.54Z"/><path class="cls-5" d="M119.88,8.49a2.07,2.07,0,0,1-2.08-2,2,2,0,0,1,2-2.15,2.1,2.1,0,0,1,2.11,2A2.12,2.12,0,0,1,119.88,8.49Z"/><path class="cls-5" d="M236.89,4.39a2,2,0,0,1,2,2,2,2,0,0,1-2,2,2.07,2.07,0,0,1-2.08-2A2.06,2.06,0,0,1,236.89,4.39Z"/><path class="cls-5" d="M225.83,19.52a2,2,0,0,1-2,2,2.08,2.08,0,0,1-2-2.05,2.06,2.06,0,0,1,2.08-2A2,2,0,0,1,225.83,19.52Z"/><path class="cls-5" d="M115.46,0a2,2,0,0,1-2.09,2,2,2,0,0,1-2-2.06,2,2,0,0,1,2.07-2A2,2,0,0,1,115.46,0Z"/><path class="cls-5" d="M139.43,23.94a2,2,0,0,1,0,4,2,2,0,1,1,0-4Z"/><path class="cls-5" d="M154.37,32.49a2,2,0,1,1-4-.07,2.06,2.06,0,0,1,2-2A2,2,0,0,1,154.37,32.49Z"/><path class="cls-5" d="M204.42,34.5a2,2,0,1,1,2-2.11A2,2,0,0,1,204.42,34.5Z"/><path class="cls-5" d="M243.3,2a2,2,0,0,1-2-2,2,2,0,0,1,2-2,2,2,0,0,1,2,2A2,2,0,0,1,243.3,2Z"/><path class="cls-5" d="M219.38,25.89A2,2,0,1,1,217.26,24,2,2,0,0,1,219.38,25.89Z"/><path class="cls-5" d="M121.8,12.94a2,2,0,0,1-1.93,2,2,2,0,1,1,0-3.94A1.94,1.94,0,0,1,121.8,12.94Z"/><path class="cls-5" d="M178.32,37a2,2,0,0,1,2,2,2,2,0,0,1-2,2,2,2,0,0,1,0-3.94Z"/><path class="cls-5" d="M115.36,6.42a1.93,1.93,0,0,1-2,1.94,2,2,0,0,1-1.93-1.9,2,2,0,0,1,2-2A1.93,1.93,0,0,1,115.36,6.42Z"/><path class="cls-5" d="M230.39,21.45a2,2,0,0,1-2-1.93,2,2,0,0,1,2-2,2,2,0,0,1,0,3.9Z"/><path class="cls-5" d="M126.38,21.46a1.92,1.92,0,0,1-1.93-2,1.94,1.94,0,0,1,2-1.95,2,2,0,1,1,0,3.92Z"/><path class="cls-5" d="M186.8,38.94a1.94,1.94,0,0,1-2,1.93A2,2,0,0,1,182.9,39a2,2,0,0,1,2-2A1.9,1.9,0,0,1,186.8,38.94Z"/><path class="cls-5" d="M132.78,24a2,2,0,0,1,2,1.92,2,2,0,0,1-2,2,1.95,1.95,0,0,1-.05-3.89Z"/><path class="cls-5" d="M236.94,14.92A2,2,0,0,1,235,13a1.9,1.9,0,0,1,1.84-2,2,2,0,0,1,2.06,1.87A2,2,0,0,1,236.94,14.92Z"/><path class="cls-5" d="M173.85,38.86a2,2,0,0,1-1.93,2A2,2,0,0,1,170,39,1.89,1.89,0,0,1,171.8,37,2,2,0,0,1,173.85,38.86Z"/><path class="cls-5" d="M147.89,32.49a2,2,0,0,1-2,1.95,2,2,0,0,1-1.91-2,1.9,1.9,0,0,1,1.92-1.87A2,2,0,0,1,147.89,32.49Z"/><path class="cls-5" d="M223.76,27.87a1.94,1.94,0,0,1,.08-3.87,1.94,1.94,0,1,1-.08,3.87Z"/><path class="cls-5" d="M243.33,8.34a1.91,1.91,0,0,1-1.91-1.87,1.94,1.94,0,0,1,1.91-2,2,2,0,0,1,1.94,2A2,2,0,0,1,243.33,8.34Z"/><path class="cls-5" d="M165.36,40.85a1.93,1.93,0,1,1-.05-3.85,1.88,1.88,0,0,1,1.95,1.83A1.92,1.92,0,0,1,165.36,40.85Z"/><path class="cls-5" d="M191.44,37a1.93,1.93,0,1,1-.05,3.85,1.92,1.92,0,0,1-1.9-2A1.88,1.88,0,0,1,191.44,37Z"/><path class="cls-5" d="M212.75,32.47a1.93,1.93,0,0,1-2,2,2,2,0,0,1-1.91-1.92,1.94,1.94,0,0,1,2-1.93A1.88,1.88,0,0,1,212.75,32.47Z"/><path class="cls-5" d="M157,38.82a1.91,1.91,0,0,1,2.1-1.79,1.89,1.89,0,0,1,1.72,2,1.87,1.87,0,0,1-2,1.73A1.89,1.89,0,0,1,157,38.82Z"/><path class="cls-5" d="M108.77,0a1.93,1.93,0,0,1-1.87,1.94A1.93,1.93,0,0,1,105,0a1.93,1.93,0,0,1,1.86-1.94A1.94,1.94,0,0,1,108.77,0Z"/><path class="cls-5" d="M197.87,37a1.88,1.88,0,1,1-.06,3.75,1.88,1.88,0,1,1,.06-3.75Z"/><path class="cls-5" d="M139.36,34.35a1.87,1.87,0,1,1,1.9-1.87A1.84,1.84,0,0,1,139.36,34.35Z"/><path class="cls-5" d="M217.35,30.63a1.86,1.86,0,0,1,.09,3.71,1.86,1.86,0,1,1-.09-3.71Z"/><path class="cls-5" d="M204.4,37.07a1.85,1.85,0,1,1,0,3.69,1.85,1.85,0,0,1,0-3.69Z"/><path class="cls-5" d="M154.19,38.94a1.8,1.8,0,0,1-1.81,1.82,1.85,1.85,0,1,1,.06-3.69A1.8,1.8,0,0,1,154.19,38.94Z"/><path class="cls-5" d="M119.86,21.37a1.86,1.86,0,0,1,0-3.72,1.86,1.86,0,1,1,0,3.72Z"/><path class="cls-5" d="M126.45,27.79a1.89,1.89,0,0,1-1.9-1.77,1.86,1.86,0,0,1,1.74-1.91,1.8,1.8,0,0,1,1.93,1.81A1.83,1.83,0,0,1,126.45,27.79Z"/><path class="cls-5" d="M238.72,19.47A1.83,1.83,0,0,1,237,21.35,1.88,1.88,0,0,1,235,19.49a1.86,1.86,0,0,1,1.85-1.81A1.79,1.79,0,0,1,238.72,19.47Z"/><path class="cls-5" d="M113.46,14.79A1.79,1.79,0,0,1,111.6,13a1.82,1.82,0,0,1,1.84-1.91,1.84,1.84,0,0,1,0,3.67Z"/><path class="cls-5" d="M232.19,26a1.86,1.86,0,0,1-1.87,1.79,1.82,1.82,0,1,1,.07-3.63A1.83,1.83,0,0,1,232.19,26Z"/><path class="cls-5" d="M245.14,12.92a1.81,1.81,0,0,1-1.75,1.87,1.87,1.87,0,0,1-1.9-1.85,1.89,1.89,0,0,1,1.83-1.82A1.83,1.83,0,0,1,245.14,12.92Z"/><path class="cls-5" d="M132.86,34.29a1.81,1.81,0,1,1,0-3.62,1.82,1.82,0,0,1,1.76,1.76A1.79,1.79,0,0,1,132.86,34.29Z"/><path class="cls-5" d="M108.67,6.43a1.77,1.77,0,0,1-1.82,1.78A1.84,1.84,0,0,1,105,6.39a1.82,1.82,0,0,1,1.85-1.77A1.76,1.76,0,0,1,108.67,6.43Z"/><path class="cls-5" d="M147.72,39a1.8,1.8,0,0,1-1.86,1.76,1.85,1.85,0,0,1-1.74-1.79,1.87,1.87,0,0,1,1.82-1.83A1.83,1.83,0,0,1,147.72,39Z"/><path class="cls-5" d="M210.77,40.73a1.82,1.82,0,0,1,0-3.63,1.82,1.82,0,1,1,0,3.63Z"/><path class="cls-5" d="M225.58,32.44a1.8,1.8,0,0,1-1.78,1.84,1.8,1.8,0,0,1,0-3.59A1.8,1.8,0,0,1,225.58,32.44Z"/><path class="cls-5" d="M180.11,45.49a1.77,1.77,0,0,1-1.85,1.75,1.78,1.78,0,1,1,.06-3.55A1.75,1.75,0,0,1,180.11,45.49Z"/><path class="cls-5" d="M186.65,45.46a1.79,1.79,0,1,1-1.73-1.76A1.76,1.76,0,0,1,186.65,45.46Z"/><path class="cls-5" d="M173.66,45.41a1.78,1.78,0,0,1-3.56.1,1.77,1.77,0,0,1,1.68-1.81A1.75,1.75,0,0,1,173.66,45.41Z"/><path class="cls-5" d="M193.18,45.45a1.74,1.74,0,0,1-1.72,1.76,1.71,1.71,0,0,1-1.8-1.67,1.73,1.73,0,0,1,1.77-1.83A1.76,1.76,0,0,1,193.18,45.45Z"/><path class="cls-5" d="M165.35,47.21a1.75,1.75,0,1,1,1.75-1.74A1.73,1.73,0,0,1,165.35,47.21Z"/><path class="cls-5" d="M100.42-1.75A1.75,1.75,0,0,1,102.19,0a1.75,1.75,0,0,1-1.71,1.76A1.71,1.71,0,0,1,98.72,0,1.71,1.71,0,0,1,100.42-1.75Z"/><path class="cls-5" d="M158.93,47.19a1.74,1.74,0,0,1-1.77-1.7,1.76,1.76,0,0,1,1.71-1.76,1.73,1.73,0,0,1,.06,3.46Z"/><path class="cls-5" d="M199.59,45.5a1.74,1.74,0,0,1-1.78,1.69,1.73,1.73,0,0,1,.08-3.46A1.76,1.76,0,0,1,199.59,45.5Z"/><path class="cls-5" d="M118.11,25.93a1.78,1.78,0,0,1,1.78-1.72,1.73,1.73,0,0,1,0,3.45A1.77,1.77,0,0,1,118.11,25.93Z"/><path class="cls-5" d="M113.4,21.22a1.72,1.72,0,1,1,.09-3.44,1.72,1.72,0,0,1-.09,3.44Z"/><path class="cls-5" d="M236.89,24.22a1.72,1.72,0,1,1,0,3.43,1.72,1.72,0,0,1,0-3.43Z"/><path class="cls-5" d="M243.36,21.21a1.69,1.69,0,0,1-1.72-1.62,1.7,1.7,0,0,1,1.67-1.8,1.77,1.77,0,0,1,1.74,1.75A1.74,1.74,0,0,1,243.36,21.21Z"/><path class="cls-5" d="M152.39,47.16a1.7,1.7,0,0,1-.12-3.4,1.77,1.77,0,0,1,1.8,1.7A1.74,1.74,0,0,1,152.39,47.16Z"/><path class="cls-5" d="M141.08,39a1.69,1.69,0,0,1-1.78,1.67,1.77,1.77,0,0,1-1.66-1.71,1.75,1.75,0,0,1,1.76-1.72A1.67,1.67,0,0,1,141.08,39Z"/><path class="cls-5" d="M219.11,38.86a1.79,1.79,0,0,1-1.71,1.79A1.71,1.71,0,0,1,215.67,39a1.67,1.67,0,0,1,1.62-1.82A1.76,1.76,0,0,1,219.11,38.86Z"/><path class="cls-5" d="M106.85,14.66a1.68,1.68,0,0,1-1.67-1.79,1.65,1.65,0,0,1,1.72-1.6,1.7,1.7,0,1,1-.05,3.39Z"/><path class="cls-5" d="M128.11,32.53a1.71,1.71,0,0,1-1.72,1.63,1.68,1.68,0,1,1,.09-3.35A1.72,1.72,0,0,1,128.11,32.53Z"/><path class="cls-5" d="M204.39,43.77a1.7,1.7,0,0,1,1.67,1.69,1.68,1.68,0,0,1-1.66,1.69,1.69,1.69,0,0,1,0-3.38Z"/><path class="cls-5" d="M230.33,30.83a1.66,1.66,0,1,1,0,3.31,1.66,1.66,0,1,1,0-3.31Z"/><path class="cls-5" d="M98.78,6.42a1.66,1.66,0,1,1,1.7,1.67A1.7,1.7,0,0,1,98.78,6.42Z"/><path class="cls-5" d="M147.53,45.57a1.62,1.62,0,0,1-1.65,1.53,1.64,1.64,0,1,1,.09-3.27A1.62,1.62,0,0,1,147.53,45.57Z"/><path class="cls-5" d="M132.83,40.54a1.63,1.63,0,0,1-1.65-1.68,1.66,1.66,0,0,1,1.64-1.58A1.61,1.61,0,0,1,134.46,39,1.58,1.58,0,0,1,132.83,40.54Z"/><path class="cls-5" d="M212.46,45.48a1.66,1.66,0,0,1-1.7,1.62,1.64,1.64,0,0,1-1.55-1.65,1.62,1.62,0,0,1,1.57-1.62A1.66,1.66,0,0,1,212.46,45.48Z"/><path class="cls-5" d="M179.91,51.93a1.59,1.59,0,0,1-1.6,1.58,1.61,1.61,0,1,1,.07-3.22A1.58,1.58,0,0,1,179.91,51.93Z"/><path class="cls-5" d="M223.77,37.29a1.62,1.62,0,0,1,.06,3.24,1.64,1.64,0,0,1-1.67-1.64A1.66,1.66,0,0,1,223.77,37.29Z"/><path class="cls-5" d="M184.84,50.29a1.64,1.64,0,0,1,1.65,1.55,1.66,1.66,0,0,1-1.65,1.68,1.62,1.62,0,0,1-1.57-1.62A1.58,1.58,0,0,1,184.84,50.29Z"/><path class="cls-5" d="M173.48,51.94a1.59,1.59,0,0,1-1.61,1.57,1.61,1.61,0,1,1,.08-3.22A1.58,1.58,0,0,1,173.48,51.94Z"/><path class="cls-5" d="M113.47,27.53A1.57,1.57,0,0,1,111.84,26a1.55,1.55,0,0,1,1.53-1.63,1.59,1.59,0,1,1,.1,3.17Z"/><path class="cls-5" d="M106.89,21.1a1.65,1.65,0,0,1-1.63-1.58,1.62,1.62,0,0,1,1.6-1.59,1.55,1.55,0,0,1,1.6,1.56A1.59,1.59,0,0,1,106.89,21.1Z"/><path class="cls-5" d="M165.34,50.32A1.6,1.6,0,0,1,167,51.89a1.63,1.63,0,0,1-1.61,1.6,1.57,1.57,0,0,1-1.58-1.59A1.54,1.54,0,0,1,165.34,50.32Z"/><path class="cls-5" d="M121.44,32.53a1.61,1.61,0,0,1-1.65,1.54,1.58,1.58,0,0,1-1.5-1.68,1.6,1.6,0,0,1,1.58-1.5A1.63,1.63,0,0,1,121.44,32.53Z"/><path class="cls-5" d="M238.45,32.51a1.58,1.58,0,0,1-1.52,1.55,1.58,1.58,0,0,1-.06-3.15A1.58,1.58,0,0,1,238.45,32.51Z"/><path class="cls-5" d="M95.49-.08a1.6,1.6,0,0,1-1.57,1.62A1.54,1.54,0,0,1,92.33.09a1.53,1.53,0,0,1,1.48-1.67A1.59,1.59,0,0,1,95.49-.08Z"/><path class="cls-5" d="M243.38,24.38a1.56,1.56,0,0,1,0,3.12,1.56,1.56,0,1,1,0-3.12Z"/><path class="cls-5" d="M191.28,53.45a1.56,1.56,0,1,1,.32-3.1,1.56,1.56,0,0,1-.32,3.1Z"/><path class="cls-5" d="M126.41,40.48A1.56,1.56,0,1,1,128,38.94,1.59,1.59,0,0,1,126.41,40.48Z"/><path class="cls-5" d="M100.44,14.52A1.56,1.56,0,1,1,102,13,1.58,1.58,0,0,1,100.44,14.52Z"/><path class="cls-5" d="M158.89,53.44a1.55,1.55,0,1,1,0-3.09,1.55,1.55,0,1,1,0,3.09Z"/><path class="cls-5" d="M141,45.47A1.57,1.57,0,0,1,139.31,47a1.55,1.55,0,1,1,.14-3.09A1.56,1.56,0,0,1,141,45.47Z"/><path class="cls-5" d="M217.39,47a1.53,1.53,0,0,1-.09-3.05,1.53,1.53,0,1,1,.09,3.05Z"/><path class="cls-5" d="M196.3,51.85a1.55,1.55,0,1,1,1.48,1.57A1.53,1.53,0,0,1,196.3,51.85Z"/><path class="cls-5" d="M231.86,38.88a1.54,1.54,0,0,1-1.48,1.58,1.54,1.54,0,0,1-.07-3.08A1.53,1.53,0,0,1,231.86,38.88Z"/><path class="cls-5" d="M152.4,50.39a1.5,1.5,0,1,1-.14,3,1.5,1.5,0,0,1,.14-3Z"/><path class="cls-5" d="M205.87,51.91a1.46,1.46,0,0,1-1.44,1.47,1.52,1.52,0,0,1-1.55-1.5,1.54,1.54,0,0,1,1.58-1.48A1.48,1.48,0,0,1,205.87,51.91Z"/><path class="cls-5" d="M93.93,4.93a1.48,1.48,0,0,1,0,3A1.52,1.52,0,0,1,92.4,6.35,1.55,1.55,0,0,1,93.93,4.93Z"/><path class="cls-5" d="M132.88,46.94a1.45,1.45,0,0,1-1.51-1.4A1.48,1.48,0,0,1,132.85,44a1.55,1.55,0,0,1,1.48,1.47A1.53,1.53,0,0,1,132.88,46.94Z"/><path class="cls-5" d="M106.84,27.4a1.45,1.45,0,0,1-1.41-1.5,1.48,1.48,0,0,1,1.48-1.44A1.53,1.53,0,0,1,108.34,26,1.5,1.5,0,0,1,106.84,27.4Z"/><path class="cls-5" d="M223.75,46.93a1.47,1.47,0,0,1-1.4-1.52,1.49,1.49,0,0,1,1.5-1.42,1.53,1.53,0,0,1,1.42,1.52A1.51,1.51,0,0,1,223.75,46.93Z"/><path class="cls-5" d="M144.49,51.85a1.44,1.44,0,1,1,1.42,1.5A1.49,1.49,0,0,1,144.49,51.85Z"/><path class="cls-5" d="M114.87,32.48a1.42,1.42,0,0,1-1.45,1.44,1.44,1.44,0,1,1,0-2.87A1.41,1.41,0,0,1,114.87,32.48Z"/><path class="cls-5" d="M212.26,52a1.44,1.44,0,1,1-1.41-1.51A1.48,1.48,0,0,1,212.26,52Z"/><path class="cls-5" d="M101.85,19.54a1.44,1.44,0,0,1-1.39,1.4,1.44,1.44,0,0,1,0-2.87A1.44,1.44,0,0,1,101.85,19.54Z"/><path class="cls-5" d="M119.91,40.32a1.41,1.41,0,1,1-.1-2.81,1.41,1.41,0,1,1,.1,2.81Z"/><path class="cls-5" d="M236.89,40.3a1.38,1.38,0,0,1-1.4-1.36A1.41,1.41,0,0,1,237,37.52,1.38,1.38,0,0,1,238.28,39,1.35,1.35,0,0,1,236.89,40.3Z"/><path class="cls-5" d="M173.27,58.5a1.36,1.36,0,0,1-1.42,1.33,1.4,1.4,0,0,1-1.37-1.39A1.41,1.41,0,0,1,172,57.05,1.38,1.38,0,0,1,173.27,58.5Z"/><path class="cls-5" d="M179.7,58.42a1.36,1.36,0,0,1-1.34,1.41,1.39,1.39,0,1,1,0-2.78A1.37,1.37,0,0,1,179.7,58.42Z"/><path class="cls-5" d="M184.83,59.83a1.39,1.39,0,0,1,0-2.78,1.39,1.39,0,1,1,0,2.78Z"/><path class="cls-5" d="M92.55,12.86A1.36,1.36,0,0,1,94,11.59,1.42,1.42,0,0,1,95.27,13a1.4,1.4,0,0,1-1.44,1.32A1.35,1.35,0,0,1,92.55,12.86Z"/><path class="cls-5" d="M87.31-1.39A1.33,1.33,0,0,1,88.71,0a1.37,1.37,0,0,1-1.33,1.42A1.43,1.43,0,0,1,86,0,1.39,1.39,0,0,1,87.31-1.39Z"/><path class="cls-5" d="M165.29,59.82a1.38,1.38,0,0,1,.11-2.76,1.42,1.42,0,0,1,1.33,1.44A1.4,1.4,0,0,1,165.29,59.82Z"/><path class="cls-5" d="M192.77,58.48a1.35,1.35,0,0,1-1.4,1.34A1.4,1.4,0,0,1,190,58.4a1.41,1.41,0,0,1,1.43-1.34A1.35,1.35,0,0,1,192.77,58.48Z"/><path class="cls-5" d="M199.18,58.42a1.34,1.34,0,0,1-1.37,1.37,1.37,1.37,0,0,1-1.32-1.32,1.41,1.41,0,0,1,1.39-1.39A1.37,1.37,0,0,1,199.18,58.42Z"/><path class="cls-5" d="M157.57,58.48a1.35,1.35,0,0,1,1.36-1.39,1.36,1.36,0,1,1-.05,2.71A1.36,1.36,0,0,1,157.57,58.48Z"/><path class="cls-5" d="M127.75,45.49a1.33,1.33,0,0,1-1.4,1.33A1.4,1.4,0,0,1,125,45.5a1.37,1.37,0,0,1,1.37-1.38A1.32,1.32,0,0,1,127.75,45.49Z"/><path class="cls-5" d="M139.37,53.26a1.34,1.34,0,0,1-1.34-1.4,1.31,1.31,0,0,1,1.31-1.31,1.38,1.38,0,0,1,1.42,1.33A1.42,1.42,0,0,1,139.37,53.26Z"/><path class="cls-5" d="M230.4,46.79a1.33,1.33,0,1,1-.1-2.65,1.33,1.33,0,1,1,.1,2.65Z"/><path class="cls-5" d="M218.71,51.92a1.33,1.33,0,0,1-1.31,1.31A1.37,1.37,0,0,1,216,51.87a1.36,1.36,0,0,1,1.44-1.3A1.31,1.31,0,0,1,218.71,51.92Z"/><path class="cls-5" d="M151.07,58.43a1.31,1.31,0,0,1,1.3-1.3,1.32,1.32,0,0,1,0,2.63A1.32,1.32,0,0,1,151.07,58.43Z"/><path class="cls-5" d="M106.84,31.17a1.32,1.32,0,1,1-1.26,1.35A1.31,1.31,0,0,1,106.84,31.17Z"/><path class="cls-5" d="M100.44,27.21a1.28,1.28,0,0,1,0-2.55,1.28,1.28,0,1,1,0,2.55Z"/><path class="cls-5" d="M87.35,7.68a1.24,1.24,0,0,1-1.27-1.3,1.25,1.25,0,0,1,1.21-1.25,1.31,1.31,0,0,1,1.35,1.25A1.29,1.29,0,0,1,87.35,7.68Z"/><path class="cls-5" d="M114.69,38.92a1.29,1.29,0,0,1-1.3,1.29,1.29,1.29,0,0,1,0-2.58A1.27,1.27,0,0,1,114.69,38.92Z"/><path class="cls-5" d="M205.66,58.46a1.3,1.3,0,0,1-1.32,1.28,1.3,1.3,0,0,1,0-2.59A1.28,1.28,0,0,1,205.66,58.46Z"/><path class="cls-5" d="M222.56,51.93a1.25,1.25,0,0,1,1.27-1.3,1.31,1.31,0,0,1,1.25,1.23,1.28,1.28,0,0,1-1.29,1.29A1.22,1.22,0,0,1,222.56,51.93Z"/><path class="cls-5" d="M131.59,51.87a1.25,1.25,0,0,1,1.21-1.24,1.3,1.3,0,0,1,1.31,1.29,1.28,1.28,0,0,1-1.35,1.23A1.22,1.22,0,0,1,131.59,51.87Z"/><path class="cls-5" d="M95.13,19.48A1.24,1.24,0,0,1,94,20.75a1.3,1.3,0,0,1-1.32-1.27,1.32,1.32,0,0,1,1.26-1.23A1.27,1.27,0,0,1,95.13,19.48Z"/><path class="cls-5" d="M121.08,45.43a1.24,1.24,0,0,1-1.17,1.28,1.3,1.3,0,0,1-1.32-1.27,1.33,1.33,0,0,1,1.25-1.23A1.26,1.26,0,0,1,121.08,45.43Z"/><path class="cls-5" d="M238.13,45.48a1.26,1.26,0,0,1-1.27,1.21,1.24,1.24,0,0,1-1.18-1.3,1.25,1.25,0,0,1,1.2-1.16A1.29,1.29,0,0,1,238.13,45.48Z"/><path class="cls-5" d="M145.87,59.64a1.2,1.2,0,1,1,.17-2.39,1.2,1.2,0,1,1-.17,2.39Z"/><path class="cls-5" d="M210.82,59.65a1.21,1.21,0,1,1,.07-2.41,1.21,1.21,0,0,1-.07,2.41Z"/><path class="cls-5" d="M178.32,63.81a1.19,1.19,0,0,1,0,2.37A1.23,1.23,0,0,1,177.13,65,1.21,1.21,0,0,1,178.32,63.81Z"/><path class="cls-5" d="M88.5,13a1.11,1.11,0,0,1-1.17,1.12A1.17,1.17,0,0,1,86.16,13a1.19,1.19,0,0,1,1.25-1.19A1.13,1.13,0,0,1,88.5,13Z"/><path class="cls-5" d="M126.39,53.06a1.22,1.22,0,0,1-1.16-1.17,1.18,1.18,0,0,1,1.17-1.14,1.13,1.13,0,0,1,1.14,1.15A1.16,1.16,0,0,1,126.39,53.06Z"/><path class="cls-5" d="M108,38.92a1.12,1.12,0,0,1-1.06,1.13,1.14,1.14,0,1,1,0-2.27A1.13,1.13,0,0,1,108,38.92Z"/><path class="cls-5" d="M80.92-1.17A1.12,1.12,0,0,1,82.05,0,1.14,1.14,0,0,1,80.9,1.14,1.2,1.2,0,0,1,79.75,0,1.18,1.18,0,0,1,80.92-1.17Z"/><path class="cls-5" d="M139.38,57.3a1.14,1.14,0,1,1,0,2.28,1.12,1.12,0,0,1-1.12-1.19A1.14,1.14,0,0,1,139.38,57.3Z"/><path class="cls-5" d="M100.39,31.35a1.14,1.14,0,0,1,.1,2.27,1.14,1.14,0,1,1-.1-2.27Z"/><path class="cls-5" d="M218.49,58.42a1.13,1.13,0,0,1-1,1.16,1.19,1.19,0,0,1-1.23-1.11,1.21,1.21,0,0,1,1.18-1.17A1.15,1.15,0,0,1,218.49,58.42Z"/><path class="cls-5" d="M171.89,63.84a1.16,1.16,0,0,1,0,2.31A1.2,1.2,0,0,1,170.72,65,1.17,1.17,0,0,1,171.89,63.84Z"/><path class="cls-5" d="M184.82,66.15a1.15,1.15,0,0,1-1.09-1.21,1.12,1.12,0,0,1,1.19-1.09A1.16,1.16,0,0,1,186,65,1.22,1.22,0,0,1,184.82,66.15Z"/><path class="cls-5" d="M230.35,50.78A1.13,1.13,0,0,1,231.49,52,1.15,1.15,0,0,1,230.36,53a1.11,1.11,0,0,1-1.13-1.18A1.09,1.09,0,0,1,230.35,50.78Z"/><path class="cls-5" d="M165.31,66.12a1.12,1.12,0,0,1-1.09-1.1,1.08,1.08,0,0,1,1.15-1.14A1.15,1.15,0,0,1,166.49,65,1.18,1.18,0,0,1,165.31,66.12Z"/><path class="cls-5" d="M191.43,63.88a1.09,1.09,0,0,1,1.1,1.08,1.12,1.12,0,0,1-1.15,1.16,1.15,1.15,0,0,1-1.11-1.1A1.12,1.12,0,0,1,191.43,63.88Z"/><path class="cls-5" d="M160,65a1.1,1.1,0,0,1-1.13,1A1.09,1.09,0,1,1,159,63.9,1.11,1.11,0,0,1,160,65Z"/><path class="cls-5" d="M113.45,46.53a1.07,1.07,0,1,1,1-1.1A1.06,1.06,0,0,1,113.45,46.53Z"/><path class="cls-5" d="M95,25.93a1.09,1.09,0,1,1-1.1-1.06A1.06,1.06,0,0,1,95,25.93Z"/><path class="cls-5" d="M198.93,65a1.09,1.09,0,0,1-2.17,0,1.09,1.09,0,0,1,2.17,0Z"/><path class="cls-5" d="M79.87,6.38a1,1,0,0,1,1-1A1.07,1.07,0,0,1,82,6.44a1,1,0,0,1-1.15,1A1,1,0,0,1,79.87,6.38Z"/><path class="cls-5" d="M133.88,58.48a1.08,1.08,0,0,1-1,1,1,1,0,0,1-1-1.12,1,1,0,0,1,1.08-.94A1.06,1.06,0,0,1,133.88,58.48Z"/><path class="cls-5" d="M88.4,19.5a1.08,1.08,0,0,1-1,1,1,1,0,0,1-1-1,1,1,0,0,1,1-1.09A1.08,1.08,0,0,1,88.4,19.5Z"/><path class="cls-5" d="M152.32,64a1,1,0,1,1,0,2.06,1,1,0,0,1,0-2.06Z"/><path class="cls-5" d="M205.41,65.05a1,1,0,0,1-1,1,1,1,0,1,1,.11-2.06A1,1,0,0,1,205.41,65.05Z"/><path class="cls-5" d="M119.84,52.91a1.06,1.06,0,0,1-1-1,1.07,1.07,0,0,1,1-1,1,1,0,0,1,0,2Z"/><path class="cls-5" d="M236.87,50.9a1.05,1.05,0,0,1,1,.92,1,1,0,0,1-1,1.07,1,1,0,0,1-1-.91A1,1,0,0,1,236.87,50.9Z"/><path class="cls-5" d="M224.82,58.48a1,1,0,0,1-1.08,1,1,1,0,0,1,.07-2A1,1,0,0,1,224.82,58.48Z"/><path class="cls-5" d="M145.89,64a1,1,0,0,1,1,.9,1,1,0,0,1-.85,1,1,1,0,1,1-.12-1.93Z"/><path class="cls-5" d="M211.78,65a1,1,0,0,1-.91,1,1,1,0,1,1,0-1.92A1,1,0,0,1,211.78,65Z"/><path class="cls-5" d="M80.89,12a.91.91,0,0,1,.93.94.89.89,0,0,1-.84.91A.93.93,0,1,1,80.89,12Z"/><path class="cls-5" d="M100.4,38a.91.91,0,0,1,.95.92.89.89,0,0,1-.82.92.93.93,0,0,1-1-.85A1,1,0,0,1,100.4,38Z"/><path class="cls-5" d="M93.93,33.38a.89.89,0,0,1-.92-.81.92.92,0,0,1,.86-1,1,1,0,0,1,.94.82A.94.94,0,0,1,93.93,33.38Z"/><path class="cls-5" d="M127.28,58.42a.88.88,0,0,1-.8.92.93.93,0,0,1-1-.87,1,1,0,0,1,.94-.94A.92.92,0,0,1,127.28,58.42Z"/><path class="cls-5" d="M75.28,0a1,1,0,0,1-.85.92.87.87,0,0,1-.94-.79.86.86,0,0,1,.87-1A.93.93,0,0,1,75.28,0Z"/><path class="cls-5" d="M177.4,71.4a.91.91,0,0,1,.91-.85.85.85,0,0,1,.89,1,.86.86,0,0,1-.93.81A1,1,0,0,1,177.4,71.4Z"/><path class="cls-5" d="M106.93,46.36a1,1,0,0,1-1-.81.89.89,0,0,1,.9-1,.85.85,0,0,1,.89.85A.88.88,0,0,1,106.93,46.36Z"/><path class="cls-5" d="M230.33,59.32a.88.88,0,0,1-.84-.89.9.9,0,0,1,.88-.87.88.88,0,0,1,0,1.76Z"/><path class="cls-5" d="M172.74,71.53a.86.86,0,1,1-.75-1A.84.84,0,0,1,172.74,71.53Z"/><path class="cls-5" d="M140.25,65a.87.87,0,0,1-.9.82.85.85,0,1,1,.06-1.7A.86.86,0,0,1,140.25,65Z"/><path class="cls-5" d="M185.74,71.45a.87.87,0,0,1-.91.82.85.85,0,1,1,.07-1.69A.85.85,0,0,1,185.74,71.45Z"/><path class="cls-5" d="M217.42,65.81a.78.78,0,0,1-.86-.72.8.8,0,0,1,.77-.92.82.82,0,1,1,.09,1.64Z"/><path class="cls-5" d="M87.35,26.76a.79.79,0,0,1-.82-.77.81.81,0,0,1,.83-.88.83.83,0,1,1,0,1.65Z"/><path class="cls-5" d="M114.24,51.91a.79.79,0,0,1-.78.8.83.83,0,0,1-.88-.83.85.85,0,0,1,.91-.81A.81.81,0,0,1,114.24,51.91Z"/><path class="cls-5" d="M166.16,71.46a.78.78,0,0,1-.81.78.82.82,0,0,1-.85-.86.84.84,0,0,1,.93-.78A.81.81,0,0,1,166.16,71.46Z"/><path class="cls-5" d="M192.25,71.48a.85.85,0,0,1-.95.76.82.82,0,0,1,.12-1.64A.83.83,0,0,1,192.25,71.48Z"/><path class="cls-5" d="M159.69,71.39a.77.77,0,0,1-.76.83.8.8,0,1,1-.06-1.6A.78.78,0,0,1,159.69,71.39Z"/><path class="cls-5" d="M197.79,72.22a.8.8,0,0,1,.12-1.6.85.85,0,0,1,.75.86A.84.84,0,0,1,197.79,72.22Z"/><path class="cls-5" d="M75.13,6.42a.77.77,0,0,1-1.54,0,.81.81,0,0,1,.76-.83A.78.78,0,0,1,75.13,6.42Z"/><path class="cls-5" d="M81.91,19.44c-.41.36-.63.68-.93.79s-.82-.31-.8-.73.3-.76.71-.71S81.45,19.13,81.91,19.44Z"/><path class="cls-5" d="M153.35,71.42c-.42.33-.66.64-1,.73s-.8-.36-.75-.78a.66.66,0,0,1,.75-.67C152.67,70.75,152.92,71.09,153.35,71.42Z"/><path class="cls-5" d="M133.82,65.05c-.45.31-.71.62-1,.66s-.69-.27-.71-.71.42-.87.8-.73S133.41,64.69,133.82,65.05Z"/><path class="cls-5" d="M120.59,58.52a.7.7,0,0,1-.77.64.72.72,0,1,1,.08-1.43A.72.72,0,0,1,120.59,58.52Z"/><path class="cls-5" d="M224.48,65c0,.39-.41.77-.74.63a1.22,1.22,0,0,1-.63-.67c-.11-.34.32-.71.7-.71A.68.68,0,0,1,224.48,65Z"/><path class="cls-5" d="M205.39,71.44a4.41,4.41,0,0,1-1,.67c-.36.08-.67-.35-.64-.75s.31-.68.67-.61S204.93,71.11,205.39,71.44Z"/><path class="cls-5" d="M237.57,58.5c0,.41-.39.75-.75.6a1.16,1.16,0,0,1-.61-.66c-.1-.35.33-.7.71-.69A.68.68,0,0,1,237.57,58.5Z"/><path class="cls-5" d="M94.81,38.87c-.38.32-.59.61-.86.68s-.63-.16-.7-.54.27-.83.64-.74A3.65,3.65,0,0,1,94.81,38.87Z"/><path class="cls-5" d="M88.25,32.47c-.43.31-.66.59-.92.62a.52.52,0,0,1-.57-.65c0-.22.36-.55.55-.55S87.81,32.18,88.25,32.47Z"/><path class="cls-5" d="M101.1,45.64c-.16.12-.38.4-.65.45a.57.57,0,0,1-.67-.61.6.6,0,0,1,.64-.65C100.83,44.82,101.06,45,101.1,45.64Z"/><path class="cls-5" d="M211,72c-.58-.05-.86-.29-.75-.67a.86.86,0,0,1,.59-.52c.41-.08.65.25.58.63C211.36,71.71,211.1,71.9,211,72Z"/><path class="cls-5" d="M146.87,71.45c-.5.28-.77.54-1,.53a.76.76,0,0,1-.51-.58.77.77,0,0,1,.54-.54C146.14,70.86,146.39,71.14,146.87,71.45Z"/><path class="cls-5" d="M107.82,51.91c-.5.29-.76.55-1,.54a.76.76,0,0,1-.52-.56.8.8,0,0,1,.54-.56C107.08,51.33,107.33,51.61,107.82,51.91Z"/><path class="cls-5" d="M74.42,12.13c.24.41.51.66.47.85s-.36.37-.56.56c-.18-.2-.49-.4-.51-.61S74.11,12.51,74.42,12.13Z"/><path class="cls-5" d="M230.24,64.23c.3.32.54.46.6.66a.44.44,0,0,1-.44.61.71.71,0,0,1-.54-.41C229.84,64.87,230.05,64.62,230.24,64.23Z"/><path class="cls-5" d="M126.44,64.23c.22.36.46.59.46.81s-.32.33-.5.49c-.17-.2-.44-.38-.48-.6S126.17,64.57,126.44,64.23Z"/><path class="cls-5" d="M80.89,26.7c-.24-.37-.51-.61-.47-.75s.35-.37.55-.55c.16.18.47.37.46.53S81.15,26.35,80.89,26.7Z"/><path class="cls-5" d="M68.63,0c-.28.24-.49.54-.63.51s-.41-.32-.61-.5c.2-.18.38-.45.6-.5S68.35-.26,68.63,0Z"/><path class="cls-5" d="M140.09,71.4c-.35.24-.54.46-.74.47s-.4-.27-.4-.43.23-.47.36-.47S139.72,71.18,140.09,71.4Z"/><path class="cls-5" d="M217.29,70.77c.25.27.52.44.5.57s-.26.38-.4.57c-.16-.14-.46-.26-.46-.4S217.12,71.1,217.29,70.77Z"/><path class="cls-5" d="M113.42,57.8c.21.29.43.47.45.67s-.31.43-.4.4a.85.85,0,0,1-.47-.46C113,58.3,113.2,58.09,113.42,57.8Z"/><path class="cls-5" d="M172.46,78c-.24.16-.45.4-.56.36s-.33-.31-.49-.48c.19-.14.37-.35.58-.38S172.26,77.81,172.46,78Z"/><path class="cls-5" d="M178.89,78c-.24.16-.45.4-.56.36s-.33-.31-.49-.48c.19-.14.37-.35.58-.38S178.69,77.81,178.89,78Z"/><path class="cls-5" d="M184.88,77.33c.2.29.41.48.43.67s-.32.43-.41.39a.8.8,0,0,1-.46-.46C184.41,77.81,184.66,77.62,184.88,77.33Z"/><path class="cls-5" d="M165.3,78.53c-.16-.26-.36-.44-.34-.58s.26-.27.41-.4c.13.15.36.29.37.45S165.51,78.3,165.3,78.53Z"/><path class="cls-5" d="M191.45,77.4c.16.26.36.44.34.59s-.27.27-.41.4c-.13-.15-.36-.3-.37-.45S191.24,77.64,191.45,77.4Z"/><path class="cls-5" d="M68.41,6.5c-.27.11-.42.22-.56.21s-.28-.26-.26-.29.24-.31.37-.32S68.19,6.3,68.41,6.5Z"/><path class="cls-5" d="M120.32,65c-.24.12-.38.25-.53.25s-.29-.22-.27-.27.2-.33.33-.35S120.1,64.86,120.32,65Z"/><path class="cls-5" d="M93.93,45.94c-.18-.23-.38-.37-.37-.48s.22-.26.37-.31.27.17.27.27S94.06,45.7,93.93,45.94Z"/><path class="cls-5" d="M198.35,78c-.27.14-.44.3-.56.27a.53.53,0,0,1-.24-.42c0-.07.23-.25.31-.23S198.13,77.84,198.35,78Z"/><path class="cls-5" d="M74.51,19.14c.06.15.17.3.15.44s-.24.27-.29.24-.31-.21-.33-.34.12-.33.18-.5Z"/><path class="cls-5" d="M133.33,71.37c-.23.18-.34.33-.49.37s-.31-.16-.3-.23.13-.37.24-.39S133.07,71.24,133.33,71.37Z"/><path class="cls-5" d="M158.86,78.47c-.14-.26-.31-.43-.29-.55s.26-.23.41-.26.25.22.24.31S159,78.24,158.86,78.47Z"/><path class="cls-5" d="M100.39,51.47c.16.21.32.33.31.42s-.17.21-.3.27-.2-.14-.2-.21A1.75,1.75,0,0,1,100.39,51.47Z"/><path class="cls-5" d="M87.3,39.19c-.08-.09-.21-.21-.2-.24a1.15,1.15,0,0,1,.27-.27l.22.32Z"/></g><g class="cls-4"><path class="cls-5" d="M38.87,353.13a2.53,2.53,0,0,1-2.48,2.61,2.56,2.56,0,1,1-.1-5.11A2.52,2.52,0,0,1,38.87,353.13Z"/><path class="cls-5" d="M42.85,350.65a2.56,2.56,0,0,1,2.59,2.52,2.59,2.59,0,0,1-2.56,2.56,2.52,2.52,0,0,1-2.51-2.47A2.5,2.5,0,0,1,42.85,350.65Z"/><path class="cls-5" d="M32.43,353.2a2.53,2.53,0,0,1-2.57,2.53,2.58,2.58,0,0,1-2.5-2.51,2.55,2.55,0,0,1,2.54-2.57A2.49,2.49,0,0,1,32.43,353.2Z"/><path class="cls-5" d="M51.94,353.22a2.49,2.49,0,0,1-2.49,2.48,2.57,2.57,0,0,1-2.55-2.55,2.54,2.54,0,0,1,2.51-2.47A2.47,2.47,0,0,1,51.94,353.22Z"/><path class="cls-5" d="M20.86,353.13a2.47,2.47,0,0,1,2.5-2.45,2.54,2.54,0,0,1,2.54,2.55,2.57,2.57,0,0,1-2.53,2.47A2.49,2.49,0,0,1,20.86,353.13Z"/><path class="cls-5" d="M17,355.65a2.47,2.47,0,1,1,0-4.94,2.47,2.47,0,1,1,0,4.94Z"/><path class="cls-5" d="M58.34,353.1a2.48,2.48,0,1,1-2.55-2.37A2.45,2.45,0,0,1,58.34,353.1Z"/><path class="cls-5" d="M10.4,355.6a2.42,2.42,0,0,1,0-4.84,2.42,2.42,0,1,1,0,4.84Z"/><path class="cls-5" d="M64.82,353.22a2.37,2.37,0,0,1-2.41,2.37A2.42,2.42,0,0,1,60,353.2a2.45,2.45,0,0,1,2.5-2.44A2.4,2.4,0,0,1,64.82,353.22Z"/><path class="cls-5" d="M36.22,349.06A2.41,2.41,0,0,1,34,346.43a2.37,2.37,0,0,1,2.58-2.2,2.43,2.43,0,0,1,2.24,2.56A2.47,2.47,0,0,1,36.22,349.06Z"/><path class="cls-5" d="M27.52,346.62a2.35,2.35,0,0,1,2.4-2.38,2.43,2.43,0,0,1,2.42,2.41,2.45,2.45,0,0,1-2.44,2.4A2.38,2.38,0,0,1,27.52,346.62Z"/><path class="cls-5" d="M45.28,346.67a2.39,2.39,0,0,1-2.42,2.38,2.46,2.46,0,0,1-2.4-2.44,2.43,2.43,0,0,1,2.46-2.37A2.35,2.35,0,0,1,45.28,346.67Z"/><path class="cls-5" d="M23.35,344.26a2.38,2.38,0,0,1,.08,4.75,2.38,2.38,0,1,1-.08-4.75Z"/><path class="cls-5" d="M47.06,346.64a2.34,2.34,0,0,1,2.4-2.38,2.38,2.38,0,1,1,0,4.75A2.35,2.35,0,0,1,47.06,346.64Z"/><path class="cls-5" d="M3.91,355.56A2.38,2.38,0,0,1,4,350.8a2.38,2.38,0,0,1-.08,4.76Z"/><path class="cls-5" d="M71.2,353.18a2.36,2.36,0,1,1-2.33-2.37A2.38,2.38,0,0,1,71.2,353.18Z"/><path class="cls-5" d="M17,349a2.34,2.34,0,1,1,2.31-2.35A2.32,2.32,0,0,1,17,349Z"/><path class="cls-5" d="M55.88,349a2.33,2.33,0,1,1,2.32-2.32A2.32,2.32,0,0,1,55.88,349Z"/><path class="cls-5" d="M12.67,346.59a2.26,2.26,0,0,1-2.27,2.35,2.31,2.31,0,0,1-.1-4.61A2.27,2.27,0,0,1,12.67,346.59Z"/><path class="cls-5" d="M60.14,346.69a2.27,2.27,0,0,1,2.28-2.36,2.3,2.3,0,1,1,0,4.6A2.25,2.25,0,0,1,60.14,346.69Z"/><path class="cls-5" d="M38.61,340.15a2.25,2.25,0,0,1-2.28,2.34,2.29,2.29,0,1,1,0-4.58A2.26,2.26,0,0,1,38.61,340.15Z"/><path class="cls-5" d="M29.89,342.48a2.28,2.28,0,1,1,.09-4.56,2.28,2.28,0,0,1-.09,4.56Z"/><path class="cls-5" d="M45.18,340.23a2.32,2.32,0,0,1-2.29,2.25,2.28,2.28,0,1,1,.06-4.56A2.33,2.33,0,0,1,45.18,340.23Z"/><path class="cls-5" d="M77.66,353.23a2.25,2.25,0,0,1-2.29,2.22,2.26,2.26,0,1,1,.1-4.52A2.21,2.21,0,0,1,77.66,353.23Z"/><path class="cls-5" d="M25.62,340.15a2.31,2.31,0,0,1-2.21,2.32,2.27,2.27,0,0,1-.1-4.54A2.31,2.31,0,0,1,25.62,340.15Z"/><path class="cls-5" d="M51.68,340.2a2.27,2.27,0,0,1-2.24,2.27,2.27,2.27,0,1,1,2.24-2.27Z"/><path class="cls-5" d="M6.19,346.62a2.26,2.26,0,0,1-2.25,2.27,2.26,2.26,0,0,1,0-4.51A2.28,2.28,0,0,1,6.19,346.62Z"/><path class="cls-5" d="M19.15,340.25A2.23,2.23,0,1,1,16.92,338,2.26,2.26,0,0,1,19.15,340.25Z"/><path class="cls-5" d="M68.86,348.88a2.25,2.25,0,0,1,0-4.49,2.25,2.25,0,0,1,0,4.49Z"/><path class="cls-5" d="M55.83,342.43a2.23,2.23,0,0,1,.08-4.46,2.23,2.23,0,0,1-.08,4.46Z"/><path class="cls-5" d="M84,353.2a2.21,2.21,0,0,1-2.2,2.16,2.18,2.18,0,0,1,0-4.36A2.22,2.22,0,0,1,84,353.2Z"/><path class="cls-5" d="M8.22,340.13A2.13,2.13,0,0,1,10.46,338a2.19,2.19,0,0,1,2.12,2.24,2.23,2.23,0,0,1-2.27,2.11A2.17,2.17,0,0,1,8.22,340.13Z"/><path class="cls-5" d="M62.4,338.05a2.12,2.12,0,0,1,2.17,2.17,2.14,2.14,0,0,1-2.09,2.15,2.2,2.2,0,0,1-2.25-2.13A2.17,2.17,0,0,1,62.4,338.05Z"/><path class="cls-5" d="M38.5,333.71a2.2,2.2,0,0,1-2.27,2.1,2.16,2.16,0,0,1,.22-4.31A2.21,2.21,0,0,1,38.5,333.71Z"/><path class="cls-5" d="M75.43,348.78a2.14,2.14,0,1,1-.07-4.28,2.16,2.16,0,0,1,2.21,2.16A2.19,2.19,0,0,1,75.43,348.78Z"/><path class="cls-5" d="M32.05,333.7a2.18,2.18,0,0,1-2.16,2.1,2.15,2.15,0,1,1,.09-4.29A2.19,2.19,0,0,1,32.05,333.7Z"/><path class="cls-5" d="M42.94,335.8A2.15,2.15,0,1,1,45,333.63,2.16,2.16,0,0,1,42.94,335.8Z"/><path class="cls-5" d="M23.31,331.52a2.14,2.14,0,1,1-2.06,2.16A2.15,2.15,0,0,1,23.31,331.52Z"/><path class="cls-5" d="M4,338.1a2.09,2.09,0,0,1,2.09,2.14,2.07,2.07,0,0,1-2.15,2.06A2.1,2.1,0,1,1,4,338.1Z"/><path class="cls-5" d="M71,340.19a2.09,2.09,0,0,1-2.1,2.1,2.09,2.09,0,1,1,0-4.18A2.09,2.09,0,0,1,71,340.19Z"/><path class="cls-5" d="M51.53,333.6a2.13,2.13,0,0,1-2,2.18,2.17,2.17,0,0,1-2.17-2.07,2.14,2.14,0,0,1,2.06-2.17A2.11,2.11,0,0,1,51.53,333.6Z"/><path class="cls-5" d="M19,333.68a2.13,2.13,0,0,1-2.17,2.07,2.08,2.08,0,0,1-2-2.11A2,2,0,0,1,17,331.58,2.09,2.09,0,0,1,19,333.68Z"/><path class="cls-5" d="M88.32,351.1a2.09,2.09,0,1,1,.12,4.17,2.09,2.09,0,0,1-.12-4.17Z"/><path class="cls-5" d="M81.82,344.56a2.06,2.06,0,0,1,2.06,2,2,2,0,0,1-2,2.13,2.07,2.07,0,1,1,0-4.14Z"/><path class="cls-5" d="M55.84,335.73a2.11,2.11,0,0,1-2.05-2.16,2.08,2.08,0,0,1,2.11-2,2,2,0,0,1,2,2.14A2.05,2.05,0,0,1,55.84,335.73Z"/><path class="cls-5" d="M77.42,340.23a2,2,0,0,1-2,2,2,2,0,1,1,0-4.08A2.05,2.05,0,0,1,77.42,340.23Z"/><path class="cls-5" d="M64.46,333.6a2,2,0,0,1-2,2.07,2,2,0,1,1-.11-4A2,2,0,0,1,64.46,333.6Z"/><path class="cls-5" d="M12.41,333.68a2,2,0,0,1-2.05,2,2,2,0,1,1,0-4A2,2,0,0,1,12.41,333.68Z"/><path class="cls-5" d="M36.36,325.24a2,2,0,1,1-.09,4,2,2,0,0,1,.09-4Z"/><path class="cls-5" d="M44.85,327.17a1.94,1.94,0,0,1-1.88,2,2,2,0,1,1-.11-3.94A1.94,1.94,0,0,1,44.85,327.17Z"/><path class="cls-5" d="M5.94,333.64a2,2,0,0,1-1.94,2,2,2,0,1,1,0-3.94A2,2,0,0,1,5.94,333.64Z"/><path class="cls-5" d="M29.86,325.25a2,2,0,1,1,.05,3.94,1.92,1.92,0,0,1-2-1.94A1.94,1.94,0,0,1,29.86,325.25Z"/><path class="cls-5" d="M90.32,346.67a2,2,0,0,1-2,1.94,2,2,0,0,1-1.94-2,2,2,0,0,1,2-1.94A1.94,1.94,0,0,1,90.32,346.67Z"/><path class="cls-5" d="M93,353.17a1.94,1.94,0,0,1,2-1.95,2,2,0,0,1,2,2,2,2,0,0,1-2,1.95A1.93,1.93,0,0,1,93,353.17Z"/><path class="cls-5" d="M70.79,333.62a1.91,1.91,0,0,1-1.91,2,2,2,0,0,1-2-1.92,2,2,0,0,1,1.94-2A1.94,1.94,0,0,1,70.79,333.62Z"/><path class="cls-5" d="M49.38,329.18a1.92,1.92,0,0,1-1.89-2,1.94,1.94,0,0,1,2-1.91,2,2,0,1,1-.11,3.92Z"/><path class="cls-5" d="M25.31,327.24a1.92,1.92,0,0,1-2,1.94,2,2,0,0,1-2-2,2,2,0,0,1,2-1.94A1.94,1.94,0,0,1,25.31,327.24Z"/><path class="cls-5" d="M81.8,342.16a2,2,0,0,1-1.91-2,1.89,1.89,0,0,1,1.91-1.88,2,2,0,0,1,2,1.93A2,2,0,0,1,81.8,342.16Z"/><path class="cls-5" d="M18.84,327.19a1.92,1.92,0,0,1-1.94,2,1.93,1.93,0,1,1,.06-3.86A1.91,1.91,0,0,1,18.84,327.19Z"/><path class="cls-5" d="M55.83,325.29a1.93,1.93,0,1,1,.08,3.86A1.9,1.9,0,0,1,54,327.32,1.93,1.93,0,0,1,55.83,325.29Z"/><path class="cls-5" d="M77.29,333.61a1.9,1.9,0,1,1-2-1.87A1.93,1.93,0,0,1,77.29,333.61Z"/><path class="cls-5" d="M10.43,329.12a1.9,1.9,0,0,1-.1-3.79,1.9,1.9,0,0,1,.1,3.79Z"/><path class="cls-5" d="M64.3,327.22a1.88,1.88,0,1,1-3.76,0,1.89,1.89,0,0,1,1.87-1.9A1.91,1.91,0,0,1,64.3,327.22Z"/><path class="cls-5" d="M95,348.48a1.87,1.87,0,0,1-1.9-1.87,1.89,1.89,0,0,1,1.83-1.83,1.85,1.85,0,0,1,.07,3.7Z"/><path class="cls-5" d="M103.18,353.15a1.84,1.84,0,0,1-1.77,1.88,1.88,1.88,0,0,1-1.91-1.87,1.86,1.86,0,0,1,1.84-1.81A1.81,1.81,0,0,1,103.18,353.15Z"/><path class="cls-5" d="M90.23,340.23A1.86,1.86,0,0,1,88.38,342a1.84,1.84,0,1,1,.05-3.68A1.89,1.89,0,0,1,90.23,340.23Z"/><path class="cls-5" d="M38.15,320.69a1.79,1.79,0,0,1-1.79,1.81,1.86,1.86,0,0,1-1.86-1.78,1.89,1.89,0,0,1,1.88-1.88A1.82,1.82,0,0,1,38.15,320.69Z"/><path class="cls-5" d="M5.76,327.19A1.8,1.8,0,0,1,4,329.05a1.86,1.86,0,0,1-1.87-1.79,1.82,1.82,0,0,1,1.8-1.84A1.77,1.77,0,0,1,5.76,327.19Z"/><path class="cls-5" d="M29.92,318.85a1.82,1.82,0,0,1,1.79,1.83,1.8,1.8,0,0,1-1.81,1.81,1.86,1.86,0,0,1-1.82-1.82A1.89,1.89,0,0,1,29.92,318.85Z"/><path class="cls-5" d="M42.92,318.85a1.82,1.82,0,1,1-.06,3.64,1.8,1.8,0,0,1-1.77-1.85A1.82,1.82,0,0,1,42.92,318.85Z"/><path class="cls-5" d="M81.82,335.45a1.8,1.8,0,1,1,0-3.59,1.8,1.8,0,1,1,0,3.59Z"/><path class="cls-5" d="M23.5,318.87a1.85,1.85,0,0,1,1.66,2,1.8,1.8,0,1,1-1.66-2Z"/><path class="cls-5" d="M49.48,318.86a1.84,1.84,0,0,1,1.75,1.89,1.81,1.81,0,0,1-1.89,1.73,1.85,1.85,0,0,1-1.71-1.82A1.87,1.87,0,0,1,49.48,318.86Z"/><path class="cls-5" d="M68.89,325.43a1.8,1.8,0,0,1,1.78,1.84A1.82,1.82,0,0,1,68.81,329a1.8,1.8,0,1,1,.08-3.59Z"/><path class="cls-5" d="M17,322.46a1.79,1.79,0,1,1,0-3.57,1.79,1.79,0,0,1,0,3.57Z"/><path class="cls-5" d="M57.63,320.71a1.8,1.8,0,0,1-1.79,1.73,1.77,1.77,0,0,1,.06-3.53A1.8,1.8,0,0,1,57.63,320.71Z"/><path class="cls-5" d="M75.38,325.49a1.73,1.73,0,1,1,0,3.46,1.73,1.73,0,0,1,0-3.46Z"/><path class="cls-5" d="M88.33,331.94a1.71,1.71,0,0,1,1.73,1.62,1.69,1.69,0,0,1-1.65,1.8,1.74,1.74,0,0,1-1.76-1.73A1.77,1.77,0,0,1,88.33,331.94Z"/><path class="cls-5" d="M109.58,353.14a1.7,1.7,0,0,1-1.61,1.74,1.7,1.7,0,1,1-.08-3.4A1.69,1.69,0,0,1,109.58,353.14Z"/><path class="cls-5" d="M12.12,320.65a1.76,1.76,0,0,1-1.73,1.75,1.72,1.72,0,0,1-.06-3.43A1.74,1.74,0,0,1,12.12,320.65Z"/><path class="cls-5" d="M101.39,348.36a1.7,1.7,0,0,1-1.74-1.72,1.67,1.67,0,0,1,1.62-1.71,1.74,1.74,0,0,1,1.82,1.65A1.77,1.77,0,0,1,101.39,348.36Z"/><path class="cls-5" d="M94.9,341.93a1.69,1.69,0,0,1-1.68-1.77,1.67,1.67,0,0,1,1.67-1.67,1.72,1.72,0,1,1,0,3.44Z"/><path class="cls-5" d="M64.11,320.72a1.68,1.68,0,0,1-1.68,1.66,1.75,1.75,0,0,1-1.74-1.74A1.72,1.72,0,0,1,62.51,319,1.65,1.65,0,0,1,64.11,320.72Z"/><path class="cls-5" d="M83.48,327.24a1.66,1.66,0,1,1-1.67-1.69A1.69,1.69,0,0,1,83.48,327.24Z"/><path class="cls-5" d="M5.6,320.64A1.61,1.61,0,0,1,4,322.32,1.65,1.65,0,0,1,3.88,319,1.63,1.63,0,0,1,5.6,320.64Z"/><path class="cls-5" d="M38,314.11a1.66,1.66,0,0,1-1.67,1.68,1.66,1.66,0,0,1,.07-3.32A1.67,1.67,0,0,1,38,314.11Z"/><path class="cls-5" d="M31.52,314.17a1.63,1.63,0,0,1-1.6,1.6,1.68,1.68,0,0,1-1.65-1.68,1.66,1.66,0,0,1,1.62-1.59A1.61,1.61,0,0,1,31.52,314.17Z"/><path class="cls-5" d="M42.85,312.5a1.66,1.66,0,0,1,1.68,1.64,1.68,1.68,0,0,1-1.59,1.63,1.64,1.64,0,0,1-.09-3.27Z"/><path class="cls-5" d="M70.5,320.71a1.64,1.64,0,0,1-1.74,1.59,1.58,1.58,0,0,1-1.54-1.65,1.6,1.6,0,0,1,1.72-1.6A1.64,1.64,0,0,1,70.5,320.71Z"/><path class="cls-5" d="M49.46,312.53a1.57,1.57,0,0,1,1.57,1.6,1.61,1.61,0,0,1-1.56,1.62,1.66,1.66,0,0,1-1.66-1.67A1.63,1.63,0,0,1,49.46,312.53Z"/><path class="cls-5" d="M25,314.17a1.66,1.66,0,0,1-1.64,1.58A1.61,1.61,0,0,1,21.77,314a1.57,1.57,0,0,1,1.67-1.5A1.64,1.64,0,0,1,25,314.17Z"/><path class="cls-5" d="M102.93,340.22a1.57,1.57,0,0,1-1.6,1.58,1.63,1.63,0,0,1-1.59-1.62,1.66,1.66,0,0,1,1.63-1.58A1.59,1.59,0,0,1,102.93,340.22Z"/><path class="cls-5" d="M94.91,332.08a1.54,1.54,0,0,1,1.59,1.57,1.57,1.57,0,0,1-1.58,1.6,1.64,1.64,0,0,1-1.61-1.59A1.6,1.6,0,0,1,94.91,332.08Z"/><path class="cls-5" d="M107.85,345a1.64,1.64,0,0,1,1.64,1.57,1.61,1.61,0,0,1-1.59,1.61,1.59,1.59,0,0,1-1.57-1.5A1.61,1.61,0,0,1,107.85,345Z"/><path class="cls-5" d="M77,320.73a1.57,1.57,0,0,1-1.65,1.53,1.59,1.59,0,0,1,.11-3.18A1.6,1.6,0,0,1,77,320.73Z"/><path class="cls-5" d="M18.52,314.09a1.58,1.58,0,0,1-1.58,1.6,1.56,1.56,0,0,1-.08-3.12A1.58,1.58,0,0,1,18.52,314.09Z"/><path class="cls-5" d="M57.44,314.17a1.54,1.54,0,0,1-1.64,1.52,1.56,1.56,0,1,1,.08-3.12A1.54,1.54,0,0,1,57.44,314.17Z"/><path class="cls-5" d="M114.35,354.71a1.53,1.53,0,1,1,1.52-1.52A1.51,1.51,0,0,1,114.35,354.71Z"/><path class="cls-5" d="M88.41,325.7a1.53,1.53,0,1,1-1.58,1.45A1.52,1.52,0,0,1,88.41,325.7Z"/><path class="cls-5" d="M62.45,312.61a1.52,1.52,0,1,1-.08,3,1.51,1.51,0,0,1-1.49-1.55A1.54,1.54,0,0,1,62.45,312.61Z"/><path class="cls-5" d="M10.37,312.61a1.53,1.53,0,0,1,1.55,1.5,1.51,1.51,0,0,1-1.51,1.53,1.52,1.52,0,1,1,0-3Z"/><path class="cls-5" d="M4,312.64a1.57,1.57,0,0,1,1.48,1.48,1.52,1.52,0,0,1-1.57,1.48,1.45,1.45,0,0,1-1.39-1.52A1.48,1.48,0,0,1,4,312.64Z"/><path class="cls-5" d="M81.79,322.14a1.44,1.44,0,0,1-1.42-1.47,1.42,1.42,0,0,1,1.44-1.45,1.49,1.49,0,0,1,1.51,1.53A1.51,1.51,0,0,1,81.79,322.14Z"/><path class="cls-5" d="M68.81,315.6a1.47,1.47,0,0,1,.07-2.94,1.47,1.47,0,0,1-.07,2.94Z"/><path class="cls-5" d="M101.31,335.12a1.47,1.47,0,0,1-1.41-1.51,1.5,1.5,0,0,1,1.5-1.43,1.53,1.53,0,0,1,1.42,1.52A1.5,1.5,0,0,1,101.31,335.12Z"/><path class="cls-5" d="M31.34,307.8a1.44,1.44,0,1,1-2.86-.27,1.44,1.44,0,0,1,2.86.27Z"/><path class="cls-5" d="M107.94,341.64a1.44,1.44,0,1,1-.09-2.88,1.44,1.44,0,1,1,.09,2.88Z"/><path class="cls-5" d="M44.33,307.72a1.44,1.44,0,0,1-2.88,0,1.44,1.44,0,1,1,2.88,0Z"/><path class="cls-5" d="M37.78,307.65a1.48,1.48,0,0,1-1.42,1.5,1.45,1.45,0,1,1,1.42-1.5Z"/><path class="cls-5" d="M22,307.69a1.42,1.42,0,1,1,1.35,1.44A1.46,1.46,0,0,1,22,307.69Z"/><path class="cls-5" d="M96.33,327.18a1.45,1.45,0,0,1-1.42,1.48,1.44,1.44,0,0,1,0-2.87A1.43,1.43,0,0,1,96.33,327.18Z"/><path class="cls-5" d="M50.84,307.65a1.43,1.43,0,0,1-1.42,1.48,1.44,1.44,0,0,1,0-2.87A1.44,1.44,0,0,1,50.84,307.65Z"/><path class="cls-5" d="M115.76,346.59a1.4,1.4,0,0,1-1.32,1.44,1.37,1.37,0,0,1-1.51-1.35,1.38,1.38,0,0,1,1.3-1.45A1.42,1.42,0,0,1,115.76,346.59Z"/><path class="cls-5" d="M15.56,307.71a1.35,1.35,0,0,1,1.37-1.39,1.41,1.41,0,0,1,1.4,1.37,1.45,1.45,0,0,1-1.39,1.4A1.38,1.38,0,0,1,15.56,307.71Z"/><path class="cls-5" d="M75.45,312.75a1.35,1.35,0,0,1,1.31,1.44,1.37,1.37,0,0,1-1.43,1.33A1.44,1.44,0,0,1,74,314.07,1.41,1.41,0,0,1,75.45,312.75Z"/><path class="cls-5" d="M88.36,322A1.34,1.34,0,0,1,87,320.63a1.36,1.36,0,0,1,1.31-1.33,1.42,1.42,0,0,1,1.41,1.36A1.4,1.4,0,0,1,88.36,322Z"/><path class="cls-5" d="M55.87,306.32a1.34,1.34,0,0,1,1.36,1.38,1.37,1.37,0,0,1-1.36,1.39,1.44,1.44,0,0,1-1.4-1.39A1.41,1.41,0,0,1,55.87,306.32Z"/><path class="cls-5" d="M122.23,353.14a1.34,1.34,0,0,1-1.34,1.4,1.4,1.4,0,0,1-1.39-1.37,1.38,1.38,0,0,1,1.3-1.33A1.32,1.32,0,0,1,122.23,353.14Z"/><path class="cls-5" d="M11.7,307.65A1.28,1.28,0,0,1,10.46,309a1.31,1.31,0,1,1-.09-2.61A1.29,1.29,0,0,1,11.7,307.65Z"/><path class="cls-5" d="M62.45,309a1.28,1.28,0,0,1-1.35-1.24A1.33,1.33,0,1,1,62.45,309Z"/><path class="cls-5" d="M107.86,334.94a1.29,1.29,0,1,1,.08-2.57,1.29,1.29,0,1,1-.08,2.57Z"/><path class="cls-5" d="M81.79,312.85a1.3,1.3,0,0,1,1.33,1.27,1.29,1.29,0,0,1-1.31,1.28,1.24,1.24,0,0,1-1.25-1.21A1.26,1.26,0,0,1,81.79,312.85Z"/><path class="cls-5" d="M115.6,340.24a1.29,1.29,0,0,1-1.34,1.26,1.34,1.34,0,0,1-1.22-1.28,1.32,1.32,0,0,1,1.3-1.31A1.28,1.28,0,0,1,115.6,340.24Z"/><path class="cls-5" d="M101.31,328.49a1.27,1.27,0,0,1,0-2.54,1.27,1.27,0,1,1,0,2.54Z"/><path class="cls-5" d="M4,309a1.22,1.22,0,0,1-1.26-1.19,1.24,1.24,0,0,1,1.23-1.34,1.32,1.32,0,0,1,1.29,1.2A1.3,1.3,0,0,1,4,309Z"/><path class="cls-5" d="M70.08,307.7a1.24,1.24,0,0,1-1.21,1.24,1.28,1.28,0,0,1-1.28-1.19,1.3,1.3,0,0,1,1.28-1.31A1.27,1.27,0,0,1,70.08,307.7Z"/><path class="cls-5" d="M119.65,346.68a1.2,1.2,0,0,1,1.18-1.27,1.23,1.23,0,1,1,.1,2.46A1.21,1.21,0,0,1,119.65,346.68Z"/><path class="cls-5" d="M93.69,320.73a1.19,1.19,0,0,1,1.19-1.27,1.25,1.25,0,0,1,1.3,1.17A1.26,1.26,0,0,1,95,321.91,1.22,1.22,0,0,1,93.69,320.73Z"/><path class="cls-5" d="M36.3,302.35a1.2,1.2,0,1,1,.14-2.4,1.2,1.2,0,0,1-.14,2.4Z"/><path class="cls-5" d="M42.87,300a1.18,1.18,0,1,1,0,2.36,1.18,1.18,0,1,1,0-2.36Z"/><path class="cls-5" d="M30,302.33a1.18,1.18,0,1,1-.1-2.36,1.18,1.18,0,1,1,.1,2.36Z"/><path class="cls-5" d="M89.56,314.11a1.23,1.23,0,0,1-1.13,1.21,1.19,1.19,0,1,1,0-2.38A1.22,1.22,0,0,1,89.56,314.11Z"/><path class="cls-5" d="M50.59,301.2a1.11,1.11,0,0,1-1.18,1.11,1.17,1.17,0,0,1-1.16-1.16A1.19,1.19,0,0,1,49.51,300,1.13,1.13,0,0,1,50.59,301.2Z"/><path class="cls-5" d="M23.37,300a1.18,1.18,0,0,1,1.17,1.15,1.17,1.17,0,0,1-1.24,1.18,1.17,1.17,0,0,1,.07-2.33Z"/><path class="cls-5" d="M16.93,300a1.15,1.15,0,1,1,0,2.3,1.15,1.15,0,0,1,0-2.3Z"/><path class="cls-5" d="M57,301.2a1.1,1.1,0,0,1-1.11,1.08,1.17,1.17,0,0,1-1.15-1.18A1.2,1.2,0,0,1,55.86,300,1.12,1.12,0,0,1,57,301.2Z"/><path class="cls-5" d="M76.53,307.66a1.15,1.15,0,0,1-1.1,1.2,1.22,1.22,0,0,1-1.2-1.12,1.17,1.17,0,0,1,1.12-1.19A1.12,1.12,0,0,1,76.53,307.66Z"/><path class="cls-5" d="M128.45,353.14a1.17,1.17,0,0,1-1.1,1.21,1.22,1.22,0,0,1-1.2-1.12,1.16,1.16,0,0,1,1.11-1.19A1.12,1.12,0,0,1,128.45,353.14Z"/><path class="cls-5" d="M114.28,332.54a1.15,1.15,0,0,1,1.2,1.12,1.17,1.17,0,0,1-1.09,1.12,1.11,1.11,0,0,1-1.17-1.12A1.09,1.09,0,0,1,114.28,332.54Z"/><path class="cls-5" d="M107.85,326.11a1.15,1.15,0,0,1,1.2,1.12,1.17,1.17,0,0,1-1.09,1.12,1.12,1.12,0,0,1-1.18-1.13A1.09,1.09,0,0,1,107.85,326.11Z"/><path class="cls-5" d="M101.34,319.58a1.1,1.1,0,0,1,0,2.19,1.1,1.1,0,0,1,0-2.19Z"/><path class="cls-5" d="M10.41,302.25a1.12,1.12,0,0,1-1.1-1.08,1.1,1.1,0,0,1,1-1.12,1.1,1.1,0,0,1,.05,2.2Z"/><path class="cls-5" d="M120.84,341.3a1.11,1.11,0,0,1-1-1.14,1.08,1.08,0,1,1,2.16.08A1.11,1.11,0,0,1,120.84,341.3Z"/><path class="cls-5" d="M63.49,301.15a1.08,1.08,0,1,1-2.16,0,1.13,1.13,0,0,1,1.08-1.1A1.11,1.11,0,0,1,63.49,301.15Z"/><path class="cls-5" d="M82.89,307.65a1.05,1.05,0,0,1-1,1.09,1.05,1.05,0,0,1-.22-2.09A1.06,1.06,0,0,1,82.89,307.65Z"/><path class="cls-5" d="M96,314.17a1.07,1.07,0,0,1-1.06,1A1,1,0,1,1,95,313.1,1.08,1.08,0,0,1,96,314.17Z"/><path class="cls-5" d="M68.85,302.14a1,1,0,1,1,.05-2,1,1,0,0,1-.05,2Z"/><path class="cls-5" d="M127.3,345.65a1,1,0,0,1,1,1,1,1,0,0,1-1.05,1,1,1,0,0,1-1-.95A1,1,0,0,1,127.3,345.65Z"/><path class="cls-5" d="M4,300.16a1,1,0,0,1,1,1,1,1,0,0,1-1.09.94,1,1,0,0,1,.1-2Z"/><path class="cls-5" d="M89.31,307.64a1,1,0,0,1-.91,1,.91.91,0,0,1-.93-.82.9.9,0,0,1,.82-1A1,1,0,0,1,89.31,307.64Z"/><path class="cls-5" d="M43.83,294.68a.94.94,0,0,1-.92.95.89.89,0,0,1-.93-.82.92.92,0,0,1,.85-1A1,1,0,0,1,43.83,294.68Z"/><path class="cls-5" d="M36.33,293.79a.93.93,0,0,1,.07,1.85.93.93,0,0,1-1-.89A1,1,0,0,1,36.33,293.79Z"/><path class="cls-5" d="M30.81,294.71a.87.87,0,0,1-.93.92.94.94,0,0,1-.91-1,1,1,0,0,1,.9-.88A.89.89,0,0,1,30.81,294.71Z"/><path class="cls-5" d="M115.27,327.19a1,1,0,0,1-.92,1,.92.92,0,0,1-.92-.84.9.9,0,0,1,.84-1A1,1,0,0,1,115.27,327.19Z"/><path class="cls-5" d="M24.27,294.71a.93.93,0,0,1-.95.91.9.9,0,0,1-.84-.9.91.91,0,0,1,.83-.91A1,1,0,0,1,24.27,294.71Z"/><path class="cls-5" d="M75.38,302.05a.94.94,0,0,1-.9-1,1,1,0,0,1,.92-.84.92.92,0,0,1,.88,1A.9.9,0,0,1,75.38,302.05Z"/><path class="cls-5" d="M50.32,294.69a.89.89,0,0,1-.81.93.94.94,0,0,1-1-.88,1,1,0,0,1,.95-.93A.91.91,0,0,1,50.32,294.69Z"/><path class="cls-5" d="M108.81,320.68a.94.94,0,0,1-1,.9.91.91,0,0,1,0-1.81A1,1,0,0,1,108.81,320.68Z"/><path class="cls-5" d="M133.81,352.3a.94.94,0,0,1,1,.81.93.93,0,0,1-.92,1,.89.89,0,0,1,0-1.77Z"/><path class="cls-5" d="M121.76,333.65a.86.86,0,0,1-.84.9,1,1,0,0,1-1-.94.93.93,0,0,1,.93-.83A.83.83,0,0,1,121.76,333.65Z"/><path class="cls-5" d="M17.8,294.76a.93.93,0,0,1-.91.84.91.91,0,0,1-.82-.93.89.89,0,0,1,.9-.83A.91.91,0,0,1,17.8,294.76Z"/><path class="cls-5" d="M128.15,340.15a.83.83,0,1,1-1.66.11.85.85,0,0,1,.72-.89A.86.86,0,0,1,128.15,340.15Z"/><path class="cls-5" d="M55.86,293.87a.87.87,0,0,1,.85.89.89.89,0,0,1-.82.81.85.85,0,0,1,0-1.7Z"/><path class="cls-5" d="M102.19,314.24a.85.85,0,0,1-1,.7.81.81,0,0,1-.65-.92.8.8,0,0,1,1-.7A.84.84,0,0,1,102.19,314.24Z"/><path class="cls-5" d="M10.18,294c.65,0,1,.41,1,.82a.74.74,0,0,1-.78.69.68.68,0,0,1-.73-.81A2.22,2.22,0,0,1,10.18,294Z"/><path class="cls-5" d="M82.61,301.33a2.14,2.14,0,0,1-.71.54.67.67,0,0,1-.83-.7.69.69,0,0,1,.68-.76C82.2,300.36,82.59,300.69,82.61,301.33Z"/><path class="cls-5" d="M63.46,294.71c-.45.35-.69.65-1,.73s-.82-.29-.83-.72a.71.71,0,0,1,.83-.73A4.63,4.63,0,0,1,63.46,294.71Z"/><path class="cls-5" d="M95.91,307.7c-.43.33-.67.64-1,.73s-.8-.38-.75-.79.36-.74.76-.66S95.49,307.37,95.91,307.7Z"/><path class="cls-5" d="M134.6,346.66a.71.71,0,0,1-.77.69.68.68,0,0,1-.69-.75.67.67,0,0,1,.75-.68A.69.69,0,0,1,134.6,346.66Z"/><path class="cls-5" d="M4.63,294.7a.65.65,0,0,1-.7.7c-.39,0-.79-.38-.66-.72a1.2,1.2,0,0,1,.64-.63C4.28,293.92,4.62,294.29,4.63,294.7Z"/><path class="cls-5" d="M68.84,293.78c.31.42.58.64.66.91s-.33.74-.7.69-.66-.31-.58-.69S68.55,294.2,68.84,293.78Z"/><path class="cls-5" d="M115.24,320.62c-.37.32-.57.62-.84.69s-.64-.14-.71-.53.25-.83.62-.75A3.42,3.42,0,0,1,115.24,320.62Z"/><path class="cls-5" d="M121.83,327.28c-.47.28-.72.53-1,.57a.57.57,0,0,1-.62-.66.56.56,0,0,1,.68-.58C121.17,326.67,121.39,326.94,121.83,327.28Z"/><path class="cls-5" d="M127.37,334.5c-.31-.35-.58-.52-.64-.76a.52.52,0,0,1,.54-.68c.42,0,.69.22.64.61C127.88,333.91,127.63,334.12,127.37,334.5Z"/><path class="cls-5" d="M108.76,314.09c-.36.29-.54.55-.78.61a.52.52,0,0,1-.69-.54c0-.41.23-.68.63-.61C108.16,313.59,108.37,313.83,108.76,314.09Z"/><path class="cls-5" d="M88.38,300.32c.26.4.54.64.51.83s-.34.39-.52.58c-.2-.19-.52-.37-.55-.59S88.1,300.71,88.38,300.32Z"/><path class="cls-5" d="M30.72,288.25c-.45.22-.69.43-.92.41s-.39-.36-.37-.54.33-.48.48-.46S30.33,288,30.72,288.25Z"/><path class="cls-5" d="M37.16,288.1c-.4.3-.6.55-.83.57s-.46-.28-.47-.45.23-.53.38-.54S36.71,287.88,37.16,288.1Z"/><path class="cls-5" d="M102.17,307.62c-.4.3-.6.56-.82.58s-.46-.28-.48-.45.23-.54.38-.55S101.72,307.4,102.17,307.62Z"/><path class="cls-5" d="M42.92,288.93c-.26-.34-.52-.54-.54-.77s.29-.35.46-.53c.19.18.47.33.54.55S43.16,288.57,42.92,288.93Z"/><path class="cls-5" d="M75.33,295.41c-.2-.32-.44-.53-.42-.7a.74.74,0,0,1,.48-.48.43.43,0,0,1,.51.55C75.86,295,75.6,295.13,75.33,295.41Z"/><path class="cls-5" d="M50,288.13c-.21.22-.38.52-.49.49s-.38-.27-.57-.42c.17-.17.32-.41.52-.48S49.78,288,50,288.13Z"/><path class="cls-5" d="M24.07,288.15c-.35.24-.54.45-.74.47s-.39-.27-.4-.43.24-.47.36-.47S23.7,287.93,24.07,288.15Z"/><path class="cls-5" d="M133.91,340.84c-.24-.28-.5-.46-.47-.57a.79.79,0,0,1,.43-.5c.09,0,.43.24.43.37S134.1,340.53,133.91,340.84Z"/><path class="cls-5" d="M56.44,288.18c-.28.17-.44.34-.61.35s-.25-.2-.38-.31c.13-.15.25-.38.4-.41S56.17,288,56.44,288.18Z"/><path class="cls-5" d="M16.92,287.64l.43.55c-.15.12-.3.3-.48.34s-.33-.22-.32-.32S16.74,287.89,16.92,287.64Z"/><path class="cls-5" d="M81.88,295.21c-.18-.22-.33-.34-.36-.48s.16-.33.22-.32.38.13.42.25S82,295,81.88,295.21Z"/><path class="cls-5" d="M140.91,346.66c-.25.15-.42.33-.54.3s-.24-.25-.27-.4.21-.27.3-.25S140.68,346.49,140.91,346.66Z"/><path class="cls-5" d="M62.88,288.33a1.76,1.76,0,0,1-.6.12c-.09,0-.22-.28-.19-.32s.27-.27.4-.26S62.69,288.1,62.88,288.33Z"/><path class="cls-5" d="M10.88,288.12c-.23.18-.34.33-.49.37s-.31-.16-.3-.23.13-.37.24-.4S10.62,288,10.88,288.12Z"/><path class="cls-5" d="M95.43,301.14c-.24.17-.39.36-.51.34s-.26-.23-.31-.38.19-.28.28-.27S95.18,301,95.43,301.14Z"/><path class="cls-5" d="M121.38,320.68c-.24.16-.4.35-.52.32s-.25-.23-.29-.38.2-.28.29-.27S121.14,320.52,121.38,320.68Z"/><path class="cls-5" d="M127.26,326.8c.16.21.32.33.31.42s-.18.21-.3.26-.2-.13-.2-.2A1.75,1.75,0,0,1,127.26,326.8Z"/><path class="cls-5" d="M114.74,314.09c-.2.16-.32.32-.41.3s-.21-.18-.25-.3.13-.22.2-.21S114.52,314,114.74,314.09Z"/></g></g><path class="cls-10" d="M213.73,22.42h-7.68L189.52,57.33a16.18,16.18,0,0,1-14.63,9.26H67a16.17,16.17,0,0,1-14.63-9.26L35.85,22.42H28.17a8.33,8.33,0,0,0-8.33,8.33V322.86a8.33,8.33,0,0,0,8.33,8.33H60l8.85-18.69a12.29,12.29,0,0,1,11.12-7h82a12.29,12.29,0,0,1,11.12,7l8.85,18.69h31.81a8.33,8.33,0,0,0,8.33-8.33V30.75A8.33,8.33,0,0,0,213.73,22.42Z"/><path class="cls-11" d="M213.73,22.42h-7.68L189.52,57.33a16.18,16.18,0,0,1-14.63,9.26H67a16.17,16.17,0,0,1-14.63-9.26L35.85,22.42H28.17a8.33,8.33,0,0,0-8.33,8.33V322.86a8.33,8.33,0,0,0,8.33,8.33H60l8.85-18.69a12.29,12.29,0,0,1,11.12-7h82a12.29,12.29,0,0,1,11.12,7l8.85,18.69h31.81a8.33,8.33,0,0,0,8.33-8.33V30.75A8.33,8.33,0,0,0,213.73,22.42Z"/><text class="cls-12" transform="translate(61.54 160.76)">Clear the <tspan x="-30.55" y="36">number order </tspan><tspan x="-24.46" y="72">from (11-20)</tspan></text><path class="cls-1" d="M189.52,57.33,203,28.79l-37.8,37.8h9.66A16.18,16.18,0,0,0,189.52,57.33Z"/><path class="cls-13" d="M222.06,30.75a8.33,8.33,0,0,0-8.33-8.33h-7.68l-3,6.37L189.52,57.33a16.18,16.18,0,0,1-14.63,9.26h-9.66L19.84,212v84.34L222.06,94.1Z"/><polygon class="cls-13" points="85.11 66.59 19.84 131.86 19.84 155.86 109.11 66.59 85.11 66.59"/><polygon class="cls-14" points="206.05 22.42 203.03 28.79 205.94 22.65 206.05 22.42"/><path class="cls-15" d="M126.39,18.28c.18.14.36.26.52.41L138.4,30.18c.55.54.54.85,0,1.4l-9.56,9.57-.32.34a2.33,2.33,0,0,1,.27.21c.59.59.59.86,0,1.46l-3.2,3.2a1.8,1.8,0,0,1-.29.26.68.68,0,0,1-1.06-.3c-.06-.12-.1-.25-.18-.46-.12.15-.19.26-.28.35q-3.66,3.69-7.34,7.36c-.58.58-.88.58-1.46,0q-5.7-5.7-11.39-11.4a6.71,6.71,0,0,1-.48-.58v-.35a6.26,6.26,0,0,1,.45-.57l7.37-7.37a1.61,1.61,0,0,1,.31-.19,1.24,1.24,0,0,0-.35-.19.71.71,0,0,1-.31-1.22q1.78-1.8,3.58-3.57a.71.71,0,0,1,1.08,0,6,6,0,0,1,.43.49c.13-.16.2-.27.29-.36l9.54-9.53a6.22,6.22,0,0,1,.56-.46Zm-10.68,34,.23-.22c2.48-2.47,5-4.95,7.43-7.41a.48.48,0,0,0,.15-.57q-.4-1.22-.75-2.43a.53.53,0,0,0-.39-.39c-1.46-.44-2.92-.91-4.39-1.34a1.09,1.09,0,0,1-.81-.81c-.43-1.46-.89-2.91-1.33-4.36a.53.53,0,0,0-.4-.41c-.84-.25-1.66-.52-2.5-.76a.52.52,0,0,0-.39.07q-3.84,3.82-7.67,7.67a.24.24,0,0,0-.06.08Zm1-22.71,4.85,4.84,4.19-4.19-4.84-4.85Zm6,5.94,4.89,4.88,4.18-4.18-4.89-4.88Zm3.57-15.43L122,24.28l4.85,4.85,4.21-4.21Zm6.6,15L137,30.93,132.15,26,128,30.23Zm-18.16-5.45-2.26,2.27.32.1c1.19.38,2.39.76,3.59,1.11a1,1,0,0,1,.72.72c.45,1.49.92,3,1.37,4.46a.49.49,0,0,0,.36.37c1.47.44,2.94.92,4.42,1.36a1,1,0,0,1,.78.78c.38,1.29.79,2.57,1.19,3.85l2.24-2.3Z"/><g class="cls-16"><g class="cls-4"><path class="cls-5" d="M245.15,353.14a1.91,1.91,0,0,1-1.88,1.91,1.86,1.86,0,0,1-1.83-1.82,1.83,1.83,0,0,1,1.74-1.9A1.89,1.89,0,0,1,245.15,353.14Z"/><path class="cls-5" d="M245,346.59a1.75,1.75,0,0,1-1.69,1.81,1.77,1.77,0,0,1-.09-3.53A1.75,1.75,0,0,1,245,346.59Z"/><path class="cls-5" d="M238.47,353.15a1.75,1.75,0,0,1-1.74,1.75,1.72,1.72,0,0,1,0-3.44A1.76,1.76,0,0,1,238.47,353.15Z"/><path class="cls-5" d="M243.25,338.58a1.62,1.62,0,1,1,.07,3.24,1.62,1.62,0,0,1-.07-3.24Z"/><path class="cls-5" d="M236.69,348.24a1.63,1.63,0,0,1-1.58-1.62,1.66,1.66,0,0,1,1.72-1.6,1.59,1.59,0,0,1,1.49,1.69A1.57,1.57,0,0,1,236.69,348.24Z"/><path class="cls-5" d="M230.33,354.73a1.55,1.55,0,1,1-.06-3.09,1.55,1.55,0,1,1,.06,3.09Z"/><path class="cls-5" d="M243.3,335.13a1.48,1.48,0,1,1,0-3,1.47,1.47,0,0,1,1.43,1.49A1.45,1.45,0,0,1,243.3,335.13Z"/><path class="cls-5" d="M236.7,341.67a1.45,1.45,0,0,1-1.43-1.48,1.42,1.42,0,0,1,1.45-1.44,1.47,1.47,0,0,1,1.5,1.52A1.5,1.5,0,0,1,236.7,341.67Z"/><path class="cls-5" d="M230.31,348.08a1.43,1.43,0,0,1-1.46-1.44,1.41,1.41,0,0,1,1.44-1.44,1.45,1.45,0,0,1,1.48,1.43A1.47,1.47,0,0,1,230.31,348.08Z"/><path class="cls-5" d="M222.39,353.19a1.33,1.33,0,0,1,1.35-1.38,1.41,1.41,0,0,1,1.41,1.36,1.44,1.44,0,0,1-1.38,1.4A1.36,1.36,0,0,1,222.39,353.19Z"/><path class="cls-5" d="M238.06,333.65a1.33,1.33,0,1,1-1.3-1.3A1.3,1.3,0,0,1,238.06,333.65Z"/><path class="cls-5" d="M230.27,338.89a1.32,1.32,0,0,1,.07,2.63,1.32,1.32,0,0,1-.07-2.63Z"/><path class="cls-5" d="M225,346.61a1.25,1.25,0,0,1-1.19,1.29,1.26,1.26,0,1,1-.06-2.52A1.23,1.23,0,0,1,225,346.61Z"/><path class="cls-5" d="M218.37,353.2a1.2,1.2,0,0,1-1.16,1.17,1.19,1.19,0,1,1,0-2.38A1.19,1.19,0,0,1,218.37,353.2Z"/><path class="cls-5" d="M236.71,328.38a1.21,1.21,0,0,1-1.15-1.17,1.19,1.19,0,0,1,1.18-1.14,1.14,1.14,0,0,1,1.13,1.17A1.15,1.15,0,0,1,236.71,328.38Z"/><path class="cls-5" d="M231.44,333.66a1.17,1.17,0,0,1-1.15,1.16,1.22,1.22,0,0,1-1.16-1.17,1.18,1.18,0,0,1,1.17-1.14A1.13,1.13,0,0,1,231.44,333.66Z"/><path class="cls-5" d="M223.79,339.08a1.18,1.18,0,0,1,1.08,1.13,1.16,1.16,0,0,1-1.21,1.11,1.12,1.12,0,0,1,.13-2.24Z"/><path class="cls-5" d="M217.18,345.57a1.09,1.09,0,0,1,1.09,1.09,1.12,1.12,0,0,1-1,1,1.05,1.05,0,0,1-1.07-1.1A1,1,0,0,1,217.18,345.57Z"/><path class="cls-5" d="M211.71,353.13a1,1,0,0,1-.86,1,1,1,0,1,1-.11-1.93A1,1,0,0,1,211.71,353.13Z"/><path class="cls-5" d="M230.33,328.19a1,1,0,0,1-1-.9,1,1,0,0,1,1-1,1,1,0,0,1,.93.95A1,1,0,0,1,230.33,328.19Z"/><path class="cls-5" d="M236.73,321.59a.92.92,0,0,1-.93-.94,1,1,0,0,1,1-.9.91.91,0,0,1,.86.89A.88.88,0,0,1,236.73,321.59Z"/><path class="cls-5" d="M223.75,334.59a.93.93,0,0,1-.91-1,.91.91,0,0,1,.87-.89,1,1,0,0,1,1,.91A1,1,0,0,1,223.75,334.59Z"/><path class="cls-5" d="M217.26,339.32a.92.92,0,0,1,.81.93.89.89,0,0,1-.91.83.93.93,0,0,1-.83-.93A1,1,0,0,1,217.26,339.32Z"/><path class="cls-5" d="M211.55,346.64a.77.77,0,0,1-.83.74.69.69,0,0,1-.7-.75.68.68,0,0,1,.7-.74A.75.75,0,0,1,211.55,346.64Z"/><path class="cls-5" d="M223.93,326.52a2.36,2.36,0,0,1,.51.71c.1.34-.34.74-.71.69a.66.66,0,0,1-.66-.64C223,326.87,223.34,326.54,223.93,326.52Z"/><path class="cls-5" d="M231,320.69c0,.42-.34.77-.72.65a1.16,1.16,0,0,1-.64-.63c-.13-.34.28-.72.66-.73A.67.67,0,0,1,231,320.69Z"/><path class="cls-5" d="M237.68,314.06c-.44.34-.65.63-.92.69a.57.57,0,0,1-.69-.58c0-.4.22-.7.61-.65S237.21,313.79,237.68,314.06Z"/><path class="cls-5" d="M216.26,333.6c.46-.27.71-.53,1-.56s.63.24.61.66-.31.67-.68.58S216.68,333.92,216.26,333.6Z"/><path class="cls-5" d="M211.62,340.22c-.41.27-.62.51-.86.54s-.55-.21-.54-.57a.49.49,0,0,1,.57-.54C211,339.69,211.23,339.94,211.62,340.22Z"/><path class="cls-5" d="M224.31,320.65c-.23.19-.38.42-.53.42s-.4-.23-.4-.37a.53.53,0,0,1,.36-.42C223.88,320.26,224.06,320.47,224.31,320.65Z"/><path class="cls-5" d="M204.79,346.67c-.26.17-.44.38-.58.36a.4.4,0,0,1,0-.79C204.41,346.24,204.56,346.47,204.79,346.67Z"/><path class="cls-5" d="M217.23,327.7c-.17-.23-.31-.35-.34-.49s.18-.31.24-.3.36.15.4.27S217.38,327.46,217.23,327.7Z"/><path class="cls-5" d="M230.33,314.6c-.17-.22-.32-.34-.34-.49s.18-.3.24-.29.36.15.39.27S230.47,314.36,230.33,314.6Z"/><path class="cls-5" d="M211.27,333.78a1.59,1.59,0,0,1-.45.14c-.1,0-.19-.16-.28-.24a1.48,1.48,0,0,1,.29-.27S211,333.53,211.27,333.78Z"/><path class="cls-5" d="M237.08,307.69c-.14.12-.23.24-.35.28s-.16-.12-.24-.18a1.37,1.37,0,0,1,.27-.31S236.92,307.58,237.08,307.69Z"/></g></g></g></g></svg>