<svg xmlns="http://www.w3.org/2000/svg" xmlns:xlink="http://www.w3.org/1999/xlink" viewBox="0 0 38.53 31.54"><defs><style>.cls-1{mask:url(#mask);}.cls-2,.cls-4,.cls-6{mix-blend-mode:multiply;}.cls-2{fill:url(#linear-gradient);}.cls-3{mask:url(#mask-2);}.cls-4{fill:url(#linear-gradient-2);}.cls-5{mask:url(#mask-3);}.cls-6{fill:url(#linear-gradient-3);}.cls-7{fill:none;}.cls-8{isolation:isolate;}.cls-9{clip-path:url(#clip-path);}.cls-10{clip-path:url(#clip-path-2);}.cls-11{fill:url(#radial-gradient);}.cls-12,.cls-13{mix-blend-mode:screen;}.cls-12{fill:url(#radial-gradient-2);}.cls-13{opacity:0.11;}.cls-14{fill:url(#linear-gradient-4);}.cls-15{fill:url(#linear-gradient-5);}.cls-16{fill:url(#linear-gradient-6);}.cls-17{fill:url(#linear-gradient-7);}.cls-18{fill:url(#linear-gradient-8);}.cls-19{fill:#ab6004;}.cls-20{fill:url(#linear-gradient-9);}.cls-21{fill:#ffed8b;}.cls-22{mask:url(#mask-4);}.cls-23{fill:url(#linear-gradient-10);}.cls-24{fill:#ca7a11;}.cls-25{fill:#ffc747;}.cls-26{fill:#fff;}.cls-27{fill:url(#linear-gradient-11);}.cls-28{fill:url(#linear-gradient-12);}.cls-29{mask:url(#mask-5);}.cls-30{fill:url(#linear-gradient-13);}.cls-31{fill:url(#linear-gradient-14);}.cls-32{fill:url(#linear-gradient-15);}.cls-33{mask:url(#mask-6);}.cls-34{fill:url(#linear-gradient-16);}.cls-35{fill:url(#linear-gradient-17);}.cls-36{fill:url(#linear-gradient-18);}.cls-37{filter:url(#luminosity-noclip-3);}.cls-38{filter:url(#luminosity-noclip-2);}.cls-39{filter:url(#luminosity-noclip);}</style><filter id="luminosity-noclip" x="0.58" y="-8499.25" width="31.93" height="32766" filterUnits="userSpaceOnUse" color-interpolation-filters="sRGB"><feFlood flood-color="#fff" result="bg"/><feBlend in="SourceGraphic" in2="bg"/></filter><mask id="mask" x="0.58" y="-8499.25" width="31.93" height="32766" maskUnits="userSpaceOnUse"><g class="cls-39"/></mask><linearGradient id="linear-gradient" x1="-75.98" y1="6.62" x2="-70.78" y2="25.53" gradientTransform="matrix(-0.84, 0, 0, 1, -44.37, 0)" gradientUnits="userSpaceOnUse"><stop offset="0.2" stop-color="#fff"/><stop offset="1"/></linearGradient><filter id="luminosity-noclip-2" x="1.08" y="-8499.25" width="32.58" height="32766" filterUnits="userSpaceOnUse" color-interpolation-filters="sRGB"><feFlood flood-color="#fff" result="bg"/><feBlend in="SourceGraphic" in2="bg"/></filter><mask id="mask-2" x="1.08" y="-8499.25" width="32.58" height="32766" maskUnits="userSpaceOnUse"><g class="cls-38"/></mask><linearGradient id="linear-gradient-2" x1="-61.79" y1="2.29" x2="-56.6" y2="21.21" gradientTransform="matrix(-0.86, 0, 0, 1, -32.59, 0)" xlink:href="#linear-gradient"/><filter id="luminosity-noclip-3" x="5.35" y="-8499.25" width="32.91" height="32766" filterUnits="userSpaceOnUse" color-interpolation-filters="sRGB"><feFlood flood-color="#fff" result="bg"/><feBlend in="SourceGraphic" in2="bg"/></filter><mask id="mask-3" x="5.35" y="-8499.25" width="32.91" height="32766" maskUnits="userSpaceOnUse"><g class="cls-37"/></mask><linearGradient id="linear-gradient-3" x1="24.67" y1="-2.03" x2="29.87" y2="16.88" gradientTransform="translate(-2.85) scale(0.87 1)" xlink:href="#linear-gradient"/><clipPath id="clip-path"><rect class="cls-7" x="-438.48" y="157.25" width="1440" height="576.41"/></clipPath><clipPath id="clip-path-2"><rect class="cls-7" x="-495.57" y="-72.6" width="1554.18" height="1036.12"/></clipPath><radialGradient id="radial-gradient" cx="246.29" cy="522.13" r="1006.95" gradientUnits="userSpaceOnUse"><stop offset="0" stop-color="#800019"/><stop offset="1" stop-color="#30000f"/></radialGradient><radialGradient id="radial-gradient-2" cx="268.25" cy="380.27" r="679.21" gradientUnits="userSpaceOnUse"><stop offset="0" stop-color="#800019"/><stop offset="1"/></radialGradient><linearGradient id="linear-gradient-4" x1="175.95" y1="268.09" x2="262.97" y2="-486.63" gradientTransform="translate(-90.83 139.45) rotate(-24)" xlink:href="#radial-gradient-2"/><linearGradient id="linear-gradient-5" x1="145.8" y1="250.59" x2="232.81" y2="-504.09" gradientTransform="translate(-111.64 219.99) rotate(-36)" xlink:href="#radial-gradient-2"/><linearGradient id="linear-gradient-6" x1="121.23" y1="227.62" x2="208.24" y2="-527.1" gradientTransform="matrix(0.67, -0.74, 0.74, 0.67, -116.41, 303.77)" xlink:href="#radial-gradient-2"/><linearGradient id="linear-gradient-7" x1="101.19" y1="199.46" x2="188.2" y2="-555.24" gradientTransform="translate(-102.78 386.33) rotate(-60)" xlink:href="#radial-gradient-2"/><linearGradient id="linear-gradient-8" x1="-91.44" y1="22.63" x2="-53.23" y2="22.63" gradientTransform="matrix(-0.84, 0, 0, 1, -44.37, 0)" gradientUnits="userSpaceOnUse"><stop offset="0" stop-color="#cd7d0a"/><stop offset="0.26" stop-color="#bd6c07"/><stop offset="0.26" stop-color="#af5203"/><stop offset="0.5" stop-color="#974b00"/><stop offset="0.74" stop-color="#af4e03"/><stop offset="0.74" stop-color="#bc6d07"/><stop offset="1" stop-color="#d0800a"/></linearGradient><linearGradient id="linear-gradient-9" x1="-73.39" y1="14.65" x2="-71.69" y2="23.93" gradientTransform="matrix(-0.84, 0, 0, 1, -44.37, 0)" gradientUnits="userSpaceOnUse"><stop offset="0" stop-color="#ffdd40"/><stop offset="1" stop-color="#e29a0a"/></linearGradient><mask id="mask-4" x="0.58" y="13.94" width="31.93" height="6.18" maskUnits="userSpaceOnUse"><g class="cls-1"><path class="cls-2" d="M.58,20.12c.79-3.46,7.63-6.18,16-6.18s15.17,2.72,16,6.18Z"/></g></mask><linearGradient id="linear-gradient-10" x1="-75.98" y1="6.62" x2="-70.78" y2="25.53" gradientTransform="matrix(-0.84, 0, 0, 1, -44.37, 0)" gradientUnits="userSpaceOnUse"><stop offset="0.2" stop-color="#ffff9f"/><stop offset="1" stop-color="#fffa6d"/></linearGradient><linearGradient id="linear-gradient-11" x1="-77.26" y1="18.3" x2="-39.04" y2="18.3" gradientTransform="matrix(-0.86, 0, 0, 1, -32.59, 0)" xlink:href="#linear-gradient-8"/><linearGradient id="linear-gradient-12" x1="-59.21" y1="10.32" x2="-57.51" y2="19.6" gradientTransform="matrix(-0.86, 0, 0, 1, -32.59, 0)" xlink:href="#linear-gradient-9"/><mask id="mask-5" x="1.08" y="9.62" width="32.58" height="6.18" maskUnits="userSpaceOnUse"><g class="cls-3"><path class="cls-4" d="M1.08,15.8c.8-3.47,7.79-6.18,16.29-6.18s15.48,2.71,16.29,6.18Z"/></g></mask><linearGradient id="linear-gradient-13" x1="-61.79" y1="2.29" x2="-56.6" y2="21.21" gradientTransform="matrix(-0.86, 0, 0, 1, -32.59, 0)" xlink:href="#linear-gradient-10"/><linearGradient id="linear-gradient-14" x1="9.21" y1="13.97" x2="47.43" y2="13.97" gradientTransform="translate(-2.85) scale(0.87 1)" xlink:href="#linear-gradient-8"/><linearGradient id="linear-gradient-15" x1="27.26" y1="5.99" x2="28.96" y2="15.27" gradientTransform="translate(-2.85) scale(0.87 1)" xlink:href="#linear-gradient-9"/><mask id="mask-6" x="5.35" y="5.29" width="32.91" height="6.18" maskUnits="userSpaceOnUse"><g class="cls-5"><path class="cls-6" d="M38.26,11.47C37.45,8,30.39,5.29,21.81,5.29S6.17,8,5.35,11.47Z"/></g></mask><linearGradient id="linear-gradient-16" x1="24.67" y1="-2.03" x2="29.87" y2="16.88" gradientTransform="translate(-2.85) scale(0.87 1)" xlink:href="#linear-gradient-10"/><linearGradient id="linear-gradient-17" x1="-86.65" y1="9.28" x2="-48.43" y2="9.28" gradientTransform="matrix(-0.88, 0, 0, 1, -42.31, 0)" xlink:href="#linear-gradient-8"/><linearGradient id="linear-gradient-18" x1="-68.6" y1="1.3" x2="-66.9" y2="10.58" gradientTransform="matrix(-0.88, 0, 0, 1, -42.31, 0)" xlink:href="#linear-gradient-9"/></defs><g class="cls-8"><g id="Layer_1" data-name="Layer 1"><g class="cls-9"><g class="cls-10"><rect class="cls-11" x="-495.57" y="-72.6" width="1554.18" height="1036.12"/><circle class="cls-12" cx="268.25" cy="380.27" r="679.21"/><g class="cls-13"><polygon class="cls-14" points="293.38 440.18 273.18 449.17 -63.73 -223.15 19.19 -260.06 293.38 440.18"/><polygon class="cls-15" points="292.03 437.82 274.13 450.82 -195.19 -136.76 -121.77 -190.11 292.03 437.82"/><polygon class="cls-16" points="290.21 435.8 275.41 452.24 -305.83 -24.92 -245.09 -92.37 290.21 435.8"/><polygon class="cls-17" points="288.01 434.21 276.95 453.36 -390.79 107.47 -345.41 28.87 288.01 434.21"/></g></g></g><path class="cls-18" d="M.5,20.8c0-3.79,7.19-6.86,16.05-6.86s16,3.07,16,6.86v3.66c0,3.78-7.18,6.85-16,6.85S.5,28.24.5,24.46Z"/><path class="cls-19" d="M16.55,31.54c9.1,0,16.22-3.11,16.22-7.08V20.8c0-4-7.12-7.09-16.22-7.09S.32,16.82.32,20.8v3.66C.32,28.43,7.45,31.54,16.55,31.54Zm0-17.37c8.74,0,15.86,3,15.86,6.63v3.66c0,3.65-7.12,6.62-15.86,6.62S.68,28.11.68,24.46V20.8C.68,17.14,7.8,14.17,16.55,14.17Z"/><ellipse class="cls-20" cx="16.55" cy="20.8" rx="16.04" ry="6.85"/><path class="cls-21" d="M16.55,27.88c9.1,0,16.22-3.11,16.22-7.08s-7.12-7.09-16.22-7.09S.32,16.82.32,20.8,7.45,27.88,16.55,27.88Zm0-13.71c8.74,0,15.86,3,15.86,6.63s-7.12,6.62-15.86,6.62S.68,24.45.68,20.8,7.8,14.17,16.55,14.17Z"/><g class="cls-22"><path class="cls-23" d="M.58,20.12c.79-3.46,7.63-6.18,16-6.18s15.17,2.72,16,6.18Z"/></g><path class="cls-24" d="M16.55,14.86c7.48,0,13.54,2.62,13.54,5.86,0,1.22-.87,2.36-2.35,3.3a3.62,3.62,0,0,0,1.74-2.77c0-3.05-5.79-5.52-12.93-5.52S3.61,18.2,3.61,21.25A3.62,3.62,0,0,0,5.35,24C3.87,23.08,3,21.94,3,20.72,3,17.48,9.07,14.86,16.55,14.86Z"/><path class="cls-25" d="M30,20.8s0,.15-.05.41a2.76,2.76,0,0,1-.43,1.05,6.91,6.91,0,0,1-2.84,2.2A18.84,18.84,0,0,1,22,25.87a28.88,28.88,0,0,1-5.48.48,28.91,28.91,0,0,1-5.49-.48,18.76,18.76,0,0,1-4.64-1.41,6.88,6.88,0,0,1-2.85-2.2,2.93,2.93,0,0,1-.43-1.05,2.62,2.62,0,0,1,0-.31v0a2.5,2.5,0,0,0,0,.32,3,3,0,0,0,.4,1.08,7,7,0,0,0,2.82,2.36A18.55,18.55,0,0,0,11,26.2a30.13,30.13,0,0,0,5.52.53,30.15,30.15,0,0,0,5.53-.53,18.42,18.42,0,0,0,4.67-1.54,6.91,6.91,0,0,0,2.82-2.36,2.68,2.68,0,0,0,.4-1.08,1.44,1.44,0,0,0,0-.32Z"/><path class="cls-26" d="M15.87,27.46a2.61,2.61,0,0,1,.68-.11c.56,0,.58,1,0,.95a2.83,2.83,0,0,1-.76-.14C15.5,28.06,15.62,27.54,15.87,27.46Z"/><path class="cls-26" d="M16.23,13.52h0a.43.43,0,0,1,.32-.17c.62,0,.63,1.09,0,1a.4.4,0,0,1-.19,0s-.28-.21-.13-.13A.44.44,0,0,1,16.23,13.52Z"/><path class="cls-27" d="M1,16.47c0-3.79,7.33-6.85,16.37-6.85s16.37,3.06,16.37,6.85v3.66c0,3.79-7.33,6.85-16.37,6.85S1,23.92,1,20.13Z"/><path class="cls-19" d="M17.37,27.21c9.28,0,16.55-3.11,16.55-7.08V16.47c0-4-7.27-7.08-16.55-7.08S.81,12.5.81,16.47v3.66C.81,24.1,8.08,27.21,17.37,27.21Zm0-17.36c8.92,0,16.18,3,16.18,6.62v3.66c0,3.65-7.26,6.62-16.18,6.62s-16.19-3-16.19-6.62V16.47C1.18,12.82,8.44,9.85,17.37,9.85Z"/><ellipse class="cls-28" cx="17.37" cy="16.47" rx="16.37" ry="6.85"/><path class="cls-21" d="M17.37,23.55c9.28,0,16.55-3.11,16.55-7.08S26.65,9.39,17.37,9.39.81,12.5.81,16.47,8.08,23.55,17.37,23.55Zm0-13.7c8.92,0,16.18,3,16.18,6.62s-7.26,6.62-16.18,6.62-16.19-3-16.19-6.62S8.44,9.85,17.37,9.85Z"/><g class="cls-29"><path class="cls-30" d="M1.08,15.8c.8-3.47,7.79-6.18,16.29-6.18s15.48,2.71,16.29,6.18Z"/></g><path class="cls-24" d="M17.37,10.53c7.63,0,13.81,2.63,13.81,5.86,0,1.23-.88,2.36-2.39,3.3a3.59,3.59,0,0,0,1.77-2.76c0-3-5.91-5.53-13.19-5.53s-13.2,2.48-13.2,5.53A3.58,3.58,0,0,0,6,19.69c-1.52-.94-2.4-2.07-2.4-3.3C3.55,13.16,9.74,10.53,17.37,10.53Z"/><path class="cls-25" d="M31.09,16.47s0,.15-.05.42a2.73,2.73,0,0,1-.43,1,7,7,0,0,1-2.91,2.2A19.76,19.76,0,0,1,23,21.55a30.86,30.86,0,0,1-5.59.47,30.16,30.16,0,0,1-5.6-.48A19.45,19.45,0,0,1,7,20.13a7,7,0,0,1-2.9-2.2,2.77,2.77,0,0,1-.44-1,2.91,2.91,0,0,1,0-.31v0a1.36,1.36,0,0,0,0,.31A2.67,2.67,0,0,0,4.09,18,6.79,6.79,0,0,0,7,20.33a18.61,18.61,0,0,0,4.76,1.54,29.65,29.65,0,0,0,5.64.53A29.54,29.54,0,0,0,23,21.87a18.56,18.56,0,0,0,4.77-1.54A7,7,0,0,0,30.65,18a2.83,2.83,0,0,0,.41-1.08,2.39,2.39,0,0,0,0-.31Z"/><path class="cls-26" d="M16.67,23.14a2.85,2.85,0,0,1,.7-.12c.58,0,.59,1,0,.95a3,3,0,0,1-.78-.14C16.3,23.74,16.42,23.21,16.67,23.14Z"/><path class="cls-26" d="M17.05,9.19h0A.41.41,0,0,1,17.37,9c.63,0,.64,1.1,0,1.05a.41.41,0,0,1-.19,0s-.29-.21-.14-.12A.44.44,0,0,1,17.05,9.19Z"/><path class="cls-31" d="M38.34,12.14c0-3.78-7.4-6.85-16.53-6.85S5.27,8.36,5.27,12.14V15.8c0,3.79,7.41,6.86,16.54,6.86s16.53-3.07,16.53-6.86Z"/><path class="cls-19" d="M21.81,22.89c-9.38,0-16.73-3.11-16.73-7.09V12.14c0-4,7.35-7.08,16.73-7.08s16.72,3.11,16.72,7.08V15.8C38.53,19.78,31.19,22.89,21.81,22.89Zm0-17.37c-9,0-16.35,3-16.35,6.62V15.8c0,3.66,7.33,6.63,16.35,6.63s16.34-3,16.34-6.63V12.14C38.15,8.49,30.82,5.52,21.81,5.52Z"/><ellipse class="cls-32" cx="21.81" cy="12.14" rx="16.54" ry="6.85"/><path class="cls-21" d="M21.81,19.22c-9.38,0-16.73-3.11-16.73-7.08s7.35-7.08,16.73-7.08,16.72,3.11,16.72,7.08S31.19,19.22,21.81,19.22Zm0-13.7c-9,0-16.35,3-16.35,6.62s7.33,6.62,16.35,6.62,16.34-3,16.34-6.62S30.82,5.52,21.81,5.52Z"/><g class="cls-33"><path class="cls-34" d="M38.26,11.47C37.45,8,30.39,5.29,21.81,5.29S6.17,8,5.35,11.47Z"/></g><path class="cls-24" d="M21.81,6.21c-7.71,0-14,2.62-14,5.86,0,1.22.89,2.35,2.42,3.29A3.55,3.55,0,0,1,8.48,12.6c0-3,6-5.52,13.33-5.52S35.13,9.55,35.13,12.6a3.55,3.55,0,0,1-1.79,2.76c1.53-.93,2.42-2.07,2.42-3.29C35.76,8.83,29.52,6.21,21.81,6.21Z"/><path class="cls-25" d="M8,12.14a1.88,1.88,0,0,0,0,.42,2.88,2.88,0,0,0,.44,1,6.94,6.94,0,0,0,2.94,2.2,20.19,20.19,0,0,0,4.79,1.42,31.53,31.53,0,0,0,5.65.47,31.53,31.53,0,0,0,5.65-.47,20.33,20.33,0,0,0,4.79-1.42,6.9,6.9,0,0,0,2.93-2.2,2.56,2.56,0,0,0,.44-1,2.62,2.62,0,0,0,0-.31v0a2,2,0,0,1,0,.31,2.88,2.88,0,0,1-.42,1.08A6.9,6.9,0,0,1,32.31,16a18.87,18.87,0,0,1-4.81,1.55,31.93,31.93,0,0,1-5.69.53,31.84,31.84,0,0,1-5.69-.53A19,19,0,0,1,11.3,16a7,7,0,0,1-2.91-2.36A2.83,2.83,0,0,1,8,12.56a2.24,2.24,0,0,1,0-.31Z"/><path class="cls-26" d="M22.51,18.81a3.51,3.51,0,0,0-.71-.12c-.58,0-.59,1,0,1a3.54,3.54,0,0,0,.79-.14C22.89,19.41,22.76,18.89,22.51,18.81Z"/><path class="cls-26" d="M22.13,4.86h0a.46.46,0,0,0-.33-.16c-.63,0-.64,1.09,0,1a.45.45,0,0,0,.2,0s.29-.2.13-.12A.43.43,0,0,0,22.13,4.86Z"/><path class="cls-35" d="M.19,7.45C.19,3.66,7.67.6,16.89.6S33.6,3.66,33.6,7.45v3.66c0,3.78-7.48,6.85-16.71,6.85S.19,14.89.19,11.11Z"/><path class="cls-19" d="M16.89,18.19c9.48,0,16.9-3.11,16.9-7.08V7.45c0-4-7.42-7.08-16.9-7.08S0,3.48,0,7.45v3.66C0,15.08,7.42,18.19,16.89,18.19Zm0-17.37c9.11,0,16.52,3,16.52,6.63v3.66c0,3.65-7.41,6.62-16.52,6.62S.38,14.76.38,11.11V7.45C.38,3.8,7.79.82,16.89.82Z"/><ellipse class="cls-36" cx="16.89" cy="7.45" rx="16.7" ry="6.85"/><path class="cls-21" d="M16.89,14.53c9.48,0,16.9-3.11,16.9-7.08S26.37.37,16.89.37,0,3.48,0,7.45,7.42,14.53,16.89,14.53Zm0-13.71c9.11,0,16.52,3,16.52,6.63S26,14.07,16.89,14.07.38,11.1.38,7.45,7.79.82,16.89.82Z"/><path class="cls-24" d="M16.89,1.51C24.68,1.51,31,4.14,31,7.37c0,1.22-.9,2.36-2.44,3.3a3.57,3.57,0,0,0,1.81-2.76c0-3-6-5.53-13.47-5.53S3.43,4.86,3.43,7.91a3.57,3.57,0,0,0,1.81,2.76C3.7,9.73,2.79,8.59,2.79,7.37,2.79,4.14,9.11,1.51,16.89,1.51Z"/><path class="cls-25" d="M30.9,7.45s0,.15,0,.41a2.79,2.79,0,0,1-.45,1,7.12,7.12,0,0,1-3,2.2,20,20,0,0,1-4.84,1.41,31.28,31.28,0,0,1-5.71.48,31.1,31.1,0,0,1-5.7-.48,20,20,0,0,1-4.84-1.41,7.12,7.12,0,0,1-3-2.2,2.64,2.64,0,0,1-.45-1,2.51,2.51,0,0,1,0-.3v0a1.36,1.36,0,0,0,0,.31A2.67,2.67,0,0,0,3.34,9a7.09,7.09,0,0,0,2.94,2.36,19.27,19.27,0,0,0,4.86,1.54,30.82,30.82,0,0,0,5.75.53,31.6,31.6,0,0,0,5.75-.53,19.14,19.14,0,0,0,4.86-1.54A7.09,7.09,0,0,0,30.44,9a2.77,2.77,0,0,0,.42-1.08,1.36,1.36,0,0,0,0-.31Z"/><path class="cls-26" d="M16.19,14.12A2.46,2.46,0,0,1,16.9,14c.58,0,.6,1,0,.95a3.2,3.2,0,0,1-.8-.14C15.8,14.72,15.93,14.19,16.19,14.12Z"/><path class="cls-26" d="M16.57.17h0A.43.43,0,0,1,16.9,0c.64,0,.65,1.1,0,1.05a.45.45,0,0,1-.2,0s-.3-.21-.14-.12A.43.43,0,0,1,16.57.17Z"/></g></g></svg>