<svg xmlns="http://www.w3.org/2000/svg" xmlns:xlink="http://www.w3.org/1999/xlink" viewBox="0 0 241.9 352.39"><defs><style>.cls-1,.cls-9{fill:none;}.cls-2{isolation:isolate;}.cls-3{fill:url(#linear-gradient);}.cls-4{fill:url(#linear-gradient-2);}.cls-5{clip-path:url(#clip-path);}.cls-6{opacity:0.28;mix-blend-mode:overlay;}.cls-12,.cls-7{fill:#fff;}.cls-8{fill:url(#linear-gradient-3);}.cls-9{stroke-linecap:round;stroke-linejoin:round;stroke-width:2px;stroke:url(#linear-gradient-4);}.cls-10{fill:url(#linear-gradient-5);}.cls-11{font-size:30px;fill:#f5cb16;font-family:Roboto-Regular, Roboto;}.cls-12{opacity:0.16;mix-blend-mode:hard-light;}.cls-13{fill:url(#linear-gradient-6);}.cls-14{clip-path:url(#clip-path-2);}</style><linearGradient id="linear-gradient" x1="-20.38" y1="34.71" x2="262.28" y2="317.37" gradientUnits="userSpaceOnUse"><stop offset="0" stop-color="#fff"/><stop offset="0.5" stop-color="#e5e5e5"/><stop offset="1" stop-color="#c7c7c7"/></linearGradient><linearGradient id="linear-gradient-2" x1="120.95" y1="0.29" x2="120.95" y2="351.47" gradientUnits="userSpaceOnUse"><stop offset="0" stop-color="#f5cb16"/><stop offset="0.28" stop-color="#fef687"/><stop offset="0.34" stop-color="#f5e063"/><stop offset="0.42" stop-color="#ebc83c"/><stop offset="0.48" stop-color="#e5b924"/><stop offset="0.52" stop-color="#e3b31b"/><stop offset="0.65" stop-color="#f0d24e"/><stop offset="0.79" stop-color="#fff585"/><stop offset="0.87" stop-color="#fbe254"/><stop offset="0.96" stop-color="#f7d227"/><stop offset="1" stop-color="#f5cb16"/></linearGradient><clipPath id="clip-path"><path class="cls-1" d="M230.44,262.29V89.79A11.39,11.39,0,0,1,234,81.52a17.51,17.51,0,0,0,5.35-12.69V22.72A17.73,17.73,0,0,0,221.6,5H20.3A17.74,17.74,0,0,0,2.56,22.72V68.83A17.51,17.51,0,0,0,7.92,81.52a11.39,11.39,0,0,1,3.54,8.27v172.5a11.4,11.4,0,0,1-3.54,8.27,17.51,17.51,0,0,0-5.36,12.69v46.11A17.74,17.74,0,0,0,20.3,347.1H221.6a17.73,17.73,0,0,0,17.73-17.74V283.25A17.51,17.51,0,0,0,234,270.56,11.4,11.4,0,0,1,230.44,262.29Z"/></clipPath><linearGradient id="linear-gradient-3" x1="-4.36" y1="50.73" x2="246.26" y2="301.35" gradientUnits="userSpaceOnUse"><stop offset="0" stop-color="#8c0f02"/><stop offset="1" stop-color="#ff1124"/></linearGradient><linearGradient id="linear-gradient-4" x1="-5.06" y1="50.03" x2="246.96" y2="302.05" gradientUnits="userSpaceOnUse"><stop offset="0" stop-color="#c7c7c7"/><stop offset="0.5" stop-color="#e5e5e5"/><stop offset="1" stop-color="#fff"/></linearGradient><linearGradient id="linear-gradient-5" x1="83.24" y1="35.38" x2="164.17" y2="35.38" xlink:href="#linear-gradient-3"/><linearGradient id="linear-gradient-6" x1="113.88" y1="-67.5" x2="364.49" y2="183.11" xlink:href="#linear-gradient"/><clipPath id="clip-path-2"><path class="cls-1" d="M497.83,262.29V89.79a11.39,11.39,0,0,1,3.54-8.27,17.51,17.51,0,0,0,5.36-12.69V22.72A17.74,17.74,0,0,0,489,5H287.69A17.74,17.74,0,0,0,270,22.72V68.83a17.51,17.51,0,0,0,5.36,12.69,11.39,11.39,0,0,1,3.54,8.27v172.5a11.4,11.4,0,0,1-3.54,8.27A17.51,17.51,0,0,0,270,283.25v46.11a17.74,17.74,0,0,0,17.74,17.74H489a17.74,17.74,0,0,0,17.74-17.74V283.25a17.51,17.51,0,0,0-5.36-12.69A11.4,11.4,0,0,1,497.83,262.29Z"/></clipPath></defs><g class="cls-2"><g id="Layer_1" data-name="Layer 1"><path class="cls-3" d="M221.6,349.66H20.3A20.33,20.33,0,0,1,0,329.36V283.25A20.16,20.16,0,0,1,6.15,268.7a8.77,8.77,0,0,0,2.74-6.41V89.79a8.75,8.75,0,0,0-2.74-6.41A20.16,20.16,0,0,1,0,68.83V22.72A20.32,20.32,0,0,1,20.3,2.42H221.6a20.32,20.32,0,0,1,20.3,20.3V68.83a20.16,20.16,0,0,1-6.15,14.55A8.76,8.76,0,0,0,233,89.79v172.5a8.78,8.78,0,0,0,2.75,6.41,20.16,20.16,0,0,1,6.15,14.55v46.11A20.33,20.33,0,0,1,221.6,349.66ZM20.3,7.54A15.19,15.19,0,0,0,5.13,22.72V68.83A15,15,0,0,0,9.69,79.67,13.87,13.87,0,0,1,14,89.79v172.5a13.87,13.87,0,0,1-4.33,10.12,15,15,0,0,0-4.56,10.84v46.11A15.18,15.18,0,0,0,20.3,344.53H221.6a15.19,15.19,0,0,0,15.17-15.17V283.25a15,15,0,0,0-4.56-10.84,13.87,13.87,0,0,1-4.33-10.12V89.79a13.87,13.87,0,0,1,4.33-10.12,15,15,0,0,0,4.56-10.84V22.72A15.2,15.2,0,0,0,221.6,7.54Z"/><path class="cls-4" d="M230.44,262.29V89.79A11.39,11.39,0,0,1,234,81.52a17.51,17.51,0,0,0,5.35-12.69V22.72A17.73,17.73,0,0,0,221.6,5H20.3A17.74,17.74,0,0,0,2.56,22.72V68.83A17.51,17.51,0,0,0,7.92,81.52a11.39,11.39,0,0,1,3.54,8.27v172.5a11.4,11.4,0,0,1-3.54,8.27,17.51,17.51,0,0,0-5.36,12.69v46.11A17.74,17.74,0,0,0,20.3,347.1H221.6a17.73,17.73,0,0,0,17.73-17.74V283.25A17.51,17.51,0,0,0,234,270.56,11.4,11.4,0,0,1,230.44,262.29Z"/><g class="cls-5"><g class="cls-6"><path class="cls-7" d="M181.07-.76A2.76,2.76,0,0,1,178.29,2a2.82,2.82,0,0,1-2.76-2.81,2.81,2.81,0,0,1,2.81-2.76A2.76,2.76,0,0,1,181.07-.76Z"/><path class="cls-7" d="M171.92-3.55a2.73,2.73,0,0,1,2.71,2.8A2.76,2.76,0,0,1,171.84,2a2.8,2.8,0,0,1-2.73-2.81A2.79,2.79,0,0,1,171.92-3.55Z"/><path class="cls-7" d="M182.13-.83a2.7,2.7,0,0,1,2.81-2.7,2.77,2.77,0,0,1,2.7,2.73A2.82,2.82,0,0,1,184.85,2,2.74,2.74,0,0,1,182.13-.83Z"/><path class="cls-7" d="M165.34,1.94a2.69,2.69,0,0,1-2.72-2.79,2.68,2.68,0,0,1,2.72-2.66,2.74,2.74,0,0,1,2.75,2.78A2.75,2.75,0,0,1,165.34,1.94Z"/><path class="cls-7" d="M194.13-.78a2.69,2.69,0,0,1-2.67,2.71A2.74,2.74,0,0,1,188.67-.8a2.73,2.73,0,0,1,2.69-2.7A2.68,2.68,0,0,1,194.13-.78Z"/><path class="cls-7" d="M195.16-.8a2.66,2.66,0,0,1,2.7-2.66,2.66,2.66,0,0,1,2.67,2.68,2.65,2.65,0,0,1-2.69,2.66A2.65,2.65,0,0,1,195.16-.8Z"/><path class="cls-7" d="M161.58-.68a2.63,2.63,0,0,1-2.78,2.56,2.65,2.65,0,0,1-2.58-2.77A2.66,2.66,0,0,1,159-3.46,2.65,2.65,0,0,1,161.58-.68Z"/><path class="cls-7" d="M178.31,3a2.65,2.65,0,1,1,0,5.29,2.61,2.61,0,0,1-2.64-2.69A2.61,2.61,0,0,1,178.31,3Z"/><path class="cls-7" d="M171.87,3a2.68,2.68,0,0,1,2.68,2.69,2.67,2.67,0,0,1-2.65,2.6,2.61,2.61,0,0,1-2.64-2.69A2.6,2.6,0,0,1,171.87,3Z"/><path class="cls-7" d="M187.49,5.71a2.6,2.6,0,0,1-2.66,2.57,2.67,2.67,0,0,1-2.62-2.64A2.69,2.69,0,0,1,185,3,2.63,2.63,0,0,1,187.49,5.71Z"/><path class="cls-7" d="M152.31,1.84a2.6,2.6,0,0,1-2.57-2.65,2.63,2.63,0,0,1,2.61-2.62A2.7,2.7,0,0,1,155-.71,2.67,2.67,0,0,1,152.31,1.84Z"/><path class="cls-7" d="M188.8,5.65A2.62,2.62,0,0,1,191.41,3a2.69,2.69,0,0,1,2.64,2.63,2.66,2.66,0,0,1-2.63,2.63A2.62,2.62,0,0,1,188.8,5.65Z"/><path class="cls-7" d="M168,5.64a2.61,2.61,0,0,1-2.61,2.63,2.67,2.67,0,0,1-2.64-2.62A2.7,2.7,0,0,1,165.33,3,2.62,2.62,0,0,1,168,5.64Z"/><path class="cls-7" d="M207-.78a2.62,2.62,0,0,1-2.62,2.62A2.67,2.67,0,0,1,201.75-.8a2.7,2.7,0,0,1,2.65-2.62A2.63,2.63,0,0,1,207-.78Z"/><path class="cls-7" d="M161.49,5.6a2.58,2.58,0,1,1-2.57-2.55A2.62,2.62,0,0,1,161.49,5.6Z"/><path class="cls-7" d="M197.81,3.05a2.6,2.6,0,1,1-2.54,2.69A2.62,2.62,0,0,1,197.81,3.05Z"/><path class="cls-7" d="M148.47-.75a2.57,2.57,0,0,1-2.55,2.54,2.62,2.62,0,0,1-2.56-2.56A2.61,2.61,0,0,1,146-3.36,2.57,2.57,0,0,1,148.47-.75Z"/><path class="cls-7" d="M208.29-.84a2.54,2.54,0,0,1,2.59-2.5,2.58,2.58,0,0,1,2.5,2.61,2.61,2.61,0,0,1-2.61,2.51A2.56,2.56,0,0,1,208.29-.84Z"/><path class="cls-7" d="M154.87,5.65a2.51,2.51,0,0,1-2.54,2.53,2.57,2.57,0,0,1-2.51-2.59,2.54,2.54,0,0,1,2.51-2.46A2.48,2.48,0,0,1,154.87,5.65Z"/><path class="cls-7" d="M180.83,12.18a2.5,2.5,0,0,1-2.54,2.54,2.53,2.53,0,0,1,0-5.06A2.51,2.51,0,0,1,180.83,12.18Z"/><path class="cls-7" d="M184.82,9.67a2.52,2.52,0,1,1,.09,5,2.52,2.52,0,0,1-.09-5Z"/><path class="cls-7" d="M174.39,12.22a2.5,2.5,0,0,1-2.47,2.49,2.52,2.52,0,1,1-.07-5A2.51,2.51,0,0,1,174.39,12.22Z"/><path class="cls-7" d="M201.89,5.61a2.46,2.46,0,0,1,2.48-2.47,2.55,2.55,0,0,1,2.56,2.54,2.57,2.57,0,0,1-2.52,2.48A2.48,2.48,0,0,1,201.89,5.61Z"/><path class="cls-7" d="M162.85,12.2a2.52,2.52,0,0,1,2.46-2.52,2.51,2.51,0,1,1,0,5A2.5,2.5,0,0,1,162.85,12.2Z"/><path class="cls-7" d="M193.9,12.2a2.51,2.51,0,0,1-2.47,2.5,2.51,2.51,0,1,1,0-5A2.51,2.51,0,0,1,193.9,12.2Z"/><path class="cls-7" d="M139.38,1.67a2.44,2.44,0,0,1-2.47-2.46,2.44,2.44,0,0,1,2.47-2.45,2.45,2.45,0,0,1,2.48,2.45A2.46,2.46,0,0,1,139.38,1.67Z"/><path class="cls-7" d="M158.85,9.71a2.48,2.48,0,1,1-2.41,2.56A2.49,2.49,0,0,1,158.85,9.71Z"/><path class="cls-7" d="M145.89,3.2a2.45,2.45,0,1,1-2.42,2.51A2.44,2.44,0,0,1,145.89,3.2Z"/><path class="cls-7" d="M217.35-3.23a2.45,2.45,0,0,1,2.49,2.45,2.44,2.44,0,0,1-2.5,2.44,2.43,2.43,0,0,1-2.43-2.4A2.42,2.42,0,0,1,217.35-3.23Z"/><path class="cls-7" d="M195.4,12.25a2.45,2.45,0,1,1,2.53,2.41A2.49,2.49,0,0,1,195.4,12.25Z"/><path class="cls-7" d="M210.82,3.21a2.4,2.4,0,0,1,2.43,2.37,2.39,2.39,0,0,1-2.42,2.49,2.43,2.43,0,1,1,0-4.86Z"/><path class="cls-7" d="M175.93,18.76a2.4,2.4,0,0,1,2.37-2.43,2.41,2.41,0,1,1,0,4.81A2.38,2.38,0,0,1,175.93,18.76Z"/><path class="cls-7" d="M152.45,9.8a2.43,2.43,0,0,1,2.34,2.48,2.47,2.47,0,0,1-2.52,2.33,2.4,2.4,0,0,1-2.3-2.5A2.35,2.35,0,0,1,152.45,9.8Z"/><path class="cls-7" d="M204.38,9.81a2.34,2.34,0,0,1,2.4,2.37,2.38,2.38,0,0,1-2.38,2.41,2.39,2.39,0,1,1,0-4.78Z"/><path class="cls-7" d="M187.24,18.73a2.38,2.38,0,0,1-2.4,2.4,2.42,2.42,0,0,1-2.38-2.44,2.45,2.45,0,0,1,2.37-2.35A2.39,2.39,0,0,1,187.24,18.73Z"/><path class="cls-7" d="M169.51,18.72a2.39,2.39,0,0,1,2.42-2.38,2.46,2.46,0,0,1,2.36,2.36,2.42,2.42,0,0,1-2.39,2.43A2.38,2.38,0,0,1,169.51,18.72Z"/><path class="cls-7" d="M223.86,1.59a2.39,2.39,0,0,1-2.42-2.26,2.41,2.41,0,0,1,2.31-2.5,2.43,2.43,0,0,1,2.43,2.39A2.41,2.41,0,0,1,223.86,1.59Z"/><path class="cls-7" d="M217.38,8a2.38,2.38,0,0,1,0-4.76,2.42,2.42,0,0,1,2.38,2.43A2.39,2.39,0,0,1,217.38,8Z"/><path class="cls-7" d="M193.78,18.9a2.37,2.37,0,1,1-2.26-2.54A2.41,2.41,0,0,1,193.78,18.9Z"/><path class="cls-7" d="M165.35,16.36A2.38,2.38,0,1,1,163,18.67,2.39,2.39,0,0,1,165.35,16.36Z"/><path class="cls-7" d="M132.87-3.18a2.44,2.44,0,0,1,2.35,2.46,2.43,2.43,0,0,1-2.48,2.32,2.39,2.39,0,0,1-2.28-2.39A2.41,2.41,0,0,1,132.87-3.18Z"/><path class="cls-7" d="M141.75,5.64A2.38,2.38,0,0,1,139.35,8,2.43,2.43,0,0,1,137,5.7a2.45,2.45,0,0,1,2.36-2.45A2.4,2.4,0,0,1,141.75,5.64Z"/><path class="cls-7" d="M197.81,21.09a2.35,2.35,0,0,1,.06-4.7,2.35,2.35,0,0,1-.06,4.7Z"/><path class="cls-7" d="M158.9,21.09a2.35,2.35,0,0,1,0-4.69,2.35,2.35,0,0,1,0,4.69Z"/><path class="cls-7" d="M145.91,14.52a2.33,2.33,0,1,1,2.35-2.29A2.3,2.3,0,0,1,145.91,14.52Z"/><path class="cls-7" d="M210.85,9.87a2.32,2.32,0,1,1,0,4.64,2.32,2.32,0,0,1,0-4.64Z"/><path class="cls-7" d="M139.33,9.9a2.35,2.35,0,0,1,2.34,2.22,2.32,2.32,0,0,1-2.19,2.35,2.26,2.26,0,0,1-2.36-2.26A2.28,2.28,0,0,1,139.33,9.9Z"/><path class="cls-7" d="M135.1,5.71a2.25,2.25,0,0,1-2.27,2.22,2.32,2.32,0,0,1-2.3-2.34,2.3,2.3,0,0,1,2.3-2.22A2.24,2.24,0,0,1,135.1,5.71Z"/><path class="cls-7" d="M154.63,18.75A2.27,2.27,0,0,1,152.4,21a2.34,2.34,0,0,1-2.35-2.3,2.3,2.3,0,0,1,2.37-2.26A2.24,2.24,0,0,1,154.63,18.75Z"/><path class="cls-7" d="M204.46,16.48a2.27,2.27,0,0,1-.08,4.53,2.25,2.25,0,0,1-2.25-2.37A2.23,2.23,0,0,1,204.46,16.48Z"/><path class="cls-7" d="M126.44-3a2.21,2.21,0,0,1,2.22,2.27,2.23,2.23,0,0,1-2.25,2.25,2.3,2.3,0,0,1-2.3-2.34A2.27,2.27,0,0,1,126.44-3Z"/><path class="cls-7" d="M226.06,5.6a2.23,2.23,0,0,1-2.18,2.31,2.26,2.26,0,1,1-.1-4.52A2.21,2.21,0,0,1,226.06,5.6Z"/><path class="cls-7" d="M184.81,27.41a2.24,2.24,0,1,1,2.31-2.19A2.24,2.24,0,0,1,184.81,27.41Z"/><path class="cls-7" d="M180.57,25.19a2.22,2.22,0,0,1-2.27,2.23,2.25,2.25,0,1,1,0-4.49A2.2,2.2,0,0,1,180.57,25.19Z"/><path class="cls-7" d="M171.93,22.94a2.23,2.23,0,1,1-.09,4.46,2.23,2.23,0,1,1,.09-4.46Z"/><path class="cls-7" d="M217.36,14.46a2.27,2.27,0,1,1,2.26-2.25A2.27,2.27,0,0,1,217.36,14.46Z"/><path class="cls-7" d="M230.39-3a2.24,2.24,0,0,1,2.22,2.27,2.24,2.24,0,0,1-2.3,2.2A2.22,2.22,0,0,1,228.1-.83,2.21,2.21,0,0,1,230.39-3Z"/><path class="cls-7" d="M165.31,27.39a2.22,2.22,0,1,1,2.27-2.22A2.21,2.21,0,0,1,165.31,27.39Z"/><path class="cls-7" d="M191.41,27.38a2.21,2.21,0,1,1,0-4.42,2.21,2.21,0,1,1,0,4.42Z"/><path class="cls-7" d="M146,21a2.21,2.21,0,1,1,0-4.42A2.21,2.21,0,1,1,146,21Z"/><path class="cls-7" d="M210.8,20.94a2.21,2.21,0,1,1,0-4.41,2.21,2.21,0,0,1,0,4.41Z"/><path class="cls-7" d="M158.94,27.36a2.2,2.2,0,1,1,0-4.39,2.17,2.17,0,0,1,2.17,2.19A2.14,2.14,0,0,1,158.94,27.36Z"/><path class="cls-7" d="M197.84,27.36a2.15,2.15,0,0,1-2.17-2.16A2.17,2.17,0,0,1,197.79,23a2.19,2.19,0,1,1,.05,4.38Z"/><path class="cls-7" d="M128.6,5.62a2.2,2.2,0,0,1-2.17,2.2,2.14,2.14,0,0,1-2.19-2.15,2.16,2.16,0,0,1,2.14-2.21A2.23,2.23,0,0,1,128.6,5.62Z"/><path class="cls-7" d="M232.5,5.63a2.15,2.15,0,0,1-2.17,2.19,2.22,2.22,0,0,1-2.17-2.22,2.23,2.23,0,0,1,2.15-2.13A2.15,2.15,0,0,1,232.5,5.63Z"/><path class="cls-7" d="M130.67,12.15A2.14,2.14,0,0,1,132.88,10,2.2,2.2,0,0,1,135,12.24a2.23,2.23,0,0,1-2.24,2.14A2.16,2.16,0,0,1,130.67,12.15Z"/><path class="cls-7" d="M226,12.18a2.2,2.2,0,0,1-2.2,2.18,2.14,2.14,0,0,1-2.14-2.1A2.12,2.12,0,0,1,223.76,10,2.18,2.18,0,0,1,226,12.18Z"/><path class="cls-7" d="M152.35,23a2.23,2.23,0,0,1,2.18,2.19,2.2,2.2,0,0,1-2.22,2.14,2.15,2.15,0,0,1-2.1-2.12A2.18,2.18,0,0,1,152.35,23Z"/><path class="cls-7" d="M122-.82a2.16,2.16,0,0,1-2.14,2.2,2.21,2.21,0,0,1-2.18-2.19A2.24,2.24,0,0,1,119.79-3,2.18,2.18,0,0,1,122-.82Z"/><path class="cls-7" d="M141.52,18.76a2.14,2.14,0,0,1-2.19,2.14,2.17,2.17,0,0,1,0-4.33A2.15,2.15,0,0,1,141.52,18.76Z"/><path class="cls-7" d="M206.53,25.19a2.16,2.16,0,0,1-2.1,2.14,2.2,2.2,0,0,1-2.2-2.17A2.22,2.22,0,0,1,204.35,23,2.17,2.17,0,0,1,206.53,25.19Z"/><path class="cls-7" d="M239-.78a2.19,2.19,0,0,1-2.12,2.14,2.15,2.15,0,0,1-2.15-2.21,2.16,2.16,0,0,1,2.16-2.09A2.21,2.21,0,0,1,239-.78Z"/><path class="cls-7" d="M217.41,20.89a2.15,2.15,0,1,1,0-4.3,2.15,2.15,0,0,1,0,4.3Z"/><path class="cls-7" d="M178.34,33.82a2.1,2.1,0,1,1,2.09-2.13A2.07,2.07,0,0,1,178.34,33.82Z"/><path class="cls-7" d="M171.88,33.81a2.1,2.1,0,1,1,2.1-2.09A2.05,2.05,0,0,1,171.88,33.81Z"/><path class="cls-7" d="M185,29.63a2.09,2.09,0,1,1-.26,4.18,2.09,2.09,0,0,1,.26-4.18Z"/><path class="cls-7" d="M163.26,31.61a2.06,2.06,0,0,1,2.21-2,2.09,2.09,0,0,1-.2,4.17A2.06,2.06,0,0,1,163.26,31.61Z"/><path class="cls-7" d="M145.9,23.07a2.11,2.11,0,0,1,.1,4.21,2.11,2.11,0,1,1-.1-4.21Z"/><path class="cls-7" d="M128.46,12.14a2,2,0,0,1-2,2.12,2.08,2.08,0,1,1-.11-4.15A2.05,2.05,0,0,1,128.46,12.14Z"/><path class="cls-7" d="M193.47,31.73a2,2,0,0,1-2,2.06,2.08,2.08,0,1,1,0-4.15A2,2,0,0,1,193.47,31.73Z"/><path class="cls-7" d="M212.92,25.17a2.15,2.15,0,0,1-2.15,2.1,2.09,2.09,0,0,1-2-2.09,2.06,2.06,0,0,1,2-2.09A2.12,2.12,0,0,1,212.92,25.17Z"/><path class="cls-7" d="M230.34,10.12a2.07,2.07,0,1,1,0,4.14,2.07,2.07,0,0,1,0-4.14Z"/><path class="cls-7" d="M199.88,31.69a2,2,0,0,1-2,2.09,2.1,2.1,0,0,1-2.13-2.09,2.12,2.12,0,0,1,2.07-2A2,2,0,0,1,199.88,31.69Z"/><path class="cls-7" d="M161,31.73a2.1,2.1,0,0,1-2,2.05,2,2,0,0,1-2.06-2.13,2.06,2.06,0,0,1,2.08-2A2.13,2.13,0,0,1,161,31.73Z"/><path class="cls-7" d="M134.88,18.77a2.05,2.05,0,0,1-2,2.05,2.12,2.12,0,0,1-2.11-2.11,2.1,2.1,0,0,1,2.17-2A2,2,0,0,1,134.88,18.77Z"/><path class="cls-7" d="M119.88,7.72a2.05,2.05,0,0,1-2.08-2,2,2,0,0,1,2-2.14,2.08,2.08,0,0,1,2.11,2A2.12,2.12,0,0,1,119.88,7.72Z"/><path class="cls-7" d="M236.89,3.62a2,2,0,0,1,0,4.06,2.08,2.08,0,0,1-2.08-2A2.07,2.07,0,0,1,236.89,3.62Z"/><path class="cls-7" d="M225.83,18.75a2,2,0,0,1-2,2,2,2,0,1,1,0-4.06A2,2,0,0,1,225.83,18.75Z"/><path class="cls-7" d="M115.46-.74a2,2,0,0,1-2.09,2,2,2,0,0,1-2-2.07,2,2,0,0,1,2.07-2A2,2,0,0,1,115.46-.74Z"/><path class="cls-7" d="M139.43,23.17a2,2,0,0,1,0,4,2,2,0,1,1,0-4Z"/><path class="cls-7" d="M154.37,31.73a2,2,0,1,1-4-.07,2.05,2.05,0,0,1,2-2A2,2,0,0,1,154.37,31.73Z"/><path class="cls-7" d="M204.42,33.74a2,2,0,1,1,2-2.11A2,2,0,0,1,204.42,33.74Z"/><path class="cls-7" d="M243.3,1.2a2,2,0,0,1-2-2,2,2,0,0,1,2-2,2,2,0,0,1,2,2A2,2,0,0,1,243.3,1.2Z"/><path class="cls-7" d="M219.38,25.12a2,2,0,1,1-2.12-1.94A2,2,0,0,1,219.38,25.12Z"/><path class="cls-7" d="M121.8,12.18a2,2,0,0,1-1.93,2,2,2,0,0,1-2-2,2,2,0,0,1,2-2A1.94,1.94,0,0,1,121.8,12.18Z"/><path class="cls-7" d="M178.32,36.19a2,2,0,0,1,2,2,2,2,0,0,1-2,2,2,2,0,0,1-1.95-2A1.93,1.93,0,0,1,178.32,36.19Z"/><path class="cls-7" d="M115.36,5.66a1.92,1.92,0,0,1-2,1.93,2,2,0,0,1-1.93-1.9,2,2,0,0,1,2-2A1.93,1.93,0,0,1,115.36,5.66Z"/><path class="cls-7" d="M230.39,20.69a2,2,0,1,1,0-3.9,2,2,0,0,1,0,3.9Z"/><path class="cls-7" d="M126.38,20.69a1.91,1.91,0,0,1-1.93-2,1.93,1.93,0,0,1,2-1.94,2,2,0,0,1,2,2A2,2,0,0,1,126.38,20.69Z"/><path class="cls-7" d="M186.8,38.18a2,2,0,0,1-2,1.93,2,2,0,0,1-1.91-1.92,2,2,0,0,1,2-2A1.91,1.91,0,0,1,186.8,38.18Z"/><path class="cls-7" d="M132.78,23.23a1.94,1.94,0,1,1,.05,3.88,1.94,1.94,0,0,1-.05-3.88Z"/><path class="cls-7" d="M236.94,14.15a1.94,1.94,0,0,1-2-1.94,1.9,1.9,0,0,1,1.84-2,2,2,0,0,1,2.06,1.86A2,2,0,0,1,236.94,14.15Z"/><path class="cls-7" d="M173.85,38.1a2,2,0,0,1-1.93,2,1.93,1.93,0,0,1-2-1.84,1.89,1.89,0,0,1,1.84-2.05A2,2,0,0,1,173.85,38.1Z"/><path class="cls-7" d="M147.89,31.73a2,2,0,0,1-2,1.94,1.94,1.94,0,0,1-1.91-2,1.91,1.91,0,0,1,1.92-1.88A2,2,0,0,1,147.89,31.73Z"/><path class="cls-7" d="M223.76,27.1a1.92,1.92,0,0,1-1.87-2,1.94,1.94,0,0,1,2-1.84,2,2,0,0,1,1.9,1.93A2,2,0,0,1,223.76,27.1Z"/><path class="cls-7" d="M243.33,7.58a1.94,1.94,0,0,1,0-3.87,2,2,0,0,1,1.94,2A2,2,0,0,1,243.33,7.58Z"/><path class="cls-7" d="M165.36,40.09a2,2,0,0,1-2-2,2,2,0,0,1,1.93-1.89,1.89,1.89,0,0,1,1.95,1.84A1.93,1.93,0,0,1,165.36,40.09Z"/><path class="cls-7" d="M191.44,36.23a2,2,0,0,1,1.93,1.89,2,2,0,0,1-2,2,1.93,1.93,0,0,1-1.9-2A1.89,1.89,0,0,1,191.44,36.23Z"/><path class="cls-7" d="M212.75,31.7a1.93,1.93,0,0,1-2,2,2,2,0,0,1-1.91-1.92,1.94,1.94,0,0,1,2-1.94A1.89,1.89,0,0,1,212.75,31.7Z"/><path class="cls-7" d="M157,38.06a1.9,1.9,0,0,1,2.1-1.79,1.89,1.89,0,0,1-.31,3.77A1.89,1.89,0,0,1,157,38.06Z"/><path class="cls-7" d="M108.77-.82a1.93,1.93,0,0,1-1.87,1.94A1.92,1.92,0,0,1,105-.75a1.93,1.93,0,0,1,1.86-1.95A1.94,1.94,0,0,1,108.77-.82Z"/><path class="cls-7" d="M197.87,36.27a1.88,1.88,0,1,1-.06,3.76,1.88,1.88,0,1,1,.06-3.76Z"/><path class="cls-7" d="M139.36,33.58a1.87,1.87,0,0,1,0-3.73,1.87,1.87,0,1,1,0,3.73Z"/><path class="cls-7" d="M217.35,29.86a1.86,1.86,0,0,1,.09,3.71,1.86,1.86,0,1,1-.09-3.71Z"/><path class="cls-7" d="M204.4,36.3a1.88,1.88,0,0,1,1.86,1.92A1.85,1.85,0,0,1,204.39,40a1.79,1.79,0,0,1-1.83-1.9A1.82,1.82,0,0,1,204.4,36.3Z"/><path class="cls-7" d="M154.19,38.18A1.81,1.81,0,0,1,152.38,40a1.86,1.86,0,0,1-1.89-1.88,1.88,1.88,0,0,1,1.95-1.82A1.81,1.81,0,0,1,154.19,38.18Z"/><path class="cls-7" d="M119.86,20.61A1.85,1.85,0,0,1,118,18.8a1.83,1.83,0,0,1,1.83-1.92,1.89,1.89,0,0,1,1.87,1.8A1.92,1.92,0,0,1,119.86,20.61Z"/><path class="cls-7" d="M126.45,27a1.89,1.89,0,0,1-1.9-1.77,1.84,1.84,0,0,1,1.74-1.9,1.79,1.79,0,0,1,1.93,1.8A1.83,1.83,0,0,1,126.45,27Z"/><path class="cls-7" d="M238.72,18.71A1.83,1.83,0,0,1,237,20.59,1.89,1.89,0,0,1,235,18.72a1.86,1.86,0,0,1,1.85-1.81A1.81,1.81,0,0,1,238.72,18.71Z"/><path class="cls-7" d="M113.46,14a1.84,1.84,0,1,1,0-3.68,1.84,1.84,0,0,1,0,3.68Z"/><path class="cls-7" d="M232.19,25.21A1.86,1.86,0,0,1,230.32,27a1.81,1.81,0,0,1-1.78-1.86,1.79,1.79,0,0,1,1.85-1.78A1.84,1.84,0,0,1,232.19,25.21Z"/><path class="cls-7" d="M245.14,12.16A1.8,1.8,0,0,1,243.39,14a1.83,1.83,0,1,1-.07-3.66A1.82,1.82,0,0,1,245.14,12.16Z"/><path class="cls-7" d="M132.86,33.53a1.81,1.81,0,1,1,0-3.62,1.81,1.81,0,0,1,0,3.62Z"/><path class="cls-7" d="M108.67,5.66a1.77,1.77,0,0,1-1.82,1.78A1.83,1.83,0,0,1,105,5.63a1.83,1.83,0,0,1,1.85-1.78A1.76,1.76,0,0,1,108.67,5.66Z"/><path class="cls-7" d="M147.72,38.19A1.81,1.81,0,0,1,145.86,40a1.81,1.81,0,0,1,.08-3.62A1.82,1.82,0,0,1,147.72,38.19Z"/><path class="cls-7" d="M210.77,40a1.81,1.81,0,0,1,0-3.62,1.81,1.81,0,1,1,0,3.62Z"/><path class="cls-7" d="M225.58,31.67a1.79,1.79,0,0,1-1.78,1.84,1.8,1.8,0,1,1,1.78-1.84Z"/><path class="cls-7" d="M180.11,44.73a1.78,1.78,0,0,1-1.85,1.75,1.78,1.78,0,0,1,.06-3.56A1.76,1.76,0,0,1,180.11,44.73Z"/><path class="cls-7" d="M186.65,44.69a1.79,1.79,0,1,1-1.73-1.76A1.76,1.76,0,0,1,186.65,44.69Z"/><path class="cls-7" d="M173.66,44.65a1.78,1.78,0,1,1-1.88-1.71A1.74,1.74,0,0,1,173.66,44.65Z"/><path class="cls-7" d="M193.18,44.68a1.76,1.76,0,0,1-1.72,1.77,1.76,1.76,0,1,1,0-3.51A1.76,1.76,0,0,1,193.18,44.68Z"/><path class="cls-7" d="M165.35,46.45a1.75,1.75,0,1,1,1.75-1.74A1.74,1.74,0,0,1,165.35,46.45Z"/><path class="cls-7" d="M100.42-2.52a1.76,1.76,0,0,1,1.77,1.7A1.75,1.75,0,0,1,100.48.94a1.7,1.7,0,0,1-1.76-1.7A1.71,1.71,0,0,1,100.42-2.52Z"/><path class="cls-7" d="M158.93,46.42a1.72,1.72,0,0,1-1.77-1.69A1.76,1.76,0,0,1,158.87,43a1.71,1.71,0,0,1,1.75,1.71A1.68,1.68,0,0,1,158.93,46.42Z"/><path class="cls-7" d="M199.59,44.74a1.74,1.74,0,0,1-1.78,1.68,1.68,1.68,0,0,1-1.68-1.76,1.71,1.71,0,0,1,1.76-1.7A1.77,1.77,0,0,1,199.59,44.74Z"/><path class="cls-7" d="M118.11,25.16a1.77,1.77,0,0,1,1.78-1.71,1.71,1.71,0,0,1,1.67,1.79,1.69,1.69,0,0,1-1.69,1.65A1.76,1.76,0,0,1,118.11,25.16Z"/><path class="cls-7" d="M113.4,20.46a1.72,1.72,0,1,1,.09-3.44,1.72,1.72,0,0,1-.09,3.44Z"/><path class="cls-7" d="M236.89,23.46a1.71,1.71,0,1,1,0,3.42,1.71,1.71,0,0,1,0-3.42Z"/><path class="cls-7" d="M243.36,20.45a1.72,1.72,0,0,1-.05-3.43,1.72,1.72,0,1,1,.05,3.43Z"/><path class="cls-7" d="M152.39,46.4a1.7,1.7,0,0,1-.12-3.4,1.7,1.7,0,1,1,.12,3.4Z"/><path class="cls-7" d="M141.08,38.2a1.71,1.71,0,0,1-1.78,1.68,1.79,1.79,0,0,1-1.66-1.72,1.75,1.75,0,0,1,1.76-1.72A1.67,1.67,0,0,1,141.08,38.2Z"/><path class="cls-7" d="M219.11,38.1a1.78,1.78,0,0,1-1.71,1.78,1.72,1.72,0,0,1-.11-3.44A1.76,1.76,0,0,1,219.11,38.1Z"/><path class="cls-7" d="M106.85,13.89a1.7,1.7,0,1,1,.05-3.39,1.7,1.7,0,1,1-.05,3.39Z"/><path class="cls-7" d="M128.11,31.76a1.71,1.71,0,0,1-1.72,1.63,1.67,1.67,0,1,1,.09-3.34A1.7,1.7,0,0,1,128.11,31.76Z"/><path class="cls-7" d="M204.39,43a1.69,1.69,0,0,1,0,3.38,1.69,1.69,0,0,1,0-3.38Z"/><path class="cls-7" d="M230.33,30.06a1.66,1.66,0,1,1-1.66,1.68A1.66,1.66,0,0,1,230.33,30.06Z"/><path class="cls-7" d="M98.78,5.66a1.66,1.66,0,1,1,3.32,0,1.66,1.66,0,0,1-3.32,0Z"/><path class="cls-7" d="M147.53,44.8a1.63,1.63,0,0,1-1.65,1.54,1.64,1.64,0,1,1,.09-3.27A1.61,1.61,0,0,1,147.53,44.8Z"/><path class="cls-7" d="M132.83,39.78a1.63,1.63,0,1,1,0-3.26,1.63,1.63,0,1,1,0,3.26Z"/><path class="cls-7" d="M212.46,44.71a1.68,1.68,0,0,1-1.7,1.63,1.65,1.65,0,0,1-1.55-1.65,1.62,1.62,0,0,1,1.57-1.62A1.65,1.65,0,0,1,212.46,44.71Z"/><path class="cls-7" d="M179.91,51.17a1.6,1.6,0,0,1-1.6,1.58,1.67,1.67,0,0,1-1.62-1.6,1.64,1.64,0,0,1,1.69-1.62A1.57,1.57,0,0,1,179.91,51.17Z"/><path class="cls-7" d="M223.77,36.53a1.62,1.62,0,0,1,.06,3.24,1.62,1.62,0,1,1-.06-3.24Z"/><path class="cls-7" d="M184.84,49.53a1.63,1.63,0,0,1,1.65,1.55,1.66,1.66,0,0,1-1.65,1.67,1.62,1.62,0,0,1-1.57-1.62A1.57,1.57,0,0,1,184.84,49.53Z"/><path class="cls-7" d="M173.48,51.17a1.6,1.6,0,0,1-1.61,1.58,1.67,1.67,0,0,1-1.61-1.6A1.64,1.64,0,0,1,172,49.53,1.57,1.57,0,0,1,173.48,51.17Z"/><path class="cls-7" d="M113.47,26.76a1.59,1.59,0,0,1-.1-3.17,1.59,1.59,0,1,1,.1,3.17Z"/><path class="cls-7" d="M106.89,20.33a1.64,1.64,0,0,1-1.63-1.57,1.62,1.62,0,0,1,1.6-1.6,1.55,1.55,0,0,1,1.6,1.57A1.57,1.57,0,0,1,106.89,20.33Z"/><path class="cls-7" d="M165.34,49.55a1.59,1.59,0,1,1,0,3.17,1.56,1.56,0,0,1-1.58-1.58A1.54,1.54,0,0,1,165.34,49.55Z"/><path class="cls-7" d="M121.44,31.76a1.61,1.61,0,0,1-1.65,1.54,1.57,1.57,0,0,1-1.5-1.68,1.59,1.59,0,0,1,1.58-1.49A1.63,1.63,0,0,1,121.44,31.76Z"/><path class="cls-7" d="M238.45,31.75a1.56,1.56,0,1,1-3.12-.06,1.61,1.61,0,0,1,1.54-1.55A1.58,1.58,0,0,1,238.45,31.75Z"/><path class="cls-7" d="M95.49-.84A1.6,1.6,0,0,1,93.92.78,1.55,1.55,0,0,1,92.33-.67a1.52,1.52,0,0,1,1.48-1.67A1.58,1.58,0,0,1,95.49-.84Z"/><path class="cls-7" d="M243.38,23.61a1.57,1.57,0,0,1,0,3.13,1.57,1.57,0,1,1,0-3.13Z"/><path class="cls-7" d="M191.28,52.69a1.56,1.56,0,1,1,.32-3.11A1.53,1.53,0,0,1,193,51.24,1.55,1.55,0,0,1,191.28,52.69Z"/><path class="cls-7" d="M126.41,39.71a1.56,1.56,0,0,1-.07-3.12,1.56,1.56,0,1,1,.07,3.12Z"/><path class="cls-7" d="M100.44,13.75a1.57,1.57,0,0,1-1.54-1.53,1.55,1.55,0,1,1,1.54,1.53Z"/><path class="cls-7" d="M158.89,52.67a1.54,1.54,0,1,1,0-3.08,1.54,1.54,0,1,1,0,3.08Z"/><path class="cls-7" d="M141,44.71a1.56,1.56,0,0,1-1.64,1.53,1.54,1.54,0,1,1,.14-3.08A1.55,1.55,0,0,1,141,44.71Z"/><path class="cls-7" d="M217.39,46.22a1.53,1.53,0,0,1-.09-3,1.53,1.53,0,0,1,1.62,1.54A1.51,1.51,0,0,1,217.39,46.22Z"/><path class="cls-7" d="M196.3,51.09a1.55,1.55,0,1,1,3.09.14,1.55,1.55,0,0,1-3.09-.14Z"/><path class="cls-7" d="M231.86,38.11a1.53,1.53,0,0,1-1.48,1.58,1.54,1.54,0,0,1-.07-3.08A1.54,1.54,0,0,1,231.86,38.11Z"/><path class="cls-7" d="M152.4,49.62a1.54,1.54,0,0,1,1.48,1.58,1.52,1.52,0,0,1-1.62,1.43,1.46,1.46,0,0,1-1.39-1.51A1.48,1.48,0,0,1,152.4,49.62Z"/><path class="cls-7" d="M205.87,51.14a1.47,1.47,0,0,1-1.44,1.48,1.49,1.49,0,1,1,0-3A1.47,1.47,0,0,1,205.87,51.14Z"/><path class="cls-7" d="M93.93,4.16a1.48,1.48,0,0,1,0,3A1.52,1.52,0,0,1,92.4,5.58,1.55,1.55,0,0,1,93.93,4.16Z"/><path class="cls-7" d="M132.88,46.18a1.49,1.49,0,1,1,0-3,1.49,1.49,0,0,1,0,3Z"/><path class="cls-7" d="M106.84,26.64a1.45,1.45,0,0,1-1.41-1.5,1.47,1.47,0,0,1,1.48-1.44,1.53,1.53,0,0,1,1.43,1.51A1.5,1.5,0,0,1,106.84,26.64Z"/><path class="cls-7" d="M223.75,46.16a1.46,1.46,0,0,1-1.4-1.51,1.48,1.48,0,0,1,1.5-1.42,1.52,1.52,0,0,1,1.42,1.52A1.5,1.5,0,0,1,223.75,46.16Z"/><path class="cls-7" d="M144.49,51.08a1.44,1.44,0,1,1,1.42,1.5A1.47,1.47,0,0,1,144.49,51.08Z"/><path class="cls-7" d="M114.87,31.71a1.43,1.43,0,0,1-1.45,1.45A1.47,1.47,0,0,1,112,31.72a1.45,1.45,0,0,1,1.46-1.44A1.42,1.42,0,0,1,114.87,31.71Z"/><path class="cls-7" d="M212.26,51.18a1.46,1.46,0,0,1-1.52,1.4,1.45,1.45,0,0,1,.11-2.9A1.47,1.47,0,0,1,212.26,51.18Z"/><path class="cls-7" d="M101.85,18.78a1.43,1.43,0,0,1-1.39,1.39,1.43,1.43,0,0,1,0-2.86A1.43,1.43,0,0,1,101.85,18.78Z"/><path class="cls-7" d="M119.91,39.55a1.37,1.37,0,0,1-1.46-1.41,1.39,1.39,0,0,1,1.36-1.4,1.42,1.42,0,0,1,1.47,1.42A1.4,1.4,0,0,1,119.91,39.55Z"/><path class="cls-7" d="M236.89,39.54a1.39,1.39,0,1,1,.06-2.78,1.39,1.39,0,0,1-.06,2.78Z"/><path class="cls-7" d="M173.27,57.73a1.36,1.36,0,0,1-1.42,1.33,1.39,1.39,0,0,1-1.37-1.38,1.41,1.41,0,0,1,1.49-1.4A1.38,1.38,0,0,1,173.27,57.73Z"/><path class="cls-7" d="M179.7,57.66a1.36,1.36,0,0,1-1.34,1.41,1.39,1.39,0,0,1-1.45-1.43,1.41,1.41,0,0,1,1.41-1.36A1.38,1.38,0,0,1,179.7,57.66Z"/><path class="cls-7" d="M184.83,59.07a1.4,1.4,0,0,1,0-2.79,1.4,1.4,0,1,1,0,2.79Z"/><path class="cls-7" d="M92.55,12.09A1.37,1.37,0,0,1,94,10.82a1.37,1.37,0,0,1-.19,2.74A1.36,1.36,0,0,1,92.55,12.09Z"/><path class="cls-7" d="M87.31-2.16a1.34,1.34,0,0,1,1.4,1.34A1.37,1.37,0,0,1,87.38.61,1.44,1.44,0,0,1,86-.75,1.4,1.4,0,0,1,87.31-2.16Z"/><path class="cls-7" d="M165.29,59.05a1.38,1.38,0,0,1,.11-2.75,1.38,1.38,0,1,1-.11,2.75Z"/><path class="cls-7" d="M192.77,57.72a1.33,1.33,0,0,1-1.4,1.33A1.39,1.39,0,0,1,190,57.64a1.41,1.41,0,0,1,1.43-1.35A1.37,1.37,0,0,1,192.77,57.72Z"/><path class="cls-7" d="M199.18,57.65A1.35,1.35,0,0,1,197.81,59a1.39,1.39,0,0,1-1.32-1.33,1.4,1.4,0,0,1,1.39-1.38A1.36,1.36,0,0,1,199.18,57.65Z"/><path class="cls-7" d="M157.57,57.71a1.36,1.36,0,0,1,1.36-1.39,1.36,1.36,0,1,1-.05,2.71A1.35,1.35,0,0,1,157.57,57.71Z"/><path class="cls-7" d="M127.75,44.72a1.34,1.34,0,0,1-1.4,1.34A1.41,1.41,0,0,1,125,44.74a1.39,1.39,0,0,1,1.37-1.39A1.33,1.33,0,0,1,127.75,44.72Z"/><path class="cls-7" d="M139.37,52.49a1.34,1.34,0,0,1-1.34-1.4,1.32,1.32,0,0,1,1.31-1.31,1.36,1.36,0,1,1,0,2.71Z"/><path class="cls-7" d="M230.4,46a1.33,1.33,0,1,1-.1-2.65,1.36,1.36,0,0,1,1.41,1.34A1.35,1.35,0,0,1,230.4,46Z"/><path class="cls-7" d="M218.71,51.15a1.33,1.33,0,0,1-1.31,1.31,1.33,1.33,0,1,1,0-2.65A1.3,1.3,0,0,1,218.71,51.15Z"/><path class="cls-7" d="M151.07,57.67a1.31,1.31,0,0,1,1.3-1.31,1.32,1.32,0,0,1,0,2.64A1.33,1.33,0,0,1,151.07,57.67Z"/><path class="cls-7" d="M106.84,30.4a1.32,1.32,0,1,1-1.26,1.36A1.34,1.34,0,0,1,106.84,30.4Z"/><path class="cls-7" d="M100.44,26.44a1.27,1.27,0,0,1,0-2.54,1.3,1.3,0,0,1,1.34,1.25A1.28,1.28,0,0,1,100.44,26.44Z"/><path class="cls-7" d="M87.35,6.92a1.28,1.28,0,0,1-.06-2.55,1.28,1.28,0,1,1,.06,2.55Z"/><path class="cls-7" d="M114.69,38.15a1.3,1.3,0,0,1-1.3,1.3,1.3,1.3,0,0,1,0-2.59A1.27,1.27,0,0,1,114.69,38.15Z"/><path class="cls-7" d="M205.66,57.7A1.29,1.29,0,0,1,204.34,59a1.29,1.29,0,0,1,0-2.58A1.26,1.26,0,0,1,205.66,57.7Z"/><path class="cls-7" d="M222.56,51.17a1.25,1.25,0,0,1,1.27-1.31,1.32,1.32,0,0,1,1.25,1.23,1.29,1.29,0,0,1-1.29,1.3A1.23,1.23,0,0,1,222.56,51.17Z"/><path class="cls-7" d="M131.59,51.11a1.23,1.23,0,0,1,1.21-1.24,1.26,1.26,0,1,1,0,2.52A1.23,1.23,0,0,1,131.59,51.11Z"/><path class="cls-7" d="M95.13,18.71A1.24,1.24,0,0,1,94,20a1.3,1.3,0,0,1-1.32-1.27,1.32,1.32,0,0,1,1.26-1.22A1.26,1.26,0,0,1,95.13,18.71Z"/><path class="cls-7" d="M121.08,44.66a1.24,1.24,0,0,1-1.17,1.28,1.28,1.28,0,0,1-1.32-1.27,1.33,1.33,0,0,1,1.25-1.23A1.26,1.26,0,0,1,121.08,44.66Z"/><path class="cls-7" d="M238.13,44.71a1.27,1.27,0,0,1-1.27,1.22,1.25,1.25,0,0,1-1.18-1.3,1.26,1.26,0,0,1,1.2-1.17A1.29,1.29,0,0,1,238.13,44.71Z"/><path class="cls-7" d="M145.87,58.88a1.2,1.2,0,1,1,.17-2.4,1.2,1.2,0,1,1-.17,2.4Z"/><path class="cls-7" d="M210.82,58.88a1.2,1.2,0,1,1,.07-2.4,1.2,1.2,0,0,1-.07,2.4Z"/><path class="cls-7" d="M178.32,63a1.18,1.18,0,0,1,1.16,1.17,1.2,1.2,0,0,1-1.12,1.21,1.24,1.24,0,0,1-1.23-1.23A1.22,1.22,0,0,1,178.32,63Z"/><path class="cls-7" d="M88.5,12.23a1.11,1.11,0,0,1-1.17,1.12,1.17,1.17,0,0,1-1.17-1.14A1.19,1.19,0,0,1,87.41,11,1.14,1.14,0,0,1,88.5,12.23Z"/><path class="cls-7" d="M126.39,52.29a1.2,1.2,0,0,1-1.16-1.16A1.18,1.18,0,0,1,126.4,50a1.16,1.16,0,0,1,0,2.31Z"/><path class="cls-7" d="M108,38.15a1.12,1.12,0,0,1-1.06,1.14,1.19,1.19,0,0,1-1.2-1.14,1.2,1.2,0,0,1,1.2-1.14A1.14,1.14,0,0,1,108,38.15Z"/><path class="cls-7" d="M80.92-1.93A1.11,1.11,0,0,1,82.05-.78,1.14,1.14,0,0,1,80.9.37,1.19,1.19,0,0,1,79.75-.79,1.17,1.17,0,0,1,80.92-1.93Z"/><path class="cls-7" d="M139.38,56.54a1.14,1.14,0,1,1,0,2.27,1.12,1.12,0,0,1-1.12-1.19A1.14,1.14,0,0,1,139.38,56.54Z"/><path class="cls-7" d="M100.39,30.58a1.14,1.14,0,0,1,1.17,1,1.13,1.13,0,0,1-1.07,1.24,1.14,1.14,0,1,1-.1-2.27Z"/><path class="cls-7" d="M218.49,57.65a1.13,1.13,0,0,1-1,1.16,1.18,1.18,0,0,1-1.23-1.11,1.19,1.19,0,0,1,1.18-1.16A1.13,1.13,0,0,1,218.49,57.65Z"/><path class="cls-7" d="M171.89,63.08A1.12,1.12,0,0,1,173,64.24a1.15,1.15,0,0,1-1.15,1.15,1.21,1.21,0,0,1-1.15-1.17A1.17,1.17,0,0,1,171.89,63.08Z"/><path class="cls-7" d="M184.82,65.39a1.17,1.17,0,0,1-1.09-1.21,1.12,1.12,0,0,1,1.19-1.1A1.17,1.17,0,0,1,186,64.27,1.23,1.23,0,0,1,184.82,65.39Z"/><path class="cls-7" d="M230.35,50a1.13,1.13,0,0,1,1.14,1.17,1.16,1.16,0,0,1-1.13,1.07,1.12,1.12,0,0,1-1.13-1.18A1.09,1.09,0,0,1,230.35,50Z"/><path class="cls-7" d="M165.31,65.35a1.11,1.11,0,0,1-1.09-1.1,1.09,1.09,0,0,1,1.15-1.14,1.15,1.15,0,0,1,1.12,1.09A1.16,1.16,0,0,1,165.31,65.35Z"/><path class="cls-7" d="M191.43,63.11a1.09,1.09,0,0,1,1.1,1.09,1.11,1.11,0,0,1-1.15,1.15,1.15,1.15,0,0,1-1.11-1.09A1.13,1.13,0,0,1,191.43,63.11Z"/><path class="cls-7" d="M160,64.27a1.1,1.1,0,0,1-1.13,1,1.09,1.09,0,1,1,.09-2.17A1.1,1.1,0,0,1,160,64.27Z"/><path class="cls-7" d="M113.45,45.76a1,1,0,0,1-1.11-1,1.08,1.08,0,0,1,2.16-.06A1,1,0,0,1,113.45,45.76Z"/><path class="cls-7" d="M95,25.16a1.08,1.08,0,0,1-1.08,1.08,1.06,1.06,0,0,1-1.09-1.06,1.09,1.09,0,0,1,2.17,0Z"/><path class="cls-7" d="M198.93,64.23a1.09,1.09,0,1,1-1.08-1.07A1.06,1.06,0,0,1,198.93,64.23Z"/><path class="cls-7" d="M79.87,5.61a1,1,0,0,1,1-1,1,1,0,1,1-.06,2.09A1,1,0,0,1,79.87,5.61Z"/><path class="cls-7" d="M133.88,57.71a1.09,1.09,0,0,1-1,1,1,1,0,0,1-1-1.13,1,1,0,0,1,1.08-.93A1.06,1.06,0,0,1,133.88,57.71Z"/><path class="cls-7" d="M88.4,18.74a1.07,1.07,0,0,1-1,1,1,1,0,0,1-1-1,1,1,0,0,1,1-1.1A1.09,1.09,0,0,1,88.4,18.74Z"/><path class="cls-7" d="M152.32,63.19a1.07,1.07,0,0,1,1.08,1,1,1,0,0,1-1.05,1.09,1,1,0,0,1-1-1A1,1,0,0,1,152.32,63.19Z"/><path class="cls-7" d="M205.41,64.28a1,1,0,0,1-1,1,1.06,1.06,0,0,1-1-1,1.08,1.08,0,0,1,1.13-1A1,1,0,0,1,205.41,64.28Z"/><path class="cls-7" d="M119.84,52.14a1.06,1.06,0,0,1-1-1,1.08,1.08,0,0,1,1-1,1,1,0,0,1,1,1A1,1,0,0,1,119.84,52.14Z"/><path class="cls-7" d="M236.87,50.13a1.05,1.05,0,0,1,1,.92,1,1,0,0,1-1,1.08,1,1,0,0,1,0-2Z"/><path class="cls-7" d="M224.82,57.71a1,1,0,0,1-1.08,1,1,1,0,0,1,.07-2A1,1,0,0,1,224.82,57.71Z"/><path class="cls-7" d="M145.89,63.26a1,1,0,0,1,1,.91,1,1,0,0,1-.85,1,1,1,0,1,1-.12-1.93Z"/><path class="cls-7" d="M211.78,64.21a1,1,0,1,1-1.9,0,1,1,0,0,1,1-.92A1,1,0,0,1,211.78,64.21Z"/><path class="cls-7" d="M80.89,11.27a.9.9,0,0,1,.93.93.89.89,0,0,1-.84.91.92.92,0,1,1-.09-1.84Z"/><path class="cls-7" d="M100.4,37.23a.89.89,0,0,1,.95.91.9.9,0,0,1-.82.93.92.92,0,1,1-.13-1.84Z"/><path class="cls-7" d="M93.93,32.62A.9.9,0,0,1,93,31.8a.92.92,0,0,1,.86-1,1,1,0,0,1,.94.82A.94.94,0,0,1,93.93,32.62Z"/><path class="cls-7" d="M127.28,57.65a.89.89,0,0,1-.8.93.94.94,0,0,1-1-.88,1,1,0,0,1,.94-.93A.9.9,0,0,1,127.28,57.65Z"/><path class="cls-7" d="M75.28-.82a1,1,0,0,1-.85.92.86.86,0,0,1-.94-.79.85.85,0,0,1,.87-1A.91.91,0,0,1,75.28-.82Z"/><path class="cls-7" d="M177.4,70.64a.93.93,0,0,1,.91-.86.88.88,0,1,1,0,1.76A.93.93,0,0,1,177.4,70.64Z"/><path class="cls-7" d="M106.93,45.59a.94.94,0,0,1-1-.8.9.9,0,0,1,.9-1,.85.85,0,0,1,.89.85A.87.87,0,0,1,106.93,45.59Z"/><path class="cls-7" d="M230.33,58.56a.88.88,0,0,1,0-1.76.88.88,0,0,1,0,1.76Z"/><path class="cls-7" d="M172.74,70.76a.86.86,0,1,1-.75-1A.84.84,0,0,1,172.74,70.76Z"/><path class="cls-7" d="M140.25,64.26a.87.87,0,0,1-.9.81.85.85,0,1,1,.06-1.69A.85.85,0,0,1,140.25,64.26Z"/><path class="cls-7" d="M185.74,70.69a.88.88,0,0,1-.91.82.85.85,0,1,1,.07-1.7A.85.85,0,0,1,185.74,70.69Z"/><path class="cls-7" d="M217.42,65a.78.78,0,0,1-.86-.71.81.81,0,0,1,.77-.93.84.84,0,0,1,.88.83A.82.82,0,0,1,217.42,65Z"/><path class="cls-7" d="M87.35,26a.79.79,0,0,1-.82-.77.8.8,0,0,1,.83-.87.82.82,0,1,1,0,1.64Z"/><path class="cls-7" d="M114.24,51.14a.79.79,0,0,1-.78.81.83.83,0,0,1-.88-.83.84.84,0,0,1,.91-.81A.79.79,0,0,1,114.24,51.14Z"/><path class="cls-7" d="M166.16,70.7a.79.79,0,0,1-.81.78.82.82,0,1,1,.08-1.64A.8.8,0,0,1,166.16,70.7Z"/><path class="cls-7" d="M192.25,70.71a.83.83,0,0,1-.95.76.78.78,0,0,1-.7-.87.8.8,0,0,1,.82-.77A.84.84,0,0,1,192.25,70.71Z"/><path class="cls-7" d="M159.69,70.63a.76.76,0,0,1-.76.82.83.83,0,0,1-.84-.77.85.85,0,0,1,.78-.83A.78.78,0,0,1,159.69,70.63Z"/><path class="cls-7" d="M197.79,71.45a.77.77,0,0,1-.73-.85.78.78,0,0,1,.85-.75.85.85,0,0,1,.75.86A.83.83,0,0,1,197.79,71.45Z"/><path class="cls-7" d="M75.13,5.65a.77.77,0,0,1-1.54,0,.82.82,0,0,1,.76-.83A.8.8,0,0,1,75.13,5.65Z"/><path class="cls-7" d="M81.91,18.67c-.41.36-.63.68-.93.79s-.82-.3-.8-.72.3-.77.71-.72S81.45,18.37,81.91,18.67Z"/><path class="cls-7" d="M153.35,70.65c-.42.34-.66.64-1,.73s-.8-.36-.75-.77a.66.66,0,0,1,.75-.68C152.67,70,152.92,70.32,153.35,70.65Z"/><path class="cls-7" d="M133.82,64.29c-.45.3-.71.61-1,.65s-.69-.26-.71-.7.42-.88.8-.74S133.41,63.93,133.82,64.29Z"/><path class="cls-7" d="M120.59,57.76a.73.73,0,0,1-1.46-.13.68.68,0,0,1,.77-.67A.73.73,0,0,1,120.59,57.76Z"/><path class="cls-7" d="M224.48,64.27c0,.39-.41.78-.74.63a1.22,1.22,0,0,1-.63-.67c-.11-.34.32-.71.7-.7A.68.68,0,0,1,224.48,64.27Z"/><path class="cls-7" d="M205.39,70.67a4.41,4.41,0,0,1-1,.67c-.36.08-.67-.35-.64-.75s.31-.67.67-.6S204.93,70.34,205.39,70.67Z"/><path class="cls-7" d="M237.57,57.73c0,.41-.39.76-.75.61a1.15,1.15,0,0,1-.61-.67c-.1-.35.33-.7.71-.69A.68.68,0,0,1,237.57,57.73Z"/><path class="cls-7" d="M94.81,38.1c-.38.32-.59.61-.86.69s-.63-.16-.7-.55.27-.82.64-.74A4.33,4.33,0,0,1,94.81,38.1Z"/><path class="cls-7" d="M88.25,31.71c-.43.3-.66.58-.92.61a.51.51,0,0,1-.57-.64c0-.23.36-.56.55-.55S87.81,31.41,88.25,31.71Z"/><path class="cls-7" d="M101.1,44.88c-.16.12-.38.39-.65.44s-.66-.21-.67-.61a.58.58,0,0,1,.64-.64C100.83,44.06,101.06,44.27,101.1,44.88Z"/><path class="cls-7" d="M211,71.28c-.58-.06-.86-.29-.75-.68a.86.86,0,0,1,.59-.52.49.49,0,0,1,.58.63C211.36,71,211.1,71.14,211,71.28Z"/><path class="cls-7" d="M146.87,70.68c-.5.28-.77.55-1,.53a.74.74,0,0,1-.51-.57.79.79,0,0,1,.54-.55C146.14,70.09,146.39,70.37,146.87,70.68Z"/><path class="cls-7" d="M107.82,51.14c-.5.29-.76.56-1,.55a.79.79,0,0,1-.52-.57.77.77,0,0,1,.54-.55C107.08,50.56,107.33,50.84,107.82,51.14Z"/><path class="cls-7" d="M74.42,11.36c.24.41.51.66.47.86s-.36.37-.56.55c-.18-.2-.49-.39-.51-.61S74.11,11.75,74.42,11.36Z"/><path class="cls-7" d="M230.24,63.47c.3.31.54.46.6.66a.43.43,0,0,1-.44.6.71.71,0,0,1-.54-.41C229.84,64.1,230.05,63.86,230.24,63.47Z"/><path class="cls-7" d="M126.44,63.46c.22.37.46.6.46.82s-.32.32-.5.48c-.17-.2-.44-.37-.48-.6S126.17,63.8,126.44,63.46Z"/><path class="cls-7" d="M80.89,25.93c-.24-.36-.51-.6-.47-.74s.35-.37.55-.55c.16.17.47.36.46.52S81.15,25.59,80.89,25.93Z"/><path class="cls-7" d="M140.09,70.63c-.35.24-.54.46-.74.48s-.4-.28-.4-.43.23-.48.36-.47S139.72,70.42,140.09,70.63Z"/><path class="cls-7" d="M217.29,70c.25.28.52.45.5.57s-.26.38-.4.57c-.16-.13-.46-.26-.46-.4S217.12,70.33,217.29,70Z"/><path class="cls-7" d="M113.42,57c.21.3.43.47.45.67s-.31.43-.4.4a.8.8,0,0,1-.47-.45C113,57.53,113.2,57.33,113.42,57Z"/><path class="cls-7" d="M172.46,77.27c-.24.16-.45.4-.56.36s-.33-.31-.49-.48c.19-.13.37-.34.58-.37S172.26,77.05,172.46,77.27Z"/><path class="cls-7" d="M178.89,77.27c-.24.16-.45.4-.56.36s-.33-.31-.49-.48c.19-.13.37-.34.58-.37S178.69,77.05,178.89,77.27Z"/><path class="cls-7" d="M184.88,76.56c.2.3.41.48.43.68s-.32.42-.41.39a.85.85,0,0,1-.46-.47C184.41,77.05,184.66,76.85,184.88,76.56Z"/><path class="cls-7" d="M165.3,77.77c-.16-.26-.36-.44-.34-.59s.26-.27.41-.4c.13.15.36.3.37.45S165.51,77.53,165.3,77.77Z"/><path class="cls-7" d="M191.45,76.64c.16.26.36.44.34.59s-.27.26-.41.39c-.13-.15-.36-.29-.37-.44S191.24,76.87,191.45,76.64Z"/><path class="cls-7" d="M68.41,5.74c-.27.1-.42.22-.56.2s-.28-.25-.26-.29.24-.3.37-.32S68.19,5.53,68.41,5.74Z"/><path class="cls-7" d="M120.32,64.27c-.24.13-.38.26-.53.26s-.29-.23-.27-.27.2-.33.33-.35S120.1,64.09,120.32,64.27Z"/><path class="cls-7" d="M93.93,45.17c-.18-.22-.38-.37-.37-.48s.22-.25.37-.31.27.18.27.27S94.06,44.93,93.93,45.17Z"/><path class="cls-7" d="M198.35,77.26c-.27.13-.44.3-.56.26s-.23-.26-.24-.41.23-.26.31-.24S198.13,77.07,198.35,77.26Z"/><path class="cls-7" d="M74.51,18.37c.06.15.17.3.15.45s-.24.26-.29.24a.62.62,0,0,1-.33-.35c0-.16.12-.33.18-.5Z"/><path class="cls-7" d="M133.33,70.6c-.23.18-.34.34-.49.37s-.31-.16-.3-.22.13-.37.24-.4S133.07,70.47,133.33,70.6Z"/><path class="cls-7" d="M158.86,77.7c-.14-.26-.31-.42-.29-.54s.26-.23.41-.27.25.22.24.31S159,77.47,158.86,77.7Z"/><path class="cls-7" d="M100.39,50.71c.16.21.32.32.31.42s-.17.21-.3.26-.2-.13-.2-.2A1.54,1.54,0,0,1,100.39,50.71Z"/><path class="cls-7" d="M87.3,38.43c-.08-.1-.21-.21-.2-.24a1.19,1.19,0,0,1,.27-.28l.22.32Z"/></g><g class="cls-6"><path class="cls-7" d="M38.87,352.37A2.54,2.54,0,0,1,36.39,355a2.56,2.56,0,1,1-.1-5.12A2.53,2.53,0,0,1,38.87,352.37Z"/><path class="cls-7" d="M42.85,349.88a2.56,2.56,0,0,1,2.59,2.52A2.59,2.59,0,0,1,42.88,355a2.53,2.53,0,0,1-2.51-2.48A2.5,2.5,0,0,1,42.85,349.88Z"/><path class="cls-7" d="M32.43,352.43A2.53,2.53,0,0,1,29.86,355a2.59,2.59,0,0,1-2.5-2.51,2.56,2.56,0,0,1,2.54-2.58A2.5,2.5,0,0,1,32.43,352.43Z"/><path class="cls-7" d="M51.94,352.45a2.51,2.51,0,0,1-2.49,2.49,2.57,2.57,0,0,1-2.55-2.56,2.53,2.53,0,0,1,2.51-2.46A2.46,2.46,0,0,1,51.94,352.45Z"/><path class="cls-7" d="M20.86,352.37a2.48,2.48,0,0,1,2.5-2.46,2.51,2.51,0,1,1,0,5A2.49,2.49,0,0,1,20.86,352.37Z"/><path class="cls-7" d="M17,354.88a2.47,2.47,0,1,1,0-4.93,2.47,2.47,0,1,1,0,4.93Z"/><path class="cls-7" d="M58.34,352.34A2.48,2.48,0,1,1,55.79,350,2.44,2.44,0,0,1,58.34,352.34Z"/><path class="cls-7" d="M10.4,354.84a2.43,2.43,0,0,1,0-4.85,2.43,2.43,0,1,1,0,4.85Z"/><path class="cls-7" d="M64.82,352.45a2.38,2.38,0,0,1-2.41,2.38,2.42,2.42,0,1,1,.07-4.83A2.39,2.39,0,0,1,64.82,352.45Z"/><path class="cls-7" d="M36.22,348.3A2.42,2.42,0,0,1,34,345.66a2.38,2.38,0,0,1,2.58-2.2A2.44,2.44,0,0,1,38.77,346,2.47,2.47,0,0,1,36.22,348.3Z"/><path class="cls-7" d="M27.52,345.86a2.35,2.35,0,0,1,2.4-2.39,2.43,2.43,0,0,1,2.42,2.41,2.45,2.45,0,0,1-2.44,2.4A2.38,2.38,0,0,1,27.52,345.86Z"/><path class="cls-7" d="M45.28,345.9a2.4,2.4,0,0,1-2.42,2.39,2.48,2.48,0,0,1-2.4-2.45,2.43,2.43,0,0,1,2.46-2.37A2.36,2.36,0,0,1,45.28,345.9Z"/><path class="cls-7" d="M23.35,343.5a2.37,2.37,0,0,1,.08,4.74,2.37,2.37,0,1,1-.08-4.74Z"/><path class="cls-7" d="M47.06,345.88a2.33,2.33,0,0,1,2.4-2.38,2.38,2.38,0,1,1,0,4.75A2.35,2.35,0,0,1,47.06,345.88Z"/><path class="cls-7" d="M3.91,354.79a2.37,2.37,0,0,1-2.32-2.47A2.41,2.41,0,0,1,4,350a2.44,2.44,0,0,1,2.34,2.37A2.4,2.4,0,0,1,3.91,354.79Z"/><path class="cls-7" d="M71.2,352.41A2.36,2.36,0,1,1,68.87,350,2.38,2.38,0,0,1,71.2,352.41Z"/><path class="cls-7" d="M17,348.2a2.34,2.34,0,1,1,2.31-2.34A2.32,2.32,0,0,1,17,348.2Z"/><path class="cls-7" d="M55.88,348.19a2.33,2.33,0,1,1,2.32-2.31A2.29,2.29,0,0,1,55.88,348.19Z"/><path class="cls-7" d="M12.67,345.82a2.25,2.25,0,0,1-2.27,2.35,2.32,2.32,0,0,1-2.34-2.31,2.35,2.35,0,0,1,2.24-2.3A2.28,2.28,0,0,1,12.67,345.82Z"/><path class="cls-7" d="M60.14,345.92a2.25,2.25,0,0,1,2.28-2.35,2.3,2.3,0,1,1,0,4.59A2.25,2.25,0,0,1,60.14,345.92Z"/><path class="cls-7" d="M38.61,339.39a2.24,2.24,0,0,1-2.28,2.33,2.29,2.29,0,1,1,0-4.58A2.27,2.27,0,0,1,38.61,339.39Z"/><path class="cls-7" d="M29.89,341.72a2.29,2.29,0,1,1,.09-4.57,2.29,2.29,0,0,1-.09,4.57Z"/><path class="cls-7" d="M45.18,339.46a2.32,2.32,0,0,1-2.29,2.26,2.29,2.29,0,1,1,.06-4.57A2.33,2.33,0,0,1,45.18,339.46Z"/><path class="cls-7" d="M77.66,352.47a2.25,2.25,0,0,1-2.29,2.21,2.26,2.26,0,1,1,.1-4.52A2.23,2.23,0,0,1,77.66,352.47Z"/><path class="cls-7" d="M25.62,339.38a2.3,2.3,0,0,1-2.21,2.32,2.27,2.27,0,0,1-.1-4.53A2.3,2.3,0,0,1,25.62,339.38Z"/><path class="cls-7" d="M51.68,339.43a2.26,2.26,0,0,1-2.24,2.27,2.27,2.27,0,1,1,2.24-2.27Z"/><path class="cls-7" d="M6.19,345.86a2.26,2.26,0,0,1-2.25,2.26,2.26,2.26,0,0,1,0-4.51A2.29,2.29,0,0,1,6.19,345.86Z"/><path class="cls-7" d="M19.15,339.49a2.23,2.23,0,1,1-4.45-.1,2.29,2.29,0,0,1,2.22-2.2A2.25,2.25,0,0,1,19.15,339.49Z"/><path class="cls-7" d="M68.86,348.11a2.25,2.25,0,0,1-2.24-2.28,2.28,2.28,0,0,1,2.21-2.21,2.25,2.25,0,0,1,0,4.49Z"/><path class="cls-7" d="M55.83,341.67a2.23,2.23,0,0,1,.08-4.46,2.23,2.23,0,0,1-.08,4.46Z"/><path class="cls-7" d="M84,352.43a2.19,2.19,0,0,1-2.2,2.16,2.18,2.18,0,0,1,0-4.36A2.22,2.22,0,0,1,84,352.43Z"/><path class="cls-7" d="M8.22,339.36a2.14,2.14,0,0,1,2.24-2.09,2.18,2.18,0,1,1-.15,4.35A2.16,2.16,0,0,1,8.22,339.36Z"/><path class="cls-7" d="M62.4,337.29a2.16,2.16,0,0,1,.08,4.31,2.19,2.19,0,0,1-2.25-2.12A2.17,2.17,0,0,1,62.4,337.29Z"/><path class="cls-7" d="M38.5,332.94a2.19,2.19,0,0,1-2.27,2.1,2.16,2.16,0,0,1,.22-4.31A2.21,2.21,0,0,1,38.5,332.94Z"/><path class="cls-7" d="M75.43,348a2.14,2.14,0,1,1-.07-4.28,2.14,2.14,0,1,1,.07,4.28Z"/><path class="cls-7" d="M32.05,332.93a2.17,2.17,0,0,1-2.16,2.1,2.15,2.15,0,1,1,.09-4.29A2.19,2.19,0,0,1,32.05,332.93Z"/><path class="cls-7" d="M42.94,335A2.15,2.15,0,0,1,40.76,333a2.13,2.13,0,1,1,4.26-.1A2.15,2.15,0,0,1,42.94,335Z"/><path class="cls-7" d="M23.31,330.75a2.14,2.14,0,1,1,.05,4.27,2.13,2.13,0,0,1-2.11-2.1A2.16,2.16,0,0,1,23.31,330.75Z"/><path class="cls-7" d="M4,337.33a2.11,2.11,0,1,1-.06,4.21A2.11,2.11,0,1,1,4,337.33Z"/><path class="cls-7" d="M71,339.43a2.09,2.09,0,0,1-2.1,2.1,2.1,2.1,0,0,1,0-4.19A2.11,2.11,0,0,1,71,339.43Z"/><path class="cls-7" d="M51.53,332.84a2.12,2.12,0,0,1-2,2.17,2.12,2.12,0,0,1-.11-4.24A2.12,2.12,0,0,1,51.53,332.84Z"/><path class="cls-7" d="M19,332.91A2.13,2.13,0,0,1,16.85,335a2.07,2.07,0,0,1-2-2.11A2,2,0,0,1,17,330.81,2.1,2.1,0,0,1,19,332.91Z"/><path class="cls-7" d="M88.32,350.34a2.1,2.1,0,0,1,2.15,2.08,2.15,2.15,0,0,1-2,2.09,2.07,2.07,0,0,1-2.12-2A2,2,0,0,1,88.32,350.34Z"/><path class="cls-7" d="M81.82,343.8a2.07,2.07,0,0,1,0,4.13,2.07,2.07,0,1,1,0-4.13Z"/><path class="cls-7" d="M55.84,335a2.12,2.12,0,0,1-2.05-2.17,2.09,2.09,0,0,1,2.11-2,2,2,0,0,1,2,2.15A2.07,2.07,0,0,1,55.84,335Z"/><path class="cls-7" d="M77.42,339.46a2.05,2.05,0,0,1-2,2,2,2,0,1,1,0-4.09A2.06,2.06,0,0,1,77.42,339.46Z"/><path class="cls-7" d="M64.46,332.83a2,2,0,0,1-2,2.07,2,2,0,1,1-.11-4A2,2,0,0,1,64.46,332.83Z"/><path class="cls-7" d="M12.41,332.91a2,2,0,0,1-2.05,2,2,2,0,1,1,0-4A2,2,0,0,1,12.41,332.91Z"/><path class="cls-7" d="M36.36,324.48a2,2,0,1,1-.09,3.95,2,2,0,0,1,.09-3.95Z"/><path class="cls-7" d="M44.85,326.41a1.93,1.93,0,0,1-1.88,2,2,2,0,1,1-.11-3.93A1.94,1.94,0,0,1,44.85,326.41Z"/><path class="cls-7" d="M5.94,332.87a2,2,0,0,1-1.94,2,2,2,0,1,1,0-3.93A2,2,0,0,1,5.94,332.87Z"/><path class="cls-7" d="M29.86,324.49a2,2,0,1,1,.05,3.93,2,2,0,0,1-.05-3.93Z"/><path class="cls-7" d="M90.32,345.9a2,2,0,0,1-2,2,2,2,0,0,1-1.94-2,2,2,0,0,1,2-1.93A1.94,1.94,0,0,1,90.32,345.9Z"/><path class="cls-7" d="M93,352.41a1.94,1.94,0,0,1,2-2,2,2,0,0,1,2,2,2,2,0,0,1-2,1.95A1.92,1.92,0,0,1,93,352.41Z"/><path class="cls-7" d="M70.79,332.85a1.9,1.9,0,0,1-1.91,2,2,2,0,0,1-2-1.91,2,2,0,0,1,1.94-2A1.92,1.92,0,0,1,70.79,332.85Z"/><path class="cls-7" d="M49.38,328.41a2,2,0,0,1,.11-3.91,2,2,0,1,1-.11,3.91Z"/><path class="cls-7" d="M25.31,326.48a1.92,1.92,0,0,1-2,1.93,2,2,0,0,1-2-2,2,2,0,0,1,2-1.95A1.94,1.94,0,0,1,25.31,326.48Z"/><path class="cls-7" d="M81.8,341.39a1.94,1.94,0,0,1-1.91-2,1.9,1.9,0,0,1,1.91-1.88,2,2,0,0,1,2,1.94A2,2,0,0,1,81.8,341.39Z"/><path class="cls-7" d="M18.84,326.43a1.92,1.92,0,0,1-1.94,2,1.94,1.94,0,1,1,.06-3.87A1.93,1.93,0,0,1,18.84,326.43Z"/><path class="cls-7" d="M55.83,324.52a1.94,1.94,0,1,1,.08,3.87,1.94,1.94,0,0,1-.08-3.87Z"/><path class="cls-7" d="M77.29,332.84a1.9,1.9,0,1,1-2-1.86A1.93,1.93,0,0,1,77.29,332.84Z"/><path class="cls-7" d="M10.43,328.36a1.9,1.9,0,0,1-.1-3.8,1.9,1.9,0,0,1,.1,3.8Z"/><path class="cls-7" d="M64.3,326.45a1.91,1.91,0,0,1-1.87,1.9,1.9,1.9,0,0,1,0-3.79A1.93,1.93,0,0,1,64.3,326.45Z"/><path class="cls-7" d="M95,347.71a1.86,1.86,0,0,1-1.9-1.86A1.88,1.88,0,0,1,94.88,344a1.85,1.85,0,0,1,.07,3.69Z"/><path class="cls-7" d="M103.18,352.39a1.83,1.83,0,0,1-1.77,1.87,1.88,1.88,0,0,1-1.91-1.87,1.85,1.85,0,0,1,1.84-1.8A1.8,1.8,0,0,1,103.18,352.39Z"/><path class="cls-7" d="M90.23,339.46a1.86,1.86,0,0,1-1.85,1.81,1.84,1.84,0,1,1,.05-3.67A1.88,1.88,0,0,1,90.23,339.46Z"/><path class="cls-7" d="M38.15,319.92a1.79,1.79,0,0,1-1.79,1.82,1.83,1.83,0,1,1,0-3.66A1.81,1.81,0,0,1,38.15,319.92Z"/><path class="cls-7" d="M5.76,326.42A1.79,1.79,0,0,1,4,328.28a1.86,1.86,0,0,1-1.87-1.79,1.83,1.83,0,0,1,1.8-1.84A1.78,1.78,0,0,1,5.76,326.42Z"/><path class="cls-7" d="M29.92,318.09a1.82,1.82,0,0,1,0,3.64,1.82,1.82,0,1,1,0-3.64Z"/><path class="cls-7" d="M42.92,318.09a1.82,1.82,0,1,1-.06,3.64,1.82,1.82,0,0,1,.06-3.64Z"/><path class="cls-7" d="M81.82,334.69A1.83,1.83,0,0,1,80,332.88a1.81,1.81,0,0,1,1.83-1.78,1.77,1.77,0,0,1,1.8,1.8A1.79,1.79,0,0,1,81.82,334.69Z"/><path class="cls-7" d="M23.5,318.1a1.86,1.86,0,0,1,1.66,2,1.8,1.8,0,1,1-1.66-2Z"/><path class="cls-7" d="M49.48,318.1a1.81,1.81,0,1,1-.14,3.62,1.81,1.81,0,0,1,.14-3.62Z"/><path class="cls-7" d="M68.89,324.67a1.8,1.8,0,0,1,1.78,1.83,1.82,1.82,0,0,1-1.86,1.76,1.78,1.78,0,0,1-1.76-1.85A1.75,1.75,0,0,1,68.89,324.67Z"/><path class="cls-7" d="M17,321.69a1.78,1.78,0,1,1,0-3.56,1.78,1.78,0,0,1,0,3.56Z"/><path class="cls-7" d="M57.63,319.94a1.8,1.8,0,0,1-1.79,1.74,1.77,1.77,0,0,1,.06-3.53A1.8,1.8,0,0,1,57.63,319.94Z"/><path class="cls-7" d="M75.38,324.72a1.78,1.78,0,0,1,1.77,1.72,1.74,1.74,0,0,1-1.74,1.74,1.68,1.68,0,0,1-1.73-1.71A1.71,1.71,0,0,1,75.38,324.72Z"/><path class="cls-7" d="M88.33,331.17a1.71,1.71,0,0,1,1.73,1.63,1.69,1.69,0,0,1-1.65,1.8,1.74,1.74,0,0,1-1.76-1.73A1.77,1.77,0,0,1,88.33,331.17Z"/><path class="cls-7" d="M109.58,352.38a1.69,1.69,0,0,1-1.61,1.73,1.74,1.74,0,0,1-1.78-1.71,1.77,1.77,0,0,1,1.7-1.69A1.7,1.7,0,0,1,109.58,352.38Z"/><path class="cls-7" d="M12.12,319.88a1.78,1.78,0,0,1-1.73,1.76A1.71,1.71,0,0,1,8.68,320a1.68,1.68,0,0,1,1.65-1.8A1.75,1.75,0,0,1,12.12,319.88Z"/><path class="cls-7" d="M101.39,347.6a1.71,1.71,0,0,1-1.74-1.73,1.67,1.67,0,0,1,1.62-1.71,1.76,1.76,0,0,1,1.82,1.65A1.78,1.78,0,0,1,101.39,347.6Z"/><path class="cls-7" d="M94.9,341.16a1.69,1.69,0,0,1-1.68-1.77,1.66,1.66,0,0,1,1.67-1.66,1.75,1.75,0,0,1,1.77,1.7A1.78,1.78,0,0,1,94.9,341.16Z"/><path class="cls-7" d="M64.11,320a1.67,1.67,0,0,1-1.68,1.66,1.7,1.7,0,1,1,.08-3.39A1.66,1.66,0,0,1,64.11,320Z"/><path class="cls-7" d="M83.48,326.47a1.66,1.66,0,1,1-3.31-.08,1.66,1.66,0,0,1,3.31.08Z"/><path class="cls-7" d="M5.6,319.87A1.61,1.61,0,0,1,4,321.55a1.64,1.64,0,0,1-.08-3.28A1.61,1.61,0,0,1,5.6,319.87Z"/><path class="cls-7" d="M38,313.34A1.66,1.66,0,0,1,36.3,315a1.66,1.66,0,0,1,.07-3.31A1.66,1.66,0,0,1,38,313.34Z"/><path class="cls-7" d="M31.52,313.41a1.62,1.62,0,0,1-1.6,1.59,1.64,1.64,0,1,1,0-3.27A1.62,1.62,0,0,1,31.52,313.41Z"/><path class="cls-7" d="M42.85,311.73a1.64,1.64,0,0,1,.09,3.27,1.64,1.64,0,0,1-.09-3.27Z"/><path class="cls-7" d="M70.5,319.94a1.65,1.65,0,0,1-1.74,1.6,1.63,1.63,0,0,1,.18-3.26A1.64,1.64,0,0,1,70.5,319.94Z"/><path class="cls-7" d="M49.46,311.76a1.57,1.57,0,0,1,1.57,1.6A1.61,1.61,0,0,1,49.47,315a1.66,1.66,0,0,1-1.66-1.67A1.64,1.64,0,0,1,49.46,311.76Z"/><path class="cls-7" d="M25,313.41A1.66,1.66,0,0,1,23.35,315a1.6,1.6,0,0,1-1.58-1.71,1.58,1.58,0,0,1,1.67-1.51A1.64,1.64,0,0,1,25,313.41Z"/><path class="cls-7" d="M102.93,339.46a1.56,1.56,0,0,1-1.6,1.57,1.63,1.63,0,0,1-1.59-1.61,1.66,1.66,0,0,1,1.63-1.59A1.59,1.59,0,0,1,102.93,339.46Z"/><path class="cls-7" d="M94.91,331.31a1.55,1.55,0,0,1,1.59,1.58,1.57,1.57,0,0,1-1.58,1.59,1.59,1.59,0,1,1,0-3.17Z"/><path class="cls-7" d="M107.85,344.28a1.59,1.59,0,1,1,.05,3.17,1.57,1.57,0,0,1-1.57-1.5A1.6,1.6,0,0,1,107.85,344.28Z"/><path class="cls-7" d="M77,320a1.56,1.56,0,0,1-1.65,1.53,1.59,1.59,0,0,1,.11-3.17A1.59,1.59,0,0,1,77,320Z"/><path class="cls-7" d="M18.52,313.32a1.6,1.6,0,0,1-1.58,1.61,1.57,1.57,0,0,1-.08-3.13A1.59,1.59,0,0,1,18.52,313.32Z"/><path class="cls-7" d="M57.44,313.4a1.54,1.54,0,0,1-1.64,1.52,1.56,1.56,0,1,1,.08-3.12A1.54,1.54,0,0,1,57.44,313.4Z"/><path class="cls-7" d="M114.35,353.94a1.53,1.53,0,1,1,1.52-1.52A1.51,1.51,0,0,1,114.35,353.94Z"/><path class="cls-7" d="M88.41,324.93a1.53,1.53,0,0,1,0,3.05,1.53,1.53,0,1,1,0-3.05Z"/><path class="cls-7" d="M62.45,311.85a1.51,1.51,0,1,1-.08,3,1.51,1.51,0,1,1,.08-3Z"/><path class="cls-7" d="M10.37,311.85a1.51,1.51,0,1,1,0,3,1.51,1.51,0,1,1,0-3Z"/><path class="cls-7" d="M4,311.88a1.56,1.56,0,0,1,1.48,1.47,1.54,1.54,0,0,1-1.57,1.49,1.46,1.46,0,0,1-1.39-1.53A1.47,1.47,0,0,1,4,311.88Z"/><path class="cls-7" d="M81.79,321.38a1.44,1.44,0,0,1-1.42-1.48,1.42,1.42,0,0,1,1.44-1.45,1.47,1.47,0,1,1,0,2.93Z"/><path class="cls-7" d="M68.81,314.83a1.47,1.47,0,0,1,.07-2.94,1.48,1.48,0,0,1,1.42,1.51A1.47,1.47,0,0,1,68.81,314.83Z"/><path class="cls-7" d="M101.31,334.35a1.45,1.45,0,0,1-1.41-1.5,1.48,1.48,0,0,1,1.5-1.43,1.47,1.47,0,1,1-.09,2.93Z"/><path class="cls-7" d="M31.34,307A1.44,1.44,0,1,1,30,305.48,1.48,1.48,0,0,1,31.34,307Z"/><path class="cls-7" d="M107.94,340.87a1.44,1.44,0,1,1-.09-2.87,1.44,1.44,0,1,1,.09,2.87Z"/><path class="cls-7" d="M44.33,307a1.44,1.44,0,1,1-1.45-1.47A1.46,1.46,0,0,1,44.33,307Z"/><path class="cls-7" d="M37.78,306.88a1.44,1.44,0,1,1-1.52-1.4A1.48,1.48,0,0,1,37.78,306.88Z"/><path class="cls-7" d="M22,306.92a1.45,1.45,0,0,1,1.37-1.42,1.43,1.43,0,1,1,0,2.86A1.45,1.45,0,0,1,22,306.92Z"/><path class="cls-7" d="M96.33,326.41a1.44,1.44,0,0,1-1.42,1.48,1.44,1.44,0,0,1,0-2.87A1.44,1.44,0,0,1,96.33,326.41Z"/><path class="cls-7" d="M50.84,306.89a1.42,1.42,0,0,1-1.42,1.47,1.43,1.43,0,0,1,0-2.86A1.43,1.43,0,0,1,50.84,306.89Z"/><path class="cls-7" d="M115.76,345.82a1.41,1.41,0,0,1-1.32,1.45,1.41,1.41,0,0,1-.21-2.81A1.42,1.42,0,0,1,115.76,345.82Z"/><path class="cls-7" d="M15.56,306.94a1.34,1.34,0,0,1,1.37-1.38,1.4,1.4,0,0,1,1.4,1.37,1.43,1.43,0,0,1-1.39,1.39A1.38,1.38,0,0,1,15.56,306.94Z"/><path class="cls-7" d="M75.45,312a1.34,1.34,0,0,1,1.31,1.43,1.36,1.36,0,0,1-1.43,1.33A1.43,1.43,0,0,1,74,313.31,1.41,1.41,0,0,1,75.45,312Z"/><path class="cls-7" d="M88.36,321.28a1.37,1.37,0,0,1,0-2.74,1.37,1.37,0,1,1,0,2.74Z"/><path class="cls-7" d="M55.87,305.56a1.33,1.33,0,0,1,1.36,1.37,1.37,1.37,0,0,1-1.36,1.39,1.44,1.44,0,0,1-1.4-1.39A1.4,1.4,0,0,1,55.87,305.56Z"/><path class="cls-7" d="M122.23,352.37a1.34,1.34,0,0,1-1.34,1.41,1.41,1.41,0,0,1-1.39-1.37,1.38,1.38,0,0,1,1.3-1.34A1.32,1.32,0,0,1,122.23,352.37Z"/><path class="cls-7" d="M11.7,306.89a1.27,1.27,0,0,1-1.24,1.34,1.3,1.3,0,1,1-.09-2.6A1.29,1.29,0,0,1,11.7,306.89Z"/><path class="cls-7" d="M62.45,308.23A1.28,1.28,0,0,1,61.1,307a1.33,1.33,0,1,1,1.35,1.23Z"/><path class="cls-7" d="M107.86,334.18a1.29,1.29,0,1,1,.08-2.58,1.29,1.29,0,0,1-.08,2.58Z"/><path class="cls-7" d="M81.79,312.09a1.27,1.27,0,1,1,0,2.54,1.23,1.23,0,0,1-1.25-1.2A1.25,1.25,0,0,1,81.79,312.09Z"/><path class="cls-7" d="M115.6,339.48a1.28,1.28,0,0,1-1.34,1.25,1.34,1.34,0,0,1-1.22-1.27,1.31,1.31,0,0,1,1.3-1.31A1.27,1.27,0,0,1,115.6,339.48Z"/><path class="cls-7" d="M101.31,327.73a1.28,1.28,0,0,1,0-2.55,1.28,1.28,0,1,1,0,2.55Z"/><path class="cls-7" d="M4,308.19A1.22,1.22,0,0,1,2.71,307a1.24,1.24,0,0,1,1.23-1.33,1.3,1.3,0,0,1,1.29,1.19A1.29,1.29,0,0,1,4,308.19Z"/><path class="cls-7" d="M70.08,306.93a1.25,1.25,0,0,1-1.21,1.25,1.25,1.25,0,1,1,0-2.5A1.26,1.26,0,0,1,70.08,306.93Z"/><path class="cls-7" d="M119.65,345.92a1.19,1.19,0,0,1,1.18-1.27,1.23,1.23,0,1,1,.1,2.45A1.21,1.21,0,0,1,119.65,345.92Z"/><path class="cls-7" d="M93.69,320a1.19,1.19,0,0,1,1.19-1.27,1.25,1.25,0,0,1,1.3,1.17A1.27,1.27,0,0,1,95,321.15,1.23,1.23,0,0,1,93.69,320Z"/><path class="cls-7" d="M36.3,301.58a1.16,1.16,0,0,1-1.17-1.26,1.18,1.18,0,0,1,1.31-1.13,1.2,1.2,0,1,1-.14,2.39Z"/><path class="cls-7" d="M42.87,299.2a1.19,1.19,0,0,1,1.22,1.22,1.17,1.17,0,0,1-1.18,1.14,1.15,1.15,0,0,1-1.21-1.21A1.17,1.17,0,0,1,42.87,299.2Z"/><path class="cls-7" d="M30,301.56a1.18,1.18,0,1,1,1.14-1.17A1.15,1.15,0,0,1,30,301.56Z"/><path class="cls-7" d="M89.56,313.34a1.22,1.22,0,0,1-1.13,1.21,1.19,1.19,0,1,1,0-2.37A1.2,1.2,0,0,1,89.56,313.34Z"/><path class="cls-7" d="M50.59,300.44a1.1,1.1,0,0,1-1.18,1.1,1.16,1.16,0,0,1-1.16-1.15,1.19,1.19,0,0,1,1.26-1.17A1.13,1.13,0,0,1,50.59,300.44Z"/><path class="cls-7" d="M23.37,299.22a1.17,1.17,0,1,1-.07,2.33,1.17,1.17,0,0,1,.07-2.33Z"/><path class="cls-7" d="M16.93,299.23a1.19,1.19,0,0,1,1.17,1.15,1.17,1.17,0,0,1-1.16,1.15,1.1,1.1,0,0,1-1.14-1.14A1.12,1.12,0,0,1,16.93,299.23Z"/><path class="cls-7" d="M57,300.43a1.12,1.12,0,0,1-1.11,1.09,1.18,1.18,0,0,1-1.15-1.18,1.2,1.2,0,0,1,1.14-1.1A1.13,1.13,0,0,1,57,300.43Z"/><path class="cls-7" d="M76.53,306.89a1.16,1.16,0,0,1-1.1,1.21,1.23,1.23,0,0,1-1.2-1.13,1.16,1.16,0,0,1,1.12-1.18A1.11,1.11,0,0,1,76.53,306.89Z"/><path class="cls-7" d="M128.45,352.37a1.16,1.16,0,0,1-1.1,1.21,1.21,1.21,0,0,1-1.2-1.12,1.17,1.17,0,0,1,1.11-1.19A1.12,1.12,0,0,1,128.45,352.37Z"/><path class="cls-7" d="M114.28,331.78a1.15,1.15,0,0,1,1.2,1.11,1.16,1.16,0,0,1-1.09,1.12,1.09,1.09,0,0,1-1.17-1.12A1.08,1.08,0,0,1,114.28,331.78Z"/><path class="cls-7" d="M107.85,325.34a1.12,1.12,0,1,1,.11,2.24,1.12,1.12,0,1,1-.11-2.24Z"/><path class="cls-7" d="M101.34,318.81a1.1,1.1,0,0,1,0,2.2,1.1,1.1,0,0,1,0-2.2Z"/><path class="cls-7" d="M10.41,301.48a1.11,1.11,0,0,1-1.1-1.07,1.1,1.1,0,0,1,1-1.12,1.1,1.1,0,0,1,.05,2.19Z"/><path class="cls-7" d="M120.84,340.53a1.1,1.1,0,0,1,.08-2.19,1.13,1.13,0,0,1,1,1.14A1.11,1.11,0,0,1,120.84,340.53Z"/><path class="cls-7" d="M63.49,300.38a1.08,1.08,0,1,1-2.16,0,1.13,1.13,0,0,1,1.08-1.1A1.1,1.1,0,0,1,63.49,300.38Z"/><path class="cls-7" d="M82.89,306.88a1.05,1.05,0,0,1-1,1.09,1,1,0,0,1-1.15-1,1,1,0,0,1,.93-1.1A1.08,1.08,0,0,1,82.89,306.88Z"/><path class="cls-7" d="M96,313.41a1.06,1.06,0,0,1-1.06,1,1,1,0,0,1-1-1.13,1,1,0,0,1,1.09-.93A1.08,1.08,0,0,1,96,313.41Z"/><path class="cls-7" d="M68.85,301.38a1,1,0,0,1-1-1,1,1,0,0,1,1.07-1,.94.94,0,0,1,.94,1A1,1,0,0,1,68.85,301.38Z"/><path class="cls-7" d="M127.3,344.88a1,1,0,0,1,1,1,1,1,0,0,1-1.05,1,1,1,0,0,1,0-2Z"/><path class="cls-7" d="M4,299.39a1,1,0,0,1,1,1,1,1,0,0,1-1.09.94,1,1,0,0,1-.92-1A1,1,0,0,1,4,299.39Z"/><path class="cls-7" d="M89.31,306.88a1,1,0,0,1-.91,1,.91.91,0,0,1-.93-.82.9.9,0,0,1,.82-1A1,1,0,0,1,89.31,306.88Z"/><path class="cls-7" d="M43.83,293.91a1,1,0,0,1-.92,1,.89.89,0,0,1-.93-.82.92.92,0,0,1,.85-1A1,1,0,0,1,43.83,293.91Z"/><path class="cls-7" d="M36.33,293a.92.92,0,0,1,.07,1.84.92.92,0,1,1-.07-1.84Z"/><path class="cls-7" d="M30.81,293.94a.88.88,0,0,1-.93.93.94.94,0,0,1-.91-1,1,1,0,0,1,.9-.87A.88.88,0,0,1,30.81,293.94Z"/><path class="cls-7" d="M115.27,326.42a1,1,0,0,1-.92,1,.93.93,0,0,1-.08-1.86A1,1,0,0,1,115.27,326.42Z"/><path class="cls-7" d="M24.27,294a.93.93,0,0,1-.95.9.89.89,0,0,1-.84-.89.92.92,0,0,1,.83-.92A1,1,0,0,1,24.27,294Z"/><path class="cls-7" d="M75.38,301.28a.93.93,0,0,1-.9-1,1,1,0,0,1,.92-.84.92.92,0,0,1,.88,1A.89.89,0,0,1,75.38,301.28Z"/><path class="cls-7" d="M50.32,293.93a.89.89,0,0,1-.81.92.94.94,0,0,1-1-.88,1,1,0,0,1,.95-.93A.92.92,0,0,1,50.32,293.93Z"/><path class="cls-7" d="M108.81,319.91a.94.94,0,0,1-1,.9.9.9,0,0,1-.82-.91.92.92,0,0,1,.83-.9A1,1,0,0,1,108.81,319.91Z"/><path class="cls-7" d="M133.81,351.54a.89.89,0,1,1,0,1.77.86.86,0,0,1-.87-.87A.84.84,0,0,1,133.81,351.54Z"/><path class="cls-7" d="M121.76,332.88a.86.86,0,0,1-.84.9,1,1,0,0,1-1-.93.94.94,0,0,1,.93-.84A.85.85,0,0,1,121.76,332.88Z"/><path class="cls-7" d="M17.8,294a.91.91,0,0,1-.91.84.88.88,0,0,1,.08-1.76A.93.93,0,0,1,17.8,294Z"/><path class="cls-7" d="M128.15,339.39a.83.83,0,1,1-1.66.1.85.85,0,0,1,.72-.89A.87.87,0,0,1,128.15,339.39Z"/><path class="cls-7" d="M55.86,293.11a.86.86,0,0,1,.85.89.88.88,0,0,1-.82.8.86.86,0,0,1-.84-.89A.85.85,0,0,1,55.86,293.11Z"/><path class="cls-7" d="M102.19,313.47a.85.85,0,0,1-1,.7.83.83,0,0,1,.33-1.62A.85.85,0,0,1,102.19,313.47Z"/><path class="cls-7" d="M10.18,293.2c.65,0,1,.41,1,.82a.74.74,0,0,1-.78.68.68.68,0,0,1-.73-.81A2.17,2.17,0,0,1,10.18,293.2Z"/><path class="cls-7" d="M82.61,300.56a2.3,2.3,0,0,1-.71.55.68.68,0,0,1-.83-.7.7.7,0,0,1,.68-.77C82.2,299.59,82.59,299.93,82.61,300.56Z"/><path class="cls-7" d="M63.46,294c-.45.34-.69.64-1,.73s-.82-.3-.83-.73a.71.71,0,0,1,.83-.72C62.76,293.31,63,293.61,63.46,294Z"/><path class="cls-7" d="M95.91,306.94c-.43.33-.67.63-1,.72s-.8-.37-.75-.79a.66.66,0,0,1,.76-.66C95.24,306.27,95.49,306.6,95.91,306.94Z"/><path class="cls-7" d="M134.6,345.89a.7.7,0,0,1-.77.69.68.68,0,0,1-.69-.74.67.67,0,0,1,.75-.69A.7.7,0,0,1,134.6,345.89Z"/><path class="cls-7" d="M4.63,293.94a.66.66,0,0,1-.7.7c-.39,0-.79-.38-.66-.72a1.21,1.21,0,0,1,.64-.64C4.28,293.16,4.62,293.53,4.63,293.94Z"/><path class="cls-7" d="M68.84,293c.31.41.58.63.66.91s-.33.73-.7.68-.66-.3-.58-.68S68.55,293.43,68.84,293Z"/><path class="cls-7" d="M115.24,319.85c-.37.32-.57.62-.84.7s-.64-.15-.71-.54.25-.83.62-.75A3.69,3.69,0,0,1,115.24,319.85Z"/><path class="cls-7" d="M121.83,326.51c-.47.29-.72.54-1,.57s-.64-.26-.62-.66a.56.56,0,0,1,.68-.58C121.17,325.9,121.39,326.18,121.83,326.51Z"/><path class="cls-7" d="M127.37,333.74c-.31-.35-.58-.53-.64-.76a.53.53,0,0,1,.54-.69c.42,0,.69.22.64.61S127.63,333.35,127.37,333.74Z"/><path class="cls-7" d="M108.76,313.32c-.36.3-.54.56-.78.62a.53.53,0,0,1-.69-.55c0-.4.23-.68.63-.61C108.16,312.82,108.37,313.06,108.76,313.32Z"/><path class="cls-7" d="M88.38,299.55c.26.4.54.64.51.84s-.34.39-.52.58c-.2-.2-.52-.38-.55-.59S88.1,300,88.38,299.55Z"/><path class="cls-7" d="M30.72,287.49c-.45.21-.69.43-.92.41a.68.68,0,0,1-.37-.55c0-.18.33-.47.48-.45S30.33,287.18,30.72,287.49Z"/><path class="cls-7" d="M37.16,287.34c-.4.29-.6.55-.83.57s-.46-.28-.47-.46.23-.53.38-.54S36.71,287.11,37.16,287.34Z"/><path class="cls-7" d="M102.17,306.85c-.4.31-.6.56-.82.58s-.46-.27-.48-.45.23-.53.38-.54S101.72,306.63,102.17,306.85Z"/><path class="cls-7" d="M141.22,352.34c-.4.3-.6.56-.82.58s-.46-.28-.48-.46.23-.53.38-.54S140.77,352.12,141.22,352.34Z"/><path class="cls-7" d="M42.92,288.16c-.26-.34-.52-.54-.54-.76s.29-.35.46-.53c.19.18.47.33.54.55S43.16,287.8,42.92,288.16Z"/><path class="cls-7" d="M75.33,294.64c-.2-.31-.44-.52-.42-.7a.73.73,0,0,1,.48-.47.43.43,0,0,1,.51.55C75.86,294.21,75.6,294.36,75.33,294.64Z"/><path class="cls-7" d="M50,287.37c-.21.21-.38.51-.49.49s-.38-.28-.57-.43c.17-.16.32-.41.52-.47S49.78,287.19,50,287.37Z"/><path class="cls-7" d="M24.07,287.38c-.35.24-.54.46-.74.48s-.39-.28-.4-.44.24-.47.36-.47S23.7,287.17,24.07,287.38Z"/><path class="cls-7" d="M133.91,340.07c-.24-.27-.5-.45-.47-.56a.83.83,0,0,1,.43-.51c.09,0,.43.24.43.37S134.1,339.76,133.91,340.07Z"/><path class="cls-7" d="M56.44,287.42c-.28.17-.44.34-.61.35s-.25-.21-.38-.32c.13-.14.25-.38.4-.4S56.17,287.23,56.44,287.42Z"/><path class="cls-7" d="M16.92,286.87l.43.56a1.56,1.56,0,0,1-.48.34c-.08,0-.33-.23-.32-.33S16.74,287.12,16.92,286.87Z"/><path class="cls-7" d="M81.88,294.45c-.18-.23-.33-.34-.36-.49s.16-.33.22-.32.38.13.42.25S82,294.19,81.88,294.45Z"/><path class="cls-7" d="M140.91,345.9c-.25.15-.42.32-.54.29s-.24-.25-.27-.4.21-.27.3-.25S140.68,345.72,140.91,345.9Z"/><path class="cls-7" d="M62.88,287.56c-.29.07-.46.16-.6.13s-.22-.29-.19-.33.27-.27.4-.26S62.69,287.33,62.88,287.56Z"/><path class="cls-7" d="M10.88,287.35c-.23.18-.34.33-.49.37s-.31-.16-.3-.22.13-.37.24-.4S10.62,287.22,10.88,287.35Z"/><path class="cls-7" d="M95.43,300.37c-.24.17-.39.36-.51.34s-.26-.22-.31-.37.19-.29.28-.28S95.18,300.22,95.43,300.37Z"/><path class="cls-7" d="M121.38,319.91c-.24.17-.4.35-.52.33s-.25-.24-.29-.39.2-.28.29-.26S121.14,319.75,121.38,319.91Z"/><path class="cls-7" d="M127.26,326c.16.2.32.32.31.42s-.18.2-.3.26-.2-.13-.2-.21A1.6,1.6,0,0,1,127.26,326Z"/><path class="cls-7" d="M114.74,313.32c-.2.16-.32.32-.41.31s-.21-.18-.25-.3.13-.22.2-.22S114.52,313.21,114.74,313.32Z"/></g></g><path class="cls-8" d="M213.73,21.65h-7.68L189.52,56.57a16.19,16.19,0,0,1-14.63,9.26H67a16.18,16.18,0,0,1-14.63-9.26L35.85,21.65H28.17A8.33,8.33,0,0,0,19.84,30V322.09a8.33,8.33,0,0,0,8.33,8.33H60l8.85-18.69a12.29,12.29,0,0,1,11.12-7h82a12.29,12.29,0,0,1,11.12,7l8.85,18.69h31.81a8.33,8.33,0,0,0,8.33-8.33V30A8.33,8.33,0,0,0,213.73,21.65Z"/><path class="cls-9" d="M213.73,21.65h-7.68L189.52,56.57a16.19,16.19,0,0,1-14.63,9.26H67a16.18,16.18,0,0,1-14.63-9.26L35.85,21.65H28.17A8.33,8.33,0,0,0,19.84,30V322.09a8.33,8.33,0,0,0,8.33,8.33H60l8.85-18.69a12.29,12.29,0,0,1,11.12-7h82a12.29,12.29,0,0,1,11.12,7l8.85,18.69h31.81a8.33,8.33,0,0,0,8.33-8.33V30A8.33,8.33,0,0,0,213.73,21.65Z"/><path class="cls-10" d="M131.69,31.42a10.14,10.14,0,1,1-3.92,15.27A9.81,9.81,0,0,1,125.91,39a10.1,10.1,0,0,1,4.23-6.69l-1.68-3c-1.78,3.09-3.53,6.14-5.28,9.21a2,2,0,0,0,.17.23,3,3,0,0,1-2.49,4.87,2.85,2.85,0,0,1-2.66-1.81.45.45,0,0,0-.5-.33c-.53,0-1,0-1.58,0a10.15,10.15,0,1,1-5.92-10.11c0-.08.1-.15.14-.23l2-3.48a.39.39,0,0,0,0-.46c-.44-.74-.87-1.5-1.28-2.26a.38.38,0,0,0-.38-.22h-3.56c-.62,0-1-.36-1-.9a.88.88,0,0,1,1-.88h8.77a.9.9,0,1,1,0,1.79H113l.15.29c2.32,4.1,4.66,8.19,7,12.3a.43.43,0,0,0,.51.25,3.31,3.31,0,0,1,.77,0,.3.3,0,0,0,.34-.17c1.86-3.26,3.74-6.51,5.6-9.78a.48.48,0,0,0,0-.37c-.52-.94-1.06-1.87-1.59-2.81a.94.94,0,0,1,.4-1.51l5.15-2.91a.89.89,0,0,1,1.36.48.92.92,0,0,1-.49,1.08L127.92,24l-.31.19c1.36,2.41,2.72,4.8,4.08,7.19m-.64,2.49a8.36,8.36,0,1,0,1.56-.88l.14.26c1.28,2.26,2.57,4.52,3.84,6.79a1.33,1.33,0,0,1,.17.73.81.81,0,0,1-.7.71.89.89,0,0,1-1-.49l-2.7-4.76c-.45-.78-.89-1.57-1.34-2.36m-16.78,7.62h-8.21a.88.88,0,0,1-.81-1.37l.09-.16c1.27-2.24,2.55-4.48,3.82-6.73l.14-.25a8.35,8.35,0,1,0,5,8.52m4.44-3q-2.58-4.53-5.23-9.22l-1.72,3a10.3,10.3,0,0,1,4.35,7.43h1.83c.06,0,.13-.07.17-.13.2-.35.39-.71.6-1.11m-11.18,1.22h6.77a8.4,8.4,0,0,0-3.43-5.84l-3.34,5.84M121,41.89a1.25,1.25,0,0,0,1.25-1.26A1.25,1.25,0,1,0,121,41.89"/><text class="cls-11" transform="translate(61.54 159.99)">Clear the <tspan x="-30.55" y="36">number order </tspan><tspan x="-24.46" y="72">from (41-50)</tspan></text><path class="cls-1" d="M189.52,56.57,203,28l-37.8,37.8h9.66A16.19,16.19,0,0,0,189.52,56.57Z"/><path class="cls-12" d="M222.06,30a8.33,8.33,0,0,0-8.33-8.33H209.4L203,28,189.52,56.57a16.19,16.19,0,0,1-14.63,9.26h-9.66L19.84,211.21v84.34L222.06,93.34Z"/><polygon class="cls-12" points="85.11 65.83 19.84 131.09 19.84 155.09 109.11 65.83 85.11 65.83"/><polygon class="cls-13" points="206.05 21.65 203.03 28.03 209.4 21.65 206.05 21.65"/><g class="cls-14"><g class="cls-6"><path class="cls-7" d="M240.7,352.37a1.9,1.9,0,0,1-1.87,1.91,1.86,1.86,0,0,1-.09-3.72A1.88,1.88,0,0,1,240.7,352.37Z"/><path class="cls-7" d="M240.57,345.83a1.74,1.74,0,0,1-1.69,1.8,1.76,1.76,0,0,1-.09-3.52A1.74,1.74,0,0,1,240.57,345.83Z"/><path class="cls-7" d="M234,352.39a1.75,1.75,0,0,1-1.74,1.74,1.68,1.68,0,0,1-1.7-1.63,1.7,1.7,0,0,1,1.65-1.81A1.77,1.77,0,0,1,234,352.39Z"/><path class="cls-7" d="M238.8,337.81a1.62,1.62,0,1,1,.08,3.24,1.58,1.58,0,0,1-1.65-1.63A1.59,1.59,0,0,1,238.8,337.81Z"/><path class="cls-7" d="M232.24,347.47a1.61,1.61,0,1,1,.15-3.21,1.61,1.61,0,0,1-.15,3.21Z"/><path class="cls-7" d="M225.89,354a1.55,1.55,0,1,1-.06-3.09,1.55,1.55,0,1,1,.06,3.09Z"/><path class="cls-7" d="M238.86,334.37a1.48,1.48,0,1,1,0-3,1.48,1.48,0,0,1,1.43,1.49A1.46,1.46,0,0,1,238.86,334.37Z"/><path class="cls-7" d="M232.25,340.9a1.44,1.44,0,0,1-1.42-1.47,1.42,1.42,0,0,1,1.45-1.45,1.47,1.47,0,0,1,1.5,1.53A1.5,1.5,0,0,1,232.25,340.9Z"/><path class="cls-7" d="M225.87,347.31a1.44,1.44,0,1,1,0-2.88,1.44,1.44,0,1,1,0,2.88Z"/><path class="cls-7" d="M217.94,352.43A1.35,1.35,0,0,1,219.3,351a1.43,1.43,0,0,1,1.41,1.37,1.45,1.45,0,0,1-1.39,1.4A1.39,1.39,0,0,1,217.94,352.43Z"/><path class="cls-7" d="M233.61,332.89a1.32,1.32,0,1,1-1.29-1.31A1.3,1.3,0,0,1,233.61,332.89Z"/><path class="cls-7" d="M225.82,338.12a1.33,1.33,0,0,1,1.34,1.28,1.35,1.35,0,0,1-1.26,1.36,1.32,1.32,0,0,1-.08-2.64Z"/><path class="cls-7" d="M238.83,327.74a1.29,1.29,0,1,1,0-2.57,1.26,1.26,0,0,1,1.3,1.29A1.25,1.25,0,0,1,238.83,327.74Z"/><path class="cls-7" d="M220.55,345.84a1.23,1.23,0,0,1-1.19,1.29,1.3,1.3,0,0,1-1.33-1.29,1.28,1.28,0,0,1,1.28-1.22A1.21,1.21,0,0,1,220.55,345.84Z"/><path class="cls-7" d="M213.92,352.44a1.19,1.19,0,0,1-1.15,1.17,1.23,1.23,0,0,1-1.19-1.16,1.21,1.21,0,0,1,1.23-1.22A1.18,1.18,0,0,1,213.92,352.44Z"/><path class="cls-7" d="M232.27,327.62a1.21,1.21,0,0,1-1.15-1.17,1.19,1.19,0,0,1,1.18-1.14,1.13,1.13,0,0,1,1.13,1.16A1.16,1.16,0,0,1,232.27,327.62Z"/><path class="cls-7" d="M227,332.9a1.14,1.14,0,0,1-1.14,1.15,1.2,1.2,0,0,1-1.16-1.16,1.18,1.18,0,0,1,1.17-1.15A1.12,1.12,0,0,1,227,332.9Z"/><path class="cls-7" d="M238.79,321a1.12,1.12,0,0,1,0-2.24A1.17,1.17,0,0,1,240,320,1.16,1.16,0,0,1,238.79,321Z"/><path class="cls-7" d="M219.35,338.32a1.17,1.17,0,0,1,1.08,1.12,1.15,1.15,0,0,1-1.21,1.11,1.12,1.12,0,0,1,.13-2.23Z"/><path class="cls-7" d="M212.74,344.8a1.09,1.09,0,0,1,1.09,1.1,1.11,1.11,0,0,1-1,1,1.06,1.06,0,0,1-1.07-1.1A1,1,0,0,1,212.74,344.8Z"/><path class="cls-7" d="M207.27,352.36a1,1,0,0,1-.86,1,1,1,0,1,1-.11-1.93A1,1,0,0,1,207.27,352.36Z"/><path class="cls-7" d="M225.89,327.42a1,1,0,1,1,0-1.93,1,1,0,0,1,0,1.93Z"/><path class="cls-7" d="M232.29,320.83a1,1,0,0,1-.94-.95,1,1,0,0,1,1-.9.91.91,0,0,1,.85.9A.88.88,0,0,1,232.29,320.83Z"/><path class="cls-7" d="M219.3,333.82a.92.92,0,0,1-.9-1,.89.89,0,0,1,.87-.88,1,1,0,0,1,1,.9A1,1,0,0,1,219.3,333.82Z"/><path class="cls-7" d="M212.81,338.55a.92.92,0,0,1,.82.94.89.89,0,0,1-.92.82.91.91,0,0,1-.82-.92A1,1,0,0,1,212.81,338.55Z"/><path class="cls-7" d="M239.71,313.41a.87.87,0,0,1-.92.8.85.85,0,1,1,.09-1.69A.86.86,0,0,1,239.71,313.41Z"/><path class="cls-7" d="M207.11,345.87a.77.77,0,0,1-.84.75.75.75,0,0,1,0-1.5A.77.77,0,0,1,207.11,345.87Z"/><path class="cls-7" d="M219.49,325.75a2.55,2.55,0,0,1,.51.72c.1.34-.35.73-.71.69a.66.66,0,0,1-.66-.65C218.6,326.11,218.89,325.77,219.49,325.75Z"/><path class="cls-7" d="M226.53,319.93c0,.41-.34.77-.72.64a1.2,1.2,0,0,1-.64-.63c-.12-.34.29-.71.67-.72A.66.66,0,0,1,226.53,319.93Z"/><path class="cls-7" d="M233.23,313.3c-.43.34-.64.63-.91.69a.57.57,0,0,1-.69-.58.55.55,0,0,1,.61-.66C232.51,312.78,232.76,313,233.23,313.3Z"/><path class="cls-7" d="M211.82,332.83c.45-.27.7-.53,1-.56s.63.24.6.66-.3.67-.68.58S212.23,333.16,211.82,332.83Z"/><path class="cls-7" d="M200.64,352.4c-.36.28-.55.54-.79.59a.53.53,0,0,1-.68-.56c0-.41.25-.68.65-.6C200.06,351.88,200.27,352.13,200.64,352.4Z"/><path class="cls-7" d="M207.18,339.46c-.41.26-.62.5-.86.53s-.55-.21-.54-.57a.47.47,0,0,1,.57-.53C206.59,338.93,206.79,339.18,207.18,339.46Z"/><path class="cls-7" d="M239.67,307c-.41.27-.66.54-.85.51s-.38-.35-.57-.55c.2-.18.38-.49.6-.52S239.27,306.67,239.67,307Z"/><path class="cls-7" d="M219.87,319.88c-.23.2-.38.42-.53.42a.52.52,0,0,1-.4-.37.55.55,0,0,1,.35-.42C219.44,319.49,219.62,319.71,219.87,319.88Z"/><path class="cls-7" d="M200.34,345.9c-.25.17-.43.38-.58.36a.4.4,0,0,1,.05-.79C200,345.48,200.12,345.71,200.34,345.9Z"/><path class="cls-7" d="M212.79,326.93c-.17-.22-.32-.34-.34-.49s.18-.31.24-.29.36.15.39.27S212.94,326.69,212.79,326.93Z"/><path class="cls-7" d="M225.88,313.84c-.16-.23-.31-.35-.34-.49s.18-.31.24-.3.36.15.4.27S226,313.6,225.88,313.84Z"/><path class="cls-7" d="M206.83,333c-.19.07-.33.16-.46.14s-.18-.15-.27-.24a1.42,1.42,0,0,1,.29-.26S206.54,332.76,206.83,333Z"/><path class="cls-7" d="M232.63,306.93a1.72,1.72,0,0,1-.34.27s-.16-.12-.24-.18a1.63,1.63,0,0,1,.27-.31S232.48,306.82,232.63,306.93Z"/></g></g></g></g></svg>