<svg xmlns="http://www.w3.org/2000/svg" xmlns:xlink="http://www.w3.org/1999/xlink" viewBox="0 0 151.36 46.96"><defs><style>.cls-1{fill:none;}.cls-2{isolation:isolate;}.cls-3{clip-path:url(#clip-path);}.cls-4{clip-path:url(#clip-path-2);}.cls-5{fill:url(#radial-gradient);}.cls-23,.cls-25,.cls-26,.cls-27,.cls-28,.cls-29,.cls-30,.cls-31,.cls-32,.cls-33,.cls-34,.cls-35,.cls-36,.cls-37,.cls-38,.cls-39,.cls-40,.cls-41,.cls-42,.cls-43,.cls-44,.cls-45,.cls-46,.cls-47,.cls-48,.cls-49,.cls-50,.cls-51,.cls-52,.cls-53,.cls-54,.cls-55,.cls-56,.cls-57,.cls-58,.cls-59,.cls-6,.cls-60,.cls-61,.cls-62,.cls-63,.cls-64,.cls-65,.cls-66,.cls-67,.cls-7{mix-blend-mode:screen;}.cls-6{fill:url(#radial-gradient-2);}.cls-7{opacity:0.11;}.cls-8{fill:url(#linear-gradient);}.cls-9{fill:url(#linear-gradient-2);}.cls-10{fill:url(#linear-gradient-3);}.cls-11{fill:url(#linear-gradient-4);}.cls-12{fill:url(#linear-gradient-5);}.cls-13{fill:url(#linear-gradient-6);}.cls-14{fill:url(#linear-gradient-7);}.cls-15{fill:url(#linear-gradient-8);}.cls-16{fill:url(#linear-gradient-9);}.cls-17{fill:url(#linear-gradient-10);}.cls-18{fill:url(#linear-gradient-11);}.cls-19{fill:url(#linear-gradient-12);}.cls-20{fill:url(#linear-gradient-13);}.cls-21{mix-blend-mode:multiply;fill:url(#linear-gradient-14);}.cls-22{fill:url(#linear-gradient-15);}.cls-23{opacity:0.5;fill:url(#linear-gradient-16);}.cls-24{opacity:0.3;}.cls-25{fill:url(#radial-gradient-3);}.cls-26{fill:url(#radial-gradient-4);}.cls-27{fill:url(#radial-gradient-5);}.cls-28{fill:url(#radial-gradient-6);}.cls-29{fill:url(#radial-gradient-7);}.cls-30{fill:url(#radial-gradient-8);}.cls-31{fill:url(#radial-gradient-9);}.cls-32{fill:url(#radial-gradient-10);}.cls-33{fill:url(#radial-gradient-11);}.cls-34{fill:url(#radial-gradient-12);}.cls-35{fill:url(#radial-gradient-13);}.cls-36{fill:url(#radial-gradient-14);}.cls-37{fill:url(#radial-gradient-15);}.cls-38{fill:url(#radial-gradient-16);}.cls-39{fill:url(#radial-gradient-17);}.cls-40{fill:url(#radial-gradient-18);}.cls-41{fill:url(#radial-gradient-19);}.cls-42{fill:url(#radial-gradient-20);}.cls-43{fill:url(#radial-gradient-21);}.cls-44{fill:url(#radial-gradient-22);}.cls-45{fill:url(#radial-gradient-23);}.cls-46{fill:url(#radial-gradient-24);}.cls-47{fill:url(#radial-gradient-25);}.cls-48{fill:url(#radial-gradient-26);}.cls-49{fill:url(#radial-gradient-27);}.cls-50{fill:url(#radial-gradient-28);}.cls-51{fill:url(#radial-gradient-29);}.cls-52{fill:url(#radial-gradient-30);}.cls-53{fill:url(#radial-gradient-31);}.cls-54{fill:url(#radial-gradient-32);}.cls-55{fill:url(#radial-gradient-33);}.cls-56{fill:url(#radial-gradient-34);}.cls-57{fill:url(#radial-gradient-35);}.cls-58{fill:url(#radial-gradient-36);}.cls-59{fill:url(#radial-gradient-37);}.cls-60{fill:url(#radial-gradient-38);}.cls-61{fill:url(#radial-gradient-39);}.cls-62{fill:url(#radial-gradient-40);}.cls-63{fill:url(#radial-gradient-41);}.cls-64{fill:url(#radial-gradient-42);}.cls-65{fill:url(#radial-gradient-43);}.cls-66{fill:url(#radial-gradient-44);}.cls-67{fill:url(#radial-gradient-45);}.cls-68{font-size:14px;fill:#fff;font-family:Roboto-Bold, Roboto;font-weight:700;}.cls-69{letter-spacing:-0.02em;}</style><clipPath id="clip-path"><rect class="cls-1" x="-560.38" y="-389.27" width="1440" height="576.41"/></clipPath><clipPath id="clip-path-2"><rect class="cls-1" x="-617.47" y="-619.12" width="1554.18" height="1036.12"/></clipPath><radialGradient id="radial-gradient" cx="124.39" cy="-24.39" r="1006.95" gradientUnits="userSpaceOnUse"><stop offset="0" stop-color="#800019"/><stop offset="1" stop-color="#30000f"/></radialGradient><radialGradient id="radial-gradient-2" cx="146.36" cy="-166.25" r="679.21" gradientUnits="userSpaceOnUse"><stop offset="0" stop-color="#800019"/><stop offset="1"/></radialGradient><linearGradient id="linear-gradient" x1="-3643.51" y1="-4447.43" x2="-3556.5" y2="-5202.13" gradientTransform="translate(4043.98 -4132.72) rotate(-96)" xlink:href="#radial-gradient-2"/><linearGradient id="linear-gradient-2" x1="-3478.89" y1="-5222.05" x2="-3391.88" y2="-5976.7" gradientTransform="translate(3908.68 -4935.29) rotate(-108)" xlink:href="#radial-gradient-2"/><linearGradient id="linear-gradient-3" x1="-3156.64" y1="-5944.43" x2="-3069.63" y2="-6699.13" gradientTransform="translate(3607.96 -5691.05) rotate(-120)" xlink:href="#radial-gradient-2"/><linearGradient id="linear-gradient-4" x1="-2690.9" y1="-6584.46" x2="-2603.89" y2="-7339.18" gradientTransform="matrix(-0.67, -0.74, 0.74, -0.67, 3157.58, -6367.78)" xlink:href="#radial-gradient-2"/><linearGradient id="linear-gradient-5" x1="-2102.58" y1="-7114.28" x2="-2015.57" y2="-7868.97" gradientTransform="translate(2576.81 -6937.24) rotate(-144)" xlink:href="#radial-gradient-2"/><linearGradient id="linear-gradient-6" x1="-1416.75" y1="-7509.3" x2="-1329.74" y2="-8264.02" gradientTransform="translate(1889.5 -7372) rotate(-156)" xlink:href="#radial-gradient-2"/><linearGradient id="linear-gradient-7" x1="-663.82" y1="-7753.71" x2="-576.8" y2="-8508.43" gradientTransform="translate(1127.35 -7655.36) rotate(-168)" xlink:href="#radial-gradient-2"/><linearGradient id="linear-gradient-8" x1="123.05" y1="-7836.34" x2="210.06" y2="-8591.02" gradientTransform="translate(322.42 -7774.49) rotate(180)" xlink:href="#radial-gradient-2"/><linearGradient id="linear-gradient-9" x1="910.65" y1="-7753.08" x2="997.67" y2="-8507.79" gradientTransform="translate(-488.78 -7722.58) rotate(168)" xlink:href="#radial-gradient-2"/><linearGradient id="linear-gradient-10" x1="1663.51" y1="-7508.25" x2="1750.52" y2="-8262.97" gradientTransform="translate(-1271.79 -7503.73) rotate(156)" xlink:href="#radial-gradient-2"/><linearGradient id="linear-gradient-11" x1="2348.16" y1="-7112.05" x2="2435.17" y2="-7866.74" gradientTransform="translate(-1993.27 -7126.52) rotate(144)" xlink:href="#radial-gradient-2"/><linearGradient id="linear-gradient-12" x1="2936.84" y1="-6582.21" x2="3023.85" y2="-7336.93" gradientTransform="matrix(-0.67, 0.74, -0.74, -0.67, -2618.91, -6608.11)" xlink:href="#radial-gradient-2"/><linearGradient id="linear-gradient-13" x1="4.2" y1="1.63" x2="133.61" y2="41.19" gradientTransform="translate(52.2 99.16) rotate(-90)" gradientUnits="userSpaceOnUse"><stop offset="0" stop-color="#f5cb16"/><stop offset="0.28" stop-color="#fef687"/><stop offset="0.34" stop-color="#f5e063"/><stop offset="0.42" stop-color="#ebc83c"/><stop offset="0.48" stop-color="#e5b924"/><stop offset="0.52" stop-color="#e3b31b"/><stop offset="0.65" stop-color="#f0d24e"/><stop offset="0.79" stop-color="#fff585"/><stop offset="0.87" stop-color="#fbe254"/><stop offset="0.96" stop-color="#f7d227"/><stop offset="1" stop-color="#f5cb16"/></linearGradient><linearGradient id="linear-gradient-14" x1="75.68" y1="46.39" x2="75.68" y2="0.57" gradientTransform="translate(52.2 99.16) rotate(-90)" gradientUnits="userSpaceOnUse"><stop offset="0" stop-color="#770002"/><stop offset="1" stop-color="#4a0000"/></linearGradient><linearGradient id="linear-gradient-15" x1="75.68" y1="45.82" x2="75.68" y2="1.14" gradientUnits="userSpaceOnUse"><stop offset="0" stop-color="#a00003"/><stop offset="1" stop-color="#730000"/></linearGradient><linearGradient id="linear-gradient-16" x1="75.68" y1="31.13" x2="75.68" y2="1.14" gradientUnits="userSpaceOnUse"><stop offset="0"/><stop offset="0" stop-color="#070504"/><stop offset="0.01" stop-color="#3b2c1d"/><stop offset="0.02" stop-color="#694e34"/><stop offset="0.03" stop-color="#926c47"/><stop offset="0.03" stop-color="#b38658"/><stop offset="0.04" stop-color="#cf9a66"/><stop offset="0.05" stop-color="#e4aa70"/><stop offset="0.06" stop-color="#f3b577"/><stop offset="0.08" stop-color="#fcbc7c"/><stop offset="0.1" stop-color="#ffbe7d"/><stop offset="0.19" stop-color="#d39d67"/><stop offset="0.34" stop-color="#936e48"/><stop offset="0.48" stop-color="#5f472e"/><stop offset="0.61" stop-color="#36281a"/><stop offset="0.72" stop-color="#18120c"/><stop offset="0.83" stop-color="#060503"/><stop offset="0.9"/></linearGradient><radialGradient id="radial-gradient-3" cx="-578" cy="-37.32" r="2.82" gradientTransform="matrix(0.98, -0.18, 0.18, 0.98, 665.5, -29.45)" gradientUnits="userSpaceOnUse"><stop offset="0.09" stop-color="#ffee8f"/><stop offset="0.21" stop-color="#b7ab67"/><stop offset="0.32" stop-color="#776f43"/><stop offset="0.43" stop-color="#443f26"/><stop offset="0.52" stop-color="#1f1d11"/><stop offset="0.59" stop-color="#080805"/><stop offset="0.64"/></radialGradient><radialGradient id="radial-gradient-4" cx="109.18" cy="33.33" r="2.44" gradientTransform="matrix(1, 0, 0, 1, 0, 0)" xlink:href="#radial-gradient-3"/><radialGradient id="radial-gradient-5" cx="125.56" cy="36.23" r="2.34" gradientTransform="matrix(1, 0, 0, 1, 0, 0)" xlink:href="#radial-gradient-3"/><radialGradient id="radial-gradient-6" cx="-571.65" cy="-35.12" r="1.61" xlink:href="#radial-gradient-3"/><radialGradient id="radial-gradient-7" cx="-578.53" cy="-38.72" r="1.78" xlink:href="#radial-gradient-3"/><radialGradient id="radial-gradient-8" cx="-593.98" cy="-45.03" r="2.3" xlink:href="#radial-gradient-3"/><radialGradient id="radial-gradient-9" cx="-601.83" cy="-41.44" r="2.45" xlink:href="#radial-gradient-3"/><radialGradient id="radial-gradient-10" cx="57.39" cy="31.74" r="4.51" gradientTransform="matrix(1, 0, 0, 1, 0, 0)" xlink:href="#radial-gradient-3"/><radialGradient id="radial-gradient-11" cx="87.77" cy="30.31" r="1.36" gradientTransform="matrix(1, 0, 0, 1, 0, 0)" xlink:href="#radial-gradient-3"/><radialGradient id="radial-gradient-12" cx="53.78" cy="27.68" r="1.66" gradientTransform="matrix(1, 0, 0, 1, 0, 0)" xlink:href="#radial-gradient-3"/><radialGradient id="radial-gradient-13" cx="40.02" cy="25.34" r="1.18" gradientTransform="matrix(1, 0, 0, 1, 0, 0)" xlink:href="#radial-gradient-3"/><radialGradient id="radial-gradient-14" cx="93.04" cy="33" r="1.53" gradientTransform="matrix(1, 0, 0, 1, 0, 0)" xlink:href="#radial-gradient-3"/><radialGradient id="radial-gradient-15" cx="97.81" cy="27.71" r="1.62" gradientTransform="matrix(1, 0, 0, 1, 0, 0)" xlink:href="#radial-gradient-3"/><radialGradient id="radial-gradient-16" cx="138.59" cy="30.76" r="2.15" gradientTransform="matrix(1, 0, 0, 1, 0, 0)" xlink:href="#radial-gradient-3"/><radialGradient id="radial-gradient-17" cx="110.24" cy="36.48" r="1.71" gradientTransform="matrix(1, 0, 0, 1, 0, 0)" xlink:href="#radial-gradient-3"/><radialGradient id="radial-gradient-18" cx="120.69" cy="31.92" r="1.08" gradientTransform="matrix(1, 0, 0, 1, 0, 0)" xlink:href="#radial-gradient-3"/><radialGradient id="radial-gradient-19" cx="-586.1" cy="-43.04" r="2.03" xlink:href="#radial-gradient-3"/><radialGradient id="radial-gradient-20" cx="-593.23" cy="-44.69" r="1.36" xlink:href="#radial-gradient-3"/><radialGradient id="radial-gradient-21" cx="109.18" cy="28.47" r="2.33" gradientTransform="matrix(1, 0, 0, 1, 0, 0)" xlink:href="#radial-gradient-3"/><radialGradient id="radial-gradient-22" cx="98.19" cy="32.8" r="2.69" gradientTransform="matrix(1, 0, 0, 1, 0, 0)" xlink:href="#radial-gradient-3"/><radialGradient id="radial-gradient-23" cx="117.14" cy="34.01" r="2.43" gradientTransform="matrix(1, 0, 0, 1, 0, 0)" xlink:href="#radial-gradient-3"/><radialGradient id="radial-gradient-24" cx="33.54" cy="33.17" r="2.19" gradientTransform="matrix(1, 0, 0, 1, 0, 0)" xlink:href="#radial-gradient-3"/><radialGradient id="radial-gradient-25" cx="19.98" cy="35.54" r="2.15" gradientTransform="matrix(1, 0, 0, 1, 0, 0)" xlink:href="#radial-gradient-3"/><radialGradient id="radial-gradient-26" cx="40.47" cy="26.52" r="2.13" gradientTransform="matrix(1, 0, 0, 1, 0, 0)" xlink:href="#radial-gradient-3"/><radialGradient id="radial-gradient-27" cx="46.42" cy="23.1" r="1.56" gradientTransform="matrix(1, 0, 0, 1, 0, 0)" xlink:href="#radial-gradient-3"/><radialGradient id="radial-gradient-28" cx="72.31" cy="32.52" r="0.97" gradientTransform="matrix(1, 0, 0, 1, 0, 0)" xlink:href="#radial-gradient-3"/><radialGradient id="radial-gradient-29" cx="26.35" cy="23.9" r="1.3" gradientTransform="matrix(1, 0, 0, 1, 0, 0)" xlink:href="#radial-gradient-3"/><radialGradient id="radial-gradient-30" cx="71.29" cy="36.26" r="1.26" gradientTransform="matrix(1, 0, 0, 1, 0, 0)" xlink:href="#radial-gradient-3"/><radialGradient id="radial-gradient-31" cx="7.19" cy="22.53" r="2" gradientTransform="matrix(1, 0, 0, 1, 0, 0)" xlink:href="#radial-gradient-3"/><radialGradient id="radial-gradient-32" cx="94.99" cy="25.43" r="0.95" gradientTransform="matrix(1, 0, 0, 1, 0, 0)" xlink:href="#radial-gradient-3"/><radialGradient id="radial-gradient-33" cx="45.34" cy="33.9" r="1.99" gradientTransform="matrix(1, 0, 0, 1, 0, 0)" xlink:href="#radial-gradient-3"/><radialGradient id="radial-gradient-34" cx="82.74" cy="37.66" r="1.12" gradientTransform="matrix(1, 0, 0, 1, 0, 0)" xlink:href="#radial-gradient-3"/><radialGradient id="radial-gradient-35" cx="82.74" cy="22.6" r="2.7" gradientTransform="matrix(1, 0, 0, 1, 0, 0)" xlink:href="#radial-gradient-3"/><radialGradient id="radial-gradient-36" cx="132.09" cy="30.14" r="1.14" gradientTransform="matrix(1, 0, 0, 1, 0, 0)" xlink:href="#radial-gradient-3"/><radialGradient id="radial-gradient-37" cx="69.91" cy="23.6" r="1.39" gradientTransform="matrix(1, 0, 0, 1, 0, 0)" xlink:href="#radial-gradient-3"/><radialGradient id="radial-gradient-38" cx="53.25" cy="24.64" r="1.29" gradientTransform="matrix(1, 0, 0, 1, 0, 0)" xlink:href="#radial-gradient-3"/><radialGradient id="radial-gradient-39" cx="20.95" cy="30.14" r="1.02" gradientTransform="matrix(1, 0, 0, 1, 0, 0)" xlink:href="#radial-gradient-3"/><radialGradient id="radial-gradient-40" cx="41.47" cy="31.26" r="2.07" gradientTransform="matrix(1, 0, 0, 1, 0, 0)" xlink:href="#radial-gradient-3"/><radialGradient id="radial-gradient-41" cx="35.36" cy="36.86" r="1.76" gradientTransform="matrix(1, 0, 0, 1, 0, 0)" xlink:href="#radial-gradient-3"/><radialGradient id="radial-gradient-42" cx="24.97" cy="32.25" r="1.59" gradientTransform="matrix(1, 0, 0, 1, 0, 0)" xlink:href="#radial-gradient-3"/><radialGradient id="radial-gradient-43" cx="80.74" cy="35.07" r="1.45" gradientTransform="matrix(1, 0, 0, 1, 0, 0)" xlink:href="#radial-gradient-3"/><radialGradient id="radial-gradient-44" cx="136.06" cy="35.88" r="1.85" gradientTransform="matrix(1, 0, 0, 1, 0, 0)" xlink:href="#radial-gradient-3"/><radialGradient id="radial-gradient-45" cx="143.06" cy="34.14" r="1.93" gradientTransform="matrix(1, 0, 0, 1, 0, 0)" xlink:href="#radial-gradient-3"/></defs><g class="cls-2"><g id="Layer_1" data-name="Layer 1"><g class="cls-3"><g class="cls-4"><rect class="cls-5" x="-617.47" y="-619.12" width="1554.18" height="1036.12"/><circle class="cls-6" cx="146.36" cy="-166.25" r="679.21"/><g class="cls-7"><polygon class="cls-8" points="158.26 -113.98 160.58 -91.99 -582.95 20.67 -592.43 -69.59 158.26 -113.98"/><polygon class="cls-9" points="155.61 -113.42 162.44 -92.38 -541.41 172.4 -569.46 86.08 155.61 -113.42"/><polygon class="cls-10" points="153.13 -112.31 164.19 -93.16 -469.24 312.18 -514.62 233.57 153.13 -112.31"/><polygon class="cls-11" points="150.93 -110.72 165.73 -94.28 -369.58 433.89 -430.31 366.44 150.93 -110.72"/><polygon class="cls-12" points="149.11 -108.7 167 -95.7 -246.79 532.23 -320.22 478.88 149.11 -108.7"/><polygon class="cls-13" points="147.75 -106.35 167.96 -97.35 -106.24 602.89 -189.15 565.97 147.75 -106.35"/><polygon class="cls-14" points="146.91 -103.76 168.55 -99.17 45.93 642.78 -42.85 623.91 146.91 -103.76"/><polygon class="cls-15" points="146.63 -101.06 168.75 -101.06 203.07 650.16 112.31 650.16 146.63 -101.06"/><polygon class="cls-16" points="146.91 -98.36 168.55 -102.96 358.31 624.72 269.53 643.59 146.91 -98.36"/><polygon class="cls-17" points="147.75 -95.78 167.96 -104.77 504.87 567.54 421.95 604.46 147.75 -95.78"/><polygon class="cls-18" points="149.11 -93.42 167 -106.43 636.33 481.15 562.9 534.5 149.11 -93.42"/><polygon class="cls-19" points="150.93 -91.41 165.73 -107.84 746.96 369.32 686.23 436.77 150.93 -91.41"/></g></g></g><rect class="cls-20" x="52.2" y="-52.2" width="46.96" height="151.36" rx="9.52" transform="translate(99.16 -52.2) rotate(90)"/><rect class="cls-21" x="52.77" y="-50.98" width="45.82" height="148.93" rx="8.66" transform="translate(99.16 -52.2) rotate(90)"/><rect class="cls-22" x="2.43" y="1.14" width="146.5" height="44.68" rx="7.79"/><path class="cls-23" d="M138,1.14H13.34C7.32,1.14,2.43,4,2.43,7.58V31.13h146.5V7.58"/><g class="cls-24"><path class="cls-25" d="M92.8,35.57a2.81,2.81,0,1,1-3.27-2.27A2.82,2.82,0,0,1,92.8,35.57Z"/><path class="cls-26" d="M111.62,33.33a2.44,2.44,0,1,1-2.44-2.44A2.44,2.44,0,0,1,111.62,33.33Z"/><path class="cls-27" d="M127.9,36.23a2.35,2.35,0,1,1-2.35-2.34A2.35,2.35,0,0,1,127.9,36.23Z"/><path class="cls-28" d="M98.25,36.83a1.61,1.61,0,1,1-1.86-1.3A1.6,1.6,0,0,1,98.25,36.83Z"/><path class="cls-29" d="M91,34.47A1.78,1.78,0,1,1,89,33,1.79,1.79,0,0,1,91,34.47Z"/><path class="cls-30" d="M75.2,30.9A2.3,2.3,0,1,1,72.53,29,2.31,2.31,0,0,1,75.2,30.9Z"/><path class="cls-31" d="M68.26,35.8a2.45,2.45,0,1,1-2.85-2A2.46,2.46,0,0,1,68.26,35.8Z"/><path class="cls-32" d="M61.9,31.74a4.51,4.51,0,1,1-4.51-4.52A4.51,4.51,0,0,1,61.9,31.74Z"/><circle class="cls-33" cx="87.77" cy="30.31" r="1.36"/><path class="cls-34" d="M55.43,27.68A1.66,1.66,0,1,1,53.78,26,1.65,1.65,0,0,1,55.43,27.68Z"/><path class="cls-35" d="M41.2,25.34A1.19,1.19,0,1,1,40,24.16,1.18,1.18,0,0,1,41.2,25.34Z"/><path class="cls-36" d="M94.58,33A1.54,1.54,0,1,1,93,31.47,1.54,1.54,0,0,1,94.58,33Z"/><path class="cls-37" d="M99.44,27.71a1.63,1.63,0,1,1-1.63-1.63A1.62,1.62,0,0,1,99.44,27.71Z"/><path class="cls-38" d="M140.74,30.76a2.16,2.16,0,1,1-2.15-2.15A2.15,2.15,0,0,1,140.74,30.76Z"/><circle class="cls-39" cx="110.24" cy="36.48" r="1.71"/><path class="cls-40" d="M121.76,31.92a1.08,1.08,0,1,1-1.07-1.08A1.07,1.07,0,0,1,121.76,31.92Z"/><path class="cls-41" d="M83.05,31.52a2,2,0,1,1-2.36-1.64A2,2,0,0,1,83.05,31.52Z"/><path class="cls-42" d="M75.08,31.27a1.36,1.36,0,0,1-2.68.48,1.38,1.38,0,0,1,1.1-1.59A1.36,1.36,0,0,1,75.08,31.27Z"/><path class="cls-43" d="M111.51,28.47a2.33,2.33,0,1,1-2.33-2.33A2.33,2.33,0,0,1,111.51,28.47Z"/><path class="cls-44" d="M100.88,32.8a2.69,2.69,0,1,1-2.69-2.69A2.69,2.69,0,0,1,100.88,32.8Z"/><path class="cls-45" d="M119.57,34a2.43,2.43,0,1,1-2.43-2.43A2.43,2.43,0,0,1,119.57,34Z"/><path class="cls-46" d="M35.73,33.17A2.2,2.2,0,1,1,33.54,31,2.19,2.19,0,0,1,35.73,33.17Z"/><path class="cls-47" d="M22.13,35.54A2.15,2.15,0,1,1,20,33.39,2.15,2.15,0,0,1,22.13,35.54Z"/><path class="cls-48" d="M42.61,26.52a2.14,2.14,0,1,1-2.14-2.14A2.13,2.13,0,0,1,42.61,26.52Z"/><path class="cls-49" d="M48,23.1a1.56,1.56,0,1,1-1.55-1.56A1.55,1.55,0,0,1,48,23.1Z"/><circle class="cls-50" cx="72.31" cy="32.52" r="0.97"/><path class="cls-51" d="M27.65,23.9a1.3,1.3,0,1,1-1.3-1.3A1.3,1.3,0,0,1,27.65,23.9Z"/><circle class="cls-52" cx="71.29" cy="36.26" r="1.26"/><path class="cls-53" d="M9.2,22.53a2,2,0,1,1-2-2A2,2,0,0,1,9.2,22.53Z"/><circle class="cls-54" cx="94.99" cy="25.43" r="0.95"/><path class="cls-55" d="M47.32,33.9a2,2,0,1,1-2-2A2,2,0,0,1,47.32,33.9Z"/><circle class="cls-56" cx="82.74" cy="37.66" r="1.12"/><path class="cls-57" d="M85.44,22.6a2.7,2.7,0,1,1-2.7-2.7A2.7,2.7,0,0,1,85.44,22.6Z"/><path class="cls-58" d="M133.23,30.14A1.14,1.14,0,1,1,132.09,29,1.14,1.14,0,0,1,133.23,30.14Z"/><path class="cls-59" d="M71.29,23.6a1.39,1.39,0,1,1-1.38-1.39A1.38,1.38,0,0,1,71.29,23.6Z"/><path class="cls-60" d="M54.54,24.64a1.29,1.29,0,1,1-1.29-1.29A1.29,1.29,0,0,1,54.54,24.64Z"/><path class="cls-61" d="M22,30.14a1,1,0,1,1-1-1A1,1,0,0,1,22,30.14Z"/><path class="cls-62" d="M43.53,31.26a2.07,2.07,0,1,1-2.06-2.06A2.06,2.06,0,0,1,43.53,31.26Z"/><path class="cls-63" d="M37.12,36.86a1.76,1.76,0,1,1-1.76-1.77A1.76,1.76,0,0,1,37.12,36.86Z"/><path class="cls-64" d="M26.56,32.25A1.59,1.59,0,1,1,25,30.67,1.59,1.59,0,0,1,26.56,32.25Z"/><path class="cls-65" d="M82.2,35.07a1.46,1.46,0,1,1-1.46-1.46A1.46,1.46,0,0,1,82.2,35.07Z"/><path class="cls-66" d="M137.9,35.88A1.85,1.85,0,1,1,136.06,34,1.84,1.84,0,0,1,137.9,35.88Z"/><path class="cls-67" d="M145,34.14a1.93,1.93,0,1,1-1.93-1.93A1.92,1.92,0,0,1,145,34.14Z"/></g><text class="cls-68" transform="translate(10.82 27.57)">Login with <tspan class="cls-69" x="68.58" y="0">F</tspan><tspan x="76.02" y="0">acebook</tspan></text></g></g></svg>