<svg xmlns="http://www.w3.org/2000/svg" xmlns:xlink="http://www.w3.org/1999/xlink" viewBox="0 0 241.9 346.49"><defs><style>.cls-1,.cls-10{fill:none;}.cls-2{isolation:isolate;}.cls-3{clip-path:url(#clip-path);}.cls-4{opacity:0.28;mix-blend-mode:overlay;}.cls-12,.cls-5{fill:#fff;}.cls-6{fill:url(#linear-gradient);}.cls-7{fill:url(#linear-gradient-2);}.cls-8{clip-path:url(#clip-path-2);}.cls-9{fill:url(#linear-gradient-3);}.cls-10{stroke-linecap:round;stroke-linejoin:round;stroke-width:2px;stroke:url(#linear-gradient-4);}.cls-11{font-size:30px;fill:#f5cb16;font-family:Roboto-Regular, Roboto;}.cls-12{opacity:0.16;mix-blend-mode:hard-light;}.cls-13{fill:url(#linear-gradient-5);}.cls-14{fill:url(#linear-gradient-6);}.cls-15{fill:url(#linear-gradient-7);}.cls-16{fill:url(#linear-gradient-8);}.cls-17{clip-path:url(#clip-path-3);}</style><clipPath id="clip-path"><path class="cls-1" d="M-41.39,256.69V84.18a11.38,11.38,0,0,1,3.54-8.26,17.53,17.53,0,0,0,5.35-12.7V17.12A17.74,17.74,0,0,0-50.24-.62H-251.53a17.74,17.74,0,0,0-17.74,17.74v46.1a17.53,17.53,0,0,0,5.35,12.7,11.38,11.38,0,0,1,3.54,8.26V256.69a11.38,11.38,0,0,1-3.54,8.26,17.53,17.53,0,0,0-5.35,12.7v46.11a17.73,17.73,0,0,0,17.74,17.73H-50.24A17.73,17.73,0,0,0-32.5,323.76V277.65A17.53,17.53,0,0,0-37.85,265,11.38,11.38,0,0,1-41.39,256.69Z"/></clipPath><linearGradient id="linear-gradient" x1="-20.38" y1="29.1" x2="262.28" y2="311.77" gradientUnits="userSpaceOnUse"><stop offset="0" stop-color="#fff"/><stop offset="0.5" stop-color="#e5e5e5"/><stop offset="1" stop-color="#c7c7c7"/></linearGradient><linearGradient id="linear-gradient-2" x1="120.95" y1="-5.31" x2="120.95" y2="345.87" gradientUnits="userSpaceOnUse"><stop offset="0" stop-color="#f5cb16"/><stop offset="0.28" stop-color="#fef687"/><stop offset="0.34" stop-color="#f5e063"/><stop offset="0.42" stop-color="#ebc83c"/><stop offset="0.48" stop-color="#e5b924"/><stop offset="0.52" stop-color="#e3b31b"/><stop offset="0.65" stop-color="#f0d24e"/><stop offset="0.79" stop-color="#fff585"/><stop offset="0.87" stop-color="#fbe254"/><stop offset="0.96" stop-color="#f7d227"/><stop offset="1" stop-color="#f5cb16"/></linearGradient><clipPath id="clip-path-2"><path class="cls-1" d="M230.44,256.69V84.18A11.38,11.38,0,0,1,234,75.92a17.53,17.53,0,0,0,5.35-12.7V17.12A17.73,17.73,0,0,0,221.6-.62H20.3A17.74,17.74,0,0,0,2.56,17.12v46.1a17.54,17.54,0,0,0,5.36,12.7,11.38,11.38,0,0,1,3.54,8.26V256.69A11.38,11.38,0,0,1,7.92,265a17.54,17.54,0,0,0-5.36,12.7v46.11A17.73,17.73,0,0,0,20.3,341.49H221.6a17.73,17.73,0,0,0,17.73-17.73V277.65A17.53,17.53,0,0,0,234,265,11.38,11.38,0,0,1,230.44,256.69Z"/></clipPath><linearGradient id="linear-gradient-3" x1="-4.36" y1="45.13" x2="246.26" y2="295.74" gradientUnits="userSpaceOnUse"><stop offset="0" stop-color="#8c0f02"/><stop offset="1" stop-color="#ff1124"/></linearGradient><linearGradient id="linear-gradient-4" x1="-5.06" y1="44.42" x2="246.96" y2="296.45" gradientUnits="userSpaceOnUse"><stop offset="0" stop-color="#c7c7c7"/><stop offset="0.5" stop-color="#e5e5e5"/><stop offset="1" stop-color="#fff"/></linearGradient><linearGradient id="linear-gradient-5" x1="113.04" y1="-72.26" x2="363.65" y2="178.35" xlink:href="#linear-gradient"/><linearGradient id="linear-gradient-6" x1="110.41" y1="29.77" x2="131.49" y2="29.77" xlink:href="#linear-gradient-3"/><linearGradient id="linear-gradient-7" x1="115.59" y1="17.12" x2="120.89" y2="17.12" xlink:href="#linear-gradient-3"/><linearGradient id="linear-gradient-8" x1="124.96" y1="21.98" x2="127.91" y2="21.98" xlink:href="#linear-gradient-3"/><clipPath id="clip-path-3"><path class="cls-1" d="M497.92,256.69V84.18a11.38,11.38,0,0,1,3.54-8.26,17.53,17.53,0,0,0,5.35-12.7V17.12A17.74,17.74,0,0,0,489.07-.62H287.78A17.74,17.74,0,0,0,270,17.12v46.1a17.53,17.53,0,0,0,5.35,12.7,11.38,11.38,0,0,1,3.54,8.26V256.69a11.38,11.38,0,0,1-3.54,8.26,17.53,17.53,0,0,0-5.35,12.7v46.11a17.73,17.73,0,0,0,17.74,17.73H489.07a17.73,17.73,0,0,0,17.74-17.73V277.65a17.53,17.53,0,0,0-5.35-12.7A11.38,11.38,0,0,1,497.92,256.69Z"/></clipPath></defs><g class="cls-2"><g id="Layer_1" data-name="Layer 1"><g class="cls-3"><g class="cls-4"><path class="cls-5" d="M4,1.06A1.08,1.08,0,0,1,3,0,1.1,1.1,0,0,1,4-1a1,1,0,0,1,1,1A1,1,0,0,1,4,1.06Z"/><path class="cls-5" d="M4.87,6.63A.92.92,0,0,1,4,7.47a.89.89,0,0,1-.82-.92A.9.9,0,0,1,4,5.71.91.91,0,0,1,4.87,6.63Z"/><path class="cls-5" d="M11.24.24c-.18.12-.42.41-.72.48A.61.61,0,0,1,9.86,0a1.27,1.27,0,0,1,.65-.64C10.87-.75,11.23-.37,11.24.24Z"/><path class="cls-5" d="M5,13.07c-.45.35-.68.67-1,.74s-.63-.16-.69-.56.22-.85.59-.79A4.33,4.33,0,0,1,5,13.07Z"/><path class="cls-5" d="M10.55,5.89c.24.31.48.48.51.68a.44.44,0,0,1-.57.5.73.73,0,0,1-.43-.52C10.06,6.38,10.32,6.19,10.55,5.89Z"/><path class="cls-5" d="M4.06,18.92c.18.31.39.51.39.71s-.29.28-.45.42c-.15-.18-.38-.35-.42-.55S3.82,19.2,4.06,18.92Z"/><path class="cls-5" d="M10.79,13.08l-.36.26c0-.08-.15-.18-.13-.25a.34.34,0,0,1,.21-.21C10.56,12.87,10.65,13,10.79,13.08Z"/></g></g><path class="cls-6" d="M221.6,344.06H20.3A20.33,20.33,0,0,1,0,323.76V277.65A20.16,20.16,0,0,1,6.15,263.1a8.79,8.79,0,0,0,2.74-6.41V84.18a8.79,8.79,0,0,0-2.74-6.41A20.14,20.14,0,0,1,0,63.22V17.12A20.33,20.33,0,0,1,20.3-3.19H221.6a20.33,20.33,0,0,1,20.3,20.31v46.1a20.14,20.14,0,0,1-6.15,14.55A8.8,8.8,0,0,0,233,84.18V256.69a8.8,8.8,0,0,0,2.75,6.41,20.16,20.16,0,0,1,6.15,14.55v46.11A20.33,20.33,0,0,1,221.6,344.06ZM20.3,1.94A15.19,15.19,0,0,0,5.13,17.12v46.1A15,15,0,0,0,9.69,74.06,13.88,13.88,0,0,1,14,84.18V256.69a13.88,13.88,0,0,1-4.33,10.12,15,15,0,0,0-4.56,10.84v46.11A15.19,15.19,0,0,0,20.3,338.93H221.6a15.19,15.19,0,0,0,15.17-15.17V277.65a15,15,0,0,0-4.56-10.84,13.88,13.88,0,0,1-4.33-10.12V84.18a13.88,13.88,0,0,1,4.33-10.12,15,15,0,0,0,4.56-10.84V17.12A15.2,15.2,0,0,0,221.6,1.94Z"/><path class="cls-7" d="M230.44,256.69V84.18A11.38,11.38,0,0,1,234,75.92a17.53,17.53,0,0,0,5.35-12.7V17.12A17.73,17.73,0,0,0,221.6-.62H20.3A17.74,17.74,0,0,0,2.56,17.12v46.1a17.54,17.54,0,0,0,5.36,12.7,11.38,11.38,0,0,1,3.54,8.26V256.69A11.38,11.38,0,0,1,7.92,265a17.54,17.54,0,0,0-5.36,12.7v46.11A17.73,17.73,0,0,0,20.3,341.49H221.6a17.73,17.73,0,0,0,17.73-17.73V277.65A17.53,17.53,0,0,0,234,265,11.38,11.38,0,0,1,230.44,256.69Z"/><g class="cls-8"><g class="cls-4"><path class="cls-5" d="M178.31-2.61A2.68,2.68,0,0,1,181,.09a2.65,2.65,0,0,1-2.65,2.59A2.6,2.6,0,0,1,175.69,0,2.62,2.62,0,0,1,178.31-2.61Z"/><path class="cls-5" d="M171.87-2.61a2.69,2.69,0,0,1,2.68,2.7,2.66,2.66,0,0,1-2.65,2.59A2.6,2.6,0,0,1,169.26,0,2.61,2.61,0,0,1,171.87-2.61Z"/><path class="cls-5" d="M187.49.11a2.6,2.6,0,0,1-2.66,2.57A2.67,2.67,0,0,1,182.21,0,2.69,2.69,0,0,1,185-2.6,2.63,2.63,0,0,1,187.49.11Z"/><path class="cls-5" d="M188.8.05a2.62,2.62,0,0,1,2.61-2.64A2.69,2.69,0,0,1,194.05,0a2.67,2.67,0,0,1-2.63,2.63A2.62,2.62,0,0,1,188.8.05Z"/><path class="cls-5" d="M168,0a2.61,2.61,0,0,1-2.61,2.63A2.67,2.67,0,0,1,162.7.05a2.69,2.69,0,0,1,2.63-2.64A2.62,2.62,0,0,1,168,0Z"/><path class="cls-5" d="M161.49,0a2.62,2.62,0,0,1-2.6,2.64A2.62,2.62,0,0,1,156.33.09a2.61,2.61,0,0,1,2.59-2.64A2.63,2.63,0,0,1,161.49,0Z"/><path class="cls-5" d="M197.81-2.55A2.6,2.6,0,0,1,200.42,0a2.62,2.62,0,0,1-2.54,2.69,2.61,2.61,0,0,1-2.61-2.5A2.61,2.61,0,0,1,197.81-2.55Z"/><path class="cls-5" d="M154.87.05a2.51,2.51,0,0,1-2.54,2.53A2.58,2.58,0,0,1,149.82,0a2.53,2.53,0,0,1,2.51-2.45A2.47,2.47,0,0,1,154.87.05Z"/><path class="cls-5" d="M180.83,6.58a2.49,2.49,0,0,1-2.54,2.53,2.55,2.55,0,0,1-2.52-2.57,2.58,2.58,0,0,1,2.51-2.48A2.51,2.51,0,0,1,180.83,6.58Z"/><path class="cls-5" d="M184.82,4.06A2.58,2.58,0,0,1,187.4,6.6a2.57,2.57,0,0,1-2.49,2.51,2.5,2.5,0,0,1-2.55-2.42A2.53,2.53,0,0,1,184.82,4.06Z"/><path class="cls-5" d="M174.39,6.61a2.5,2.5,0,0,1-2.47,2.5,2.56,2.56,0,0,1-2.57-2.54,2.57,2.57,0,0,1,2.5-2.5A2.5,2.5,0,0,1,174.39,6.61Z"/><path class="cls-5" d="M201.89,0a2.46,2.46,0,0,1,2.48-2.47A2.55,2.55,0,0,1,206.93.08a2.57,2.57,0,0,1-2.52,2.48A2.49,2.49,0,0,1,201.89,0Z"/><path class="cls-5" d="M162.85,6.59a2.51,2.51,0,0,1,2.46-2.51,2.56,2.56,0,0,1,2.54,2.56,2.55,2.55,0,0,1-2.54,2.45A2.49,2.49,0,0,1,162.85,6.59Z"/><path class="cls-5" d="M193.9,6.6a2.5,2.5,0,0,1-2.47,2.49,2.54,2.54,0,0,1-2.53-2.45,2.56,2.56,0,0,1,2.55-2.56A2.51,2.51,0,0,1,193.9,6.6Z"/><path class="cls-5" d="M158.85,4.11a2.48,2.48,0,1,1-2.41,2.56A2.48,2.48,0,0,1,158.85,4.11Z"/><path class="cls-5" d="M145.89-2.41A2.45,2.45,0,0,1,148.39,0a2.43,2.43,0,0,1-2.48,2.45A2.42,2.42,0,0,1,143.47.11,2.43,2.43,0,0,1,145.89-2.41Z"/><path class="cls-5" d="M195.4,6.64a2.45,2.45,0,1,1,2.53,2.42A2.48,2.48,0,0,1,195.4,6.64Z"/><path class="cls-5" d="M210.82-2.39A2.4,2.4,0,0,1,213.25,0a2.39,2.39,0,0,1-2.42,2.49A2.45,2.45,0,0,1,208.37.1,2.44,2.44,0,0,1,210.82-2.39Z"/><path class="cls-5" d="M175.93,13.16a2.4,2.4,0,0,1,2.37-2.43,2.41,2.41,0,1,1,0,4.81A2.38,2.38,0,0,1,175.93,13.16Z"/><path class="cls-5" d="M152.45,4.2a2.42,2.42,0,0,1,2.34,2.48A2.46,2.46,0,0,1,152.27,9,2.39,2.39,0,0,1,150,6.5,2.35,2.35,0,0,1,152.45,4.2Z"/><path class="cls-5" d="M204.38,4.21a2.34,2.34,0,0,1,2.4,2.37A2.38,2.38,0,0,1,204.4,9,2.44,2.44,0,0,1,202,6.6,2.41,2.41,0,0,1,204.38,4.21Z"/><path class="cls-5" d="M187.24,13.13a2.38,2.38,0,0,1-2.4,2.4,2.4,2.4,0,0,1,0-4.79A2.39,2.39,0,0,1,187.24,13.13Z"/><path class="cls-5" d="M169.51,13.12a2.39,2.39,0,0,1,2.42-2.38,2.4,2.4,0,0,1,0,4.79A2.38,2.38,0,0,1,169.51,13.12Z"/><path class="cls-5" d="M217.38,2.42A2.38,2.38,0,0,1,215,.11a2.4,2.4,0,0,1,2.35-2.45A2.41,2.41,0,0,1,219.74.09,2.4,2.4,0,0,1,217.38,2.42Z"/><path class="cls-5" d="M193.78,13.3a2.37,2.37,0,1,1-2.26-2.54A2.42,2.42,0,0,1,193.78,13.3Z"/><path class="cls-5" d="M165.35,10.75A2.39,2.39,0,1,1,163,13.07,2.4,2.4,0,0,1,165.35,10.75Z"/><path class="cls-5" d="M141.75,0a2.38,2.38,0,0,1-2.4,2.39A2.43,2.43,0,0,1,137,.1a2.44,2.44,0,0,1,2.36-2.45A2.4,2.4,0,0,1,141.75,0Z"/><path class="cls-5" d="M197.81,15.48a2.35,2.35,0,0,1,.06-4.69,2.35,2.35,0,0,1-.06,4.69Z"/><path class="cls-5" d="M158.9,15.49a2.35,2.35,0,0,1,0-4.7,2.35,2.35,0,0,1,0,4.7Z"/><path class="cls-5" d="M145.91,8.91a2.31,2.31,0,0,1-2.33-2.3,2.34,2.34,0,1,1,4.68,0A2.28,2.28,0,0,1,145.91,8.91Z"/><path class="cls-5" d="M210.85,4.27a2.32,2.32,0,1,1,0,4.64,2.27,2.27,0,0,1-2.3-2.34A2.28,2.28,0,0,1,210.85,4.27Z"/><path class="cls-5" d="M139.33,4.3a2.35,2.35,0,0,1,2.34,2.21,2.33,2.33,0,0,1-2.19,2.36,2.29,2.29,0,0,1-.15-4.57Z"/><path class="cls-5" d="M135.1.1a2.26,2.26,0,0,1-2.27,2.23A2.33,2.33,0,0,1,130.53,0a2.3,2.3,0,0,1,2.3-2.21A2.23,2.23,0,0,1,135.1.1Z"/><path class="cls-5" d="M154.63,13.15a2.27,2.27,0,0,1-2.23,2.28,2.34,2.34,0,0,1-2.35-2.3,2.3,2.3,0,0,1,2.37-2.26A2.23,2.23,0,0,1,154.63,13.15Z"/><path class="cls-5" d="M204.46,10.88a2.26,2.26,0,0,1-.08,4.52,2.26,2.26,0,1,1,.08-4.52Z"/><path class="cls-5" d="M226.06,0a2.23,2.23,0,0,1-2.18,2.32A2.3,2.3,0,0,1,221.51,0a2.27,2.27,0,0,1,2.27-2.25A2.21,2.21,0,0,1,226.06,0Z"/><path class="cls-5" d="M184.81,21.8a2.23,2.23,0,1,1,.11-4.46,2.23,2.23,0,1,1-.11,4.46Z"/><path class="cls-5" d="M180.57,19.58a2.22,2.22,0,0,1-2.27,2.24,2.25,2.25,0,1,1,0-4.5A2.21,2.21,0,0,1,180.57,19.58Z"/><path class="cls-5" d="M171.93,17.33a2.24,2.24,0,1,1-2.31,2.2A2.25,2.25,0,0,1,171.93,17.33Z"/><path class="cls-5" d="M217.36,8.85a2.29,2.29,0,0,1-2.25-2.28,2.26,2.26,0,1,1,4.51,0A2.26,2.26,0,0,1,217.36,8.85Z"/><path class="cls-5" d="M165.31,21.79a2.22,2.22,0,1,1,2.27-2.22A2.21,2.21,0,0,1,165.31,21.79Z"/><path class="cls-5" d="M191.41,21.78a2.22,2.22,0,1,1,0-4.43,2.22,2.22,0,1,1,0,4.43Z"/><path class="cls-5" d="M146,15.35a2.22,2.22,0,1,1,0-4.43,2.22,2.22,0,1,1,0,4.43Z"/><path class="cls-5" d="M210.8,15.34a2.21,2.21,0,1,1,0-4.41,2.21,2.21,0,0,1,0,4.41Z"/><path class="cls-5" d="M158.94,21.76a2.2,2.2,0,1,1,0-4.39,2.2,2.2,0,0,1,0,4.39Z"/><path class="cls-5" d="M197.84,21.75a2.19,2.19,0,0,1-.05-4.37,2.19,2.19,0,1,1,.05,4.37Z"/><path class="cls-5" d="M128.6,0a2.21,2.21,0,0,1-2.17,2.2A2.14,2.14,0,0,1,124.24.07a2.16,2.16,0,0,1,2.14-2.21A2.23,2.23,0,0,1,128.6,0Z"/><path class="cls-5" d="M232.5,0a2.15,2.15,0,0,1-2.17,2.18A2.2,2.2,0,0,1,228.16,0a2.25,2.25,0,0,1,2.15-2.14A2.16,2.16,0,0,1,232.5,0Z"/><path class="cls-5" d="M130.67,6.55a2.14,2.14,0,0,1,2.21-2.13A2.19,2.19,0,0,1,135,6.63a2.24,2.24,0,0,1-2.24,2.15A2.17,2.17,0,0,1,130.67,6.55Z"/><path class="cls-5" d="M226,6.58a2.21,2.21,0,0,1-2.2,2.18,2.15,2.15,0,0,1-2.14-2.1,2.12,2.12,0,0,1,2.11-2.22A2.18,2.18,0,0,1,226,6.58Z"/><path class="cls-5" d="M152.35,17.4a2.17,2.17,0,1,1,0,4.33,2.17,2.17,0,0,1,0-4.33Z"/><path class="cls-5" d="M141.52,13.16a2.14,2.14,0,0,1-2.19,2.14,2.17,2.17,0,0,1,0-4.33A2.14,2.14,0,0,1,141.52,13.16Z"/><path class="cls-5" d="M206.53,19.58a2.15,2.15,0,0,1-2.1,2.14,2.19,2.19,0,0,1-2.2-2.16,2.22,2.22,0,0,1,2.12-2.15A2.16,2.16,0,0,1,206.53,19.58Z"/><path class="cls-5" d="M217.41,15.28a2.15,2.15,0,1,1,0-4.29,2.15,2.15,0,0,1,0,4.29Z"/><path class="cls-5" d="M178.34,28.22a2.11,2.11,0,1,1,2.09-2.13A2.09,2.09,0,0,1,178.34,28.22Z"/><path class="cls-5" d="M171.88,28.21a2.1,2.1,0,1,1,0-4.19,2.1,2.1,0,1,1,0,4.19Z"/><path class="cls-5" d="M185,24a2.11,2.11,0,0,1,2,2.23,2.09,2.09,0,0,1-2.23,1.95,2,2,0,0,1-2-2.21A2.06,2.06,0,0,1,185,24Z"/><path class="cls-5" d="M163.26,26a2.06,2.06,0,0,1,2.21-2,2.09,2.09,0,0,1-.2,4.17A2.06,2.06,0,0,1,163.26,26Z"/><path class="cls-5" d="M145.9,17.47a2.08,2.08,0,0,1,2.1,2.11,2.1,2.1,0,0,1-2,2.1,2.15,2.15,0,0,1-2.18-2.06A2.13,2.13,0,0,1,145.9,17.47Z"/><path class="cls-5" d="M128.46,6.54a2,2,0,0,1-2,2.12,2.08,2.08,0,1,1-.11-4.15A2,2,0,0,1,128.46,6.54Z"/><path class="cls-5" d="M193.47,26.13a2,2,0,0,1-2,2.06,2.08,2.08,0,1,1,0-4.15A2,2,0,0,1,193.47,26.13Z"/><path class="cls-5" d="M212.92,19.57a2.13,2.13,0,0,1-2.15,2.09,2.07,2.07,0,0,1-2-2.09,2.05,2.05,0,0,1,2-2.08A2.11,2.11,0,0,1,212.92,19.57Z"/><path class="cls-5" d="M230.34,4.52a2.07,2.07,0,1,1,0,4.13,2,2,0,0,1-2.07-2.1A2,2,0,0,1,230.34,4.52Z"/><path class="cls-5" d="M199.88,26.09a2,2,0,0,1-2,2.08,2.09,2.09,0,0,1-2.13-2.08,2.12,2.12,0,0,1,2.07-2A2,2,0,0,1,199.88,26.09Z"/><path class="cls-5" d="M161,26.12a2.09,2.09,0,0,1-2,2.05,2,2,0,0,1-2.06-2.12,2,2,0,0,1,2.08-2A2.11,2.11,0,0,1,161,26.12Z"/><path class="cls-5" d="M134.88,13.17a2,2,0,0,1-2,2,2.07,2.07,0,1,1,.06-4.13A2,2,0,0,1,134.88,13.17Z"/><path class="cls-5" d="M119.88,2.12a2.06,2.06,0,0,1-2.08-2,2,2,0,0,1,2-2.15,2.1,2.1,0,0,1,2.11,2A2.12,2.12,0,0,1,119.88,2.12Z"/><path class="cls-5" d="M236.89-2a2,2,0,0,1,2,2,2,2,0,0,1-2,2.05,2.08,2.08,0,0,1-2.08-2A2.06,2.06,0,0,1,236.89-2Z"/><path class="cls-5" d="M225.83,13.15a2,2,0,0,1-2,2,2,2,0,1,1,0-4.06A2,2,0,0,1,225.83,13.15Z"/><path class="cls-5" d="M139.43,17.57a2,2,0,0,1,0,4,2,2,0,1,1,0-4Z"/><path class="cls-5" d="M154.37,26.12a2,2,0,0,1-2.05,2,2,2,0,1,1,2.05-2Z"/><path class="cls-5" d="M204.42,28.13a2,2,0,0,1-2-1.92,2,2,0,1,1,4-.18A2,2,0,0,1,204.42,28.13Z"/><path class="cls-5" d="M219.38,19.52a2,2,0,1,1-2.12-1.94A2,2,0,0,1,219.38,19.52Z"/><path class="cls-5" d="M121.8,6.57a2,2,0,0,1-1.93,2,2,2,0,0,1-2-2,2,2,0,0,1,2-2A1.93,1.93,0,0,1,121.8,6.57Z"/><path class="cls-5" d="M178.32,30.59a2,2,0,0,1,2,2,2,2,0,0,1-2,2,2,2,0,0,1-1.95-2A1.93,1.93,0,0,1,178.32,30.59Z"/><path class="cls-5" d="M115.36.05a1.93,1.93,0,0,1-2,1.94,2,2,0,0,1-1.93-1.9,2,2,0,0,1,2-2A1.93,1.93,0,0,1,115.36.05Z"/><path class="cls-5" d="M230.39,15.08a2,2,0,0,1-2-1.93,2,2,0,0,1,2-2,1.93,1.93,0,0,1,1.92,1.89A1.9,1.9,0,0,1,230.39,15.08Z"/><path class="cls-5" d="M126.38,15.09a1.92,1.92,0,0,1-1.93-2,1.94,1.94,0,0,1,2-1.95,2,2,0,0,1,2,2A2,2,0,0,1,126.38,15.09Z"/><path class="cls-5" d="M186.8,32.58a1.94,1.94,0,0,1-2,1.92,2,2,0,0,1-1.91-1.92,2,2,0,0,1,2-2A1.91,1.91,0,0,1,186.8,32.58Z"/><path class="cls-5" d="M132.78,17.62a2,2,0,0,1,2,1.92,2,2,0,0,1-2,2,1.95,1.95,0,0,1-.05-3.89Z"/><path class="cls-5" d="M236.94,8.55a1.94,1.94,0,0,1-2-1.94,1.9,1.9,0,0,1,1.84-1.95,2,2,0,0,1,2.06,1.86A2,2,0,0,1,236.94,8.55Z"/><path class="cls-5" d="M173.85,32.49a2,2,0,0,1-1.93,2,1.94,1.94,0,0,1-2-1.85,1.9,1.9,0,0,1,1.84-2A2,2,0,0,1,173.85,32.49Z"/><path class="cls-5" d="M147.89,26.12a2,2,0,0,1-2,1.95,2,2,0,0,1-1.91-2,1.9,1.9,0,0,1,1.92-1.88A2,2,0,0,1,147.89,26.12Z"/><path class="cls-5" d="M223.76,21.5a1.92,1.92,0,0,1-1.87-2,1.94,1.94,0,0,1,2-1.84,2,2,0,0,1,1.9,1.92A2,2,0,0,1,223.76,21.5Z"/><path class="cls-5" d="M243.33,2A1.91,1.91,0,0,1,241.42.1a1.94,1.94,0,0,1,1.91-2,2,2,0,0,1,1.94,2A2,2,0,0,1,243.33,2Z"/><path class="cls-5" d="M165.36,34.48a1.93,1.93,0,1,1-.05-3.85,1.88,1.88,0,0,1,1.95,1.83A1.92,1.92,0,0,1,165.36,34.48Z"/><path class="cls-5" d="M191.44,30.63a1.93,1.93,0,1,1-.05,3.85,1.92,1.92,0,0,1-1.9-2A1.88,1.88,0,0,1,191.44,30.63Z"/><path class="cls-5" d="M212.75,26.1a1.93,1.93,0,0,1-2,1.95,2,2,0,0,1-1.91-1.92,1.94,1.94,0,0,1,2-1.93A1.88,1.88,0,0,1,212.75,26.1Z"/><path class="cls-5" d="M157,32.45a1.91,1.91,0,0,1,2.1-1.79,1.9,1.9,0,1,1-2.1,1.79Z"/><path class="cls-5" d="M197.87,30.67a1.88,1.88,0,1,1-.06,3.75,1.84,1.84,0,0,1-1.86-1.9A1.86,1.86,0,0,1,197.87,30.67Z"/><path class="cls-5" d="M139.36,28a1.87,1.87,0,1,1,1.9-1.87A1.84,1.84,0,0,1,139.36,28Z"/><path class="cls-5" d="M217.35,24.26a1.86,1.86,0,0,1,.09,3.71,1.86,1.86,0,1,1-.09-3.71Z"/><path class="cls-5" d="M204.4,30.7a1.85,1.85,0,1,1,0,3.69,1.85,1.85,0,0,1,0-3.69Z"/><path class="cls-5" d="M154.19,32.58a1.8,1.8,0,0,1-1.81,1.81,1.86,1.86,0,0,1-1.89-1.87,1.88,1.88,0,0,1,1.95-1.82A1.81,1.81,0,0,1,154.19,32.58Z"/><path class="cls-5" d="M119.86,15a1.86,1.86,0,0,1,0-3.72,1.86,1.86,0,1,1,0,3.72Z"/><path class="cls-5" d="M126.45,21.42a1.89,1.89,0,0,1-1.9-1.77,1.86,1.86,0,0,1,1.74-1.91,1.8,1.8,0,0,1,1.93,1.81A1.83,1.83,0,0,1,126.45,21.42Z"/><path class="cls-5" d="M238.72,13.1A1.84,1.84,0,0,1,237,15,1.9,1.9,0,0,1,235,13.12a1.86,1.86,0,0,1,1.85-1.81A1.79,1.79,0,0,1,238.72,13.1Z"/><path class="cls-5" d="M113.46,8.42a1.79,1.79,0,0,1-1.86-1.76,1.82,1.82,0,0,1,1.84-1.91,1.89,1.89,0,0,1,1.84,1.83A1.87,1.87,0,0,1,113.46,8.42Z"/><path class="cls-5" d="M232.19,19.61a1.87,1.87,0,0,1-1.87,1.79,1.81,1.81,0,0,1-1.78-1.86,1.78,1.78,0,0,1,1.85-1.78A1.84,1.84,0,0,1,232.19,19.61Z"/><path class="cls-5" d="M245.14,6.55a1.81,1.81,0,0,1-1.75,1.87,1.87,1.87,0,0,1-1.9-1.85,1.87,1.87,0,0,1,1.83-1.81A1.81,1.81,0,0,1,245.14,6.55Z"/><path class="cls-5" d="M132.86,27.92A1.83,1.83,0,0,1,131,26.11a1.85,1.85,0,0,1,1.83-1.81,1.82,1.82,0,0,1,1.76,1.76A1.79,1.79,0,0,1,132.86,27.92Z"/><path class="cls-5" d="M108.67.06a1.77,1.77,0,0,1-1.82,1.78A1.83,1.83,0,0,1,105,0a1.83,1.83,0,0,1,1.85-1.78A1.76,1.76,0,0,1,108.67.06Z"/><path class="cls-5" d="M147.72,32.59a1.8,1.8,0,0,1-1.86,1.76,1.81,1.81,0,0,1,.08-3.61A1.81,1.81,0,0,1,147.72,32.59Z"/><path class="cls-5" d="M210.77,34.36a1.81,1.81,0,0,1,0-3.62,1.81,1.81,0,1,1,0,3.62Z"/><path class="cls-5" d="M225.58,26.07a1.79,1.79,0,0,1-1.78,1.84,1.8,1.8,0,1,1,1.78-1.84Z"/><path class="cls-5" d="M180.11,39.12a1.8,1.8,0,1,1-1.79-1.8A1.77,1.77,0,0,1,180.11,39.12Z"/><path class="cls-5" d="M186.65,39.09a1.79,1.79,0,1,1-1.73-1.76A1.76,1.76,0,0,1,186.65,39.09Z"/><path class="cls-5" d="M173.66,39a1.78,1.78,0,1,1-1.88-1.71A1.76,1.76,0,0,1,173.66,39Z"/><path class="cls-5" d="M193.18,39.08a1.76,1.76,0,0,1-1.72,1.77,1.76,1.76,0,1,1,0-3.51A1.76,1.76,0,0,1,193.18,39.08Z"/><path class="cls-5" d="M165.35,40.84a1.75,1.75,0,1,1,1.75-1.73A1.73,1.73,0,0,1,165.35,40.84Z"/><path class="cls-5" d="M158.93,40.82a1.74,1.74,0,0,1-1.77-1.69,1.76,1.76,0,0,1,1.71-1.77,1.7,1.7,0,0,1,1.75,1.7A1.68,1.68,0,0,1,158.93,40.82Z"/><path class="cls-5" d="M199.59,39.13a1.74,1.74,0,0,1-1.78,1.69,1.68,1.68,0,0,1-1.68-1.76,1.71,1.71,0,0,1,1.76-1.7A1.76,1.76,0,0,1,199.59,39.13Z"/><path class="cls-5" d="M118.11,19.56a1.78,1.78,0,0,1,1.78-1.72,1.73,1.73,0,0,1,0,3.45A1.77,1.77,0,0,1,118.11,19.56Z"/><path class="cls-5" d="M113.4,14.86a1.73,1.73,0,1,1,.09-3.45,1.73,1.73,0,0,1-.09,3.45Z"/><path class="cls-5" d="M236.89,17.85a1.72,1.72,0,1,1,0,3.43,1.7,1.7,0,0,1-1.71-1.76A1.72,1.72,0,0,1,236.89,17.85Z"/><path class="cls-5" d="M243.36,14.85a1.72,1.72,0,0,1-.05-3.43,1.72,1.72,0,1,1,.05,3.43Z"/><path class="cls-5" d="M152.39,40.79a1.7,1.7,0,0,1-.12-3.4,1.77,1.77,0,0,1,1.8,1.7A1.74,1.74,0,0,1,152.39,40.79Z"/><path class="cls-5" d="M141.08,32.6a1.69,1.69,0,0,1-1.78,1.67,1.77,1.77,0,0,1-1.66-1.71,1.75,1.75,0,0,1,1.76-1.72A1.67,1.67,0,0,1,141.08,32.6Z"/><path class="cls-5" d="M219.11,32.49a1.79,1.79,0,0,1-1.71,1.79,1.71,1.71,0,0,1-1.73-1.62,1.67,1.67,0,0,1,1.62-1.82A1.76,1.76,0,0,1,219.11,32.49Z"/><path class="cls-5" d="M106.85,8.29a1.7,1.7,0,1,1,.05-3.39,1.72,1.72,0,0,1,1.7,1.66A1.73,1.73,0,0,1,106.85,8.29Z"/><path class="cls-5" d="M128.11,26.16a1.71,1.71,0,0,1-1.72,1.63,1.68,1.68,0,1,1,.09-3.35A1.72,1.72,0,0,1,128.11,26.16Z"/><path class="cls-5" d="M204.39,37.4a1.7,1.7,0,0,1,1.67,1.69,1.68,1.68,0,0,1-1.66,1.69,1.71,1.71,0,0,1-1.69-1.68A1.73,1.73,0,0,1,204.39,37.4Z"/><path class="cls-5" d="M230.33,24.46a1.66,1.66,0,1,1,0,3.31,1.66,1.66,0,1,1,0-3.31Z"/><path class="cls-5" d="M98.78.05a1.66,1.66,0,1,1,3.32,0,1.7,1.7,0,0,1-1.62,1.63A1.71,1.71,0,0,1,98.78.05Z"/><path class="cls-5" d="M147.53,39.2a1.62,1.62,0,0,1-1.65,1.53,1.64,1.64,0,1,1,.09-3.27A1.62,1.62,0,0,1,147.53,39.2Z"/><path class="cls-5" d="M132.83,34.18a1.63,1.63,0,1,1,0-3.26,1.63,1.63,0,1,1,0,3.26Z"/><path class="cls-5" d="M212.46,39.11a1.68,1.68,0,0,1-1.7,1.63,1.65,1.65,0,0,1-1.55-1.66,1.63,1.63,0,0,1,1.57-1.62A1.66,1.66,0,0,1,212.46,39.11Z"/><path class="cls-5" d="M179.91,45.57a1.61,1.61,0,0,1-1.6,1.58,1.67,1.67,0,0,1-1.62-1.6,1.65,1.65,0,0,1,1.69-1.63A1.58,1.58,0,0,1,179.91,45.57Z"/><path class="cls-5" d="M223.77,30.93a1.62,1.62,0,0,1,.06,3.23,1.64,1.64,0,0,1-1.67-1.64A1.65,1.65,0,0,1,223.77,30.93Z"/><path class="cls-5" d="M184.84,43.92a1.64,1.64,0,0,1,1.65,1.55,1.66,1.66,0,0,1-1.65,1.68,1.62,1.62,0,0,1-1.57-1.62A1.58,1.58,0,0,1,184.84,43.92Z"/><path class="cls-5" d="M173.48,45.57a1.61,1.61,0,0,1-1.61,1.58,1.67,1.67,0,0,1-1.61-1.6A1.65,1.65,0,0,1,172,43.92,1.58,1.58,0,0,1,173.48,45.57Z"/><path class="cls-5" d="M113.47,21.16a1.57,1.57,0,0,1-1.63-1.54A1.55,1.55,0,0,1,113.37,18a1.59,1.59,0,1,1,.1,3.17Z"/><path class="cls-5" d="M106.89,14.73a1.64,1.64,0,0,1-1.63-1.58,1.62,1.62,0,0,1,1.6-1.59,1.55,1.55,0,0,1,1.6,1.56A1.59,1.59,0,0,1,106.89,14.73Z"/><path class="cls-5" d="M165.34,44A1.6,1.6,0,0,1,167,45.53a1.62,1.62,0,0,1-1.61,1.59,1.57,1.57,0,0,1-1.58-1.59A1.54,1.54,0,0,1,165.34,44Z"/><path class="cls-5" d="M121.44,26.16a1.61,1.61,0,0,1-1.65,1.54,1.58,1.58,0,0,1-1.5-1.68,1.6,1.6,0,0,1,1.58-1.5A1.63,1.63,0,0,1,121.44,26.16Z"/><path class="cls-5" d="M238.45,26.14a1.56,1.56,0,1,1-3.12-.05,1.61,1.61,0,0,1,1.54-1.55A1.58,1.58,0,0,1,238.45,26.14Z"/><path class="cls-5" d="M243.38,18a1.56,1.56,0,0,1,0,3.12,1.56,1.56,0,1,1,0-3.12Z"/><path class="cls-5" d="M191.28,47.09A1.56,1.56,0,1,1,191.6,44,1.52,1.52,0,0,1,193,45.63,1.55,1.55,0,0,1,191.28,47.09Z"/><path class="cls-5" d="M126.41,34.11A1.56,1.56,0,1,1,128,32.57,1.59,1.59,0,0,1,126.41,34.11Z"/><path class="cls-5" d="M100.44,8.15A1.56,1.56,0,1,1,102,6.62,1.58,1.58,0,0,1,100.44,8.15Z"/><path class="cls-5" d="M158.89,47.07a1.55,1.55,0,1,1,0-3.09,1.55,1.55,0,1,1,0,3.09Z"/><path class="cls-5" d="M141,39.11a1.57,1.57,0,0,1-1.64,1.53,1.55,1.55,0,1,1,.14-3.09A1.56,1.56,0,0,1,141,39.11Z"/><path class="cls-5" d="M217.39,40.62a1.53,1.53,0,0,1-.09-3,1.53,1.53,0,1,1,.09,3Z"/><path class="cls-5" d="M196.3,45.49a1.55,1.55,0,1,1,1.48,1.56A1.53,1.53,0,0,1,196.3,45.49Z"/><path class="cls-5" d="M231.86,32.51a1.53,1.53,0,0,1-1.48,1.58,1.54,1.54,0,0,1-.07-3.08A1.53,1.53,0,0,1,231.86,32.51Z"/><path class="cls-5" d="M152.4,44a1.54,1.54,0,0,1,1.48,1.58A1.52,1.52,0,0,1,152.26,47a1.45,1.45,0,0,1-1.39-1.51A1.47,1.47,0,0,1,152.4,44Z"/><path class="cls-5" d="M205.87,45.54A1.47,1.47,0,0,1,204.43,47a1.52,1.52,0,0,1-1.55-1.51A1.55,1.55,0,0,1,204.46,44,1.48,1.48,0,0,1,205.87,45.54Z"/><path class="cls-5" d="M93.93-1.44A1.48,1.48,0,0,1,95.36.05a1.47,1.47,0,0,1-1.45,1.47A1.52,1.52,0,0,1,92.4,0,1.55,1.55,0,0,1,93.93-1.44Z"/><path class="cls-5" d="M132.88,40.57a1.45,1.45,0,0,1-1.51-1.4,1.48,1.48,0,0,1,1.48-1.56,1.55,1.55,0,0,1,1.48,1.47A1.53,1.53,0,0,1,132.88,40.57Z"/><path class="cls-5" d="M106.84,21a1.45,1.45,0,0,1-1.41-1.49,1.47,1.47,0,0,1,1.48-1.44,1.47,1.47,0,1,1-.07,2.93Z"/><path class="cls-5" d="M223.75,40.56a1.47,1.47,0,0,1-1.4-1.52,1.49,1.49,0,0,1,1.5-1.42,1.53,1.53,0,0,1,1.42,1.53A1.5,1.5,0,0,1,223.75,40.56Z"/><path class="cls-5" d="M144.49,45.48a1.44,1.44,0,1,1,1.42,1.5A1.47,1.47,0,0,1,144.49,45.48Z"/><path class="cls-5" d="M114.87,26.11a1.44,1.44,0,0,1-1.45,1.45A1.47,1.47,0,0,1,112,26.12a1.44,1.44,0,0,1,1.46-1.44A1.41,1.41,0,0,1,114.87,26.11Z"/><path class="cls-5" d="M212.26,45.58a1.44,1.44,0,0,1-2.88,0,1.44,1.44,0,1,1,2.88,0Z"/><path class="cls-5" d="M101.85,13.17a1.44,1.44,0,0,1-1.39,1.4,1.44,1.44,0,0,1,0-2.87A1.44,1.44,0,0,1,101.85,13.17Z"/><path class="cls-5" d="M119.91,34a1.41,1.41,0,1,1-.1-2.81,1.41,1.41,0,1,1,.1,2.81Z"/><path class="cls-5" d="M236.89,33.94a1.4,1.4,0,1,1,.06-2.79,1.38,1.38,0,0,1,1.33,1.43A1.36,1.36,0,0,1,236.89,33.94Z"/><path class="cls-5" d="M173.27,52.13a1.36,1.36,0,0,1-1.42,1.33,1.39,1.39,0,0,1-1.37-1.39A1.41,1.41,0,0,1,172,50.68,1.38,1.38,0,0,1,173.27,52.13Z"/><path class="cls-5" d="M179.7,52.06a1.35,1.35,0,0,1-1.34,1.4A1.39,1.39,0,0,1,176.91,52a1.4,1.4,0,0,1,1.41-1.35A1.37,1.37,0,0,1,179.7,52.06Z"/><path class="cls-5" d="M184.83,53.46a1.35,1.35,0,0,1-1.35-1.4,1.37,1.37,0,0,1,1.37-1.38,1.39,1.39,0,1,1,0,2.78Z"/><path class="cls-5" d="M92.55,6.49A1.37,1.37,0,0,1,94,5.22a1.42,1.42,0,0,1,1.25,1.41A1.41,1.41,0,0,1,93.83,8,1.37,1.37,0,0,1,92.55,6.49Z"/><path class="cls-5" d="M165.29,53.45a1.38,1.38,0,0,1,.11-2.76,1.43,1.43,0,0,1,1.33,1.44A1.4,1.4,0,0,1,165.29,53.45Z"/><path class="cls-5" d="M192.77,52.12a1.35,1.35,0,0,1-1.4,1.33A1.39,1.39,0,0,1,190,52a1.41,1.41,0,0,1,1.43-1.34A1.36,1.36,0,0,1,192.77,52.12Z"/><path class="cls-5" d="M199.18,52.05a1.35,1.35,0,0,1-1.37,1.38,1.39,1.39,0,0,1-1.32-1.33,1.4,1.4,0,0,1,1.39-1.38A1.36,1.36,0,0,1,199.18,52.05Z"/><path class="cls-5" d="M157.57,52.11a1.35,1.35,0,0,1,1.36-1.39,1.36,1.36,0,1,1-.05,2.71A1.36,1.36,0,0,1,157.57,52.11Z"/><path class="cls-5" d="M127.75,39.12a1.33,1.33,0,0,1-1.4,1.33,1.35,1.35,0,1,1,0-2.7A1.33,1.33,0,0,1,127.75,39.12Z"/><path class="cls-5" d="M139.37,46.89a1.34,1.34,0,0,1-1.34-1.4,1.31,1.31,0,0,1,1.31-1.31,1.39,1.39,0,0,1,1.42,1.33A1.42,1.42,0,0,1,139.37,46.89Z"/><path class="cls-5" d="M230.4,40.42a1.33,1.33,0,1,1-.1-2.65,1.33,1.33,0,1,1,.1,2.65Z"/><path class="cls-5" d="M218.71,45.55a1.33,1.33,0,0,1-1.31,1.31A1.37,1.37,0,0,1,216,45.5a1.36,1.36,0,0,1,1.44-1.3A1.31,1.31,0,0,1,218.71,45.55Z"/><path class="cls-5" d="M151.07,52.06a1.31,1.31,0,0,1,1.3-1.3,1.32,1.32,0,0,1,0,2.63A1.32,1.32,0,0,1,151.07,52.06Z"/><path class="cls-5" d="M106.84,24.8a1.32,1.32,0,1,1-1.26,1.35A1.32,1.32,0,0,1,106.84,24.8Z"/><path class="cls-5" d="M100.44,20.84a1.28,1.28,0,0,1,0-2.55,1.31,1.31,0,0,1,1.34,1.26A1.29,1.29,0,0,1,100.44,20.84Z"/><path class="cls-5" d="M87.35,1.31A1.23,1.23,0,0,1,86.08,0a1.24,1.24,0,0,1,1.21-1.25A1.3,1.3,0,0,1,88.64,0,1.28,1.28,0,0,1,87.35,1.31Z"/><path class="cls-5" d="M114.69,32.55a1.3,1.3,0,0,1-1.3,1.3,1.3,1.3,0,0,1,0-2.59A1.27,1.27,0,0,1,114.69,32.55Z"/><path class="cls-5" d="M205.66,52.1a1.29,1.29,0,0,1-1.32,1.27A1.33,1.33,0,0,1,203.1,52a1.32,1.32,0,0,1,1.28-1.21A1.26,1.26,0,0,1,205.66,52.1Z"/><path class="cls-5" d="M222.56,45.56a1.25,1.25,0,0,1,1.27-1.3,1.32,1.32,0,0,1,1.25,1.23,1.3,1.3,0,0,1-1.29,1.3A1.24,1.24,0,0,1,222.56,45.56Z"/><path class="cls-5" d="M131.59,45.51a1.25,1.25,0,0,1,1.21-1.25,1.3,1.3,0,0,1,1.31,1.29,1.28,1.28,0,0,1-1.35,1.23A1.21,1.21,0,0,1,131.59,45.51Z"/><path class="cls-5" d="M95.13,13.11A1.24,1.24,0,0,1,94,14.38a1.3,1.3,0,0,1-1.32-1.27,1.32,1.32,0,0,1,1.26-1.23A1.27,1.27,0,0,1,95.13,13.11Z"/><path class="cls-5" d="M121.08,39.06a1.24,1.24,0,0,1-1.17,1.28,1.3,1.3,0,0,1-1.32-1.27,1.33,1.33,0,0,1,1.25-1.23A1.26,1.26,0,0,1,121.08,39.06Z"/><path class="cls-5" d="M238.13,39.11a1.28,1.28,0,0,1-1.27,1.22,1.24,1.24,0,0,1,0-2.47A1.29,1.29,0,0,1,238.13,39.11Z"/><path class="cls-5" d="M145.87,53.27a1.2,1.2,0,1,1,.17-2.39,1.2,1.2,0,1,1-.17,2.39Z"/><path class="cls-5" d="M210.82,53.28a1.2,1.2,0,1,1,.07-2.4,1.2,1.2,0,0,1-.07,2.4Z"/><path class="cls-5" d="M178.32,57.44a1.19,1.19,0,0,1,0,2.37,1.19,1.19,0,1,1,0-2.37Z"/><path class="cls-5" d="M88.5,6.63a1.11,1.11,0,0,1-1.17,1.12,1.17,1.17,0,0,1-1.17-1.14,1.19,1.19,0,0,1,1.25-1.19A1.13,1.13,0,0,1,88.5,6.63Z"/><path class="cls-5" d="M126.39,46.69a1.22,1.22,0,0,1-1.16-1.16,1.18,1.18,0,0,1,1.17-1.15,1.13,1.13,0,0,1,1.14,1.15A1.15,1.15,0,0,1,126.39,46.69Z"/><path class="cls-5" d="M108,32.55a1.12,1.12,0,0,1-1.06,1.13,1.18,1.18,0,0,1-1.2-1.13,1.2,1.2,0,0,1,1.2-1.14A1.13,1.13,0,0,1,108,32.55Z"/><path class="cls-5" d="M139.38,50.93a1.21,1.21,0,0,1,1.15,1.2,1.18,1.18,0,0,1-1.15,1.08A1.12,1.12,0,0,1,138.26,52,1.15,1.15,0,0,1,139.38,50.93Z"/><path class="cls-5" d="M100.39,25a1.14,1.14,0,0,1,.1,2.27,1.14,1.14,0,1,1-.1-2.27Z"/><path class="cls-5" d="M218.49,52.05a1.13,1.13,0,0,1-1,1.16,1.19,1.19,0,0,1-1.23-1.11,1.21,1.21,0,0,1,1.18-1.17A1.15,1.15,0,0,1,218.49,52.05Z"/><path class="cls-5" d="M171.89,57.47a1.16,1.16,0,0,1,0,2.31,1.2,1.2,0,0,1-1.15-1.17A1.18,1.18,0,0,1,171.89,57.47Z"/><path class="cls-5" d="M184.82,59.79a1.17,1.17,0,0,1-1.09-1.21,1.12,1.12,0,0,1,1.19-1.1A1.17,1.17,0,0,1,186,58.67,1.23,1.23,0,0,1,184.82,59.79Z"/><path class="cls-5" d="M230.35,44.42a1.12,1.12,0,0,1,1.14,1.16,1.14,1.14,0,0,1-1.13,1.07,1.11,1.11,0,0,1-1.13-1.17A1.08,1.08,0,0,1,230.35,44.42Z"/><path class="cls-5" d="M165.31,59.75a1.11,1.11,0,0,1-1.09-1.1,1.08,1.08,0,0,1,1.15-1.14,1.15,1.15,0,0,1,1.12,1.09A1.18,1.18,0,0,1,165.31,59.75Z"/><path class="cls-5" d="M191.43,57.51a1.09,1.09,0,0,1,1.1,1.08,1.12,1.12,0,0,1-1.15,1.16,1.15,1.15,0,0,1-1.11-1.1A1.13,1.13,0,0,1,191.43,57.51Z"/><path class="cls-5" d="M160,58.67a1.1,1.1,0,0,1-1.13,1,1.07,1.07,0,0,1-1.08-1.19,1.06,1.06,0,0,1,1.17-1A1.09,1.09,0,0,1,160,58.67Z"/><path class="cls-5" d="M113.45,40.16a1.07,1.07,0,1,1-.06-2.13,1.07,1.07,0,0,1,1.11,1A1.05,1.05,0,0,1,113.45,40.16Z"/><path class="cls-5" d="M95,19.56a1.09,1.09,0,0,1-2.17,0,1.09,1.09,0,0,1,2.17,0Z"/><path class="cls-5" d="M198.93,58.63a1.09,1.09,0,1,1-1.08-1.08A1.07,1.07,0,0,1,198.93,58.63Z"/><path class="cls-5" d="M79.87,0a1,1,0,0,1,1-1A1.07,1.07,0,0,1,82,.07a1,1,0,0,1-1.15,1A1,1,0,0,1,79.87,0Z"/><path class="cls-5" d="M133.88,52.11a1.08,1.08,0,0,1-1,1,1,1,0,0,1-1-1.12,1,1,0,0,1,1.08-.94A1.07,1.07,0,0,1,133.88,52.11Z"/><path class="cls-5" d="M88.4,13.14a1.07,1.07,0,0,1-1,1,1,1,0,0,1-1-1,1,1,0,0,1,1-1.09A1.09,1.09,0,0,1,88.4,13.14Z"/><path class="cls-5" d="M152.32,57.59a1.06,1.06,0,0,1,1.08,1,1,1,0,0,1-1.05,1.1,1,1,0,0,1-1-1A1,1,0,0,1,152.32,57.59Z"/><path class="cls-5" d="M205.41,58.68a1,1,0,0,1-1,1,1,1,0,1,1,.11-2.06A1,1,0,0,1,205.41,58.68Z"/><path class="cls-5" d="M119.84,46.54a1.06,1.06,0,0,1-1-1,1.07,1.07,0,0,1,1-1,1,1,0,0,1,1,1A1,1,0,0,1,119.84,46.54Z"/><path class="cls-5" d="M236.87,44.53a1.05,1.05,0,0,1,1,.92,1,1,0,0,1-1,1.07,1,1,0,0,1-1-.91A1,1,0,0,1,236.87,44.53Z"/><path class="cls-5" d="M224.82,52.11a1,1,0,0,1-1.08,1,1,1,0,0,1-.93-1.08,1,1,0,0,1,1-.89A1,1,0,0,1,224.82,52.11Z"/><path class="cls-5" d="M145.89,57.66a1,1,0,0,1,1,.9,1,1,0,0,1-.85,1,1,1,0,1,1-.12-1.93Z"/><path class="cls-5" d="M211.78,58.61a1,1,0,0,1-.91,1,1,1,0,0,1-1-1,1,1,0,0,1,1-.92A1,1,0,0,1,211.78,58.61Z"/><path class="cls-5" d="M80.89,5.67A.92.92,0,0,1,81,7.51a.92.92,0,1,1-.09-1.84Z"/><path class="cls-5" d="M100.4,31.63a.92.92,0,0,1,.13,1.83.92.92,0,1,1-.13-1.83Z"/><path class="cls-5" d="M93.93,27A.91.91,0,0,1,93,26.2a.92.92,0,0,1,.86-1,1,1,0,0,1,.94.82A1,1,0,0,1,93.93,27Z"/><path class="cls-5" d="M127.28,52.05a.88.88,0,0,1-.8.92.92.92,0,0,1-1-.87,1,1,0,0,1,.94-.93A.9.9,0,0,1,127.28,52.05Z"/><path class="cls-5" d="M177.4,65a.92.92,0,0,1,.91-.86.88.88,0,1,1,0,1.76A1,1,0,0,1,177.4,65Z"/><path class="cls-5" d="M106.93,40a1,1,0,0,1-1-.8.89.89,0,0,1,.9-1,.85.85,0,0,1,.89.85A.88.88,0,0,1,106.93,40Z"/><path class="cls-5" d="M230.33,53a.88.88,0,0,1-.84-.89.9.9,0,0,1,.88-.87.88.88,0,0,1,0,1.76Z"/><path class="cls-5" d="M172.74,65.16a.86.86,0,1,1-.75-1A.84.84,0,0,1,172.74,65.16Z"/><path class="cls-5" d="M140.25,58.65a.87.87,0,0,1-.9.82.85.85,0,1,1,.06-1.7A.86.86,0,0,1,140.25,58.65Z"/><path class="cls-5" d="M185.74,65.09a.87.87,0,0,1-.91.81.85.85,0,1,1,.07-1.69A.85.85,0,0,1,185.74,65.09Z"/><path class="cls-5" d="M217.42,59.44a.78.78,0,0,1-.86-.71.8.8,0,0,1,.77-.93.84.84,0,0,1,.88.83A.83.83,0,0,1,217.42,59.44Z"/><path class="cls-5" d="M87.35,20.39a.79.79,0,0,1-.82-.77.81.81,0,0,1,.83-.88.85.85,0,0,1,.83.78A.83.83,0,0,1,87.35,20.39Z"/><path class="cls-5" d="M114.24,45.54a.78.78,0,0,1-.78.8.83.83,0,0,1-.88-.83.84.84,0,0,1,.91-.8A.79.79,0,0,1,114.24,45.54Z"/><path class="cls-5" d="M166.16,65.09a.78.78,0,0,1-.81.78.82.82,0,0,1-.85-.86.84.84,0,0,1,.93-.78A.81.81,0,0,1,166.16,65.09Z"/><path class="cls-5" d="M192.25,65.11a.84.84,0,0,1-.95.76.82.82,0,0,1,.12-1.64A.83.83,0,0,1,192.25,65.11Z"/><path class="cls-5" d="M159.69,65a.76.76,0,0,1-.76.82.83.83,0,0,1-.84-.77.85.85,0,0,1,.78-.83A.78.78,0,0,1,159.69,65Z"/><path class="cls-5" d="M197.79,65.85a.77.77,0,0,1-.73-.85.78.78,0,0,1,.85-.75.85.85,0,0,1,.75.86A.84.84,0,0,1,197.79,65.85Z"/><path class="cls-5" d="M75.13.05a.78.78,0,0,1-.8.77.78.78,0,0,1-.74-.73.81.81,0,0,1,.76-.83A.79.79,0,0,1,75.13.05Z"/><path class="cls-5" d="M81.91,13.07c-.41.36-.63.68-.93.79s-.82-.31-.8-.73.3-.76.71-.71S81.45,12.77,81.91,13.07Z"/><path class="cls-5" d="M153.35,65.05c-.42.33-.66.64-1,.73s-.8-.36-.75-.78a.66.66,0,0,1,.75-.67C152.67,64.38,152.92,64.72,153.35,65.05Z"/><path class="cls-5" d="M133.82,58.68c-.45.31-.71.62-1,.66s-.69-.26-.71-.71.42-.87.8-.73S133.41,58.32,133.82,58.68Z"/><path class="cls-5" d="M120.59,52.16a.7.7,0,0,1-.77.63.72.72,0,1,1,.08-1.43A.72.72,0,0,1,120.59,52.16Z"/><path class="cls-5" d="M224.48,58.67c0,.39-.41.77-.74.63a1.22,1.22,0,0,1-.63-.67c-.11-.34.32-.71.7-.71A.68.68,0,0,1,224.48,58.67Z"/><path class="cls-5" d="M205.39,65.07a4.41,4.41,0,0,1-1,.67c-.36.08-.67-.35-.64-.75s.31-.68.67-.61S204.93,64.74,205.39,65.07Z"/><path class="cls-5" d="M237.57,52.13c0,.41-.39.75-.75.61a1.21,1.21,0,0,1-.61-.67c-.1-.35.33-.7.71-.69A.68.68,0,0,1,237.57,52.13Z"/><path class="cls-5" d="M94.81,32.5c-.38.32-.59.61-.86.69s-.63-.16-.7-.55.27-.83.64-.74A3.65,3.65,0,0,1,94.81,32.5Z"/><path class="cls-5" d="M88.25,26.1c-.43.31-.66.59-.92.62a.52.52,0,0,1-.57-.65c0-.22.36-.55.55-.55S87.81,25.81,88.25,26.1Z"/><path class="cls-5" d="M101.1,39.28c-.16.11-.38.39-.65.44a.57.57,0,0,1-.67-.61.6.6,0,0,1,.64-.65C100.83,38.46,101.06,38.67,101.1,39.28Z"/><path class="cls-5" d="M211,65.67c-.58,0-.86-.28-.75-.67a.86.86,0,0,1,.59-.52.49.49,0,0,1,.58.63C211.36,65.34,211.1,65.54,211,65.67Z"/><path class="cls-5" d="M146.87,65.08c-.5.28-.77.55-1,.53a.76.76,0,0,1-.51-.57.79.79,0,0,1,.54-.55C146.14,64.49,146.39,64.77,146.87,65.08Z"/><path class="cls-5" d="M107.82,45.54c-.5.29-.76.56-1,.55a.79.79,0,0,1-.52-.57.77.77,0,0,1,.54-.55C107.08,45,107.33,45.24,107.82,45.54Z"/><path class="cls-5" d="M74.42,5.76c.24.41.51.66.47.86s-.36.37-.56.55c-.18-.2-.49-.4-.51-.61S74.11,6.14,74.42,5.76Z"/><path class="cls-5" d="M230.24,57.86c.3.32.54.46.6.66a.44.44,0,0,1-.44.61.71.71,0,0,1-.54-.41C229.84,58.5,230.05,58.25,230.24,57.86Z"/><path class="cls-5" d="M126.44,57.86c.22.37.46.59.46.82s-.32.32-.5.48c-.17-.2-.44-.38-.48-.6S126.17,58.2,126.44,57.86Z"/><path class="cls-5" d="M80.89,20.33c-.24-.36-.51-.6-.47-.75s.35-.37.55-.55c.16.18.47.37.46.53S81.15,20,80.89,20.33Z"/><path class="cls-5" d="M140.09,65c-.35.24-.54.46-.74.48s-.4-.28-.4-.44.23-.47.36-.47S139.72,64.82,140.09,65Z"/><path class="cls-5" d="M217.29,64.4c.25.27.52.45.5.57s-.26.38-.4.57c-.16-.14-.46-.26-.46-.4S217.12,64.73,217.29,64.4Z"/><path class="cls-5" d="M113.42,51.43c.21.29.43.47.45.67s-.31.43-.4.4A.85.85,0,0,1,113,52C113,51.93,113.2,51.73,113.42,51.43Z"/><path class="cls-5" d="M172.46,71.67c-.24.16-.45.4-.56.36s-.33-.31-.49-.48a1.71,1.71,0,0,1,.58-.38C172.1,71.16,172.26,71.44,172.46,71.67Z"/><path class="cls-5" d="M178.89,71.67c-.24.16-.45.4-.56.36s-.33-.31-.49-.48c.19-.14.37-.35.58-.38S178.69,71.44,178.89,71.67Z"/><path class="cls-5" d="M184.88,71c.2.3.41.48.43.68s-.32.42-.41.39a.85.85,0,0,1-.46-.47C184.41,71.44,184.66,71.25,184.88,71Z"/><path class="cls-5" d="M165.3,72.17c-.16-.27-.36-.45-.34-.59s.26-.27.41-.4c.13.15.36.3.37.45S165.51,71.93,165.3,72.17Z"/><path class="cls-5" d="M191.45,71c.16.27.36.45.34.59s-.27.27-.41.4c-.13-.15-.36-.3-.37-.45S191.24,71.27,191.45,71Z"/><path class="cls-5" d="M68.41.13c-.27.11-.42.22-.56.21s-.28-.25-.26-.29.24-.31.37-.32S68.19-.07,68.41.13Z"/><path class="cls-5" d="M120.32,58.67c-.24.13-.38.25-.53.25s-.29-.22-.27-.26.2-.34.33-.36S120.1,58.49,120.32,58.67Z"/><path class="cls-5" d="M93.93,39.57c-.18-.23-.38-.37-.37-.48s.22-.26.37-.31.27.17.27.27S94.06,39.33,93.93,39.57Z"/><path class="cls-5" d="M198.35,71.65c-.27.14-.44.3-.56.27a.53.53,0,0,1-.24-.42c0-.06.23-.25.31-.23S198.13,71.47,198.35,71.65Z"/><path class="cls-5" d="M74.51,12.77c.06.15.17.3.15.45s-.24.26-.29.24a.62.62,0,0,1-.33-.35c0-.16.12-.33.18-.5Z"/><path class="cls-5" d="M133.33,65c-.23.18-.34.33-.49.37s-.31-.16-.3-.22.13-.37.24-.4S133.07,64.87,133.33,65Z"/><path class="cls-5" d="M158.86,72.1c-.14-.26-.31-.43-.29-.55s.26-.23.41-.26.25.22.24.31S159,71.87,158.86,72.1Z"/><path class="cls-5" d="M100.39,45.11c.16.2.32.32.31.42s-.17.2-.3.26-.2-.13-.2-.21A1.6,1.6,0,0,1,100.39,45.11Z"/><path class="cls-5" d="M87.3,32.82c-.08-.09-.21-.2-.2-.24a1.38,1.38,0,0,1,.27-.27l.22.32Z"/></g><g class="cls-4"><path class="cls-5" d="M38.87,346.76a2.55,2.55,0,0,1-2.48,2.62,2.56,2.56,0,0,1-.1-5.12A2.52,2.52,0,0,1,38.87,346.76Z"/><path class="cls-5" d="M42.85,344.28a2.56,2.56,0,0,1,2.59,2.52,2.59,2.59,0,0,1-2.56,2.56,2.52,2.52,0,0,1-2.51-2.47A2.5,2.5,0,0,1,42.85,344.28Z"/><path class="cls-5" d="M32.43,346.83a2.52,2.52,0,0,1-2.57,2.53,2.54,2.54,0,0,1,0-5.08A2.49,2.49,0,0,1,32.43,346.83Z"/><path class="cls-5" d="M51.94,346.85a2.49,2.49,0,0,1-2.49,2.48,2.51,2.51,0,1,1,0-5A2.47,2.47,0,0,1,51.94,346.85Z"/><path class="cls-5" d="M20.86,346.77a2.48,2.48,0,0,1,2.5-2.46,2.51,2.51,0,1,1,0,5A2.49,2.49,0,0,1,20.86,346.77Z"/><path class="cls-5" d="M17,349.28a2.47,2.47,0,1,1,0-4.93,2.47,2.47,0,1,1,0,4.93Z"/><path class="cls-5" d="M58.34,346.74a2.48,2.48,0,1,1-2.55-2.38A2.45,2.45,0,0,1,58.34,346.74Z"/><path class="cls-5" d="M10.4,349.23a2.42,2.42,0,0,1,0-4.84,2.42,2.42,0,1,1,0,4.84Z"/><path class="cls-5" d="M64.82,346.85a2.39,2.39,0,0,1-2.41,2.38,2.42,2.42,0,1,1,.07-4.84A2.4,2.4,0,0,1,64.82,346.85Z"/><path class="cls-5" d="M36.22,342.7A2.43,2.43,0,0,1,34,340.06a2.37,2.37,0,0,1,2.58-2.2,2.43,2.43,0,0,1,2.24,2.56A2.48,2.48,0,0,1,36.22,342.7Z"/><path class="cls-5" d="M27.52,340.25a2.35,2.35,0,0,1,2.4-2.38,2.43,2.43,0,0,1,2.42,2.41,2.45,2.45,0,0,1-2.44,2.4A2.38,2.38,0,0,1,27.52,340.25Z"/><path class="cls-5" d="M45.28,340.3a2.39,2.39,0,0,1-2.42,2.38,2.46,2.46,0,0,1-2.4-2.44,2.43,2.43,0,0,1,2.46-2.37A2.36,2.36,0,0,1,45.28,340.3Z"/><path class="cls-5" d="M23.35,337.9a2.37,2.37,0,0,1,.08,4.74,2.37,2.37,0,1,1-.08-4.74Z"/><path class="cls-5" d="M47.06,340.27a2.33,2.33,0,0,1,2.4-2.37,2.37,2.37,0,1,1,0,4.74A2.35,2.35,0,0,1,47.06,340.27Z"/><path class="cls-5" d="M3.91,349.19A2.38,2.38,0,0,1,4,344.43a2.44,2.44,0,0,1,2.34,2.37A2.41,2.41,0,0,1,3.91,349.19Z"/><path class="cls-5" d="M71.2,346.81a2.36,2.36,0,1,1-2.33-2.37A2.38,2.38,0,0,1,71.2,346.81Z"/><path class="cls-5" d="M17,342.6a2.34,2.34,0,1,1,2.31-2.35A2.32,2.32,0,0,1,17,342.6Z"/><path class="cls-5" d="M55.88,342.59a2.33,2.33,0,1,1,2.32-2.31A2.32,2.32,0,0,1,55.88,342.59Z"/><path class="cls-5" d="M12.67,340.22a2.26,2.26,0,0,1-2.27,2.35,2.31,2.31,0,0,1-.1-4.61A2.27,2.27,0,0,1,12.67,340.22Z"/><path class="cls-5" d="M60.14,340.32A2.25,2.25,0,0,1,62.42,338a2.3,2.3,0,1,1,0,4.59A2.25,2.25,0,0,1,60.14,340.32Z"/><path class="cls-5" d="M38.61,333.79a2.25,2.25,0,0,1-2.28,2.33,2.29,2.29,0,1,1,0-4.58A2.27,2.27,0,0,1,38.61,333.79Z"/><path class="cls-5" d="M29.89,336.11a2.28,2.28,0,1,1,.09-4.56,2.28,2.28,0,0,1-.09,4.56Z"/><path class="cls-5" d="M45.18,333.86a2.32,2.32,0,0,1-2.29,2.25,2.28,2.28,0,1,1,.06-4.56A2.33,2.33,0,0,1,45.18,333.86Z"/><path class="cls-5" d="M77.66,346.86a2.25,2.25,0,0,1-2.29,2.22,2.26,2.26,0,1,1,.1-4.52A2.22,2.22,0,0,1,77.66,346.86Z"/><path class="cls-5" d="M25.62,333.78a2.3,2.3,0,0,1-2.21,2.32,2.26,2.26,0,0,1-2.29-2.21,2.29,2.29,0,0,1,2.19-2.33A2.31,2.31,0,0,1,25.62,333.78Z"/><path class="cls-5" d="M51.68,333.83a2.26,2.26,0,0,1-2.24,2.27,2.27,2.27,0,1,1,2.24-2.27Z"/><path class="cls-5" d="M6.19,340.25a2.26,2.26,0,0,1-2.25,2.27,2.26,2.26,0,0,1,0-4.51A2.28,2.28,0,0,1,6.19,340.25Z"/><path class="cls-5" d="M19.15,333.88a2.23,2.23,0,1,1-2.23-2.29A2.26,2.26,0,0,1,19.15,333.88Z"/><path class="cls-5" d="M68.86,342.51a2.25,2.25,0,1,1,2.2-2.32A2.25,2.25,0,0,1,68.86,342.51Z"/><path class="cls-5" d="M55.83,336.07a2.24,2.24,0,0,1,.08-4.47,2.24,2.24,0,0,1-.08,4.47Z"/><path class="cls-5" d="M84,346.83a2.21,2.21,0,0,1-2.2,2.16,2.18,2.18,0,0,1,0-4.36A2.22,2.22,0,0,1,84,346.83Z"/><path class="cls-5" d="M8.22,333.76a2.14,2.14,0,0,1,2.24-2.09,2.2,2.2,0,0,1,2.12,2.24A2.23,2.23,0,0,1,10.31,336,2.17,2.17,0,0,1,8.22,333.76Z"/><path class="cls-5" d="M62.4,331.68a2.16,2.16,0,0,1,.08,4.32,2.2,2.2,0,0,1-2.25-2.13A2.18,2.18,0,0,1,62.4,331.68Z"/><path class="cls-5" d="M38.5,327.34a2.2,2.2,0,0,1-2.27,2.1,2.16,2.16,0,0,1,.22-4.31A2.21,2.21,0,0,1,38.5,327.34Z"/><path class="cls-5" d="M75.43,342.41a2.14,2.14,0,1,1-.07-4.28,2.16,2.16,0,0,1,2.21,2.16A2.19,2.19,0,0,1,75.43,342.41Z"/><path class="cls-5" d="M32.05,327.33a2.18,2.18,0,0,1-2.16,2.1,2.15,2.15,0,1,1,.09-4.29A2.19,2.19,0,0,1,32.05,327.33Z"/><path class="cls-5" d="M42.94,329.43A2.15,2.15,0,1,1,45,327.26,2.15,2.15,0,0,1,42.94,329.43Z"/><path class="cls-5" d="M23.31,325.15a2.14,2.14,0,1,1,.05,4.27,2.13,2.13,0,0,1-2.11-2.1A2.16,2.16,0,0,1,23.31,325.15Z"/><path class="cls-5" d="M4,331.73a2.1,2.1,0,0,1,2.09,2.14,2.07,2.07,0,0,1-2.15,2.06,2.1,2.1,0,1,1,.06-4.2Z"/><path class="cls-5" d="M71,333.82a2.09,2.09,0,0,1-2.1,2.1,2.09,2.09,0,1,1,0-4.18A2.1,2.1,0,0,1,71,333.82Z"/><path class="cls-5" d="M51.53,327.23a2.12,2.12,0,0,1-2,2.18,2.12,2.12,0,0,1-.11-4.24A2.11,2.11,0,0,1,51.53,327.23Z"/><path class="cls-5" d="M19,327.31a2.13,2.13,0,0,1-2.17,2.07,2.08,2.08,0,0,1-2-2.11A2,2,0,0,1,17,325.21,2.09,2.09,0,0,1,19,327.31Z"/><path class="cls-5" d="M88.32,344.73a2.11,2.11,0,0,1,2.15,2.08,2.15,2.15,0,0,1-2,2.1,2.09,2.09,0,0,1-.12-4.18Z"/><path class="cls-5" d="M81.82,338.2a2.07,2.07,0,0,1,0,4.13,2.07,2.07,0,1,1,0-4.13Z"/><path class="cls-5" d="M55.84,329.36a2.11,2.11,0,0,1-2.05-2.16,2.08,2.08,0,0,1,2.11-2,2,2,0,0,1,2,2.15A2.05,2.05,0,0,1,55.84,329.36Z"/><path class="cls-5" d="M77.42,333.86a2,2,0,0,1-2,2,2,2,0,1,1,0-4.08A2.05,2.05,0,0,1,77.42,333.86Z"/><path class="cls-5" d="M64.46,327.23a2,2,0,0,1-2,2.07,2,2,0,1,1-.11-4A2,2,0,0,1,64.46,327.23Z"/><path class="cls-5" d="M12.41,327.31a2,2,0,0,1-2.05,2,2,2,0,1,1,0-4A2,2,0,0,1,12.41,327.31Z"/><path class="cls-5" d="M36.36,318.88a2,2,0,1,1-.09,3.95,2,2,0,0,1,.09-3.95Z"/><path class="cls-5" d="M44.85,320.8a1.94,1.94,0,0,1-1.88,2,2,2,0,1,1-.11-3.94A1.94,1.94,0,0,1,44.85,320.8Z"/><path class="cls-5" d="M5.94,327.27a2,2,0,0,1-1.94,2,2,2,0,1,1,0-3.93A2,2,0,0,1,5.94,327.27Z"/><path class="cls-5" d="M29.86,318.88a2,2,0,1,1,.05,3.94,1.92,1.92,0,0,1-2-1.94A1.94,1.94,0,0,1,29.86,318.88Z"/><path class="cls-5" d="M90.32,340.3a2,2,0,0,1-2,1.94,2,2,0,1,1,.06-3.94A1.94,1.94,0,0,1,90.32,340.3Z"/><path class="cls-5" d="M93,346.8a1.94,1.94,0,0,1,2-1.95,2,2,0,0,1,2,2,2,2,0,0,1-2,1.95A1.93,1.93,0,0,1,93,346.8Z"/><path class="cls-5" d="M70.79,327.25a1.91,1.91,0,0,1-1.91,2,2,2,0,0,1-2-1.92,2,2,0,0,1,1.94-2A1.94,1.94,0,0,1,70.79,327.25Z"/><path class="cls-5" d="M49.38,322.81a1.92,1.92,0,0,1-1.89-2,1.94,1.94,0,0,1,2-1.91,2,2,0,1,1-.11,3.92Z"/><path class="cls-5" d="M25.31,320.87a1.92,1.92,0,0,1-2,1.94,2,2,0,0,1-2-2,2,2,0,0,1,2-1.94A1.94,1.94,0,0,1,25.31,320.87Z"/><path class="cls-5" d="M81.8,335.79a2,2,0,0,1-1.91-2,1.9,1.9,0,0,1,1.91-1.88,2,2,0,0,1,2,1.93A2,2,0,0,1,81.8,335.79Z"/><path class="cls-5" d="M18.84,320.82a1.92,1.92,0,0,1-1.94,2,1.94,1.94,0,1,1,.06-3.87A1.91,1.91,0,0,1,18.84,320.82Z"/><path class="cls-5" d="M55.83,318.92a1.94,1.94,0,1,1,.08,3.87,1.94,1.94,0,0,1-.08-3.87Z"/><path class="cls-5" d="M77.29,327.24a1.9,1.9,0,1,1-2-1.87A1.93,1.93,0,0,1,77.29,327.24Z"/><path class="cls-5" d="M10.43,322.75a1.9,1.9,0,0,1-.1-3.79,1.9,1.9,0,0,1,.1,3.79Z"/><path class="cls-5" d="M64.3,320.85a1.88,1.88,0,1,1-3.76,0,1.89,1.89,0,0,1,1.87-1.9A1.92,1.92,0,0,1,64.3,320.85Z"/><path class="cls-5" d="M95,342.11a1.85,1.85,0,1,1-.07-3.69,1.85,1.85,0,0,1,.07,3.69Z"/><path class="cls-5" d="M103.18,346.78a1.83,1.83,0,0,1-1.77,1.88,1.84,1.84,0,1,1-.07-3.68A1.81,1.81,0,0,1,103.18,346.78Z"/><path class="cls-5" d="M90.23,333.86a1.86,1.86,0,0,1-1.85,1.81,1.84,1.84,0,1,1,.05-3.68A1.89,1.89,0,0,1,90.23,333.86Z"/><path class="cls-5" d="M38.15,314.32a1.79,1.79,0,0,1-1.79,1.81,1.86,1.86,0,0,1-1.86-1.78,1.89,1.89,0,0,1,1.88-1.88A1.82,1.82,0,0,1,38.15,314.32Z"/><path class="cls-5" d="M5.76,320.82A1.8,1.8,0,0,1,4,322.68a1.86,1.86,0,0,1-1.87-1.79,1.83,1.83,0,0,1,1.8-1.84A1.78,1.78,0,0,1,5.76,320.82Z"/><path class="cls-5" d="M29.92,312.48a1.82,1.82,0,0,1,1.79,1.83,1.8,1.8,0,0,1-1.81,1.81,1.86,1.86,0,0,1-1.82-1.82A1.89,1.89,0,0,1,29.92,312.48Z"/><path class="cls-5" d="M42.92,312.48a1.83,1.83,0,1,1-.06,3.65,1.83,1.83,0,0,1,.06-3.65Z"/><path class="cls-5" d="M81.82,329.08a1.8,1.8,0,1,1,0-3.59,1.8,1.8,0,1,1,0,3.59Z"/><path class="cls-5" d="M23.5,312.5a1.81,1.81,0,1,1-.33,3.61,1.81,1.81,0,0,1,.33-3.61Z"/><path class="cls-5" d="M49.48,312.49a1.84,1.84,0,0,1,1.75,1.89,1.81,1.81,0,0,1-1.89,1.73,1.84,1.84,0,0,1-1.71-1.82A1.87,1.87,0,0,1,49.48,312.49Z"/><path class="cls-5" d="M68.89,319.06a1.8,1.8,0,1,1-.08,3.59,1.8,1.8,0,1,1,.08-3.59Z"/><path class="cls-5" d="M17,316.09a1.78,1.78,0,1,1,0-3.56,1.78,1.78,0,0,1,0,3.56Z"/><path class="cls-5" d="M57.63,314.34a1.8,1.8,0,0,1-1.79,1.73,1.77,1.77,0,0,1,.06-3.53A1.8,1.8,0,0,1,57.63,314.34Z"/><path class="cls-5" d="M75.38,319.12a1.78,1.78,0,0,1,1.77,1.72,1.75,1.75,0,0,1-1.74,1.74,1.68,1.68,0,0,1-1.73-1.71A1.7,1.7,0,0,1,75.38,319.12Z"/><path class="cls-5" d="M88.33,325.57a1.71,1.71,0,0,1,1.73,1.62,1.68,1.68,0,0,1-1.65,1.8,1.74,1.74,0,0,1-1.76-1.72A1.77,1.77,0,0,1,88.33,325.57Z"/><path class="cls-5" d="M109.58,346.77a1.7,1.7,0,0,1-1.61,1.74,1.7,1.7,0,1,1-.08-3.4A1.69,1.69,0,0,1,109.58,346.77Z"/><path class="cls-5" d="M12.12,314.28A1.78,1.78,0,0,1,10.39,316a1.71,1.71,0,0,1-1.71-1.64,1.68,1.68,0,0,1,1.65-1.8A1.74,1.74,0,0,1,12.12,314.28Z"/><path class="cls-5" d="M101.39,342a1.71,1.71,0,0,1-1.74-1.73,1.67,1.67,0,0,1,1.62-1.71,1.76,1.76,0,0,1,1.82,1.65A1.78,1.78,0,0,1,101.39,342Z"/><path class="cls-5" d="M94.9,335.56a1.69,1.69,0,0,1-1.68-1.77,1.66,1.66,0,0,1,1.67-1.66,1.75,1.75,0,0,1,1.77,1.7A1.78,1.78,0,0,1,94.9,335.56Z"/><path class="cls-5" d="M64.11,314.35A1.68,1.68,0,0,1,62.43,316a1.75,1.75,0,0,1-1.74-1.74,1.72,1.72,0,0,1,1.82-1.65A1.66,1.66,0,0,1,64.11,314.35Z"/><path class="cls-5" d="M83.48,320.87a1.66,1.66,0,1,1-1.67-1.69A1.68,1.68,0,0,1,83.48,320.87Z"/><path class="cls-5" d="M5.6,314.27A1.61,1.61,0,0,1,4,316a1.64,1.64,0,0,1-.08-3.28A1.61,1.61,0,0,1,5.6,314.27Z"/><path class="cls-5" d="M38,307.74a1.66,1.66,0,0,1-1.67,1.68,1.66,1.66,0,0,1,.07-3.32A1.67,1.67,0,0,1,38,307.74Z"/><path class="cls-5" d="M31.52,307.8a1.63,1.63,0,0,1-1.6,1.6,1.68,1.68,0,0,1-1.65-1.68,1.66,1.66,0,0,1,1.62-1.59A1.61,1.61,0,0,1,31.52,307.8Z"/><path class="cls-5" d="M42.85,306.13a1.64,1.64,0,0,1,.09,3.27,1.64,1.64,0,0,1-.09-3.27Z"/><path class="cls-5" d="M70.5,314.34a1.64,1.64,0,0,1-1.74,1.59,1.58,1.58,0,0,1-1.54-1.65,1.6,1.6,0,0,1,1.72-1.6A1.64,1.64,0,0,1,70.5,314.34Z"/><path class="cls-5" d="M49.46,306.16a1.57,1.57,0,0,1,1.57,1.6,1.61,1.61,0,0,1-1.56,1.62,1.66,1.66,0,0,1-1.66-1.67A1.64,1.64,0,0,1,49.46,306.16Z"/><path class="cls-5" d="M25,307.8a1.66,1.66,0,0,1-1.64,1.58,1.61,1.61,0,0,1-1.58-1.72,1.57,1.57,0,0,1,1.67-1.5A1.64,1.64,0,0,1,25,307.8Z"/><path class="cls-5" d="M102.93,333.85a1.57,1.57,0,0,1-1.6,1.58,1.63,1.63,0,0,1-1.59-1.62,1.66,1.66,0,0,1,1.63-1.58A1.59,1.59,0,0,1,102.93,333.85Z"/><path class="cls-5" d="M94.91,325.71a1.54,1.54,0,0,1,1.59,1.57,1.57,1.57,0,0,1-1.58,1.6,1.64,1.64,0,0,1-1.61-1.59A1.61,1.61,0,0,1,94.91,325.71Z"/><path class="cls-5" d="M107.85,338.67a1.64,1.64,0,0,1,1.64,1.57,1.61,1.61,0,0,1-1.59,1.61,1.59,1.59,0,0,1-1.57-1.5A1.61,1.61,0,0,1,107.85,338.67Z"/><path class="cls-5" d="M77,314.36a1.57,1.57,0,0,1-1.65,1.53,1.59,1.59,0,0,1,.11-3.17A1.59,1.59,0,0,1,77,314.36Z"/><path class="cls-5" d="M18.52,307.72a1.58,1.58,0,0,1-1.58,1.6,1.56,1.56,0,0,1-.08-3.12A1.59,1.59,0,0,1,18.52,307.72Z"/><path class="cls-5" d="M57.44,307.8a1.54,1.54,0,0,1-1.64,1.52,1.56,1.56,0,1,1,.08-3.12A1.54,1.54,0,0,1,57.44,307.8Z"/><path class="cls-5" d="M114.35,348.34a1.53,1.53,0,1,1,1.52-1.52A1.51,1.51,0,0,1,114.35,348.34Z"/><path class="cls-5" d="M88.41,319.33a1.53,1.53,0,0,1,0,3.05,1.53,1.53,0,1,1,0-3.05Z"/><path class="cls-5" d="M62.45,306.24a1.52,1.52,0,1,1-1.57,1.48A1.54,1.54,0,0,1,62.45,306.24Z"/><path class="cls-5" d="M10.37,306.24a1.54,1.54,0,0,1,1.55,1.5,1.51,1.51,0,0,1-1.51,1.53,1.52,1.52,0,1,1,0-3Z"/><path class="cls-5" d="M4,306.27a1.58,1.58,0,0,1,1.48,1.48,1.54,1.54,0,0,1-1.57,1.49,1.46,1.46,0,0,1-1.39-1.53A1.48,1.48,0,0,1,4,306.27Z"/><path class="cls-5" d="M81.79,315.78a1.45,1.45,0,0,1-1.42-1.48,1.42,1.42,0,0,1,1.44-1.45,1.49,1.49,0,0,1,1.51,1.53A1.53,1.53,0,0,1,81.79,315.78Z"/><path class="cls-5" d="M68.81,309.23a1.47,1.47,0,0,1,.07-2.94,1.47,1.47,0,0,1-.07,2.94Z"/><path class="cls-5" d="M101.31,328.75a1.46,1.46,0,0,1-1.41-1.5,1.5,1.5,0,0,1,1.5-1.44,1.53,1.53,0,0,1,1.42,1.52A1.5,1.5,0,0,1,101.31,328.75Z"/><path class="cls-5" d="M31.34,301.44A1.44,1.44,0,1,1,30,299.88,1.46,1.46,0,0,1,31.34,301.44Z"/><path class="cls-5" d="M107.94,335.27a1.44,1.44,0,1,1-.09-2.88,1.44,1.44,0,1,1,.09,2.88Z"/><path class="cls-5" d="M44.33,301.35a1.44,1.44,0,0,1-2.88,0,1.44,1.44,0,1,1,2.88,0Z"/><path class="cls-5" d="M37.78,301.28a1.44,1.44,0,1,1-1.52-1.4A1.48,1.48,0,0,1,37.78,301.28Z"/><path class="cls-5" d="M22,301.32a1.46,1.46,0,0,1,1.37-1.43,1.49,1.49,0,0,1,1.47,1.45,1.47,1.47,0,0,1-1.49,1.42A1.45,1.45,0,0,1,22,301.32Z"/><path class="cls-5" d="M96.33,320.81a1.45,1.45,0,0,1-1.42,1.48,1.44,1.44,0,0,1,0-2.87A1.44,1.44,0,0,1,96.33,320.81Z"/><path class="cls-5" d="M50.84,301.29a1.42,1.42,0,0,1-1.42,1.47,1.44,1.44,0,0,1,0-2.87A1.44,1.44,0,0,1,50.84,301.29Z"/><path class="cls-5" d="M115.76,340.22a1.42,1.42,0,0,1-1.32,1.45,1.41,1.41,0,0,1-.21-2.81A1.42,1.42,0,0,1,115.76,340.22Z"/><path class="cls-5" d="M15.56,301.34A1.36,1.36,0,0,1,16.93,300a1.41,1.41,0,0,1,1.4,1.37,1.45,1.45,0,0,1-1.39,1.4A1.38,1.38,0,0,1,15.56,301.34Z"/><path class="cls-5" d="M75.45,306.38a1.35,1.35,0,0,1,1.31,1.44,1.37,1.37,0,0,1-1.43,1.33A1.44,1.44,0,0,1,74,307.7,1.41,1.41,0,0,1,75.45,306.38Z"/><path class="cls-5" d="M88.36,315.67A1.34,1.34,0,0,1,87,314.26a1.37,1.37,0,0,1,1.31-1.33,1.42,1.42,0,0,1,1.41,1.36A1.4,1.4,0,0,1,88.36,315.67Z"/><path class="cls-5" d="M55.87,300a1.34,1.34,0,0,1,1.36,1.38,1.37,1.37,0,0,1-1.36,1.39,1.44,1.44,0,0,1-1.4-1.39A1.41,1.41,0,0,1,55.87,300Z"/><path class="cls-5" d="M122.23,346.77a1.33,1.33,0,0,1-1.34,1.4,1.4,1.4,0,0,1-1.39-1.37,1.38,1.38,0,0,1,1.3-1.33A1.32,1.32,0,0,1,122.23,346.77Z"/><path class="cls-5" d="M11.7,301.28a1.28,1.28,0,0,1-1.24,1.35,1.31,1.31,0,1,1-.09-2.61A1.29,1.29,0,0,1,11.7,301.28Z"/><path class="cls-5" d="M62.45,302.63a1.28,1.28,0,0,1-1.35-1.23A1.3,1.3,0,0,1,62.43,300a1.31,1.31,0,1,1,0,2.61Z"/><path class="cls-5" d="M107.86,328.57a1.29,1.29,0,1,1,.08-2.57,1.26,1.26,0,0,1,1.25,1.33A1.25,1.25,0,0,1,107.86,328.57Z"/><path class="cls-5" d="M81.79,306.48a1.3,1.3,0,0,1,1.33,1.27A1.28,1.28,0,0,1,81.81,309a1.24,1.24,0,0,1-1.25-1.21A1.26,1.26,0,0,1,81.79,306.48Z"/><path class="cls-5" d="M115.6,333.87a1.29,1.29,0,0,1-1.34,1.26,1.34,1.34,0,0,1-1.22-1.28,1.3,1.3,0,0,1,1.3-1.3A1.26,1.26,0,0,1,115.6,333.87Z"/><path class="cls-5" d="M101.31,322.12a1.27,1.27,0,0,1,0-2.54,1.27,1.27,0,1,1,0,2.54Z"/><path class="cls-5" d="M4,302.59a1.22,1.22,0,0,1-1.26-1.19,1.24,1.24,0,0,1,1.23-1.34,1.32,1.32,0,0,1,1.29,1.2A1.3,1.3,0,0,1,4,302.59Z"/><path class="cls-5" d="M70.08,301.33a1.23,1.23,0,0,1-1.21,1.24,1.25,1.25,0,1,1,0-2.49A1.26,1.26,0,0,1,70.08,301.33Z"/><path class="cls-5" d="M119.65,340.32a1.19,1.19,0,0,1,1.18-1.27,1.25,1.25,0,0,1,1.31,1.17,1.27,1.27,0,0,1-1.21,1.28A1.21,1.21,0,0,1,119.65,340.32Z"/><path class="cls-5" d="M93.69,314.36a1.19,1.19,0,0,1,1.19-1.27,1.25,1.25,0,0,1,1.3,1.17A1.26,1.26,0,0,1,95,315.54,1.22,1.22,0,0,1,93.69,314.36Z"/><path class="cls-5" d="M36.3,296a1.2,1.2,0,1,1,.14-2.4,1.2,1.2,0,0,1-.14,2.4Z"/><path class="cls-5" d="M42.87,293.6a1.18,1.18,0,0,1,1.22,1.22,1.2,1.2,0,1,1-1.22-1.22Z"/><path class="cls-5" d="M30,296a1.18,1.18,0,1,1-.1-2.36A1.18,1.18,0,1,1,30,296Z"/><path class="cls-5" d="M89.56,307.74A1.23,1.23,0,0,1,88.43,309a1.19,1.19,0,1,1,0-2.37A1.2,1.2,0,0,1,89.56,307.74Z"/><path class="cls-5" d="M50.59,294.83a1.11,1.11,0,0,1-1.18,1.11,1.17,1.17,0,0,1-1.16-1.16,1.19,1.19,0,0,1,1.26-1.17A1.15,1.15,0,0,1,50.59,294.83Z"/><path class="cls-5" d="M23.37,293.61a1.18,1.18,0,0,1,1.17,1.15,1.16,1.16,0,0,1-1.24,1.18,1.12,1.12,0,0,1-1.09-1.19A1.13,1.13,0,0,1,23.37,293.61Z"/><path class="cls-5" d="M16.93,293.63a1.19,1.19,0,0,1,1.17,1.15,1.17,1.17,0,0,1-1.16,1.15,1.15,1.15,0,0,1,0-2.3Z"/><path class="cls-5" d="M57,294.83a1.1,1.1,0,0,1-1.11,1.08,1.17,1.17,0,0,1-1.15-1.18,1.2,1.2,0,0,1,1.14-1.09A1.13,1.13,0,0,1,57,294.83Z"/><path class="cls-5" d="M76.53,301.29a1.15,1.15,0,0,1-1.1,1.2,1.22,1.22,0,0,1-1.2-1.12,1.17,1.17,0,0,1,1.12-1.19A1.12,1.12,0,0,1,76.53,301.29Z"/><path class="cls-5" d="M128.45,346.77a1.17,1.17,0,0,1-1.1,1.21,1.22,1.22,0,0,1-1.2-1.12,1.17,1.17,0,0,1,1.11-1.19A1.12,1.12,0,0,1,128.45,346.77Z"/><path class="cls-5" d="M114.28,326.17a1.12,1.12,0,1,1,.11,2.24,1.11,1.11,0,0,1-1.17-1.12A1.09,1.09,0,0,1,114.28,326.17Z"/><path class="cls-5" d="M107.85,319.74a1.15,1.15,0,0,1,1.2,1.12A1.17,1.17,0,0,1,108,322a1.11,1.11,0,0,1-1.18-1.12A1.1,1.1,0,0,1,107.85,319.74Z"/><path class="cls-5" d="M101.34,313.21a1.13,1.13,0,0,1,1.1,1.08,1.14,1.14,0,0,1-1.07,1.12,1.1,1.1,0,0,1,0-2.2Z"/><path class="cls-5" d="M10.41,295.88a1.1,1.1,0,0,1-.05-2.2,1.14,1.14,0,0,1,1.11,1.08A1.13,1.13,0,0,1,10.41,295.88Z"/><path class="cls-5" d="M120.84,334.93a1.11,1.11,0,0,1-1-1.13,1.08,1.08,0,1,1,2.16.07A1.11,1.11,0,0,1,120.84,334.93Z"/><path class="cls-5" d="M63.49,294.78a1.08,1.08,0,1,1-2.16,0,1.13,1.13,0,0,1,1.08-1.1A1.11,1.11,0,0,1,63.49,294.78Z"/><path class="cls-5" d="M82.89,301.28a1.05,1.05,0,0,1-1,1.09,1.05,1.05,0,0,1-.22-2.09A1.07,1.07,0,0,1,82.89,301.28Z"/><path class="cls-5" d="M96,307.81a1.07,1.07,0,0,1-1.06,1,1,1,0,1,1,.09-2.06A1.08,1.08,0,0,1,96,307.81Z"/><path class="cls-5" d="M68.85,295.78a1,1,0,0,1-1-1,1,1,0,0,1,1.07-1,.94.94,0,0,1,.94.95A1,1,0,0,1,68.85,295.78Z"/><path class="cls-5" d="M127.3,339.28a1,1,0,0,1,1,1,1,1,0,0,1-1.05,1,1,1,0,0,1-1-.95A1,1,0,0,1,127.3,339.28Z"/><path class="cls-5" d="M4,293.79a1,1,0,0,1,1,1,1,1,0,0,1-1.09.94,1,1,0,0,1-.92-1A1,1,0,0,1,4,293.79Z"/><path class="cls-5" d="M89.31,301.28a1,1,0,0,1-.91,1,.91.91,0,0,1-.93-.82.9.9,0,0,1,.82-1A1,1,0,0,1,89.31,301.28Z"/><path class="cls-5" d="M43.83,288.31a1,1,0,0,1-.92,1,.9.9,0,0,1-.93-.83.92.92,0,0,1,.85-1A1,1,0,0,1,43.83,288.31Z"/><path class="cls-5" d="M36.33,287.42a.93.93,0,0,1,.07,1.85.93.93,0,0,1-1-.89A1,1,0,0,1,36.33,287.42Z"/><path class="cls-5" d="M30.81,288.34a.89.89,0,0,1-.93.93,1,1,0,0,1-.91-1,1,1,0,0,1,.9-.87A.88.88,0,0,1,30.81,288.34Z"/><path class="cls-5" d="M115.27,320.82a1,1,0,0,1-.92,1,.93.93,0,0,1-.08-1.86A1,1,0,0,1,115.27,320.82Z"/><path class="cls-5" d="M24.27,288.34a.93.93,0,0,1-.95.91.9.9,0,0,1-.84-.9.92.92,0,0,1,.83-.91A1,1,0,0,1,24.27,288.34Z"/><path class="cls-5" d="M75.38,295.68a.94.94,0,0,1-.9-1,1,1,0,0,1,.92-.84.92.92,0,0,1,.88,1A.89.89,0,0,1,75.38,295.68Z"/><path class="cls-5" d="M50.32,288.33a.89.89,0,0,1-.81.92.94.94,0,0,1-1-.88,1,1,0,0,1,.95-.93A.92.92,0,0,1,50.32,288.33Z"/><path class="cls-5" d="M108.81,314.31a.94.94,0,0,1-1,.9.9.9,0,0,1-.82-.91.91.91,0,0,1,.83-.9A1,1,0,0,1,108.81,314.31Z"/><path class="cls-5" d="M133.81,345.93a.94.94,0,0,1,1,.81.93.93,0,0,1-.92,1,.89.89,0,0,1,0-1.77Z"/><path class="cls-5" d="M121.76,327.28a.86.86,0,0,1-.84.9,1,1,0,0,1-1-.94.93.93,0,0,1,.93-.83A.84.84,0,0,1,121.76,327.28Z"/><path class="cls-5" d="M17.8,288.39a.93.93,0,0,1-.91.84.91.91,0,0,1-.82-.92.89.89,0,0,1,.9-.84A.91.91,0,0,1,17.8,288.39Z"/><path class="cls-5" d="M128.15,333.78a.83.83,0,1,1-1.66.11.85.85,0,0,1,.72-.89A.87.87,0,0,1,128.15,333.78Z"/><path class="cls-5" d="M55.86,287.5a.87.87,0,0,1,.85.89.89.89,0,0,1-.82.81.85.85,0,0,1,0-1.7Z"/><path class="cls-5" d="M102.19,307.87a.85.85,0,0,1-1,.7.81.81,0,0,1-.65-.92.8.8,0,0,1,1-.7A.85.85,0,0,1,102.19,307.87Z"/><path class="cls-5" d="M10.18,287.59c.65,0,1,.42,1,.82a.74.74,0,0,1-.78.69.68.68,0,0,1-.73-.81A2.22,2.22,0,0,1,10.18,287.59Z"/><path class="cls-5" d="M82.61,295a2.3,2.3,0,0,1-.71.55.68.68,0,0,1-.83-.71.69.69,0,0,1,.68-.76C82.2,294,82.59,294.32,82.61,295Z"/><path class="cls-5" d="M63.46,288.35c-.45.34-.69.64-1,.73s-.82-.3-.83-.73a.72.72,0,0,1,.83-.73A4.41,4.41,0,0,1,63.46,288.35Z"/><path class="cls-5" d="M95.91,301.34c-.43.32-.67.63-1,.72s-.8-.38-.75-.79a.66.66,0,0,1,.76-.66C95.24,300.66,95.49,301,95.91,301.34Z"/><path class="cls-5" d="M134.6,340.29a.7.7,0,0,1-.77.69.68.68,0,0,1-.69-.75.67.67,0,0,1,.75-.68A.7.7,0,0,1,134.6,340.29Z"/><path class="cls-5" d="M4.63,288.33a.66.66,0,0,1-.7.71c-.39,0-.79-.38-.66-.72a1.18,1.18,0,0,1,.64-.64C4.28,287.55,4.62,287.92,4.63,288.33Z"/><path class="cls-5" d="M68.84,287.41c.31.42.58.64.66.91s-.33.74-.7.69-.66-.3-.58-.68S68.55,287.83,68.84,287.41Z"/><path class="cls-5" d="M115.24,314.25c-.37.32-.57.62-.84.69s-.64-.14-.71-.53.25-.83.62-.75A3.69,3.69,0,0,1,115.24,314.25Z"/><path class="cls-5" d="M121.83,320.91c-.47.28-.72.54-1,.57a.57.57,0,0,1-.62-.66.56.56,0,0,1,.68-.58C121.17,320.3,121.39,320.58,121.83,320.91Z"/><path class="cls-5" d="M127.37,328.13c-.31-.35-.58-.52-.64-.75a.53.53,0,0,1,.54-.69c.42,0,.69.22.64.61S127.63,327.75,127.37,328.13Z"/><path class="cls-5" d="M108.76,307.72c-.36.29-.54.55-.78.62a.53.53,0,0,1-.69-.55c0-.41.23-.68.63-.61C108.16,307.22,108.37,307.46,108.76,307.72Z"/><path class="cls-5" d="M88.38,294c.26.4.54.64.51.83s-.34.39-.52.59c-.2-.2-.52-.38-.55-.59S88.1,294.35,88.38,294Z"/><path class="cls-5" d="M30.72,281.88c-.45.22-.69.43-.92.41s-.39-.36-.37-.54.33-.48.48-.46S30.33,281.58,30.72,281.88Z"/><path class="cls-5" d="M37.16,281.73c-.4.3-.6.55-.83.58s-.46-.29-.47-.46.23-.53.38-.54S36.71,281.51,37.16,281.73Z"/><path class="cls-5" d="M102.17,301.25c-.4.3-.6.56-.82.58s-.46-.28-.48-.45a.69.69,0,0,1,.38-.55C101.47,300.82,101.72,301,102.17,301.25Z"/><path class="cls-5" d="M141.22,346.74c-.4.3-.6.55-.82.58s-.46-.28-.48-.46.23-.53.38-.54S140.77,346.52,141.22,346.74Z"/><path class="cls-5" d="M42.92,282.56c-.26-.34-.52-.54-.54-.76s.29-.36.46-.53c.19.18.47.33.54.54S43.16,282.2,42.92,282.56Z"/><path class="cls-5" d="M75.33,289c-.2-.32-.44-.53-.42-.7a.73.73,0,0,1,.48-.47.43.43,0,0,1,.51.54C75.86,288.61,75.6,288.76,75.33,289Z"/><path class="cls-5" d="M50,281.77c-.21.21-.38.51-.49.48s-.38-.27-.57-.42c.17-.17.32-.41.52-.48S49.78,281.59,50,281.77Z"/><path class="cls-5" d="M24.07,281.78c-.35.24-.54.46-.74.47s-.39-.27-.4-.43.24-.47.36-.47S23.7,281.56,24.07,281.78Z"/><path class="cls-5" d="M133.91,334.47c-.24-.27-.5-.45-.47-.57a.79.79,0,0,1,.43-.5c.09,0,.43.24.43.37S134.1,334.16,133.91,334.47Z"/><path class="cls-5" d="M56.44,281.81c-.28.18-.44.35-.61.35s-.25-.2-.38-.31c.13-.15.25-.38.4-.41S56.17,281.63,56.44,281.81Z"/><path class="cls-5" d="M16.92,281.27l.43.55a1.44,1.44,0,0,1-.48.35c-.08,0-.33-.23-.32-.33S16.74,281.52,16.92,281.27Z"/><path class="cls-5" d="M81.88,288.84c-.18-.22-.33-.34-.36-.48s.16-.33.22-.32.38.13.42.25S82,288.58,81.88,288.84Z"/><path class="cls-5" d="M140.91,340.29c-.25.15-.42.33-.54.3s-.24-.25-.27-.4.21-.27.3-.25S140.68,340.12,140.91,340.29Z"/><path class="cls-5" d="M62.88,282c-.29.07-.46.16-.6.12s-.22-.28-.19-.32.27-.27.4-.26S62.69,281.73,62.88,282Z"/><path class="cls-5" d="M10.88,281.75c-.23.18-.34.33-.49.37s-.31-.16-.3-.23.13-.37.24-.39S10.62,281.62,10.88,281.75Z"/><path class="cls-5" d="M95.43,294.77c-.24.17-.39.36-.51.34s-.26-.23-.31-.38.19-.28.28-.27A1.75,1.75,0,0,1,95.43,294.77Z"/><path class="cls-5" d="M121.38,314.31c-.24.16-.4.35-.52.33s-.25-.24-.29-.39.2-.28.29-.27S121.14,314.15,121.38,314.31Z"/><path class="cls-5" d="M127.26,320.43c.16.21.32.33.31.42s-.18.21-.3.27-.2-.14-.2-.21A1.75,1.75,0,0,1,127.26,320.43Z"/><path class="cls-5" d="M114.74,307.72c-.2.16-.32.32-.41.3s-.21-.17-.25-.3.13-.21.2-.21S114.52,307.61,114.74,307.72Z"/></g></g><path class="cls-9" d="M213.73,16.05h-7.68L189.52,51a16.18,16.18,0,0,1-14.63,9.26H67A16.17,16.17,0,0,1,52.38,51L35.85,16.05H28.17a8.33,8.33,0,0,0-8.33,8.33V316.49a8.33,8.33,0,0,0,8.33,8.33H60l8.85-18.69a12.29,12.29,0,0,1,11.12-7h82a12.29,12.29,0,0,1,11.12,7l8.85,18.69h31.81a8.33,8.33,0,0,0,8.33-8.33V24.38A8.33,8.33,0,0,0,213.73,16.05Z"/><path class="cls-10" d="M213.73,16.05h-7.68L189.52,51a16.18,16.18,0,0,1-14.63,9.26H67A16.17,16.17,0,0,1,52.38,51L35.85,16.05H28.17a8.33,8.33,0,0,0-8.33,8.33V316.49a8.33,8.33,0,0,0,8.33,8.33H60l8.85-18.69a12.29,12.29,0,0,1,11.12-7h82a12.29,12.29,0,0,1,11.12,7l8.85,18.69h31.81a8.33,8.33,0,0,0,8.33-8.33V24.38A8.33,8.33,0,0,0,213.73,16.05Z"/><text class="cls-11" transform="translate(61.54 154.39)">Clear the <tspan x="-30.55" y="36">number order </tspan><tspan x="-24.46" y="72">from (21-30)</tspan></text><path class="cls-1" d="M189.52,51,203,22.42l-37.8,37.8h9.66A16.18,16.18,0,0,0,189.52,51Z"/><path class="cls-12" d="M222.06,24.38a8.33,8.33,0,0,0-8.33-8.33h-7.68l-3,6.37L189.52,51a16.18,16.18,0,0,1-14.63,9.26h-9.66L19.84,205.61V290L222.06,87.74Z"/><polygon class="cls-12" points="85.11 60.22 19.84 125.49 19.84 149.49 109.11 60.22 85.11 60.22"/><polygon class="cls-13" points="206.05 16.05 203.03 22.42 205.94 16.28 206.05 16.05"/><path class="cls-14" d="M120.74,47.44a3.48,3.48,0,0,1-.49-.67q-3.44-8.52-6.86-17.05a.83.83,0,0,0-.44-.48,4.49,4.49,0,0,1-1.86-6.42,1,1,0,0,0,.11-.58A4.49,4.49,0,0,1,112.73,18a.67.67,0,0,0,.22-.33,6.22,6.22,0,0,1,3.68-4.57,8.81,8.81,0,0,1,9.41.8,5.89,5.89,0,0,1,2.29,3.27.66.66,0,0,0,.26.33,4.55,4.55,0,0,1,2.24,5.07.75.75,0,0,0,.08.48A4.43,4.43,0,0,1,129,29.23a.83.83,0,0,0-.47.5q-3.43,8.54-6.88,17.08a3,3,0,0,1-.47.63Zm8.78-25.85a3.16,3.16,0,0,0-1.87-3,1,1,0,0,1-.63-.75A4.44,4.44,0,0,0,125.2,15a7.54,7.54,0,0,0-8.22-.63,4.88,4.88,0,0,0-2.88,3.83,1.16,1.16,0,0,1-.44.66,3.08,3.08,0,0,0-1.18,3.47,1,1,0,0,1-.2,1,3,3,0,0,0-.65,2.28,3.14,3.14,0,0,0,3.86,2.73,6.43,6.43,0,0,0,1.46-.73.64.64,0,0,1,1,.24c.05.07.08.14.13.21a3.16,3.16,0,0,0,5.47,0c.52-.89.74-.93,1.55-.27l.08.07a3,3,0,0,0,4.26-4.13,1.19,1.19,0,0,1-.12-1.14A5.69,5.69,0,0,0,129.52,21.59Zm-8.77,16.1,2.39-2.59-2.39-2.52-2.39,2.52Zm.93-6.11,2.39,2.52,2.25-2.45-2.07-2.2a6.77,6.77,0,0,1-1.14.87A5.74,5.74,0,0,0,121.68,31.58Zm-4.25,2.52,2.42-2.55c-.45-.38-.85-.74-1.28-1.09s-.87-.65-1.33-1l-1.77,1.89a.27.27,0,0,0,0,.21,2.37,2.37,0,0,0,.33.72C116.29,32.89,116.85,33.48,117.43,34.1ZM120.87,45l.2-.44c.3-.72.54-1.47.9-2.16a1.2,1.2,0,0,0-.3-1.73,10.08,10.08,0,0,1-.92-1c-.45.49-.86.93-1.26,1.39a.34.34,0,0,0-.06.29C119.89,42.56,120.37,43.75,120.87,45Zm2.06-5c.06-.13.11-.23.15-.34.4-1,.78-2,1.19-3a.42.42,0,0,0-.23-.64l-2.36,2.56Zm-3.11-1.32L117.42,36a17,17,0,0,0,1.38,3.75Zm6.57-8.95.46.52.19-.44Z"/><path class="cls-15" d="M120.16,14.6a.63.63,0,0,1,.71.51.66.66,0,0,1-.43.77c-.45.18-.93.33-1.37.54A3.8,3.8,0,0,0,116.93,19c-.12.48-.46.71-.85.61s-.57-.46-.46-.95A5.53,5.53,0,0,1,120,14.62.79.79,0,0,1,120.16,14.6Z"/><path class="cls-16" d="M127.91,23.08a1,1,0,0,1,0,.27.64.64,0,0,1-.67.52.57.57,0,0,1-.61-.58,2.06,2.06,0,0,0-1.26-2,.63.63,0,0,1-.32-.87.68.68,0,0,1,.91-.32A3.25,3.25,0,0,1,127.91,23.08Z"/><g class="cls-17"><g class="cls-4"><path class="cls-5" d="M240.79,346.77a1.91,1.91,0,0,1-1.88,1.91,1.84,1.84,0,0,1-1.82-1.82,1.82,1.82,0,0,1,1.73-1.9A1.88,1.88,0,0,1,240.79,346.77Z"/><path class="cls-5" d="M240.66,340.22A1.76,1.76,0,0,1,239,342a1.77,1.77,0,0,1-.09-3.53A1.76,1.76,0,0,1,240.66,340.22Z"/><path class="cls-5" d="M234.11,346.79a1.74,1.74,0,0,1-1.73,1.74,1.72,1.72,0,0,1-.06-3.44A1.77,1.77,0,0,1,234.11,346.79Z"/><path class="cls-5" d="M238.89,332.21a1.62,1.62,0,1,1,.07,3.24,1.62,1.62,0,0,1-.07-3.24Z"/><path class="cls-5" d="M232.33,341.87a1.61,1.61,0,1,1,.14-3.21,1.61,1.61,0,0,1-.14,3.21Z"/><path class="cls-5" d="M226,348.36a1.55,1.55,0,1,1-.06-3.09,1.55,1.55,0,1,1,.06,3.09Z"/><path class="cls-5" d="M238.94,328.76a1.52,1.52,0,0,1-1.51-1.42A1.54,1.54,0,0,1,239,325.8a1.47,1.47,0,0,1,1.42,1.49A1.45,1.45,0,0,1,238.94,328.76Z"/><path class="cls-5" d="M232.34,335.3a1.45,1.45,0,0,1-1.43-1.48,1.43,1.43,0,0,1,1.45-1.44,1.49,1.49,0,0,1,1.51,1.52A1.51,1.51,0,0,1,232.34,335.3Z"/><path class="cls-5" d="M226,341.71a1.43,1.43,0,0,1-1.46-1.44,1.42,1.42,0,0,1,1.44-1.44,1.45,1.45,0,0,1,1.48,1.43A1.47,1.47,0,0,1,226,341.71Z"/><path class="cls-5" d="M218,346.83a1.34,1.34,0,0,1,1.36-1.39,1.4,1.4,0,0,1,1.4,1.36,1.43,1.43,0,0,1-1.38,1.4A1.37,1.37,0,0,1,218,346.83Z"/><path class="cls-5" d="M233.7,327.29a1.33,1.33,0,1,1-1.3-1.31A1.3,1.3,0,0,1,233.7,327.29Z"/><path class="cls-5" d="M225.91,332.52a1.32,1.32,0,0,1,.07,2.63,1.32,1.32,0,0,1-.07-2.63Z"/><path class="cls-5" d="M238.92,322.14a1.29,1.29,0,1,1,0-2.58,1.29,1.29,0,1,1,0,2.58Z"/><path class="cls-5" d="M220.64,340.24a1.24,1.24,0,0,1-1.19,1.29,1.3,1.3,0,0,1-1.33-1.29,1.27,1.27,0,0,1,1.27-1.22A1.21,1.21,0,0,1,220.64,340.24Z"/><path class="cls-5" d="M214,346.84a1.17,1.17,0,0,1-1.16,1.16,1.23,1.23,0,0,1-1.19-1.15,1.21,1.21,0,0,1,1.23-1.22A1.18,1.18,0,0,1,214,346.84Z"/><path class="cls-5" d="M232.36,322a1.22,1.22,0,0,1-1.16-1.18,1.18,1.18,0,0,1,1.18-1.13,1.12,1.12,0,0,1,1.13,1.16A1.15,1.15,0,0,1,232.36,322Z"/><path class="cls-5" d="M227.08,327.29a1.15,1.15,0,0,1-1.15,1.16,1.22,1.22,0,0,1-1.16-1.17,1.18,1.18,0,0,1,1.17-1.14A1.13,1.13,0,0,1,227.08,327.29Z"/><path class="cls-5" d="M238.87,315.43a1.14,1.14,0,0,1-1.05-1.14,1.12,1.12,0,0,1,1.09-1.1,1.12,1.12,0,1,1,0,2.24Z"/><path class="cls-5" d="M219.43,332.71a1.17,1.17,0,0,1,1.08,1.13A1.15,1.15,0,0,1,219.3,335a1.12,1.12,0,0,1-1-1.18A1.13,1.13,0,0,1,219.43,332.71Z"/><path class="cls-5" d="M212.82,339.2a1.09,1.09,0,0,1,1.09,1.1,1.12,1.12,0,0,1-1,1,1.05,1.05,0,0,1-1.07-1.1A1,1,0,0,1,212.82,339.2Z"/><path class="cls-5" d="M207.35,346.76a1,1,0,0,1-.86,1,1,1,0,1,1-.1-1.93A1,1,0,0,1,207.35,346.76Z"/><path class="cls-5" d="M226,321.82a1,1,0,1,1,.91-1A1,1,0,0,1,226,321.82Z"/><path class="cls-5" d="M232.37,315.23a.93.93,0,0,1-.93-1,1,1,0,0,1,1-.9.91.91,0,0,1,.86.89A.89.89,0,0,1,232.37,315.23Z"/><path class="cls-5" d="M219.39,328.22a.91.91,0,0,1-.9-1,.89.89,0,0,1,.86-.89.93.93,0,1,1,0,1.86Z"/><path class="cls-5" d="M212.9,333a.91.91,0,0,1,.81.93.89.89,0,0,1-.91.83.91.91,0,0,1-.82-.93A.93.93,0,0,1,212.9,333Z"/><path class="cls-5" d="M239.79,307.8a.87.87,0,0,1-.91.81.85.85,0,1,1,.09-1.7A.85.85,0,0,1,239.79,307.8Z"/><path class="cls-5" d="M207.2,340.27a.77.77,0,0,1-.84.74.75.75,0,0,1,0-1.49A.76.76,0,0,1,207.2,340.27Z"/><path class="cls-5" d="M219.57,320.15a2.16,2.16,0,0,1,.52.72c.1.33-.35.73-.72.69a.66.66,0,0,1-.66-.65C218.68,320.5,219,320.17,219.57,320.15Z"/><path class="cls-5" d="M226.62,314.32c0,.42-.34.78-.72.65a1.16,1.16,0,0,1-.64-.63c-.12-.34.28-.72.67-.73A.67.67,0,0,1,226.62,314.32Z"/><path class="cls-5" d="M233.32,307.69c-.43.35-.65.64-.91.7a.58.58,0,0,1-.7-.59c0-.4.22-.7.61-.65S232.85,307.42,233.32,307.69Z"/><path class="cls-5" d="M211.9,327.23c.46-.27.71-.53,1-.56s.63.24.6.66-.3.67-.68.58S212.32,327.56,211.9,327.23Z"/><path class="cls-5" d="M200.73,346.8c-.37.28-.56.53-.8.59a.58.58,0,1,1,0-1.16C200.15,346.28,200.35,346.53,200.73,346.8Z"/><path class="cls-5" d="M207.26,333.85c-.4.27-.62.51-.86.54s-.54-.21-.54-.57a.49.49,0,0,1,.57-.54C206.67,333.33,206.87,333.57,207.26,333.85Z"/><path class="cls-5" d="M239.75,301.35c-.41.26-.65.54-.85.51s-.38-.35-.57-.55c.2-.18.39-.49.6-.52S239.36,301.06,239.75,301.35Z"/><path class="cls-5" d="M220,314.28c-.22.19-.38.42-.52.42a.4.4,0,0,1-.05-.79C219.52,313.89,219.7,314.11,220,314.28Z"/><path class="cls-5" d="M200.43,340.3c-.26.17-.43.38-.58.36a.59.59,0,0,1-.36-.42.57.57,0,0,1,.41-.37C200.05,339.88,200.2,340.1,200.43,340.3Z"/><path class="cls-5" d="M212.87,321.33c-.16-.23-.31-.35-.34-.49s.18-.31.24-.29a.54.54,0,0,1,.4.27C213.2,320.92,213,321.09,212.87,321.33Z"/><path class="cls-5" d="M226,308.23c-.17-.22-.32-.34-.34-.48s.18-.31.24-.3.36.15.39.27S226.12,308,226,308.23Z"/><path class="cls-5" d="M206.91,327.41c-.19.06-.33.16-.45.14s-.19-.15-.28-.24a1.53,1.53,0,0,1,.3-.27S206.62,327.16,206.91,327.41Z"/><path class="cls-5" d="M232.72,301.32c-.14.12-.23.24-.35.28s-.15-.12-.24-.18a1.37,1.37,0,0,1,.27-.31S232.57,301.22,232.72,301.32Z"/></g></g></g></g></svg>