<svg xmlns="http://www.w3.org/2000/svg" xmlns:xlink="http://www.w3.org/1999/xlink" viewBox="0 0 241.9 353.5"><defs><style>.cls-1,.cls-9{fill:none;}.cls-2{isolation:isolate;}.cls-3{fill:url(#linear-gradient);}.cls-4{fill:url(#linear-gradient-2);}.cls-5{clip-path:url(#clip-path);}.cls-6{opacity:0.28;mix-blend-mode:overlay;}.cls-11,.cls-7{fill:#fff;}.cls-8{fill:url(#linear-gradient-3);}.cls-9{stroke-linecap:round;stroke-linejoin:round;stroke-width:2px;stroke:url(#linear-gradient-4);}.cls-10{font-size:30px;fill:#f5cb16;font-family:Roboto-Regular, Roboto;}.cls-11{opacity:0.16;mix-blend-mode:hard-light;}.cls-12{fill:url(#linear-gradient-5);}.cls-13{fill:url(#linear-gradient-6);}.cls-14{clip-path:url(#clip-path-2);}</style><linearGradient id="linear-gradient" x1="-20.38" y1="35.49" x2="262.28" y2="318.16" gradientUnits="userSpaceOnUse"><stop offset="0" stop-color="#fff"/><stop offset="0.5" stop-color="#e5e5e5"/><stop offset="1" stop-color="#c7c7c7"/></linearGradient><linearGradient id="linear-gradient-2" x1="120.95" y1="1.08" x2="120.95" y2="352.26" gradientUnits="userSpaceOnUse"><stop offset="0" stop-color="#f5cb16"/><stop offset="0.28" stop-color="#fef687"/><stop offset="0.34" stop-color="#f5e063"/><stop offset="0.42" stop-color="#ebc83c"/><stop offset="0.48" stop-color="#e5b924"/><stop offset="0.52" stop-color="#e3b31b"/><stop offset="0.65" stop-color="#f0d24e"/><stop offset="0.79" stop-color="#fff585"/><stop offset="0.87" stop-color="#fbe254"/><stop offset="0.96" stop-color="#f7d227"/><stop offset="1" stop-color="#f5cb16"/></linearGradient><clipPath id="clip-path"><path class="cls-1" d="M230.44,263.08V90.57A11.38,11.38,0,0,1,234,82.31a17.53,17.53,0,0,0,5.35-12.7V23.5A17.73,17.73,0,0,0,221.6,5.77H20.3A17.73,17.73,0,0,0,2.56,23.5V69.61a17.54,17.54,0,0,0,5.36,12.7,11.38,11.38,0,0,1,3.54,8.26V263.08a11.38,11.38,0,0,1-3.54,8.26A17.54,17.54,0,0,0,2.56,284v46.11A17.73,17.73,0,0,0,20.3,347.88H221.6a17.73,17.73,0,0,0,17.73-17.73V284a17.53,17.53,0,0,0-5.35-12.7A11.38,11.38,0,0,1,230.44,263.08Z"/></clipPath><linearGradient id="linear-gradient-3" x1="-4.36" y1="51.52" x2="246.26" y2="302.13" gradientUnits="userSpaceOnUse"><stop offset="0" stop-color="#8c0f02"/><stop offset="1" stop-color="#ff1124"/></linearGradient><linearGradient id="linear-gradient-4" x1="-5.06" y1="50.81" x2="246.96" y2="302.84" gradientUnits="userSpaceOnUse"><stop offset="0" stop-color="#c7c7c7"/><stop offset="0.5" stop-color="#e5e5e5"/><stop offset="1" stop-color="#fff"/></linearGradient><linearGradient id="linear-gradient-5" x1="113.04" y1="-65.88" x2="363.65" y2="184.74" xlink:href="#linear-gradient"/><linearGradient id="linear-gradient-6" x1="105.05" y1="36.16" x2="136.84" y2="36.16" xlink:href="#linear-gradient-3"/><clipPath id="clip-path-2"><path class="cls-1" d="M299.63,660.41V487.9a11.38,11.38,0,0,1,3.54-8.26,17.54,17.54,0,0,0,5.36-12.7V420.83a17.74,17.74,0,0,0-17.74-17.74H89.49a17.74,17.74,0,0,0-17.73,17.74v46.11a17.53,17.53,0,0,0,5.35,12.7,11.38,11.38,0,0,1,3.54,8.26V660.41a11.38,11.38,0,0,1-3.54,8.26,17.53,17.53,0,0,0-5.35,12.7v46.1a17.73,17.73,0,0,0,17.73,17.74h201.3a17.74,17.74,0,0,0,17.74-17.74v-46.1a17.54,17.54,0,0,0-5.36-12.7A11.38,11.38,0,0,1,299.63,660.41Z"/></clipPath></defs><g class="cls-2"><g id="Layer_1" data-name="Layer 1"><path class="cls-3" d="M221.6,350.45H20.3A20.33,20.33,0,0,1,0,330.15V284a20.14,20.14,0,0,1,6.15-14.55,8.79,8.79,0,0,0,2.74-6.41V90.57a8.79,8.79,0,0,0-2.74-6.41A20.16,20.16,0,0,1,0,69.61V23.5A20.33,20.33,0,0,1,20.3,3.2H221.6a20.33,20.33,0,0,1,20.3,20.3V69.61a20.16,20.16,0,0,1-6.15,14.55A8.8,8.8,0,0,0,233,90.57V263.08a8.8,8.8,0,0,0,2.75,6.41A20.14,20.14,0,0,1,241.9,284v46.11A20.33,20.33,0,0,1,221.6,350.45ZM20.3,8.33A15.19,15.19,0,0,0,5.13,23.5V69.61A15,15,0,0,0,9.69,80.45,13.88,13.88,0,0,1,14,90.57V263.08A13.88,13.88,0,0,1,9.69,273.2,15,15,0,0,0,5.13,284v46.11A15.19,15.19,0,0,0,20.3,345.32H221.6a15.19,15.19,0,0,0,15.17-15.17V284a15,15,0,0,0-4.56-10.84,13.88,13.88,0,0,1-4.33-10.12V90.57a13.88,13.88,0,0,1,4.33-10.12,15,15,0,0,0,4.56-10.84V23.5A15.19,15.19,0,0,0,221.6,8.33Z"/><path class="cls-4" d="M230.44,263.08V90.57A11.38,11.38,0,0,1,234,82.31a17.53,17.53,0,0,0,5.35-12.7V23.5A17.73,17.73,0,0,0,221.6,5.77H20.3A17.73,17.73,0,0,0,2.56,23.5V69.61a17.54,17.54,0,0,0,5.36,12.7,11.38,11.38,0,0,1,3.54,8.26V263.08a11.38,11.38,0,0,1-3.54,8.26A17.54,17.54,0,0,0,2.56,284v46.11A17.73,17.73,0,0,0,20.3,347.88H221.6a17.73,17.73,0,0,0,17.73-17.73V284a17.53,17.53,0,0,0-5.35-12.7A11.38,11.38,0,0,1,230.44,263.08Z"/><g class="cls-5"><g class="cls-6"><path class="cls-7" d="M181.07,0a2.77,2.77,0,0,1-2.78,2.77A2.83,2.83,0,0,1,175.53,0a2.81,2.81,0,0,1,2.81-2.76A2.75,2.75,0,0,1,181.07,0Z"/><path class="cls-7" d="M171.92-2.76A2.73,2.73,0,0,1,174.63,0a2.77,2.77,0,0,1-2.79,2.74A2.82,2.82,0,0,1,169.11,0,2.78,2.78,0,0,1,171.92-2.76Z"/><path class="cls-7" d="M182.13,0a2.69,2.69,0,0,1,2.81-2.7A2.76,2.76,0,0,1,187.64,0a2.81,2.81,0,0,1-2.79,2.78A2.73,2.73,0,0,1,182.13,0Z"/><path class="cls-7" d="M165.34,2.73a2.7,2.7,0,0,1-2.72-2.79,2.67,2.67,0,0,1,2.72-2.66A2.74,2.74,0,0,1,168.09.06,2.76,2.76,0,0,1,165.34,2.73Z"/><path class="cls-7" d="M194.13,0a2.68,2.68,0,0,1-2.67,2.7A2.73,2.73,0,0,1,188.67,0a2.73,2.73,0,0,1,2.69-2.7A2.68,2.68,0,0,1,194.13,0Z"/><path class="cls-7" d="M195.16,0a2.67,2.67,0,0,1,2.7-2.67A2.67,2.67,0,0,1,200.53,0a2.65,2.65,0,0,1-2.69,2.66A2.65,2.65,0,0,1,195.16,0Z"/><path class="cls-7" d="M161.58.1a2.64,2.64,0,0,1-2.78,2.57,2.66,2.66,0,0,1-2.58-2.78A2.66,2.66,0,0,1,159-2.67,2.64,2.64,0,0,1,161.58.1Z"/><path class="cls-7" d="M178.31,3.78a2.65,2.65,0,1,1,0,5.29,2.6,2.6,0,0,1-2.64-2.68A2.62,2.62,0,0,1,178.31,3.78Z"/><path class="cls-7" d="M171.87,3.78a2.65,2.65,0,1,1,0,5.29,2.6,2.6,0,0,1-2.64-2.68A2.61,2.61,0,0,1,171.87,3.78Z"/><path class="cls-7" d="M187.49,6.5a2.6,2.6,0,0,1-2.66,2.57,2.67,2.67,0,0,1-2.62-2.65A2.69,2.69,0,0,1,185,3.79,2.63,2.63,0,0,1,187.49,6.5Z"/><path class="cls-7" d="M152.31,2.63A2.61,2.61,0,0,1,149.74,0a2.63,2.63,0,0,1,2.61-2.62A2.69,2.69,0,0,1,155,.08,2.69,2.69,0,0,1,152.31,2.63Z"/><path class="cls-7" d="M188.8,6.44a2.62,2.62,0,0,1,2.61-2.64,2.69,2.69,0,0,1,2.64,2.63,2.66,2.66,0,0,1-2.63,2.62A2.6,2.6,0,0,1,188.8,6.44Z"/><path class="cls-7" d="M168,6.43a2.6,2.6,0,0,1-2.61,2.62,2.66,2.66,0,0,1-2.64-2.62,2.69,2.69,0,0,1,2.63-2.63A2.62,2.62,0,0,1,168,6.43Z"/><path class="cls-7" d="M207,0a2.6,2.6,0,0,1-2.62,2.61A2.67,2.67,0,0,1,201.75,0a2.68,2.68,0,0,1,2.65-2.62A2.62,2.62,0,0,1,207,0Z"/><path class="cls-7" d="M161.49,6.39a2.58,2.58,0,1,1-2.57-2.55A2.61,2.61,0,0,1,161.49,6.39Z"/><path class="cls-7" d="M197.81,3.84a2.6,2.6,0,1,1-2.54,2.68A2.6,2.6,0,0,1,197.81,3.84Z"/><path class="cls-7" d="M148.47,0a2.56,2.56,0,0,1-2.55,2.53A2.6,2.6,0,0,1,143.36,0,2.61,2.61,0,0,1,146-2.57,2.55,2.55,0,0,1,148.47,0Z"/><path class="cls-7" d="M208.29-.06a2.53,2.53,0,0,1,2.59-2.49,2.58,2.58,0,0,1,2.5,2.61,2.6,2.6,0,0,1-2.61,2.5A2.55,2.55,0,0,1,208.29-.06Z"/><path class="cls-7" d="M154.87,6.44A2.5,2.5,0,0,1,152.33,9a2.57,2.57,0,0,1-2.51-2.59,2.53,2.53,0,0,1,2.51-2.45A2.47,2.47,0,0,1,154.87,6.44Z"/><path class="cls-7" d="M180.83,13a2.49,2.49,0,0,1-2.54,2.53,2.53,2.53,0,0,1,0-5.05A2.51,2.51,0,0,1,180.83,13Z"/><path class="cls-7" d="M184.82,10.45A2.58,2.58,0,0,1,187.4,13a2.55,2.55,0,0,1-2.49,2.5,2.49,2.49,0,0,1-2.55-2.41A2.53,2.53,0,0,1,184.82,10.45Z"/><path class="cls-7" d="M174.39,13a2.5,2.5,0,0,1-2.47,2.5,2.53,2.53,0,1,1-.07-5.05A2.51,2.51,0,0,1,174.39,13Z"/><path class="cls-7" d="M201.89,6.39a2.46,2.46,0,0,1,2.48-2.46,2.54,2.54,0,0,1,2.56,2.54A2.58,2.58,0,0,1,204.41,9,2.49,2.49,0,0,1,201.89,6.39Z"/><path class="cls-7" d="M162.85,13a2.51,2.51,0,0,1,2.46-2.51,2.51,2.51,0,1,1,0,5A2.49,2.49,0,0,1,162.85,13Z"/><path class="cls-7" d="M193.9,13a2.5,2.5,0,0,1-2.47,2.49,2.51,2.51,0,1,1,0-5A2.51,2.51,0,0,1,193.9,13Z"/><path class="cls-7" d="M139.38,2.45A2.43,2.43,0,0,1,136.91,0a2.44,2.44,0,0,1,2.47-2.46A2.46,2.46,0,0,1,141.86,0,2.44,2.44,0,0,1,139.38,2.45Z"/><path class="cls-7" d="M158.85,10.5a2.48,2.48,0,1,1-2.41,2.56A2.48,2.48,0,0,1,158.85,10.5Z"/><path class="cls-7" d="M145.89,4a2.45,2.45,0,1,1-2.42,2.51A2.44,2.44,0,0,1,145.89,4Z"/><path class="cls-7" d="M217.35-2.45A2.45,2.45,0,0,1,219.84,0a2.44,2.44,0,0,1-2.5,2.43A2.42,2.42,0,0,1,214.91.05,2.43,2.43,0,0,1,217.35-2.45Z"/><path class="cls-7" d="M195.4,13a2.45,2.45,0,1,1,4.9,0,2.45,2.45,0,0,1-4.9,0Z"/><path class="cls-7" d="M210.82,4a2.39,2.39,0,0,1,2.43,2.37,2.39,2.39,0,0,1-2.42,2.49,2.43,2.43,0,1,1,0-4.86Z"/><path class="cls-7" d="M175.93,19.55a2.4,2.4,0,0,1,2.37-2.43,2.41,2.41,0,1,1,0,4.81A2.39,2.39,0,0,1,175.93,19.55Z"/><path class="cls-7" d="M152.45,10.58a2.41,2.41,0,1,1-.18,4.81,2.39,2.39,0,0,1-2.3-2.5A2.36,2.36,0,0,1,152.45,10.58Z"/><path class="cls-7" d="M204.38,10.6a2.34,2.34,0,0,1,2.4,2.37,2.38,2.38,0,0,1-2.38,2.41A2.44,2.44,0,0,1,202,13,2.41,2.41,0,0,1,204.38,10.6Z"/><path class="cls-7" d="M187.24,19.52a2.38,2.38,0,0,1-2.4,2.4,2.4,2.4,0,0,1,0-4.8A2.4,2.4,0,0,1,187.24,19.52Z"/><path class="cls-7" d="M169.51,19.51a2.4,2.4,0,0,1,2.42-2.39,2.47,2.47,0,0,1,2.36,2.37,2.43,2.43,0,0,1-2.39,2.43A2.38,2.38,0,0,1,169.51,19.51Z"/><path class="cls-7" d="M223.86,2.38A2.4,2.4,0,0,1,221.44.11a2.4,2.4,0,0,1,2.31-2.49A2.42,2.42,0,0,1,226.18,0,2.43,2.43,0,0,1,223.86,2.38Z"/><path class="cls-7" d="M217.38,8.81a2.38,2.38,0,1,1,2.36-2.33A2.39,2.39,0,0,1,217.38,8.81Z"/><path class="cls-7" d="M193.78,19.69a2.37,2.37,0,1,1-2.26-2.54A2.4,2.4,0,0,1,193.78,19.69Z"/><path class="cls-7" d="M165.35,17.14A2.38,2.38,0,1,1,163,19.46,2.4,2.4,0,0,1,165.35,17.14Z"/><path class="cls-7" d="M132.87-2.39A2.44,2.44,0,0,1,135.22.06a2.41,2.41,0,0,1-2.48,2.32A2.39,2.39,0,0,1,130.46,0,2.4,2.4,0,0,1,132.87-2.39Z"/><path class="cls-7" d="M141.75,6.43a2.39,2.39,0,0,1-2.4,2.39A2.43,2.43,0,0,1,137,6.49,2.44,2.44,0,0,1,139.35,4,2.4,2.4,0,0,1,141.75,6.43Z"/><path class="cls-7" d="M197.81,21.87a2.35,2.35,0,0,1,.06-4.69,2.35,2.35,0,0,1-.06,4.69Z"/><path class="cls-7" d="M158.9,21.87a2.35,2.35,0,0,1,0-4.69,2.35,2.35,0,0,1,0,4.69Z"/><path class="cls-7" d="M145.91,15.3a2.31,2.31,0,0,1-2.33-2.3,2.34,2.34,0,1,1,4.68,0A2.28,2.28,0,0,1,145.91,15.3Z"/><path class="cls-7" d="M210.85,10.66a2.32,2.32,0,1,1,0,4.63,2.32,2.32,0,1,1,0-4.63Z"/><path class="cls-7" d="M139.33,10.69a2.29,2.29,0,0,1,.15,4.57,2.29,2.29,0,0,1-.15-4.57Z"/><path class="cls-7" d="M135.1,6.49a2.26,2.26,0,0,1-2.27,2.23,2.33,2.33,0,0,1-2.3-2.35,2.3,2.3,0,0,1,2.3-2.21A2.23,2.23,0,0,1,135.1,6.49Z"/><path class="cls-7" d="M154.63,19.54a2.25,2.25,0,0,1-2.23,2.27,2.28,2.28,0,1,1,0-4.56A2.25,2.25,0,0,1,154.63,19.54Z"/><path class="cls-7" d="M204.46,17.27a2.26,2.26,0,0,1-.08,4.52,2.26,2.26,0,1,1,.08-4.52Z"/><path class="cls-7" d="M126.44-2.26A2.22,2.22,0,0,1,128.66,0a2.23,2.23,0,0,1-2.25,2.25,2.29,2.29,0,0,1-2.3-2.33A2.29,2.29,0,0,1,126.44-2.26Z"/><path class="cls-7" d="M226.06,6.38a2.24,2.24,0,0,1-2.18,2.32,2.27,2.27,0,1,1-.1-4.53A2.22,2.22,0,0,1,226.06,6.38Z"/><path class="cls-7" d="M184.81,28.19a2.24,2.24,0,1,1,.11-4.47,2.24,2.24,0,1,1-.11,4.47Z"/><path class="cls-7" d="M180.57,26a2.23,2.23,0,0,1-2.27,2.24,2.25,2.25,0,1,1,0-4.5A2.21,2.21,0,0,1,180.57,26Z"/><path class="cls-7" d="M171.93,23.72a2.24,2.24,0,1,1-.09,4.47,2.24,2.24,0,1,1,.09-4.47Z"/><path class="cls-7" d="M217.36,15.24A2.27,2.27,0,1,1,219.62,13,2.27,2.27,0,0,1,217.36,15.24Z"/><path class="cls-7" d="M230.39-2.23A2.23,2.23,0,0,1,232.61,0a2.23,2.23,0,0,1-2.3,2.19A2.21,2.21,0,0,1,228.1,0,2.21,2.21,0,0,1,230.39-2.23Z"/><path class="cls-7" d="M165.31,28.18A2.22,2.22,0,1,1,167.58,26,2.21,2.21,0,0,1,165.31,28.18Z"/><path class="cls-7" d="M191.41,28.17a2.22,2.22,0,1,1,0-4.43,2.22,2.22,0,1,1,0,4.43Z"/><path class="cls-7" d="M146,21.74a2.22,2.22,0,1,1,0-4.43,2.22,2.22,0,1,1,0,4.43Z"/><path class="cls-7" d="M210.8,21.73a2.21,2.21,0,1,1,0-4.41,2.21,2.21,0,0,1,0,4.41Z"/><path class="cls-7" d="M158.94,28.15a2.2,2.2,0,1,1,0-4.39,2.2,2.2,0,0,1,0,4.39Z"/><path class="cls-7" d="M197.84,28.14a2.19,2.19,0,0,1-.05-4.37,2.19,2.19,0,1,1,.05,4.37Z"/><path class="cls-7" d="M128.6,6.41a2.21,2.21,0,0,1-2.17,2.2,2.18,2.18,0,0,1-.05-4.36A2.23,2.23,0,0,1,128.6,6.41Z"/><path class="cls-7" d="M232.5,6.42a2.15,2.15,0,0,1-2.17,2.18,2.2,2.2,0,0,1-2.17-2.21,2.25,2.25,0,0,1,2.15-2.14A2.16,2.16,0,0,1,232.5,6.42Z"/><path class="cls-7" d="M130.67,12.94a2.14,2.14,0,0,1,2.21-2.13A2.19,2.19,0,0,1,135,13a2.22,2.22,0,0,1-2.24,2.14A2.16,2.16,0,0,1,130.67,12.94Z"/><path class="cls-7" d="M226,13a2.19,2.19,0,0,1-2.2,2.17,2.16,2.16,0,0,1,0-4.31A2.18,2.18,0,0,1,226,13Z"/><path class="cls-7" d="M152.35,23.79a2.17,2.17,0,1,1,0,4.33,2.17,2.17,0,0,1,0-4.33Z"/><path class="cls-7" d="M122,0a2.15,2.15,0,0,1-2.14,2.19A2.21,2.21,0,0,1,117.68,0a2.23,2.23,0,0,1,2.11-2.14A2.16,2.16,0,0,1,122,0Z"/><path class="cls-7" d="M141.52,19.55a2.14,2.14,0,0,1-2.19,2.14,2.17,2.17,0,0,1,0-4.33A2.14,2.14,0,0,1,141.52,19.55Z"/><path class="cls-7" d="M206.53,26a2.15,2.15,0,0,1-2.1,2.14,2.16,2.16,0,1,1-.08-4.31A2.16,2.16,0,0,1,206.53,26Z"/><path class="cls-7" d="M239,0a2.18,2.18,0,0,1-2.12,2.13,2.14,2.14,0,0,1-2.15-2.2,2.16,2.16,0,0,1,2.16-2.09A2.19,2.19,0,0,1,239,0Z"/><path class="cls-7" d="M217.41,21.67a2.15,2.15,0,1,1,0-4.29,2.15,2.15,0,0,1,0,4.29Z"/><path class="cls-7" d="M178.34,34.6a2.1,2.1,0,1,1,2.09-2.12A2.08,2.08,0,0,1,178.34,34.6Z"/><path class="cls-7" d="M171.88,34.59a2.09,2.09,0,1,1,0-4.18,2.09,2.09,0,1,1,0,4.18Z"/><path class="cls-7" d="M185,30.41a2.09,2.09,0,1,1-.26,4.18,2.09,2.09,0,0,1,.26-4.18Z"/><path class="cls-7" d="M163.26,32.4a2.06,2.06,0,0,1,2.21-2,2.08,2.08,0,0,1-.2,4.16A2,2,0,0,1,163.26,32.4Z"/><path class="cls-7" d="M145.9,23.85a2.11,2.11,0,0,1,.1,4.22,2.11,2.11,0,1,1-.1-4.22Z"/><path class="cls-7" d="M128.46,12.93a2,2,0,0,1-2,2.12,2.08,2.08,0,1,1-.11-4.15A2,2,0,0,1,128.46,12.93Z"/><path class="cls-7" d="M193.47,32.52a2,2,0,0,1-2,2.06,2.08,2.08,0,1,1,0-4.15A2,2,0,0,1,193.47,32.52Z"/><path class="cls-7" d="M212.92,26a2.13,2.13,0,0,1-2.15,2.09,2.07,2.07,0,0,1-2-2.09,2.05,2.05,0,0,1,2-2.08A2.11,2.11,0,0,1,212.92,26Z"/><path class="cls-7" d="M230.34,10.91a2.07,2.07,0,1,1,0,4.13,2.07,2.07,0,0,1,0-4.13Z"/><path class="cls-7" d="M199.88,32.48a2,2,0,0,1-2,2.08,2.09,2.09,0,0,1-2.13-2.08,2.12,2.12,0,0,1,2.07-2A2,2,0,0,1,199.88,32.48Z"/><path class="cls-7" d="M161,32.51a2.09,2.09,0,0,1-2,2.05,2.06,2.06,0,1,1,0-4.12A2.11,2.11,0,0,1,161,32.51Z"/><path class="cls-7" d="M134.88,19.56a2,2,0,0,1-2,2,2.11,2.11,0,0,1-2.11-2.1,2.09,2.09,0,0,1,2.17-2A2,2,0,0,1,134.88,19.56Z"/><path class="cls-7" d="M119.88,8.51a2.07,2.07,0,0,1-2.08-2,2,2,0,0,1,2-2.15,2.1,2.1,0,0,1,2.11,2A2.12,2.12,0,0,1,119.88,8.51Z"/><path class="cls-7" d="M236.89,4.41a2,2,0,0,1,2,2,2,2,0,0,1-2,2,2.07,2.07,0,0,1-2.08-2A2.06,2.06,0,0,1,236.89,4.41Z"/><path class="cls-7" d="M225.83,19.54a2,2,0,0,1-2,2,2.08,2.08,0,0,1-2-2,2.06,2.06,0,0,1,2.08-2A2,2,0,0,1,225.83,19.54Z"/><path class="cls-7" d="M115.46.05a2,2,0,0,1-2.09,2,2,2,0,0,1-2-2.06,2,2,0,0,1,2.07-2A2,2,0,0,1,115.46.05Z"/><path class="cls-7" d="M139.43,24a2,2,0,0,1,0,4,2,2,0,1,1,0-4Z"/><path class="cls-7" d="M154.37,32.51a2,2,0,1,1-4-.07,2.06,2.06,0,0,1,2-2A2,2,0,0,1,154.37,32.51Z"/><path class="cls-7" d="M204.42,34.52a2,2,0,1,1,2-2.11A2,2,0,0,1,204.42,34.52Z"/><path class="cls-7" d="M243.3,2a2,2,0,0,1-2-2,2,2,0,0,1,2-2,2,2,0,0,1,2,2A2,2,0,0,1,243.3,2Z"/><path class="cls-7" d="M219.38,25.91A2,2,0,1,1,217.26,24,2,2,0,0,1,219.38,25.91Z"/><path class="cls-7" d="M121.8,13a2,2,0,0,1-1.93,2,2,2,0,1,1,0-3.94A1.94,1.94,0,0,1,121.8,13Z"/><path class="cls-7" d="M178.32,37a2,2,0,0,1,2,2,2,2,0,0,1-2,2,2,2,0,0,1,0-3.94Z"/><path class="cls-7" d="M115.36,6.44a1.93,1.93,0,0,1-2,1.94,2,2,0,0,1-1.93-1.9,2,2,0,0,1,2-2A1.93,1.93,0,0,1,115.36,6.44Z"/><path class="cls-7" d="M230.39,21.47a2,2,0,0,1-2-1.93,2,2,0,0,1,2-2,2,2,0,0,1,0,3.9Z"/><path class="cls-7" d="M126.38,21.48a1.92,1.92,0,0,1-1.93-2,1.94,1.94,0,0,1,2-2,2,2,0,1,1,0,3.92Z"/><path class="cls-7" d="M186.8,39a1.94,1.94,0,0,1-2,1.93A2,2,0,0,1,182.9,39a2,2,0,0,1,2-2A1.9,1.9,0,0,1,186.8,39Z"/><path class="cls-7" d="M132.78,24a2,2,0,0,1,2,1.92,2,2,0,0,1-2,2,1.95,1.95,0,0,1-.05-3.89Z"/><path class="cls-7" d="M236.94,14.94A2,2,0,0,1,235,13a1.9,1.9,0,0,1,1.84-2,2,2,0,0,1,2.06,1.87A2,2,0,0,1,236.94,14.94Z"/><path class="cls-7" d="M173.85,38.88a2,2,0,0,1-1.93,2,2,2,0,0,1-2-1.85,1.89,1.89,0,0,1,1.84-2A2,2,0,0,1,173.85,38.88Z"/><path class="cls-7" d="M147.89,32.51a2,2,0,0,1-2,2,2,2,0,0,1-1.91-2,1.9,1.9,0,0,1,1.92-1.87A2,2,0,0,1,147.89,32.51Z"/><path class="cls-7" d="M223.76,27.89a1.94,1.94,0,0,1,.08-3.87,1.94,1.94,0,1,1-.08,3.87Z"/><path class="cls-7" d="M243.33,8.36a1.91,1.91,0,0,1-1.91-1.87,1.94,1.94,0,0,1,1.91-2,2,2,0,0,1,1.94,2A2,2,0,0,1,243.33,8.36Z"/><path class="cls-7" d="M165.36,40.87a1.93,1.93,0,1,1-.05-3.85,1.88,1.88,0,0,1,1.95,1.83A1.92,1.92,0,0,1,165.36,40.87Z"/><path class="cls-7" d="M191.44,37a1.93,1.93,0,1,1-.05,3.85,1.92,1.92,0,0,1-1.9-2A1.88,1.88,0,0,1,191.44,37Z"/><path class="cls-7" d="M212.75,32.49a1.93,1.93,0,0,1-2,1.95,2,2,0,0,1-1.91-1.92,1.94,1.94,0,0,1,2-1.93A1.88,1.88,0,0,1,212.75,32.49Z"/><path class="cls-7" d="M157,38.84a1.91,1.91,0,0,1,2.1-1.79,1.89,1.89,0,0,1,1.72,2,1.87,1.87,0,0,1-2,1.73A1.89,1.89,0,0,1,157,38.84Z"/><path class="cls-7" d="M108.77,0a1.93,1.93,0,0,1-1.87,1.94A1.93,1.93,0,0,1,105,0a1.93,1.93,0,0,1,1.86-1.94A1.93,1.93,0,0,1,108.77,0Z"/><path class="cls-7" d="M197.87,37.06a1.88,1.88,0,1,1-.06,3.75,1.88,1.88,0,1,1,.06-3.75Z"/><path class="cls-7" d="M139.36,34.37a1.87,1.87,0,0,1,0-3.74,1.87,1.87,0,0,1,1.91,1.87A1.85,1.85,0,0,1,139.36,34.37Z"/><path class="cls-7" d="M217.35,30.65a1.86,1.86,0,0,1,.09,3.71,1.86,1.86,0,1,1-.09-3.71Z"/><path class="cls-7" d="M204.4,37.09a1.85,1.85,0,1,1,0,3.69,1.85,1.85,0,0,1,0-3.69Z"/><path class="cls-7" d="M154.19,39a1.8,1.8,0,0,1-1.81,1.82,1.85,1.85,0,1,1,.06-3.69A1.8,1.8,0,0,1,154.19,39Z"/><path class="cls-7" d="M119.86,21.39a1.86,1.86,0,0,1,0-3.72,1.86,1.86,0,1,1,0,3.72Z"/><path class="cls-7" d="M126.45,27.81a1.89,1.89,0,0,1-1.9-1.77,1.86,1.86,0,0,1,1.74-1.91,1.8,1.8,0,0,1,1.93,1.81A1.83,1.83,0,0,1,126.45,27.81Z"/><path class="cls-7" d="M238.72,19.49A1.83,1.83,0,0,1,237,21.37,1.88,1.88,0,0,1,235,19.5a1.86,1.86,0,0,1,1.85-1.8A1.79,1.79,0,0,1,238.72,19.49Z"/><path class="cls-7" d="M113.46,14.81a1.79,1.79,0,0,1-1.86-1.76,1.82,1.82,0,0,1,1.84-1.91,1.84,1.84,0,0,1,0,3.67Z"/><path class="cls-7" d="M232.19,26a1.86,1.86,0,0,1-1.87,1.79,1.82,1.82,0,1,1,.07-3.63A1.83,1.83,0,0,1,232.19,26Z"/><path class="cls-7" d="M245.14,12.94a1.8,1.8,0,0,1-1.75,1.86,1.86,1.86,0,0,1-1.9-1.84,1.89,1.89,0,0,1,1.83-1.82A1.83,1.83,0,0,1,245.14,12.94Z"/><path class="cls-7" d="M132.86,34.31a1.81,1.81,0,1,1,0-3.62,1.82,1.82,0,0,1,1.76,1.76A1.8,1.8,0,0,1,132.86,34.31Z"/><path class="cls-7" d="M108.67,6.45a1.77,1.77,0,0,1-1.82,1.78A1.84,1.84,0,0,1,105,6.41a1.82,1.82,0,0,1,1.85-1.77A1.75,1.75,0,0,1,108.67,6.45Z"/><path class="cls-7" d="M147.72,39a1.8,1.8,0,0,1-1.86,1.76A1.85,1.85,0,0,1,144.12,39a1.87,1.87,0,0,1,1.82-1.83A1.83,1.83,0,0,1,147.72,39Z"/><path class="cls-7" d="M210.77,40.74A1.81,1.81,0,0,1,209,38.86a1.83,1.83,0,0,1,1.78-1.74A1.86,1.86,0,0,1,212.63,39,1.84,1.84,0,0,1,210.77,40.74Z"/><path class="cls-7" d="M225.58,32.45a1.81,1.81,0,0,1-1.78,1.85,1.8,1.8,0,0,1,0-3.59A1.8,1.8,0,0,1,225.58,32.45Z"/><path class="cls-7" d="M180.11,45.51a1.77,1.77,0,0,1-1.85,1.75,1.78,1.78,0,1,1,.06-3.55A1.75,1.75,0,0,1,180.11,45.51Z"/><path class="cls-7" d="M186.65,45.48a1.79,1.79,0,1,1-1.73-1.76A1.76,1.76,0,0,1,186.65,45.48Z"/><path class="cls-7" d="M173.66,45.43a1.78,1.78,0,0,1-3.56.1,1.77,1.77,0,0,1,1.68-1.81A1.75,1.75,0,0,1,173.66,45.43Z"/><path class="cls-7" d="M193.18,45.47a1.74,1.74,0,0,1-1.72,1.76,1.71,1.71,0,0,1-1.8-1.67,1.73,1.73,0,0,1,1.77-1.83A1.76,1.76,0,0,1,193.18,45.47Z"/><path class="cls-7" d="M165.35,47.23a1.75,1.75,0,1,1,1.75-1.74A1.73,1.73,0,0,1,165.35,47.23Z"/><path class="cls-7" d="M100.42-1.74A1.76,1.76,0,0,1,102.19,0a1.75,1.75,0,0,1-1.71,1.76A1.71,1.71,0,0,1,98.72,0,1.72,1.72,0,0,1,100.42-1.74Z"/><path class="cls-7" d="M158.93,47.21a1.73,1.73,0,1,1-.06-3.46,1.73,1.73,0,0,1,.06,3.46Z"/><path class="cls-7" d="M199.59,45.52a1.74,1.74,0,0,1-1.78,1.69,1.73,1.73,0,0,1,.08-3.46A1.76,1.76,0,0,1,199.59,45.52Z"/><path class="cls-7" d="M118.11,26a1.77,1.77,0,0,1,1.78-1.72,1.73,1.73,0,0,1,0,3.45A1.77,1.77,0,0,1,118.11,26Z"/><path class="cls-7" d="M113.4,21.24a1.72,1.72,0,1,1,.09-3.44,1.72,1.72,0,0,1-.09,3.44Z"/><path class="cls-7" d="M236.89,24.24a1.72,1.72,0,1,1,0,3.43,1.72,1.72,0,0,1,0-3.43Z"/><path class="cls-7" d="M243.36,21.23a1.69,1.69,0,0,1-1.72-1.62,1.7,1.7,0,0,1,1.67-1.8,1.77,1.77,0,0,1,1.74,1.75A1.75,1.75,0,0,1,243.36,21.23Z"/><path class="cls-7" d="M152.39,47.18a1.7,1.7,0,0,1-.12-3.4,1.7,1.7,0,1,1,.12,3.4Z"/><path class="cls-7" d="M141.08,39a1.69,1.69,0,0,1-1.78,1.67A1.77,1.77,0,0,1,137.64,39a1.75,1.75,0,0,1,1.76-1.72A1.67,1.67,0,0,1,141.08,39Z"/><path class="cls-7" d="M219.11,38.88a1.79,1.79,0,0,1-1.71,1.79,1.71,1.71,0,0,1-1.73-1.62,1.67,1.67,0,0,1,1.62-1.82A1.76,1.76,0,0,1,219.11,38.88Z"/><path class="cls-7" d="M106.85,14.68a1.68,1.68,0,0,1-1.67-1.79,1.65,1.65,0,0,1,1.72-1.6,1.7,1.7,0,1,1-.05,3.39Z"/><path class="cls-7" d="M128.11,32.55a1.71,1.71,0,0,1-1.72,1.63,1.68,1.68,0,1,1,.09-3.35A1.72,1.72,0,0,1,128.11,32.55Z"/><path class="cls-7" d="M204.39,43.79a1.7,1.7,0,0,1,1.67,1.69,1.68,1.68,0,0,1-1.66,1.69,1.69,1.69,0,0,1,0-3.38Z"/><path class="cls-7" d="M230.33,30.85a1.66,1.66,0,1,1,0,3.31,1.66,1.66,0,1,1,0-3.31Z"/><path class="cls-7" d="M98.78,6.44a1.66,1.66,0,1,1,3.32,0,1.66,1.66,0,0,1-3.32,0Z"/><path class="cls-7" d="M147.53,45.59a1.62,1.62,0,0,1-1.65,1.53,1.64,1.64,0,1,1,.09-3.27A1.62,1.62,0,0,1,147.53,45.59Z"/><path class="cls-7" d="M132.83,40.56a1.63,1.63,0,0,1-1.65-1.68,1.66,1.66,0,0,1,1.64-1.58A1.61,1.61,0,0,1,134.46,39,1.59,1.59,0,0,1,132.83,40.56Z"/><path class="cls-7" d="M212.46,45.5a1.66,1.66,0,0,1-1.7,1.62,1.64,1.64,0,0,1-1.55-1.65,1.62,1.62,0,0,1,1.57-1.62A1.66,1.66,0,0,1,212.46,45.5Z"/><path class="cls-7" d="M179.91,52a1.59,1.59,0,0,1-1.6,1.58,1.61,1.61,0,1,1,.07-3.22A1.58,1.58,0,0,1,179.91,52Z"/><path class="cls-7" d="M223.77,37.31a1.62,1.62,0,0,1,.06,3.24,1.62,1.62,0,1,1-.06-3.24Z"/><path class="cls-7" d="M184.84,50.31a1.64,1.64,0,0,1,1.65,1.55,1.66,1.66,0,0,1-1.65,1.68,1.62,1.62,0,0,1-1.57-1.62A1.58,1.58,0,0,1,184.84,50.31Z"/><path class="cls-7" d="M173.48,52a1.59,1.59,0,0,1-1.61,1.57,1.61,1.61,0,1,1,.08-3.22A1.58,1.58,0,0,1,173.48,52Z"/><path class="cls-7" d="M113.47,27.55A1.57,1.57,0,0,1,111.84,26a1.55,1.55,0,0,1,1.53-1.63A1.6,1.6,0,0,1,115,25.91,1.62,1.62,0,0,1,113.47,27.55Z"/><path class="cls-7" d="M106.89,21.12a1.65,1.65,0,0,1-1.63-1.58,1.62,1.62,0,0,1,1.6-1.59,1.55,1.55,0,0,1,1.6,1.56A1.59,1.59,0,0,1,106.89,21.12Z"/><path class="cls-7" d="M165.34,50.34A1.6,1.6,0,0,1,167,51.91a1.63,1.63,0,0,1-1.61,1.6,1.57,1.57,0,0,1-1.58-1.59A1.54,1.54,0,0,1,165.34,50.34Z"/><path class="cls-7" d="M121.44,32.54a1.61,1.61,0,0,1-1.65,1.55,1.58,1.58,0,0,1-1.5-1.68,1.6,1.6,0,0,1,1.58-1.5A1.63,1.63,0,0,1,121.44,32.54Z"/><path class="cls-7" d="M238.45,32.53a1.58,1.58,0,0,1-1.52,1.55,1.58,1.58,0,0,1-.06-3.15A1.58,1.58,0,0,1,238.45,32.53Z"/><path class="cls-7" d="M95.49-.06a1.6,1.6,0,0,1-1.57,1.62A1.55,1.55,0,0,1,92.33.11a1.53,1.53,0,0,1,1.48-1.67A1.59,1.59,0,0,1,95.49-.06Z"/><path class="cls-7" d="M243.38,24.4a1.56,1.56,0,0,1,0,3.12,1.56,1.56,0,1,1,0-3.12Z"/><path class="cls-7" d="M191.28,53.47a1.56,1.56,0,1,1,.32-3.1,1.56,1.56,0,0,1-.32,3.1Z"/><path class="cls-7" d="M126.41,40.5A1.56,1.56,0,1,1,128,39,1.58,1.58,0,0,1,126.41,40.5Z"/><path class="cls-7" d="M100.44,14.54A1.56,1.56,0,1,1,102,13,1.58,1.58,0,0,1,100.44,14.54Z"/><path class="cls-7" d="M158.89,53.46a1.55,1.55,0,1,1,0-3.09,1.55,1.55,0,1,1,0,3.09Z"/><path class="cls-7" d="M141,45.49A1.57,1.57,0,0,1,139.31,47a1.55,1.55,0,1,1,.14-3.09A1.56,1.56,0,0,1,141,45.49Z"/><path class="cls-7" d="M217.39,47a1.53,1.53,0,0,1-.09-3,1.53,1.53,0,1,1,.09,3Z"/><path class="cls-7" d="M196.3,51.87a1.55,1.55,0,1,1,1.48,1.57A1.53,1.53,0,0,1,196.3,51.87Z"/><path class="cls-7" d="M231.86,38.9a1.54,1.54,0,0,1-1.48,1.58,1.54,1.54,0,0,1-.07-3.08A1.53,1.53,0,0,1,231.86,38.9Z"/><path class="cls-7" d="M152.4,50.41a1.5,1.5,0,1,1-.14,3,1.5,1.5,0,0,1,.14-3Z"/><path class="cls-7" d="M205.87,51.93a1.46,1.46,0,0,1-1.44,1.47,1.52,1.52,0,0,1-1.55-1.5,1.54,1.54,0,0,1,1.58-1.48A1.48,1.48,0,0,1,205.87,51.93Z"/><path class="cls-7" d="M93.93,5a1.48,1.48,0,0,1,0,3A1.52,1.52,0,0,1,92.4,6.36,1.55,1.55,0,0,1,93.93,5Z"/><path class="cls-7" d="M132.88,47a1.45,1.45,0,0,1-1.51-1.4A1.48,1.48,0,0,1,132.85,44a1.55,1.55,0,0,1,1.48,1.47A1.53,1.53,0,0,1,132.88,47Z"/><path class="cls-7" d="M106.84,27.42a1.45,1.45,0,0,1-1.41-1.5,1.48,1.48,0,0,1,1.48-1.44A1.53,1.53,0,0,1,108.34,26,1.5,1.5,0,0,1,106.84,27.42Z"/><path class="cls-7" d="M223.75,47a1.47,1.47,0,0,1-1.4-1.52,1.49,1.49,0,0,1,1.5-1.42,1.53,1.53,0,0,1,1.42,1.52A1.51,1.51,0,0,1,223.75,47Z"/><path class="cls-7" d="M144.49,51.87a1.44,1.44,0,1,1,1.42,1.5A1.49,1.49,0,0,1,144.49,51.87Z"/><path class="cls-7" d="M114.87,32.5a1.42,1.42,0,0,1-1.45,1.44,1.44,1.44,0,1,1,0-2.87A1.41,1.41,0,0,1,114.87,32.5Z"/><path class="cls-7" d="M212.26,52a1.44,1.44,0,0,1-2.88,0,1.44,1.44,0,1,1,2.88,0Z"/><path class="cls-7" d="M101.85,19.56a1.44,1.44,0,0,1-1.39,1.4,1.44,1.44,0,0,1,0-2.87A1.44,1.44,0,0,1,101.85,19.56Z"/><path class="cls-7" d="M119.91,40.34a1.41,1.41,0,1,1-.1-2.81,1.41,1.41,0,1,1,.1,2.81Z"/><path class="cls-7" d="M236.89,40.32a1.38,1.38,0,0,1-1.4-1.36A1.41,1.41,0,0,1,237,37.54,1.38,1.38,0,0,1,238.28,39,1.35,1.35,0,0,1,236.89,40.32Z"/><path class="cls-7" d="M173.27,58.52a1.36,1.36,0,0,1-1.42,1.33,1.4,1.4,0,0,1-1.37-1.39A1.41,1.41,0,0,1,172,57.07,1.38,1.38,0,0,1,173.27,58.52Z"/><path class="cls-7" d="M179.7,58.44a1.36,1.36,0,0,1-1.34,1.41,1.39,1.39,0,1,1,0-2.78A1.37,1.37,0,0,1,179.7,58.44Z"/><path class="cls-7" d="M184.83,59.85a1.39,1.39,0,0,1,0-2.78,1.39,1.39,0,1,1,0,2.78Z"/><path class="cls-7" d="M92.55,12.88A1.36,1.36,0,0,1,94,11.61,1.42,1.42,0,0,1,95.27,13a1.4,1.4,0,0,1-1.44,1.32A1.35,1.35,0,0,1,92.55,12.88Z"/><path class="cls-7" d="M87.31-1.37A1.32,1.32,0,0,1,88.71,0a1.37,1.37,0,0,1-1.33,1.42A1.43,1.43,0,0,1,86,0,1.39,1.39,0,0,1,87.31-1.37Z"/><path class="cls-7" d="M165.29,59.84a1.38,1.38,0,0,1,.11-2.76,1.42,1.42,0,0,1,1.33,1.44A1.4,1.4,0,0,1,165.29,59.84Z"/><path class="cls-7" d="M192.77,58.5a1.35,1.35,0,0,1-1.4,1.34A1.4,1.4,0,0,1,190,58.42a1.41,1.41,0,0,1,1.43-1.34A1.35,1.35,0,0,1,192.77,58.5Z"/><path class="cls-7" d="M199.18,58.44a1.34,1.34,0,0,1-1.37,1.37,1.38,1.38,0,0,1-1.32-1.32,1.41,1.41,0,0,1,1.39-1.39A1.37,1.37,0,0,1,199.18,58.44Z"/><path class="cls-7" d="M157.57,58.5a1.35,1.35,0,0,1,1.36-1.39,1.36,1.36,0,1,1-.05,2.71A1.36,1.36,0,0,1,157.57,58.5Z"/><path class="cls-7" d="M127.75,45.51a1.33,1.33,0,0,1-1.4,1.33A1.4,1.4,0,0,1,125,45.52a1.37,1.37,0,0,1,1.37-1.38A1.32,1.32,0,0,1,127.75,45.51Z"/><path class="cls-7" d="M139.37,53.28a1.34,1.34,0,0,1-1.34-1.4,1.31,1.31,0,0,1,1.31-1.31,1.38,1.38,0,0,1,1.42,1.33A1.42,1.42,0,0,1,139.37,53.28Z"/><path class="cls-7" d="M230.4,46.81a1.33,1.33,0,1,1-.1-2.65,1.33,1.33,0,1,1,.1,2.65Z"/><path class="cls-7" d="M218.71,51.94a1.31,1.31,0,0,1-1.31,1.3,1.33,1.33,0,1,1,0-2.65A1.31,1.31,0,0,1,218.71,51.94Z"/><path class="cls-7" d="M151.07,58.45a1.31,1.31,0,0,1,1.3-1.3,1.32,1.32,0,0,1,0,2.63A1.32,1.32,0,0,1,151.07,58.45Z"/><path class="cls-7" d="M106.84,31.19a1.32,1.32,0,1,1-1.26,1.35A1.31,1.31,0,0,1,106.84,31.19Z"/><path class="cls-7" d="M100.44,27.23a1.28,1.28,0,0,1,0-2.55,1.28,1.28,0,1,1,0,2.55Z"/><path class="cls-7" d="M87.35,7.7a1.24,1.24,0,0,1-1.27-1.3,1.25,1.25,0,0,1,1.21-1.25A1.31,1.31,0,0,1,88.64,6.4,1.29,1.29,0,0,1,87.35,7.7Z"/><path class="cls-7" d="M114.69,38.94a1.29,1.29,0,0,1-1.3,1.29,1.29,1.29,0,0,1,0-2.58A1.27,1.27,0,0,1,114.69,38.94Z"/><path class="cls-7" d="M205.66,58.48a1.3,1.3,0,0,1-1.32,1.28,1.3,1.3,0,0,1,0-2.59A1.28,1.28,0,0,1,205.66,58.48Z"/><path class="cls-7" d="M222.56,52a1.25,1.25,0,0,1,1.27-1.3,1.31,1.31,0,0,1,1.25,1.23,1.28,1.28,0,0,1-1.29,1.29A1.22,1.22,0,0,1,222.56,52Z"/><path class="cls-7" d="M131.59,51.89a1.25,1.25,0,0,1,1.21-1.24,1.3,1.3,0,0,1,1.31,1.29,1.28,1.28,0,0,1-1.35,1.23A1.22,1.22,0,0,1,131.59,51.89Z"/><path class="cls-7" d="M95.13,19.5A1.24,1.24,0,0,1,94,20.77a1.3,1.3,0,0,1-1.32-1.27,1.32,1.32,0,0,1,1.26-1.23A1.27,1.27,0,0,1,95.13,19.5Z"/><path class="cls-7" d="M121.08,45.45a1.24,1.24,0,0,1-1.17,1.28,1.3,1.3,0,0,1-1.32-1.27,1.32,1.32,0,0,1,1.25-1.23A1.26,1.26,0,0,1,121.08,45.45Z"/><path class="cls-7" d="M238.13,45.5a1.26,1.26,0,0,1-1.27,1.21,1.24,1.24,0,0,1-1.18-1.3,1.25,1.25,0,0,1,1.2-1.16A1.29,1.29,0,0,1,238.13,45.5Z"/><path class="cls-7" d="M145.87,59.66a1.2,1.2,0,1,1,.17-2.39,1.2,1.2,0,1,1-.17,2.39Z"/><path class="cls-7" d="M210.82,59.67a1.21,1.21,0,1,1,.07-2.41,1.21,1.21,0,0,1-.07,2.41Z"/><path class="cls-7" d="M178.32,63.83A1.17,1.17,0,0,1,179.48,65a1.19,1.19,0,0,1-1.12,1.21A1.23,1.23,0,0,1,177.13,65,1.21,1.21,0,0,1,178.32,63.83Z"/><path class="cls-7" d="M88.5,13a1.11,1.11,0,0,1-1.17,1.12A1.17,1.17,0,0,1,86.16,13a1.19,1.19,0,0,1,1.25-1.19A1.13,1.13,0,0,1,88.5,13Z"/><path class="cls-7" d="M126.39,53.08a1.22,1.22,0,0,1-1.16-1.17,1.18,1.18,0,0,1,1.17-1.14,1.13,1.13,0,0,1,1.14,1.15A1.16,1.16,0,0,1,126.39,53.08Z"/><path class="cls-7" d="M108,38.94a1.12,1.12,0,0,1-1.06,1.13,1.14,1.14,0,1,1,0-2.27A1.12,1.12,0,0,1,108,38.94Z"/><path class="cls-7" d="M80.92-1.15A1.12,1.12,0,0,1,82.05,0,1.14,1.14,0,0,1,80.9,1.16,1.2,1.2,0,0,1,79.75,0,1.18,1.18,0,0,1,80.92-1.15Z"/><path class="cls-7" d="M139.38,57.32a1.14,1.14,0,1,1,0,2.28,1.12,1.12,0,0,1-1.12-1.19A1.14,1.14,0,0,1,139.38,57.32Z"/><path class="cls-7" d="M100.39,31.37a1.14,1.14,0,0,1,.1,2.27,1.14,1.14,0,1,1-.1-2.27Z"/><path class="cls-7" d="M218.49,58.44a1.13,1.13,0,0,1-1,1.16,1.19,1.19,0,0,1-1.23-1.11,1.21,1.21,0,0,1,1.18-1.17A1.15,1.15,0,0,1,218.49,58.44Z"/><path class="cls-7" d="M171.89,63.86A1.12,1.12,0,0,1,173,65a1.14,1.14,0,0,1-1.15,1.15A1.2,1.2,0,0,1,170.72,65,1.17,1.17,0,0,1,171.89,63.86Z"/><path class="cls-7" d="M184.82,66.17A1.15,1.15,0,0,1,183.73,65a1.12,1.12,0,0,1,1.19-1.09A1.16,1.16,0,0,1,186,65.06,1.22,1.22,0,0,1,184.82,66.17Z"/><path class="cls-7" d="M230.35,50.8A1.13,1.13,0,0,1,231.49,52,1.15,1.15,0,0,1,230.36,53a1.11,1.11,0,0,1-1.13-1.18A1.09,1.09,0,0,1,230.35,50.8Z"/><path class="cls-7" d="M165.31,66.14a1.12,1.12,0,0,1-1.09-1.1,1.08,1.08,0,0,1,1.15-1.14A1.15,1.15,0,0,1,166.49,65,1.18,1.18,0,0,1,165.31,66.14Z"/><path class="cls-7" d="M191.43,63.9a1.09,1.09,0,0,1,1.1,1.08,1.12,1.12,0,0,1-1.15,1.16,1.15,1.15,0,0,1-1.11-1.1A1.12,1.12,0,0,1,191.43,63.9Z"/><path class="cls-7" d="M160,65.06a1.1,1.1,0,0,1-1.13,1,1.09,1.09,0,1,1,.09-2.18A1.11,1.11,0,0,1,160,65.06Z"/><path class="cls-7" d="M113.45,46.55a1.07,1.07,0,1,1-.06-2.14,1.07,1.07,0,0,1,1.11,1A1.05,1.05,0,0,1,113.45,46.55Z"/><path class="cls-7" d="M95,26a1.09,1.09,0,1,1-1.1-1.06A1.06,1.06,0,0,1,95,26Z"/><path class="cls-7" d="M198.93,65a1.09,1.09,0,0,1-2.17,0,1.09,1.09,0,0,1,2.17,0Z"/><path class="cls-7" d="M79.87,6.4a1,1,0,0,1,1-1A1.07,1.07,0,0,1,82,6.46a1,1,0,0,1-1.15,1A1,1,0,0,1,79.87,6.4Z"/><path class="cls-7" d="M133.88,58.5a1.08,1.08,0,0,1-1,1,1,1,0,0,1-1-1.12,1,1,0,0,1,1.08-.94A1.06,1.06,0,0,1,133.88,58.5Z"/><path class="cls-7" d="M88.4,19.52a1.06,1.06,0,0,1-1,1,1,1,0,0,1-1-1,1,1,0,0,1,1-1.09A1.08,1.08,0,0,1,88.4,19.52Z"/><path class="cls-7" d="M152.32,64a1,1,0,1,1,0,2.06,1,1,0,0,1,0-2.06Z"/><path class="cls-7" d="M205.41,65.07a1,1,0,0,1-1,1,1,1,0,1,1,.11-2.06A1,1,0,0,1,205.41,65.07Z"/><path class="cls-7" d="M119.84,52.93a1.06,1.06,0,0,1-1-1,1.07,1.07,0,0,1,1-1,1,1,0,0,1,0,2Z"/><path class="cls-7" d="M236.87,50.92a1.05,1.05,0,0,1,1,.92,1,1,0,0,1-1,1.07,1,1,0,0,1-1-.91A1,1,0,0,1,236.87,50.92Z"/><path class="cls-7" d="M224.82,58.5a1,1,0,0,1-1.08,1,1,1,0,0,1,.07-2A1,1,0,0,1,224.82,58.5Z"/><path class="cls-7" d="M145.89,64.05a1,1,0,0,1,1,.9,1,1,0,0,1-.85,1,1,1,0,1,1-.12-1.92Z"/><path class="cls-7" d="M211.78,65a1,1,0,0,1-.91,1,1,1,0,1,1,0-1.92A1,1,0,0,1,211.78,65Z"/><path class="cls-7" d="M80.89,12.05A.93.93,0,0,1,81,13.9a.93.93,0,1,1-.09-1.85Z"/><path class="cls-7" d="M100.4,38a.91.91,0,0,1,.95.92.89.89,0,0,1-.82.92.93.93,0,0,1-1-.85A1,1,0,0,1,100.4,38Z"/><path class="cls-7" d="M93.93,33.4a.89.89,0,0,1-.92-.81.92.92,0,0,1,.86-1,1,1,0,0,1,.94.82A.94.94,0,0,1,93.93,33.4Z"/><path class="cls-7" d="M127.28,58.44a.88.88,0,0,1-.8.92.93.93,0,0,1-1-.87,1,1,0,0,1,.94-.94A.92.92,0,0,1,127.28,58.44Z"/><path class="cls-7" d="M75.28,0a.94.94,0,0,1-.85.91.85.85,0,0,1-.94-.79.85.85,0,0,1,.87-1A.93.93,0,0,1,75.28,0Z"/><path class="cls-7" d="M177.4,71.42a.91.91,0,0,1,.91-.85.85.85,0,0,1,.89,1,.86.86,0,0,1-.93.81A1,1,0,0,1,177.4,71.42Z"/><path class="cls-7" d="M106.93,46.38a1,1,0,0,1-1-.81.89.89,0,0,1,.9-1,.85.85,0,0,1,.89.85A.88.88,0,0,1,106.93,46.38Z"/><path class="cls-7" d="M230.33,59.34a.88.88,0,0,1-.84-.9.9.9,0,0,1,.88-.86.88.88,0,0,1,0,1.76Z"/><path class="cls-7" d="M172.74,71.55a.86.86,0,0,1-1.71-.22.86.86,0,0,1,1.71.22Z"/><path class="cls-7" d="M140.25,65a.87.87,0,0,1-.9.82.85.85,0,1,1,.06-1.7A.86.86,0,0,1,140.25,65Z"/><path class="cls-7" d="M185.74,71.47a.87.87,0,0,1-.91.82.84.84,0,0,1-.83-.88.85.85,0,0,1,.9-.82A.87.87,0,0,1,185.74,71.47Z"/><path class="cls-7" d="M217.42,65.83a.78.78,0,0,1-.86-.72.8.8,0,0,1,.77-.92.82.82,0,1,1,.09,1.64Z"/><path class="cls-7" d="M87.35,26.78a.79.79,0,0,1-.82-.77.81.81,0,0,1,.83-.88.83.83,0,1,1,0,1.65Z"/><path class="cls-7" d="M114.24,51.93a.79.79,0,0,1-.78.8.83.83,0,0,1-.88-.83.85.85,0,0,1,.91-.81A.81.81,0,0,1,114.24,51.93Z"/><path class="cls-7" d="M166.16,71.48a.78.78,0,0,1-.81.78.82.82,0,0,1-.85-.86.84.84,0,0,1,.93-.78A.81.81,0,0,1,166.16,71.48Z"/><path class="cls-7" d="M192.25,71.5a.85.85,0,0,1-.95.76.82.82,0,0,1,.12-1.64A.83.83,0,0,1,192.25,71.5Z"/><path class="cls-7" d="M159.69,71.41a.77.77,0,0,1-.76.83.8.8,0,1,1-.06-1.6A.78.78,0,0,1,159.69,71.41Z"/><path class="cls-7" d="M197.79,72.24a.8.8,0,0,1,.12-1.6.8.8,0,1,1-.12,1.6Z"/><path class="cls-7" d="M75.13,6.44a.77.77,0,0,1-1.54,0,.83.83,0,0,1,.76-.84A.8.8,0,0,1,75.13,6.44Z"/><path class="cls-7" d="M81.91,19.46c-.41.36-.63.67-.93.79s-.82-.31-.8-.73.3-.76.71-.71S81.45,19.15,81.91,19.46Z"/><path class="cls-7" d="M153.35,71.44c-.42.33-.66.64-1,.73s-.8-.36-.75-.78a.66.66,0,0,1,.75-.67C152.67,70.77,152.92,71.11,153.35,71.44Z"/><path class="cls-7" d="M133.82,65.07c-.45.31-.71.62-1,.66s-.69-.27-.71-.71.42-.87.8-.73S133.41,64.71,133.82,65.07Z"/><path class="cls-7" d="M120.59,58.54a.7.7,0,0,1-.77.64.72.72,0,1,1,.08-1.43A.72.72,0,0,1,120.59,58.54Z"/><path class="cls-7" d="M224.48,65.06c0,.39-.41.77-.74.63a1.22,1.22,0,0,1-.63-.67c-.11-.34.32-.71.7-.71A.68.68,0,0,1,224.48,65.06Z"/><path class="cls-7" d="M205.39,71.46a4.41,4.41,0,0,1-1,.67c-.36.08-.67-.35-.64-.75s.31-.68.67-.61S204.93,71.13,205.39,71.46Z"/><path class="cls-7" d="M237.57,58.52c0,.41-.39.75-.75.6a1.16,1.16,0,0,1-.61-.66c-.1-.35.33-.7.71-.69A.68.68,0,0,1,237.57,58.52Z"/><path class="cls-7" d="M94.81,38.89c-.38.32-.59.61-.86.68s-.63-.16-.7-.54.27-.83.64-.74A3.65,3.65,0,0,1,94.81,38.89Z"/><path class="cls-7" d="M88.25,32.49c-.43.31-.66.59-.92.62a.52.52,0,0,1-.57-.65c0-.22.36-.55.55-.55S87.81,32.2,88.25,32.49Z"/><path class="cls-7" d="M101.1,45.66c-.16.12-.38.4-.65.45a.57.57,0,0,1-.67-.61.6.6,0,0,1,.64-.65C100.83,44.84,101.06,45.05,101.1,45.66Z"/><path class="cls-7" d="M211,72.06c-.58,0-.86-.29-.75-.67a.9.9,0,0,1,.59-.53.5.5,0,0,1,.58.64C211.36,71.73,211.1,71.92,211,72.06Z"/><path class="cls-7" d="M146.87,71.47c-.5.28-.77.54-1,.53a.76.76,0,0,1-.51-.58.77.77,0,0,1,.54-.54C146.14,70.88,146.39,71.16,146.87,71.47Z"/><path class="cls-7" d="M107.82,51.93c-.5.29-.76.55-1,.54a.78.78,0,0,1-.52-.56.8.8,0,0,1,.54-.56C107.08,51.35,107.33,51.63,107.82,51.93Z"/><path class="cls-7" d="M74.42,12.15c.24.41.51.66.47.85s-.36.37-.56.56c-.18-.21-.49-.4-.51-.61S74.11,12.53,74.42,12.15Z"/><path class="cls-7" d="M230.24,64.25c.3.32.54.46.6.66a.44.44,0,0,1-.44.61.71.71,0,0,1-.54-.41C229.84,64.89,230.05,64.64,230.24,64.25Z"/><path class="cls-7" d="M126.44,64.25c.22.36.46.59.46.81s-.32.33-.5.49c-.17-.2-.44-.38-.48-.6S126.17,64.59,126.44,64.25Z"/><path class="cls-7" d="M80.89,26.72c-.24-.37-.51-.61-.47-.75s.35-.37.55-.55c.16.18.47.37.46.53S81.15,26.37,80.89,26.72Z"/><path class="cls-7" d="M68.63,0c-.28.24-.49.54-.63.51s-.41-.32-.61-.5c.2-.18.38-.45.6-.5S68.35-.24,68.63,0Z"/><path class="cls-7" d="M140.09,71.42c-.35.24-.54.46-.74.47s-.4-.27-.4-.43.23-.47.36-.47S139.72,71.2,140.09,71.42Z"/><path class="cls-7" d="M217.29,70.79c.25.27.52.44.5.57s-.26.38-.4.56c-.16-.13-.46-.25-.46-.39S217.12,71.12,217.29,70.79Z"/><path class="cls-7" d="M113.42,57.82c.21.29.43.47.45.67s-.31.43-.4.4a.85.85,0,0,1-.47-.46C113,58.32,113.2,58.11,113.42,57.82Z"/><path class="cls-7" d="M172.46,78.06c-.24.16-.45.4-.56.36s-.33-.31-.49-.48c.19-.14.37-.35.58-.38S172.26,77.83,172.46,78.06Z"/><path class="cls-7" d="M178.89,78.06c-.24.16-.45.4-.56.36s-.33-.31-.49-.48c.19-.14.37-.35.58-.38S178.69,77.83,178.89,78.06Z"/><path class="cls-7" d="M184.88,77.35c.2.29.41.48.43.67s-.32.42-.41.39a.83.83,0,0,1-.46-.46C184.41,77.83,184.66,77.64,184.88,77.35Z"/><path class="cls-7" d="M165.3,78.55c-.16-.26-.36-.44-.34-.58s.26-.27.41-.4c.13.15.36.29.37.45S165.51,78.32,165.3,78.55Z"/><path class="cls-7" d="M191.45,77.42c.16.26.36.44.34.59s-.27.27-.41.4c-.13-.15-.36-.3-.37-.45S191.24,77.66,191.45,77.42Z"/><path class="cls-7" d="M68.41,6.52c-.27.11-.42.22-.56.21s-.28-.26-.26-.29.24-.31.37-.32S68.19,6.32,68.41,6.52Z"/><path class="cls-7" d="M120.32,65.06c-.24.12-.38.25-.53.25s-.29-.22-.27-.27.2-.33.33-.35S120.1,64.88,120.32,65.06Z"/><path class="cls-7" d="M93.93,46c-.18-.23-.38-.37-.37-.48s.22-.26.37-.31.27.17.27.26S94.06,45.72,93.93,46Z"/><path class="cls-7" d="M198.35,78c-.27.14-.44.3-.56.27a.53.53,0,0,1-.24-.42c0-.07.23-.25.31-.23S198.13,77.86,198.35,78Z"/><path class="cls-7" d="M74.51,19.16c.06.15.17.3.15.44s-.24.27-.29.24-.31-.21-.33-.35.12-.32.18-.49Z"/><path class="cls-7" d="M133.33,71.39c-.23.18-.34.33-.49.37s-.31-.16-.3-.23.13-.37.24-.39S133.07,71.26,133.33,71.39Z"/><path class="cls-7" d="M158.86,78.48c-.14-.25-.31-.42-.29-.54s.26-.23.41-.26.25.22.24.31S159,78.26,158.86,78.48Z"/><path class="cls-7" d="M100.39,51.49c.16.21.32.33.31.42s-.17.21-.3.27-.2-.14-.2-.21A1.75,1.75,0,0,1,100.39,51.49Z"/><path class="cls-7" d="M87.3,39.21c-.08-.09-.21-.21-.2-.24a1.15,1.15,0,0,1,.27-.27l.22.32Z"/></g><g class="cls-6"><path class="cls-7" d="M38.87,353.15a2.53,2.53,0,0,1-2.48,2.61,2.56,2.56,0,1,1-.1-5.11A2.52,2.52,0,0,1,38.87,353.15Z"/><path class="cls-7" d="M42.85,350.66a2.55,2.55,0,1,1,0,5.09,2.55,2.55,0,0,1,0-5.09Z"/><path class="cls-7" d="M32.43,353.22a2.53,2.53,0,0,1-2.57,2.53,2.58,2.58,0,0,1-2.5-2.51,2.55,2.55,0,0,1,2.54-2.57A2.49,2.49,0,0,1,32.43,353.22Z"/><path class="cls-7" d="M51.94,353.24a2.49,2.49,0,0,1-2.49,2.48,2.57,2.57,0,0,1-2.55-2.55,2.54,2.54,0,0,1,2.51-2.47A2.47,2.47,0,0,1,51.94,353.24Z"/><path class="cls-7" d="M20.86,353.15a2.47,2.47,0,0,1,2.5-2.45,2.54,2.54,0,0,1,2.54,2.55,2.57,2.57,0,0,1-2.53,2.47A2.49,2.49,0,0,1,20.86,353.15Z"/><path class="cls-7" d="M17,355.67a2.47,2.47,0,1,1,0-4.94,2.47,2.47,0,1,1,0,4.94Z"/><path class="cls-7" d="M58.34,353.12a2.48,2.48,0,1,1-2.55-2.37A2.45,2.45,0,0,1,58.34,353.12Z"/><path class="cls-7" d="M10.4,355.62A2.38,2.38,0,0,1,8,353.28a2.4,2.4,0,0,1,2.4-2.51,2.43,2.43,0,1,1,0,4.85Z"/><path class="cls-7" d="M64.82,353.24a2.37,2.37,0,0,1-2.41,2.37A2.42,2.42,0,0,1,60,353.22a2.45,2.45,0,0,1,2.5-2.44A2.4,2.4,0,0,1,64.82,353.24Z"/><path class="cls-7" d="M36.22,349.08A2.42,2.42,0,0,1,34,346.44a2.37,2.37,0,0,1,2.58-2.19,2.43,2.43,0,0,1,2.24,2.56A2.47,2.47,0,0,1,36.22,349.08Z"/><path class="cls-7" d="M27.52,346.64a2.35,2.35,0,0,1,2.4-2.38,2.43,2.43,0,0,1,2.42,2.41,2.46,2.46,0,0,1-2.44,2.4A2.38,2.38,0,0,1,27.52,346.64Z"/><path class="cls-7" d="M45.28,346.68a2.4,2.4,0,0,1-2.42,2.39,2.46,2.46,0,0,1-2.4-2.44,2.43,2.43,0,0,1,2.46-2.37A2.35,2.35,0,0,1,45.28,346.68Z"/><path class="cls-7" d="M23.35,344.28a2.38,2.38,0,0,1,.08,4.75,2.38,2.38,0,1,1-.08-4.75Z"/><path class="cls-7" d="M47.06,346.66a2.34,2.34,0,0,1,2.4-2.38,2.38,2.38,0,1,1,0,4.75A2.35,2.35,0,0,1,47.06,346.66Z"/><path class="cls-7" d="M3.91,355.58A2.38,2.38,0,0,1,4,350.82a2.38,2.38,0,0,1-.08,4.76Z"/><path class="cls-7" d="M71.2,353.2a2.36,2.36,0,1,1-2.33-2.37A2.38,2.38,0,0,1,71.2,353.2Z"/><path class="cls-7" d="M17,349a2.34,2.34,0,1,1,2.31-2.35A2.32,2.32,0,0,1,17,349Z"/><path class="cls-7" d="M55.88,349a2.33,2.33,0,1,1,2.32-2.32A2.32,2.32,0,0,1,55.88,349Z"/><path class="cls-7" d="M12.67,346.6A2.26,2.26,0,0,1,10.4,349a2.31,2.31,0,0,1-.1-4.61A2.27,2.27,0,0,1,12.67,346.6Z"/><path class="cls-7" d="M60.14,346.71a2.27,2.27,0,0,1,2.28-2.36,2.3,2.3,0,1,1,0,4.6A2.26,2.26,0,0,1,60.14,346.71Z"/><path class="cls-7" d="M38.61,340.17a2.25,2.25,0,0,1-2.28,2.34,2.29,2.29,0,1,1,0-4.58A2.26,2.26,0,0,1,38.61,340.17Z"/><path class="cls-7" d="M29.89,342.5a2.28,2.28,0,1,1,.09-4.56,2.28,2.28,0,0,1-.09,4.56Z"/><path class="cls-7" d="M45.18,340.25a2.32,2.32,0,0,1-2.29,2.25,2.28,2.28,0,1,1,.06-4.56A2.33,2.33,0,0,1,45.18,340.25Z"/><path class="cls-7" d="M77.66,353.25a2.25,2.25,0,0,1-2.29,2.22,2.31,2.31,0,0,1-2.27-2.26A2.28,2.28,0,0,1,75.47,351,2.21,2.21,0,0,1,77.66,353.25Z"/><path class="cls-7" d="M25.62,340.17a2.31,2.31,0,0,1-2.21,2.32,2.27,2.27,0,0,1-.1-4.54A2.31,2.31,0,0,1,25.62,340.17Z"/><path class="cls-7" d="M51.68,340.22a2.27,2.27,0,0,1-2.24,2.27,2.27,2.27,0,1,1,2.24-2.27Z"/><path class="cls-7" d="M6.19,346.64a2.26,2.26,0,0,1-2.25,2.27,2.26,2.26,0,0,1,0-4.51A2.28,2.28,0,0,1,6.19,346.64Z"/><path class="cls-7" d="M19.15,340.27A2.23,2.23,0,1,1,16.92,338,2.26,2.26,0,0,1,19.15,340.27Z"/><path class="cls-7" d="M68.86,348.9a2.25,2.25,0,0,1,0-4.49,2.25,2.25,0,0,1,0,4.49Z"/><path class="cls-7" d="M55.83,342.45a2.23,2.23,0,0,1,.08-4.46,2.23,2.23,0,0,1-.08,4.46Z"/><path class="cls-7" d="M84,353.21a2.21,2.21,0,0,1-2.2,2.17,2.18,2.18,0,0,1,0-4.36A2.22,2.22,0,0,1,84,353.21Z"/><path class="cls-7" d="M8.22,340.15a2.13,2.13,0,0,1,2.24-2.09,2.19,2.19,0,0,1,2.12,2.24,2.23,2.23,0,0,1-2.27,2.11A2.17,2.17,0,0,1,8.22,340.15Z"/><path class="cls-7" d="M62.4,338.07a2.12,2.12,0,0,1,2.17,2.17,2.14,2.14,0,0,1-2.09,2.15,2.2,2.2,0,0,1-2.25-2.13A2.17,2.17,0,0,1,62.4,338.07Z"/><path class="cls-7" d="M38.5,333.73a2.2,2.2,0,0,1-2.27,2.1,2.16,2.16,0,0,1,.22-4.31A2.21,2.21,0,0,1,38.5,333.73Z"/><path class="cls-7" d="M75.43,348.8a2.14,2.14,0,1,1-.07-4.28,2.16,2.16,0,0,1,2.21,2.16A2.19,2.19,0,0,1,75.43,348.8Z"/><path class="cls-7" d="M32.05,333.72a2.18,2.18,0,0,1-2.16,2.1,2.15,2.15,0,1,1,.09-4.29A2.19,2.19,0,0,1,32.05,333.72Z"/><path class="cls-7" d="M42.94,335.82A2.15,2.15,0,1,1,45,333.65,2.16,2.16,0,0,1,42.94,335.82Z"/><path class="cls-7" d="M23.31,331.54a2.14,2.14,0,1,1-2.06,2.16A2.15,2.15,0,0,1,23.31,331.54Z"/><path class="cls-7" d="M4,338.12a2.1,2.1,0,1,1-.06,4.2,2.1,2.1,0,1,1,.06-4.2Z"/><path class="cls-7" d="M71,340.21a2.09,2.09,0,0,1-2.1,2.1,2.09,2.09,0,1,1,0-4.18A2.09,2.09,0,0,1,71,340.21Z"/><path class="cls-7" d="M51.53,333.62a2.13,2.13,0,0,1-2,2.18,2.17,2.17,0,0,1-2.17-2.07,2.14,2.14,0,0,1,2.06-2.17A2.11,2.11,0,0,1,51.53,333.62Z"/><path class="cls-7" d="M19,333.7a2.13,2.13,0,0,1-2.17,2.07,2.08,2.08,0,0,1-2-2.11A2,2,0,0,1,17,331.6,2.09,2.09,0,0,1,19,333.7Z"/><path class="cls-7" d="M88.32,351.12a2.09,2.09,0,1,1,.12,4.17,2.09,2.09,0,0,1-.12-4.17Z"/><path class="cls-7" d="M81.82,344.58a2.06,2.06,0,0,1,2.06,2,2,2,0,0,1-2,2.13,2.07,2.07,0,1,1,0-4.14Z"/><path class="cls-7" d="M55.84,335.75a2.11,2.11,0,0,1-2.05-2.16,2.08,2.08,0,0,1,2.11-2,2,2,0,0,1,2,2.14A2.05,2.05,0,0,1,55.84,335.75Z"/><path class="cls-7" d="M77.42,340.25a2,2,0,0,1-2,2,2,2,0,1,1,0-4.08A2.05,2.05,0,0,1,77.42,340.25Z"/><path class="cls-7" d="M64.46,333.62a2,2,0,0,1-2,2.07,2,2,0,1,1-.11-4A2,2,0,0,1,64.46,333.62Z"/><path class="cls-7" d="M12.41,333.7a2,2,0,0,1-2.05,2,2,2,0,1,1,0-4A2,2,0,0,1,12.41,333.7Z"/><path class="cls-7" d="M36.36,325.26a2,2,0,1,1-.09,4,2,2,0,0,1,.09-4Z"/><path class="cls-7" d="M44.85,327.19a1.94,1.94,0,0,1-1.88,2,2,2,0,1,1-.11-3.94A1.94,1.94,0,0,1,44.85,327.19Z"/><path class="cls-7" d="M5.94,333.66a2,2,0,0,1-1.94,2,2,2,0,1,1,0-3.94A2,2,0,0,1,5.94,333.66Z"/><path class="cls-7" d="M29.86,325.27a2,2,0,1,1,.05,3.94,1.92,1.92,0,0,1-2-1.94A1.94,1.94,0,0,1,29.86,325.27Z"/><path class="cls-7" d="M90.32,346.68a2,2,0,0,1-2,1.95,2,2,0,0,1-1.94-2,2,2,0,0,1,2-1.94A1.94,1.94,0,0,1,90.32,346.68Z"/><path class="cls-7" d="M93,353.19a1.94,1.94,0,0,1,2-1.95,2,2,0,1,1,0,3.92A1.93,1.93,0,0,1,93,353.19Z"/><path class="cls-7" d="M70.79,333.64a1.91,1.91,0,0,1-1.91,2,2,2,0,0,1-2-1.92,2,2,0,0,1,1.94-2A1.94,1.94,0,0,1,70.79,333.64Z"/><path class="cls-7" d="M49.38,329.2a1.92,1.92,0,0,1-1.89-2,1.94,1.94,0,0,1,2-1.91,2,2,0,1,1-.11,3.92Z"/><path class="cls-7" d="M25.31,327.26a1.92,1.92,0,0,1-2,1.94,2,2,0,0,1-2-2,2,2,0,0,1,2-1.94A1.93,1.93,0,0,1,25.31,327.26Z"/><path class="cls-7" d="M81.8,342.18a2,2,0,0,1-1.91-2,1.89,1.89,0,0,1,1.91-1.88,2,2,0,0,1,2,1.93A2,2,0,0,1,81.8,342.18Z"/><path class="cls-7" d="M18.84,327.21a1.92,1.92,0,0,1-1.94,2,1.93,1.93,0,1,1,.06-3.86A1.91,1.91,0,0,1,18.84,327.21Z"/><path class="cls-7" d="M55.83,325.31a1.93,1.93,0,1,1,.08,3.86A1.9,1.9,0,0,1,54,327.34,1.93,1.93,0,0,1,55.83,325.31Z"/><path class="cls-7" d="M77.29,333.63a1.9,1.9,0,1,1-2-1.87A1.93,1.93,0,0,1,77.29,333.63Z"/><path class="cls-7" d="M10.43,329.14a1.9,1.9,0,0,1-.1-3.79,1.9,1.9,0,0,1,.1,3.79Z"/><path class="cls-7" d="M64.3,327.24a1.93,1.93,0,0,1-1.87,1.9,1.9,1.9,0,1,1,1.87-1.9Z"/><path class="cls-7" d="M95,348.5a1.87,1.87,0,0,1-1.9-1.87,1.89,1.89,0,0,1,1.83-1.83,1.85,1.85,0,0,1,.07,3.7Z"/><path class="cls-7" d="M103.18,353.17a1.84,1.84,0,0,1-1.77,1.88,1.88,1.88,0,0,1-1.91-1.87,1.86,1.86,0,0,1,1.84-1.81A1.81,1.81,0,0,1,103.18,353.17Z"/><path class="cls-7" d="M90.23,340.25a1.86,1.86,0,0,1-1.85,1.81,1.84,1.84,0,1,1,.05-3.68A1.89,1.89,0,0,1,90.23,340.25Z"/><path class="cls-7" d="M38.15,320.71a1.79,1.79,0,0,1-1.79,1.81,1.86,1.86,0,0,1-1.86-1.78,1.89,1.89,0,0,1,1.88-1.88A1.82,1.82,0,0,1,38.15,320.71Z"/><path class="cls-7" d="M5.76,327.21A1.8,1.8,0,0,1,4,329.07a1.86,1.86,0,0,1-1.87-1.79,1.82,1.82,0,0,1,1.8-1.84A1.77,1.77,0,0,1,5.76,327.21Z"/><path class="cls-7" d="M29.92,318.87a1.82,1.82,0,0,1,1.79,1.83,1.8,1.8,0,0,1-1.81,1.81,1.86,1.86,0,0,1-1.82-1.82A1.89,1.89,0,0,1,29.92,318.87Z"/><path class="cls-7" d="M42.92,318.87a1.82,1.82,0,1,1-.06,3.64,1.8,1.8,0,0,1-1.77-1.85A1.82,1.82,0,0,1,42.92,318.87Z"/><path class="cls-7" d="M81.82,335.47a1.8,1.8,0,1,1,0-3.59,1.8,1.8,0,1,1,0,3.59Z"/><path class="cls-7" d="M23.5,318.89a1.85,1.85,0,0,1,1.66,2,1.8,1.8,0,1,1-1.66-2Z"/><path class="cls-7" d="M49.48,318.88a1.81,1.81,0,1,1-.14,3.62,1.85,1.85,0,0,1-1.71-1.82A1.87,1.87,0,0,1,49.48,318.88Z"/><path class="cls-7" d="M68.89,325.45a1.8,1.8,0,0,1,1.78,1.84A1.82,1.82,0,0,1,68.81,329a1.8,1.8,0,1,1,.08-3.59Z"/><path class="cls-7" d="M17,322.48a1.79,1.79,0,1,1,0-3.57,1.79,1.79,0,0,1,0,3.57Z"/><path class="cls-7" d="M57.63,320.73a1.8,1.8,0,0,1-1.79,1.73,1.77,1.77,0,0,1,.06-3.53A1.8,1.8,0,0,1,57.63,320.73Z"/><path class="cls-7" d="M75.38,325.51a1.73,1.73,0,1,1,0,3.46,1.73,1.73,0,0,1,0-3.46Z"/><path class="cls-7" d="M88.33,332a1.71,1.71,0,0,1,.08,3.42,1.74,1.74,0,0,1-1.76-1.73A1.77,1.77,0,0,1,88.33,332Z"/><path class="cls-7" d="M109.58,353.16A1.7,1.7,0,0,1,108,354.9a1.7,1.7,0,1,1-.08-3.4A1.69,1.69,0,0,1,109.58,353.16Z"/><path class="cls-7" d="M12.12,320.67a1.76,1.76,0,0,1-1.73,1.75,1.72,1.72,0,0,1-.06-3.43A1.74,1.74,0,0,1,12.12,320.67Z"/><path class="cls-7" d="M101.39,348.38a1.7,1.7,0,0,1-1.74-1.72,1.67,1.67,0,0,1,1.62-1.71,1.74,1.74,0,0,1,1.82,1.65A1.77,1.77,0,0,1,101.39,348.38Z"/><path class="cls-7" d="M94.9,342a1.69,1.69,0,0,1-1.68-1.77,1.67,1.67,0,0,1,1.67-1.67,1.72,1.72,0,1,1,0,3.44Z"/><path class="cls-7" d="M64.11,320.74a1.68,1.68,0,0,1-1.68,1.66,1.75,1.75,0,0,1-1.74-1.74A1.72,1.72,0,0,1,62.51,319,1.65,1.65,0,0,1,64.11,320.74Z"/><path class="cls-7" d="M83.48,327.26a1.66,1.66,0,1,1-1.67-1.69A1.69,1.69,0,0,1,83.48,327.26Z"/><path class="cls-7" d="M5.6,320.66A1.61,1.61,0,0,1,4,322.34a1.65,1.65,0,0,1-.08-3.29A1.63,1.63,0,0,1,5.6,320.66Z"/><path class="cls-7" d="M38,314.13a1.66,1.66,0,0,1-1.67,1.68,1.66,1.66,0,0,1,.07-3.32A1.67,1.67,0,0,1,38,314.13Z"/><path class="cls-7" d="M31.52,314.19a1.63,1.63,0,0,1-1.6,1.6,1.68,1.68,0,0,1-1.65-1.68,1.66,1.66,0,0,1,1.62-1.59A1.61,1.61,0,0,1,31.52,314.19Z"/><path class="cls-7" d="M42.85,312.52a1.66,1.66,0,0,1,1.68,1.64,1.68,1.68,0,0,1-1.59,1.63,1.64,1.64,0,0,1-.09-3.27Z"/><path class="cls-7" d="M70.5,320.72a1.64,1.64,0,0,1-1.74,1.6,1.58,1.58,0,0,1-1.54-1.65,1.6,1.6,0,0,1,1.72-1.6A1.64,1.64,0,0,1,70.5,320.72Z"/><path class="cls-7" d="M49.46,312.55A1.56,1.56,0,0,1,51,314.14a1.61,1.61,0,0,1-1.56,1.63,1.66,1.66,0,0,1-1.66-1.67A1.63,1.63,0,0,1,49.46,312.55Z"/><path class="cls-7" d="M25,314.19a1.67,1.67,0,0,1-1.64,1.58,1.61,1.61,0,0,1-1.58-1.72,1.57,1.57,0,0,1,1.67-1.5A1.64,1.64,0,0,1,25,314.19Z"/><path class="cls-7" d="M102.93,340.24a1.57,1.57,0,0,1-1.6,1.58,1.64,1.64,0,0,1-1.59-1.62,1.66,1.66,0,0,1,1.63-1.58A1.58,1.58,0,0,1,102.93,340.24Z"/><path class="cls-7" d="M94.91,332.1a1.53,1.53,0,0,1,1.59,1.57,1.57,1.57,0,0,1-1.58,1.6,1.64,1.64,0,0,1-1.61-1.59A1.6,1.6,0,0,1,94.91,332.1Z"/><path class="cls-7" d="M107.85,345.06a1.64,1.64,0,0,1,1.64,1.57,1.61,1.61,0,0,1-1.59,1.61,1.59,1.59,0,0,1-1.57-1.5A1.61,1.61,0,0,1,107.85,345.06Z"/><path class="cls-7" d="M77,320.75a1.57,1.57,0,0,1-1.65,1.53,1.59,1.59,0,0,1,.11-3.18A1.6,1.6,0,0,1,77,320.75Z"/><path class="cls-7" d="M18.52,314.11a1.58,1.58,0,0,1-1.58,1.6,1.56,1.56,0,0,1-.08-3.12A1.58,1.58,0,0,1,18.52,314.11Z"/><path class="cls-7" d="M57.44,314.19a1.54,1.54,0,0,1-1.64,1.52,1.56,1.56,0,1,1,.08-3.12A1.53,1.53,0,0,1,57.44,314.19Z"/><path class="cls-7" d="M114.35,354.73a1.53,1.53,0,1,1,1.52-1.52A1.51,1.51,0,0,1,114.35,354.73Z"/><path class="cls-7" d="M88.41,325.71a1.53,1.53,0,0,1,0,3.06,1.52,1.52,0,0,1-1.56-1.6A1.53,1.53,0,0,1,88.41,325.71Z"/><path class="cls-7" d="M62.45,312.63a1.52,1.52,0,1,1-.08,3,1.52,1.52,0,0,1-1.49-1.55A1.54,1.54,0,0,1,62.45,312.63Z"/><path class="cls-7" d="M10.37,312.63a1.53,1.53,0,0,1,1.55,1.5,1.51,1.51,0,0,1-1.51,1.53,1.52,1.52,0,1,1,0-3Z"/><path class="cls-7" d="M4,312.66a1.57,1.57,0,0,1,1.48,1.48,1.52,1.52,0,0,1-1.57,1.48,1.45,1.45,0,0,1-1.39-1.52A1.48,1.48,0,0,1,4,312.66Z"/><path class="cls-7" d="M81.79,322.16a1.44,1.44,0,0,1-1.42-1.47,1.42,1.42,0,0,1,1.44-1.45,1.49,1.49,0,0,1,1.51,1.53A1.51,1.51,0,0,1,81.79,322.16Z"/><path class="cls-7" d="M68.81,315.62a1.47,1.47,0,0,1,.07-2.94,1.47,1.47,0,0,1-.07,2.94Z"/><path class="cls-7" d="M101.31,335.14a1.47,1.47,0,0,1-1.41-1.51,1.5,1.5,0,0,1,1.5-1.43,1.53,1.53,0,0,1,1.42,1.52A1.5,1.5,0,0,1,101.31,335.14Z"/><path class="cls-7" d="M31.34,307.82a1.44,1.44,0,1,1-2.86-.27,1.44,1.44,0,0,1,2.86.27Z"/><path class="cls-7" d="M107.94,341.66a1.44,1.44,0,1,1-.09-2.88,1.44,1.44,0,1,1,.09,2.88Z"/><path class="cls-7" d="M44.33,307.74a1.47,1.47,0,0,1-1.49,1.43,1.46,1.46,0,1,1,1.49-1.43Z"/><path class="cls-7" d="M37.78,307.67a1.48,1.48,0,0,1-1.42,1.5,1.45,1.45,0,1,1,1.42-1.5Z"/><path class="cls-7" d="M22,307.71a1.42,1.42,0,1,1,1.35,1.44A1.46,1.46,0,0,1,22,307.71Z"/><path class="cls-7" d="M96.33,327.2a1.45,1.45,0,0,1-1.42,1.48,1.44,1.44,0,0,1,0-2.87A1.43,1.43,0,0,1,96.33,327.2Z"/><path class="cls-7" d="M50.84,307.67a1.43,1.43,0,0,1-1.42,1.48,1.44,1.44,0,0,1,0-2.87A1.44,1.44,0,0,1,50.84,307.67Z"/><path class="cls-7" d="M115.76,346.61a1.4,1.4,0,0,1-1.32,1.44,1.37,1.37,0,0,1-1.51-1.35,1.38,1.38,0,0,1,1.3-1.45A1.42,1.42,0,0,1,115.76,346.61Z"/><path class="cls-7" d="M15.56,307.73a1.35,1.35,0,0,1,1.37-1.39,1.41,1.41,0,0,1,1.4,1.37,1.45,1.45,0,0,1-1.39,1.4A1.38,1.38,0,0,1,15.56,307.73Z"/><path class="cls-7" d="M75.45,312.77a1.35,1.35,0,0,1,1.31,1.44,1.37,1.37,0,0,1-1.43,1.33A1.44,1.44,0,0,1,74,314.09,1.41,1.41,0,0,1,75.45,312.77Z"/><path class="cls-7" d="M88.36,322.06A1.34,1.34,0,0,1,87,320.65a1.36,1.36,0,0,1,1.31-1.33,1.42,1.42,0,0,1,1.41,1.36A1.4,1.4,0,0,1,88.36,322.06Z"/><path class="cls-7" d="M55.87,306.34a1.34,1.34,0,0,1,1.36,1.38,1.37,1.37,0,0,1-1.36,1.39,1.44,1.44,0,0,1-1.4-1.39A1.41,1.41,0,0,1,55.87,306.34Z"/><path class="cls-7" d="M122.23,353.16a1.34,1.34,0,0,1-1.34,1.4,1.4,1.4,0,0,1-1.39-1.37,1.38,1.38,0,0,1,1.3-1.33A1.32,1.32,0,0,1,122.23,353.16Z"/><path class="cls-7" d="M11.7,307.67A1.28,1.28,0,0,1,10.46,309a1.31,1.31,0,1,1-.09-2.61A1.29,1.29,0,0,1,11.7,307.67Z"/><path class="cls-7" d="M62.45,309a1.28,1.28,0,0,1-1.35-1.24A1.33,1.33,0,1,1,62.45,309Z"/><path class="cls-7" d="M107.86,335a1.29,1.29,0,1,1,.08-2.57,1.29,1.29,0,1,1-.08,2.57Z"/><path class="cls-7" d="M81.79,312.87a1.28,1.28,0,1,1,0,2.55,1.24,1.24,0,0,1-1.25-1.21A1.26,1.26,0,0,1,81.79,312.87Z"/><path class="cls-7" d="M115.6,340.26a1.29,1.29,0,0,1-1.34,1.26,1.34,1.34,0,0,1-1.22-1.28,1.32,1.32,0,0,1,1.3-1.31A1.28,1.28,0,0,1,115.6,340.26Z"/><path class="cls-7" d="M101.31,328.51a1.24,1.24,0,0,1-1.22-1.34,1.26,1.26,0,0,1,1.26-1.21,1.28,1.28,0,1,1,0,2.55Z"/><path class="cls-7" d="M4,309a1.22,1.22,0,0,1-1.26-1.19,1.24,1.24,0,0,1,1.23-1.34,1.32,1.32,0,0,1,1.29,1.2A1.3,1.3,0,0,1,4,309Z"/><path class="cls-7" d="M70.08,307.72A1.24,1.24,0,0,1,68.87,309a1.28,1.28,0,0,1-1.28-1.19,1.3,1.3,0,0,1,1.28-1.31A1.27,1.27,0,0,1,70.08,307.72Z"/><path class="cls-7" d="M119.65,346.7a1.2,1.2,0,0,1,1.18-1.27,1.23,1.23,0,1,1,.1,2.46A1.21,1.21,0,0,1,119.65,346.7Z"/><path class="cls-7" d="M93.69,320.75a1.19,1.19,0,0,1,1.19-1.27,1.25,1.25,0,0,1,1.3,1.17A1.26,1.26,0,0,1,95,321.93,1.22,1.22,0,0,1,93.69,320.75Z"/><path class="cls-7" d="M36.3,302.37a1.2,1.2,0,1,1,.14-2.4,1.2,1.2,0,0,1-.14,2.4Z"/><path class="cls-7" d="M42.87,300a1.18,1.18,0,1,1,0,2.36,1.18,1.18,0,1,1,0-2.36Z"/><path class="cls-7" d="M30,302.35a1.18,1.18,0,1,1-.1-2.36,1.18,1.18,0,1,1,.1,2.36Z"/><path class="cls-7" d="M89.56,314.13a1.23,1.23,0,0,1-1.13,1.21,1.19,1.19,0,1,1,0-2.38A1.22,1.22,0,0,1,89.56,314.13Z"/><path class="cls-7" d="M50.59,301.22a1.11,1.11,0,0,1-1.18,1.11,1.17,1.17,0,0,1-1.16-1.16A1.19,1.19,0,0,1,49.51,300,1.13,1.13,0,0,1,50.59,301.22Z"/><path class="cls-7" d="M23.37,300a1.18,1.18,0,0,1,1.17,1.15,1.17,1.17,0,0,1-1.24,1.18,1.17,1.17,0,0,1,.07-2.33Z"/><path class="cls-7" d="M16.93,300a1.15,1.15,0,1,1,0,2.3,1.15,1.15,0,0,1,0-2.3Z"/><path class="cls-7" d="M57,301.22a1.1,1.1,0,0,1-1.11,1.08,1.17,1.17,0,0,1-1.15-1.18A1.2,1.2,0,0,1,55.86,300,1.12,1.12,0,0,1,57,301.22Z"/><path class="cls-7" d="M76.53,307.68a1.15,1.15,0,0,1-1.1,1.2,1.22,1.22,0,0,1-1.2-1.12,1.17,1.17,0,0,1,1.12-1.19A1.12,1.12,0,0,1,76.53,307.68Z"/><path class="cls-7" d="M128.45,353.16a1.17,1.17,0,0,1-1.1,1.21,1.22,1.22,0,0,1-1.2-1.12,1.16,1.16,0,0,1,1.11-1.19A1.12,1.12,0,0,1,128.45,353.16Z"/><path class="cls-7" d="M114.28,332.56a1.15,1.15,0,0,1,1.2,1.12,1.17,1.17,0,0,1-1.09,1.12,1.11,1.11,0,0,1-1.17-1.12A1.09,1.09,0,0,1,114.28,332.56Z"/><path class="cls-7" d="M107.85,326.13a1.15,1.15,0,0,1,1.2,1.12,1.18,1.18,0,0,1-1.09,1.12,1.12,1.12,0,0,1-1.18-1.13A1.09,1.09,0,0,1,107.85,326.13Z"/><path class="cls-7" d="M101.34,319.6a1.1,1.1,0,0,1,0,2.19,1.1,1.1,0,0,1,0-2.19Z"/><path class="cls-7" d="M10.41,302.27a1.12,1.12,0,0,1-1.1-1.08,1.1,1.1,0,0,1,1-1.12,1.1,1.1,0,0,1,.05,2.2Z"/><path class="cls-7" d="M120.84,341.32a1.11,1.11,0,0,1-1-1.14,1.08,1.08,0,1,1,2.16.08A1.11,1.11,0,0,1,120.84,341.32Z"/><path class="cls-7" d="M63.49,301.17a1.08,1.08,0,1,1-2.16,0,1.13,1.13,0,0,1,1.08-1.1A1.11,1.11,0,0,1,63.49,301.17Z"/><path class="cls-7" d="M82.89,307.67a1.05,1.05,0,0,1-1,1.09,1.05,1.05,0,0,1-.22-2.09A1.06,1.06,0,0,1,82.89,307.67Z"/><path class="cls-7" d="M96,314.19a1.07,1.07,0,0,1-1.06,1,1,1,0,1,1,.09-2.06A1.08,1.08,0,0,1,96,314.19Z"/><path class="cls-7" d="M68.85,302.16a1,1,0,1,1,.05-2,1,1,0,0,1-.05,2Z"/><path class="cls-7" d="M127.3,345.67a1,1,0,0,1,1,1,1,1,0,0,1-1.05,1,1,1,0,0,1-1-.95A1,1,0,0,1,127.3,345.67Z"/><path class="cls-7" d="M4,300.18a1,1,0,0,1,1,1,1,1,0,0,1-1.09.94,1,1,0,0,1,.1-2Z"/><path class="cls-7" d="M89.31,307.66a1,1,0,0,1-.91,1,.91.91,0,0,1-.93-.82.9.9,0,0,1,.82-1A1,1,0,0,1,89.31,307.66Z"/><path class="cls-7" d="M43.83,294.7a.94.94,0,0,1-.92.95.89.89,0,0,1-.93-.82.92.92,0,0,1,.85-1A1,1,0,0,1,43.83,294.7Z"/><path class="cls-7" d="M36.33,293.81a.93.93,0,0,1,.07,1.85.93.93,0,0,1-1-.89A1,1,0,0,1,36.33,293.81Z"/><path class="cls-7" d="M30.81,294.73a.87.87,0,0,1-.93.92.94.94,0,0,1-.91-1,1,1,0,0,1,.9-.88A.89.89,0,0,1,30.81,294.73Z"/><path class="cls-7" d="M115.27,327.2a1,1,0,0,1-.92,1,.92.92,0,0,1-.92-.84.9.9,0,0,1,.84-1A1,1,0,0,1,115.27,327.2Z"/><path class="cls-7" d="M24.27,294.73a.93.93,0,0,1-.95.91.9.9,0,0,1-.84-.9.91.91,0,0,1,.83-.91A1,1,0,0,1,24.27,294.73Z"/><path class="cls-7" d="M75.38,302.07a.94.94,0,0,1-.9-1,1,1,0,0,1,.92-.84.92.92,0,0,1,.88,1A.9.9,0,0,1,75.38,302.07Z"/><path class="cls-7" d="M50.32,294.71a.89.89,0,0,1-.81.93.94.94,0,0,1-1-.88,1,1,0,0,1,.95-.93A.91.91,0,0,1,50.32,294.71Z"/><path class="cls-7" d="M108.81,320.7a.94.94,0,0,1-1,.9.91.91,0,0,1,0-1.81A1,1,0,0,1,108.81,320.7Z"/><path class="cls-7" d="M133.81,352.32a.94.94,0,0,1,1,.81.93.93,0,0,1-.92,1,.89.89,0,0,1,0-1.77Z"/><path class="cls-7" d="M121.76,333.67a.86.86,0,0,1-.84.9,1,1,0,0,1-1-.94.93.93,0,0,1,.93-.83A.83.83,0,0,1,121.76,333.67Z"/><path class="cls-7" d="M17.8,294.78a.93.93,0,0,1-.91.84.91.91,0,0,1-.82-.93.89.89,0,0,1,.9-.83A.91.91,0,0,1,17.8,294.78Z"/><path class="cls-7" d="M128.15,340.17a.83.83,0,1,1-1.66.11.85.85,0,0,1,.72-.89A.86.86,0,0,1,128.15,340.17Z"/><path class="cls-7" d="M55.86,293.89a.87.87,0,0,1,.85.89.89.89,0,0,1-.82.81.85.85,0,0,1,0-1.7Z"/><path class="cls-7" d="M102.19,314.26a.85.85,0,0,1-1,.7.81.81,0,0,1-.65-.92.8.8,0,0,1,1-.7A.84.84,0,0,1,102.19,314.26Z"/><path class="cls-7" d="M10.18,294c.65,0,1,.41,1,.82a.74.74,0,0,1-.78.69.68.68,0,0,1-.73-.81A2.22,2.22,0,0,1,10.18,294Z"/><path class="cls-7" d="M82.61,301.35a2.14,2.14,0,0,1-.71.54.67.67,0,0,1-.83-.7.69.69,0,0,1,.68-.76C82.2,300.38,82.59,300.71,82.61,301.35Z"/><path class="cls-7" d="M63.46,294.73c-.45.35-.69.65-1,.73s-.82-.29-.83-.72a.71.71,0,0,1,.83-.73A4.63,4.63,0,0,1,63.46,294.73Z"/><path class="cls-7" d="M95.91,307.72c-.43.33-.67.64-1,.73s-.8-.38-.75-.79A.67.67,0,0,1,95,307C95.24,307.05,95.49,307.39,95.91,307.72Z"/><path class="cls-7" d="M134.6,346.67a.71.71,0,0,1-.77.7.68.68,0,0,1-.69-.75.67.67,0,0,1,.75-.68A.69.69,0,0,1,134.6,346.67Z"/><path class="cls-7" d="M4.63,294.72a.65.65,0,0,1-.7.7c-.39,0-.79-.38-.66-.72a1.2,1.2,0,0,1,.64-.63C4.28,293.94,4.62,294.31,4.63,294.72Z"/><path class="cls-7" d="M68.84,293.8c.31.42.58.64.66.91s-.33.74-.7.69-.66-.31-.58-.69S68.55,294.22,68.84,293.8Z"/><path class="cls-7" d="M115.24,320.64c-.37.32-.57.62-.84.69s-.64-.15-.71-.54.25-.82.62-.74A3.42,3.42,0,0,1,115.24,320.64Z"/><path class="cls-7" d="M121.83,327.3c-.47.28-.72.53-1,.57a.57.57,0,0,1-.62-.66.55.55,0,0,1,.68-.58C121.17,326.69,121.39,327,121.83,327.3Z"/><path class="cls-7" d="M127.37,334.52c-.31-.35-.58-.52-.64-.76a.52.52,0,0,1,.54-.68c.42,0,.69.21.64.61C127.88,333.93,127.63,334.14,127.37,334.52Z"/><path class="cls-7" d="M108.76,314.11c-.36.29-.54.55-.78.61a.52.52,0,0,1-.69-.54c0-.41.23-.68.63-.61C108.16,313.61,108.37,313.85,108.76,314.11Z"/><path class="cls-7" d="M88.38,300.34c.26.4.54.63.51.83s-.34.39-.52.58c-.2-.19-.52-.37-.55-.59S88.1,300.73,88.38,300.34Z"/><path class="cls-7" d="M30.72,288.27c-.45.22-.69.43-.92.41s-.39-.36-.37-.54.33-.48.48-.46S30.33,288,30.72,288.27Z"/><path class="cls-7" d="M37.16,288.12c-.4.3-.6.55-.83.57s-.46-.28-.47-.45a.69.69,0,0,1,.38-.55C36.47,287.68,36.71,287.9,37.16,288.12Z"/><path class="cls-7" d="M102.17,307.64c-.4.3-.6.56-.82.58s-.46-.28-.48-.45.23-.54.38-.55S101.72,307.42,102.17,307.64Z"/><path class="cls-7" d="M141.22,353.13c-.4.3-.6.55-.82.58s-.46-.29-.48-.46.23-.53.38-.54S140.77,352.91,141.22,353.13Z"/><path class="cls-7" d="M42.92,289c-.26-.34-.52-.55-.54-.77s.29-.35.46-.53c.19.18.47.33.54.55S43.16,288.59,42.92,289Z"/><path class="cls-7" d="M75.33,295.43c-.2-.32-.44-.53-.42-.7a.74.74,0,0,1,.48-.48.43.43,0,0,1,.51.55C75.86,295,75.6,295.15,75.33,295.43Z"/><path class="cls-7" d="M50,288.15c-.21.22-.38.52-.49.49s-.38-.27-.57-.42c.17-.17.32-.41.52-.48S49.78,288,50,288.15Z"/><path class="cls-7" d="M24.07,288.17c-.35.24-.54.45-.74.47s-.39-.27-.4-.43.24-.47.36-.47S23.7,288,24.07,288.17Z"/><path class="cls-7" d="M133.91,340.86c-.24-.28-.5-.46-.47-.57a.79.79,0,0,1,.43-.5c.09,0,.43.23.43.37S134.1,340.55,133.91,340.86Z"/><path class="cls-7" d="M56.44,288.2c-.28.17-.44.34-.61.35s-.25-.2-.38-.31c.13-.15.25-.38.4-.41S56.17,288,56.44,288.2Z"/><path class="cls-7" d="M16.92,287.66l.43.55c-.15.12-.3.3-.48.34s-.33-.22-.32-.32S16.74,287.91,16.92,287.66Z"/><path class="cls-7" d="M81.88,295.23c-.18-.22-.33-.34-.36-.48s.16-.33.22-.32.38.13.42.25S82,295,81.88,295.23Z"/><path class="cls-7" d="M140.91,346.68c-.25.15-.42.33-.54.3s-.24-.25-.27-.4.21-.27.3-.25S140.68,346.51,140.91,346.68Z"/><path class="cls-7" d="M62.88,288.35a1.76,1.76,0,0,1-.6.12c-.09,0-.22-.28-.19-.32s.27-.27.4-.26S62.69,288.12,62.88,288.35Z"/><path class="cls-7" d="M10.88,288.13c-.23.19-.34.34-.49.38s-.31-.16-.3-.23.13-.37.24-.4S10.62,288,10.88,288.13Z"/><path class="cls-7" d="M95.43,301.16c-.24.17-.39.36-.51.34s-.26-.23-.31-.38.19-.28.28-.27S95.18,301,95.43,301.16Z"/><path class="cls-7" d="M121.38,320.7c-.24.16-.4.35-.52.32s-.25-.23-.29-.38.2-.28.29-.27S121.14,320.54,121.38,320.7Z"/><path class="cls-7" d="M127.26,326.82c.16.21.32.33.31.42s-.18.21-.3.26-.2-.13-.2-.2A1.75,1.75,0,0,1,127.26,326.82Z"/><path class="cls-7" d="M114.74,314.11c-.2.15-.32.32-.41.3s-.21-.18-.25-.3.13-.22.2-.21S114.52,314,114.74,314.11Z"/></g></g><path class="cls-8" d="M213.73,22.44h-7.68L189.52,57.35a16.18,16.18,0,0,1-14.63,9.26H67a16.17,16.17,0,0,1-14.63-9.26L35.85,22.44H28.17a8.33,8.33,0,0,0-8.33,8.33V322.88a8.33,8.33,0,0,0,8.33,8.33H60l8.85-18.69a12.29,12.29,0,0,1,11.12-7h82a12.29,12.29,0,0,1,11.12,7l8.85,18.69h31.81a8.33,8.33,0,0,0,8.33-8.33V30.77A8.33,8.33,0,0,0,213.73,22.44Z"/><path class="cls-9" d="M213.73,22.44h-7.68L189.52,57.35a16.18,16.18,0,0,1-14.63,9.26H67a16.17,16.17,0,0,1-14.63-9.26L35.85,22.44H28.17a8.33,8.33,0,0,0-8.33,8.33V322.88a8.33,8.33,0,0,0,8.33,8.33H60l8.85-18.69a12.29,12.29,0,0,1,11.12-7h82a12.29,12.29,0,0,1,11.12,7l8.85,18.69h31.81a8.33,8.33,0,0,0,8.33-8.33V30.77A8.33,8.33,0,0,0,213.73,22.44Z"/><text class="cls-10" transform="translate(61.54 160.78)">Clear the <tspan x="-30.55" y="36">number order </tspan><tspan x="-16.04" y="72">from (1-10)</tspan></text><path class="cls-1" d="M189.52,57.35,203,28.81l-37.8,37.8h9.66A16.18,16.18,0,0,0,189.52,57.35Z"/><path class="cls-11" d="M222.06,30.77a8.33,8.33,0,0,0-8.33-8.33h-7.68l-3,6.37L189.52,57.35a16.18,16.18,0,0,1-14.63,9.26h-9.66L19.84,212v84.34L222.06,94.12Z"/><polygon class="cls-11" points="85.11 66.61 19.84 131.88 19.84 155.88 109.11 66.61 85.11 66.61"/><polygon class="cls-12" points="206.05 22.44 203.03 28.81 205.94 22.67 206.05 22.44"/><path class="cls-13" d="M136.84,31.76c-.09.55-.15,1.1-.27,1.64a9.85,9.85,0,0,1-1.24,3.13.3.3,0,0,0,0,.43.73.73,0,0,1,0,1,11.72,11.72,0,0,1-2.55,2.52.84.84,0,0,1-1,0,.33.33,0,0,0-.41,0,10.69,10.69,0,0,1-11.12-.3L120,40a2.86,2.86,0,0,1-.22.3l-11,11a2.18,2.18,0,0,1-2.34.65,2.1,2.1,0,0,1-1-3.25,3.55,3.55,0,0,1,.41-.46q5.46-5.48,10.94-10.93a2.31,2.31,0,0,1,.29-.24A10.8,10.8,0,0,1,116.58,26c.14-.27.23-.48,0-.77a.73.73,0,0,1,.07-.9,11.76,11.76,0,0,1,2.47-2.51.81.81,0,0,1,1.06,0,.31.31,0,0,0,.28,0,11.09,11.09,0,0,1,4.78-1.51.19.19,0,0,0,.08,0h1.49a.61.61,0,0,0,.18.05,10.42,10.42,0,0,1,5,1.76,10.61,10.61,0,0,1,4.52,6.48c.13.56.2,1.14.3,1.71Zm-3.06,4.17a9.11,9.11,0,0,0-12.61-12.57c.84,1.06,1.66,2.14,2.54,3.17a65.24,65.24,0,0,0,5.62,5.78.85.85,0,0,1,.15,1.24.83.83,0,0,1-1.24,0c-.75-.71-1.51-1.41-2.25-2.14a52.24,52.24,0,0,1-6-6.94l-.58-.85-.48.54c-.2.24-.56.47-.56.71s.3.56.49.82a61.91,61.91,0,0,0,10,10.51c1,.88,2.15,1.67,3.24,2.5a.36.36,0,0,0,.33,0c.38-.32.74-.66,1.13-1L133,37.3c-.8-.6-1.61-1.19-2.41-1.8a.82.82,0,0,1-.27-1,.8.8,0,0,1,.91-.43,1.38,1.38,0,0,1,.48.25ZM130,39.25a67.52,67.52,0,0,1-12.18-12.18A9.1,9.1,0,0,0,130,39.25Zm-11.94-.92c-.06.06-.11.09-.15.14q-5.51,5.51-11,11a1.07,1.07,0,0,0-.14.16.45.45,0,0,0,0,.64.44.44,0,0,0,.62,0,1.79,1.79,0,0,0,.25-.23l10.85-10.84a1.22,1.22,0,0,1,.3-.16Z"/><g class="cls-14"><g class="cls-6"><path class="cls-7" d="M237.75,351.22a3.94,3.94,0,0,1,2.75-2.66c-1.73-.66-2.72-1.78-2.67-3.34A3.41,3.41,0,0,1,240.5,342a3.82,3.82,0,0,1-2.1-1.58,3.09,3.09,0,0,1-.27-2.55,3.06,3.06,0,0,1,3.18-2.12,3.23,3.23,0,0,1,2.93,2.79c.22,1.32-.82,2.71-2.72,3.46a3.71,3.71,0,0,1,2.69,2.46,11.1,11.1,0,0,1,1.1-1.52,9.56,9.56,0,0,1,1.54-1,3.65,3.65,0,0,1-2-1.52,3.14,3.14,0,0,1,2.88-4.72,3.16,3.16,0,0,1,2.91,2.65c.26,1.53-.62,2.83-2.6,3.65a3.72,3.72,0,0,1,2.78,2.94,3.69,3.69,0,0,1,2.86-2.91c-2.13-.9-3-2.22-2.63-3.81a3.1,3.1,0,0,1,6.09.09c.24,1.69-.6,2.92-2.7,3.68a3.42,3.42,0,0,1,2.88,3.39c0,1.31-.84,2.25-2.56,3.12a3.66,3.66,0,0,1,2.52,2.54,17,17,0,0,1,1.69-1.92,2.79,2.79,0,0,1,2.42-.41,3.28,3.28,0,0,1,2.46,2.86c.13,1.37-.7,2.54-2.54,3.45a3.57,3.57,0,0,1,2.5,2.57,13.93,13.93,0,0,1,1.55-1.91,2.6,2.6,0,0,1,2.39-.49,3.12,3.12,0,0,1-.09,6.11c-1.63.3-2.87-.51-3.77-2.56a3.59,3.59,0,0,1-2.89,2.71l.8.36a3.19,3.19,0,0,1-.71,6.14,3.24,3.24,0,0,1-3.37-1.88c-.09-.19-.17-.4-.34-.8a3.7,3.7,0,0,1-2.82,2.81c2,.83,3,2.15,2.68,3.7a3.16,3.16,0,0,1-3.08,2.72,3.21,3.21,0,0,1-3.22-2.57c-.37-1.57.55-2.94,2.63-3.85a3.83,3.83,0,0,1-2.73-2.56,3.79,3.79,0,0,1-2.62,2.55c1.63.73,2.7,1.79,2.52,3.57a3.24,3.24,0,0,1-2.69,2.9c2.17,1.13,2.91,2.3,2.52,3.89a3.11,3.11,0,0,1-6,.15c-.44-1.67.29-2.87,2.47-4.05a3.46,3.46,0,0,1-2.62-2.45c-1.36,2.12-2.43,2.72-4.07,2.33a3.34,3.34,0,0,1-2.45-3c-.07-1.37.89-2.56,2.61-3.26a9.41,9.41,0,0,1-1.63-1,9.66,9.66,0,0,1-1.09-1.56c-.92,1.84-2.16,2.66-3.65,2.41a3.38,3.38,0,0,1-2.77-2.85c-.19-1.43.72-2.7,2.7-3.6a3.71,3.71,0,0,1-2.71-2.75c-1,2.1-2.27,2.91-3.93,2.52a3.13,3.13,0,0,1,0-6.1c1.59-.39,2.87.41,3.91,2.48a3.6,3.6,0,0,1,2.6-2.64,3.76,3.76,0,0,1-2.63-2.83c-.78,2.06-2.05,3-3.68,2.69a3.12,3.12,0,0,1,0-6.15c1.63-.3,2.94.62,3.7,2.66.52-1.64,1.46-2.73,3.22-2.77S237.13,349.59,237.75,351.22ZM255,361.58a4.31,4.31,0,0,1,2.44,2.8,3.74,3.74,0,0,1,2.88-2.86,3.66,3.66,0,0,1-2.9-2.55A4.32,4.32,0,0,1,255,361.58Zm-1.53-13.1a3.79,3.79,0,0,1-2.69-2.87,3.61,3.61,0,0,1-2.37,2.83,10.93,10.93,0,0,1,1.45,1.05,9.25,9.25,0,0,1,1,1.33A4.59,4.59,0,0,1,253.46,348.48ZM237.72,359a3.68,3.68,0,0,1-2.83,2.49,3.94,3.94,0,0,1,2.86,2.63,4.4,4.4,0,0,1,2.46-2.62A4.14,4.14,0,0,1,237.72,359Zm22.38-4a3.64,3.64,0,0,1-2.69-2.72,4.1,4.1,0,0,1-2.27,2.66,12.29,12.29,0,0,1,1.38,1.09,9.2,9.2,0,0,1,.94,1.42A3.63,3.63,0,0,1,260.1,355.05Zm-18.41,13.09a4,4,0,0,1,2.62,2.65,3.71,3.71,0,0,1,2.62-2.65,3.92,3.92,0,0,1-2.66-2.34A4,4,0,0,1,241.69,368.14Zm4.79-19.75a3.59,3.59,0,0,1-2.17-2.47,3.92,3.92,0,0,1-2.34,2.51l2.3,2Zm-8.86,4.32a3.52,3.52,0,0,1-2.48,2.35,3.54,3.54,0,0,1,2.48,2.2l2.09-2.22Zm11.19,9a9.25,9.25,0,0,1,1.13.93,10.93,10.93,0,0,1,.94,1.4,3.55,3.55,0,0,1,2.13-2.31l-2.19-2.05Zm3.95-6.61-1.95-2-1.8,2,1.8,1.91Zm-6.6,6.54-1.89-1.81-2,1.79c.67.63,1.38,1.32,2,1.94ZM242.38,355l1.88,1.76,1.8-1.76-1.78-1.87Z"/><path class="cls-7" d="M237.66,345.28a3.06,3.06,0,0,1-3.09,3.19,3.11,3.11,0,0,1-3.2-3.21,3.32,3.32,0,0,1,3.17-3.18A3.27,3.27,0,0,1,237.66,345.28Z"/><path class="cls-7" d="M234.55,341.91a3,3,0,1,1,0-6.09,3,3,0,1,1,0,6.09Z"/><path class="cls-7" d="M228.09,342.25A3,3,0,1,1,225,345.3,3,3,0,0,1,228.09,342.25Z"/><path class="cls-7" d="M228.09,335.87a3,3,0,1,1,0,6,3,3,0,0,1,0-6Z"/><path class="cls-7" d="M244.06,332.35a3,3,0,0,1-3,3,3,3,0,1,1,.07-6A3,3,0,0,1,244.06,332.35Z"/><path class="cls-7" d="M221.58,348.84a3,3,0,1,1-.12,6,3,3,0,0,1,.12-6Z"/><path class="cls-7" d="M234.53,335.28a2.94,2.94,0,0,1-2.95-3,2.9,2.9,0,0,1,3-2.91,3,3,0,1,1-.07,5.91Z"/><path class="cls-7" d="M221.59,348.27a3,3,0,1,1,0-5.95,3,3,0,0,1,0,5.95Z"/><path class="cls-7" d="M224.46,338.9a2.94,2.94,0,0,1-3,2.88,2.92,2.92,0,1,1,3-2.88Z"/><path class="cls-7" d="M231,332.34a2.86,2.86,0,0,1-3,2.87,2.9,2.9,0,0,1,.05-5.79A2.86,2.86,0,0,1,231,332.34Z"/><path class="cls-7" d="M241.11,328.77A2.89,2.89,0,0,1,241,323a2.89,2.89,0,1,1,.12,5.77Z"/><path class="cls-7" d="M215.07,349a2.89,2.89,0,1,1,.05,5.78,2.89,2.89,0,0,1-.05-5.78Z"/><path class="cls-7" d="M237.38,325.91a2.85,2.85,0,0,1-2.85,2.84,2.87,2.87,0,1,1,.06-5.73A2.85,2.85,0,0,1,237.38,325.91Z"/><path class="cls-7" d="M215,348.15a2.85,2.85,0,1,1,.34-5.69,2.86,2.86,0,0,1,2.67,3A2.9,2.9,0,0,1,215,348.15Z"/><path class="cls-7" d="M221.49,335.16a2.85,2.85,0,0,1,.12-5.69,2.85,2.85,0,0,1-.12,5.69Z"/><path class="cls-7" d="M217.93,338.89a2.81,2.81,0,1,1-2.72-2.82A2.79,2.79,0,0,1,217.93,338.89Z"/><path class="cls-7" d="M230.91,325.93a2.82,2.82,0,0,1-5.63,0,2.82,2.82,0,1,1,5.63,0Z"/><path class="cls-7" d="M205.81,351.89a2.77,2.77,0,0,1,2.69-2.84,2.8,2.8,0,1,1,.09,5.59A2.77,2.77,0,0,1,205.81,351.89Z"/><path class="cls-7" d="M243.85,319.31a2.73,2.73,0,0,1-2.72,2.8,2.78,2.78,0,1,1,0-5.55A2.75,2.75,0,0,1,243.85,319.31Z"/><path class="cls-7" d="M234.58,322.09a2.76,2.76,0,1,1,0-5.51,2.76,2.76,0,0,1,0,5.51Z"/><path class="cls-7" d="M208.57,348.05a2.76,2.76,0,0,1,0-5.51,2.76,2.76,0,1,1,0,5.51Z"/><path class="cls-7" d="M217.85,332.31a2.71,2.71,0,0,1-2.75,2.75,2.79,2.79,0,0,1-2.75-2.79,2.75,2.75,0,0,1,2.73-2.68A2.68,2.68,0,0,1,217.85,332.31Z"/><path class="cls-7" d="M224.28,325.94a2.72,2.72,0,0,1-2.81,2.69,2.8,2.8,0,0,1-2.69-2.74,2.77,2.77,0,0,1,2.79-2.74A2.69,2.69,0,0,1,224.28,325.94Z"/><path class="cls-7" d="M205.87,338.87a2.71,2.71,0,1,1,2.68,2.71A2.73,2.73,0,0,1,205.87,338.87Z"/><path class="cls-7" d="M225.39,319.37a2.71,2.71,0,1,1,2.71,2.69A2.75,2.75,0,0,1,225.39,319.37Z"/><path class="cls-7" d="M215.06,328.54a2.66,2.66,0,0,1,.06-5.32,2.66,2.66,0,1,1-.06,5.32Z"/><path class="cls-7" d="M241.11,315.44a2.65,2.65,0,0,1-.06-5.3,2.65,2.65,0,1,1,.06,5.3Z"/><path class="cls-7" d="M202,354.49a2.65,2.65,0,0,1,.06-5.3,2.65,2.65,0,1,1-.06,5.3Z"/><path class="cls-7" d="M208.58,329.67a2.65,2.65,0,0,1,0,5.29,2.65,2.65,0,1,1,0-5.29Z"/><path class="cls-7" d="M218.92,319.37a2.63,2.63,0,0,1,2.57-2.68,2.68,2.68,0,0,1,2.73,2.67,2.71,2.71,0,0,1-2.66,2.64A2.65,2.65,0,0,1,218.92,319.37Z"/><path class="cls-7" d="M237.15,312.79a2.61,2.61,0,0,1-2.59,2.64,2.64,2.64,0,1,1,0-5.28A2.61,2.61,0,0,1,237.15,312.79Z"/><path class="cls-7" d="M202.07,342.67a2.65,2.65,0,0,1,2.61,2.64,2.69,2.69,0,0,1-2.64,2.63,2.64,2.64,0,1,1,0-5.27Z"/><path class="cls-7" d="M230.69,312.75a2.61,2.61,0,0,1-2.58,2.65,2.64,2.64,0,0,1-2.62-2.63,2.67,2.67,0,0,1,2.54-2.6A2.62,2.62,0,0,1,230.69,312.75Z"/><path class="cls-7" d="M202.07,341.45a2.59,2.59,0,0,1-.15-5.17,2.59,2.59,0,1,1,.15,5.17Z"/><path class="cls-7" d="M211.15,325.88a2.58,2.58,0,1,1-2.52-2.59A2.61,2.61,0,0,1,211.15,325.88Z"/><path class="cls-7" d="M215.13,321.9a2.57,2.57,0,1,1,2.56-2.52A2.54,2.54,0,0,1,215.13,321.9Z"/><path class="cls-7" d="M198.11,351.81a2.51,2.51,0,0,1-2.51,2.58,2.59,2.59,0,0,1-2.56-2.56,2.56,2.56,0,0,1,2.48-2.52A2.5,2.5,0,0,1,198.11,351.81Z"/><path class="cls-7" d="M204.54,332.34a2.52,2.52,0,0,1-2.56,2.53,2.6,2.6,0,0,1-2.5-2.51,2.56,2.56,0,0,1,2.53-2.58A2.5,2.5,0,0,1,204.54,332.34Z"/><path class="cls-7" d="M224.07,312.9a2.52,2.52,0,0,1-2.54,2.44,2.59,2.59,0,0,1-2.53-2.59,2.56,2.56,0,0,1,2.62-2.49A2.5,2.5,0,0,1,224.07,312.9Z"/><path class="cls-7" d="M243.6,306.38a2.53,2.53,0,0,1-2.57,2.53,2.59,2.59,0,0,1-2.5-2.51,2.56,2.56,0,0,1,2.53-2.58A2.51,2.51,0,0,1,243.6,306.38Z"/><path class="cls-7" d="M198.09,345.29a2.49,2.49,0,0,1-2.44,2.52,2.55,2.55,0,0,1-2.59-2.51,2.58,2.58,0,0,1,2.58-2.53A2.51,2.51,0,0,1,198.09,345.29Z"/><path class="cls-7" d="M232,306.31a2.45,2.45,0,0,1,2.5-2.45,2.53,2.53,0,0,1,2.54,2.55,2.58,2.58,0,0,1-2.53,2.47A2.5,2.5,0,0,1,232,306.31Z"/><path class="cls-7" d="M206.09,319.33a2.52,2.52,0,0,1,2.46-2.5,2.56,2.56,0,0,1,2.52,2.46,2.52,2.52,0,0,1-2.53,2.54A2.5,2.5,0,0,1,206.09,319.33Z"/><path class="cls-7" d="M198.07,338.81a2.5,2.5,0,0,1-2.39,2.55,2.5,2.5,0,1,1-.11-5A2.5,2.5,0,0,1,198.07,338.81Z"/><path class="cls-7" d="M228.12,308.83a2.47,2.47,0,1,1,0-4.94,2.47,2.47,0,1,1,0,4.94Z"/><path class="cls-7" d="M202,328.34a2.46,2.46,0,1,1,2.51-2.42A2.44,2.44,0,0,1,202,328.34Z"/><path class="cls-7" d="M215.16,315.25a2.46,2.46,0,1,1,2.43-2.5A2.46,2.46,0,0,1,215.16,315.25Z"/><path class="cls-7" d="M221.57,308.78a2.37,2.37,0,0,1-2.43-2.35,2.4,2.4,0,0,1,2.4-2.5,2.43,2.43,0,1,1,0,4.85Z"/><path class="cls-7" d="M195.59,334.74a2.43,2.43,0,0,1,0-4.85,2.43,2.43,0,1,1,0,4.85Z"/><path class="cls-7" d="M191.44,351.86a2.38,2.38,0,0,1-2.41,2.39,2.41,2.41,0,1,1,0-4.82A2.39,2.39,0,0,1,191.44,351.86Z"/><path class="cls-7" d="M238.69,299.8a2.35,2.35,0,0,1,2.4-2.39,2.44,2.44,0,0,1,2.42,2.42,2.47,2.47,0,0,1-2.44,2.4A2.4,2.4,0,0,1,238.69,299.8Z"/><path class="cls-7" d="M211,312.8a2.37,2.37,0,0,1-2.41,2.38,2.4,2.4,0,0,1,0-4.79A2.4,2.4,0,0,1,211,312.8Z"/><path class="cls-7" d="M191.42,345.3a2.34,2.34,0,0,1-2.4,2.37,2.38,2.38,0,1,1,0-4.75A2.35,2.35,0,0,1,191.42,345.3Z"/><path class="cls-7" d="M234.52,297.44a2.38,2.38,0,0,1,.08,4.75,2.38,2.38,0,1,1-.08-4.75Z"/><path class="cls-7" d="M199.65,319.37A2.33,2.33,0,0,1,202,317a2.38,2.38,0,0,1,.07,4.75A2.36,2.36,0,0,1,199.65,319.37Z"/><path class="cls-7" d="M195.58,328.26a2.38,2.38,0,0,1,0-4.76,2.38,2.38,0,1,1,0,4.76Z"/><path class="cls-7" d="M215.08,308.74a2.39,2.39,0,0,1,.08-4.77,2.39,2.39,0,0,1-.08,4.77Z"/><path class="cls-7" d="M228.14,302.15a2.34,2.34,0,1,1,2.31-2.35A2.34,2.34,0,0,1,228.14,302.15Z"/><path class="cls-7" d="M189.05,341.2a2.34,2.34,0,1,1,2.35-2.31A2.33,2.33,0,0,1,189.05,341.2Z"/><path class="cls-7" d="M223.84,299.76a2.26,2.26,0,0,1-2.27,2.35,2.31,2.31,0,0,1-2.34-2.31,2.34,2.34,0,0,1,2.24-2.3A2.28,2.28,0,0,1,223.84,299.76Z"/><path class="cls-7" d="M186.75,332.32a2.28,2.28,0,0,1,2.33-2.31,2.34,2.34,0,0,1,2.29,2.37,2.37,2.37,0,0,1-2.29,2.26A2.31,2.31,0,0,1,186.75,332.32Z"/><path class="cls-7" d="M197.86,319.37a2.26,2.26,0,0,1-2.25,2.26,2.3,2.3,0,1,1,0-4.59A2.27,2.27,0,0,1,197.86,319.37Z"/><path class="cls-7" d="M241.06,295.66a2.29,2.29,0,1,1,.09-4.57,2.29,2.29,0,0,1-.09,4.57Z"/><path class="cls-7" d="M204.31,312.79a2.28,2.28,0,0,1-2.34,2.3,2.3,2.3,0,1,1,.1-4.59A2.27,2.27,0,0,1,204.31,312.79Z"/><path class="cls-7" d="M206.3,306.33a2.23,2.23,0,0,1,2.25-2.24,2.29,2.29,0,0,1,2.33,2.3,2.32,2.32,0,0,1-2.28,2.25A2.27,2.27,0,0,1,206.3,306.33Z"/><path class="cls-7" d="M182.64,354.11a2.26,2.26,0,0,1-.11-4.52,2.26,2.26,0,1,1,.11,4.52Z"/><path class="cls-7" d="M236.79,293.33a2.26,2.26,0,1,1-2.31-2.22A2.29,2.29,0,0,1,236.79,293.33Z"/><path class="cls-7" d="M182.58,343a2.27,2.27,0,0,1,.07,4.53,2.27,2.27,0,0,1-.07-4.53Z"/><path class="cls-7" d="M217.36,299.8a2.24,2.24,0,1,1-2.28-2.25A2.27,2.27,0,0,1,217.36,299.8Z"/><path class="cls-7" d="M189.09,328.1a2.22,2.22,0,1,1,2.19-2.29A2.19,2.19,0,0,1,189.09,328.1Z"/><path class="cls-7" d="M182.65,341.11a2.25,2.25,0,0,1-.08-4.49,2.25,2.25,0,0,1,.08,4.49Z"/><path class="cls-7" d="M230.32,293.43a2.23,2.23,0,1,1-4.45-.1,2.23,2.23,0,1,1,4.45.1Z"/><path class="cls-7" d="M204.23,306.4a2.19,2.19,0,0,1-2.21,2.14,2.19,2.19,0,1,1,.08-4.37A2.21,2.21,0,0,1,204.23,306.4Z"/><path class="cls-7" d="M197.8,312.78a2.2,2.2,0,0,1-2.16,2.19,2.19,2.19,0,1,1,0-4.37A2.22,2.22,0,0,1,197.8,312.78Z"/><path class="cls-7" d="M184.78,332.26a2.15,2.15,0,0,1-2.12,2.23,2.19,2.19,0,0,1-2.24-2.12,2.22,2.22,0,0,1,2.14-2.24A2.17,2.17,0,0,1,184.78,332.26Z"/><path class="cls-7" d="M219.39,293.3a2.14,2.14,0,0,1,2.24-2.09,2.18,2.18,0,1,1-.15,4.35A2.15,2.15,0,0,1,219.39,293.3Z"/><path class="cls-7" d="M191.2,319.33A2.14,2.14,0,0,1,189,321.5a2.16,2.16,0,0,1,0-4.32A2.13,2.13,0,0,1,191.2,319.33Z"/><path class="cls-7" d="M208.58,297.66a2.12,2.12,0,0,1,2.15,2.19,2.15,2.15,0,0,1-2.11,2.13,2.21,2.21,0,0,1-2.23-2.15A2.17,2.17,0,0,1,208.58,297.66Z"/><path class="cls-7" d="M243.21,286.88a2.13,2.13,0,1,1-2.06-2.2A2.16,2.16,0,0,1,243.21,286.88Z"/><path class="cls-7" d="M176.1,354a2.15,2.15,0,1,1,0-4.3,2.15,2.15,0,0,1,0,4.3Z"/><path class="cls-7" d="M182.65,323.75a2.14,2.14,0,1,1-2.15,2.07A2.14,2.14,0,0,1,182.65,323.75Z"/><path class="cls-7" d="M234.48,284.7a2.14,2.14,0,1,1-2.06,2.16A2.15,2.15,0,0,1,234.48,284.7Z"/><path class="cls-7" d="M215.15,291.27a2.11,2.11,0,1,1-2.15,2.07A2.09,2.09,0,0,1,215.15,291.27Z"/><path class="cls-7" d="M176,343.19a2.11,2.11,0,1,1-2.08,2.14A2.09,2.09,0,0,1,176,343.19Z"/><path class="cls-7" d="M197.67,306.33a2.1,2.1,0,0,1-2.08,2.14,2.11,2.11,0,0,1-.05-4.21A2.08,2.08,0,0,1,197.67,306.33Z"/><path class="cls-7" d="M178.13,338.87a2,2,0,0,1-2,2.07,2.08,2.08,0,1,1,0-4.16A2.06,2.06,0,0,1,178.13,338.87Z"/><path class="cls-7" d="M204.09,299.83a2,2,0,0,1-2,2.05,2.09,2.09,0,0,1-2.13-2.09,2.11,2.11,0,0,1,2.17-2.06A2.05,2.05,0,0,1,204.09,299.83Z"/><path class="cls-7" d="M230.19,286.85a2.13,2.13,0,0,1-2.17,2.07,2.07,2.07,0,0,1-2-2.11,2,2,0,0,1,2.14-2.06A2.11,2.11,0,0,1,230.19,286.85Z"/><path class="cls-7" d="M191.14,312.81a2.13,2.13,0,0,1-2.17,2.07,2.09,2.09,0,0,1,.16-4.17A2.12,2.12,0,0,1,191.14,312.81Z"/><path class="cls-7" d="M184.67,319.38a2.08,2.08,0,0,1-2.09,2,2.06,2.06,0,0,1,.08-4.11A2.1,2.1,0,0,1,184.67,319.38Z"/><path class="cls-7" d="M208.59,295.43a2.06,2.06,0,0,1,0-4.11,2.06,2.06,0,0,1,0,4.11Z"/><path class="cls-7" d="M178.09,332.32a2,2,0,0,1-2,2,2,2,0,1,1,0-4A2,2,0,0,1,178.09,332.32Z"/><path class="cls-7" d="M223.57,286.85a2,2,0,0,1-2,2,2,2,0,1,1,0-4A2,2,0,0,1,223.57,286.85Z"/><path class="cls-7" d="M197.58,299.82a2,2,0,0,1-2,2,2,2,0,1,1,0-4A2,2,0,0,1,197.58,299.82Z"/><path class="cls-7" d="M217.11,286.82a2,2,0,0,1-1.94,2,2,2,0,1,1,0-3.94A2,2,0,0,1,217.11,286.82Z"/><path class="cls-7" d="M176.05,323.91a2,2,0,1,1,0,3.94,2,2,0,0,1,0-3.94Z"/><path class="cls-7" d="M241,278.43a2,2,0,1,1,.05,3.93,2,2,0,0,1-.05-3.93Z"/><path class="cls-7" d="M191,306.41a1.93,1.93,0,0,1-2,1.91,2,2,0,1,1,.1-3.93A1.94,1.94,0,0,1,191,306.41Z"/><path class="cls-7" d="M171.62,351.89a2,2,0,0,1-2,1.92,2,2,0,1,1,.09-3.94A2,2,0,0,1,171.62,351.89Z"/><path class="cls-7" d="M202,295.35a2,2,0,0,1,.12-3.93,2,2,0,1,1-.12,3.93Z"/><path class="cls-7" d="M169.63,347.27a2,2,0,0,1-1.94-2,1.94,1.94,0,0,1,2-2,2,2,0,0,1,2,2A2,2,0,0,1,169.63,347.27Z"/><path class="cls-7" d="M182.57,314.75a2,2,0,1,1,.08-3.92,2,2,0,0,1-.08,3.92Z"/><path class="cls-7" d="M236.48,280.42a1.92,1.92,0,0,1-2,1.94,2,2,0,1,1,0-3.92A1.92,1.92,0,0,1,236.48,280.42Z"/><path class="cls-7" d="M230,280.37a1.92,1.92,0,0,1-1.94,2,1.94,1.94,0,1,1,.05-3.87A1.94,1.94,0,0,1,230,280.37Z"/><path class="cls-7" d="M210.48,286.86a1.93,1.93,0,0,1-1.91,1.89,1.92,1.92,0,1,1,.06-3.84A1.93,1.93,0,0,1,210.48,286.86Z"/><path class="cls-7" d="M171.57,338.84a1.92,1.92,0,0,1-1.86,1.93,1.91,1.91,0,1,1-.15-3.81A1.92,1.92,0,0,1,171.57,338.84Z"/><path class="cls-7" d="M176.1,317.44a1.9,1.9,0,0,1,0,3.79,1.9,1.9,0,1,1,0-3.79Z"/><path class="cls-7" d="M187.2,299.71a1.83,1.83,0,0,1,2-1.76,1.88,1.88,0,0,1,1.74,1.91,1.84,1.84,0,0,1-1.94,1.8A1.81,1.81,0,0,1,187.2,299.71Z"/><path class="cls-7" d="M221.6,282.3a1.9,1.9,0,0,1-.1-3.8,1.9,1.9,0,0,1,.1,3.8Z"/><path class="cls-7" d="M171.51,332.36a1.88,1.88,0,1,1-1.84-1.94A1.91,1.91,0,0,1,171.51,332.36Z"/><path class="cls-7" d="M184.48,306.32a1.92,1.92,0,0,1-1.88,1.91,1.86,1.86,0,0,1-1.82-1.83,1.81,1.81,0,0,1,1.74-1.89A1.87,1.87,0,0,1,184.48,306.32Z"/><path class="cls-7" d="M197.43,293.33a1.81,1.81,0,0,1-1.73,1.89,1.85,1.85,0,1,1-.1-3.69A1.82,1.82,0,0,1,197.43,293.33Z"/><path class="cls-7" d="M171.45,325.89a1.81,1.81,0,0,1-1.82,1.82,1.87,1.87,0,0,1-1.84-1.83,1.83,1.83,0,0,1,1.85-1.8A1.77,1.77,0,0,1,171.45,325.89Z"/><path class="cls-7" d="M202,285a1.79,1.79,0,0,1,1.81,1.82,1.81,1.81,0,0,1-1.82,1.82,1.87,1.87,0,0,1-1.84-1.83A1.84,1.84,0,0,1,202,285Z"/><path class="cls-7" d="M176,311a1.79,1.79,0,0,1,1.87,1.76,1.82,1.82,0,0,1-1.76,1.88,1.88,1.88,0,0,1-1.9-1.78A1.85,1.85,0,0,1,176,311Z"/><path class="cls-7" d="M216.93,280.37a1.8,1.8,0,0,1-1.78,1.86,1.87,1.87,0,0,1-1.87-1.79,1.83,1.83,0,0,1,1.8-1.85A1.78,1.78,0,0,1,216.93,280.37Z"/><path class="cls-7" d="M241.08,272a1.82,1.82,0,0,1,0,3.64,1.86,1.86,0,0,1-1.82-1.82A1.88,1.88,0,0,1,241.08,272Z"/><path class="cls-7" d="M164.92,351.87a1.84,1.84,0,0,1-1.86,1.77,1.8,1.8,0,1,1,.06-3.59A1.82,1.82,0,0,1,164.92,351.87Z"/><path class="cls-7" d="M234.66,272a1.86,1.86,0,0,1,1.67,2,1.8,1.8,0,1,1-1.67-2Z"/><path class="cls-7" d="M163.09,343.48a1.81,1.81,0,1,1-.07,3.62,1.79,1.79,0,0,1-1.72-1.78A1.82,1.82,0,0,1,163.09,343.48Z"/><path class="cls-7" d="M228.14,275.63a1.78,1.78,0,1,1,0-3.56,1.78,1.78,0,0,1,0,3.56Z"/><path class="cls-7" d="M163.08,340.65a1.79,1.79,0,1,1,.06-3.57,1.79,1.79,0,0,1-.06,3.57Z"/><path class="cls-7" d="M184.35,299.77a1.76,1.76,0,0,1-1.69,1.81,1.82,1.82,0,0,1-1.81-1.72,1.8,1.8,0,0,1,1.72-1.81A1.75,1.75,0,0,1,184.35,299.77Z"/><path class="cls-7" d="M169.59,321.1a1.77,1.77,0,0,1,.1-3.53,1.77,1.77,0,0,1-.1,3.53Z"/><path class="cls-7" d="M190.78,293.35a1.74,1.74,0,0,1-1.7,1.79,1.76,1.76,0,0,1-.07-3.52A1.73,1.73,0,0,1,190.78,293.35Z"/><path class="cls-7" d="M208.56,278.66a1.74,1.74,0,1,1,0,3.48,1.74,1.74,0,1,1,0-3.48Z"/><path class="cls-7" d="M164.79,332.32a1.68,1.68,0,0,1-1.73,1.71,1.75,1.75,0,0,1-1.71-1.66,1.77,1.77,0,0,1,1.71-1.78A1.7,1.7,0,0,1,164.79,332.32Z"/><path class="cls-7" d="M177.8,306.33a1.75,1.75,0,0,1-1.73,1.75,1.73,1.73,0,0,1-.06-3.45A1.76,1.76,0,0,1,177.8,306.33Z"/><path class="cls-7" d="M197.33,286.94a1.76,1.76,0,0,1-1.87,1.61,1.72,1.72,0,0,1,.21-3.44A1.76,1.76,0,0,1,197.33,286.94Z"/><path class="cls-7" d="M223.29,273.82a1.77,1.77,0,0,1-1.73,1.76,1.69,1.69,0,0,1-1.71-1.64,1.66,1.66,0,0,1,1.64-1.79A1.73,1.73,0,0,1,223.29,273.82Z"/><path class="cls-7" d="M203.71,280.38a1.73,1.73,0,0,1-1.67,1.71,1.69,1.69,0,0,1,0-3.38A1.73,1.73,0,0,1,203.71,280.38Z"/><path class="cls-7" d="M171.32,312.78a1.73,1.73,0,0,1-1.68,1.7,1.69,1.69,0,0,1,0-3.38A1.73,1.73,0,0,1,171.32,312.78Z"/><path class="cls-7" d="M216.77,273.81a1.61,1.61,0,0,1-1.64,1.68,1.64,1.64,0,1,1,1.64-1.68Z"/><path class="cls-7" d="M164.75,325.94a1.66,1.66,0,1,1-1.63-1.73A1.69,1.69,0,0,1,164.75,325.94Z"/><path class="cls-7" d="M242.69,267.35a1.64,1.64,0,0,1-1.6,1.6,1.69,1.69,0,0,1-1.65-1.69,1.66,1.66,0,0,1,1.62-1.59A1.62,1.62,0,0,1,242.69,267.35Z"/><path class="cls-7" d="M156.57,350.21a1.64,1.64,0,0,1-.07,3.27,1.64,1.64,0,0,1,.07-3.27Z"/><path class="cls-7" d="M182.58,291.76a1.62,1.62,0,1,1,.07,3.23,1.62,1.62,0,0,1-.07-3.23Z"/><path class="cls-7" d="M189.07,288.45a1.61,1.61,0,0,1-1.62-1.56,1.58,1.58,0,0,1,1.52-1.66,1.64,1.64,0,0,1,1.7,1.61A1.66,1.66,0,0,1,189.07,288.45Z"/><path class="cls-7" d="M236.16,267.35a1.66,1.66,0,0,1-1.64,1.57,1.6,1.6,0,0,1-1.58-1.71,1.57,1.57,0,0,1,1.66-1.5A1.63,1.63,0,0,1,236.16,267.35Z"/><path class="cls-7" d="M176,301.42a1.61,1.61,0,1,1,.14-3.22,1.61,1.61,0,0,1-.14,3.22Z"/><path class="cls-7" d="M158.13,345.32a1.56,1.56,0,0,1-1.59,1.58,1.64,1.64,0,0,1-1.63-1.57,1.66,1.66,0,0,1,1.68-1.65A1.59,1.59,0,0,1,158.13,345.32Z"/><path class="cls-7" d="M158.11,338.86a1.58,1.58,0,0,1-1.6,1.59,1.59,1.59,0,0,1,0-3.18A1.6,1.6,0,0,1,158.11,338.86Z"/><path class="cls-7" d="M210.16,273.88a1.62,1.62,0,0,1-1.64,1.56,1.57,1.57,0,0,1-1.51-1.67,1.59,1.59,0,0,1,1.56-1.51A1.63,1.63,0,0,1,210.16,273.88Z"/><path class="cls-7" d="M163.08,320.92a1.58,1.58,0,0,1-1.56-1.62,1.61,1.61,0,0,1,1.52-1.56,1.59,1.59,0,1,1,0,3.18Z"/><path class="cls-7" d="M229.69,267.27a1.59,1.59,0,0,1-1.58,1.6,1.56,1.56,0,0,1-.08-3.12A1.58,1.58,0,0,1,229.69,267.27Z"/><path class="cls-7" d="M169.67,307.9a1.54,1.54,0,1,1-.07-3.08,1.54,1.54,0,1,1,.07,3.08Z"/><path class="cls-7" d="M195.63,281.94a1.54,1.54,0,1,1-.07-3.08,1.54,1.54,0,1,1,.07,3.08Z"/><path class="cls-7" d="M221.54,265.79a1.52,1.52,0,1,1,0,3,1.52,1.52,0,0,1,0-3Z"/><path class="cls-7" d="M158.08,332.31a1.53,1.53,0,0,1-1.52,1.52,1.52,1.52,0,0,1,0-3A1.54,1.54,0,0,1,158.08,332.31Z"/><path class="cls-7" d="M163,314.28a1.49,1.49,0,1,1,.09-3,1.49,1.49,0,0,1-.09,3Z"/><path class="cls-7" d="M203.53,273.85a1.53,1.53,0,0,1-1.56,1.5,1.47,1.47,0,0,1-1.42-1.49,1.43,1.43,0,0,1,1.42-1.48A1.49,1.49,0,0,1,203.53,273.85Z"/><path class="cls-7" d="M182.63,288.31a1.48,1.48,0,1,1,0-3,1.48,1.48,0,0,1,0,3Z"/><path class="cls-7" d="M215.14,265.82a1.54,1.54,0,0,1,1.47,1.48,1.52,1.52,0,0,1-1.57,1.48,1.45,1.45,0,0,1-1.38-1.52A1.47,1.47,0,0,1,215.14,265.82Z"/><path class="cls-7" d="M156.52,324.4a1.53,1.53,0,0,1,1.51,1.43,1.51,1.51,0,0,1-1.52,1.53,1.48,1.48,0,0,1,0-3Z"/><path class="cls-7" d="M176,294.85a1.44,1.44,0,0,1-1.42-1.48,1.42,1.42,0,0,1,1.44-1.45,1.49,1.49,0,0,1,1.51,1.53A1.51,1.51,0,0,1,176,294.85Z"/><path class="cls-7" d="M190.5,280.41a1.46,1.46,0,0,1-1.47,1.45,1.47,1.47,0,1,1,0-2.93A1.48,1.48,0,0,1,190.5,280.41Z"/><path class="cls-7" d="M242.51,261a1.44,1.44,0,1,1-1.35-1.56A1.48,1.48,0,0,1,242.51,261Z"/><path class="cls-7" d="M148.67,351.81a1.44,1.44,0,1,1,1.43,1.48A1.47,1.47,0,0,1,148.67,351.81Z"/><path class="cls-7" d="M169.64,301.25a1.44,1.44,0,1,1,0-2.88,1.44,1.44,0,1,1,0,2.88Z"/><path class="cls-7" d="M233.12,260.86a1.45,1.45,0,0,1,1.37-1.42,1.44,1.44,0,1,1,0,2.87A1.45,1.45,0,0,1,233.12,260.86Z"/><path class="cls-7" d="M151.51,345.35a1.37,1.37,0,0,1-1.52,1.34,1.39,1.39,0,0,1-1.3-1.45,1.41,1.41,0,0,1,1.52-1.35A1.39,1.39,0,0,1,151.51,345.35Z"/><path class="cls-7" d="M208.54,265.9a1.44,1.44,0,0,1,1.44,1.34,1.45,1.45,0,0,1-1.43,1.48,1.4,1.4,0,0,1-1.36-1.41A1.38,1.38,0,0,1,208.54,265.9Z"/><path class="cls-7" d="M156.56,317.94a1.4,1.4,0,0,1,0,2.79,1.4,1.4,0,1,1,0-2.79Z"/><path class="cls-7" d="M226.73,260.88a1.34,1.34,0,0,1,1.36-1.38,1.41,1.41,0,0,1,1.41,1.37,1.44,1.44,0,0,1-1.39,1.39A1.38,1.38,0,0,1,226.73,260.88Z"/><path class="cls-7" d="M195.63,272.47a1.38,1.38,0,0,1-.09,2.76,1.38,1.38,0,1,1,.09-2.76Z"/><path class="cls-7" d="M161.72,306.37a1.35,1.35,0,0,1,1.36-1.39,1.43,1.43,0,0,1,1.41,1.37,1.45,1.45,0,0,1-1.39,1.4A1.38,1.38,0,0,1,161.72,306.37Z"/><path class="cls-7" d="M150.08,340.24a1.38,1.38,0,1,1,0-2.76,1.38,1.38,0,0,1,0,2.76Z"/><path class="cls-7" d="M150.07,333.62a1.31,1.31,0,1,1,1.36-1.24A1.3,1.3,0,0,1,150.07,333.62Z"/><path class="cls-7" d="M177.39,286.83a1.33,1.33,0,1,1-1.29-1.31A1.3,1.3,0,0,1,177.39,286.83Z"/><path class="cls-7" d="M222.87,260.83a1.3,1.3,0,0,1-1.24,1.35,1.32,1.32,0,0,1-1.41-1.32,1.33,1.33,0,0,1,2.65,0Z"/><path class="cls-7" d="M169.6,292.06a1.32,1.32,0,0,1,.08,2.64,1.33,1.33,0,0,1-1.33-1.28A1.31,1.31,0,0,1,169.6,292.06Z"/><path class="cls-7" d="M202.06,268.59a1.25,1.25,0,0,1-1.32-1.25A1.27,1.27,0,0,1,202,266a1.3,1.3,0,0,1,1.33,1.26A1.28,1.28,0,0,1,202.06,268.59Z"/><path class="cls-7" d="M182.61,281.69a1.29,1.29,0,1,1,0-2.58,1.29,1.29,0,1,1,0,2.58Z"/><path class="cls-7" d="M156.53,314.08a1.29,1.29,0,1,1,0-2.58,1.29,1.29,0,1,1,0,2.58Z"/><path class="cls-7" d="M215.14,262.13a1.22,1.22,0,0,1-1.26-1.19,1.24,1.24,0,0,1,1.23-1.33,1.26,1.26,0,1,1,0,2.52Z"/><path class="cls-7" d="M150.14,327.14a1.22,1.22,0,0,1-1.27-1.18,1.24,1.24,0,0,1,1.22-1.34,1.26,1.26,0,1,1,0,2.52Z"/><path class="cls-7" d="M164.33,299.78a1.26,1.26,0,0,1-1.19,1.3,1.31,1.31,0,0,1-1.33-1.29,1.28,1.28,0,0,1,1.27-1.23A1.21,1.21,0,0,1,164.33,299.78Z"/><path class="cls-7" d="M189.07,272.6a1.21,1.21,0,0,1,1.22,1.25,1.25,1.25,0,0,1-1.22,1.27,1.31,1.31,0,0,1-1.3-1.32A1.29,1.29,0,0,1,189.07,272.6Z"/><path class="cls-7" d="M144.76,351.84a1.24,1.24,0,0,1-1.25,1.22,1.26,1.26,0,0,1-1.15-1.21,1.2,1.2,0,1,1,2.4,0Z"/><path class="cls-7" d="M241.12,255.51a1.19,1.19,0,1,1,1.15-1.18A1.17,1.17,0,0,1,241.12,255.51Z"/><path class="cls-7" d="M157.7,306.38a1.18,1.18,0,0,1-1.16,1.17,1.23,1.23,0,0,1-1.18-1.15,1.17,1.17,0,1,1,2.34,0Z"/><path class="cls-7" d="M209.76,260.87a1.23,1.23,0,0,1-1.14,1.19,1.19,1.19,0,1,1,0-2.37A1.22,1.22,0,0,1,209.76,260.87Z"/><path class="cls-7" d="M195.6,268.5a1.23,1.23,0,0,1-1.19-1.15,1.21,1.21,0,0,1,1.22-1.23,1.19,1.19,0,0,1,0,2.38Z"/><path class="cls-7" d="M234.54,253.16a1.17,1.17,0,1,1-.07,2.33,1.17,1.17,0,0,1,.07-2.33Z"/><path class="cls-7" d="M144.74,345.3a1.17,1.17,0,0,1-1.15,1.16,1.13,1.13,0,0,1-1.19-1.11,1.15,1.15,0,0,1,1.2-1.22A1.18,1.18,0,0,1,144.74,345.3Z"/><path class="cls-7" d="M150.11,318.17a1.17,1.17,0,0,1,0,2.33,1.17,1.17,0,1,1,0-2.33Z"/><path class="cls-7" d="M228.1,253.17a1.2,1.2,0,0,1,1.17,1.15,1.17,1.17,0,0,1-1.17,1.15,1.1,1.1,0,0,1-1.13-1.14A1.12,1.12,0,0,1,228.1,253.17Z"/><path class="cls-7" d="M143.61,337.71a1.2,1.2,0,0,1,1.12,1.2,1.18,1.18,0,0,1-1.21,1.1,1.15,1.15,0,0,1,.09-2.3Z"/><path class="cls-7" d="M176.05,281.56a1.2,1.2,0,0,1-1.15-1.17,1.18,1.18,0,0,1,1.17-1.14,1.12,1.12,0,0,1,1.13,1.16A1.14,1.14,0,0,1,176.05,281.56Z"/><path class="cls-7" d="M170.77,286.84a1.14,1.14,0,0,1-1.14,1.15,1.16,1.16,0,1,1,0-2.31A1.13,1.13,0,0,1,170.77,286.84Z"/><path class="cls-7" d="M182.57,275a1.13,1.13,0,0,1-1.06-1.14,1.14,1.14,0,0,1,1.1-1.1,1.18,1.18,0,0,1,1.12,1.2A1.17,1.17,0,0,1,182.57,275Z"/><path class="cls-7" d="M163.12,292.26a1.15,1.15,0,0,1,1.08,1.12,1.14,1.14,0,0,1-1.2,1.11,1.12,1.12,0,0,1,.12-2.23Z"/><path class="cls-7" d="M221.58,255.42a1.13,1.13,0,0,1-1.11-1.07,1.11,1.11,0,0,1,1.06-1.12,1.1,1.1,0,0,1,.05,2.19Z"/><path class="cls-7" d="M203.11,260.86a1.06,1.06,0,0,1-1.07,1.08,1.08,1.08,0,0,1-1.1-1.06,1.09,1.09,0,0,1,2.17,0Z"/><path class="cls-7" d="M151.19,312.83a1.08,1.08,0,0,1-2.16-.08,1.08,1.08,0,0,1,2.16.08Z"/><path class="cls-7" d="M144.64,332.35a1.08,1.08,0,1,1-1-1.1A1.06,1.06,0,0,1,144.64,332.35Z"/><path class="cls-7" d="M156.52,298.75a1.08,1.08,0,0,1,1.09,1.09,1.13,1.13,0,0,1-1,1.05,1.07,1.07,0,0,1-1.07-1.11A1,1,0,0,1,156.52,298.75Z"/><path class="cls-7" d="M190.08,267.41a1,1,0,0,1-1.09.94,1,1,0,0,1-1-1.15,1.07,1.07,0,0,1,1.22-.94A1,1,0,0,1,190.08,267.41Z"/><path class="cls-7" d="M143.56,324.86a1,1,0,0,1,1,1,1,1,0,0,1-1,1,1.08,1.08,0,0,1-1-1A1.11,1.11,0,0,1,143.56,324.86Z"/><path class="cls-7" d="M215.14,253.34a1,1,0,0,1,1,1,1,1,0,0,1-1.09.94,1,1,0,0,1-.92-1A1,1,0,0,1,215.14,253.34Z"/><path class="cls-7" d="M151.05,306.31a1,1,0,0,1-.86,1,1,1,0,0,1-1-1,1,1,0,0,1,1.9-.05Z"/><path class="cls-7" d="M169.67,281.37a1,1,0,1,1,.91-1A1,1,0,0,1,169.67,281.37Z"/><path class="cls-7" d="M195.56,259.91a1,1,0,0,1,1,.91,1,1,0,0,1-.85,1,1,1,0,1,1-.12-1.93Z"/><path class="cls-7" d="M176.06,274.77a.92.92,0,1,1,.05-1.84.89.89,0,0,1,.86.89A.88.88,0,0,1,176.06,274.77Z"/><path class="cls-7" d="M208.54,253.4a1,1,0,0,1,1,.92.94.94,0,0,1-.95.92.86.86,0,0,1-.89-.85A.91.91,0,0,1,208.54,253.4Z"/><path class="cls-7" d="M137.13,350.92a1,1,0,0,1,.94.95,1,1,0,0,1-1,.91.93.93,0,0,1-.86-.91A.9.9,0,0,1,137.13,350.92Z"/><path class="cls-7" d="M242,247.88a.88.88,0,0,1-.93.93.94.94,0,0,1-.91-1,1,1,0,0,1,.9-.87A.88.88,0,0,1,242,247.88Z"/><path class="cls-7" d="M143.61,320.25a.92.92,0,0,1-.14-1.83,1,1,0,0,1,1,.85A.94.94,0,0,1,143.61,320.25Z"/><path class="cls-7" d="M163.08,287.77a.93.93,0,0,1-.9-1,.89.89,0,0,1,.86-.88,1,1,0,0,1,1,.91A1,1,0,0,1,163.08,287.77Z"/><path class="cls-7" d="M137.08,346.2a.91.91,0,0,1,.1-1.81,1,1,0,0,1,.86.9A.94.94,0,0,1,137.08,346.2Z"/><path class="cls-7" d="M235.44,247.89a.94.94,0,0,1-1,.91.9.9,0,0,1-.83-.9.93.93,0,0,1,.82-.92A1,1,0,0,1,235.44,247.89Z"/><path class="cls-7" d="M138,338.89a.91.91,0,0,1-.9.85.88.88,0,0,1-.83-.9.9.9,0,0,1,.89-.86A.93.93,0,0,1,138,338.89Z"/><path class="cls-7" d="M229,247.94a.91.91,0,0,1-.91.83.88.88,0,0,1-.82-.92.9.9,0,0,1,.9-.84A.93.93,0,0,1,229,247.94Z"/><path class="cls-7" d="M156.59,292.49a.9.9,0,0,1,.81.94.88.88,0,0,1-.91.82.91.91,0,0,1-.82-.92A1,1,0,0,1,156.59,292.49Z"/><path class="cls-7" d="M183.48,267.35a.87.87,0,1,1-.82-.89A.85.85,0,0,1,183.48,267.35Z"/><path class="cls-7" d="M189.07,260.09a.79.79,0,0,1,.73.84.73.73,0,0,1-.73.72.81.81,0,0,1-.81-.78A.84.84,0,0,1,189.07,260.09Z"/><path class="cls-7" d="M137.1,331.53a.79.79,0,0,1,.79.79.75.75,0,0,1-.68.77.79.79,0,0,1-.86-.72A.84.84,0,0,1,137.1,331.53Z"/><path class="cls-7" d="M144.33,312.79a.76.76,0,0,1-.8.77.75.75,0,0,1-.74-.72.8.8,0,0,1,.74-.83A.81.81,0,0,1,144.33,312.79Z"/><path class="cls-7" d="M221.35,247.14c.65,0,1,.41,1,.82a.76.76,0,0,1-.78.69.69.69,0,0,1-.73-.82A2.17,2.17,0,0,1,221.35,247.14Z"/><path class="cls-7" d="M202.81,254.51a2.19,2.19,0,0,1-.72.54.67.67,0,0,1-.82-.71.69.69,0,0,1,.68-.76C202.41,253.54,202.8,253.87,202.81,254.51Z"/><path class="cls-7" d="M150.89,299.81a.78.78,0,0,1-.84.75.69.69,0,0,1-.69-.75.67.67,0,0,1,.7-.74A.76.76,0,0,1,150.89,299.81Z"/><path class="cls-7" d="M137.36,325.2a2.39,2.39,0,0,1,.45.74c.08.35-.39.71-.75.65a.68.68,0,0,1-.62-.7C136.44,325.5,136.76,325.17,137.36,325.2Z"/><path class="cls-7" d="M163.27,279.69a2.55,2.55,0,0,1,.51.72c.1.34-.35.73-.72.69a.65.65,0,0,1-.65-.64C162.38,280.05,162.67,279.71,163.27,279.69Z"/><path class="cls-7" d="M215.8,247.88a.66.66,0,0,1-.7.7c-.39,0-.79-.38-.66-.72a1.16,1.16,0,0,1,.64-.63C215.45,247.1,215.79,247.47,215.8,247.88Z"/><path class="cls-7" d="M170.31,273.87c0,.41-.34.77-.72.64a1.16,1.16,0,0,1-.64-.63c-.12-.34.28-.71.67-.72A.66.66,0,0,1,170.31,273.87Z"/><path class="cls-7" d="M177,267.24c-.43.34-.65.63-.91.69a.56.56,0,0,1-.69-.58.55.55,0,0,1,.61-.66C176.29,266.72,176.54,267,177,267.24Z"/><path class="cls-7" d="M155.59,286.77c.46-.27.71-.52,1-.55s.63.24.6.65-.3.67-.68.58S156,287.1,155.59,286.77Z"/><path class="cls-7" d="M194.71,254.38c.41-.32.63-.62.88-.65s.52.28.59.51a.51.51,0,0,1-.51.69C195.41,254.93,195.16,254.65,194.71,254.38Z"/><path class="cls-7" d="M144.42,306.34c-.36.28-.56.54-.8.59a.58.58,0,1,1,0-1.15C143.84,305.83,144,306.07,144.42,306.34Z"/><path class="cls-7" d="M151,293.4c-.41.26-.62.51-.86.54s-.55-.21-.55-.57.25-.6.57-.54S150.57,293.12,151,293.4Z"/><path class="cls-7" d="M183.45,260.9c-.42.26-.66.54-.85.5s-.39-.35-.57-.54c.19-.19.38-.5.6-.52S183.05,260.61,183.45,260.9Z"/><path class="cls-7" d="M241.89,241.43c-.45.22-.69.43-.92.41a.68.68,0,0,1-.37-.54c0-.18.33-.48.47-.46S241.5,241.12,241.89,241.43Z"/><path class="cls-7" d="M131.4,351.77c-.4.3-.6.55-.82.58a.66.66,0,0,1-.48-.46c0-.18.23-.53.38-.54S131,351.54,131.4,351.77Z"/><path class="cls-7" d="M208.53,247.2c.25.28.52.46.53.63a.73.73,0,0,1-.41.54.44.44,0,0,1-.59-.47C208.08,247.7,208.31,247.51,208.53,247.2Z"/><path class="cls-7" d="M137.06,320c-.21-.32-.43-.52-.44-.72a.44.44,0,0,1,.6-.45.71.71,0,0,1,.39.55C137.6,319.59,137.33,319.75,137.06,320Z"/><path class="cls-7" d="M235.24,241.32c-.35.24-.54.46-.74.48s-.39-.28-.4-.43.24-.48.36-.47S234.87,241.11,235.24,241.32Z"/><path class="cls-7" d="M131.16,345.23c-.2.22-.36.51-.47.49s-.39-.24-.58-.38c.16-.17.29-.41.49-.48S130.92,345.06,131.16,345.23Z"/><path class="cls-7" d="M202.06,247.33c.16.26.36.44.34.59s-.26.26-.41.39c-.13-.15-.36-.29-.36-.44S201.86,247.56,202.06,247.33Z"/><path class="cls-7" d="M130.55,338.3c.19.23.41.39.41.53s-.23.3-.36.45c-.14-.13-.39-.24-.42-.39S130.37,338.56,130.55,338.3Z"/><path class="cls-7" d="M189.61,254.36c-.26.17-.44.38-.58.36a.4.4,0,0,1,.05-.79C189.24,253.94,189.38,254.17,189.61,254.36Z"/><path class="cls-7" d="M163.65,273.82c-.23.2-.38.42-.53.42a.56.56,0,0,1-.41-.36.59.59,0,0,1,.36-.43C163.22,273.44,163.39,273.65,163.65,273.82Z"/><path class="cls-7" d="M144.12,299.84c-.25.17-.43.38-.58.36a.54.54,0,0,1-.35-.42.52.52,0,0,1,.4-.36C143.75,299.42,143.9,299.65,144.12,299.84Z"/><path class="cls-7" d="M137.7,312.76c-.26.19-.41.37-.58.39s-.38-.21-.36-.28.19-.42.32-.44S137.42,312.6,137.7,312.76Z"/><path class="cls-7" d="M228.08,240.81l.44.56c-.15.12-.3.3-.48.34s-.33-.22-.32-.33S227.91,241.07,228.08,240.81Z"/><path class="cls-7" d="M156.57,280.87c-.17-.22-.32-.34-.34-.49s.18-.3.24-.29.36.15.39.27S156.71,280.63,156.57,280.87Z"/><path class="cls-7" d="M222.05,241.29c-.23.18-.34.34-.49.37s-.31-.16-.3-.22.13-.37.24-.4S221.79,241.16,222.05,241.29Z"/><path class="cls-7" d="M130.59,331.84c.16.23.34.39.32.51s-.24.23-.39.27-.26-.2-.25-.28S130.44,332.06,130.59,331.84Z"/><path class="cls-7" d="M169.66,267.78c-.17-.23-.31-.35-.34-.49s.18-.31.24-.29.36.14.4.27S169.81,267.54,169.66,267.78Z"/><path class="cls-7" d="M150.6,287a1.16,1.16,0,0,1-.45.13c-.1,0-.18-.15-.28-.23a1.5,1.5,0,0,1,.3-.27S150.31,286.71,150.6,287Z"/><path class="cls-7" d="M176.41,260.87a1.41,1.41,0,0,1-.34.27c-.06,0-.16-.11-.24-.18a1.34,1.34,0,0,1,.27-.31S176.26,260.76,176.41,260.87Z"/></g></g></g></g></svg>