<svg id="Layer_1" data-name="Layer 1" xmlns="http://www.w3.org/2000/svg" xmlns:xlink="http://www.w3.org/1999/xlink" viewBox="0 0 67.67 68.22"><defs><style>.cls-1{fill:#262626;}.cls-2{fill:url(#linear-gradient);}</style><linearGradient id="linear-gradient" x1="-11.31" y1="33.83" x2="77.94" y2="33.83" gradientUnits="userSpaceOnUse"><stop offset="0" stop-color="#f5cb16"/><stop offset="0.28" stop-color="#fef687"/><stop offset="0.34" stop-color="#f5e063"/><stop offset="0.42" stop-color="#ebc83c"/><stop offset="0.48" stop-color="#e5b924"/><stop offset="0.52" stop-color="#e3b31b"/><stop offset="0.65" stop-color="#f0d24e"/><stop offset="0.79" stop-color="#fff585"/><stop offset="0.87" stop-color="#fbe254"/><stop offset="0.96" stop-color="#f7d227"/><stop offset="1" stop-color="#f5cb16"/></linearGradient></defs><polygon class="cls-1" points="6.28 38.01 0 34.38 6.28 30.76 1.15 25.63 8.16 23.75 4.53 17.47 11.79 17.47 9.91 10.46 16.92 12.34 16.92 5.08 23.2 8.71 25.08 1.7 30.21 6.83 33.84 0.55 37.46 6.83 42.59 1.7 44.47 8.71 50.75 5.08 50.75 12.34 57.76 10.46 55.88 17.47 63.14 17.47 59.51 23.75 66.52 25.63 61.39 30.76 67.67 34.38 61.39 38.01 66.52 43.14 59.51 45.02 63.14 51.3 55.88 51.3 57.76 58.31 50.75 56.43 50.75 63.68 44.47 60.06 42.59 67.06 37.46 61.93 33.84 68.22 30.21 61.93 25.08 67.06 23.2 60.06 16.92 63.68 16.92 56.43 9.91 58.31 11.79 51.3 4.53 51.3 8.16 45.02 1.15 43.14 6.28 38.01"/><polygon class="cls-2" points="6.28 37.46 0 33.84 6.28 30.21 1.16 25.08 8.16 23.2 4.54 16.92 11.79 16.92 9.91 9.91 16.92 11.79 16.92 4.53 23.2 8.16 25.08 1.15 30.21 6.28 33.84 0 37.46 6.28 42.59 1.15 44.47 8.16 50.75 4.53 50.75 11.79 57.76 9.91 55.88 16.92 63.14 16.92 59.51 23.2 66.52 25.08 61.39 30.21 67.67 33.84 61.39 37.46 66.52 42.59 59.51 44.47 63.14 50.75 55.88 50.75 57.76 57.76 50.75 55.88 50.75 63.13 44.47 59.51 42.59 66.52 37.46 61.38 33.84 67.67 30.21 61.38 25.08 66.52 23.2 59.51 16.92 63.13 16.92 55.88 9.91 57.76 11.79 50.75 4.54 50.75 8.16 44.47 1.16 42.59 6.28 37.46"/></svg>