<svg id="Layer_1" data-name="Layer 1" xmlns="http://www.w3.org/2000/svg" xmlns:xlink="http://www.w3.org/1999/xlink" viewBox="0 0 192.18 161.34"><defs><style>.cls-1,.cls-10,.cls-5{fill:none;}.cls-2{clip-path:url(#clip-path);}.cls-3{fill:#f7b515;}.cls-4{fill:#2b2d2e;}.cls-10,.cls-5{stroke:#f7b515;}.cls-5{stroke-miterlimit:10;}.cls-6,.cls-7,.cls-8,.cls-9{isolation:isolate;}.cls-6{font-size:14.98px;}.cls-6,.cls-8,.cls-9{fill:#fff;font-family:Roboto-Regular, Roboto;}.cls-8,.cls-9{font-size:9.87px;}.cls-9{letter-spacing:-0.01em;}.cls-10{stroke-miterlimit:10;}</style><clipPath id="clip-path"><path class="cls-1" d="M189.44,93.37A93.37,93.37,0,1,1,96.07,0a93.37,93.37,0,0,1,93.37,93.37Z"/></clipPath></defs><g class="cls-2"><rect class="cls-3" x="92.18" y="125.6" width="21.01" height="21.01" transform="translate(-45.81 52.34) rotate(-23.54)"/><rect class="cls-4" x="72.92" y="133.99" width="21.01" height="21.01" transform="translate(-50.77 45.35) rotate(-23.54)"/><rect class="cls-3" x="53.67" y="142.37" width="21.01" height="21.01" transform="translate(-55.72 38.35) rotate(-23.54)"/><rect class="cls-4" x="46.02" y="9.15" width="21.01" height="42.02" transform="translate(-7.34 25.09) rotate(-23.54)"/><rect class="cls-3" x="58.61" y="48.55" width="21.01" height="21.01" transform="translate(-17.83 32.52) rotate(-23.54)"/><rect class="cls-4" x="67" y="67.81" width="21.01" height="21.01" transform="translate(-24.83 37.47) rotate(-23.54)"/><rect class="cls-3" x="75.39" y="87.07" width="21.01" height="21.01" transform="translate(-31.82 42.43) rotate(-23.54)"/><rect class="cls-4" x="83.79" y="106.34" width="21.01" height="21.01" transform="translate(-38.82 47.38) rotate(-23.54)"/><rect class="cls-5" x="104.29" y="144.09" width="21.01" height="39.65" transform="translate(-55.91 59.49) rotate(-23.54)"/><rect class="cls-4" x="22.57" y="18.41" width="21.01" height="21.01" transform="translate(-8.8 15.62) rotate(-23.54)"/><rect class="cls-3" x="30.97" y="37.67" width="21.01" height="21.01" transform="translate(-15.79 20.57) rotate(-23.54)"/><rect class="cls-4" x="39.35" y="56.93" width="21.01" height="21.01" transform="translate(-22.78 25.52) rotate(-23.54)"/><rect class="cls-3" x="47.75" y="76.2" width="21.01" height="21.01" transform="translate(-29.78 30.48) rotate(-23.54)"/><rect class="cls-4" x="56.14" y="95.46" width="21.01" height="21.01" transform="translate(-36.78 35.44) rotate(-23.54)"/><rect class="cls-3" x="64.54" y="114.72" width="21.01" height="21.01" transform="translate(-43.77 40.39) rotate(-23.54)"/><rect class="cls-5" x="85.04" y="152.47" width="21.01" height="39.65" transform="translate(-60.86 52.5) rotate(-23.54)"/><rect class="cls-3" x="3.32" y="26.79" width="21.01" height="21.01" transform="translate(-13.74 8.63) rotate(-23.54)"/><rect class="cls-4" x="11.72" y="46.06" width="21.01" height="21.01" transform="translate(-20.74 13.58) rotate(-23.54)"/><rect class="cls-3" x="20.1" y="65.32" width="21.01" height="21.01" transform="translate(-27.74 18.53) rotate(-23.54)"/><rect class="cls-4" x="28.51" y="84.57" width="21.01" height="21.01" transform="translate(-34.73 23.49) rotate(-23.54)"/><rect class="cls-3" x="36.89" y="103.85" width="21.01" height="21.01" transform="translate(-41.73 28.45) rotate(-23.54)"/><rect class="cls-4" x="45.29" y="123.11" width="21.01" height="21.01" transform="translate(-48.72 33.4) rotate(-23.54)"/><rect class="cls-5" x="65.79" y="160.86" width="21.01" height="39.65" transform="translate(-65.82 45.51) rotate(-23.54)"/><text class="cls-6" transform="translate(48.93 24.34) rotate(66.46)">20</text><text class="cls-6" transform="translate(69.91 72.5) rotate(66.46)">21</text><text class="cls-6" transform="translate(78.31 91.76) rotate(66.46)">22</text><text class="cls-6" transform="translate(88.38 114.88) rotate(66.46)">4</text><text class="cls-6" transform="translate(42.29 61.61) rotate(66.46)">27</text><text class="cls-6" transform="translate(50.68 80.88) rotate(66.46)">28</text><text class="cls-6" transform="translate(59.07 100.14) rotate(66.46)">29</text><text class="cls-6" transform="translate(75.86 138.67) rotate(66.46)">12</text><text class="cls-6" transform="translate(14.46 50.82) rotate(66.46)">32</text><text class="cls-6" transform="translate(6.07 31.56) rotate(66.46)">31</text><text class="cls-6" transform="translate(31.25 89.34) rotate(66.46)">33</text><text class="cls-6" transform="translate(39.64 108.61) rotate(66.46)">34</text><text class="cls-6" transform="translate(48.03 127.87) rotate(66.46)">35</text><g class="cls-7"><text class="cls-8" transform="translate(107.32 153.73) rotate(66.46)">2 </text><text class="cls-9" transform="translate(110.5 161.05) rotate(66.46)">t</text><text class="cls-8" transform="translate(111.75 163.92) rotate(66.46)">o 1</text></g><g class="cls-7"><text class="cls-8" transform="translate(88.09 162.11) rotate(66.46)">2 </text></g><text class="cls-6" transform="translate(25.51 23.09) rotate(66.46)">25</text><rect class="cls-3" x="117.43" y="142.38" width="21.01" height="21.01" transform="translate(-63.35 209.01) rotate(-66.43)"/><rect class="cls-4" x="98.18" y="134" width="21.01" height="21.01" transform="translate(-67.22 186.34) rotate(-66.43)"/><rect class="cls-3" x="78.93" y="125.59" width="21.01" height="21.01" transform="translate(-71.07 163.65) rotate(-66.43)"/><rect class="cls-4" x="153.14" y="36.45" width="42.02" height="21.01" transform="translate(61.47 187.8) rotate(-66.43)"/><rect class="cls-3" x="151.04" y="65.35" width="21.01" height="21.01" transform="translate(27.42 193.59) rotate(-66.43)"/><rect class="cls-4" x="142.64" y="84.61" width="21.01" height="21.01" transform="translate(4.73 197.45) rotate(-66.43)"/><rect class="cls-3" x="134.23" y="103.87" width="21.01" height="21.01" transform="translate(-17.97 201.3) rotate(-66.43)"/><rect class="cls-4" x="125.83" y="123.13" width="21.01" height="21.01" transform="translate(-40.67 205.15) rotate(-66.43)"/><rect class="cls-10" x="95.98" y="170.2" width="39.65" height="21.01" transform="translate(-96.13 214.59) rotate(-66.43)"/><rect class="cls-4" x="148.59" y="18.42" width="21.01" height="21.01" transform="translate(68.96 163.18) rotate(-66.43)"/><rect class="cls-3" x="140.18" y="37.68" width="21.01" height="21.01" transform="translate(46.26 167.04) rotate(-66.43)"/><rect class="cls-4" x="131.79" y="56.95" width="21.01" height="21.01" transform="translate(23.57 170.9) rotate(-66.43)"/><rect class="cls-3" x="123.38" y="76.21" width="21.01" height="21.01" transform="translate(0.87 174.76) rotate(-66.43)"/><rect class="cls-4" x="114.98" y="95.48" width="21.01" height="21.01" transform="translate(-21.83 178.62) rotate(-66.43)"/><rect class="cls-3" x="106.59" y="114.74" width="21.01" height="21.01" transform="translate(-44.52 182.49) rotate(-66.43)"/><rect class="cls-10" x="76.73" y="161.8" width="39.65" height="21.01" transform="translate(-99.98 191.91) rotate(-66.43)"/><rect class="cls-3" x="129.34" y="10.04" width="21.01" height="21.01" transform="translate(65.09 140.51) rotate(-66.43)"/><rect class="cls-4" x="120.95" y="29.3" width="21.01" height="21.01" transform="translate(42.4 144.38) rotate(-66.43)"/><rect class="cls-3" x="112.54" y="48.55" width="21.01" height="21.01" transform="translate(19.71 148.22) rotate(-66.43)"/><rect class="cls-4" x="104.15" y="67.81" width="21.01" height="21.01" transform="translate(-2.98 152.09) rotate(-66.43)"/><rect class="cls-3" x="95.74" y="87.08" width="21.01" height="21.01" transform="translate(-25.68 155.94) rotate(-66.43)"/><rect class="cls-4" x="87.34" y="106.33" width="21.01" height="21.01" transform="translate(-48.37 159.8) rotate(-66.43)"/><rect class="cls-10" x="57.49" y="153.4" width="39.65" height="21.01" transform="translate(-103.83 169.23) rotate(-66.43)"/><text class="cls-6" transform="matrix(-0.4, 0.92, -0.92, -0.4, 171.53, 41.34)">0</text><text class="cls-6" transform="matrix(-0.4, 0.92, -0.92, -0.4, 150.53, 89.49)">1</text><text class="cls-6" transform="matrix(-0.4, 0.92, -0.92, -0.4, 142.13, 108.75)">2</text><text class="cls-6" transform="matrix(-0.4, 0.92, -0.92, -0.4, 133.73, 128.01)">3</text><text class="cls-6" transform="matrix(-0.4, 0.92, -0.92, -0.4, 139.7, 61.85)">6</text><text class="cls-6" transform="matrix(-0.4, 0.92, -0.92, -0.4, 131.3, 81.11)">7</text><text class="cls-6" transform="matrix(-0.4, 0.92, -0.92, -0.4, 122.89, 100.36)">8</text><text class="cls-6" transform="matrix(-0.4, 0.92, -0.92, -0.4, 107.78, 135.03)">10</text><text class="cls-6" transform="matrix(-0.4, 0.92, -0.92, -0.4, 130.35, 30.26)">13</text><text class="cls-6" transform="matrix(-0.4, 0.92, -0.92, -0.4, 138.75, 11)">12</text><text class="cls-6" transform="matrix(-0.4, 0.92, -0.92, -0.4, 113.55, 68.78)">15</text><text class="cls-6" transform="matrix(-0.4, 0.92, -0.92, -0.4, 105.14, 88.03)">16</text><text class="cls-6" transform="matrix(-0.4, 0.92, -0.92, -0.4, 96.75, 107.29)">17</text><g class="cls-7"><text class="cls-8" transform="matrix(-0.4, 0.92, -0.92, -0.4, 98.93, 159.95)">2 </text></g><g class="cls-7"><text class="cls-8" transform="matrix(-0.4, 0.92, -0.92, -0.4, 79.5, 151.47)">2 </text><text class="cls-9" transform="matrix(-0.4, 0.92, -0.92, -0.4, 76.3, 158.78)">t</text><text class="cls-8" transform="matrix(-0.4, 0.92, -0.92, -0.4, 75.05, 161.65)">o 1</text></g><text class="cls-6" transform="matrix(-0.4, 0.92, -0.92, -0.4, 156.5, 23.33)">5</text></g></svg>