<svg xmlns="http://www.w3.org/2000/svg" xmlns:xlink="http://www.w3.org/1999/xlink" viewBox="0 0 241.9 347.91"><defs><style>.cls-1,.cls-10{fill:none;}.cls-2{isolation:isolate;}.cls-3{clip-path:url(#clip-path);}.cls-4{opacity:0.28;mix-blend-mode:overlay;}.cls-12,.cls-5{fill:#fff;}.cls-6{fill:url(#linear-gradient);}.cls-7{fill:url(#linear-gradient-2);}.cls-8{clip-path:url(#clip-path-2);}.cls-9{fill:url(#linear-gradient-3);}.cls-10{stroke-linecap:round;stroke-linejoin:round;stroke-width:2px;stroke:url(#linear-gradient-4);}.cls-11{font-size:30px;fill:#f5cb16;font-family:Roboto-Regular, Roboto;}.cls-12{opacity:0.16;mix-blend-mode:hard-light;}.cls-13{fill:url(#linear-gradient-5);}.cls-14{fill:url(#linear-gradient-6);}.cls-15{fill:url(#linear-gradient-7);}.cls-16{fill:url(#linear-gradient-8);}.cls-17{fill:url(#linear-gradient-9);}.cls-18{fill:url(#linear-gradient-10);}.cls-19{fill:url(#linear-gradient-11);}.cls-20{fill:url(#linear-gradient-12);}.cls-21{fill:url(#linear-gradient-13);}.cls-22{fill:url(#linear-gradient-14);}.cls-23{fill:url(#linear-gradient-15);}.cls-24{fill:url(#linear-gradient-16);}.cls-25{fill:url(#linear-gradient-17);}</style><clipPath id="clip-path"><path class="cls-1" d="M-37,258.92V86.41a11.34,11.34,0,0,1,3.54-8.26,17.57,17.57,0,0,0,5.35-12.7V19.34A17.73,17.73,0,0,0-45.88,1.61h-201.3a17.73,17.73,0,0,0-17.73,17.73V65.45a17.53,17.53,0,0,0,5.35,12.7A11.38,11.38,0,0,1-256,86.41V258.92a11.38,11.38,0,0,1-3.54,8.26,17.53,17.53,0,0,0-5.35,12.7V326a17.73,17.73,0,0,0,17.73,17.73h201.3A17.73,17.73,0,0,0-28.14,326V279.88a17.57,17.57,0,0,0-5.35-12.7A11.34,11.34,0,0,1-37,258.92Z"/></clipPath><linearGradient id="linear-gradient" x1="-20.38" y1="31.33" x2="262.28" y2="314" gradientUnits="userSpaceOnUse"><stop offset="0" stop-color="#fff"/><stop offset="0.5" stop-color="#e5e5e5"/><stop offset="1" stop-color="#c7c7c7"/></linearGradient><linearGradient id="linear-gradient-2" x1="120.95" y1="-3.08" x2="120.95" y2="348.09" gradientUnits="userSpaceOnUse"><stop offset="0" stop-color="#f5cb16"/><stop offset="0.28" stop-color="#fef687"/><stop offset="0.34" stop-color="#f5e063"/><stop offset="0.42" stop-color="#ebc83c"/><stop offset="0.48" stop-color="#e5b924"/><stop offset="0.52" stop-color="#e3b31b"/><stop offset="0.65" stop-color="#f0d24e"/><stop offset="0.79" stop-color="#fff585"/><stop offset="0.87" stop-color="#fbe254"/><stop offset="0.96" stop-color="#f7d227"/><stop offset="1" stop-color="#f5cb16"/></linearGradient><clipPath id="clip-path-2"><path class="cls-1" d="M230.44,258.92V86.41A11.38,11.38,0,0,1,234,78.15a17.53,17.53,0,0,0,5.35-12.7V19.34A17.73,17.73,0,0,0,221.6,1.61H20.3A17.73,17.73,0,0,0,2.56,19.34V65.45a17.54,17.54,0,0,0,5.36,12.7,11.38,11.38,0,0,1,3.54,8.26V258.92a11.38,11.38,0,0,1-3.54,8.26,17.54,17.54,0,0,0-5.36,12.7V326A17.73,17.73,0,0,0,20.3,343.72H221.6A17.73,17.73,0,0,0,239.33,326V279.88a17.53,17.53,0,0,0-5.35-12.7A11.38,11.38,0,0,1,230.44,258.92Z"/></clipPath><linearGradient id="linear-gradient-3" x1="-4.36" y1="47.36" x2="246.26" y2="297.97" gradientUnits="userSpaceOnUse"><stop offset="0" stop-color="#8c0f02"/><stop offset="1" stop-color="#ff1124"/></linearGradient><linearGradient id="linear-gradient-4" x1="-5.06" y1="46.65" x2="246.96" y2="298.68" gradientUnits="userSpaceOnUse"><stop offset="0" stop-color="#c7c7c7"/><stop offset="0.5" stop-color="#e5e5e5"/><stop offset="1" stop-color="#fff"/></linearGradient><linearGradient id="linear-gradient-5" x1="113.04" y1="-70.04" x2="363.65" y2="180.58" xlink:href="#linear-gradient"/><linearGradient id="linear-gradient-6" x1="102.53" y1="32" x2="139.37" y2="32" xlink:href="#linear-gradient-3"/><linearGradient id="linear-gradient-7" x1="116.5" y1="30.61" x2="122.07" y2="30.61" xlink:href="#linear-gradient-3"/><linearGradient id="linear-gradient-8" x1="124.68" y1="27.16" x2="126.2" y2="27.16" xlink:href="#linear-gradient-3"/><linearGradient id="linear-gradient-9" x1="112.35" y1="31.09" x2="113.92" y2="31.09" xlink:href="#linear-gradient-3"/><linearGradient id="linear-gradient-10" x1="123.48" y1="30.48" x2="124.98" y2="30.48" xlink:href="#linear-gradient-3"/><linearGradient id="linear-gradient-11" x1="114.55" y1="28.25" x2="116.05" y2="28.25" xlink:href="#linear-gradient-3"/><linearGradient id="linear-gradient-12" x1="108.41" y1="38.87" x2="109.92" y2="38.87" xlink:href="#linear-gradient-3"/><linearGradient id="linear-gradient-13" x1="110.64" y1="33.83" x2="112.14" y2="33.83" xlink:href="#linear-gradient-3"/><linearGradient id="linear-gradient-14" x1="121.86" y1="25.48" x2="123.3" y2="25.48" xlink:href="#linear-gradient-3"/><linearGradient id="linear-gradient-15" x1="105.32" y1="40.57" x2="106.83" y2="40.57" xlink:href="#linear-gradient-3"/><linearGradient id="linear-gradient-16" x1="114.82" y1="33.83" x2="116.3" y2="33.83" xlink:href="#linear-gradient-3"/><linearGradient id="linear-gradient-17" x1="127.66" y1="28.81" x2="129.15" y2="28.81" xlink:href="#linear-gradient-3"/></defs><g class="cls-2"><g id="Layer_1" data-name="Layer 1"><g class="cls-3"><g class="cls-4"><path class="cls-5" d="M.57,2.31A1.25,1.25,0,0,1,1.83,1,1.32,1.32,0,0,1,3.09,2.23,1.29,1.29,0,0,1,1.8,3.53,1.23,1.23,0,0,1,.57,2.31Z"/><path class="cls-5" d="M1.83,7.68A1.14,1.14,0,0,1,2.93,8.9a1.12,1.12,0,0,1-1.14,1A1.19,1.19,0,0,1,.66,8.85,1.19,1.19,0,0,1,1.83,7.68Z"/><path class="cls-5" d="M8.34,3.28a1.06,1.06,0,0,1-1-1,1.08,1.08,0,0,1,1-1,1,1,0,0,1,1,1A1,1,0,0,1,8.34,3.28Z"/><path class="cls-5" d="M1.82,14.37a1,1,0,0,1,1,1.06,1,1,0,0,1-1,.93,1,1,0,0,1,0-2Z"/><path class="cls-5" d="M9.23,8.86a.93.93,0,0,1-.91.84.9.9,0,0,1-.82-.92.88.88,0,0,1,.9-.84A.92.92,0,0,1,9.23,8.86Z"/><path class="cls-5" d="M1.81,22.6A.78.78,0,0,1,1,21.79a.8.8,0,0,1,.8-.8.86.86,0,0,1,.81.81A.84.84,0,0,1,1.81,22.6Z"/><path class="cls-5" d="M15.59,2.47a2.15,2.15,0,0,1-.71.48.62.62,0,0,1-.66-.71,1.23,1.23,0,0,1,.65-.64C15.22,1.47,15.59,1.86,15.59,2.47Z"/><path class="cls-5" d="M9.36,15.29c-.45.36-.68.68-1,.75s-.63-.17-.69-.57.22-.84.59-.78A4.23,4.23,0,0,1,9.36,15.29Z"/><path class="cls-5" d="M2.66,28.27c-.38.31-.59.61-.79.61a.81.81,0,0,1-.59-.49.45.45,0,0,1,.49-.59C2,27.82,2.24,28,2.66,28.27Z"/><path class="cls-5" d="M14.91,8.12c.24.3.48.48.5.68a.42.42,0,0,1-.56.49.71.71,0,0,1-.43-.51C14.42,8.6,14.68,8.42,14.91,8.12Z"/><path class="cls-5" d="M8.42,21.15c.18.31.39.51.39.71s-.29.28-.45.42c-.15-.18-.38-.35-.42-.55S8.18,21.42,8.42,21.15Z"/><path class="cls-5" d="M15.15,15.31l-.37.26c0-.09-.14-.18-.12-.26s.12-.17.2-.2S15,15.21,15.15,15.31Z"/></g></g><path class="cls-6" d="M221.6,346.29H20.3A20.33,20.33,0,0,1,0,326V279.88a20.14,20.14,0,0,1,6.15-14.55,8.79,8.79,0,0,0,2.74-6.41V86.41A8.79,8.79,0,0,0,6.15,80,20.16,20.16,0,0,1,0,65.45V19.34A20.33,20.33,0,0,1,20.3-1H221.6a20.33,20.33,0,0,1,20.3,20.3V65.45A20.16,20.16,0,0,1,235.75,80,8.8,8.8,0,0,0,233,86.41V258.92a8.8,8.8,0,0,0,2.75,6.41,20.14,20.14,0,0,1,6.15,14.55V326A20.33,20.33,0,0,1,221.6,346.29ZM20.3,4.17A15.19,15.19,0,0,0,5.13,19.34V65.45A15,15,0,0,0,9.69,76.29,13.88,13.88,0,0,1,14,86.41V258.92A13.88,13.88,0,0,1,9.69,269a15,15,0,0,0-4.56,10.84V326A15.19,15.19,0,0,0,20.3,341.16H221.6A15.19,15.19,0,0,0,236.77,326V279.88A15,15,0,0,0,232.21,269a13.88,13.88,0,0,1-4.33-10.12V86.41a13.88,13.88,0,0,1,4.33-10.12,15,15,0,0,0,4.56-10.84V19.34A15.19,15.19,0,0,0,221.6,4.17Z"/><path class="cls-7" d="M230.44,258.92V86.41A11.38,11.38,0,0,1,234,78.15a17.53,17.53,0,0,0,5.35-12.7V19.34A17.73,17.73,0,0,0,221.6,1.61H20.3A17.73,17.73,0,0,0,2.56,19.34V65.45a17.54,17.54,0,0,0,5.36,12.7,11.38,11.38,0,0,1,3.54,8.26V258.92a11.38,11.38,0,0,1-3.54,8.26,17.54,17.54,0,0,0-5.36,12.7V326A17.73,17.73,0,0,0,20.3,343.72H221.6A17.73,17.73,0,0,0,239.33,326V279.88a17.53,17.53,0,0,0-5.35-12.7A11.38,11.38,0,0,1,230.44,258.92Z"/><g class="cls-8"><g class="cls-4"><path class="cls-5" d="M178.31-.38A2.68,2.68,0,0,1,181,2.31a2.66,2.66,0,0,1-2.65,2.6,2.6,2.6,0,0,1-2.64-2.68A2.62,2.62,0,0,1,178.31-.38Z"/><path class="cls-5" d="M171.87-.38a2.69,2.69,0,0,1,2.68,2.69,2.66,2.66,0,0,1-2.65,2.6,2.6,2.6,0,0,1-2.64-2.68A2.61,2.61,0,0,1,171.87-.38Z"/><path class="cls-5" d="M187.49,2.34a2.6,2.6,0,0,1-2.66,2.57,2.67,2.67,0,0,1-2.62-2.65A2.69,2.69,0,0,1,185-.37,2.63,2.63,0,0,1,187.49,2.34Z"/><path class="cls-5" d="M188.8,2.28a2.62,2.62,0,0,1,2.61-2.64,2.69,2.69,0,0,1,2.64,2.62,2.66,2.66,0,0,1-2.63,2.63A2.6,2.6,0,0,1,188.8,2.28Z"/><path class="cls-5" d="M168,2.27a2.6,2.6,0,0,1-2.61,2.62,2.66,2.66,0,0,1-2.64-2.62,2.69,2.69,0,0,1,2.63-2.63A2.62,2.62,0,0,1,168,2.27Z"/><path class="cls-5" d="M161.49,2.23a2.58,2.58,0,1,1-5.16.08,2.58,2.58,0,1,1,5.16-.08Z"/><path class="cls-5" d="M197.81-.32a2.59,2.59,0,1,1-2.54,2.68A2.6,2.6,0,0,1,197.81-.32Z"/><path class="cls-5" d="M154.87,2.27a2.5,2.5,0,0,1-2.54,2.53,2.57,2.57,0,0,1-2.51-2.59,2.53,2.53,0,0,1,2.51-2.45A2.47,2.47,0,0,1,154.87,2.27Z"/><path class="cls-5" d="M180.83,8.81a2.49,2.49,0,0,1-2.54,2.53,2.53,2.53,0,0,1,0-5A2.51,2.51,0,0,1,180.83,8.81Z"/><path class="cls-5" d="M184.82,6.29a2.58,2.58,0,0,1,2.58,2.54,2.55,2.55,0,0,1-2.49,2.5,2.49,2.49,0,0,1-2.55-2.41A2.53,2.53,0,0,1,184.82,6.29Z"/><path class="cls-5" d="M174.39,8.84a2.5,2.5,0,0,1-2.47,2.5,2.57,2.57,0,0,1-2.57-2.55,2.57,2.57,0,0,1,2.5-2.5A2.51,2.51,0,0,1,174.39,8.84Z"/><path class="cls-5" d="M201.89,2.23a2.46,2.46,0,0,1,2.48-2.46,2.54,2.54,0,0,1,2.56,2.54,2.58,2.58,0,0,1-2.52,2.48A2.49,2.49,0,0,1,201.89,2.23Z"/><path class="cls-5" d="M162.85,8.82a2.51,2.51,0,0,1,2.46-2.51,2.56,2.56,0,0,1,2.54,2.56,2.55,2.55,0,0,1-2.54,2.45A2.49,2.49,0,0,1,162.85,8.82Z"/><path class="cls-5" d="M193.9,8.83a2.5,2.5,0,0,1-2.47,2.49,2.55,2.55,0,0,1-2.53-2.46,2.55,2.55,0,0,1,2.55-2.55A2.51,2.51,0,0,1,193.9,8.83Z"/><path class="cls-5" d="M158.85,6.34a2.48,2.48,0,1,1-2.41,2.56A2.48,2.48,0,0,1,158.85,6.34Z"/><path class="cls-5" d="M145.89-.18a2.45,2.45,0,1,1,0,4.9,2.42,2.42,0,0,1-2.44-2.39A2.43,2.43,0,0,1,145.89-.18Z"/><path class="cls-5" d="M195.4,8.87a2.45,2.45,0,1,1,4.9,0,2.45,2.45,0,0,1-4.9,0Z"/><path class="cls-5" d="M210.82-.16a2.39,2.39,0,0,1,2.43,2.37,2.39,2.39,0,0,1-2.42,2.49,2.45,2.45,0,0,1-2.46-2.37A2.44,2.44,0,0,1,210.82-.16Z"/><path class="cls-5" d="M175.93,15.39A2.4,2.4,0,0,1,178.3,13a2.41,2.41,0,1,1,0,4.81A2.39,2.39,0,0,1,175.93,15.39Z"/><path class="cls-5" d="M152.45,6.42a2.43,2.43,0,0,1,2.34,2.49,2.46,2.46,0,0,1-2.52,2.32,2.39,2.39,0,0,1-2.3-2.5A2.36,2.36,0,0,1,152.45,6.42Z"/><path class="cls-5" d="M204.38,6.43a2.4,2.4,0,0,1,0,4.79,2.4,2.4,0,1,1,0-4.79Z"/><path class="cls-5" d="M187.24,15.36a2.38,2.38,0,0,1-2.4,2.4,2.4,2.4,0,0,1,0-4.8A2.4,2.4,0,0,1,187.24,15.36Z"/><path class="cls-5" d="M169.51,15.35A2.4,2.4,0,0,1,171.93,13a2.47,2.47,0,0,1,2.36,2.36,2.43,2.43,0,0,1-2.39,2.44A2.38,2.38,0,0,1,169.51,15.35Z"/><path class="cls-5" d="M217.38,4.65a2.38,2.38,0,0,1,0-4.76,2.4,2.4,0,0,1,2.38,2.43A2.41,2.41,0,0,1,217.38,4.65Z"/><path class="cls-5" d="M193.78,15.53A2.37,2.37,0,1,1,191.52,13,2.4,2.4,0,0,1,193.78,15.53Z"/><path class="cls-5" d="M165.35,13A2.38,2.38,0,1,1,163,15.3,2.4,2.4,0,0,1,165.35,13Z"/><path class="cls-5" d="M141.75,2.27a2.39,2.39,0,0,1-2.4,2.39A2.43,2.43,0,0,1,137,2.33a2.44,2.44,0,0,1,2.36-2.45A2.4,2.4,0,0,1,141.75,2.27Z"/><path class="cls-5" d="M197.81,17.71a2.35,2.35,0,0,1,.06-4.69,2.35,2.35,0,0,1-.06,4.69Z"/><path class="cls-5" d="M158.9,17.71a2.35,2.35,0,0,1,0-4.69,2.35,2.35,0,0,1,0,4.69Z"/><path class="cls-5" d="M145.91,11.14a2.31,2.31,0,0,1-2.33-2.3,2.34,2.34,0,1,1,4.68,0A2.28,2.28,0,0,1,145.91,11.14Z"/><path class="cls-5" d="M210.85,6.5a2.32,2.32,0,1,1,0,4.63,2.32,2.32,0,1,1,0-4.63Z"/><path class="cls-5" d="M139.33,6.53a2.34,2.34,0,0,1,2.34,2.21,2.33,2.33,0,0,1-2.19,2.36,2.29,2.29,0,0,1-.15-4.57Z"/><path class="cls-5" d="M135.1,2.33a2.26,2.26,0,0,1-2.27,2.23,2.33,2.33,0,0,1-2.3-2.35A2.3,2.3,0,0,1,132.83,0,2.23,2.23,0,0,1,135.1,2.33Z"/><path class="cls-5" d="M154.63,15.38a2.25,2.25,0,0,1-2.23,2.27,2.28,2.28,0,1,1,0-4.56A2.25,2.25,0,0,1,154.63,15.38Z"/><path class="cls-5" d="M204.46,13.11a2.26,2.26,0,0,1-.08,4.52,2.26,2.26,0,1,1,.08-4.52Z"/><path class="cls-5" d="M226.06,2.22a2.23,2.23,0,0,1-2.18,2.31,2.29,2.29,0,0,1-2.37-2.27A2.28,2.28,0,0,1,223.78,0,2.22,2.22,0,0,1,226.06,2.22Z"/><path class="cls-5" d="M184.81,24a2.24,2.24,0,1,1,.11-4.47,2.24,2.24,0,1,1-.11,4.47Z"/><path class="cls-5" d="M180.57,21.81A2.22,2.22,0,0,1,178.3,24a2.25,2.25,0,1,1,0-4.49A2.21,2.21,0,0,1,180.57,21.81Z"/><path class="cls-5" d="M171.93,19.56a2.24,2.24,0,1,1-.09,4.47,2.24,2.24,0,1,1,.09-4.47Z"/><path class="cls-5" d="M217.36,11.08a2.27,2.27,0,1,1,2.26-2.25A2.27,2.27,0,0,1,217.36,11.08Z"/><path class="cls-5" d="M165.31,24a2.23,2.23,0,1,1,2.27-2.23A2.21,2.21,0,0,1,165.31,24Z"/><path class="cls-5" d="M191.41,24a2.22,2.22,0,1,1,0-4.43,2.22,2.22,0,1,1,0,4.43Z"/><path class="cls-5" d="M146,17.58a2.22,2.22,0,1,1,0-4.43,2.22,2.22,0,1,1,0,4.43Z"/><path class="cls-5" d="M210.8,17.57a2.21,2.21,0,1,1,0-4.41,2.21,2.21,0,0,1,0,4.41Z"/><path class="cls-5" d="M158.94,24a2.2,2.2,0,1,1,0-4.39,2.2,2.2,0,0,1,0,4.39Z"/><path class="cls-5" d="M197.84,24a2.19,2.19,0,0,1-.05-4.37,2.19,2.19,0,1,1,.05,4.37Z"/><path class="cls-5" d="M128.6,2.25a2.21,2.21,0,0,1-2.17,2.2,2.15,2.15,0,0,1-2.19-2.16,2.15,2.15,0,0,1,2.14-2.2A2.23,2.23,0,0,1,128.6,2.25Z"/><path class="cls-5" d="M232.5,2.26a2.15,2.15,0,0,1-2.17,2.18,2.2,2.2,0,0,1-2.17-2.21A2.25,2.25,0,0,1,230.31.09,2.16,2.16,0,0,1,232.5,2.26Z"/><path class="cls-5" d="M130.67,8.78a2.14,2.14,0,0,1,2.21-2.13A2.19,2.19,0,0,1,135,8.86,2.23,2.23,0,0,1,132.79,11,2.16,2.16,0,0,1,130.67,8.78Z"/><path class="cls-5" d="M226,8.81a2.19,2.19,0,0,1-2.2,2.17,2.16,2.16,0,0,1,0-4.31A2.18,2.18,0,0,1,226,8.81Z"/><path class="cls-5" d="M152.35,19.63a2.17,2.17,0,1,1,0,4.33,2.17,2.17,0,0,1,0-4.33Z"/><path class="cls-5" d="M141.52,15.39a2.14,2.14,0,0,1-2.19,2.14,2.17,2.17,0,0,1,0-4.34A2.16,2.16,0,0,1,141.52,15.39Z"/><path class="cls-5" d="M206.53,21.81a2.15,2.15,0,0,1-2.1,2.14,2.16,2.16,0,1,1-.08-4.31A2.16,2.16,0,0,1,206.53,21.81Z"/><path class="cls-5" d="M217.41,17.51a2.15,2.15,0,1,1,0-4.29,2.15,2.15,0,0,1,0,4.29Z"/><path class="cls-5" d="M178.34,30.44a2.1,2.1,0,1,1,2.09-2.12A2.08,2.08,0,0,1,178.34,30.44Z"/><path class="cls-5" d="M171.88,30.43a2.09,2.09,0,1,1,0-4.18,2.09,2.09,0,1,1,0,4.18Z"/><path class="cls-5" d="M185,26.25a2.09,2.09,0,1,1-.26,4.18,2.09,2.09,0,0,1,.26-4.18Z"/><path class="cls-5" d="M163.26,28.24a2.06,2.06,0,0,1,2.21-2,2.08,2.08,0,0,1-.2,4.16A2,2,0,0,1,163.26,28.24Z"/><path class="cls-5" d="M145.9,19.69a2.11,2.11,0,0,1,.1,4.22,2.11,2.11,0,1,1-.1-4.22Z"/><path class="cls-5" d="M128.46,8.77a2,2,0,0,1-2,2.12,2.08,2.08,0,1,1-.11-4.15A2,2,0,0,1,128.46,8.77Z"/><path class="cls-5" d="M193.47,28.36a2,2,0,0,1-2,2.06,2.08,2.08,0,1,1,0-4.15A2,2,0,0,1,193.47,28.36Z"/><path class="cls-5" d="M212.92,21.8a2.13,2.13,0,0,1-2.15,2.09,2.07,2.07,0,0,1-2-2.09,2.05,2.05,0,0,1,2-2.08A2.11,2.11,0,0,1,212.92,21.8Z"/><path class="cls-5" d="M230.34,6.75a2.07,2.07,0,1,1,0,4.13,2.07,2.07,0,0,1,0-4.13Z"/><path class="cls-5" d="M199.88,28.31a2,2,0,0,1-2,2.09,2.09,2.09,0,0,1-2.13-2.08,2.12,2.12,0,0,1,2.07-2A2,2,0,0,1,199.88,28.31Z"/><path class="cls-5" d="M161,28.35a2.09,2.09,0,0,1-2,2,2.06,2.06,0,1,1,0-4.12A2.11,2.11,0,0,1,161,28.35Z"/><path class="cls-5" d="M134.88,15.4a2,2,0,0,1-2,2,2.11,2.11,0,0,1-2.11-2.1,2.09,2.09,0,0,1,2.17-2A2,2,0,0,1,134.88,15.4Z"/><path class="cls-5" d="M119.88,4.35a2.07,2.07,0,0,1-2.08-2,2,2,0,0,1,2-2.15,2.1,2.1,0,0,1,2.11,2A2.12,2.12,0,0,1,119.88,4.35Z"/><path class="cls-5" d="M236.89.25a2,2,0,0,1,2,2,2,2,0,0,1-2,2,2.07,2.07,0,0,1-2.08-2A2.06,2.06,0,0,1,236.89.25Z"/><path class="cls-5" d="M225.83,15.38a2,2,0,0,1-2,2,2.08,2.08,0,0,1-2-2,2.06,2.06,0,0,1,2.08-2A2,2,0,0,1,225.83,15.38Z"/><path class="cls-5" d="M139.43,19.8a2,2,0,1,1-2.06,2A2,2,0,0,1,139.43,19.8Z"/><path class="cls-5" d="M154.37,28.35a2,2,0,1,1-4-.07,2.06,2.06,0,0,1,2-2A2,2,0,0,1,154.37,28.35Z"/><path class="cls-5" d="M204.42,30.36a2,2,0,1,1,2-2.11A2,2,0,0,1,204.42,30.36Z"/><path class="cls-5" d="M219.38,21.75a2,2,0,1,1-2.12-1.94A2,2,0,0,1,219.38,21.75Z"/><path class="cls-5" d="M121.8,8.8a2,2,0,0,1-1.93,2,2,2,0,0,1-2-1.95,2,2,0,0,1,2-2A1.94,1.94,0,0,1,121.8,8.8Z"/><path class="cls-5" d="M178.32,32.81a2,2,0,0,1,2,2,2,2,0,0,1-2,2,2,2,0,0,1-1.95-2A1.94,1.94,0,0,1,178.32,32.81Z"/><path class="cls-5" d="M115.36,2.28a1.93,1.93,0,0,1-2,1.94,2,2,0,0,1-1.93-1.9,2,2,0,0,1,2-2A1.93,1.93,0,0,1,115.36,2.28Z"/><path class="cls-5" d="M230.39,17.31a2,2,0,1,1,0-3.9,2,2,0,0,1,0,3.9Z"/><path class="cls-5" d="M126.38,17.32a1.92,1.92,0,0,1-1.93-2,1.94,1.94,0,0,1,2-1.95,2,2,0,1,1,0,3.92Z"/><path class="cls-5" d="M186.8,34.8a1.94,1.94,0,0,1-2,1.93,2,2,0,0,1-1.91-1.92,2,2,0,0,1,2-2A1.9,1.9,0,0,1,186.8,34.8Z"/><path class="cls-5" d="M132.78,19.85a2,2,0,0,1,2,1.92,2,2,0,0,1-2,2,1.95,1.95,0,0,1-.05-3.89Z"/><path class="cls-5" d="M236.94,10.78a2,2,0,0,1-2-1.95,1.9,1.9,0,0,1,1.84-1.95,2,2,0,0,1,2.06,1.87A2,2,0,0,1,236.94,10.78Z"/><path class="cls-5" d="M173.85,34.72a2,2,0,0,1-1.93,2,1.93,1.93,0,0,1-2-1.84,1.89,1.89,0,0,1,1.84-2A2,2,0,0,1,173.85,34.72Z"/><path class="cls-5" d="M147.89,28.35a2,2,0,0,1-2,1.95,2,2,0,0,1-1.91-2,1.9,1.9,0,0,1,1.92-1.87A2,2,0,0,1,147.89,28.35Z"/><path class="cls-5" d="M223.76,23.73a1.94,1.94,0,0,1,.08-3.87,1.94,1.94,0,1,1-.08,3.87Z"/><path class="cls-5" d="M243.33,4.2a1.91,1.91,0,0,1-1.91-1.87,1.94,1.94,0,0,1,1.91-2,2,2,0,0,1,1.94,2A2,2,0,0,1,243.33,4.2Z"/><path class="cls-5" d="M165.36,36.71a1.93,1.93,0,1,1-.05-3.86,1.89,1.89,0,0,1,1.95,1.84A1.92,1.92,0,0,1,165.36,36.71Z"/><path class="cls-5" d="M191.44,32.85a1.93,1.93,0,1,1-.05,3.86,1.92,1.92,0,0,1-1.9-2A1.89,1.89,0,0,1,191.44,32.85Z"/><path class="cls-5" d="M212.75,28.33a1.93,1.93,0,0,1-2,2,1.93,1.93,0,1,1,.08-3.86A1.89,1.89,0,0,1,212.75,28.33Z"/><path class="cls-5" d="M157,34.68a1.91,1.91,0,0,1,2.1-1.79,1.89,1.89,0,0,1,1.72,2,1.87,1.87,0,0,1-2,1.73A1.89,1.89,0,0,1,157,34.68Z"/><path class="cls-5" d="M197.87,32.9a1.88,1.88,0,1,1-.06,3.75,1.88,1.88,0,1,1,.06-3.75Z"/><path class="cls-5" d="M139.36,30.21a1.87,1.87,0,0,1,0-3.74,1.87,1.87,0,0,1,1.91,1.87A1.85,1.85,0,0,1,139.36,30.21Z"/><path class="cls-5" d="M217.35,26.49a1.86,1.86,0,0,1,.09,3.71,1.86,1.86,0,1,1-.09-3.71Z"/><path class="cls-5" d="M204.4,32.93a1.85,1.85,0,1,1,0,3.69,1.85,1.85,0,0,1,0-3.69Z"/><path class="cls-5" d="M154.19,34.8a1.8,1.8,0,0,1-1.81,1.82,1.85,1.85,0,1,1,.06-3.69A1.8,1.8,0,0,1,154.19,34.8Z"/><path class="cls-5" d="M119.86,17.23a1.86,1.86,0,0,1,0-3.72,1.86,1.86,0,1,1,0,3.72Z"/><path class="cls-5" d="M126.45,23.65a1.89,1.89,0,0,1-1.9-1.77A1.86,1.86,0,0,1,126.29,20a1.8,1.8,0,0,1,1.93,1.81A1.83,1.83,0,0,1,126.45,23.65Z"/><path class="cls-5" d="M238.72,15.33A1.83,1.83,0,0,1,237,17.21,1.88,1.88,0,0,1,235,15.34a1.86,1.86,0,0,1,1.85-1.8A1.79,1.79,0,0,1,238.72,15.33Z"/><path class="cls-5" d="M113.46,10.65a1.79,1.79,0,0,1-1.86-1.76A1.81,1.81,0,0,1,113.44,7a1.84,1.84,0,0,1,0,3.67Z"/><path class="cls-5" d="M232.19,21.83a1.86,1.86,0,0,1-1.87,1.79,1.82,1.82,0,1,1,.07-3.63A1.83,1.83,0,0,1,232.19,21.83Z"/><path class="cls-5" d="M245.14,8.78a1.8,1.8,0,0,1-1.75,1.86,1.86,1.86,0,0,1-1.9-1.84A1.89,1.89,0,0,1,243.32,7,1.83,1.83,0,0,1,245.14,8.78Z"/><path class="cls-5" d="M132.86,30.15a1.81,1.81,0,1,1,0-3.62,1.82,1.82,0,0,1,1.76,1.76A1.8,1.8,0,0,1,132.86,30.15Z"/><path class="cls-5" d="M108.67,2.29a1.77,1.77,0,0,1-1.82,1.78A1.84,1.84,0,0,1,105,2.25,1.82,1.82,0,0,1,106.89.48,1.75,1.75,0,0,1,108.67,2.29Z"/><path class="cls-5" d="M147.72,34.82a1.8,1.8,0,0,1-1.86,1.76,1.85,1.85,0,0,1-1.74-1.79A1.87,1.87,0,0,1,145.94,33,1.83,1.83,0,0,1,147.72,34.82Z"/><path class="cls-5" d="M210.77,36.58A1.81,1.81,0,0,1,209,34.7,1.83,1.83,0,0,1,210.81,33a1.86,1.86,0,0,1,1.82,1.84A1.84,1.84,0,0,1,210.77,36.58Z"/><path class="cls-5" d="M225.58,28.29a1.81,1.81,0,0,1-1.78,1.85,1.8,1.8,0,0,1,0-3.59A1.8,1.8,0,0,1,225.58,28.29Z"/><path class="cls-5" d="M180.11,41.35a1.77,1.77,0,0,1-1.85,1.75,1.78,1.78,0,1,1,.06-3.55A1.75,1.75,0,0,1,180.11,41.35Z"/><path class="cls-5" d="M186.65,41.32a1.79,1.79,0,1,1-1.73-1.76A1.75,1.75,0,0,1,186.65,41.32Z"/><path class="cls-5" d="M173.66,41.27a1.78,1.78,0,0,1-3.56.1,1.77,1.77,0,0,1,1.68-1.81A1.75,1.75,0,0,1,173.66,41.27Z"/><path class="cls-5" d="M193.18,41.31a1.74,1.74,0,0,1-1.72,1.76,1.71,1.71,0,0,1-1.8-1.67,1.73,1.73,0,0,1,1.77-1.83A1.75,1.75,0,0,1,193.18,41.31Z"/><path class="cls-5" d="M165.35,43.07a1.75,1.75,0,1,1,1.75-1.74A1.73,1.73,0,0,1,165.35,43.07Z"/><path class="cls-5" d="M158.93,43.05a1.73,1.73,0,1,1-.06-3.46,1.73,1.73,0,0,1,.06,3.46Z"/><path class="cls-5" d="M199.59,41.36a1.74,1.74,0,0,1-1.78,1.69,1.73,1.73,0,0,1,.08-3.46A1.76,1.76,0,0,1,199.59,41.36Z"/><path class="cls-5" d="M118.11,21.79a1.77,1.77,0,0,1,1.78-1.72,1.71,1.71,0,0,1,1.67,1.79,1.68,1.68,0,0,1-1.69,1.65A1.75,1.75,0,0,1,118.11,21.79Z"/><path class="cls-5" d="M113.4,17.08a1.72,1.72,0,1,1,.09-3.44,1.72,1.72,0,0,1-.09,3.44Z"/><path class="cls-5" d="M236.89,20.08a1.72,1.72,0,1,1,0,3.43,1.72,1.72,0,0,1,0-3.43Z"/><path class="cls-5" d="M243.36,17.07a1.69,1.69,0,0,1-1.72-1.62,1.7,1.7,0,0,1,1.67-1.8,1.76,1.76,0,0,1,1.74,1.75A1.75,1.75,0,0,1,243.36,17.07Z"/><path class="cls-5" d="M152.39,43a1.7,1.7,0,0,1-.12-3.4,1.7,1.7,0,1,1,.12,3.4Z"/><path class="cls-5" d="M141.08,34.83a1.69,1.69,0,0,1-1.78,1.67,1.77,1.77,0,0,1-1.66-1.71,1.75,1.75,0,0,1,1.76-1.72A1.67,1.67,0,0,1,141.08,34.83Z"/><path class="cls-5" d="M219.11,34.72a1.79,1.79,0,0,1-1.71,1.79,1.72,1.72,0,0,1-1.73-1.62,1.67,1.67,0,0,1,1.62-1.82A1.76,1.76,0,0,1,219.11,34.72Z"/><path class="cls-5" d="M106.85,10.52a1.68,1.68,0,0,1-1.67-1.79,1.65,1.65,0,0,1,1.72-1.6,1.7,1.7,0,1,1-.05,3.39Z"/><path class="cls-5" d="M128.11,28.39A1.71,1.71,0,0,1,126.39,30a1.68,1.68,0,1,1,.09-3.35A1.72,1.72,0,0,1,128.11,28.39Z"/><path class="cls-5" d="M204.39,39.63a1.7,1.7,0,0,1,1.67,1.69A1.68,1.68,0,0,1,204.4,43a1.69,1.69,0,0,1,0-3.38Z"/><path class="cls-5" d="M230.33,26.69a1.66,1.66,0,1,1,0,3.31,1.66,1.66,0,1,1,0-3.31Z"/><path class="cls-5" d="M98.78,2.28a1.66,1.66,0,1,1,3.32,0,1.66,1.66,0,0,1-3.32,0Z"/><path class="cls-5" d="M147.53,41.43A1.62,1.62,0,0,1,145.88,43a1.64,1.64,0,1,1,.09-3.27A1.62,1.62,0,0,1,147.53,41.43Z"/><path class="cls-5" d="M132.83,36.4a1.63,1.63,0,0,1-1.65-1.68,1.66,1.66,0,0,1,1.64-1.58,1.61,1.61,0,0,1,1.64,1.69A1.59,1.59,0,0,1,132.83,36.4Z"/><path class="cls-5" d="M212.46,41.34a1.66,1.66,0,0,1-1.7,1.62,1.64,1.64,0,0,1-1.55-1.65,1.62,1.62,0,0,1,1.57-1.62A1.66,1.66,0,0,1,212.46,41.34Z"/><path class="cls-5" d="M179.91,47.79a1.59,1.59,0,0,1-1.6,1.58,1.61,1.61,0,1,1,.07-3.22A1.57,1.57,0,0,1,179.91,47.79Z"/><path class="cls-5" d="M223.77,33.15a1.62,1.62,0,0,1,.06,3.24,1.62,1.62,0,1,1-.06-3.24Z"/><path class="cls-5" d="M184.84,46.15a1.64,1.64,0,0,1,1.65,1.55,1.66,1.66,0,0,1-1.65,1.68,1.62,1.62,0,0,1-1.57-1.63A1.57,1.57,0,0,1,184.84,46.15Z"/><path class="cls-5" d="M173.48,47.79a1.6,1.6,0,0,1-1.61,1.58,1.61,1.61,0,1,1,.08-3.22A1.58,1.58,0,0,1,173.48,47.79Z"/><path class="cls-5" d="M113.47,23.39a1.57,1.57,0,0,1-1.63-1.54,1.55,1.55,0,0,1,1.53-1.63A1.6,1.6,0,0,1,115,21.75,1.62,1.62,0,0,1,113.47,23.39Z"/><path class="cls-5" d="M106.89,17a1.65,1.65,0,0,1-1.63-1.58,1.62,1.62,0,0,1,1.6-1.59,1.55,1.55,0,0,1,1.6,1.56A1.59,1.59,0,0,1,106.89,17Z"/><path class="cls-5" d="M165.34,46.18A1.6,1.6,0,0,1,167,47.75a1.64,1.64,0,0,1-1.61,1.6,1.57,1.57,0,0,1-1.58-1.59A1.54,1.54,0,0,1,165.34,46.18Z"/><path class="cls-5" d="M121.44,28.38a1.61,1.61,0,0,1-1.65,1.55,1.59,1.59,0,0,1,.08-3.18A1.63,1.63,0,0,1,121.44,28.38Z"/><path class="cls-5" d="M238.45,28.37a1.58,1.58,0,0,1-1.52,1.55,1.58,1.58,0,0,1-.06-3.15A1.58,1.58,0,0,1,238.45,28.37Z"/><path class="cls-5" d="M243.38,20.24a1.56,1.56,0,0,1,0,3.12,1.56,1.56,0,1,1,0-3.12Z"/><path class="cls-5" d="M191.28,49.31a1.56,1.56,0,1,1,.32-3.1,1.56,1.56,0,0,1-.32,3.1Z"/><path class="cls-5" d="M126.41,36.34A1.56,1.56,0,1,1,128,34.8,1.58,1.58,0,0,1,126.41,36.34Z"/><path class="cls-5" d="M100.44,10.38A1.56,1.56,0,1,1,102,8.85,1.59,1.59,0,0,1,100.44,10.38Z"/><path class="cls-5" d="M158.89,49.3a1.55,1.55,0,1,1,0-3.09,1.55,1.55,0,1,1,0,3.09Z"/><path class="cls-5" d="M141,41.33a1.57,1.57,0,0,1-1.64,1.54,1.55,1.55,0,1,1,.14-3.09A1.56,1.56,0,0,1,141,41.33Z"/><path class="cls-5" d="M217.39,42.85a1.53,1.53,0,0,1-.09-3.05,1.53,1.53,0,1,1,.09,3.05Z"/><path class="cls-5" d="M196.3,47.71a1.55,1.55,0,1,1,1.48,1.57A1.53,1.53,0,0,1,196.3,47.71Z"/><path class="cls-5" d="M231.86,34.74a1.54,1.54,0,0,1-1.48,1.58,1.54,1.54,0,0,1-.07-3.08A1.53,1.53,0,0,1,231.86,34.74Z"/><path class="cls-5" d="M152.4,46.25a1.5,1.5,0,1,1-.14,3,1.5,1.5,0,0,1,.14-3Z"/><path class="cls-5" d="M205.87,47.77a1.46,1.46,0,0,1-1.44,1.47,1.52,1.52,0,0,1-1.55-1.5,1.54,1.54,0,0,1,1.58-1.48A1.48,1.48,0,0,1,205.87,47.77Z"/><path class="cls-5" d="M93.93.79a1.48,1.48,0,0,1,0,3A1.52,1.52,0,0,1,92.4,2.2,1.55,1.55,0,0,1,93.93.79Z"/><path class="cls-5" d="M132.88,42.8a1.46,1.46,0,0,1-1.51-1.4,1.48,1.48,0,0,1,1.48-1.56,1.55,1.55,0,0,1,1.48,1.47A1.53,1.53,0,0,1,132.88,42.8Z"/><path class="cls-5" d="M106.84,23.26a1.45,1.45,0,0,1-1.41-1.5,1.48,1.48,0,0,1,1.48-1.44,1.53,1.53,0,0,1,1.43,1.51A1.5,1.5,0,0,1,106.84,23.26Z"/><path class="cls-5" d="M223.75,42.79a1.47,1.47,0,0,1-1.4-1.52,1.49,1.49,0,0,1,1.5-1.42,1.53,1.53,0,0,1,1.42,1.52A1.51,1.51,0,0,1,223.75,42.79Z"/><path class="cls-5" d="M144.49,47.71A1.48,1.48,0,0,1,146,46.3a1.5,1.5,0,0,1,1.37,1.45,1.44,1.44,0,1,1-2.88,0Z"/><path class="cls-5" d="M114.87,28.34a1.42,1.42,0,0,1-1.45,1.44,1.44,1.44,0,1,1,0-2.87A1.41,1.41,0,0,1,114.87,28.34Z"/><path class="cls-5" d="M212.26,47.81a1.44,1.44,0,0,1-2.88-.05,1.44,1.44,0,1,1,2.88.05Z"/><path class="cls-5" d="M101.85,15.4a1.44,1.44,0,0,1-1.39,1.4,1.44,1.44,0,0,1,0-2.87A1.44,1.44,0,0,1,101.85,15.4Z"/><path class="cls-5" d="M119.91,36.18a1.41,1.41,0,1,1-.1-2.81,1.41,1.41,0,1,1,.1,2.81Z"/><path class="cls-5" d="M236.89,36.16a1.38,1.38,0,0,1-1.4-1.36A1.41,1.41,0,0,1,237,33.38a1.38,1.38,0,0,1,1.33,1.43A1.35,1.35,0,0,1,236.89,36.16Z"/><path class="cls-5" d="M173.27,54.36a1.36,1.36,0,0,1-1.42,1.33,1.4,1.4,0,0,1-1.37-1.39A1.41,1.41,0,0,1,172,52.91,1.38,1.38,0,0,1,173.27,54.36Z"/><path class="cls-5" d="M179.7,54.28a1.36,1.36,0,0,1-1.34,1.41,1.39,1.39,0,1,1,0-2.78A1.36,1.36,0,0,1,179.7,54.28Z"/><path class="cls-5" d="M184.83,55.69a1.39,1.39,0,0,1,0-2.78,1.39,1.39,0,1,1,0,2.78Z"/><path class="cls-5" d="M92.55,8.72A1.36,1.36,0,0,1,94,7.45a1.42,1.42,0,0,1,1.25,1.41,1.4,1.4,0,0,1-1.44,1.32A1.35,1.35,0,0,1,92.55,8.72Z"/><path class="cls-5" d="M165.29,55.68a1.38,1.38,0,0,1,.11-2.76,1.42,1.42,0,0,1,1.33,1.44A1.4,1.4,0,0,1,165.29,55.68Z"/><path class="cls-5" d="M192.77,54.34a1.35,1.35,0,0,1-1.4,1.34A1.4,1.4,0,0,1,190,54.26a1.41,1.41,0,0,1,1.43-1.34A1.35,1.35,0,0,1,192.77,54.34Z"/><path class="cls-5" d="M199.18,54.28a1.34,1.34,0,0,1-1.37,1.37,1.38,1.38,0,0,1-1.32-1.32,1.41,1.41,0,0,1,1.39-1.39A1.37,1.37,0,0,1,199.18,54.28Z"/><path class="cls-5" d="M157.57,54.34A1.35,1.35,0,0,1,158.93,53a1.41,1.41,0,0,1,1.33,1.32,1.38,1.38,0,0,1-1.38,1.38A1.34,1.34,0,0,1,157.57,54.34Z"/><path class="cls-5" d="M127.75,41.35a1.33,1.33,0,0,1-1.4,1.33A1.4,1.4,0,0,1,125,41.36,1.37,1.37,0,0,1,126.39,40,1.32,1.32,0,0,1,127.75,41.35Z"/><path class="cls-5" d="M139.37,49.12a1.34,1.34,0,0,1-1.34-1.4,1.31,1.31,0,0,1,1.31-1.31,1.38,1.38,0,0,1,1.42,1.33A1.42,1.42,0,0,1,139.37,49.12Z"/><path class="cls-5" d="M230.4,42.65a1.33,1.33,0,1,1-.1-2.65,1.35,1.35,0,0,1,1.41,1.33A1.36,1.36,0,0,1,230.4,42.65Z"/><path class="cls-5" d="M218.71,47.78a1.31,1.31,0,0,1-1.31,1.3,1.33,1.33,0,1,1,0-2.65A1.31,1.31,0,0,1,218.71,47.78Z"/><path class="cls-5" d="M151.07,54.29a1.31,1.31,0,0,1,1.3-1.3,1.32,1.32,0,0,1,0,2.63A1.32,1.32,0,0,1,151.07,54.29Z"/><path class="cls-5" d="M106.84,27a1.32,1.32,0,1,1-1.26,1.35A1.31,1.31,0,0,1,106.84,27Z"/><path class="cls-5" d="M100.44,23.07a1.28,1.28,0,0,1,0-2.55,1.28,1.28,0,1,1,0,2.55Z"/><path class="cls-5" d="M87.35,3.54a1.24,1.24,0,0,1-1.27-1.3A1.25,1.25,0,0,1,87.29,1a1.31,1.31,0,0,1,1.35,1.25A1.29,1.29,0,0,1,87.35,3.54Z"/><path class="cls-5" d="M114.69,34.78a1.29,1.29,0,0,1-1.3,1.29,1.33,1.33,0,0,1-1.26-1.35,1.32,1.32,0,0,1,1.26-1.23A1.27,1.27,0,0,1,114.69,34.78Z"/><path class="cls-5" d="M205.66,54.32a1.3,1.3,0,0,1-1.32,1.28,1.3,1.3,0,0,1,0-2.59A1.27,1.27,0,0,1,205.66,54.32Z"/><path class="cls-5" d="M222.56,47.79a1.24,1.24,0,0,1,1.27-1.3,1.31,1.31,0,0,1,1.25,1.23A1.28,1.28,0,0,1,223.79,49,1.22,1.22,0,0,1,222.56,47.79Z"/><path class="cls-5" d="M131.59,47.73a1.25,1.25,0,0,1,1.21-1.24,1.3,1.3,0,0,1,1.31,1.29A1.28,1.28,0,0,1,132.76,49,1.23,1.23,0,0,1,131.59,47.73Z"/><path class="cls-5" d="M95.13,15.34A1.24,1.24,0,0,1,94,16.61a1.3,1.3,0,0,1-1.32-1.28,1.32,1.32,0,0,1,1.26-1.22A1.27,1.27,0,0,1,95.13,15.34Z"/><path class="cls-5" d="M121.08,41.29a1.24,1.24,0,0,1-1.17,1.28,1.3,1.3,0,0,1-1.32-1.27,1.32,1.32,0,0,1,1.25-1.23A1.25,1.25,0,0,1,121.08,41.29Z"/><path class="cls-5" d="M238.13,41.34a1.26,1.26,0,0,1-1.27,1.21,1.23,1.23,0,0,1,0-2.46A1.29,1.29,0,0,1,238.13,41.34Z"/><path class="cls-5" d="M145.87,55.5a1.2,1.2,0,1,1,.17-2.39,1.2,1.2,0,1,1-.17,2.39Z"/><path class="cls-5" d="M210.82,55.51a1.21,1.21,0,1,1,.07-2.41,1.21,1.21,0,0,1-.07,2.41Z"/><path class="cls-5" d="M178.32,59.66a1.19,1.19,0,0,1,0,2.38,1.19,1.19,0,1,1,0-2.38Z"/><path class="cls-5" d="M88.5,8.86A1.11,1.11,0,0,1,87.33,10a1.17,1.17,0,0,1-1.17-1.15,1.19,1.19,0,0,1,1.25-1.18A1.13,1.13,0,0,1,88.5,8.86Z"/><path class="cls-5" d="M126.39,48.92a1.22,1.22,0,0,1-1.16-1.17,1.18,1.18,0,0,1,1.17-1.14,1.13,1.13,0,0,1,1.14,1.15A1.16,1.16,0,0,1,126.39,48.92Z"/><path class="cls-5" d="M108,34.77a1.12,1.12,0,0,1-1.06,1.14,1.18,1.18,0,0,1-1.2-1.13,1.2,1.2,0,0,1,1.2-1.15A1.14,1.14,0,0,1,108,34.77Z"/><path class="cls-5" d="M139.38,53.16a1.14,1.14,0,1,1,0,2.28,1.12,1.12,0,0,1-1.12-1.19A1.14,1.14,0,0,1,139.38,53.16Z"/><path class="cls-5" d="M100.39,27.21a1.14,1.14,0,0,1,.1,2.27,1.14,1.14,0,1,1-.1-2.27Z"/><path class="cls-5" d="M218.49,54.27a1.12,1.12,0,0,1-1,1.16,1.18,1.18,0,0,1-1.23-1.1,1.21,1.21,0,0,1,1.18-1.17A1.14,1.14,0,0,1,218.49,54.27Z"/><path class="cls-5" d="M171.89,59.7A1.12,1.12,0,0,1,173,60.86,1.14,1.14,0,0,1,171.87,62a1.2,1.2,0,0,1-1.15-1.17A1.17,1.17,0,0,1,171.89,59.7Z"/><path class="cls-5" d="M184.82,62a1.15,1.15,0,0,1-1.09-1.21,1.13,1.13,0,0,1,1.19-1.1A1.17,1.17,0,0,1,186,60.9,1.22,1.22,0,0,1,184.82,62Z"/><path class="cls-5" d="M230.35,46.64a1.13,1.13,0,0,1,1.14,1.17,1.15,1.15,0,0,1-1.13,1.07,1.11,1.11,0,0,1-1.13-1.18A1.09,1.09,0,0,1,230.35,46.64Z"/><path class="cls-5" d="M165.31,62a1.12,1.12,0,0,1-1.09-1.1,1.08,1.08,0,0,1,1.15-1.14,1.15,1.15,0,0,1,1.12,1.08A1.18,1.18,0,0,1,165.31,62Z"/><path class="cls-5" d="M191.43,59.74a1.12,1.12,0,1,1-.05,2.23,1.14,1.14,0,0,1-1.11-1.09A1.12,1.12,0,0,1,191.43,59.74Z"/><path class="cls-5" d="M160,60.9a1.1,1.1,0,0,1-1.13,1,1.09,1.09,0,1,1,.09-2.18A1.11,1.11,0,0,1,160,60.9Z"/><path class="cls-5" d="M113.45,42.39a1.07,1.07,0,1,1-.06-2.14,1.07,1.07,0,0,1,1.11,1A1.05,1.05,0,0,1,113.45,42.39Z"/><path class="cls-5" d="M95,21.79a1.09,1.09,0,1,1-1.1-1.06A1.06,1.06,0,0,1,95,21.79Z"/><path class="cls-5" d="M198.93,60.85a1.09,1.09,0,0,1-2.17,0,1.09,1.09,0,0,1,2.17,0Z"/><path class="cls-5" d="M79.87,2.24a1,1,0,0,1,1-1A1.07,1.07,0,0,1,82,2.3a1,1,0,0,1-1.15,1A1,1,0,0,1,79.87,2.24Z"/><path class="cls-5" d="M133.88,54.34a1.08,1.08,0,0,1-1,1,1,1,0,0,1-1-1.12,1,1,0,0,1,1.08-.94A1.06,1.06,0,0,1,133.88,54.34Z"/><path class="cls-5" d="M88.4,15.36a1.06,1.06,0,0,1-1,1,1,1,0,0,1-1-1,1,1,0,0,1,1-1.09A1.08,1.08,0,0,1,88.4,15.36Z"/><path class="cls-5" d="M152.32,59.82a1,1,0,1,1,0,2.06,1,1,0,0,1,0-2.06Z"/><path class="cls-5" d="M205.41,60.91a1,1,0,0,1-1,1,1,1,0,1,1,.11-2.06A1,1,0,0,1,205.41,60.91Z"/><path class="cls-5" d="M119.84,48.77a1.06,1.06,0,0,1-1-1,1.07,1.07,0,0,1,1-1,1,1,0,0,1,0,2Z"/><path class="cls-5" d="M236.87,46.76a1,1,0,0,1,1,.91,1,1,0,0,1-1,1.08,1,1,0,0,1,0-2Z"/><path class="cls-5" d="M224.82,54.34a1,1,0,0,1-1.08.95,1,1,0,0,1,.07-2A1,1,0,0,1,224.82,54.34Z"/><path class="cls-5" d="M145.89,59.89a1,1,0,0,1,1,.9,1,1,0,0,1-.85,1,1,1,0,1,1-.12-1.92Z"/><path class="cls-5" d="M211.78,60.84a1,1,0,0,1-.91,1,1,1,0,1,1,0-1.92A1,1,0,0,1,211.78,60.84Z"/><path class="cls-5" d="M80.89,7.89A.93.93,0,0,1,81,9.74a.93.93,0,1,1-.09-1.85Z"/><path class="cls-5" d="M100.4,33.85a.91.91,0,0,1,.95.92.89.89,0,0,1-.82.92.93.93,0,0,1-1-.85A1,1,0,0,1,100.4,33.85Z"/><path class="cls-5" d="M93.93,29.24a.9.9,0,0,1-.92-.81.92.92,0,0,1,.86-1,1,1,0,0,1,.94.82A.94.94,0,0,1,93.93,29.24Z"/><path class="cls-5" d="M127.28,54.28a.88.88,0,0,1-.8.92.93.93,0,0,1-1-.87,1,1,0,0,1,.94-.94A.92.92,0,0,1,127.28,54.28Z"/><path class="cls-5" d="M177.4,67.26a.91.91,0,0,1,.91-.85.85.85,0,0,1,.89,1,.86.86,0,0,1-.93.81A1,1,0,0,1,177.4,67.26Z"/><path class="cls-5" d="M106.93,42.22a1,1,0,0,1-1-.81.89.89,0,0,1,.9-1,.85.85,0,0,1,.89.85A.88.88,0,0,1,106.93,42.22Z"/><path class="cls-5" d="M230.33,55.18a.88.88,0,0,1-.84-.9.9.9,0,0,1,.88-.86.88.88,0,0,1,0,1.76Z"/><path class="cls-5" d="M172.74,67.39a.86.86,0,0,1-1.71-.22.86.86,0,0,1,1.71.22Z"/><path class="cls-5" d="M140.25,60.88a.87.87,0,0,1-.9.82.85.85,0,1,1,.06-1.7A.86.86,0,0,1,140.25,60.88Z"/><path class="cls-5" d="M185.74,67.31a.87.87,0,0,1-.91.82.84.84,0,0,1-.83-.88.85.85,0,0,1,.9-.82A.86.86,0,0,1,185.74,67.31Z"/><path class="cls-5" d="M217.42,61.67a.78.78,0,0,1-.86-.72.8.8,0,0,1,.77-.92.82.82,0,1,1,.09,1.64Z"/><path class="cls-5" d="M87.35,22.62a.79.79,0,0,1-.82-.77.81.81,0,0,1,.83-.88.83.83,0,1,1,0,1.65Z"/><path class="cls-5" d="M114.24,47.77a.79.79,0,0,1-.78.8.83.83,0,0,1-.88-.83.85.85,0,0,1,.91-.81A.81.81,0,0,1,114.24,47.77Z"/><path class="cls-5" d="M166.16,67.32a.78.78,0,0,1-.81.78.83.83,0,0,1-.85-.86.84.84,0,0,1,.93-.78A.81.81,0,0,1,166.16,67.32Z"/><path class="cls-5" d="M192.25,67.34a.83.83,0,0,1-.95.75.78.78,0,0,1-.7-.87.79.79,0,0,1,.82-.76A.83.83,0,0,1,192.25,67.34Z"/><path class="cls-5" d="M159.69,67.25a.77.77,0,0,1-.76.83.8.8,0,1,1-.06-1.6A.78.78,0,0,1,159.69,67.25Z"/><path class="cls-5" d="M197.79,68.08a.8.8,0,0,1,.12-1.6.8.8,0,1,1-.12,1.6Z"/><path class="cls-5" d="M75.13,2.28a.77.77,0,0,1-1.54,0,.83.83,0,0,1,.76-.84A.8.8,0,0,1,75.13,2.28Z"/><path class="cls-5" d="M81.91,15.3c-.41.36-.63.67-.93.79s-.82-.31-.8-.73.3-.76.71-.71S81.45,15,81.91,15.3Z"/><path class="cls-5" d="M153.35,67.28c-.42.33-.66.64-1,.73s-.8-.36-.75-.78a.66.66,0,0,1,.75-.67C152.67,66.61,152.92,67,153.35,67.28Z"/><path class="cls-5" d="M133.82,60.91c-.45.31-.71.62-1,.66s-.69-.27-.71-.71.42-.87.8-.73S133.41,60.55,133.82,60.91Z"/><path class="cls-5" d="M120.59,54.38a.7.7,0,0,1-.77.64.72.72,0,1,1,.08-1.43A.72.72,0,0,1,120.59,54.38Z"/><path class="cls-5" d="M224.48,60.9c0,.39-.41.77-.74.63a1.22,1.22,0,0,1-.63-.67c-.11-.34.32-.71.7-.71A.68.68,0,0,1,224.48,60.9Z"/><path class="cls-5" d="M205.39,67.3a4.41,4.41,0,0,1-1,.67c-.36.08-.67-.35-.64-.76s.31-.67.67-.6S204.93,67,205.39,67.3Z"/><path class="cls-5" d="M237.57,54.36c0,.41-.39.75-.75.6a1.16,1.16,0,0,1-.61-.66c-.1-.35.33-.7.71-.69A.68.68,0,0,1,237.57,54.36Z"/><path class="cls-5" d="M94.81,34.73c-.38.32-.59.61-.86.68s-.63-.16-.7-.55.27-.82.64-.73A3.65,3.65,0,0,1,94.81,34.73Z"/><path class="cls-5" d="M88.25,28.33c-.43.31-.66.59-.92.62a.52.52,0,0,1-.57-.65c0-.22.36-.55.55-.55S87.81,28,88.25,28.33Z"/><path class="cls-5" d="M101.1,41.5c-.16.12-.38.4-.65.45a.57.57,0,0,1-.67-.61.6.6,0,0,1,.64-.65C100.83,40.68,101.06,40.89,101.1,41.5Z"/><path class="cls-5" d="M211,67.9c-.58-.05-.86-.29-.75-.67a.87.87,0,0,1,.59-.53.5.5,0,0,1,.58.64C211.36,67.57,211.1,67.76,211,67.9Z"/><path class="cls-5" d="M146.87,67.31c-.5.28-.77.54-1,.53a.76.76,0,0,1-.51-.58.77.77,0,0,1,.54-.54C146.14,66.72,146.39,67,146.87,67.31Z"/><path class="cls-5" d="M107.82,47.77c-.5.28-.76.55-1,.54a.78.78,0,0,1-.52-.56.8.8,0,0,1,.54-.56C107.08,47.19,107.33,47.47,107.82,47.77Z"/><path class="cls-5" d="M74.42,8c.24.41.51.66.47.85s-.36.37-.56.56c-.18-.21-.49-.4-.51-.61S74.11,8.37,74.42,8Z"/><path class="cls-5" d="M230.24,60.09c.3.32.54.46.6.66a.44.44,0,0,1-.44.61.71.71,0,0,1-.54-.41C229.84,60.73,230.05,60.48,230.24,60.09Z"/><path class="cls-5" d="M126.44,60.08c.22.37.46.6.46.82s-.32.33-.5.49c-.17-.2-.44-.38-.48-.6S126.17,60.42,126.44,60.08Z"/><path class="cls-5" d="M80.89,22.56c-.24-.37-.51-.61-.47-.75s.35-.37.55-.55c.16.18.47.37.46.53S81.15,22.21,80.89,22.56Z"/><path class="cls-5" d="M140.09,67.26c-.35.24-.54.46-.74.47s-.4-.27-.4-.43.23-.47.36-.47S139.72,67,140.09,67.26Z"/><path class="cls-5" d="M217.29,66.63c.25.27.52.44.5.57s-.26.38-.4.56c-.16-.13-.46-.25-.46-.4S217.12,67,217.29,66.63Z"/><path class="cls-5" d="M113.42,53.66c.21.29.43.47.45.66s-.31.44-.4.41a.85.85,0,0,1-.47-.46C113,54.16,113.2,54,113.42,53.66Z"/><path class="cls-5" d="M172.46,73.89c-.24.17-.45.41-.56.37s-.33-.31-.49-.48c.19-.14.37-.35.58-.38S172.26,73.67,172.46,73.89Z"/><path class="cls-5" d="M178.89,73.89c-.24.17-.45.41-.56.37s-.33-.31-.49-.48c.19-.14.37-.35.58-.38S178.69,73.67,178.89,73.89Z"/><path class="cls-5" d="M184.88,73.19c.2.29.41.48.43.67s-.32.42-.41.39a.83.83,0,0,1-.46-.46C184.41,73.67,184.66,73.47,184.88,73.19Z"/><path class="cls-5" d="M165.3,74.39c-.16-.26-.36-.44-.34-.59s.26-.26.41-.39c.13.15.36.29.37.45S165.51,74.16,165.3,74.39Z"/><path class="cls-5" d="M191.45,73.26c.16.26.36.44.34.59s-.27.27-.41.4c-.13-.15-.36-.3-.37-.45S191.24,73.5,191.45,73.26Z"/><path class="cls-5" d="M68.41,2.36c-.27.11-.42.22-.56.21s-.28-.26-.26-.29S67.83,2,68,2,68.19,2.16,68.41,2.36Z"/><path class="cls-5" d="M120.32,60.9c-.24.12-.38.25-.53.25s-.29-.22-.27-.27.2-.33.33-.35S120.1,60.71,120.32,60.9Z"/><path class="cls-5" d="M93.93,41.8c-.18-.23-.38-.37-.37-.48s.22-.26.37-.31.27.17.27.26S94.06,41.56,93.93,41.8Z"/><path class="cls-5" d="M198.35,73.88c-.27.14-.44.3-.56.27a.53.53,0,0,1-.24-.42c0-.07.23-.25.31-.23S198.13,73.7,198.35,73.88Z"/><path class="cls-5" d="M74.51,15c.06.15.17.3.15.44s-.24.27-.29.24-.31-.21-.33-.35.12-.33.18-.49Z"/><path class="cls-5" d="M133.33,67.23c-.23.18-.34.33-.49.37s-.31-.16-.3-.23.13-.37.24-.39S133.07,67.1,133.33,67.23Z"/><path class="cls-5" d="M158.86,74.32c-.14-.25-.31-.42-.29-.54s.26-.23.41-.26.25.22.24.31S159,74.1,158.86,74.32Z"/><path class="cls-5" d="M100.39,47.33c.16.21.32.33.31.42s-.17.21-.3.27-.2-.14-.2-.21A1.75,1.75,0,0,1,100.39,47.33Z"/><path class="cls-5" d="M87.3,35.05c-.08-.09-.21-.21-.2-.24a1,1,0,0,1,.27-.27l.22.32Z"/></g><g class="cls-4"><path class="cls-5" d="M38.87,349a2.53,2.53,0,0,1-2.48,2.61,2.56,2.56,0,1,1-.1-5.11A2.52,2.52,0,0,1,38.87,349Z"/><path class="cls-5" d="M42.85,346.5a2.55,2.55,0,1,1,0,5.09,2.55,2.55,0,0,1,0-5.09Z"/><path class="cls-5" d="M32.43,349.06a2.53,2.53,0,0,1-2.57,2.53,2.58,2.58,0,0,1-2.5-2.51,2.55,2.55,0,0,1,2.54-2.57A2.49,2.49,0,0,1,32.43,349.06Z"/><path class="cls-5" d="M51.94,349.08a2.49,2.49,0,0,1-2.49,2.48A2.57,2.57,0,0,1,46.9,349a2.53,2.53,0,0,1,2.51-2.46A2.47,2.47,0,0,1,51.94,349.08Z"/><path class="cls-5" d="M20.86,349a2.47,2.47,0,0,1,2.5-2.45,2.54,2.54,0,0,1,2.54,2.55,2.57,2.57,0,0,1-2.53,2.47A2.49,2.49,0,0,1,20.86,349Z"/><path class="cls-5" d="M17,351.51a2.47,2.47,0,1,1,0-4.94,2.47,2.47,0,1,1,0,4.94Z"/><path class="cls-5" d="M58.34,349a2.48,2.48,0,1,1-2.55-2.38A2.45,2.45,0,0,1,58.34,349Z"/><path class="cls-5" d="M10.4,351.46a2.43,2.43,0,0,1,0-4.85,2.43,2.43,0,1,1,0,4.85Z"/><path class="cls-5" d="M64.82,349.08a2.37,2.37,0,0,1-2.41,2.37A2.42,2.42,0,0,1,60,349.06a2.45,2.45,0,0,1,2.5-2.44A2.4,2.4,0,0,1,64.82,349.08Z"/><path class="cls-5" d="M36.22,344.92A2.42,2.42,0,0,1,34,342.28a2.37,2.37,0,0,1,2.58-2.19,2.42,2.42,0,0,1,2.24,2.56A2.47,2.47,0,0,1,36.22,344.92Z"/><path class="cls-5" d="M27.52,342.48a2.35,2.35,0,0,1,2.4-2.38,2.43,2.43,0,0,1,2.42,2.41,2.46,2.46,0,0,1-2.44,2.4A2.39,2.39,0,0,1,27.52,342.48Z"/><path class="cls-5" d="M45.28,342.52a2.4,2.4,0,0,1-2.42,2.39,2.46,2.46,0,0,1-2.4-2.44,2.43,2.43,0,0,1,2.46-2.37A2.35,2.35,0,0,1,45.28,342.52Z"/><path class="cls-5" d="M23.35,340.12a2.38,2.38,0,0,1,.08,4.75,2.38,2.38,0,1,1-.08-4.75Z"/><path class="cls-5" d="M47.06,342.5a2.34,2.34,0,0,1,2.4-2.38,2.38,2.38,0,1,1,0,4.75A2.35,2.35,0,0,1,47.06,342.5Z"/><path class="cls-5" d="M3.91,351.42A2.38,2.38,0,0,1,4,346.66a2.38,2.38,0,0,1-.08,4.76Z"/><path class="cls-5" d="M71.2,349a2.36,2.36,0,1,1-2.33-2.37A2.39,2.39,0,0,1,71.2,349Z"/><path class="cls-5" d="M17,344.83a2.34,2.34,0,1,1,2.31-2.35A2.32,2.32,0,0,1,17,344.83Z"/><path class="cls-5" d="M55.88,344.82a2.33,2.33,0,1,1,2.32-2.32A2.32,2.32,0,0,1,55.88,344.82Z"/><path class="cls-5" d="M12.67,342.44a2.24,2.24,0,0,1-2.27,2.35,2.31,2.31,0,0,1-2.34-2.3,2.34,2.34,0,0,1,2.24-2.3A2.26,2.26,0,0,1,12.67,342.44Z"/><path class="cls-5" d="M60.14,342.54a2.26,2.26,0,0,1,2.28-2.35,2.3,2.3,0,1,1,0,4.6A2.26,2.26,0,0,1,60.14,342.54Z"/><path class="cls-5" d="M38.61,336a2.25,2.25,0,0,1-2.28,2.34,2.29,2.29,0,1,1,0-4.58A2.26,2.26,0,0,1,38.61,336Z"/><path class="cls-5" d="M29.89,338.34a2.28,2.28,0,1,1,.09-4.56,2.28,2.28,0,0,1-.09,4.56Z"/><path class="cls-5" d="M45.18,336.09a2.32,2.32,0,0,1-2.29,2.25,2.28,2.28,0,1,1,.06-4.56A2.33,2.33,0,0,1,45.18,336.09Z"/><path class="cls-5" d="M77.66,349.09a2.25,2.25,0,0,1-2.29,2.22,2.31,2.31,0,0,1-2.27-2.26,2.28,2.28,0,0,1,2.37-2.26A2.21,2.21,0,0,1,77.66,349.09Z"/><path class="cls-5" d="M25.62,336a2.29,2.29,0,0,1-2.21,2.31,2.25,2.25,0,0,1-2.29-2.21,2.28,2.28,0,0,1,2.19-2.32A2.31,2.31,0,0,1,25.62,336Z"/><path class="cls-5" d="M51.68,336.06a2.27,2.27,0,0,1-2.24,2.27,2.27,2.27,0,1,1,2.24-2.27Z"/><path class="cls-5" d="M6.19,342.48a2.26,2.26,0,0,1-2.25,2.27,2.26,2.26,0,0,1,0-4.51A2.28,2.28,0,0,1,6.19,342.48Z"/><path class="cls-5" d="M19.15,336.11a2.23,2.23,0,1,1-2.23-2.29A2.26,2.26,0,0,1,19.15,336.11Z"/><path class="cls-5" d="M68.86,344.74a2.25,2.25,0,0,1,0-4.49,2.25,2.25,0,0,1,0,4.49Z"/><path class="cls-5" d="M55.83,338.29a2.23,2.23,0,0,1,.08-4.46,2.23,2.23,0,0,1-.08,4.46Z"/><path class="cls-5" d="M84,349.05a2.21,2.21,0,0,1-2.2,2.17,2.18,2.18,0,0,1,0-4.36A2.22,2.22,0,0,1,84,349.05Z"/><path class="cls-5" d="M8.22,336a2.13,2.13,0,0,1,2.24-2.09,2.19,2.19,0,0,1,2.12,2.24,2.23,2.23,0,0,1-2.27,2.11A2.17,2.17,0,0,1,8.22,336Z"/><path class="cls-5" d="M62.4,333.91a2.12,2.12,0,0,1,2.17,2.17,2.14,2.14,0,0,1-2.09,2.15,2.2,2.2,0,0,1-2.25-2.13A2.17,2.17,0,0,1,62.4,333.91Z"/><path class="cls-5" d="M38.5,329.57a2.2,2.2,0,0,1-2.27,2.1,2.16,2.16,0,0,1,.22-4.31A2.21,2.21,0,0,1,38.5,329.57Z"/><path class="cls-5" d="M75.43,344.64a2.14,2.14,0,1,1-.07-4.28,2.16,2.16,0,0,1,2.21,2.16A2.19,2.19,0,0,1,75.43,344.64Z"/><path class="cls-5" d="M32.05,329.56a2.18,2.18,0,0,1-2.16,2.1,2.15,2.15,0,1,1,.09-4.29A2.19,2.19,0,0,1,32.05,329.56Z"/><path class="cls-5" d="M42.94,331.66A2.15,2.15,0,1,1,45,329.49,2.16,2.16,0,0,1,42.94,331.66Z"/><path class="cls-5" d="M23.31,327.38a2.14,2.14,0,1,1-2.06,2.16A2.15,2.15,0,0,1,23.31,327.38Z"/><path class="cls-5" d="M4,334a2.1,2.1,0,1,1-.06,4.2A2.1,2.1,0,1,1,4,334Z"/><path class="cls-5" d="M71,336.05a2.09,2.09,0,0,1-2.1,2.1,2.09,2.09,0,1,1,0-4.18A2.09,2.09,0,0,1,71,336.05Z"/><path class="cls-5" d="M51.53,329.46a2.13,2.13,0,0,1-2,2.18,2.17,2.17,0,0,1-2.17-2.07,2.14,2.14,0,0,1,2.06-2.17A2.11,2.11,0,0,1,51.53,329.46Z"/><path class="cls-5" d="M19,329.54a2.13,2.13,0,0,1-2.17,2.07,2.08,2.08,0,0,1-2-2.12A2,2,0,0,1,17,327.44,2.09,2.09,0,0,1,19,329.54Z"/><path class="cls-5" d="M88.32,347a2.09,2.09,0,1,1,.12,4.17,2.09,2.09,0,0,1-.12-4.17Z"/><path class="cls-5" d="M81.82,340.42a2.07,2.07,0,0,1,0,4.14,2.07,2.07,0,1,1,0-4.14Z"/><path class="cls-5" d="M55.84,331.59a2.11,2.11,0,0,1-2.05-2.16,2.08,2.08,0,0,1,2.11-2,2,2,0,0,1,2,2.14A2.05,2.05,0,0,1,55.84,331.59Z"/><path class="cls-5" d="M77.42,336.09a2,2,0,0,1-2,2,2,2,0,1,1,0-4.08A2.05,2.05,0,0,1,77.42,336.09Z"/><path class="cls-5" d="M64.46,329.46a2,2,0,0,1-2,2.07,2,2,0,1,1-.11-4A2,2,0,0,1,64.46,329.46Z"/><path class="cls-5" d="M12.41,329.54a2,2,0,0,1-2.05,2,2,2,0,1,1,0-4A2,2,0,0,1,12.41,329.54Z"/><path class="cls-5" d="M36.36,321.1a2,2,0,1,1-.09,4,2,2,0,0,1,.09-4Z"/><path class="cls-5" d="M44.85,323a1.94,1.94,0,0,1-1.88,2,2,2,0,1,1-.11-3.94A1.94,1.94,0,0,1,44.85,323Z"/><path class="cls-5" d="M5.94,329.5a2,2,0,0,1-1.94,2,2,2,0,1,1,0-3.94A2,2,0,0,1,5.94,329.5Z"/><path class="cls-5" d="M29.86,321.11a2,2,0,1,1,.05,3.94,1.92,1.92,0,0,1-2-1.94A1.94,1.94,0,0,1,29.86,321.11Z"/><path class="cls-5" d="M90.32,342.52a2,2,0,0,1-2,2,2,2,0,0,1-1.94-2,2,2,0,0,1,2-1.94A1.94,1.94,0,0,1,90.32,342.52Z"/><path class="cls-5" d="M93,349a1.94,1.94,0,0,1,2-1.95,2,2,0,1,1,0,3.92A1.93,1.93,0,0,1,93,349Z"/><path class="cls-5" d="M70.79,329.48a1.91,1.91,0,0,1-1.91,2,2,2,0,0,1-2-1.92,2,2,0,0,1,1.94-2A1.93,1.93,0,0,1,70.79,329.48Z"/><path class="cls-5" d="M49.38,325a2,2,0,0,1,.11-3.92,2,2,0,1,1-.11,3.92Z"/><path class="cls-5" d="M25.31,323.1a1.92,1.92,0,0,1-2,1.94,2,2,0,0,1-2-2,2,2,0,0,1,2-1.94A1.93,1.93,0,0,1,25.31,323.1Z"/><path class="cls-5" d="M81.8,338a2,2,0,0,1-1.91-2,1.91,1.91,0,0,1,1.91-1.89,2,2,0,0,1,2,1.94A2,2,0,0,1,81.8,338Z"/><path class="cls-5" d="M18.84,323.05a1.92,1.92,0,0,1-1.94,2,1.93,1.93,0,1,1,.06-3.86A1.91,1.91,0,0,1,18.84,323.05Z"/><path class="cls-5" d="M55.83,321.15a1.93,1.93,0,1,1,.08,3.86A1.9,1.9,0,0,1,54,323.18,1.93,1.93,0,0,1,55.83,321.15Z"/><path class="cls-5" d="M77.29,329.46a1.9,1.9,0,1,1-2-1.86A1.94,1.94,0,0,1,77.29,329.46Z"/><path class="cls-5" d="M10.43,325a1.9,1.9,0,0,1-.1-3.79,1.9,1.9,0,0,1,.1,3.79Z"/><path class="cls-5" d="M64.3,323.07A1.93,1.93,0,0,1,62.43,325a1.9,1.9,0,0,1,0-3.8A1.93,1.93,0,0,1,64.3,323.07Z"/><path class="cls-5" d="M95,344.34a1.87,1.87,0,0,1-1.9-1.87,1.89,1.89,0,0,1,1.83-1.83,1.85,1.85,0,0,1,.07,3.7Z"/><path class="cls-5" d="M103.18,349a1.84,1.84,0,0,1-1.77,1.88A1.88,1.88,0,0,1,99.5,349a1.86,1.86,0,0,1,1.84-1.81A1.81,1.81,0,0,1,103.18,349Z"/><path class="cls-5" d="M90.23,336.09a1.87,1.87,0,0,1-1.85,1.81,1.84,1.84,0,1,1,.05-3.68A1.89,1.89,0,0,1,90.23,336.09Z"/><path class="cls-5" d="M38.15,316.55a1.79,1.79,0,0,1-1.79,1.81,1.86,1.86,0,0,1-1.86-1.78,1.89,1.89,0,0,1,1.88-1.88A1.82,1.82,0,0,1,38.15,316.55Z"/><path class="cls-5" d="M5.76,323.05A1.8,1.8,0,0,1,4,324.91a1.86,1.86,0,0,1-1.87-1.79,1.84,1.84,0,0,1,1.8-1.85A1.79,1.79,0,0,1,5.76,323.05Z"/><path class="cls-5" d="M29.92,314.71a1.82,1.82,0,0,1,1.79,1.83,1.8,1.8,0,0,1-1.81,1.81,1.86,1.86,0,0,1-1.82-1.82A1.89,1.89,0,0,1,29.92,314.71Z"/><path class="cls-5" d="M42.92,314.71a1.82,1.82,0,1,1-.06,3.64,1.8,1.8,0,0,1-1.77-1.85A1.82,1.82,0,0,1,42.92,314.71Z"/><path class="cls-5" d="M81.82,331.31a1.8,1.8,0,1,1,0-3.59,1.8,1.8,0,1,1,0,3.59Z"/><path class="cls-5" d="M23.5,314.73a1.85,1.85,0,0,1,1.66,2,1.8,1.8,0,1,1-1.66-2Z"/><path class="cls-5" d="M49.48,314.72a1.81,1.81,0,1,1-.14,3.62,1.81,1.81,0,0,1,.14-3.62Z"/><path class="cls-5" d="M68.89,321.29a1.8,1.8,0,0,1,1.78,1.84,1.82,1.82,0,0,1-1.86,1.75,1.8,1.8,0,1,1,.08-3.59Z"/><path class="cls-5" d="M17,318.32a1.79,1.79,0,1,1,0-3.57,1.79,1.79,0,0,1,0,3.57Z"/><path class="cls-5" d="M57.63,316.57a1.8,1.8,0,0,1-1.79,1.73,1.77,1.77,0,0,1,.06-3.53A1.8,1.8,0,0,1,57.63,316.57Z"/><path class="cls-5" d="M75.38,321.35a1.73,1.73,0,1,1,0,3.46,1.73,1.73,0,0,1,0-3.46Z"/><path class="cls-5" d="M88.33,327.8a1.71,1.71,0,0,1,.08,3.42,1.74,1.74,0,0,1-1.76-1.73A1.77,1.77,0,0,1,88.33,327.8Z"/><path class="cls-5" d="M109.58,349a1.7,1.7,0,0,1-1.61,1.74,1.7,1.7,0,1,1-.08-3.4A1.69,1.69,0,0,1,109.58,349Z"/><path class="cls-5" d="M12.12,316.51a1.76,1.76,0,0,1-1.73,1.75,1.72,1.72,0,0,1-.06-3.43A1.74,1.74,0,0,1,12.12,316.51Z"/><path class="cls-5" d="M101.39,344.22a1.7,1.7,0,0,1-1.74-1.72,1.67,1.67,0,0,1,1.62-1.71,1.74,1.74,0,0,1,1.82,1.65A1.77,1.77,0,0,1,101.39,344.22Z"/><path class="cls-5" d="M94.9,337.79A1.7,1.7,0,0,1,93.22,336a1.67,1.67,0,0,1,1.67-1.67,1.72,1.72,0,1,1,0,3.44Z"/><path class="cls-5" d="M64.11,316.58a1.68,1.68,0,0,1-1.68,1.66,1.75,1.75,0,0,1-1.74-1.74,1.72,1.72,0,0,1,1.82-1.65A1.65,1.65,0,0,1,64.11,316.58Z"/><path class="cls-5" d="M83.48,323.1a1.66,1.66,0,1,1-1.67-1.69A1.69,1.69,0,0,1,83.48,323.1Z"/><path class="cls-5" d="M5.6,316.49A1.62,1.62,0,0,1,4,318.18a1.65,1.65,0,0,1-.08-3.29A1.63,1.63,0,0,1,5.6,316.49Z"/><path class="cls-5" d="M38,310a1.67,1.67,0,0,1-1.67,1.68,1.66,1.66,0,0,1,.07-3.32A1.67,1.67,0,0,1,38,310Z"/><path class="cls-5" d="M31.52,310a1.63,1.63,0,0,1-1.6,1.6A1.68,1.68,0,0,1,28.27,310a1.66,1.66,0,0,1,1.62-1.59A1.61,1.61,0,0,1,31.52,310Z"/><path class="cls-5" d="M42.85,308.36A1.66,1.66,0,0,1,44.53,310a1.68,1.68,0,0,1-1.59,1.63,1.64,1.64,0,0,1-1.66-1.54A1.62,1.62,0,0,1,42.85,308.36Z"/><path class="cls-5" d="M70.5,316.56a1.64,1.64,0,0,1-1.74,1.6,1.58,1.58,0,0,1-1.54-1.65,1.62,1.62,0,0,1,1.72-1.61A1.66,1.66,0,0,1,70.5,316.56Z"/><path class="cls-5" d="M49.46,308.38A1.58,1.58,0,0,1,51,310a1.61,1.61,0,0,1-1.56,1.63,1.62,1.62,0,1,1,0-3.23Z"/><path class="cls-5" d="M25,310a1.67,1.67,0,0,1-1.64,1.58,1.61,1.61,0,0,1-1.58-1.72,1.57,1.57,0,0,1,1.67-1.5A1.64,1.64,0,0,1,25,310Z"/><path class="cls-5" d="M102.93,336.08a1.57,1.57,0,0,1-1.6,1.58,1.6,1.6,0,1,1,0-3.2A1.58,1.58,0,0,1,102.93,336.08Z"/><path class="cls-5" d="M94.91,327.94a1.53,1.53,0,0,1,1.59,1.57,1.57,1.57,0,0,1-1.58,1.6,1.64,1.64,0,0,1-1.61-1.59A1.6,1.6,0,0,1,94.91,327.94Z"/><path class="cls-5" d="M107.85,340.9a1.64,1.64,0,0,1,1.64,1.57,1.61,1.61,0,0,1-1.59,1.61,1.59,1.59,0,0,1-1.57-1.5A1.61,1.61,0,0,1,107.85,340.9Z"/><path class="cls-5" d="M77,316.59a1.57,1.57,0,0,1-1.65,1.53,1.59,1.59,0,0,1,.11-3.18A1.6,1.6,0,0,1,77,316.59Z"/><path class="cls-5" d="M18.52,310a1.58,1.58,0,0,1-1.58,1.6,1.56,1.56,0,0,1-.08-3.12A1.58,1.58,0,0,1,18.52,310Z"/><path class="cls-5" d="M57.44,310a1.54,1.54,0,0,1-1.64,1.52A1.6,1.6,0,0,1,54.27,310a1.58,1.58,0,0,1,1.61-1.58A1.53,1.53,0,0,1,57.44,310Z"/><path class="cls-5" d="M114.35,350.57a1.53,1.53,0,1,1,1.52-1.52A1.52,1.52,0,0,1,114.35,350.57Z"/><path class="cls-5" d="M88.41,321.55a1.53,1.53,0,0,1,0,3.06,1.52,1.52,0,0,1-1.56-1.6A1.53,1.53,0,0,1,88.41,321.55Z"/><path class="cls-5" d="M62.45,308.47a1.52,1.52,0,1,1-.08,3A1.52,1.52,0,0,1,60.88,310,1.54,1.54,0,0,1,62.45,308.47Z"/><path class="cls-5" d="M10.37,308.47a1.53,1.53,0,0,1,1.55,1.5,1.51,1.51,0,0,1-1.51,1.53,1.52,1.52,0,1,1,0-3Z"/><path class="cls-5" d="M4,308.5A1.57,1.57,0,0,1,5.45,310a1.52,1.52,0,0,1-1.57,1.48,1.45,1.45,0,0,1-1.39-1.52A1.48,1.48,0,0,1,4,308.5Z"/><path class="cls-5" d="M81.79,318a1.44,1.44,0,0,1-1.42-1.47,1.42,1.42,0,0,1,1.44-1.45,1.49,1.49,0,0,1,1.51,1.53A1.51,1.51,0,0,1,81.79,318Z"/><path class="cls-5" d="M68.81,311.45A1.5,1.5,0,0,1,67.38,310a1.52,1.52,0,0,1,1.5-1.44A1.48,1.48,0,0,1,70.3,310,1.46,1.46,0,0,1,68.81,311.45Z"/><path class="cls-5" d="M101.31,331a1.47,1.47,0,0,1-1.41-1.51,1.5,1.5,0,0,1,1.5-1.43,1.53,1.53,0,0,1,1.42,1.52A1.5,1.5,0,0,1,101.31,331Z"/><path class="cls-5" d="M31.34,303.66a1.44,1.44,0,1,1-2.86-.27,1.44,1.44,0,0,1,2.86.27Z"/><path class="cls-5" d="M107.94,337.5a1.44,1.44,0,1,1-.09-2.88,1.44,1.44,0,1,1,.09,2.88Z"/><path class="cls-5" d="M44.33,303.58A1.47,1.47,0,0,1,42.84,305a1.46,1.46,0,1,1,1.49-1.43Z"/><path class="cls-5" d="M37.78,303.51a1.48,1.48,0,0,1-1.42,1.5,1.46,1.46,0,0,1-.1-2.91A1.49,1.49,0,0,1,37.78,303.51Z"/><path class="cls-5" d="M22,303.55A1.42,1.42,0,1,1,23.3,305,1.46,1.46,0,0,1,22,303.55Z"/><path class="cls-5" d="M96.33,323a1.45,1.45,0,0,1-1.42,1.48,1.44,1.44,0,0,1,0-2.87A1.43,1.43,0,0,1,96.33,323Z"/><path class="cls-5" d="M50.84,303.51A1.43,1.43,0,0,1,49.42,305a1.44,1.44,0,0,1,0-2.87A1.44,1.44,0,0,1,50.84,303.51Z"/><path class="cls-5" d="M115.76,342.45a1.4,1.4,0,0,1-1.32,1.44,1.37,1.37,0,0,1-1.51-1.35,1.38,1.38,0,0,1,1.3-1.45A1.42,1.42,0,0,1,115.76,342.45Z"/><path class="cls-5" d="M15.56,303.56a1.35,1.35,0,0,1,1.37-1.38,1.41,1.41,0,0,1,1.4,1.37,1.45,1.45,0,0,1-1.39,1.4A1.38,1.38,0,0,1,15.56,303.56Z"/><path class="cls-5" d="M75.45,308.61a1.35,1.35,0,0,1,1.31,1.44,1.37,1.37,0,0,1-1.43,1.33A1.44,1.44,0,0,1,74,309.93,1.41,1.41,0,0,1,75.45,308.61Z"/><path class="cls-5" d="M88.36,317.9A1.34,1.34,0,0,1,87,316.49a1.36,1.36,0,0,1,1.31-1.33,1.42,1.42,0,0,1,1.41,1.36A1.4,1.4,0,0,1,88.36,317.9Z"/><path class="cls-5" d="M55.87,302.18a1.34,1.34,0,0,1,1.36,1.38A1.37,1.37,0,0,1,55.87,305a1.44,1.44,0,0,1-1.4-1.39A1.41,1.41,0,0,1,55.87,302.18Z"/><path class="cls-5" d="M122.23,349a1.34,1.34,0,0,1-1.34,1.4A1.4,1.4,0,0,1,119.5,349a1.37,1.37,0,0,1,1.3-1.33A1.32,1.32,0,0,1,122.23,349Z"/><path class="cls-5" d="M11.7,303.51a1.29,1.29,0,0,1-1.24,1.35,1.31,1.31,0,1,1-.09-2.61A1.29,1.29,0,0,1,11.7,303.51Z"/><path class="cls-5" d="M62.45,304.86a1.28,1.28,0,0,1-1.35-1.24,1.33,1.33,0,1,1,1.35,1.24Z"/><path class="cls-5" d="M107.86,330.8a1.3,1.3,0,0,1-1.27-1.33,1.31,1.31,0,0,1,1.35-1.25,1.29,1.29,0,0,1-.08,2.58Z"/><path class="cls-5" d="M81.79,308.71a1.28,1.28,0,1,1,0,2.55,1.24,1.24,0,0,1-1.25-1.21A1.26,1.26,0,0,1,81.79,308.71Z"/><path class="cls-5" d="M115.6,336.1a1.29,1.29,0,0,1-1.34,1.26,1.34,1.34,0,0,1-1.22-1.28,1.32,1.32,0,0,1,1.3-1.31A1.28,1.28,0,0,1,115.6,336.1Z"/><path class="cls-5" d="M101.31,324.35a1.24,1.24,0,0,1-1.22-1.34,1.26,1.26,0,0,1,1.26-1.21,1.28,1.28,0,1,1,0,2.55Z"/><path class="cls-5" d="M4,304.81a1.21,1.21,0,0,1-1.26-1.18,1.24,1.24,0,0,1,1.23-1.34,1.32,1.32,0,0,1,1.29,1.19A1.29,1.29,0,0,1,4,304.81Z"/><path class="cls-5" d="M70.08,303.56a1.24,1.24,0,0,1-1.21,1.24,1.29,1.29,0,0,1-1.28-1.19,1.3,1.3,0,0,1,1.28-1.31A1.26,1.26,0,0,1,70.08,303.56Z"/><path class="cls-5" d="M119.65,342.54a1.2,1.2,0,0,1,1.18-1.27,1.23,1.23,0,1,1,.1,2.46A1.22,1.22,0,0,1,119.65,342.54Z"/><path class="cls-5" d="M93.69,316.59a1.19,1.19,0,0,1,1.19-1.27,1.25,1.25,0,0,1,1.3,1.17A1.27,1.27,0,0,1,95,317.77,1.22,1.22,0,0,1,93.69,316.59Z"/><path class="cls-5" d="M36.3,298.21a1.2,1.2,0,1,1,.14-2.4,1.2,1.2,0,0,1-.14,2.4Z"/><path class="cls-5" d="M42.87,295.82A1.19,1.19,0,0,1,44.09,297a1.2,1.2,0,1,1-1.22-1.22Z"/><path class="cls-5" d="M30,298.19a1.18,1.18,0,1,1-.1-2.36,1.18,1.18,0,1,1,.1,2.36Z"/><path class="cls-5" d="M89.56,310a1.23,1.23,0,0,1-1.13,1.21,1.19,1.19,0,1,1,0-2.38A1.22,1.22,0,0,1,89.56,310Z"/><path class="cls-5" d="M50.59,297.06a1.11,1.11,0,0,1-1.18,1.11A1.17,1.17,0,0,1,48.25,297a1.19,1.19,0,0,1,1.26-1.17A1.13,1.13,0,0,1,50.59,297.06Z"/><path class="cls-5" d="M23.37,295.84A1.18,1.18,0,0,1,24.54,297a1.17,1.17,0,0,1-1.24,1.18,1.17,1.17,0,0,1,.07-2.33Z"/><path class="cls-5" d="M16.93,295.86a1.15,1.15,0,1,1,0,2.3,1.15,1.15,0,0,1,0-2.3Z"/><path class="cls-5" d="M57,297.06a1.1,1.1,0,0,1-1.11,1.08A1.17,1.17,0,0,1,54.72,297a1.2,1.2,0,0,1,1.14-1.09A1.12,1.12,0,0,1,57,297.06Z"/><path class="cls-5" d="M76.53,303.52a1.15,1.15,0,0,1-1.1,1.2,1.22,1.22,0,0,1-1.2-1.12,1.17,1.17,0,0,1,1.12-1.19A1.12,1.12,0,0,1,76.53,303.52Z"/><path class="cls-5" d="M128.45,349a1.17,1.17,0,0,1-1.1,1.21,1.22,1.22,0,0,1-1.2-1.12,1.16,1.16,0,0,1,1.11-1.19A1.12,1.12,0,0,1,128.45,349Z"/><path class="cls-5" d="M114.28,328.4a1.15,1.15,0,0,1,1.2,1.12,1.17,1.17,0,0,1-1.09,1.12,1.11,1.11,0,0,1-1.17-1.12A1.09,1.09,0,0,1,114.28,328.4Z"/><path class="cls-5" d="M107.85,322a1.15,1.15,0,0,1,1.2,1.12,1.18,1.18,0,0,1-1.09,1.12,1.12,1.12,0,0,1-1.18-1.13A1.09,1.09,0,0,1,107.85,322Z"/><path class="cls-5" d="M101.34,315.44a1.1,1.1,0,0,1,0,2.19,1.1,1.1,0,0,1,0-2.19Z"/><path class="cls-5" d="M10.41,298.11A1.12,1.12,0,0,1,9.31,297a1.1,1.1,0,0,1,1-1.12,1.1,1.1,0,0,1,.05,2.2Z"/><path class="cls-5" d="M120.84,337.16a1.1,1.1,0,0,1,.08-2.2,1.14,1.14,0,0,1,1,1.14A1.11,1.11,0,0,1,120.84,337.16Z"/><path class="cls-5" d="M63.49,297a1.08,1.08,0,1,1-2.16,0,1.13,1.13,0,0,1,1.08-1.1A1.11,1.11,0,0,1,63.49,297Z"/><path class="cls-5" d="M82.89,303.51a1,1,0,0,1-1,1.08,1,1,0,0,1-1.15-1,1,1,0,0,1,.93-1.1A1.06,1.06,0,0,1,82.89,303.51Z"/><path class="cls-5" d="M96,310a1.07,1.07,0,0,1-1.06,1A1,1,0,1,1,95,309,1.08,1.08,0,0,1,96,310Z"/><path class="cls-5" d="M68.85,298a1,1,0,1,1,.05-2,1,1,0,0,1-.05,2Z"/><path class="cls-5" d="M127.3,341.51a1,1,0,0,1,1,1,1,1,0,0,1-1.05,1,1,1,0,0,1-1-.95A1,1,0,0,1,127.3,341.51Z"/><path class="cls-5" d="M4,296a1,1,0,0,1,1,1,1,1,0,0,1-1.09.94,1,1,0,0,1,.1-2Z"/><path class="cls-5" d="M89.31,303.5a1,1,0,0,1-.91,1,.91.91,0,0,1-.93-.82.9.9,0,0,1,.82-1A1,1,0,0,1,89.31,303.5Z"/><path class="cls-5" d="M43.83,290.54a.94.94,0,0,1-.92.95.89.89,0,0,1-.93-.82.92.92,0,0,1,.85-1A1,1,0,0,1,43.83,290.54Z"/><path class="cls-5" d="M36.33,289.65a.93.93,0,0,1,.07,1.85.93.93,0,0,1-1-.89A1,1,0,0,1,36.33,289.65Z"/><path class="cls-5" d="M30.81,290.57a.87.87,0,0,1-.93.92.94.94,0,0,1-.91-1,1,1,0,0,1,.9-.88A.89.89,0,0,1,30.81,290.57Z"/><path class="cls-5" d="M115.27,323a1,1,0,0,1-.92,1,.93.93,0,0,1-.92-.84.9.9,0,0,1,.84-1A1,1,0,0,1,115.27,323Z"/><path class="cls-5" d="M24.27,290.57a.93.93,0,0,1-.95.91.9.9,0,0,1-.84-.9.91.91,0,0,1,.83-.91A1,1,0,0,1,24.27,290.57Z"/><path class="cls-5" d="M75.38,297.91a.94.94,0,0,1-.9-1,1,1,0,0,1,.92-.84.92.92,0,0,1,.88,1A.9.9,0,0,1,75.38,297.91Z"/><path class="cls-5" d="M50.32,290.55a.9.9,0,0,1-.81.93.94.94,0,0,1-1-.88,1,1,0,0,1,.95-.93A.91.91,0,0,1,50.32,290.55Z"/><path class="cls-5" d="M108.81,316.54a.94.94,0,0,1-1,.9.91.91,0,0,1,0-1.81A1,1,0,0,1,108.81,316.54Z"/><path class="cls-5" d="M121.76,329.51a.86.86,0,0,1-.84.9,1,1,0,0,1-1-.94.93.93,0,0,1,.93-.83A.83.83,0,0,1,121.76,329.51Z"/><path class="cls-5" d="M17.8,290.62a.93.93,0,0,1-.91.84.91.91,0,0,1-.82-.93.89.89,0,0,1,.9-.83A.91.91,0,0,1,17.8,290.62Z"/><path class="cls-5" d="M128.15,336a.83.83,0,1,1-1.66.11.85.85,0,0,1,.72-.89A.86.86,0,0,1,128.15,336Z"/><path class="cls-5" d="M55.86,289.73a.87.87,0,0,1,.85.89.89.89,0,0,1-.82.81.85.85,0,0,1,0-1.7Z"/><path class="cls-5" d="M102.19,310.1a.86.86,0,0,1-1,.7.81.81,0,0,1-.65-.92.8.8,0,0,1,1-.7A.84.84,0,0,1,102.19,310.1Z"/><path class="cls-5" d="M10.18,289.82c.65,0,1,.41,1,.82a.74.74,0,0,1-.78.69.68.68,0,0,1-.73-.81A2.22,2.22,0,0,1,10.18,289.82Z"/><path class="cls-5" d="M82.61,297.19a2.14,2.14,0,0,1-.71.54.67.67,0,0,1-.83-.7.68.68,0,0,1,.68-.76C82.2,296.22,82.59,296.55,82.61,297.19Z"/><path class="cls-5" d="M63.46,290.57c-.45.35-.69.65-1,.73a.72.72,0,0,1-.83-.72.71.71,0,0,1,.83-.73A4.63,4.63,0,0,1,63.46,290.57Z"/><path class="cls-5" d="M95.91,303.56c-.43.33-.67.63-1,.72s-.8-.37-.75-.78a.67.67,0,0,1,.76-.67C95.24,302.89,95.49,303.23,95.91,303.56Z"/><path class="cls-5" d="M134.6,342.51a.71.71,0,0,1-.77.7.69.69,0,0,1-.69-.75.67.67,0,0,1,.75-.68A.69.69,0,0,1,134.6,342.51Z"/><path class="cls-5" d="M4.63,290.56a.65.65,0,0,1-.7.7c-.39,0-.79-.38-.66-.72a1.2,1.2,0,0,1,.64-.63C4.28,289.78,4.62,290.15,4.63,290.56Z"/><path class="cls-5" d="M68.84,289.64c.31.42.58.64.66.91s-.33.74-.7.69-.66-.31-.58-.69S68.55,290.06,68.84,289.64Z"/><path class="cls-5" d="M115.24,316.48c-.37.32-.57.61-.84.69s-.64-.15-.71-.54.25-.82.62-.74A3.42,3.42,0,0,1,115.24,316.48Z"/><path class="cls-5" d="M121.83,323.14c-.47.28-.72.53-1,.56a.62.62,0,1,1,.06-1.23C121.17,322.53,121.39,322.8,121.83,323.14Z"/><path class="cls-5" d="M127.37,330.36c-.31-.35-.58-.52-.64-.76a.52.52,0,0,1,.54-.68c.42,0,.69.21.64.61C127.88,329.77,127.63,330,127.37,330.36Z"/><path class="cls-5" d="M108.76,310c-.36.29-.54.55-.78.61a.52.52,0,0,1-.69-.54c0-.41.23-.68.63-.61C108.16,309.45,108.37,309.69,108.76,310Z"/><path class="cls-5" d="M88.38,296.18c.26.4.54.63.51.83s-.34.39-.52.58c-.2-.19-.52-.37-.55-.59S88.1,296.57,88.38,296.18Z"/><path class="cls-5" d="M30.72,284.11c-.45.22-.69.43-.92.41s-.39-.36-.37-.54.33-.48.48-.46S30.33,283.81,30.72,284.11Z"/><path class="cls-5" d="M37.16,284c-.4.3-.6.55-.83.57s-.46-.28-.47-.46a.69.69,0,0,1,.38-.54C36.47,283.52,36.71,283.73,37.16,284Z"/><path class="cls-5" d="M102.17,303.48c-.4.3-.6.56-.82.58s-.46-.28-.48-.45.23-.54.38-.55S101.72,303.26,102.17,303.48Z"/><path class="cls-5" d="M42.92,284.79c-.26-.34-.52-.55-.54-.77s.29-.35.46-.53c.19.18.47.33.54.55S43.16,284.42,42.92,284.79Z"/><path class="cls-5" d="M75.33,291.27c-.2-.32-.44-.53-.42-.7a.74.74,0,0,1,.48-.48.43.43,0,0,1,.51.55C75.86,290.84,75.6,291,75.33,291.27Z"/><path class="cls-5" d="M50,284c-.21.22-.38.52-.49.49s-.38-.27-.57-.42c.17-.17.32-.41.52-.48S49.78,283.81,50,284Z"/><path class="cls-5" d="M24.07,284c-.35.24-.54.45-.74.47s-.39-.27-.4-.43.24-.47.36-.47S23.7,283.79,24.07,284Z"/><path class="cls-5" d="M133.91,336.7c-.24-.28-.5-.46-.47-.57a.79.79,0,0,1,.43-.5c.09,0,.43.23.43.37S134.1,336.39,133.91,336.7Z"/><path class="cls-5" d="M56.44,284c-.28.17-.44.34-.61.35s-.25-.2-.38-.32c.13-.14.25-.37.4-.4S56.17,283.86,56.44,284Z"/><path class="cls-5" d="M16.92,283.5l.43.55c-.15.12-.3.3-.48.34s-.33-.22-.32-.33S16.74,283.75,16.92,283.5Z"/><path class="cls-5" d="M81.88,291.07c-.18-.22-.33-.34-.36-.48s.16-.33.22-.32.38.13.42.25S82,290.81,81.88,291.07Z"/><path class="cls-5" d="M140.91,342.52c-.25.15-.42.33-.54.3a.59.59,0,0,1-.27-.4c0-.07.21-.27.3-.25S140.68,342.35,140.91,342.52Z"/><path class="cls-5" d="M62.88,284.19a1.76,1.76,0,0,1-.6.12c-.09,0-.22-.28-.19-.32s.27-.27.4-.26S62.69,284,62.88,284.19Z"/><path class="cls-5" d="M10.88,284c-.23.19-.34.34-.49.38s-.31-.16-.3-.23.13-.37.24-.4S10.62,283.85,10.88,284Z"/><path class="cls-5" d="M95.43,297c-.24.17-.39.36-.51.34s-.26-.23-.31-.38.19-.28.28-.27S95.18,296.84,95.43,297Z"/><path class="cls-5" d="M121.38,316.54c-.24.16-.4.35-.52.32s-.25-.23-.29-.38.2-.28.29-.27S121.14,316.38,121.38,316.54Z"/><path class="cls-5" d="M127.26,322.66c.16.21.32.33.31.42s-.18.21-.3.26-.2-.13-.2-.2A1.63,1.63,0,0,1,127.26,322.66Z"/><path class="cls-5" d="M114.74,310c-.2.15-.32.32-.41.3s-.21-.18-.25-.3.13-.22.2-.22A1.78,1.78,0,0,1,114.74,310Z"/></g></g><path class="cls-9" d="M213.73,18.28h-7.68L189.52,53.19a16.18,16.18,0,0,1-14.63,9.26H67a16.17,16.17,0,0,1-14.63-9.26L35.85,18.28H28.17a8.33,8.33,0,0,0-8.33,8.33V318.72a8.33,8.33,0,0,0,8.33,8.33H60l8.85-18.69a12.29,12.29,0,0,1,11.12-7h82a12.29,12.29,0,0,1,11.12,7l8.85,18.69h31.81a8.33,8.33,0,0,0,8.33-8.33V26.61A8.33,8.33,0,0,0,213.73,18.28Z"/><path class="cls-10" d="M213.73,18.28h-7.68L189.52,53.19a16.18,16.18,0,0,1-14.63,9.26H67a16.17,16.17,0,0,1-14.63-9.26L35.85,18.28H28.17a8.33,8.33,0,0,0-8.33,8.33V318.72a8.33,8.33,0,0,0,8.33,8.33H60l8.85-18.69a12.29,12.29,0,0,1,11.12-7h82a12.29,12.29,0,0,1,11.12,7l8.85,18.69h31.81a8.33,8.33,0,0,0,8.33-8.33V26.61A8.33,8.33,0,0,0,213.73,18.28Z"/><text class="cls-11" transform="translate(61.54 156.62)">Clear the <tspan x="-30.55" y="36">number order </tspan><tspan x="-24.46" y="72">from (31-40)</tspan></text><path class="cls-1" d="M189.52,53.19,203,24.65l-37.8,37.8h9.66A16.18,16.18,0,0,0,189.52,53.19Z"/><path class="cls-12" d="M222.06,26.61a8.33,8.33,0,0,0-8.33-8.33h-7.68l-3,6.37L189.52,53.19a16.18,16.18,0,0,1-14.63,9.26h-9.66L19.84,207.84v84.34L222.06,90Z"/><polygon class="cls-12" points="85.11 62.45 19.84 127.72 19.84 151.72 109.11 62.45 85.11 62.45"/><polygon class="cls-13" points="206.05 18.28 203.03 24.65 205.94 18.51 206.05 18.28"/><path class="cls-14" d="M118.31,20.23a3.3,3.3,0,0,1-.22-3.53A3.19,3.19,0,0,1,122,15.17a36.92,36.92,0,0,1,13.13,7.16c1.13,1,2.2,2,3.25,3.11a3.26,3.26,0,0,1-1.07,5.33c-2.36,1-4.73,2.05-7.11,3.06a.47.47,0,0,0-.35.54q0,.6,0,1.2a1.67,1.67,0,1,1-3.34.09c0-.06,0-.12,0-.21s-.24.08-.34.13q-7.48,3.21-15,6.42a.43.43,0,0,0-.3.47,18.46,18.46,0,0,1,0,2,1.91,1.91,0,0,1-2.61,1.66A1.86,1.86,0,0,1,107,44.37c0-.25,0-.5,0-.74s0-.45-.29-.44-.27.22-.27.43c0,1.08,0,2.17,0,3.25a3.17,3.17,0,0,1-.07.69,1.88,1.88,0,0,1-2,1.45,1.86,1.86,0,0,1-1.82-1.65,12.64,12.64,0,0,1,0-1.51c0-1.4,0-2.81,0-4.22a11.4,11.4,0,0,1,3-7.36c2.7-3,5.43-6,8.14-9l4.4-4.86C118.2,20.37,118.25,20.3,118.31,20.23ZM116.1,36.44l.39-.16,8.7-3.75a1.68,1.68,0,0,1,2.47,1.59c0,.48,0,1,0,1.44a.88.88,0,0,0,.25.52.56.56,0,0,0,.53,0,.86.86,0,0,0,.31-.56c0-.83,0-1.66,0-2.48a2.86,2.86,0,0,1,1.93-2.92l2.17-.93c-2.47-2.84-12.38-8.77-13.69-8.21,1.4,1.44,1.61,2.92.58,4.14a2.71,2.71,0,0,1-1.76.95,2.77,2.77,0,0,1-2.59-1L108.29,33a2.84,2.84,0,0,1,.4,3.77c-.87,1.16-2.27,1.4-3.88.65a8.94,8.94,0,0,0-1,2.91,49.37,49.37,0,0,0-.16,6.88.72.72,0,0,0,.73.71c.6,0,.92-.3.92-1,0-1.15,0-2.3,0-3.45a1.39,1.39,0,0,1,2.78,0,5.18,5.18,0,0,0,0,1,1.12,1.12,0,0,0,.44.62.8.8,0,0,0,1.19-.74c0-.83,0-1.65,0-2.48a3.86,3.86,0,0,1,1.09-2.73.46.46,0,0,0,.14-.51,2.78,2.78,0,0,1,5.08-2.11Zm16.66-8.92c.86-2.3,1.18-2.62,3.16-3.11-.16-.11-.27-.17-.37-.25-1.32-1.06-2.59-2.18-4-3.15a35.51,35.51,0,0,0-9.77-4.74,2.13,2.13,0,0,0-3,1.91,1.57,1.57,0,0,0,1.11,1.75,37.84,37.84,0,0,1,11.66,6.6Zm-2.85,5.23.42-.17,4.72-2c.69-.3,1.39-.57,2-.9A2.16,2.16,0,1,0,135,25.87a2.19,2.19,0,0,0-.76,3c.32.51.23.82-.32,1.06L131,31.23A1.7,1.7,0,0,0,129.91,32.75Zm-18.85,8.11,7.06-3,8.1-3.47c.21-.09.41-.19.29-.43a1,1,0,0,0-.46-.44c-.14,0-.35.05-.51.11L118,36.84c-1.76.76-3.52,1.53-5.29,2.28A2.86,2.86,0,0,0,111.06,40.86Zm5.15-16.63A1.56,1.56,0,0,0,118,25a1.6,1.6,0,0,0,1.26-1.52,1.53,1.53,0,0,0-1-1.53Zm-8.73,9.58-2.12,2.51a1.7,1.7,0,0,0,2.38-.19A1.63,1.63,0,0,0,107.48,33.81Zm4.59,4.38,3-1.28a1.5,1.5,0,0,0-1.89-.59A1.58,1.58,0,0,0,112.07,38.19Z"/><path class="cls-15" d="M116.5,30.62a2.79,2.79,0,1,1,2.8,2.76A2.76,2.76,0,0,1,116.5,30.62ZM119.29,29A1.65,1.65,0,1,0,121,30.62,1.61,1.61,0,0,0,119.29,29Z"/><path class="cls-16" d="M125.08,26.4c.46,0,1.15.65,1.12,1a.66.66,0,0,1-.27.47.65.65,0,0,1-.56,0,2,2,0,0,1-.62-.61.71.71,0,0,1,0-.57C124.8,26.54,125,26.46,125.08,26.4Z"/><path class="cls-17" d="M113.92,31.33a.54.54,0,0,1-.83.45,2.86,2.86,0,0,1-.65-.65.55.55,0,0,1,.47-.83A1.46,1.46,0,0,1,113.92,31.33Z"/><path class="cls-18" d="M125,30.32a1.35,1.35,0,0,1-.9.91.53.53,0,0,1-.52-.79,2.15,2.15,0,0,1,.62-.62A.53.53,0,0,1,125,30.32Z"/><path class="cls-19" d="M116.05,28.05a1.22,1.22,0,0,1-1,.94.52.52,0,0,1-.42-.82,2.11,2.11,0,0,1,.6-.59A.54.54,0,0,1,116.05,28.05Z"/><path class="cls-20" d="M109.92,38.59a1.37,1.37,0,0,1-.92,1,.53.53,0,0,1-.52-.79,2.15,2.15,0,0,1,.63-.61.58.58,0,0,1,.53,0C109.79,38.3,109.86,38.5,109.92,38.59Z"/><path class="cls-21" d="M111.2,34.58a.53.53,0,0,1-.48-.79,2.15,2.15,0,0,1,.62-.62.52.52,0,0,1,.79.46A1.24,1.24,0,0,1,111.2,34.58Z"/><path class="cls-22" d="M123.3,25.15c0,.47-.58,1.09-.94,1a.68.68,0,0,1-.46-.27.71.71,0,0,1,0-.57,1.25,1.25,0,0,1,.51-.51.71.71,0,0,1,.57,0C123.16,24.87,123.24,25.07,123.3,25.15Z"/><path class="cls-23" d="M106.83,40.79a2.15,2.15,0,0,1-.47.38c-.24.11-.87-.25-1-.5a.48.48,0,0,1,.18-.67,1.18,1.18,0,0,1,.72,0A.73.73,0,0,1,106.83,40.79Z"/><path class="cls-24" d="M116.3,34a.53.53,0,0,1-.58.53c-.43,0-.9-.42-.9-.76a.55.55,0,0,1,.57-.55C115.81,33.19,116.31,33.62,116.3,34Z"/><path class="cls-25" d="M128.21,28.15c.4,0,.94.44.94.77a.56.56,0,0,1-.57.55c-.4,0-.91-.42-.92-.74A.56.56,0,0,1,128.21,28.15Z"/></g></g></svg>