<svg xmlns="http://www.w3.org/2000/svg" xmlns:xlink="http://www.w3.org/1999/xlink" viewBox="0 0 242.17 344.47"><defs><style>.cls-1,.cls-9{fill:none;}.cls-2{isolation:isolate;}.cls-3{fill:url(#linear-gradient);}.cls-4{fill:url(#linear-gradient-2);}.cls-5{clip-path:url(#clip-path);}.cls-6{opacity:0.28;mix-blend-mode:overlay;}.cls-13,.cls-7{fill:#fff;}.cls-8{fill:url(#linear-gradient-3);}.cls-9{stroke-linecap:round;stroke-linejoin:round;stroke-width:2px;stroke:url(#linear-gradient-4);}.cls-10{fill:url(#linear-gradient-5);}.cls-11{fill:url(#linear-gradient-6);}.cls-12{font-size:30px;fill:#f5cb16;font-family:Roboto-Regular, Roboto;}.cls-13{opacity:0.16;mix-blend-mode:hard-light;}.cls-14{fill:url(#linear-gradient-7);}.cls-15{clip-path:url(#clip-path-2);}.cls-16{clip-path:url(#clip-path-3);}.cls-17{clip-path:url(#clip-path-4);}</style><linearGradient id="linear-gradient" x1="-20.11" y1="33.34" x2="262.55" y2="316" gradientUnits="userSpaceOnUse"><stop offset="0" stop-color="#fff"/><stop offset="0.5" stop-color="#e5e5e5"/><stop offset="1" stop-color="#c7c7c7"/></linearGradient><linearGradient id="linear-gradient-2" x1="121.22" y1="-1.08" x2="121.22" y2="350.1" gradientUnits="userSpaceOnUse"><stop offset="0" stop-color="#f5cb16"/><stop offset="0.28" stop-color="#fef687"/><stop offset="0.34" stop-color="#f5e063"/><stop offset="0.42" stop-color="#ebc83c"/><stop offset="0.48" stop-color="#e5b924"/><stop offset="0.52" stop-color="#e3b31b"/><stop offset="0.65" stop-color="#f0d24e"/><stop offset="0.79" stop-color="#fff585"/><stop offset="0.87" stop-color="#fbe254"/><stop offset="0.96" stop-color="#f7d227"/><stop offset="1" stop-color="#f5cb16"/></linearGradient><clipPath id="clip-path"><path class="cls-1" d="M230.71,260.92V88.42a11.39,11.39,0,0,1,3.54-8.27,17.51,17.51,0,0,0,5.36-12.69V21.35A17.74,17.74,0,0,0,221.87,3.61H20.57A17.74,17.74,0,0,0,2.83,21.35V67.46A17.51,17.51,0,0,0,8.19,80.15a11.39,11.39,0,0,1,3.54,8.27v172.5a11.4,11.4,0,0,1-3.54,8.27,17.51,17.51,0,0,0-5.36,12.69V328a17.74,17.74,0,0,0,17.74,17.74h201.3A17.74,17.74,0,0,0,239.61,328V281.88a17.51,17.51,0,0,0-5.36-12.69A11.4,11.4,0,0,1,230.71,260.92Z"/></clipPath><linearGradient id="linear-gradient-3" x1="-4.09" y1="49.36" x2="246.53" y2="299.98" gradientUnits="userSpaceOnUse"><stop offset="0" stop-color="#8c0f02"/><stop offset="1" stop-color="#ff1124"/></linearGradient><linearGradient id="linear-gradient-4" x1="-4.79" y1="48.66" x2="247.23" y2="300.68" gradientUnits="userSpaceOnUse"><stop offset="0" stop-color="#c7c7c7"/><stop offset="0.5" stop-color="#e5e5e5"/><stop offset="1" stop-color="#fff"/></linearGradient><linearGradient id="linear-gradient-5" x1="94.68" y1="34.01" x2="152.93" y2="34.01" xlink:href="#linear-gradient-3"/><linearGradient id="linear-gradient-6" x1="89.51" y1="38.54" x2="100.65" y2="38.54" xlink:href="#linear-gradient-3"/><linearGradient id="linear-gradient-7" x1="114.15" y1="-68.87" x2="364.76" y2="181.74" xlink:href="#linear-gradient"/><clipPath id="clip-path-2"><path class="cls-1" d="M-61.62-243.19v-172.5A11.4,11.4,0,0,1-58.08-424a17.51,17.51,0,0,0,5.35-12.69v-46.11A17.74,17.74,0,0,0-70.47-500.5H-271.76a17.74,17.74,0,0,0-17.74,17.74v46.11A17.51,17.51,0,0,0-284.15-424a11.4,11.4,0,0,1,3.54,8.27v172.5a11.4,11.4,0,0,1-3.54,8.27,17.51,17.51,0,0,0-5.35,12.69v46.11a17.74,17.74,0,0,0,17.74,17.74H-70.47a17.74,17.74,0,0,0,17.74-17.74v-46.11a17.51,17.51,0,0,0-5.35-12.69A11.4,11.4,0,0,1-61.62-243.19Z"/></clipPath><clipPath id="clip-path-3"><path class="cls-1" d="M210.6-243.19v-172.5a11.4,11.4,0,0,1,3.54-8.27,17.51,17.51,0,0,0,5.35-12.69v-46.11a17.73,17.73,0,0,0-17.73-17.74H.46a17.74,17.74,0,0,0-17.74,17.74v46.11A17.51,17.51,0,0,0-11.92-424a11.4,11.4,0,0,1,3.53,8.27v172.5a11.4,11.4,0,0,1-3.53,8.27,17.51,17.51,0,0,0-5.36,12.69v46.11A17.74,17.74,0,0,0,.46-158.38h201.3a17.73,17.73,0,0,0,17.73-17.74v-46.11a17.51,17.51,0,0,0-5.35-12.69A11.4,11.4,0,0,1,210.6-243.19Z"/></clipPath><clipPath id="clip-path-4"><path class="cls-1" d="M482.43-243.19v-172.5A11.4,11.4,0,0,1,486-424a17.51,17.51,0,0,0,5.36-12.69v-46.11a17.74,17.74,0,0,0-17.74-17.74H272.29a17.73,17.73,0,0,0-17.73,17.74v46.11A17.51,17.51,0,0,0,259.91-424a11.4,11.4,0,0,1,3.54,8.27v172.5a11.4,11.4,0,0,1-3.54,8.27,17.51,17.51,0,0,0-5.35,12.69v46.11a17.73,17.73,0,0,0,17.73,17.74h201.3a17.74,17.74,0,0,0,17.74-17.74v-46.11A17.51,17.51,0,0,0,486-234.92,11.4,11.4,0,0,1,482.43-243.19Z"/></clipPath></defs><g class="cls-2"><g id="Layer_1" data-name="Layer 1"><path class="cls-3" d="M221.87,348.29H20.57A20.33,20.33,0,0,1,.27,328V281.88a20.16,20.16,0,0,1,6.15-14.55,8.77,8.77,0,0,0,2.74-6.41V88.42A8.75,8.75,0,0,0,6.42,82,20.16,20.16,0,0,1,.27,67.46V21.35a20.32,20.32,0,0,1,20.3-20.3h201.3a20.32,20.32,0,0,1,20.3,20.3V67.46A20.16,20.16,0,0,1,236,82a8.75,8.75,0,0,0-2.74,6.41v172.5a8.77,8.77,0,0,0,2.74,6.41,20.16,20.16,0,0,1,6.15,14.55V328A20.33,20.33,0,0,1,221.87,348.29ZM20.57,6.17A15.2,15.2,0,0,0,5.4,21.35V67.46A15,15,0,0,0,10,78.3a13.87,13.87,0,0,1,4.33,10.12v172.5A13.87,13.87,0,0,1,10,271,15,15,0,0,0,5.4,281.88V328a15.19,15.19,0,0,0,15.17,15.17h201.3A15.18,15.18,0,0,0,237,328V281.88A15,15,0,0,0,232.48,271a13.87,13.87,0,0,1-4.33-10.12V88.42a13.87,13.87,0,0,1,4.33-10.12A15,15,0,0,0,237,67.46V21.35A15.19,15.19,0,0,0,221.87,6.17Z"/><path class="cls-4" d="M230.71,260.92V88.42a11.39,11.39,0,0,1,3.54-8.27,17.51,17.51,0,0,0,5.36-12.69V21.35A17.74,17.74,0,0,0,221.87,3.61H20.57A17.74,17.74,0,0,0,2.83,21.35V67.46A17.51,17.51,0,0,0,8.19,80.15a11.39,11.39,0,0,1,3.54,8.27v172.5a11.4,11.4,0,0,1-3.54,8.27,17.51,17.51,0,0,0-5.36,12.69V328a17.74,17.74,0,0,0,17.74,17.74h201.3A17.74,17.74,0,0,0,239.61,328V281.88a17.51,17.51,0,0,0-5.36-12.69A11.4,11.4,0,0,1,230.71,260.92Z"/><g class="cls-5"><g class="cls-6"><path class="cls-7" d="M181.35-2.13A2.77,2.77,0,0,1,178.57.63a2.82,2.82,0,0,1-2.77-2.81,2.82,2.82,0,0,1,2.81-2.76A2.76,2.76,0,0,1,181.35-2.13Z"/><path class="cls-7" d="M172.19-4.92a2.72,2.72,0,0,1,2.71,2.8A2.75,2.75,0,0,1,172.12.62a2.8,2.8,0,0,1-2.74-2.81A2.79,2.79,0,0,1,172.19-4.92Z"/><path class="cls-7" d="M182.4-2.2a2.7,2.7,0,0,1,2.81-2.7,2.77,2.77,0,0,1,2.7,2.73A2.81,2.81,0,0,1,185.13.61,2.75,2.75,0,0,1,182.4-2.2Z"/><path class="cls-7" d="M165.61.57a2.69,2.69,0,0,1-2.72-2.79,2.68,2.68,0,0,1,2.72-2.66,2.74,2.74,0,0,1,2.75,2.78A2.75,2.75,0,0,1,165.61.57Z"/><path class="cls-7" d="M194.4-2.15A2.69,2.69,0,0,1,191.73.56a2.74,2.74,0,0,1-2.79-2.73,2.73,2.73,0,0,1,2.7-2.7A2.68,2.68,0,0,1,194.4-2.15Z"/><path class="cls-7" d="M195.43-2.17a2.66,2.66,0,0,1,2.7-2.66,2.66,2.66,0,0,1,2.68,2.68,2.66,2.66,0,0,1-2.7,2.66A2.65,2.65,0,0,1,195.43-2.17Z"/><path class="cls-7" d="M161.85-2A2.63,2.63,0,0,1,159.07.51a2.65,2.65,0,0,1-2.58-2.77,2.66,2.66,0,0,1,2.79-2.57A2.64,2.64,0,0,1,161.85-2Z"/><path class="cls-7" d="M178.58,1.63a2.65,2.65,0,1,1,0,5.29A2.61,2.61,0,0,1,176,4.23,2.61,2.61,0,0,1,178.58,1.63Z"/><path class="cls-7" d="M172.15,1.63a2.67,2.67,0,0,1,2.67,2.69,2.67,2.67,0,0,1-2.65,2.6,2.61,2.61,0,0,1-2.64-2.69A2.61,2.61,0,0,1,172.15,1.63Z"/><path class="cls-7" d="M187.76,4.34a2.6,2.6,0,0,1-2.66,2.57,2.67,2.67,0,0,1-2.62-2.64,2.69,2.69,0,0,1,2.75-2.64A2.62,2.62,0,0,1,187.76,4.34Z"/><path class="cls-7" d="M152.58.47A2.59,2.59,0,0,1,150-2.18a2.62,2.62,0,0,1,2.6-2.62,2.7,2.7,0,0,1,2.66,2.72A2.67,2.67,0,0,1,152.58.47Z"/><path class="cls-7" d="M189.08,4.28a2.62,2.62,0,0,1,2.6-2.64,2.68,2.68,0,0,1,2.64,2.63,2.66,2.66,0,0,1-2.63,2.63A2.6,2.6,0,0,1,189.08,4.28Z"/><path class="cls-7" d="M168.22,4.27a2.61,2.61,0,0,1-2.61,2.63A2.67,2.67,0,0,1,163,4.28a2.7,2.7,0,0,1,2.64-2.64A2.62,2.62,0,0,1,168.22,4.27Z"/><path class="cls-7" d="M207.27-2.15A2.61,2.61,0,0,1,204.65.47,2.68,2.68,0,0,1,202-2.17a2.7,2.7,0,0,1,2.65-2.62A2.62,2.62,0,0,1,207.27-2.15Z"/><path class="cls-7" d="M161.76,4.23a2.58,2.58,0,1,1-2.57-2.55A2.63,2.63,0,0,1,161.76,4.23Z"/><path class="cls-7" d="M198.08,1.68a2.6,2.6,0,1,1-2.54,2.69A2.61,2.61,0,0,1,198.08,1.68Z"/><path class="cls-7" d="M148.74-2.12A2.57,2.57,0,0,1,146.19.42a2.62,2.62,0,0,1-2.56-2.56,2.61,2.61,0,0,1,2.63-2.59A2.56,2.56,0,0,1,148.74-2.12Z"/><path class="cls-7" d="M208.57-2.21a2.52,2.52,0,0,1,2.58-2.5,2.58,2.58,0,0,1,2.5,2.61A2.61,2.61,0,0,1,211,.41,2.54,2.54,0,0,1,208.57-2.21Z"/><path class="cls-7" d="M155.14,4.28a2.51,2.51,0,0,1-2.54,2.53,2.57,2.57,0,0,1-2.51-2.59,2.55,2.55,0,0,1,2.51-2.46A2.48,2.48,0,0,1,155.14,4.28Z"/><path class="cls-7" d="M181.1,10.81a2.48,2.48,0,0,1-2.53,2.53,2.53,2.53,0,0,1,0-5.05A2.51,2.51,0,0,1,181.1,10.81Z"/><path class="cls-7" d="M185.1,8.3a2.52,2.52,0,1,1,.08,5,2.52,2.52,0,0,1-.08-5Z"/><path class="cls-7" d="M174.66,10.85a2.5,2.5,0,0,1-2.47,2.49,2.52,2.52,0,1,1-.07-5A2.51,2.51,0,0,1,174.66,10.85Z"/><path class="cls-7" d="M202.16,4.24a2.47,2.47,0,0,1,2.49-2.47,2.54,2.54,0,0,1,2.55,2.54,2.57,2.57,0,0,1-2.52,2.48A2.48,2.48,0,0,1,202.16,4.24Z"/><path class="cls-7" d="M163.12,10.83a2.52,2.52,0,0,1,2.46-2.52,2.51,2.51,0,1,1,0,5A2.5,2.5,0,0,1,163.12,10.83Z"/><path class="cls-7" d="M194.17,10.83a2.5,2.5,0,0,1-2.47,2.5,2.51,2.51,0,1,1,0-5A2.51,2.51,0,0,1,194.17,10.83Z"/><path class="cls-7" d="M139.65.3a2.44,2.44,0,0,1-2.47-2.46,2.44,2.44,0,0,1,2.47-2.45,2.45,2.45,0,0,1,2.48,2.45A2.46,2.46,0,0,1,139.65.3Z"/><path class="cls-7" d="M159.13,8.34a2.48,2.48,0,1,1-2.42,2.56A2.49,2.49,0,0,1,159.13,8.34Z"/><path class="cls-7" d="M146.16,1.83a2.45,2.45,0,1,1-2.42,2.51A2.44,2.44,0,0,1,146.16,1.83Z"/><path class="cls-7" d="M217.62-4.61a2.46,2.46,0,0,1,2.49,2.46,2.44,2.44,0,0,1-2.5,2.44,2.43,2.43,0,0,1-2.43-2.4A2.44,2.44,0,0,1,217.62-4.61Z"/><path class="cls-7" d="M195.68,10.88a2.45,2.45,0,1,1,2.52,2.41A2.47,2.47,0,0,1,195.68,10.88Z"/><path class="cls-7" d="M211.09,1.84a2.4,2.4,0,0,1,2.43,2.37A2.39,2.39,0,0,1,211.1,6.7a2.43,2.43,0,1,1,0-4.86Z"/><path class="cls-7" d="M176.2,17.39A2.4,2.4,0,0,1,178.57,15a2.41,2.41,0,1,1,.05,4.81A2.39,2.39,0,0,1,176.2,17.39Z"/><path class="cls-7" d="M152.72,8.43a2.43,2.43,0,0,1,2.34,2.48,2.47,2.47,0,0,1-2.52,2.33,2.4,2.4,0,0,1-2.3-2.5A2.35,2.35,0,0,1,152.72,8.43Z"/><path class="cls-7" d="M204.65,8.44a2.34,2.34,0,0,1,2.4,2.37,2.38,2.38,0,0,1-2.38,2.41,2.39,2.39,0,1,1,0-4.78Z"/><path class="cls-7" d="M187.51,17.36a2.37,2.37,0,0,1-2.4,2.4,2.43,2.43,0,0,1-2.38-2.44A2.46,2.46,0,0,1,185.1,15,2.39,2.39,0,0,1,187.51,17.36Z"/><path class="cls-7" d="M169.78,17.35A2.4,2.4,0,0,1,172.21,15a2.45,2.45,0,0,1,2.35,2.36,2.42,2.42,0,0,1-2.39,2.43A2.38,2.38,0,0,1,169.78,17.35Z"/><path class="cls-7" d="M224.13.22A2.39,2.39,0,0,1,221.71-2,2.41,2.41,0,0,1,224-4.54a2.42,2.42,0,0,1,2.43,2.39A2.41,2.41,0,0,1,224.13.22Z"/><path class="cls-7" d="M217.65,6.65a2.38,2.38,0,0,1-2.37-2.31,2.37,2.37,0,1,1,4.74,0A2.4,2.4,0,0,1,217.65,6.65Z"/><path class="cls-7" d="M194.05,17.53a2.4,2.4,0,0,1-2.59,2.21,2.38,2.38,0,0,1,.33-4.75A2.41,2.41,0,0,1,194.05,17.53Z"/><path class="cls-7" d="M165.62,15a2.38,2.38,0,1,1-2.38,2.31A2.39,2.39,0,0,1,165.62,15Z"/><path class="cls-7" d="M133.14-4.55a2.44,2.44,0,0,1,2.35,2.46A2.43,2.43,0,0,1,133,.23a2.39,2.39,0,0,1-2.28-2.39A2.41,2.41,0,0,1,133.14-4.55Z"/><path class="cls-7" d="M142,4.27a2.38,2.38,0,0,1-2.4,2.39,2.43,2.43,0,0,1-2.36-2.33,2.46,2.46,0,0,1,2.36-2.45A2.4,2.4,0,0,1,142,4.27Z"/><path class="cls-7" d="M198.08,19.72a2.35,2.35,0,0,1,.07-4.7,2.35,2.35,0,0,1-.07,4.7Z"/><path class="cls-7" d="M159.17,19.72a2.35,2.35,0,0,1,0-4.69,2.35,2.35,0,0,1,0,4.69Z"/><path class="cls-7" d="M146.19,13.15a2.33,2.33,0,1,1,2.34-2.29A2.29,2.29,0,0,1,146.19,13.15Z"/><path class="cls-7" d="M211.12,8.5a2.32,2.32,0,1,1,0,4.64,2.32,2.32,0,0,1,0-4.64Z"/><path class="cls-7" d="M139.61,8.53a2.34,2.34,0,0,1,2.33,2.22,2.32,2.32,0,0,1-2.18,2.35,2.26,2.26,0,0,1-2.37-2.26A2.29,2.29,0,0,1,139.61,8.53Z"/><path class="cls-7" d="M135.37,4.34a2.25,2.25,0,0,1-2.27,2.22,2.32,2.32,0,0,1-2.3-2.34A2.3,2.3,0,0,1,133.11,2,2.24,2.24,0,0,1,135.37,4.34Z"/><path class="cls-7" d="M154.9,17.38a2.27,2.27,0,0,1-2.23,2.28,2.34,2.34,0,0,1-2.35-2.3,2.31,2.31,0,0,1,2.38-2.26A2.23,2.23,0,0,1,154.9,17.38Z"/><path class="cls-7" d="M204.74,15.11a2.27,2.27,0,0,1-.09,4.53,2.27,2.27,0,1,1,.09-4.53Z"/><path class="cls-7" d="M126.71-4.41a2.23,2.23,0,0,1,2.23,2.27A2.25,2.25,0,0,1,126.68.11a2.3,2.3,0,0,1-2.3-2.34A2.27,2.27,0,0,1,126.71-4.41Z"/><path class="cls-7" d="M226.34,4.23a2.24,2.24,0,0,1-2.19,2.31,2.29,2.29,0,0,1-2.37-2.27A2.28,2.28,0,0,1,224.05,2,2.23,2.23,0,0,1,226.34,4.23Z"/><path class="cls-7" d="M185.08,26a2.24,2.24,0,1,1,.11-4.47,2.24,2.24,0,1,1-.11,4.47Z"/><path class="cls-7" d="M180.84,23.82a2.22,2.22,0,0,1-2.27,2.23,2.25,2.25,0,1,1,0-4.49A2.2,2.2,0,0,1,180.84,23.82Z"/><path class="cls-7" d="M172.2,21.57a2.23,2.23,0,1,1-2.3,2.19A2.21,2.21,0,0,1,172.2,21.57Z"/><path class="cls-7" d="M217.63,13.09a2.27,2.27,0,1,1,2.26-2.25A2.27,2.27,0,0,1,217.63,13.09Z"/><path class="cls-7" d="M230.66-4.39a2.24,2.24,0,0,1,2.22,2.27,2.24,2.24,0,0,1-2.3,2.2,2.22,2.22,0,0,1-2.21-2.28A2.22,2.22,0,0,1,230.66-4.39Z"/><path class="cls-7" d="M165.58,26a2.22,2.22,0,1,1,2.27-2.22A2.21,2.21,0,0,1,165.58,26Z"/><path class="cls-7" d="M191.68,26a2.21,2.21,0,1,1,0-4.42,2.21,2.21,0,1,1,0,4.42Z"/><path class="cls-7" d="M146.23,19.58a2.21,2.21,0,1,1,0-4.42,2.21,2.21,0,1,1,0,4.42Z"/><path class="cls-7" d="M211.07,19.57a2.21,2.21,0,1,1,0-4.41,2.21,2.21,0,0,1,0,4.41Z"/><path class="cls-7" d="M159.21,26a2.2,2.2,0,1,1,2.16-2.2A2.15,2.15,0,0,1,159.21,26Z"/><path class="cls-7" d="M198.12,26a2.19,2.19,0,0,1-.05-4.38,2.19,2.19,0,1,1,.05,4.38Z"/><path class="cls-7" d="M128.87,4.25a2.19,2.19,0,0,1-2.17,2.2,2.14,2.14,0,0,1-2.19-2.15,2.16,2.16,0,0,1,2.14-2.21A2.23,2.23,0,0,1,128.87,4.25Z"/><path class="cls-7" d="M232.78,4.26a2.16,2.16,0,0,1-2.18,2.19,2.22,2.22,0,0,1-2.17-2.22,2.23,2.23,0,0,1,2.15-2.13A2.17,2.17,0,0,1,232.78,4.26Z"/><path class="cls-7" d="M130.94,10.78a2.14,2.14,0,0,1,2.21-2.13,2.2,2.2,0,0,1,2.15,2.22A2.23,2.23,0,0,1,133.07,13,2.16,2.16,0,0,1,130.94,10.78Z"/><path class="cls-7" d="M226.26,10.81a2.2,2.2,0,0,1-2.2,2.18,2.16,2.16,0,0,1,0-4.32A2.18,2.18,0,0,1,226.26,10.81Z"/><path class="cls-7" d="M152.62,21.63a2.23,2.23,0,0,1,2.18,2.19A2.19,2.19,0,0,1,152.58,26a2.13,2.13,0,0,1-2.09-2.12A2.16,2.16,0,0,1,152.62,21.63Z"/><path class="cls-7" d="M122.27-2.19A2.16,2.16,0,0,1,120.13,0,2.21,2.21,0,0,1,118-2.18a2.25,2.25,0,0,1,2.12-2.15A2.17,2.17,0,0,1,122.27-2.19Z"/><path class="cls-7" d="M141.8,17.39a2.15,2.15,0,0,1-2.2,2.14,2.17,2.17,0,0,1,.05-4.33A2.16,2.16,0,0,1,141.8,17.39Z"/><path class="cls-7" d="M206.8,23.82A2.14,2.14,0,0,1,204.71,26a2.19,2.19,0,0,1-2.21-2.16,2.23,2.23,0,0,1,2.12-2.15A2.16,2.16,0,0,1,206.8,23.82Z"/><path class="cls-7" d="M217.68,19.52a2.15,2.15,0,1,1,2.1-2.16A2.19,2.19,0,0,1,217.68,19.52Z"/><path class="cls-7" d="M178.62,32.45a2.1,2.1,0,1,1-.06-4.2,2.1,2.1,0,1,1,.06,4.2Z"/><path class="cls-7" d="M172.15,32.44a2.08,2.08,0,0,1-2.1-2.09,2.1,2.1,0,0,1,2.11-2.1,2.1,2.1,0,0,1,0,4.19Z"/><path class="cls-7" d="M185.27,28.26a2.09,2.09,0,1,1-.26,4.18,2.09,2.09,0,1,1,.26-4.18Z"/><path class="cls-7" d="M163.53,30.24a2.07,2.07,0,0,1,2.22-2,2.09,2.09,0,0,1-.21,4.17A2.06,2.06,0,0,1,163.53,30.24Z"/><path class="cls-7" d="M146.17,21.7a2.11,2.11,0,0,1,.1,4.21,2.11,2.11,0,1,1-.1-4.21Z"/><path class="cls-7" d="M128.73,10.77a2,2,0,0,1-1.95,2.12,2.08,2.08,0,1,1-.1-4.15A2,2,0,0,1,128.73,10.77Z"/><path class="cls-7" d="M193.75,30.36a2,2,0,0,1-2,2.06,2.08,2.08,0,1,1,0-4.15A2.06,2.06,0,0,1,193.75,30.36Z"/><path class="cls-7" d="M213.19,23.8A2.15,2.15,0,0,1,211,25.9a2.09,2.09,0,0,1-2-2.09,2.05,2.05,0,0,1,2-2.09A2.12,2.12,0,0,1,213.19,23.8Z"/><path class="cls-7" d="M230.61,8.75a2.07,2.07,0,1,1,0,4.14,2.07,2.07,0,0,1,0-4.14Z"/><path class="cls-7" d="M200.16,30.32a2,2,0,0,1-2,2.09,2.07,2.07,0,1,1-.06-4.13A2.06,2.06,0,0,1,200.16,30.32Z"/><path class="cls-7" d="M161.25,30.36a2.1,2.1,0,0,1-2.05,2,2.07,2.07,0,1,1,0-4.13A2.12,2.12,0,0,1,161.25,30.36Z"/><path class="cls-7" d="M135.16,17.4a2.07,2.07,0,0,1-2,2.05A2.13,2.13,0,0,1,131,17.34a2.1,2.1,0,0,1,2.17-2A2,2,0,0,1,135.16,17.4Z"/><path class="cls-7" d="M120.15,6.35a2,2,0,0,1-2.07-2,2,2,0,0,1,2-2.14,2.08,2.08,0,0,1,2.11,2A2.12,2.12,0,0,1,120.15,6.35Z"/><path class="cls-7" d="M237.16,2.25a2,2,0,0,1,2,2,2,2,0,0,1-2,2,2.06,2.06,0,0,1-2.07-2A2.06,2.06,0,0,1,237.16,2.25Z"/><path class="cls-7" d="M226.11,17.38a2,2,0,0,1-2.05,2,2,2,0,1,1,0-4.06A2,2,0,0,1,226.11,17.38Z"/><path class="cls-7" d="M139.7,21.8a2,2,0,0,1,0,4,2,2,0,1,1,0-4Z"/><path class="cls-7" d="M154.64,30.36a2,2,0,0,1-2,2,2.06,2.06,0,0,1-2-2.09,2.08,2.08,0,0,1,2-2A2,2,0,0,1,154.64,30.36Z"/><path class="cls-7" d="M204.69,32.37a2,2,0,1,1,2-2.11A2,2,0,0,1,204.69,32.37Z"/><path class="cls-7" d="M219.65,23.75a2,2,0,1,1-2.11-1.94A2,2,0,0,1,219.65,23.75Z"/><path class="cls-7" d="M122.07,10.81a2,2,0,0,1-1.93,2,2,2,0,0,1-2-2,2,2,0,0,1,1.95-2A1.94,1.94,0,0,1,122.07,10.81Z"/><path class="cls-7" d="M178.6,34.82a2,2,0,0,1,2,2,2,2,0,0,1-2,2,2,2,0,0,1-2-2A1.94,1.94,0,0,1,178.6,34.82Z"/><path class="cls-7" d="M115.63,4.29a1.92,1.92,0,0,1-2,1.93,2,2,0,0,1-1.92-1.9,2,2,0,0,1,1.94-2A1.93,1.93,0,0,1,115.63,4.29Z"/><path class="cls-7" d="M230.66,19.32a2,2,0,1,1,0-3.9,2,2,0,0,1,0,3.9Z"/><path class="cls-7" d="M126.66,19.32a2,2,0,0,1,0-3.91,2,2,0,0,1,2,2A2,2,0,0,1,126.66,19.32Z"/><path class="cls-7" d="M187.07,36.81a1.94,1.94,0,0,1-2,1.93,2,2,0,0,1-1.91-1.92,2,2,0,0,1,2-2A1.91,1.91,0,0,1,187.07,36.81Z"/><path class="cls-7" d="M133.05,21.86a1.94,1.94,0,1,1,0,3.88,1.94,1.94,0,0,1,0-3.88Z"/><path class="cls-7" d="M237.21,12.78a1.94,1.94,0,0,1-2-1.94,1.89,1.89,0,0,1,1.83-1.95,2,2,0,0,1,2.07,1.86A2,2,0,0,1,237.21,12.78Z"/><path class="cls-7" d="M174.12,36.73a2,2,0,0,1-1.93,2,1.93,1.93,0,0,1-2-1.84,1.89,1.89,0,0,1,1.85-2A2,2,0,0,1,174.12,36.73Z"/><path class="cls-7" d="M148.17,30.36a2,2,0,0,1-2,1.94,1.92,1.92,0,0,1-1.9-2,1.89,1.89,0,0,1,1.91-1.88A2,2,0,0,1,148.17,30.36Z"/><path class="cls-7" d="M224,25.73a1.92,1.92,0,0,1-1.87-2,2,2,0,0,1,2-1.84,2,2,0,0,1,1.9,1.93A2,2,0,0,1,224,25.73Z"/><path class="cls-7" d="M243.6,6.21a1.94,1.94,0,0,1,0-3.87,2,2,0,0,1,1.94,2A2,2,0,0,1,243.6,6.21Z"/><path class="cls-7" d="M165.64,38.71a2,2,0,0,1-2-2,1.93,1.93,0,0,1,1.92-1.89,1.89,1.89,0,0,1,1.95,1.84A1.9,1.9,0,0,1,165.64,38.71Z"/><path class="cls-7" d="M191.71,34.86a1.93,1.93,0,1,1-.05,3.85,1.91,1.91,0,0,1-1.9-2A1.89,1.89,0,0,1,191.71,34.86Z"/><path class="cls-7" d="M213,30.33a1.92,1.92,0,0,1-2,2,2,2,0,0,1-1.91-1.92,1.94,1.94,0,0,1,2-1.94A1.89,1.89,0,0,1,213,30.33Z"/><path class="cls-7" d="M157.26,36.69a1.91,1.91,0,0,1,2.1-1.79,1.89,1.89,0,0,1-.31,3.77A1.89,1.89,0,0,1,157.26,36.69Z"/><path class="cls-7" d="M198.15,34.9a1.88,1.88,0,1,1-1.93,1.85A1.87,1.87,0,0,1,198.15,34.9Z"/><path class="cls-7" d="M139.63,32.21a1.87,1.87,0,0,1,0-3.73,1.87,1.87,0,1,1,0,3.73Z"/><path class="cls-7" d="M217.62,28.49a1.86,1.86,0,0,1,.09,3.71,1.86,1.86,0,1,1-.09-3.71Z"/><path class="cls-7" d="M204.67,34.93a1.88,1.88,0,0,1,1.86,1.91,1.86,1.86,0,0,1-1.87,1.78,1.8,1.8,0,0,1-1.83-1.9A1.82,1.82,0,0,1,204.67,34.93Z"/><path class="cls-7" d="M154.47,36.81a1.82,1.82,0,0,1-1.81,1.82,1.85,1.85,0,1,1,.05-3.7A1.82,1.82,0,0,1,154.47,36.81Z"/><path class="cls-7" d="M120.13,19.24a1.85,1.85,0,0,1-1.84-1.81,1.83,1.83,0,0,1,1.83-1.92,1.87,1.87,0,1,1,0,3.73Z"/><path class="cls-7" d="M126.72,25.65a1.89,1.89,0,0,1-1.9-1.77,1.84,1.84,0,0,1,1.74-1.9,1.8,1.8,0,0,1,1.94,1.8A1.84,1.84,0,0,1,126.72,25.65Z"/><path class="cls-7" d="M239,17.34a1.83,1.83,0,0,1-1.76,1.88,1.9,1.9,0,0,1-1.92-1.87,1.87,1.87,0,0,1,1.85-1.81A1.8,1.8,0,0,1,239,17.34Z"/><path class="cls-7" d="M113.74,12.66a1.8,1.8,0,0,1-1.87-1.77A1.82,1.82,0,0,1,113.71,9a1.89,1.89,0,0,1,1.84,1.83A1.86,1.86,0,0,1,113.74,12.66Z"/><path class="cls-7" d="M232.47,23.84a1.88,1.88,0,0,1-1.88,1.79,1.81,1.81,0,0,1-1.78-1.86A1.79,1.79,0,0,1,230.66,22,1.84,1.84,0,0,1,232.47,23.84Z"/><path class="cls-7" d="M245.41,10.79a1.8,1.8,0,0,1-1.75,1.86A1.83,1.83,0,1,1,243.59,9,1.81,1.81,0,0,1,245.41,10.79Z"/><path class="cls-7" d="M133.13,32.16a1.81,1.81,0,1,1,0-3.62,1.81,1.81,0,0,1,0,3.62Z"/><path class="cls-7" d="M109,4.29a1.78,1.78,0,0,1-1.82,1.78,1.8,1.8,0,1,1,0-3.59A1.77,1.77,0,0,1,109,4.29Z"/><path class="cls-7" d="M148,36.82a1.81,1.81,0,0,1-1.86,1.77,1.81,1.81,0,0,1,.08-3.62A1.82,1.82,0,0,1,148,36.82Z"/><path class="cls-7" d="M211.05,38.59a1.81,1.81,0,0,1,0-3.62,1.81,1.81,0,1,1,0,3.62Z"/><path class="cls-7" d="M225.85,30.3a1.79,1.79,0,0,1-1.78,1.84,1.8,1.8,0,1,1,1.78-1.84Z"/><path class="cls-7" d="M180.38,43.36a1.76,1.76,0,0,1-1.85,1.75,1.78,1.78,0,0,1,.06-3.56A1.76,1.76,0,0,1,180.38,43.36Z"/><path class="cls-7" d="M186.92,43.32a1.78,1.78,0,1,1-1.73-1.76A1.75,1.75,0,0,1,186.92,43.32Z"/><path class="cls-7" d="M173.94,43.28a1.78,1.78,0,1,1-1.89-1.72A1.76,1.76,0,0,1,173.94,43.28Z"/><path class="cls-7" d="M193.45,43.31a1.76,1.76,0,0,1-1.72,1.77,1.76,1.76,0,1,1,0-3.51A1.75,1.75,0,0,1,193.45,43.31Z"/><path class="cls-7" d="M165.62,45.08a1.75,1.75,0,1,1,0-3.5,1.75,1.75,0,0,1,0,3.5Z"/><path class="cls-7" d="M159.2,45.05a1.73,1.73,0,0,1-1.77-1.69,1.77,1.77,0,0,1,1.71-1.77,1.71,1.71,0,0,1,1.76,1.71A1.69,1.69,0,0,1,159.2,45.05Z"/><path class="cls-7" d="M199.87,43.36a1.76,1.76,0,0,1-1.79,1.69,1.68,1.68,0,0,1-1.68-1.76,1.71,1.71,0,0,1,1.76-1.7A1.77,1.77,0,0,1,199.87,43.36Z"/><path class="cls-7" d="M118.39,23.79a1.75,1.75,0,0,1,1.77-1.71,1.71,1.71,0,0,1,1.67,1.79,1.69,1.69,0,0,1-1.69,1.65A1.75,1.75,0,0,1,118.39,23.79Z"/><path class="cls-7" d="M113.67,19.09a1.72,1.72,0,1,1,.09-3.44,1.72,1.72,0,0,1-.09,3.44Z"/><path class="cls-7" d="M237.16,22.09a1.71,1.71,0,1,1,0,3.42,1.71,1.71,0,0,1,0-3.42Z"/><path class="cls-7" d="M243.63,19.08a1.72,1.72,0,0,1,0-3.43,1.72,1.72,0,1,1,0,3.43Z"/><path class="cls-7" d="M152.66,45A1.69,1.69,0,0,1,151,43.39a1.71,1.71,0,0,1,1.59-1.77,1.71,1.71,0,1,1,.12,3.41Z"/><path class="cls-7" d="M141.35,36.83a1.71,1.71,0,0,1-1.78,1.68,1.79,1.79,0,0,1-1.66-1.72,1.75,1.75,0,0,1,1.76-1.72A1.67,1.67,0,0,1,141.35,36.83Z"/><path class="cls-7" d="M219.38,36.73a1.78,1.78,0,0,1-1.71,1.78,1.71,1.71,0,0,1-1.73-1.61,1.68,1.68,0,0,1,1.62-1.83A1.76,1.76,0,0,1,219.38,36.73Z"/><path class="cls-7" d="M107.12,12.52a1.7,1.7,0,1,1,.06-3.39,1.7,1.7,0,1,1-.06,3.39Z"/><path class="cls-7" d="M128.38,30.39A1.7,1.7,0,0,1,126.66,32a1.67,1.67,0,1,1,.09-3.34A1.7,1.7,0,0,1,128.38,30.39Z"/><path class="cls-7" d="M204.66,41.64A1.69,1.69,0,1,1,203,43.33,1.71,1.71,0,0,1,204.66,41.64Z"/><path class="cls-7" d="M230.6,28.69a1.66,1.66,0,1,1-1.66,1.68A1.67,1.67,0,0,1,230.6,28.69Z"/><path class="cls-7" d="M99.05,4.29a1.66,1.66,0,1,1,3.32,0,1.66,1.66,0,0,1-3.32,0Z"/><path class="cls-7" d="M147.8,43.43A1.63,1.63,0,0,1,146.15,45a1.64,1.64,0,1,1,.09-3.27A1.6,1.6,0,0,1,147.8,43.43Z"/><path class="cls-7" d="M133.11,38.41a1.63,1.63,0,1,1,0-3.26,1.63,1.63,0,0,1,0,3.26Z"/><path class="cls-7" d="M212.73,43.34A1.67,1.67,0,0,1,211,45a1.65,1.65,0,0,1-1.55-1.65,1.62,1.62,0,0,1,1.58-1.62A1.65,1.65,0,0,1,212.73,43.34Z"/><path class="cls-7" d="M180.18,49.8a1.61,1.61,0,0,1-1.6,1.58,1.68,1.68,0,0,1-1.62-1.6,1.64,1.64,0,0,1,1.69-1.62A1.57,1.57,0,0,1,180.18,49.8Z"/><path class="cls-7" d="M224.05,35.16a1.62,1.62,0,0,1,0,3.24,1.62,1.62,0,1,1,0-3.24Z"/><path class="cls-7" d="M185.11,48.16a1.63,1.63,0,0,1,1.65,1.55,1.65,1.65,0,0,1-1.65,1.67,1.62,1.62,0,0,1-1.57-1.62A1.57,1.57,0,0,1,185.11,48.16Z"/><path class="cls-7" d="M173.75,49.8a1.6,1.6,0,0,1-1.61,1.58,1.67,1.67,0,0,1-1.61-1.6,1.64,1.64,0,0,1,1.69-1.62A1.57,1.57,0,0,1,173.75,49.8Z"/><path class="cls-7" d="M113.75,25.39a1.59,1.59,0,1,1-.11-3.17,1.59,1.59,0,1,1,.11,3.17Z"/><path class="cls-7" d="M107.16,19a1.64,1.64,0,0,1-1.63-1.57,1.62,1.62,0,0,1,1.6-1.6,1.55,1.55,0,0,1,1.6,1.57A1.57,1.57,0,0,1,107.16,19Z"/><path class="cls-7" d="M165.61,48.18a1.59,1.59,0,1,1,0,3.17,1.59,1.59,0,1,1,0-3.17Z"/><path class="cls-7" d="M121.72,30.39a1.63,1.63,0,0,1-1.66,1.54,1.57,1.57,0,0,1-1.5-1.68,1.59,1.59,0,0,1,1.58-1.49A1.64,1.64,0,0,1,121.72,30.39Z"/><path class="cls-7" d="M238.72,30.38a1.56,1.56,0,1,1-3.12-.06,1.62,1.62,0,0,1,1.54-1.55A1.58,1.58,0,0,1,238.72,30.38Z"/><path class="cls-7" d="M243.65,22.24a1.57,1.57,0,0,1-.05,3.13,1.57,1.57,0,1,1,.05-3.13Z"/><path class="cls-7" d="M191.55,51.32a1.56,1.56,0,1,1,.32-3.11,1.53,1.53,0,0,1,1.38,1.66A1.55,1.55,0,0,1,191.55,51.32Z"/><path class="cls-7" d="M126.68,38.34a1.56,1.56,0,0,1-.07-3.12,1.56,1.56,0,1,1,.07,3.12Z"/><path class="cls-7" d="M100.71,12.38a1.56,1.56,0,0,1-1.53-1.53,1.54,1.54,0,1,1,1.53,1.53Z"/><path class="cls-7" d="M159.16,51.3a1.54,1.54,0,1,1,0-3.08,1.54,1.54,0,1,1,0,3.08Z"/><path class="cls-7" d="M141.22,43.34a1.56,1.56,0,0,1-1.64,1.53,1.54,1.54,0,1,1,.14-3.08A1.55,1.55,0,0,1,141.22,43.34Z"/><path class="cls-7" d="M217.66,44.85a1.53,1.53,0,0,1-.09-3.05,1.53,1.53,0,0,1,1.62,1.54A1.51,1.51,0,0,1,217.66,44.85Z"/><path class="cls-7" d="M196.58,49.72a1.51,1.51,0,0,1,1.55-1.49,1.53,1.53,0,0,1,1.53,1.63,1.54,1.54,0,0,1-3.08-.14Z"/><path class="cls-7" d="M232.13,36.74a1.53,1.53,0,0,1-1.47,1.58,1.54,1.54,0,0,1-.08-3.08A1.54,1.54,0,0,1,232.13,36.74Z"/><path class="cls-7" d="M152.68,48.25a1.54,1.54,0,0,1,1.47,1.58,1.52,1.52,0,0,1-1.61,1.43,1.47,1.47,0,0,1-1.4-1.51A1.49,1.49,0,0,1,152.68,48.25Z"/><path class="cls-7" d="M206.14,49.77a1.47,1.47,0,0,1-1.44,1.48,1.49,1.49,0,1,1,0-3A1.47,1.47,0,0,1,206.14,49.77Z"/><path class="cls-7" d="M94.2,2.79a1.48,1.48,0,0,1,1.43,1.49,1.46,1.46,0,0,1-1.45,1.47,1.51,1.51,0,0,1-1.5-1.54A1.53,1.53,0,0,1,94.2,2.79Z"/><path class="cls-7" d="M133.15,44.81a1.49,1.49,0,1,1,0-3,1.49,1.49,0,0,1,0,3Z"/><path class="cls-7" d="M107.11,25.27a1.47,1.47,0,0,1,.07-2.94,1.54,1.54,0,0,1,1.44,1.51A1.52,1.52,0,0,1,107.11,25.27Z"/><path class="cls-7" d="M224,44.79a1.45,1.45,0,0,1-1.39-1.51,1.47,1.47,0,0,1,1.5-1.42,1.47,1.47,0,0,1-.11,2.93Z"/><path class="cls-7" d="M144.76,49.71a1.44,1.44,0,1,1,1.42,1.5A1.47,1.47,0,0,1,144.76,49.71Z"/><path class="cls-7" d="M115.14,30.34a1.42,1.42,0,0,1-1.44,1.45,1.45,1.45,0,0,1-1.47-1.44,1.44,1.44,0,0,1,1.46-1.44A1.42,1.42,0,0,1,115.14,30.34Z"/><path class="cls-7" d="M212.53,49.81a1.46,1.46,0,0,1-1.51,1.4,1.45,1.45,0,0,1,.1-2.9A1.47,1.47,0,0,1,212.53,49.81Z"/><path class="cls-7" d="M102.12,17.41a1.43,1.43,0,0,1-1.39,1.39,1.43,1.43,0,0,1,0-2.86A1.43,1.43,0,0,1,102.12,17.41Z"/><path class="cls-7" d="M120.18,38.18a1.37,1.37,0,0,1-1.46-1.41,1.39,1.39,0,0,1,1.36-1.4,1.42,1.42,0,0,1,1.47,1.42A1.39,1.39,0,0,1,120.18,38.18Z"/><path class="cls-7" d="M237.16,38.17a1.39,1.39,0,1,1,.06-2.78,1.39,1.39,0,0,1-.06,2.78Z"/><path class="cls-7" d="M173.54,56.36a1.35,1.35,0,0,1-1.42,1.33,1.39,1.39,0,0,1-1.37-1.38,1.41,1.41,0,0,1,1.49-1.4A1.37,1.37,0,0,1,173.54,56.36Z"/><path class="cls-7" d="M180,56.29a1.36,1.36,0,0,1-1.34,1.41,1.4,1.4,0,0,1-1.45-1.43,1.42,1.42,0,0,1,1.42-1.36A1.37,1.37,0,0,1,180,56.29Z"/><path class="cls-7" d="M185.1,57.7a1.4,1.4,0,0,1,0-2.79,1.4,1.4,0,1,1,0,2.79Z"/><path class="cls-7" d="M92.82,10.72A1.38,1.38,0,0,1,94.3,9.45a1.44,1.44,0,0,1,1.25,1.41,1.43,1.43,0,0,1-1.45,1.33A1.36,1.36,0,0,1,92.82,10.72Z"/><path class="cls-7" d="M165.56,57.68a1.38,1.38,0,0,1,.11-2.75,1.38,1.38,0,1,1-.11,2.75Z"/><path class="cls-7" d="M193.05,56.35a1.34,1.34,0,0,1-1.41,1.33,1.39,1.39,0,0,1-1.35-1.41,1.41,1.41,0,0,1,1.43-1.35A1.37,1.37,0,0,1,193.05,56.35Z"/><path class="cls-7" d="M199.45,56.28a1.35,1.35,0,0,1-1.37,1.38,1.39,1.39,0,0,1-1.32-1.33A1.4,1.4,0,0,1,198.15,55,1.35,1.35,0,0,1,199.45,56.28Z"/><path class="cls-7" d="M157.84,56.34A1.37,1.37,0,0,1,159.2,55a1.41,1.41,0,0,1,1.33,1.32,1.38,1.38,0,0,1-1.37,1.39A1.35,1.35,0,0,1,157.84,56.34Z"/><path class="cls-7" d="M128,43.35a1.34,1.34,0,0,1-1.4,1.34,1.41,1.41,0,0,1-1.33-1.32A1.39,1.39,0,0,1,126.66,42,1.32,1.32,0,0,1,128,43.35Z"/><path class="cls-7" d="M139.64,51.12a1.34,1.34,0,0,1-1.34-1.4,1.33,1.33,0,0,1,1.31-1.31A1.4,1.4,0,0,1,141,49.75,1.42,1.42,0,0,1,139.64,51.12Z"/><path class="cls-7" d="M230.67,44.65a1.33,1.33,0,1,1-.1-2.65A1.36,1.36,0,0,1,232,43.34,1.34,1.34,0,0,1,230.67,44.65Z"/><path class="cls-7" d="M219,49.78a1.32,1.32,0,0,1-1.31,1.31,1.33,1.33,0,1,1,.05-2.65A1.3,1.3,0,0,1,219,49.78Z"/><path class="cls-7" d="M151.34,56.3A1.33,1.33,0,0,1,152.65,55a1.32,1.32,0,0,1,0,2.64A1.33,1.33,0,0,1,151.34,56.3Z"/><path class="cls-7" d="M107.11,29a1.32,1.32,0,0,1,.08,2.64,1.32,1.32,0,0,1-.08-2.64Z"/><path class="cls-7" d="M100.71,25.07a1.24,1.24,0,0,1-1.26-1.31,1.26,1.26,0,0,1,1.22-1.24A1.31,1.31,0,0,1,102,23.78,1.28,1.28,0,0,1,100.71,25.07Z"/><path class="cls-7" d="M87.63,5.55a1.25,1.25,0,0,1-1.28-1.3A1.26,1.26,0,0,1,87.56,3a1.28,1.28,0,1,1,.07,2.55Z"/><path class="cls-7" d="M115,36.78a1.29,1.29,0,0,1-1.3,1.3,1.3,1.3,0,0,1,0-2.59A1.27,1.27,0,0,1,115,36.78Z"/><path class="cls-7" d="M205.93,56.33a1.28,1.28,0,0,1-1.32,1.27,1.29,1.29,0,0,1,0-2.58A1.26,1.26,0,0,1,205.93,56.33Z"/><path class="cls-7" d="M222.83,49.8a1.25,1.25,0,0,1,1.27-1.31,1.31,1.31,0,0,1,1.25,1.23,1.28,1.28,0,0,1-1.29,1.3A1.23,1.23,0,0,1,222.83,49.8Z"/><path class="cls-7" d="M131.86,49.74a1.23,1.23,0,0,1,1.21-1.24A1.26,1.26,0,1,1,133,51,1.24,1.24,0,0,1,131.86,49.74Z"/><path class="cls-7" d="M95.4,17.34a1.24,1.24,0,0,1-1.18,1.27,1.28,1.28,0,0,1-1.31-1.27,1.3,1.3,0,0,1,1.25-1.22A1.26,1.26,0,0,1,95.4,17.34Z"/><path class="cls-7" d="M121.36,43.29a1.24,1.24,0,0,1-1.18,1.28,1.28,1.28,0,0,1-1.32-1.27,1.33,1.33,0,0,1,1.26-1.23A1.26,1.26,0,0,1,121.36,43.29Z"/><path class="cls-7" d="M238.4,43.34a1.27,1.27,0,0,1-1.27,1.22,1.24,1.24,0,0,1,0-2.47A1.29,1.29,0,0,1,238.4,43.34Z"/><path class="cls-7" d="M146.15,57.51a1.2,1.2,0,1,1,.16-2.4,1.2,1.2,0,0,1-.16,2.4Z"/><path class="cls-7" d="M211.09,57.51a1.2,1.2,0,1,1,.07-2.4,1.17,1.17,0,0,1,1.15,1.17A1.19,1.19,0,0,1,211.09,57.51Z"/><path class="cls-7" d="M178.59,61.67a1.18,1.18,0,0,1,1.16,1.17,1.2,1.2,0,0,1-1.12,1.21,1.24,1.24,0,0,1-1.23-1.23A1.22,1.22,0,0,1,178.59,61.67Z"/><path class="cls-7" d="M88.78,10.86A1.12,1.12,0,0,1,87.61,12a1.17,1.17,0,0,1-1.17-1.14,1.19,1.19,0,0,1,1.24-1.19A1.15,1.15,0,0,1,88.78,10.86Z"/><path class="cls-7" d="M126.66,50.92a1.2,1.2,0,0,1-1.16-1.16,1.18,1.18,0,0,1,1.17-1.15,1.16,1.16,0,0,1,0,2.31Z"/><path class="cls-7" d="M108.26,36.78a1.12,1.12,0,0,1-1.06,1.14,1.19,1.19,0,0,1-1.2-1.14,1.2,1.2,0,0,1,1.2-1.14A1.14,1.14,0,0,1,108.26,36.78Z"/><path class="cls-7" d="M139.65,55.17a1.19,1.19,0,0,1,1.15,1.19,1.18,1.18,0,0,1-1.14,1.08,1.14,1.14,0,0,1,0-2.27Z"/><path class="cls-7" d="M100.66,29.21a1.14,1.14,0,0,1,.1,2.27,1.14,1.14,0,1,1-.1-2.27Z"/><path class="cls-7" d="M218.76,56.28a1.13,1.13,0,0,1-1,1.16,1.18,1.18,0,0,1-1.23-1.11,1.19,1.19,0,0,1,1.18-1.16A1.13,1.13,0,0,1,218.76,56.28Z"/><path class="cls-7" d="M172.16,61.71a1.12,1.12,0,0,1,1.13,1.16A1.15,1.15,0,0,1,172.14,64,1.21,1.21,0,0,1,171,62.85,1.17,1.17,0,0,1,172.16,61.71Z"/><path class="cls-7" d="M185.09,64A1.17,1.17,0,0,1,184,62.81a1.12,1.12,0,0,1,1.19-1.1,1.17,1.17,0,0,1,1.11,1.19A1.23,1.23,0,0,1,185.09,64Z"/><path class="cls-7" d="M230.62,48.65a1.14,1.14,0,0,1,1.15,1.17,1.18,1.18,0,0,1-1.14,1.07,1.13,1.13,0,0,1-1.13-1.18A1.09,1.09,0,0,1,230.62,48.65Z"/><path class="cls-7" d="M165.58,64a1.11,1.11,0,0,1-1.09-1.1,1.09,1.09,0,0,1,1.15-1.14,1.12,1.12,0,1,1-.06,2.24Z"/><path class="cls-7" d="M191.71,61.74a1.09,1.09,0,0,1,1.09,1.09A1.11,1.11,0,0,1,191.65,64a1.16,1.16,0,0,1-1.11-1.09A1.14,1.14,0,0,1,191.71,61.74Z"/><path class="cls-7" d="M160.29,62.9a1.09,1.09,0,0,1-1.13,1,1.09,1.09,0,1,1,.09-2.17A1.09,1.09,0,0,1,160.29,62.9Z"/><path class="cls-7" d="M113.72,44.39a1.05,1.05,0,0,1-1.11-1,1.08,1.08,0,0,1,2.16-.06A1,1,0,0,1,113.72,44.39Z"/><path class="cls-7" d="M95.25,23.79a1.09,1.09,0,1,1-1.09-1.06A1.08,1.08,0,0,1,95.25,23.79Z"/><path class="cls-7" d="M199.2,62.86a1.09,1.09,0,1,1-1.08-1.07A1.06,1.06,0,0,1,199.2,62.86Z"/><path class="cls-7" d="M80.15,4.24a1,1,0,0,1,1-1,1,1,0,1,1-.06,2.09A1,1,0,0,1,80.15,4.24Z"/><path class="cls-7" d="M134.15,56.34a1.09,1.09,0,0,1-1,1,1,1,0,0,1-1-1.13,1,1,0,0,1,1.08-.93A1.06,1.06,0,0,1,134.15,56.34Z"/><path class="cls-7" d="M88.67,17.37a1.07,1.07,0,0,1-1,1,1,1,0,0,1-1-1,1,1,0,0,1,1-1.1A1.09,1.09,0,0,1,88.67,17.37Z"/><path class="cls-7" d="M152.6,61.82a1.08,1.08,0,0,1,1.08,1,1,1,0,0,1-1.06,1.09,1,1,0,0,1-1-1A1,1,0,0,1,152.6,61.82Z"/><path class="cls-7" d="M205.68,62.91a1,1,0,0,1-1.05,1,1.06,1.06,0,0,1-1-1,1.08,1.08,0,0,1,1.13-1A1,1,0,0,1,205.68,62.91Z"/><path class="cls-7" d="M120.11,50.77a1.06,1.06,0,0,1-1-1,1.08,1.08,0,0,1,1-1,1,1,0,0,1,1,1A1,1,0,0,1,120.11,50.77Z"/><path class="cls-7" d="M237.14,48.76a1.05,1.05,0,0,1,1,.92,1,1,0,1,1-2,.16A1,1,0,0,1,237.14,48.76Z"/><path class="cls-7" d="M225.09,56.34a1,1,0,0,1-1.07,1,1,1,0,0,1-.94-1.08,1,1,0,0,1,1-.9A1,1,0,0,1,225.09,56.34Z"/><path class="cls-7" d="M146.16,61.89a1,1,0,0,1,1,.91,1,1,0,0,1-.86,1,1,1,0,1,1-.12-1.93Z"/><path class="cls-7" d="M212.06,62.84a1,1,0,0,1-.92,1,1,1,0,1,1,0-1.93A1,1,0,0,1,212.06,62.84Z"/><path class="cls-7" d="M81.16,9.9a.92.92,0,0,1,.1,1.84.92.92,0,1,1-.1-1.84Z"/><path class="cls-7" d="M100.67,35.86a.92.92,0,0,1,.13,1.84,1,1,0,0,1-1-.86A.94.94,0,0,1,100.67,35.86Z"/><path class="cls-7" d="M94.2,31.25a.9.9,0,0,1-.92-.82.92.92,0,0,1,.86-1,1,1,0,0,1,.94.82A.94.94,0,0,1,94.2,31.25Z"/><path class="cls-7" d="M127.55,56.28a.89.89,0,0,1-.8.93.91.91,0,1,1,0-1.81A.9.9,0,0,1,127.55,56.28Z"/><path class="cls-7" d="M177.68,69.27a.92.92,0,0,1,.9-.86.88.88,0,1,1,0,1.76A.92.92,0,0,1,177.68,69.27Z"/><path class="cls-7" d="M107.2,44.22a.94.94,0,0,1-1-.8.91.91,0,0,1,.9-1,.85.85,0,0,1,.89.85A.87.87,0,0,1,107.2,44.22Z"/><path class="cls-7" d="M230.6,57.19a.88.88,0,0,1,0-1.76.88.88,0,0,1,0,1.76Z"/><path class="cls-7" d="M173,69.39a.84.84,0,0,1-1,.74.85.85,0,1,1,.22-1.69A.84.84,0,0,1,173,69.39Z"/><path class="cls-7" d="M140.52,62.89a.86.86,0,0,1-.9.81.85.85,0,1,1,.06-1.69A.85.85,0,0,1,140.52,62.89Z"/><path class="cls-7" d="M186,69.32a.88.88,0,0,1-.91.82.85.85,0,1,1,.91-.82Z"/><path class="cls-7" d="M217.7,63.67a.78.78,0,0,1-.87-.71.81.81,0,0,1,.77-.93.85.85,0,0,1,.89.83A.83.83,0,0,1,217.7,63.67Z"/><path class="cls-7" d="M87.62,24.62a.79.79,0,0,1-.82-.77.8.8,0,0,1,.83-.87.82.82,0,1,1,0,1.64Z"/><path class="cls-7" d="M114.52,49.77a.8.8,0,0,1-.79.81.83.83,0,0,1-.88-.83.84.84,0,0,1,.91-.81A.81.81,0,0,1,114.52,49.77Z"/><path class="cls-7" d="M166.43,69.33a.79.79,0,0,1-.81.78.82.82,0,1,1,.08-1.64A.79.79,0,0,1,166.43,69.33Z"/><path class="cls-7" d="M192.52,69.34a.83.83,0,0,1-1,.76.79.79,0,0,1-.7-.87.8.8,0,0,1,.82-.77A.83.83,0,0,1,192.52,69.34Z"/><path class="cls-7" d="M160,69.26a.76.76,0,0,1-.76.82.83.83,0,0,1-.84-.77.85.85,0,0,1,.79-.83A.78.78,0,0,1,160,69.26Z"/><path class="cls-7" d="M198.06,70.08a.77.77,0,0,1-.73-.85.78.78,0,0,1,.85-.75.85.85,0,0,1,.75.86A.83.83,0,0,1,198.06,70.08Z"/><path class="cls-7" d="M75.4,4.28a.77.77,0,0,1-1.54,0,.82.82,0,0,1,.76-.83A.8.8,0,0,1,75.4,4.28Z"/><path class="cls-7" d="M82.18,17.3c-.41.36-.63.68-.92.79s-.83-.3-.81-.72.31-.77.71-.72S81.73,17,82.18,17.3Z"/><path class="cls-7" d="M153.62,69.28c-.42.33-.66.64-1,.73s-.8-.36-.76-.77a.66.66,0,0,1,.75-.68C153,68.62,153.19,69,153.62,69.28Z"/><path class="cls-7" d="M134.1,62.92c-.45.3-.72.61-1,.65s-.69-.26-.71-.7.42-.88.8-.74S133.69,62.56,134.1,62.92Z"/><path class="cls-7" d="M120.86,56.39a.73.73,0,1,1-.69-.8A.73.73,0,0,1,120.86,56.39Z"/><path class="cls-7" d="M224.76,62.9c0,.39-.42.78-.75.63a1.23,1.23,0,0,1-.62-.67c-.12-.34.31-.71.7-.7A.69.69,0,0,1,224.76,62.9Z"/><path class="cls-7" d="M205.66,69.3a4,4,0,0,1-1,.67c-.36.08-.67-.35-.64-.75s.31-.67.67-.6S205.2,69,205.66,69.3Z"/><path class="cls-7" d="M237.85,56.36c0,.41-.4.76-.76.61a1.14,1.14,0,0,1-.6-.67c-.11-.35.32-.7.7-.69A.68.68,0,0,1,237.85,56.36Z"/><path class="cls-7" d="M95.08,36.73c-.38.32-.59.61-.85.69s-.64-.16-.71-.55.27-.82.64-.74A4.09,4.09,0,0,1,95.08,36.73Z"/><path class="cls-7" d="M88.52,30.34c-.43.3-.66.58-.92.61a.51.51,0,0,1-.57-.64c.06-.23.37-.56.56-.55S88.08,30,88.52,30.34Z"/><path class="cls-7" d="M101.38,43.51c-.17.12-.39.39-.66.44s-.66-.21-.67-.61a.58.58,0,0,1,.64-.64C101.1,42.69,101.33,42.9,101.38,43.51Z"/><path class="cls-7" d="M211.27,69.91c-.59-.06-.87-.29-.76-.68a.88.88,0,0,1,.59-.52.49.49,0,0,1,.58.63C211.64,69.58,211.37,69.77,211.27,69.91Z"/><path class="cls-7" d="M147.15,69.31c-.51.28-.77.55-1,.53a.74.74,0,0,1-.51-.57.79.79,0,0,1,.54-.55C146.41,68.72,146.66,69,147.15,69.31Z"/><path class="cls-7" d="M108.09,49.77c-.49.29-.76.56-1,.55a.76.76,0,0,1-.51-.57.74.74,0,0,1,.53-.55C107.35,49.19,107.6,49.47,108.09,49.77Z"/><path class="cls-7" d="M74.69,10c.24.41.51.66.47.86s-.36.37-.55.55c-.19-.2-.5-.39-.52-.61S74.39,10.38,74.69,10Z"/><path class="cls-7" d="M230.51,62.1c.3.31.54.46.6.66a.43.43,0,0,1-.44.6.71.71,0,0,1-.54-.41C230.11,62.73,230.33,62.49,230.51,62.1Z"/><path class="cls-7" d="M126.71,62.09c.23.37.46.6.46.82s-.32.32-.5.48c-.17-.2-.44-.37-.48-.6S126.45,62.43,126.71,62.09Z"/><path class="cls-7" d="M81.16,24.56c-.24-.36-.51-.6-.46-.74s.35-.37.54-.55c.16.17.47.36.46.52S81.42,24.22,81.16,24.56Z"/><path class="cls-7" d="M140.36,69.26c-.35.24-.54.46-.74.48s-.39-.28-.4-.43.24-.48.36-.47S140,69.05,140.36,69.26Z"/><path class="cls-7" d="M217.56,68.63c.25.27.52.45.5.57s-.26.38-.4.57c-.16-.13-.45-.26-.46-.4S217.39,69,217.56,68.63Z"/><path class="cls-7" d="M113.69,55.66c.21.3.43.47.45.67s-.31.43-.4.4a.8.8,0,0,1-.47-.45C113.23,56.16,113.48,56,113.69,55.66Z"/><path class="cls-7" d="M172.73,75.9c-.24.16-.45.4-.56.36s-.33-.31-.49-.48c.19-.13.37-.34.58-.37S172.53,75.68,172.73,75.9Z"/><path class="cls-7" d="M179.17,75.9c-.25.16-.46.4-.57.36s-.33-.31-.49-.48c.2-.13.38-.34.58-.37S179,75.68,179.17,75.9Z"/><path class="cls-7" d="M185.15,75.19c.2.3.42.48.43.68s-.32.42-.41.39a.85.85,0,0,1-.46-.47C184.68,75.68,184.93,75.48,185.15,75.19Z"/><path class="cls-7" d="M165.58,76.4c-.17-.26-.37-.44-.35-.59s.27-.27.41-.4c.13.15.36.3.37.45S165.78,76.16,165.58,76.4Z"/><path class="cls-7" d="M191.72,75.27c.16.26.36.44.34.59s-.26.26-.41.39c-.13-.15-.36-.29-.36-.44S191.52,75.5,191.72,75.27Z"/><path class="cls-7" d="M68.68,4.37c-.26.1-.42.22-.56.2s-.28-.25-.25-.29S68.1,4,68.23,4,68.47,4.16,68.68,4.37Z"/><path class="cls-7" d="M120.6,62.9c-.25.13-.39.26-.54.26s-.29-.23-.27-.27.2-.33.34-.35S120.37,62.72,120.6,62.9Z"/><path class="cls-7" d="M94.2,43.8c-.18-.22-.38-.37-.36-.48s.22-.25.37-.31.26.18.26.27S94.34,43.56,94.2,43.8Z"/><path class="cls-7" d="M198.62,75.89c-.26.13-.44.3-.56.26s-.22-.26-.24-.41.23-.26.31-.24S198.4,75.7,198.62,75.89Z"/><path class="cls-7" d="M74.78,17a1.16,1.16,0,0,1,.16.45c0,.09-.24.26-.3.24a.62.62,0,0,1-.33-.35c0-.16.12-.33.19-.5Z"/><path class="cls-7" d="M133.6,69.23c-.23.18-.34.34-.49.37s-.31-.16-.3-.22.13-.37.24-.4S133.34,69.1,133.6,69.23Z"/><path class="cls-7" d="M159.14,76.33c-.15-.26-.32-.42-.29-.54s.25-.23.41-.27.24.22.23.31S159.31,76.1,159.14,76.33Z"/><path class="cls-7" d="M100.66,49.34c.17.21.33.32.31.42s-.17.21-.29.26-.21-.13-.21-.21A1.6,1.6,0,0,1,100.66,49.34Z"/><path class="cls-7" d="M87.57,37.06c-.08-.1-.21-.21-.19-.24a1.14,1.14,0,0,1,.26-.28,3.71,3.71,0,0,0,.23.32Z"/></g><g class="cls-6"><path class="cls-7" d="M36.49,346.93a2.42,2.42,0,0,1-2.27-2.64,2.39,2.39,0,0,1,2.58-2.2A2.44,2.44,0,0,1,39,344.65,2.47,2.47,0,0,1,36.49,346.93Z"/><path class="cls-7" d="M27.79,344.49a2.36,2.36,0,0,1,2.41-2.39,2.42,2.42,0,0,1,2.41,2.41,2.45,2.45,0,0,1-2.44,2.4A2.38,2.38,0,0,1,27.79,344.49Z"/><path class="cls-7" d="M45.55,344.53a2.4,2.4,0,0,1-2.42,2.39,2.48,2.48,0,0,1-2.4-2.45,2.43,2.43,0,0,1,2.46-2.37A2.36,2.36,0,0,1,45.55,344.53Z"/><path class="cls-7" d="M23.63,342.13a2.37,2.37,0,0,1,.07,4.74,2.37,2.37,0,1,1-.07-4.74Z"/><path class="cls-7" d="M47.33,344.51a2.34,2.34,0,0,1,2.4-2.38,2.38,2.38,0,1,1,0,4.75A2.35,2.35,0,0,1,47.33,344.51Z"/><path class="cls-7" d="M17.24,346.83a2.34,2.34,0,1,1,2.32-2.34A2.33,2.33,0,0,1,17.24,346.83Z"/><path class="cls-7" d="M56.16,346.82a2.33,2.33,0,1,1,2.31-2.31A2.28,2.28,0,0,1,56.16,346.82Z"/><path class="cls-7" d="M13,344.45a2.26,2.26,0,0,1-2.28,2.35,2.32,2.32,0,0,1-2.34-2.31,2.35,2.35,0,0,1,2.24-2.3A2.29,2.29,0,0,1,13,344.45Z"/><path class="cls-7" d="M60.41,344.55a2.26,2.26,0,0,1,2.29-2.35,2.3,2.3,0,1,1,0,4.59A2.25,2.25,0,0,1,60.41,344.55Z"/><path class="cls-7" d="M38.88,338a2.24,2.24,0,0,1-2.28,2.33,2.29,2.29,0,1,1,0-4.58A2.27,2.27,0,0,1,38.88,338Z"/><path class="cls-7" d="M30.17,340.35a2.29,2.29,0,1,1,.08-4.57,2.29,2.29,0,0,1-.08,4.57Z"/><path class="cls-7" d="M45.45,338.09a2.32,2.32,0,0,1-2.29,2.26,2.29,2.29,0,1,1,.06-4.57A2.33,2.33,0,0,1,45.45,338.09Z"/><path class="cls-7" d="M25.89,338a2.29,2.29,0,0,1-2.2,2.32,2.27,2.27,0,0,1-.11-4.53A2.3,2.3,0,0,1,25.89,338Z"/><path class="cls-7" d="M52,338.06a2.26,2.26,0,0,1-2.24,2.27A2.27,2.27,0,1,1,52,338.06Z"/><path class="cls-7" d="M6.46,344.49a2.26,2.26,0,0,1-2.25,2.26,2.26,2.26,0,0,1,0-4.51A2.28,2.28,0,0,1,6.46,344.49Z"/><path class="cls-7" d="M19.42,338.12a2.25,2.25,0,0,1-2.21,2.19,2.25,2.25,0,0,1,0-4.49A2.25,2.25,0,0,1,19.42,338.12Z"/><path class="cls-7" d="M69.14,346.74a2.26,2.26,0,0,1-2.25-2.28,2.29,2.29,0,0,1,2.21-2.21,2.25,2.25,0,0,1,0,4.49Z"/><path class="cls-7" d="M56.1,340.3a2.23,2.23,0,0,1,.08-4.46,2.23,2.23,0,0,1-.08,4.46Z"/><path class="cls-7" d="M8.49,338a2.14,2.14,0,0,1,2.25-2.09,2.19,2.19,0,0,1,2.11,2.25,2.22,2.22,0,0,1-2.27,2.1A2.16,2.16,0,0,1,8.49,338Z"/><path class="cls-7" d="M62.68,335.92a2.11,2.11,0,0,1,2.16,2.17,2.13,2.13,0,0,1-2.09,2.14,2.21,2.21,0,0,1-2.25-2.12A2.18,2.18,0,0,1,62.68,335.92Z"/><path class="cls-7" d="M38.77,331.57a2.19,2.19,0,0,1-2.27,2.1,2.16,2.16,0,0,1,.22-4.31A2.21,2.21,0,0,1,38.77,331.57Z"/><path class="cls-7" d="M75.7,346.64a2.14,2.14,0,1,1-.07-4.28,2.14,2.14,0,1,1,.07,4.28Z"/><path class="cls-7" d="M32.32,331.56a2.17,2.17,0,0,1-2.15,2.1,2.15,2.15,0,1,1,.08-4.29A2.19,2.19,0,0,1,32.32,331.56Z"/><path class="cls-7" d="M43.22,333.66A2.16,2.16,0,0,1,41,331.6a2.18,2.18,0,0,1,2.14-2.23,2.15,2.15,0,0,1,0,4.29Z"/><path class="cls-7" d="M23.58,329.38a2.16,2.16,0,0,1,2.17,2.06,2.12,2.12,0,1,1-4.23.11A2.16,2.16,0,0,1,23.58,329.38Z"/><path class="cls-7" d="M4.25,336a2.11,2.11,0,1,1-.06,4.21A2.11,2.11,0,1,1,4.25,336Z"/><path class="cls-7" d="M71.23,338.06a2.09,2.09,0,0,1-2.1,2.1,2.1,2.1,0,0,1,0-4.19A2.11,2.11,0,0,1,71.23,338.06Z"/><path class="cls-7" d="M51.8,331.47a2.12,2.12,0,0,1-2,2.17,2.12,2.12,0,0,1-.11-4.24A2.12,2.12,0,0,1,51.8,331.47Z"/><path class="cls-7" d="M19.3,331.54a2.14,2.14,0,0,1-2.17,2.07,2.07,2.07,0,0,1-2-2.11,2.05,2.05,0,0,1,2.14-2.06A2.12,2.12,0,0,1,19.3,331.54Z"/><path class="cls-7" d="M82.09,342.43a2.07,2.07,0,0,1,0,4.13,2.07,2.07,0,1,1,0-4.13Z"/><path class="cls-7" d="M56.11,333.6a2.12,2.12,0,0,1-2-2.17,2.09,2.09,0,0,1,2.11-2,2,2,0,0,1,2,2.15A2.07,2.07,0,0,1,56.11,333.6Z"/><path class="cls-7" d="M77.69,338.09a2,2,0,0,1-2,2,2,2,0,1,1,0-4.09A2.05,2.05,0,0,1,77.69,338.09Z"/><path class="cls-7" d="M64.73,331.46a2,2,0,0,1-2,2.07,2,2,0,1,1-.11-4A2,2,0,0,1,64.73,331.46Z"/><path class="cls-7" d="M12.68,331.54a2,2,0,0,1-2,2,2,2,0,1,1,0-4A2,2,0,0,1,12.68,331.54Z"/><path class="cls-7" d="M36.63,323.11a2,2,0,1,1-.09,3.95,2,2,0,0,1,.09-3.95Z"/><path class="cls-7" d="M45.12,325a1.91,1.91,0,0,1-1.88,2,2,2,0,1,1-.1-3.93A1.93,1.93,0,0,1,45.12,325Z"/><path class="cls-7" d="M6.21,331.5a2,2,0,0,1-1.94,2,1.92,1.92,0,0,1-2-1.89,1.94,1.94,0,0,1,2-2A2,2,0,0,1,6.21,331.5Z"/><path class="cls-7" d="M30.13,323.12a2,2,0,1,1,.05,3.93,2,2,0,0,1-.05-3.93Z"/><path class="cls-7" d="M90.59,344.53a2,2,0,0,1-2,2,2,2,0,0,1-1.94-2,2,2,0,0,1,2-1.93A1.94,1.94,0,0,1,90.59,344.53Z"/><path class="cls-7" d="M71.06,331.48a1.9,1.9,0,0,1-1.91,2,2,2,0,0,1-2-1.91,2,2,0,0,1,1.94-2A1.92,1.92,0,0,1,71.06,331.48Z"/><path class="cls-7" d="M49.65,327a1.92,1.92,0,0,1-1.89-2,1.94,1.94,0,0,1,2-1.91,2,2,0,1,1-.12,3.92Z"/><path class="cls-7" d="M25.58,325.11a1.92,1.92,0,0,1-2,1.93,2,2,0,0,1-1.95-2,2,2,0,0,1,2-1.95A1.93,1.93,0,0,1,25.58,325.11Z"/><path class="cls-7" d="M82.08,340a1.93,1.93,0,0,1-1.91-2,1.89,1.89,0,0,1,1.9-1.88,1.95,1.95,0,1,1,0,3.89Z"/><path class="cls-7" d="M19.12,325.06a1.93,1.93,0,0,1-1.95,2,1.94,1.94,0,1,1,.06-3.87A1.94,1.94,0,0,1,19.12,325.06Z"/><path class="cls-7" d="M56.1,323.15a1.94,1.94,0,1,1,.08,3.87,1.94,1.94,0,0,1-.08-3.87Z"/><path class="cls-7" d="M77.56,331.47a1.9,1.9,0,1,1-2-1.86A1.93,1.93,0,0,1,77.56,331.47Z"/><path class="cls-7" d="M10.7,327a1.94,1.94,0,0,1-1.93-1.85A1.88,1.88,0,1,1,10.7,327Z"/><path class="cls-7" d="M64.57,325.08A1.91,1.91,0,0,1,62.7,327a1.9,1.9,0,0,1,0-3.79A1.92,1.92,0,0,1,64.57,325.08Z"/><path class="cls-7" d="M95.22,346.34a1.84,1.84,0,0,1-1.89-1.86,1.87,1.87,0,0,1,1.83-1.83,1.85,1.85,0,0,1,.06,3.69Z"/><path class="cls-7" d="M90.5,338.09a1.86,1.86,0,0,1-1.85,1.81,1.84,1.84,0,1,1,0-3.67A1.88,1.88,0,0,1,90.5,338.09Z"/><path class="cls-7" d="M38.42,318.55a1.79,1.79,0,0,1-1.79,1.82,1.84,1.84,0,1,1,0-3.67A1.82,1.82,0,0,1,38.42,318.55Z"/><path class="cls-7" d="M6,325.05a1.79,1.79,0,0,1-1.77,1.86,1.86,1.86,0,0,1-1.88-1.79,1.84,1.84,0,0,1,1.8-1.84A1.77,1.77,0,0,1,6,325.05Z"/><path class="cls-7" d="M30.19,316.72a1.82,1.82,0,0,1,0,3.64,1.82,1.82,0,0,1,0-3.64Z"/><path class="cls-7" d="M43.19,316.72a1.82,1.82,0,1,1-.06,3.64,1.82,1.82,0,0,1,.06-3.64Z"/><path class="cls-7" d="M82.09,333.32a1.83,1.83,0,0,1-1.82-1.81,1.81,1.81,0,0,1,1.83-1.78,1.8,1.8,0,1,1,0,3.59Z"/><path class="cls-7" d="M23.77,316.73a1.81,1.81,0,1,1-.33,3.61,1.81,1.81,0,0,1,.33-3.61Z"/><path class="cls-7" d="M49.75,316.73a1.81,1.81,0,1,1-.14,3.62,1.81,1.81,0,0,1,.14-3.62Z"/><path class="cls-7" d="M69.17,323.3A1.81,1.81,0,0,1,71,325.13a1.83,1.83,0,0,1-1.87,1.76A1.78,1.78,0,0,1,67.32,325,1.75,1.75,0,0,1,69.17,323.3Z"/><path class="cls-7" d="M17.24,320.32a1.78,1.78,0,1,1,0-3.56,1.78,1.78,0,0,1,0,3.56Z"/><path class="cls-7" d="M57.9,318.57a1.81,1.81,0,0,1-1.79,1.74,1.77,1.77,0,0,1,.07-3.53A1.79,1.79,0,0,1,57.9,318.57Z"/><path class="cls-7" d="M75.66,323.35a1.77,1.77,0,0,1,1.76,1.72,1.75,1.75,0,0,1-1.73,1.74A1.69,1.69,0,0,1,74,325.1,1.71,1.71,0,0,1,75.66,323.35Z"/><path class="cls-7" d="M88.61,329.8a1.72,1.72,0,0,1,1.73,1.63,1.7,1.7,0,0,1-1.66,1.8,1.75,1.75,0,0,1-1.76-1.73A1.77,1.77,0,0,1,88.61,329.8Z"/><path class="cls-7" d="M12.39,318.51a1.78,1.78,0,0,1-1.73,1.76A1.72,1.72,0,0,1,9,318.63a1.68,1.68,0,0,1,1.65-1.8A1.75,1.75,0,0,1,12.39,318.51Z"/><path class="cls-7" d="M101.66,346.23a1.71,1.71,0,0,1-1.74-1.73,1.67,1.67,0,0,1,1.62-1.71,1.74,1.74,0,0,1,1.82,1.65A1.77,1.77,0,0,1,101.66,346.23Z"/><path class="cls-7" d="M95.18,339.79A1.7,1.7,0,0,1,93.49,338a1.66,1.66,0,0,1,1.67-1.66,1.74,1.74,0,0,1,1.77,1.7A1.77,1.77,0,0,1,95.18,339.79Z"/><path class="cls-7" d="M64.38,318.58a1.67,1.67,0,0,1-1.68,1.66,1.7,1.7,0,1,1,.08-3.39A1.66,1.66,0,0,1,64.38,318.58Z"/><path class="cls-7" d="M83.76,325.1a1.66,1.66,0,1,1-1.68-1.69A1.71,1.71,0,0,1,83.76,325.1Z"/><path class="cls-7" d="M5.88,318.5a1.62,1.62,0,0,1-1.65,1.68,1.64,1.64,0,0,1-.08-3.28A1.63,1.63,0,0,1,5.88,318.5Z"/><path class="cls-7" d="M38.24,312a1.66,1.66,0,0,1-1.67,1.68,1.66,1.66,0,0,1,.08-3.31A1.66,1.66,0,0,1,38.24,312Z"/><path class="cls-7" d="M31.79,312a1.62,1.62,0,0,1-1.6,1.59,1.64,1.64,0,1,1,0-3.27A1.62,1.62,0,0,1,31.79,312Z"/><path class="cls-7" d="M43.12,310.36A1.66,1.66,0,0,1,44.8,312a1.68,1.68,0,0,1-1.59,1.62,1.64,1.64,0,0,1-.09-3.27Z"/><path class="cls-7" d="M70.77,318.57a1.64,1.64,0,0,1-1.73,1.6,1.63,1.63,0,1,1,.17-3.26A1.64,1.64,0,0,1,70.77,318.57Z"/><path class="cls-7" d="M49.73,310.39A1.57,1.57,0,0,1,51.3,312a1.61,1.61,0,0,1-1.56,1.62,1.66,1.66,0,0,1-1.66-1.67A1.64,1.64,0,0,1,49.73,310.39Z"/><path class="cls-7" d="M25.26,312a1.66,1.66,0,0,1-1.64,1.57A1.61,1.61,0,0,1,22,311.9a1.58,1.58,0,0,1,1.67-1.51A1.63,1.63,0,0,1,25.26,312Z"/><path class="cls-7" d="M103.2,338.09a1.56,1.56,0,0,1-1.6,1.57,1.64,1.64,0,0,1-1.59-1.61,1.66,1.66,0,0,1,1.63-1.59A1.58,1.58,0,0,1,103.2,338.09Z"/><path class="cls-7" d="M95.19,329.94a1.54,1.54,0,0,1,1.58,1.58,1.56,1.56,0,0,1-1.58,1.59,1.59,1.59,0,1,1,0-3.17Z"/><path class="cls-7" d="M108.12,342.91a1.59,1.59,0,1,1,0,3.17,1.59,1.59,0,0,1-1.57-1.5A1.6,1.6,0,0,1,108.12,342.91Z"/><path class="cls-7" d="M77.23,318.59a1.56,1.56,0,0,1-1.65,1.53,1.59,1.59,0,0,1,.11-3.17A1.59,1.59,0,0,1,77.23,318.59Z"/><path class="cls-7" d="M18.8,312a1.61,1.61,0,0,1-1.59,1.61,1.57,1.57,0,0,1-.07-3.13A1.6,1.6,0,0,1,18.8,312Z"/><path class="cls-7" d="M57.71,312a1.54,1.54,0,0,1-1.64,1.52,1.56,1.56,0,0,1,.08-3.12A1.54,1.54,0,0,1,57.71,312Z"/><path class="cls-7" d="M88.69,323.56a1.53,1.53,0,0,1,0,3.05,1.53,1.53,0,1,1,0-3.05Z"/><path class="cls-7" d="M62.73,310.48a1.51,1.51,0,1,1-.09,3A1.51,1.51,0,0,1,61.15,312,1.53,1.53,0,0,1,62.73,310.48Z"/><path class="cls-7" d="M10.64,310.48a1.51,1.51,0,1,1,0,3,1.51,1.51,0,1,1,0-3Z"/><path class="cls-7" d="M4.25,310.51a1.48,1.48,0,1,1-.1,3,1.48,1.48,0,0,1,.1-3Z"/><path class="cls-7" d="M82.06,320a1.44,1.44,0,0,1-1.42-1.48,1.42,1.42,0,0,1,1.44-1.45,1.47,1.47,0,1,1,0,2.93Z"/><path class="cls-7" d="M69.09,313.46a1.47,1.47,0,0,1,.06-2.94A1.48,1.48,0,0,1,70.57,312,1.47,1.47,0,0,1,69.09,313.46Z"/><path class="cls-7" d="M101.58,333a1.44,1.44,0,0,1-1.4-1.5,1.47,1.47,0,0,1,1.49-1.43,1.47,1.47,0,0,1-.09,2.93Z"/><path class="cls-7" d="M31.62,305.67a1.44,1.44,0,1,1-1.36-1.56A1.48,1.48,0,0,1,31.62,305.67Z"/><path class="cls-7" d="M108.22,339.5a1.44,1.44,0,1,1-.09-2.87,1.44,1.44,0,1,1,.09,2.87Z"/><path class="cls-7" d="M44.6,305.58a1.44,1.44,0,1,1-1.45-1.47A1.46,1.46,0,0,1,44.6,305.58Z"/><path class="cls-7" d="M38.05,305.51a1.44,1.44,0,1,1-1.51-1.4A1.48,1.48,0,0,1,38.05,305.51Z"/><path class="cls-7" d="M22.22,305.55A1.42,1.42,0,1,1,23.57,307,1.45,1.45,0,0,1,22.22,305.55Z"/><path class="cls-7" d="M96.6,325a1.43,1.43,0,0,1-1.42,1.48,1.44,1.44,0,0,1,0-2.87A1.44,1.44,0,0,1,96.6,325Z"/><path class="cls-7" d="M51.12,305.52A1.43,1.43,0,0,1,49.69,307a1.43,1.43,0,0,1,0-2.86A1.44,1.44,0,0,1,51.12,305.52Z"/><path class="cls-7" d="M116,344.45a1.41,1.41,0,0,1-1.32,1.45,1.41,1.41,0,1,1-.2-2.81A1.42,1.42,0,0,1,116,344.45Z"/><path class="cls-7" d="M15.84,305.57a1.33,1.33,0,0,1,1.36-1.38,1.4,1.4,0,0,1,1.4,1.37A1.43,1.43,0,0,1,17.21,307,1.36,1.36,0,0,1,15.84,305.57Z"/><path class="cls-7" d="M75.72,310.62A1.34,1.34,0,0,1,77,312.05a1.36,1.36,0,0,1-1.42,1.33,1.43,1.43,0,0,1-1.34-1.44A1.41,1.41,0,0,1,75.72,310.62Z"/><path class="cls-7" d="M88.63,319.91a1.37,1.37,0,0,1,0-2.74,1.37,1.37,0,1,1,0,2.74Z"/><path class="cls-7" d="M56.14,304.19a1.34,1.34,0,0,1,1.37,1.37A1.37,1.37,0,0,1,56.14,307a1.44,1.44,0,0,1-1.4-1.39A1.4,1.4,0,0,1,56.14,304.19Z"/><path class="cls-7" d="M12,305.51a1.29,1.29,0,0,1-1.25,1.35A1.31,1.31,0,1,1,12,305.51Z"/><path class="cls-7" d="M62.73,306.86a1.29,1.29,0,0,1-1.36-1.23,1.33,1.33,0,1,1,1.36,1.23Z"/><path class="cls-7" d="M108.13,332.81a1.29,1.29,0,1,1,.08-2.58,1.29,1.29,0,0,1-.08,2.58Z"/><path class="cls-7" d="M82.07,310.72a1.27,1.27,0,1,1,0,2.54,1.22,1.22,0,0,1-1.24-1.2A1.24,1.24,0,0,1,82.07,310.72Z"/><path class="cls-7" d="M115.87,338.11a1.28,1.28,0,0,1-1.34,1.25,1.34,1.34,0,0,1-1.22-1.27,1.31,1.31,0,0,1,1.3-1.31A1.27,1.27,0,0,1,115.87,338.11Z"/><path class="cls-7" d="M101.58,326.36a1.28,1.28,0,0,1,0-2.55,1.28,1.28,0,1,1,0,2.55Z"/><path class="cls-7" d="M4.24,306.82A1.22,1.22,0,0,1,3,305.63a1.24,1.24,0,0,1,1.23-1.33,1.26,1.26,0,1,1,0,2.52Z"/><path class="cls-7" d="M70.35,305.56a1.24,1.24,0,0,1-1.21,1.25,1.25,1.25,0,1,1,0-2.5A1.26,1.26,0,0,1,70.35,305.56Z"/><path class="cls-7" d="M119.92,344.55a1.19,1.19,0,0,1,1.19-1.27,1.23,1.23,0,1,1,.09,2.45A1.22,1.22,0,0,1,119.92,344.55Z"/><path class="cls-7" d="M94,318.59a1.19,1.19,0,0,1,1.19-1.27,1.23,1.23,0,1,1,.09,2.45A1.22,1.22,0,0,1,94,318.59Z"/><path class="cls-7" d="M36.58,300.21a1.2,1.2,0,1,1,.13-2.39,1.2,1.2,0,0,1-.13,2.39Z"/><path class="cls-7" d="M43.14,297.83a1.19,1.19,0,0,1,1.22,1.22,1.17,1.17,0,0,1-1.18,1.14A1.15,1.15,0,0,1,42,299,1.17,1.17,0,0,1,43.14,297.83Z"/><path class="cls-7" d="M30.23,300.19A1.18,1.18,0,1,1,31.37,299,1.15,1.15,0,0,1,30.23,300.19Z"/><path class="cls-7" d="M89.83,312a1.22,1.22,0,0,1-1.13,1.21,1.19,1.19,0,1,1,0-2.37A1.2,1.2,0,0,1,89.83,312Z"/><path class="cls-7" d="M50.87,299.07a1.12,1.12,0,0,1-1.19,1.1A1.15,1.15,0,0,1,48.53,299a1.18,1.18,0,0,1,1.26-1.17A1.15,1.15,0,0,1,50.87,299.07Z"/><path class="cls-7" d="M23.64,297.85a1.17,1.17,0,1,1-.07,2.33,1.17,1.17,0,0,1,.07-2.33Z"/><path class="cls-7" d="M17.2,297.86A1.19,1.19,0,0,1,18.37,299a1.17,1.17,0,0,1-1.16,1.15A1.1,1.1,0,0,1,16.07,299,1.12,1.12,0,0,1,17.2,297.86Z"/><path class="cls-7" d="M57.26,299.06a1.13,1.13,0,0,1-1.11,1.09A1.18,1.18,0,0,1,55,299a1.2,1.2,0,0,1,1.14-1.1A1.14,1.14,0,0,1,57.26,299.06Z"/><path class="cls-7" d="M76.8,305.52a1.15,1.15,0,0,1-1.1,1.2,1.22,1.22,0,0,1-1.2-1.12,1.18,1.18,0,0,1,1.12-1.18A1.11,1.11,0,0,1,76.8,305.52Z"/><path class="cls-7" d="M114.55,330.41a1.14,1.14,0,0,1,1.2,1.11,1.16,1.16,0,0,1-1.09,1.12,1.09,1.09,0,0,1-1.17-1.12A1.08,1.08,0,0,1,114.55,330.41Z"/><path class="cls-7" d="M108.12,324a1.12,1.12,0,1,1,.11,2.24,1.12,1.12,0,0,1-.11-2.24Z"/><path class="cls-7" d="M101.61,317.44a1.1,1.1,0,1,1-1.06,1.12A1.11,1.11,0,0,1,101.61,317.44Z"/><path class="cls-7" d="M10.68,300.11A1.11,1.11,0,0,1,9.58,299a1.1,1.1,0,0,1,1.05-1.12,1.1,1.1,0,0,1,0,2.19Z"/><path class="cls-7" d="M121.11,339.16a1.1,1.1,0,1,1,1.12-1.05A1.11,1.11,0,0,1,121.11,339.16Z"/><path class="cls-7" d="M63.76,299a1.1,1.1,0,0,1-1.07,1.1,1.1,1.1,0,0,1,0-2.19A1.1,1.1,0,0,1,63.76,299Z"/><path class="cls-7" d="M83.16,305.51a1.05,1.05,0,0,1-1,1.09,1,1,0,0,1-1.15-1,1,1,0,0,1,.94-1.1A1.07,1.07,0,0,1,83.16,305.51Z"/><path class="cls-7" d="M96.24,312a1.06,1.06,0,0,1-1.06,1,1,1,0,0,1-1-1.13,1,1,0,0,1,1.09-.93A1.08,1.08,0,0,1,96.24,312Z"/><path class="cls-7" d="M69.12,300a1,1,0,0,1-1-1,1,1,0,0,1,1.07-1,.94.94,0,0,1,.94,1A1,1,0,0,1,69.12,300Z"/><path class="cls-7" d="M127.57,343.51a1,1,0,1,1,0,2,1,1,0,0,1,0-2Z"/><path class="cls-7" d="M4.25,298a1,1,0,0,1,1,1,1,1,0,0,1-1.09.94,1,1,0,0,1,.1-2Z"/><path class="cls-7" d="M89.58,305.51a1,1,0,0,1-.9,1,.92.92,0,0,1-.94-.82.9.9,0,0,1,.83-1A1,1,0,0,1,89.58,305.51Z"/><path class="cls-7" d="M44.1,292.54a1,1,0,0,1-.92,1,.87.87,0,0,1-.92-.82.91.91,0,0,1,.84-1A1,1,0,0,1,44.1,292.54Z"/><path class="cls-7" d="M36.61,291.66a.92.92,0,0,1,.06,1.84.92.92,0,1,1-.06-1.84Z"/><path class="cls-7" d="M31.09,292.57a.89.89,0,0,1-.93.93.92.92,0,0,1,0-1.84A.89.89,0,0,1,31.09,292.57Z"/><path class="cls-7" d="M115.54,325.05a1,1,0,0,1-.92,1,.93.93,0,0,1-.08-1.86A1,1,0,0,1,115.54,325.05Z"/><path class="cls-7" d="M24.55,292.58a.94.94,0,0,1-1,.9.89.89,0,0,1-.84-.89.92.92,0,0,1,.83-.92A1,1,0,0,1,24.55,292.58Z"/><path class="cls-7" d="M75.65,299.91a.93.93,0,0,1-.9-1,1,1,0,0,1,.92-.84.92.92,0,0,1,.88,1A.88.88,0,0,1,75.65,299.91Z"/><path class="cls-7" d="M50.59,292.56a.89.89,0,0,1-.81.92.94.94,0,0,1-1-.88,1,1,0,0,1,.94-.93A.92.92,0,0,1,50.59,292.56Z"/><path class="cls-7" d="M109.08,318.54a.94.94,0,0,1-1,.9.9.9,0,0,1-.83-.91.92.92,0,0,1,.83-.9A1,1,0,0,1,109.08,318.54Z"/><path class="cls-7" d="M122,331.51a.86.86,0,0,1-.84.9,1,1,0,0,1-1-.93.93.93,0,0,1,.93-.84A.84.84,0,0,1,122,331.51Z"/><path class="cls-7" d="M18.07,292.62a.91.91,0,0,1-.91.84.88.88,0,0,1,.08-1.76A.92.92,0,0,1,18.07,292.62Z"/><path class="cls-7" d="M128.42,338a.83.83,0,1,1-1.66.1.85.85,0,0,1,.72-.89A.86.86,0,0,1,128.42,338Z"/><path class="cls-7" d="M56.13,291.74a.86.86,0,0,1,.85.89.88.88,0,0,1-.82.8.86.86,0,0,1-.84-.89A.85.85,0,0,1,56.13,291.74Z"/><path class="cls-7" d="M102.46,312.1a.85.85,0,0,1-1,.7.83.83,0,0,1,.33-1.62A.84.84,0,0,1,102.46,312.1Z"/><path class="cls-7" d="M10.45,291.83c.65,0,1.05.41,1,.82a.74.74,0,0,1-.78.68.68.68,0,0,1-.73-.81A2.17,2.17,0,0,1,10.45,291.83Z"/><path class="cls-7" d="M82.89,299.19a2.48,2.48,0,0,1-.72.55.68.68,0,0,1-.83-.7.7.7,0,0,1,.68-.77C82.47,298.22,82.86,298.56,82.89,299.19Z"/><path class="cls-7" d="M63.73,292.58c-.45.34-.69.64-1,.73a.72.72,0,0,1-.83-.73.7.7,0,0,1,.82-.72C63,291.94,63.28,292.24,63.73,292.58Z"/><path class="cls-7" d="M96.18,305.57a4,4,0,0,1-1,.72c-.38.11-.8-.37-.75-.79a.66.66,0,0,1,.76-.66C95.52,304.9,95.76,305.23,96.18,305.57Z"/><path class="cls-7" d="M134.87,344.52a.69.69,0,0,1-.77.69.68.68,0,0,1-.69-.74.67.67,0,0,1,.76-.69A.69.69,0,0,1,134.87,344.52Z"/><path class="cls-7" d="M4.9,292.57a.66.66,0,0,1-.7.7c-.39,0-.79-.38-.66-.72a1.21,1.21,0,0,1,.64-.64C4.55,291.79,4.89,292.16,4.9,292.57Z"/><path class="cls-7" d="M69.11,291.65c.31.41.58.63.66.91s-.33.73-.7.68-.66-.3-.58-.68S68.82,292.06,69.11,291.65Z"/><path class="cls-7" d="M115.51,318.48c-.37.32-.57.62-.84.7s-.64-.15-.71-.54.25-.83.62-.75A3.69,3.69,0,0,1,115.51,318.48Z"/><path class="cls-7" d="M122.1,325.14c-.47.29-.72.54-1,.57s-.64-.26-.62-.66a.56.56,0,0,1,.69-.58C121.44,324.53,121.66,324.81,122.1,325.14Z"/><path class="cls-7" d="M127.64,332.37c-.3-.35-.58-.53-.64-.76a.53.53,0,0,1,.55-.69c.41,0,.68.22.63.61S127.9,332,127.64,332.37Z"/><path class="cls-7" d="M109,312c-.36.3-.54.56-.78.62a.53.53,0,0,1-.69-.55c0-.4.23-.68.63-.61S108.64,311.69,109,312Z"/><path class="cls-7" d="M88.66,298.18c.26.4.53.64.51.84s-.34.39-.53.58c-.2-.2-.52-.38-.54-.59S88.37,298.58,88.66,298.18Z"/><path class="cls-7" d="M31,286.12c-.46.21-.7.43-.92.41a.67.67,0,0,1-.38-.55c0-.18.33-.47.48-.45S30.6,285.81,31,286.12Z"/><path class="cls-7" d="M37.43,286c-.4.3-.6.56-.83.58s-.46-.28-.47-.46.23-.53.38-.54S37,285.74,37.43,286Z"/><path class="cls-7" d="M102.44,305.48c-.4.31-.6.56-.82.58s-.46-.27-.48-.45.23-.53.38-.54S102,305.26,102.44,305.48Z"/><path class="cls-7" d="M43.19,286.79c-.26-.34-.52-.54-.54-.76s.29-.35.46-.53c.19.18.47.33.54.55S43.43,286.43,43.19,286.79Z"/><path class="cls-7" d="M75.6,293.27c-.2-.31-.44-.52-.42-.7a.73.73,0,0,1,.48-.47.44.44,0,0,1,.52.55C76.13,292.84,75.87,293,75.6,293.27Z"/><path class="cls-7" d="M50.28,286c-.2.21-.38.51-.49.49s-.38-.28-.57-.43c.17-.16.32-.41.52-.47S50.06,285.82,50.28,286Z"/><path class="cls-7" d="M24.34,286c-.35.24-.53.46-.74.48s-.39-.28-.4-.44.24-.47.36-.47S24,285.8,24.34,286Z"/><path class="cls-7" d="M134.19,338.7c-.24-.27-.51-.45-.48-.56a.87.87,0,0,1,.43-.51c.09,0,.44.24.44.37S134.37,338.39,134.19,338.7Z"/><path class="cls-7" d="M56.71,286.05c-.28.17-.44.34-.61.35s-.25-.21-.38-.32c.14-.14.25-.38.4-.4S56.44,285.86,56.71,286.05Z"/><path class="cls-7" d="M17.19,285.5l.44.56a1.84,1.84,0,0,1-.48.34c-.09,0-.34-.23-.33-.33S17,285.75,17.19,285.5Z"/><path class="cls-7" d="M82.16,293.08c-.18-.23-.34-.34-.37-.49s.16-.33.22-.32.39.13.42.25S82.29,292.82,82.16,293.08Z"/><path class="cls-7" d="M141.18,344.53c-.25.15-.42.32-.54.29s-.24-.25-.27-.4.22-.27.31-.25S141,344.35,141.18,344.53Z"/><path class="cls-7" d="M63.15,286.19c-.29.07-.46.16-.6.13s-.22-.29-.19-.33.27-.27.4-.26S63,286,63.15,286.19Z"/><path class="cls-7" d="M11.15,286c-.23.18-.34.33-.49.37s-.31-.16-.3-.22.13-.37.24-.4S10.89,285.85,11.15,286Z"/><path class="cls-7" d="M95.7,299c-.24.17-.39.36-.51.34s-.26-.22-.31-.37.19-.29.28-.28S95.45,298.85,95.7,299Z"/><path class="cls-7" d="M121.66,318.54c-.25.17-.41.35-.52.33s-.26-.24-.3-.39.2-.28.29-.26S121.41,318.38,121.66,318.54Z"/><path class="cls-7" d="M127.53,324.67c.17.2.33.32.31.42s-.17.2-.29.26-.21-.14-.21-.21A1.6,1.6,0,0,1,127.53,324.67Z"/><path class="cls-7" d="M115,312c-.2.16-.32.32-.4.31s-.22-.18-.26-.3.13-.22.2-.22S114.79,311.84,115,312Z"/></g></g><path class="cls-8" d="M214,20.28h-7.68L189.79,55.2a16.19,16.19,0,0,1-14.63,9.26H67.28A16.19,16.19,0,0,1,52.65,55.2L36.12,20.28H28.44a8.33,8.33,0,0,0-8.33,8.33V320.72a8.33,8.33,0,0,0,8.33,8.33H60.25l8.85-18.69a12.29,12.29,0,0,1,11.12-7h82a12.29,12.29,0,0,1,11.12,7l8.85,18.69H214a8.33,8.33,0,0,0,8.33-8.33V28.61A8.33,8.33,0,0,0,214,20.28Z"/><path class="cls-9" d="M214,20.28h-7.68L189.79,55.2a16.19,16.19,0,0,1-14.63,9.26H67.28A16.19,16.19,0,0,1,52.65,55.2L36.12,20.28H28.44a8.33,8.33,0,0,0-8.33,8.33V320.72a8.33,8.33,0,0,0,8.33,8.33H60.25l8.85-18.69a12.29,12.29,0,0,1,11.12-7h82a12.29,12.29,0,0,1,11.12,7l8.85,18.69H214a8.33,8.33,0,0,0,8.33-8.33V28.61A8.33,8.33,0,0,0,214,20.28Z"/><path class="cls-10" d="M152.93,27.58a9.8,9.8,0,0,1-5.76,4.52c-12.7,4.14-25.39,8.34-38.08,12.51a3.5,3.5,0,0,1-1.35.21q-5.8-.59-11.61-1.23A3.12,3.12,0,0,1,94.68,43l18.75-6.52-9.16-11c.68-.73,1.31-1.48,2-2.13.17-.16.67-.1,1,0q9.88,3.91,19.76,7.89a2.61,2.61,0,0,0,2,0q8.58-2.89,17.18-5.73a8.44,8.44,0,0,1,5.26,0,7,7,0,0,1,1.49.91Z"/><path class="cls-11" d="M100.65,39.65c-2.25.79-4.23,1.51-6.22,2.17a.92.92,0,0,1-.74-.28c-1.39-1.59-2.75-3.2-4.18-4.87a18.32,18.32,0,0,1,1.39-1.29.92.92,0,0,1,.76-.08C94.58,36.69,97.47,38.11,100.65,39.65Z"/><text class="cls-12" transform="translate(61.81 158.62)">Clear the <tspan x="-30.55" y="36">number order </tspan><tspan x="-24.46" y="72">from (80-90)</tspan></text><path class="cls-1" d="M189.79,55.2,203.3,26.66l-37.8,37.8h9.66A16.19,16.19,0,0,0,189.79,55.2Z"/><path class="cls-13" d="M222.33,28.61A8.33,8.33,0,0,0,214,20.28h-4.33l-6.37,6.38L189.79,55.2a16.19,16.19,0,0,1-14.63,9.26H165.5L20.11,209.84v84.34L222.33,92Z"/><polygon class="cls-13" points="85.38 64.46 20.11 129.72 20.11 153.72 109.38 64.46 85.38 64.46"/><polygon class="cls-14" points="206.32 20.28 203.3 26.66 209.67 20.28 206.32 20.28"/><rect class="cls-1" x="-30.35" y="-61.49" width="230.82" height="457.47"/><g class="cls-16"><g class="cls-6"><path class="cls-7" d="M16.5,1.73a1.19,1.19,0,0,1,0,2.38,1.22,1.22,0,0,1-1.22-1.23A1.21,1.21,0,0,1,16.5,1.73Z"/><path class="cls-7" d="M10.07,1.77a1.13,1.13,0,0,1,1.14,1.16,1.16,1.16,0,0,1-1.16,1.15A1.2,1.2,0,0,1,8.9,2.91,1.18,1.18,0,0,1,10.07,1.77Z"/><path class="cls-7" d="M23,4.08a1.15,1.15,0,0,1-1.1-1.21,1.12,1.12,0,0,1,1.19-1.1A1.17,1.17,0,0,1,24.21,3,1.21,1.21,0,0,1,23,4.08Z"/><path class="cls-7" d="M3.5,4.05A1.11,1.11,0,0,1,2.41,3,1.07,1.07,0,0,1,3.55,1.81,1.13,1.13,0,0,1,4.67,2.89,1.17,1.17,0,0,1,3.5,4.05Z"/><path class="cls-7" d="M29.62,1.81a1.08,1.08,0,0,1,1.09,1.08A1.1,1.1,0,0,1,29.56,4,1.15,1.15,0,0,1,28.45,3,1.13,1.13,0,0,1,29.62,1.81Z"/><path class="cls-7" d="M37.11,2.92a1.09,1.09,0,0,1-2.17,0A1.08,1.08,0,0,1,36,1.85,1.07,1.07,0,0,1,37.11,2.92Z"/><path class="cls-7" d="M43.59,3a1,1,0,0,1-1.05,1,1.07,1.07,0,0,1-1-1,1.07,1.07,0,0,1,1.14-1A1,1,0,0,1,43.59,3Z"/><path class="cls-7" d="M50,2.9a1,1,0,0,1-.92,1A1,1,0,1,1,49,2,1,1,0,0,1,50,2.9Z"/><path class="cls-7" d="M15.59,9.33a.92.92,0,0,1,.9-.86.89.89,0,1,1,0,1.77A1,1,0,0,1,15.59,9.33Z"/><path class="cls-7" d="M10.92,9.46a.84.84,0,0,1-1,.73.85.85,0,1,1,.22-1.68A.83.83,0,0,1,10.92,9.46Z"/><path class="cls-7" d="M23.92,9.38a.87.87,0,0,1-.91.82.85.85,0,1,1,.07-1.7A.86.86,0,0,1,23.92,9.38Z"/><path class="cls-7" d="M55.61,3.74A.8.8,0,0,1,54.74,3a.8.8,0,0,1,.77-.92.84.84,0,0,1,.89.83A.84.84,0,0,1,55.61,3.74Z"/><path class="cls-7" d="M4.34,9.39a.78.78,0,0,1-.81.78.82.82,0,1,1,.09-1.64A.8.8,0,0,1,4.34,9.39Z"/><path class="cls-7" d="M30.43,9.41a.83.83,0,0,1-.95.75.82.82,0,0,1,.12-1.63A.83.83,0,0,1,30.43,9.41Z"/><path class="cls-7" d="M36,10.15a.8.8,0,0,1,.12-1.6.83.83,0,0,1,.75.86A.84.84,0,0,1,36,10.15Z"/><path class="cls-7" d="M62.67,3c0,.4-.42.78-.75.64a1.29,1.29,0,0,1-.62-.68c-.11-.33.31-.7.7-.7A.69.69,0,0,1,62.67,3Z"/><path class="cls-7" d="M43.58,9.37a4.24,4.24,0,0,1-1,.67c-.36.08-.67-.35-.63-.76s.31-.67.66-.6S43.11,9,43.58,9.37Z"/><path class="cls-7" d="M49.18,10c-.59-.05-.86-.29-.76-.68A.9.9,0,0,1,49,8.77a.5.5,0,0,1,.58.64C49.55,9.64,49.28,9.83,49.18,10Z"/><path class="cls-7" d="M68.42,2.16c.3.32.54.46.6.66a.44.44,0,0,1-.44.61A.71.71,0,0,1,68,3C68,2.8,68.24,2.55,68.42,2.16Z"/><path class="cls-7" d="M55.47,8.7c.25.27.52.44.5.57s-.25.38-.4.56c-.16-.13-.45-.26-.46-.4S55.3,9,55.47,8.7Z"/><path class="cls-7" d="M10.64,16c-.24.17-.45.4-.56.36s-.33-.31-.49-.47c.19-.14.38-.35.58-.38S10.44,15.74,10.64,16Z"/><path class="cls-7" d="M17.08,16c-.25.17-.46.4-.57.36s-.33-.31-.49-.47c.2-.14.38-.35.59-.38S16.87,15.74,17.08,16Z"/><path class="cls-7" d="M23.06,15.26c.2.29.42.47.43.67s-.32.42-.4.39a.76.76,0,0,1-.46-.47C22.59,15.74,22.84,15.54,23.06,15.26Z"/><path class="cls-7" d="M3.49,16.46c-.17-.26-.37-.44-.35-.59s.27-.26.41-.4c.13.15.37.3.37.46S3.69,16.23,3.49,16.46Z"/><path class="cls-7" d="M29.63,15.33c.16.26.36.44.34.59s-.26.27-.41.4c-.13-.15-.36-.3-.36-.45S29.43,15.57,29.63,15.33Z"/><path class="cls-7" d="M36.53,16c-.26.14-.44.3-.56.27a.59.59,0,0,1-.24-.42c0-.07.23-.25.31-.23S36.31,15.77,36.53,16Z"/></g></g><g class="cls-17"><g class="cls-6"><path class="cls-7" d="M243.84,3c-.45.31-.71.62-1,.66s-.69-.27-.72-.71.42-.87.8-.73S243.43,2.62,243.84,3Z"/><path class="cls-7" d="M236.46,2.15c.22.37.46.6.46.82s-.32.33-.5.49c-.17-.2-.44-.38-.49-.6S236.19,2.49,236.46,2.15Z"/><path class="cls-7" d="M230.34,3c-.25.12-.39.25-.53.25s-.29-.22-.27-.27.2-.33.33-.35S230.12,2.78,230.34,3Z"/></g></g></g></g></svg>