<svg xmlns="http://www.w3.org/2000/svg" xmlns:xlink="http://www.w3.org/1999/xlink" viewBox="0 0 19.58 19.59"><defs><style>.cls-1{fill:none;}.cls-2{isolation:isolate;}.cls-3{clip-path:url(#clip-path);}.cls-4{clip-path:url(#clip-path-2);}.cls-5{fill:url(#radial-gradient);}.cls-6,.cls-7{mix-blend-mode:screen;}.cls-6{fill:url(#radial-gradient-2);}.cls-7{opacity:0.11;}.cls-8{fill:url(#linear-gradient);}.cls-9{fill:url(#linear-gradient-2);}.cls-10{fill:url(#linear-gradient-3);}.cls-11{fill:url(#linear-gradient-4);}.cls-12{fill:url(#linear-gradient-5);}.cls-13{fill:#fff;}</style><clipPath id="clip-path"><rect class="cls-1" x="-1007.89" y="147.61" width="1440" height="576.41"/></clipPath><clipPath id="clip-path-2"><rect class="cls-1" x="-1064.97" y="-82.24" width="1554.18" height="1036.12"/></clipPath><radialGradient id="radial-gradient" cx="-323.11" cy="512.49" r="1006.95" gradientUnits="userSpaceOnUse"><stop offset="0" stop-color="#800019"/><stop offset="1" stop-color="#30000f"/></radialGradient><radialGradient id="radial-gradient-2" cx="-301.15" cy="370.63" r="679.21" gradientUnits="userSpaceOnUse"><stop offset="0" stop-color="#800019"/><stop offset="1"/></radialGradient><linearGradient id="linear-gradient" x1="-205.17" y1="220.46" x2="-118.16" y2="-534.26" gradientTransform="matrix(0.67, 0.74, -0.74, 0.67, 107.69, 302.22)" xlink:href="#radial-gradient-2"/><linearGradient id="linear-gradient-2" x1="-230.98" y1="242.46" x2="-143.97" y2="-512.23" gradientTransform="translate(105.09 220.27) rotate(36)" xlink:href="#radial-gradient-2"/><linearGradient id="linear-gradient-3" x1="-260.63" y1="259.99" x2="-173.61" y2="-494.73" gradientTransform="translate(85.89 139.31) rotate(24)" xlink:href="#radial-gradient-2"/><linearGradient id="linear-gradient-4" x1="9.63" y1="0.17" x2="9.98" y2="21.88" gradientUnits="userSpaceOnUse"><stop offset="0" stop-color="#f5cb16"/><stop offset="0.28" stop-color="#fef687"/><stop offset="0.34" stop-color="#f5e063"/><stop offset="0.42" stop-color="#ebc83c"/><stop offset="0.48" stop-color="#e5b924"/><stop offset="0.52" stop-color="#e3b31b"/><stop offset="0.65" stop-color="#f0d24e"/><stop offset="0.79" stop-color="#fff585"/><stop offset="0.87" stop-color="#fbe254"/><stop offset="0.96" stop-color="#f7d227"/><stop offset="1" stop-color="#f5cb16"/></linearGradient><linearGradient id="linear-gradient-5" x1="9.64" y1="0.17" x2="9.99" y2="21.88" xlink:href="#linear-gradient-4"/></defs><g class="cls-2"><g id="Layer_1" data-name="Layer 1"><g class="cls-3"><g class="cls-4"><rect class="cls-5" x="-1064.97" y="-82.24" width="1554.18" height="1036.12"/><circle class="cls-6" cx="-301.15" cy="370.63" r="679.21"/><g class="cls-7"><polygon class="cls-8" points="-279.19 445.47 -293.99 429.03 241.31 -99.14 302.05 -31.69 -279.19 445.47"/><polygon class="cls-9" points="-277.37 443.45 -295.27 430.45 118.53 -197.48 191.95 -144.13 -277.37 443.45"/><polygon class="cls-10" points="-276.02 441.1 -296.22 432.1 -22.02 -268.14 60.89 -231.22 -276.02 441.1"/></g></g></g><path class="cls-11" d="M19.58,8.9a1.16,1.16,0,0,0-.93-1.14c-.42-.09-.85-.16-1.27-.22a.28.28,0,0,1-.24-.19c-.13-.35-.27-.69-.43-1a.24.24,0,0,1,0-.27c.23-.31.46-.63.68-1a1.2,1.2,0,0,0-.14-1.66L16.16,2.31a1.2,1.2,0,0,0-1.66-.14c-.32.23-.64.46-1,.68a.27.27,0,0,1-.23,0c-.38-.14-.76-.3-1.13-.46A.27.27,0,0,1,12,2.23c-.08-.38-.12-.77-.21-1.15a1.79,1.79,0,0,0-.24-.59A1.25,1.25,0,0,0,10.82,0H8.68A1.22,1.22,0,0,0,8,.4a2.23,2.23,0,0,0-.32.68c-.09.38-.14.78-.2,1.17a.23.23,0,0,1-.18.21c-.35.13-.69.28-1,.44a.24.24,0,0,1-.29,0L5.08,2.2a1.22,1.22,0,0,0-1.68.13L2.26,3.46a1.22,1.22,0,0,0-.13,1.65c.23.33.48.66.7,1a.26.26,0,0,1,0,.21c-.15.37-.29.74-.45,1.1a.34.34,0,0,1-.18.15l-1.17.2a1.2,1.2,0,0,0-1,.91l0,.08V10.9s0,0,0,0a1.21,1.21,0,0,0,1.07,1l1.13.19a.25.25,0,0,1,.23.2c.14.34.28.68.44,1a.23.23,0,0,1,0,.27c-.23.31-.46.63-.68.95a1.2,1.2,0,0,0,.12,1.63c.39.39.77.78,1.17,1.16a1.2,1.2,0,0,0,1.63.13c.33-.23.66-.46,1-.7a.21.21,0,0,1,.26,0l1,.41a.23.23,0,0,1,.18.23c.06.39.13.78.2,1.17a1.19,1.19,0,0,0,1.14,1c.62,0,1.23,0,1.84,0a1.17,1.17,0,0,0,1.11-.92c.09-.43.16-.86.23-1.3a.24.24,0,0,1,.17-.22c.35-.13.71-.28,1.06-.43a.2.2,0,0,1,.25,0l1,.68a1.22,1.22,0,0,0,1.68-.14l1.11-1.11a1.22,1.22,0,0,0,.13-1.69c-.22-.31-.44-.63-.67-.93a.23.23,0,0,1,0-.26c.16-.35.29-.72.45-1.07a.29.29,0,0,1,.18-.15c.4-.08.8-.14,1.19-.2a1.22,1.22,0,0,0,1.06-1.2C19.59,10.07,19.59,9.49,19.58,8.9ZM9.79,14A4.22,4.22,0,1,1,14,9.8,4.23,4.23,0,0,1,9.79,14Z"/><path class="cls-12" d="M9.79,6.67A3.12,3.12,0,1,0,12.91,9.8,3.13,3.13,0,0,0,9.79,6.67Z"/><path class="cls-13" d="M10.82,0a1.25,1.25,0,0,1,.75.49,1.79,1.79,0,0,1,.24.59c.09.38.13.77.21,1.15a.27.27,0,0,0,.15.18c.37.16.75.32,1.13.46a.27.27,0,0,0,.23,0c.33-.22.65-.45,1-.68a1.2,1.2,0,0,1,1.66.14l1.12,1.12a1.2,1.2,0,0,1,.14,1.66c-.22.32-.45.64-.68,1a.24.24,0,0,0,0,.27c.16.35.3.69.43,1a.28.28,0,0,0,.24.19c.42.06.85.13,1.27.22a1.16,1.16,0,0,1,.93,1.14c0,.59,0,1.17,0,1.76a1.22,1.22,0,0,1-1.06,1.2c-.39.06-.79.12-1.19.2a.29.29,0,0,0-.18.15c-.16.35-.29.72-.45,1.07a.23.23,0,0,0,0,.26c.23.3.45.62.67.93a1.22,1.22,0,0,1-.13,1.69l-1.11,1.11a1.22,1.22,0,0,1-1.68.14l-1-.68a.2.2,0,0,0-.25,0c-.35.15-.71.3-1.06.43a.24.24,0,0,0-.17.22c-.07.44-.14.87-.23,1.3a1.17,1.17,0,0,1-1.11.92c-.61,0-1.22,0-1.84,0a1.19,1.19,0,0,1-1.14-1c-.07-.39-.14-.78-.2-1.17a.23.23,0,0,0-.18-.23l-1-.41a.21.21,0,0,0-.26,0c-.32.24-.65.47-1,.7a1.2,1.2,0,0,1-1.63-.13c-.4-.38-.78-.77-1.17-1.16a1.2,1.2,0,0,1-.12-1.63c.22-.32.45-.64.68-.95a.23.23,0,0,0,0-.27c-.16-.34-.3-.68-.44-1a.25.25,0,0,0-.23-.2L1.1,11.9A1.21,1.21,0,0,1,0,11s0,0,0,0V8.76l0-.08a1.2,1.2,0,0,1,1-.91l1.17-.2a.34.34,0,0,0,.18-.15c.16-.36.3-.73.45-1.1a.26.26,0,0,0,0-.21c-.22-.34-.47-.67-.7-1a1.22,1.22,0,0,1,.13-1.65L3.4,2.33A1.22,1.22,0,0,1,5.08,2.2L6,2.86a.24.24,0,0,0,.29,0c.34-.16.68-.31,1-.44a.23.23,0,0,0,.18-.21c.06-.39.11-.79.2-1.17A2.23,2.23,0,0,1,8,.4,1.22,1.22,0,0,1,8.68,0ZM4.3,3a.81.81,0,0,0-.14.12L3.09,4.2a.2.2,0,0,0,0,.31c.3.41.58.83.88,1.23A.71.71,0,0,1,4,6.55a13.86,13.86,0,0,0-.61,1.5.72.72,0,0,1-.64.56l-1.46.23a.21.21,0,0,0-.19.23q0,.73,0,1.47c0,.19.06.26.24.29.5.07,1,.17,1.49.25a.63.63,0,0,1,.56.49,6.54,6.54,0,0,0,.66,1.57.63.63,0,0,1,0,.76l-.88,1.23a.21.21,0,0,0,0,.32c.36.35.71.7,1.06,1.06.1.11.18.11.31,0,.4-.3.82-.58,1.22-.88a.71.71,0,0,1,.82-.06A14.42,14.42,0,0,0,8,16.2a.71.71,0,0,1,.55.64c.07.49.16,1,.23,1.46a.2.2,0,0,0,.23.19h1.49c.17,0,.24-.06.26-.22.08-.51.17-1,.25-1.51a.62.62,0,0,1,.49-.54,6.35,6.35,0,0,0,1.57-.65.63.63,0,0,1,.78,0c.4.29.82.58,1.22.88a.2.2,0,0,0,.31,0c.35-.36.71-.71,1.07-1.06a.21.21,0,0,0,0-.32c-.3-.4-.58-.82-.88-1.22a.71.71,0,0,1,0-.79c.24-.5.45-1,.64-1.54a.7.7,0,0,1,.59-.52l1.47-.24a.22.22,0,0,0,.23-.26c0-.48,0-1,0-1.45,0-.19-.08-.25-.25-.28-.49-.07-1-.16-1.47-.24a.65.65,0,0,1-.56-.49C16,7.53,15.8,7,15.56,6.49a.68.68,0,0,1,0-.76c.3-.41.58-.83.88-1.23.09-.13.1-.22,0-.33l-1.06-1c-.11-.12-.19-.12-.32,0-.41.31-.83.6-1.24.9a.6.6,0,0,1-.7.06,6.84,6.84,0,0,0-1.7-.7.56.56,0,0,1-.44-.5c-.09-.52-.18-1-.26-1.55,0-.14-.08-.2-.24-.2q-.74,0-1.47,0c-.17,0-.25,0-.27.23-.08.48-.17,1-.24,1.45A.73.73,0,0,1,8,3.4c-.52.19-1,.41-1.53.64a.68.68,0,0,1-.78,0c-.4-.3-.81-.58-1.21-.87Z"/></g></g></svg>