<svg xmlns="http://www.w3.org/2000/svg" xmlns:xlink="http://www.w3.org/1999/xlink" viewBox="0 0 22.12 21.04"><defs><style>.cls-1{fill:none;}.cls-2{isolation:isolate;}.cls-3{clip-path:url(#clip-path);}.cls-4{clip-path:url(#clip-path-2);}.cls-5{fill:url(#radial-gradient);}.cls-6,.cls-7{mix-blend-mode:screen;}.cls-6{fill:url(#radial-gradient-2);}.cls-7{opacity:0.11;}.cls-8{fill:url(#linear-gradient);}.cls-9{fill:url(#linear-gradient-2);}.cls-10{fill:url(#linear-gradient-3);}.cls-11{fill:url(#linear-gradient-4);}.cls-12{fill:url(#linear-gradient-5);}.cls-13{fill:url(#linear-gradient-6);}.cls-14{fill:url(#linear-gradient-7);}.cls-15{fill:url(#linear-gradient-8);}.cls-16{fill:url(#linear-gradient-9);}.cls-17{fill:url(#linear-gradient-10);}.cls-18{fill:url(#linear-gradient-11);}.cls-19{fill:url(#linear-gradient-12);}.cls-20{fill:url(#linear-gradient-13);}.cls-21{fill:url(#linear-gradient-14);}.cls-22,.cls-23,.cls-24,.cls-25,.cls-26{mix-blend-mode:color-dodge;}.cls-22{fill:url(#radial-gradient-3);}.cls-23{fill:url(#radial-gradient-4);}.cls-24{fill:url(#radial-gradient-5);}.cls-25{fill:url(#radial-gradient-6);}.cls-26{fill:url(#radial-gradient-7);}</style><clipPath id="clip-path"><rect class="cls-1" x="-923.6" y="150.74" width="1440" height="576.41"/></clipPath><clipPath id="clip-path-2"><rect class="cls-1" x="-980.68" y="-79.11" width="1554.18" height="1036.12"/></clipPath><radialGradient id="radial-gradient" cx="-238.82" cy="515.62" r="1006.95" gradientUnits="userSpaceOnUse"><stop offset="0" stop-color="#800019"/><stop offset="1" stop-color="#30000f"/></radialGradient><radialGradient id="radial-gradient-2" cx="-216.86" cy="373.76" r="679.21" gradientUnits="userSpaceOnUse"><stop offset="0" stop-color="#800019"/><stop offset="1"/></radialGradient><linearGradient id="linear-gradient" x1="-120.88" y1="223.59" x2="-33.87" y2="-531.13" gradientTransform="matrix(0.67, 0.74, -0.74, 0.67, 137.91, 240.62)" xlink:href="#radial-gradient-2"/><linearGradient id="linear-gradient-2" x1="-146.69" y1="245.59" x2="-59.68" y2="-509.1" gradientTransform="translate(123.03 171.32) rotate(36)" xlink:href="#radial-gradient-2"/><linearGradient id="linear-gradient-3" x1="-176.34" y1="263.12" x2="-89.32" y2="-491.6" gradientTransform="translate(94.45 105.31) rotate(24)" xlink:href="#radial-gradient-2"/><linearGradient id="linear-gradient-4" x1="15.33" y1="6.59" x2="16.58" y2="9.82" gradientUnits="userSpaceOnUse"><stop offset="0" stop-color="#d69b12"/><stop offset="1" stop-color="#fee227"/></linearGradient><linearGradient id="linear-gradient-5" x1="17.67" y1="13.06" x2="16.59" y2="9.85" gradientUnits="userSpaceOnUse"><stop offset="0" stop-color="#b56101"/><stop offset="0.9" stop-color="#d79e13"/><stop offset="1" stop-color="#fee227"/></linearGradient><linearGradient id="linear-gradient-6" x1="7.64" y1="5.82" x2="11.06" y2="5.82" gradientUnits="userSpaceOnUse"><stop offset="0" stop-color="#b56101"/><stop offset="1" stop-color="#fee227"/></linearGradient><linearGradient id="linear-gradient-7" x1="14.48" y1="5.82" x2="11.04" y2="5.82" gradientUnits="userSpaceOnUse"><stop offset="0" stop-color="#b56101"/><stop offset="0.92" stop-color="#e1ae18"/><stop offset="1" stop-color="#fee227"/></linearGradient><linearGradient id="linear-gradient-8" x1="17.25" y1="14.37" x2="14.46" y2="16.35" gradientUnits="userSpaceOnUse"><stop offset="0" stop-color="#b56101"/><stop offset="0.93" stop-color="#f9d924"/><stop offset="1" stop-color="#fee227"/></linearGradient><linearGradient id="linear-gradient-9" x1="6.66" y1="6.59" x2="5.56" y2="9.75" xlink:href="#linear-gradient-4"/><linearGradient id="linear-gradient-10" x1="4.49" y1="13.1" x2="5.53" y2="9.83" xlink:href="#linear-gradient-5"/><linearGradient id="linear-gradient-11" x1="4.87" y1="14.35" x2="7.66" y2="16.35" gradientUnits="userSpaceOnUse"><stop offset="0" stop-color="#b56101"/><stop offset="1" stop-color="#f5d323"/></linearGradient><linearGradient id="linear-gradient-12" x1="11.65" y1="18.3" x2="14.41" y2="16.38" gradientUnits="userSpaceOnUse"><stop offset="0" stop-color="#b56101"/><stop offset="0.91" stop-color="#dfab17"/><stop offset="1" stop-color="#f2cd21"/></linearGradient><linearGradient id="linear-gradient-13" x1="7" y1="23.05" x2="4.22" y2="21.03" xlink:href="#linear-gradient-5"/><linearGradient id="linear-gradient-14" x1="10.41" y1="18.34" x2="7.64" y2="16.33" xlink:href="#linear-gradient-5"/><radialGradient id="radial-gradient-3" cx="1378.65" cy="209.3" r="1.3" gradientTransform="translate(-181.94 -825.06) scale(0.14 3.97)" gradientUnits="userSpaceOnUse"><stop offset="0" stop-color="#fff"/><stop offset="0.5" stop-color="#797979"/><stop offset="0.84" stop-color="#222"/><stop offset="1"/></radialGradient><radialGradient id="radial-gradient-4" cx="-1181.89" cy="202.58" r="1.3" gradientTransform="matrix(0.04, 0.13, -3.77, 1.24, 832.47, -84.92)" xlink:href="#radial-gradient-3"/><radialGradient id="radial-gradient-5" cx="-1435.72" cy="296.66" r="1.3" gradientTransform="matrix(-0.11, 0.08, -2.35, -3.2, 551.07, 1084.14)" xlink:href="#radial-gradient-3"/><radialGradient id="radial-gradient-6" cx="401.08" cy="344.32" r="1.3" gradientTransform="matrix(0.11, 0.08, 2.35, -3.2, -848.09, 1084.14)" xlink:href="#radial-gradient-3"/><radialGradient id="radial-gradient-7" cx="-1716.88" cy="263.9" r="1.3" gradientTransform="matrix(-0.04, 0.13, 3.79, 1.19, -1066.5, -73.45)" xlink:href="#radial-gradient-3"/></defs><g class="cls-2"><g id="Layer_1" data-name="Layer 1"><g class="cls-3"><g class="cls-4"><rect class="cls-5" x="-980.68" y="-79.11" width="1554.18" height="1036.12"/><circle class="cls-6" cx="-216.86" cy="373.76" r="679.21"/><g class="cls-7"><polygon class="cls-8" points="-194.9 448.6 -209.7 432.17 325.6 -96.01 386.33 -28.56 -194.9 448.6"/><polygon class="cls-9" points="-193.09 446.58 -210.98 433.58 202.81 -194.35 276.24 -141 -193.09 446.58"/><polygon class="cls-10" points="-191.73 444.23 -211.93 435.24 62.26 -265 145.18 -228.09 -191.73 444.23"/></g></g></g><polygon class="cls-11" points="22.12 8.04 14.47 6.93 11.06 11.63 22.12 8.04"/><polygon class="cls-12" points="22.12 8.04 11.06 11.63 16.59 13.43 22.12 8.04"/><polygon class="cls-13" points="11.06 11.63 11.06 0 7.64 6.93 11.06 11.63 11.06 11.63"/><polygon class="cls-14" points="11.06 0 11.06 0.01 11.06 11.63 11.06 11.63 11.06 11.63 14.48 6.93 11.06 0"/><polygon class="cls-15" points="17.89 21.04 16.59 13.43 11.06 11.63 17.89 21.04"/><polygon class="cls-16" points="0 8.04 7.64 6.93 11.06 11.63 0 8.04"/><polygon class="cls-17" points="0 8.04 11.06 11.63 5.53 13.43 0 8.04"/><polygon class="cls-18" points="4.22 21.04 5.53 13.43 11.06 11.63 4.22 21.04"/><polygon class="cls-19" points="11.06 11.63 11.06 17.45 17.89 21.04 11.06 11.63"/><polygon class="cls-20" points="4.22 21.03 4.22 21.04 4.22 21.04 4.22 21.03"/><polygon class="cls-21" points="4.23 21.04 11.06 17.45 11.06 11.63 4.23 21.04"/><path class="cls-22" d="M11.26,6.3a37.23,37.23,0,0,1-.18,5.17,34.56,34.56,0,0,1-.19-5.17,34.65,34.65,0,0,1,.19-5.18A37.32,37.32,0,0,1,11.26,6.3Z"/><path class="cls-23" d="M16.48,10.09a35.87,35.87,0,0,1-5,1.45,35.67,35.67,0,0,1,4.85-1.79,35.44,35.44,0,0,1,5-1.45A35.67,35.67,0,0,1,16.48,10.09Z"/><path class="cls-24" d="M14.15,16.15a36.14,36.14,0,0,1-2.92-4.27,37,37,0,0,1,3.21,4.06,37.68,37.68,0,0,1,2.92,4.27A37,37,0,0,1,14.15,16.15Z"/><path class="cls-25" d="M8.07,16.15A37.68,37.68,0,0,0,11,11.88a36.28,36.28,0,0,0-3.22,4.06,37.68,37.68,0,0,0-2.92,4.27A37.68,37.68,0,0,0,8.07,16.15Z"/><path class="cls-26" d="M5.68,10.09a34.73,34.73,0,0,0,5,1.37A38.52,38.52,0,0,0,5.79,9.75a35.11,35.11,0,0,0-5-1.37A37.82,37.82,0,0,0,5.68,10.09Z"/></g></g></svg>