<svg xmlns="http://www.w3.org/2000/svg" xmlns:xlink="http://www.w3.org/1999/xlink" viewBox="0 0 224.48 227.88"><defs><style>.cls-1,.cls-12{fill:none;}.cls-2{isolation:isolate;}.cls-3{mix-blend-mode:saturation;}.cls-4{fill:url(#linear-gradient);}.cls-5{fill:url(#linear-gradient-2);}.cls-6{fill:url(#linear-gradient-3);}.cls-7{fill:url(#linear-gradient-4);}.cls-13,.cls-14,.cls-23,.cls-8{fill:#fff;}.cls-8{opacity:0.16;mix-blend-mode:hard-light;}.cls-9{clip-path:url(#clip-path);}.cls-10{fill:#f7b515;}.cls-11,.cls-22{fill:#2b2d2e;}.cls-12{stroke:#f7b515;stroke-miterlimit:10;}.cls-13{font-size:13.74px;}.cls-13,.cls-14{font-family:Roboto-Regular, Roboto;}.cls-14{font-size:9.05px;}.cls-15{letter-spacing:-0.01em;}.cls-16{letter-spacing:-0.01em;}.cls-17{fill:#d30b0b;}.cls-18{fill:url(#linear-gradient-6);}.cls-19{fill:url(#linear-gradient-7);}.cls-20{fill:#262626;}.cls-21{fill:url(#linear-gradient-8);}.cls-22{font-size:17.44px;}.cls-22,.cls-23{font-family:Flareserif821BT-Bold, "Flareserif 821 BT";font-weight:700;}.cls-23{font-size:19.18px;}</style><linearGradient id="linear-gradient" x1="32.89" y1="191.83" x2="191.59" y2="33.13" gradientUnits="userSpaceOnUse"><stop offset="0" stop-color="#953900"/><stop offset="0.25" stop-color="#c89b14"/><stop offset="0.5" stop-color="#953900"/><stop offset="0.81" stop-color="#c89b14"/><stop offset="1" stop-color="#953900"/></linearGradient><linearGradient id="linear-gradient-2" x1="3.49" y1="112.14" x2="220.99" y2="112.14" gradientUnits="userSpaceOnUse"><stop offset="0" stop-color="#8c0f02"/><stop offset="1" stop-color="#ff1124"/></linearGradient><linearGradient id="linear-gradient-3" x1="35.36" y1="35.6" x2="189.12" y2="189.36" gradientUnits="userSpaceOnUse"><stop offset="0" stop-color="#fab865"/><stop offset="0.25" stop-color="#fffe9e"/><stop offset="0.5" stop-color="#fab865"/><stop offset="0.81" stop-color="#fffe9e"/><stop offset="1" stop-color="#fab865"/></linearGradient><linearGradient id="linear-gradient-4" x1="46.22" y1="46.12" x2="178.26" y2="178.16" xlink:href="#linear-gradient-3"/><clipPath id="clip-path"><path class="cls-1" d="M205.61,112.14a93.37,93.37,0,1,1-93.37-93.37A93.37,93.37,0,0,1,205.61,112.14Z"/></clipPath><linearGradient id="linear-gradient-6" x1="26.63" y1="185.84" x2="221.96" y2="185.84" gradientUnits="userSpaceOnUse"><stop offset="0" stop-color="#ff1124"/><stop offset="1" stop-color="#8c0f02"/></linearGradient><linearGradient id="linear-gradient-7" x1="21.58" y1="188.04" x2="223.67" y2="188.04" gradientUnits="userSpaceOnUse"><stop offset="0" stop-color="#f5cb16"/><stop offset="0.28" stop-color="#fef687"/><stop offset="0.34" stop-color="#f5e063"/><stop offset="0.42" stop-color="#ebc83c"/><stop offset="0.48" stop-color="#e5b924"/><stop offset="0.52" stop-color="#e3b31b"/><stop offset="0.65" stop-color="#f0d24e"/><stop offset="0.79" stop-color="#fff585"/><stop offset="0.87" stop-color="#fbe254"/><stop offset="0.96" stop-color="#f7d227"/><stop offset="1" stop-color="#f5cb16"/></linearGradient><linearGradient id="linear-gradient-8" x1="-12.29" y1="176.66" x2="91.12" y2="176.66" xlink:href="#linear-gradient-7"/></defs><g class="cls-2"><g id="Layer_1" data-name="Layer 1"><path class="cls-3" d="M121.07,224.28a13.75,13.75,0,0,1-8.83-3.19,13.75,13.75,0,0,1-8.83,3.19c-.41,0-.83,0-1.24-.05a13.72,13.72,0,0,1-9.35-4.9,13.74,13.74,0,0,1-6.8,1.8,13.42,13.42,0,0,1-3.67-.5A13.74,13.74,0,0,1,74,214.15a14.08,14.08,0,0,1-4.55.78,13.92,13.92,0,0,1-6-1.37,13.77,13.77,0,0,1-7-7.87,14.09,14.09,0,0,1-2.16.17A13.77,13.77,0,0,1,40.7,194.23a13.8,13.8,0,0,1-13.48-14.09,13.8,13.8,0,0,1-10.74-16.27A13.79,13.79,0,0,1,8.82,146a13.82,13.82,0,0,1-4.34-19,13.77,13.77,0,0,1-.87-19.47A13.8,13.8,0,0,1,6.22,88.14a13.8,13.8,0,0,1,6-18.54,13.79,13.79,0,0,1,9.24-17.16A13.8,13.8,0,0,1,33.64,37.19,13.79,13.79,0,0,1,47.4,24.34l.92,0a13.78,13.78,0,0,1,16.74-10A13.79,13.79,0,0,1,83.31,7.51a13.77,13.77,0,0,1,8.87-5.7,13.57,13.57,0,0,1,2.46-.23A13.87,13.87,0,0,1,102.49,4,13.79,13.79,0,0,1,122,4a13.87,13.87,0,0,1,7.85-2.46,13.57,13.57,0,0,1,2.46.23,13.77,13.77,0,0,1,8.87,5.7,13.71,13.71,0,0,1,5.7-1.23,13.77,13.77,0,0,1,12.55,8.09,13.79,13.79,0,0,1,16.74,10l.92,0a13.79,13.79,0,0,1,13.76,12.85A13.81,13.81,0,0,1,203,52.44a13.78,13.78,0,0,1,9.24,17.16,13.81,13.81,0,0,1,6,18.54,13.78,13.78,0,0,1,2.61,19.32,13.77,13.77,0,0,1-.87,19.47,13.79,13.79,0,0,1-4.34,19A13.79,13.79,0,0,1,208,163.87a13.8,13.8,0,0,1-10.74,16.27,13.8,13.8,0,0,1-13.47,14.09,13.79,13.79,0,0,1-13.62,11.63,14,14,0,0,1-2.15-.17,13.83,13.83,0,0,1-13,9.23,14.07,14.07,0,0,1-4.55-.77,13.76,13.76,0,0,1-8.33,6.48,13.3,13.3,0,0,1-3.66.5,13.77,13.77,0,0,1-6.8-1.8,13.72,13.72,0,0,1-9.35,4.9C121.9,224.26,121.48,224.28,121.07,224.28Z"/><path class="cls-4" d="M121.07,224.28a13.75,13.75,0,0,1-8.83-3.19,13.75,13.75,0,0,1-8.83,3.19c-.41,0-.83,0-1.24-.05a13.72,13.72,0,0,1-9.35-4.9,13.74,13.74,0,0,1-6.8,1.8,13.42,13.42,0,0,1-3.67-.5A13.74,13.74,0,0,1,74,214.15a14.08,14.08,0,0,1-4.55.78,13.92,13.92,0,0,1-6-1.37,13.77,13.77,0,0,1-7-7.87,14.09,14.09,0,0,1-2.16.17A13.77,13.77,0,0,1,40.7,194.23a13.8,13.8,0,0,1-13.48-14.09,13.8,13.8,0,0,1-10.74-16.27A13.79,13.79,0,0,1,8.82,146a13.82,13.82,0,0,1-4.34-19,13.77,13.77,0,0,1-.87-19.47A13.8,13.8,0,0,1,6.22,88.14a13.8,13.8,0,0,1,6-18.54,13.79,13.79,0,0,1,9.24-17.16A13.8,13.8,0,0,1,33.64,37.19,13.79,13.79,0,0,1,47.4,24.34l.92,0a13.78,13.78,0,0,1,16.74-10A13.79,13.79,0,0,1,83.31,7.51a13.77,13.77,0,0,1,8.87-5.7,13.57,13.57,0,0,1,2.46-.23A13.87,13.87,0,0,1,102.49,4,13.79,13.79,0,0,1,122,4a13.87,13.87,0,0,1,7.85-2.46,13.57,13.57,0,0,1,2.46.23,13.77,13.77,0,0,1,8.87,5.7,13.71,13.71,0,0,1,5.7-1.23,13.77,13.77,0,0,1,12.55,8.09,13.79,13.79,0,0,1,16.74,10l.92,0a13.79,13.79,0,0,1,13.76,12.85A13.81,13.81,0,0,1,203,52.44a13.78,13.78,0,0,1,9.24,17.16,13.81,13.81,0,0,1,6,18.54,13.78,13.78,0,0,1,2.61,19.32,13.77,13.77,0,0,1-.87,19.47,13.79,13.79,0,0,1-4.34,19A13.79,13.79,0,0,1,208,163.87a13.8,13.8,0,0,1-10.74,16.27,13.8,13.8,0,0,1-13.47,14.09,13.79,13.79,0,0,1-13.62,11.63,14,14,0,0,1-2.15-.17,13.83,13.83,0,0,1-13,9.23,14.07,14.07,0,0,1-4.55-.77,13.76,13.76,0,0,1-8.33,6.48,13.3,13.3,0,0,1-3.66.5,13.77,13.77,0,0,1-6.8-1.8,13.72,13.72,0,0,1-9.35,4.9C121.9,224.26,121.48,224.28,121.07,224.28Z"/><path class="cls-5" d="M103.69,8.05a10.3,10.3,0,0,1,17.1,0l.74,1.1.92-1a10.3,10.3,0,0,1,16.83,3.05l.52,1.22,1.08-.77a10.3,10.3,0,0,1,16,6l.3,1.3,1.2-.57a10.29,10.29,0,0,1,14.68,8.77l.07,1.32,1.28-.34a10.29,10.29,0,0,1,12.87,11.25l-.16,1.31,1.31-.1A10.29,10.29,0,0,1,199.11,54l-.41,1.26,1.32.14a10.29,10.29,0,0,1,8.11,15.05l-.62,1.17,1.27.36a10.29,10.29,0,0,1,5.28,16.26l-.81,1.05,1.19.58a10.3,10.3,0,0,1,2.29,16.94l-1,.88,1.07.79a10.29,10.29,0,0,1-.77,17.08l-1.13.69.91,1A10.3,10.3,0,0,1,212,143.88l-1.23.48.71,1.11a10.29,10.29,0,0,1-6.71,15.72l-1.31.24.51,1.23a10.29,10.29,0,0,1-9.41,14.27h-1.33l.29,1.29a10.3,10.3,0,0,1-11.82,12.36l-1.3-.23,0,1.32a10.29,10.29,0,0,1-13.83,10.06l-1.24-.46-.19,1.31a10.29,10.29,0,0,1-15.4,7.42l-1.14-.67-.42,1.26a10.3,10.3,0,0,1-16.49,4.55l-1-.87-.64,1.16a10.29,10.29,0,0,1-17,1.53l-.83-1-.83,1a10.29,10.29,0,0,1-17-1.53l-.64-1.16-1,.87a10.3,10.3,0,0,1-16.49-4.55l-.41-1.26-1.15.67a10.29,10.29,0,0,1-15.4-7.42l-.18-1.31-1.25.46A10.29,10.29,0,0,1,44,191.68l0-1.32-1.31.23A10.29,10.29,0,0,1,31,178.23l.28-1.29H29.91a10.31,10.31,0,0,1-9.42-14.27l.52-1.23-1.31-.24A10.29,10.29,0,0,1,13,145.47l.72-1.11-1.24-.48a10.29,10.29,0,0,1-3.8-16.67l.91-1-1.14-.69a10.29,10.29,0,0,1-.76-17.08l1.06-.79-1-.88a10.29,10.29,0,0,1,2.3-16.94l1.18-.58-.82-1.05A10.3,10.3,0,0,1,15.7,72L17,71.62l-.62-1.17A10.29,10.29,0,0,1,24.46,55.4l1.32-.14L25.37,54A10.29,10.29,0,0,1,36,40.64l1.33.1-.17-1.31A10.29,10.29,0,0,1,50.06,28.18l1.28.34.07-1.32a10.29,10.29,0,0,1,14.68-8.77l1.2.57.3-1.3a10.3,10.3,0,0,1,16-6l1.08.77.53-1.22a10.28,10.28,0,0,1,16.82-3l.92.94Z"/><path class="cls-6" d="M103.69,8.05a10.3,10.3,0,0,1,17.1,0l.74,1.1.92-1a10.3,10.3,0,0,1,16.83,3.05l.52,1.22,1.08-.77a10.3,10.3,0,0,1,16,6l.3,1.3,1.2-.57a10.29,10.29,0,0,1,14.68,8.77l.07,1.32,1.28-.34a10.29,10.29,0,0,1,12.87,11.25l-.16,1.31,1.31-.1A10.29,10.29,0,0,1,199.11,54l-.41,1.26,1.32.14a10.29,10.29,0,0,1,8.11,15.05l-.62,1.17,1.27.36a10.29,10.29,0,0,1,5.28,16.26l-.81,1.05,1.19.58a10.3,10.3,0,0,1,2.29,16.94l-1,.88,1.07.79a10.29,10.29,0,0,1-.77,17.08l-1.13.69.91,1A10.3,10.3,0,0,1,212,143.88l-1.23.48.71,1.11a10.29,10.29,0,0,1-6.71,15.72l-1.31.24.51,1.23a10.29,10.29,0,0,1-9.41,14.27h-1.33l.29,1.29a10.3,10.3,0,0,1-11.82,12.36l-1.3-.23,0,1.32a10.29,10.29,0,0,1-13.83,10.06l-1.24-.46-.19,1.31a10.29,10.29,0,0,1-15.4,7.42l-1.14-.67-.42,1.26a10.3,10.3,0,0,1-16.49,4.55l-1-.87-.64,1.16a10.29,10.29,0,0,1-17,1.53l-.83-1-.83,1a10.29,10.29,0,0,1-17-1.53l-.64-1.16-1,.87a10.3,10.3,0,0,1-16.49-4.55l-.41-1.26-1.15.67a10.29,10.29,0,0,1-15.4-7.42l-.18-1.31-1.25.46A10.29,10.29,0,0,1,44,191.68l0-1.32-1.31.23A10.29,10.29,0,0,1,31,178.23l.28-1.29H29.91a10.31,10.31,0,0,1-9.42-14.27l.52-1.23-1.31-.24A10.29,10.29,0,0,1,13,145.47l.72-1.11-1.24-.48a10.29,10.29,0,0,1-3.8-16.67l.91-1-1.14-.69a10.29,10.29,0,0,1-.76-17.08l1.06-.79-1-.88a10.29,10.29,0,0,1,2.3-16.94l1.18-.58-.82-1.05A10.3,10.3,0,0,1,15.7,72L17,71.62l-.62-1.17A10.29,10.29,0,0,1,24.46,55.4l1.32-.14L25.37,54A10.29,10.29,0,0,1,36,40.64l1.33.1-.17-1.31A10.29,10.29,0,0,1,50.06,28.18l1.28.34.07-1.32a10.29,10.29,0,0,1,14.68-8.77l1.2.57.3-1.3a10.3,10.3,0,0,1,16-6l1.08.77.53-1.22a10.28,10.28,0,0,1,16.82-3l.92.94ZM210,112.14a97.78,97.78,0,1,0-97.78,97.78A97.89,97.89,0,0,0,210,112.14Z"/><path class="cls-7" d="M205.61,112.14a93.37,93.37,0,1,1-93.37-93.37A93.37,93.37,0,0,1,205.61,112.14Zm-2.68,0a90.69,90.69,0,1,0-90.69,90.69A90.79,90.79,0,0,0,202.93,112.14Z"/><path class="cls-8" d="M220.1,97.73a10.29,10.29,0,0,0-5.66-7.86l-1.19-.58.81-1.05A10.29,10.29,0,0,0,208.78,72l-1.27-.36.62-1.17A10.29,10.29,0,0,0,200,55.4l-1.32-.14.41-1.26a10.29,10.29,0,0,0-10.67-13.36l-1.31.1.16-1.31a10.29,10.29,0,0,0-12.87-11.25l-1.28.34-.07-1.32a10.29,10.29,0,0,0-14.68-8.77l-1.2.57-.3-1.3a10.3,10.3,0,0,0-16-6l-1.08.77-.52-1.22A10.3,10.3,0,0,0,122.45,8.2l-.92,1-.74-1.1a10.3,10.3,0,0,0-17.1,0L103,9.15,102,8.21a10.28,10.28,0,0,0-16.82,3l-.53,1.22L83.6,11.7a10.3,10.3,0,0,0-16,6l-.3,1.3-1.2-.57A10.29,10.29,0,0,0,51.41,27.2l-.07,1.32-1.28-.34A10.29,10.29,0,0,0,37.19,39.43l.17,1.31L36,40.64A10.29,10.29,0,0,0,25.37,54l.41,1.26-1.32.14a10.29,10.29,0,0,0-8.11,15.05L17,71.62,15.7,72a10.3,10.3,0,0,0-5.29,16.26l.82,1.05-1.18.58a10.28,10.28,0,0,0-3.25,16C38.59,117.05,74.55,123,112.24,123s73.65-5.9,105.44-17.11A10.26,10.26,0,0,0,220.1,97.73Z"/><g class="cls-9"><rect class="cls-10" x="90.32" y="132.37" width="19.27" height="19.27" transform="translate(-48.4 51.74) rotate(-23.54)"/><rect class="cls-11" x="72.67" y="140.06" width="19.27" height="19.27" transform="translate(-52.94 45.33) rotate(-23.54)"/><rect class="cls-10" x="55.01" y="147.75" width="19.27" height="19.27" transform="translate(-57.48 38.92) rotate(-23.54)"/><rect class="cls-11" x="47.98" y="25.54" width="19.27" height="38.55" transform="translate(-13.11 26.74) rotate(-23.54)"/><rect class="cls-10" x="59.53" y="61.69" width="19.27" height="19.27" transform="translate(-22.73 33.56) rotate(-23.54)"/><rect class="cls-11" x="67.23" y="79.36" width="19.27" height="19.27" transform="translate(-29.15 38.11) rotate(-23.54)"/><rect class="cls-10" x="74.93" y="97.03" width="19.27" height="19.27" transform="translate(-35.56 42.65) rotate(-23.54)"/><rect class="cls-11" x="82.63" y="114.7" width="19.27" height="19.27" transform="translate(-41.98 47.2) rotate(-23.54)"/><rect class="cls-12" x="101.44" y="149.33" width="19.27" height="36.38" transform="translate(-57.66 58.3) rotate(-23.54)"/><rect class="cls-11" x="26.48" y="34.04" width="19.27" height="19.27" transform="translate(-14.44 18.06) rotate(-23.54)"/><rect class="cls-10" x="34.18" y="51.71" width="19.27" height="19.27" transform="translate(-20.85 22.6) rotate(-23.54)"/><rect class="cls-11" x="41.87" y="69.38" width="19.27" height="19.27" transform="translate(-27.27 27.15) rotate(-23.54)"/><rect class="cls-10" x="49.57" y="87.05" width="19.27" height="19.27" transform="translate(-33.69 31.69) rotate(-23.54)"/><rect class="cls-11" x="57.27" y="104.72" width="19.27" height="19.27" transform="translate(-40.11 36.24) rotate(-23.54)"/><rect class="cls-10" x="64.97" y="122.39" width="19.27" height="19.27" transform="translate(-46.52 40.78) rotate(-23.54)"/><rect class="cls-12" x="83.78" y="157.02" width="19.27" height="36.38" transform="translate(-62.2 51.89) rotate(-23.54)"/><rect class="cls-10" x="8.82" y="41.73" width="19.27" height="19.27" transform="translate(-18.98 11.65) rotate(-23.54)"/><rect class="cls-11" x="16.52" y="59.4" width="19.27" height="19.27" transform="translate(-25.4 16.19) rotate(-23.54)"/><rect class="cls-10" x="24.22" y="77.07" width="19.27" height="19.27" transform="translate(-31.81 20.74) rotate(-23.54)"/><rect class="cls-11" x="31.91" y="94.74" width="19.27" height="19.27" transform="translate(-38.23 25.28) rotate(-23.54)"/><rect class="cls-10" x="39.61" y="112.41" width="19.27" height="19.27" transform="translate(-44.65 29.83) rotate(-23.54)"/><rect class="cls-11" x="47.31" y="130.08" width="19.27" height="19.27" transform="translate(-51.06 34.37) rotate(-23.54)"/><rect class="cls-12" x="66.12" y="164.71" width="19.27" height="36.38" transform="translate(-66.74 45.48) rotate(-23.54)"/><text class="cls-13" transform="translate(50.64 39.41) rotate(66.46)">14</text><text class="cls-13" transform="translate(69.88 83.59) rotate(66.46)">28</text><text class="cls-13" transform="translate(86.82 122.46) rotate(66.46)">4</text><text class="cls-13" transform="translate(44.54 73.6) rotate(66.46)">33</text><text class="cls-13" transform="translate(52.24 91.27) rotate(66.46)">78</text><text class="cls-13" transform="translate(67.1 125.93) rotate(66.46)">66</text><text class="cls-13" transform="translate(19.01 63.7) rotate(66.46)">14</text><text class="cls-13" transform="translate(11.31 46.03) rotate(66.46)">13</text><text class="cls-13" transform="translate(34.41 99.04) rotate(66.46)">20</text><text class="cls-13" transform="translate(42.11 116.71) rotate(66.46)">18</text><text class="cls-13" transform="translate(49.8 134.38) rotate(66.46)">44</text><text class="cls-14" transform="translate(104.19 158.11) rotate(66.46)">2 <tspan class="cls-15" x="7.33" y="0">t</tspan><tspan x="10.19" y="0">o 1</tspan></text><text class="cls-14" transform="translate(86.55 165.79) rotate(66.46)">2 <tspan class="cls-15" x="7.33" y="0">t</tspan><tspan x="10.19" y="0">o 1</tspan></text><text class="cls-14" transform="translate(68.73 173.56) rotate(66.46)">2 <tspan class="cls-15" x="7.33" y="0">t</tspan><tspan x="10.19" y="0">o 1</tspan></text><text class="cls-13" transform="translate(30.68 41.8) rotate(66.46)">6</text><rect class="cls-10" x="151.8" y="147.66" width="19.27" height="19.27" transform="translate(-44.02 249.99) rotate(-68.54)"/><rect class="cls-11" x="133.87" y="140.61" width="19.27" height="19.27" transform="translate(-48.83 228.84) rotate(-68.54)"/><rect class="cls-10" x="115.95" y="133.57" width="19.27" height="19.27" transform="translate(-53.64 207.69) rotate(-68.54)"/><rect class="cls-11" x="180.94" y="49" width="38.55" height="19.27" transform="translate(72.4 223.52) rotate(-68.54)"/><rect class="cls-10" x="180" y="75.91" width="19.27" height="19.27" transform="translate(40.65 230.74) rotate(-68.54)"/><rect class="cls-11" x="172.95" y="93.84" width="19.27" height="19.27" transform="translate(19.48 235.55) rotate(-68.54)"/><rect class="cls-10" x="165.9" y="111.78" width="19.27" height="19.27" transform="translate(-1.69 240.36) rotate(-68.54)"/><rect class="cls-11" x="158.85" y="129.72" width="19.27" height="19.27" transform="translate(-22.85 245.18) rotate(-68.54)"/><rect class="cls-12" x="133.07" y="173.55" width="36.38" height="19.27" transform="translate(-74.57 256.94) rotate(-68.54)"/><rect class="cls-11" x="176.18" y="32.98" width="19.27" height="19.27" transform="translate(78.17 199.96) rotate(-68.54)"/><rect class="cls-10" x="169.13" y="50.92" width="19.27" height="19.27" transform="translate(57 204.78) rotate(-68.54)"/><rect class="cls-11" x="162.08" y="68.86" width="19.27" height="19.27" transform="translate(35.84 209.59) rotate(-68.54)"/><rect class="cls-10" x="155.03" y="86.8" width="19.27" height="19.27" transform="translate(14.67 214.4) rotate(-68.54)"/><rect class="cls-11" x="147.97" y="104.74" width="19.27" height="19.27" transform="translate(-6.5 219.21) rotate(-68.54)"/><rect class="cls-10" x="140.92" y="122.67" width="19.27" height="19.27" transform="translate(-27.66 224.03) rotate(-68.54)"/><rect class="cls-12" x="115.14" y="166.51" width="36.38" height="19.27" transform="translate(-79.38 235.79) rotate(-68.54)"/><rect class="cls-10" x="158.26" y="25.94" width="19.27" height="19.27" transform="translate(73.36 178.81) rotate(-68.54)"/><rect class="cls-11" x="151.2" y="43.88" width="19.27" height="19.27" transform="translate(52.19 183.63) rotate(-68.54)"/><rect class="cls-10" x="144.15" y="61.81" width="19.27" height="19.27" transform="translate(31.03 188.44) rotate(-68.54)"/><rect class="cls-11" x="137.1" y="79.75" width="19.27" height="19.27" transform="translate(9.86 193.25) rotate(-68.54)"/><rect class="cls-10" x="130.05" y="97.69" width="19.27" height="19.27" transform="translate(-11.3 198.06) rotate(-68.54)"/><rect class="cls-11" x="123" y="115.63" width="19.27" height="19.27" transform="translate(-32.47 202.88) rotate(-68.54)"/><rect class="cls-12" x="97.22" y="159.46" width="36.38" height="19.27" transform="translate(-84.19 214.64) rotate(-68.54)"/><text class="cls-13" transform="translate(197.62 53.41) rotate(111.46)">0</text><text class="cls-13" transform="translate(181.41 94.67) rotate(111.46)">50</text><text class="cls-13" transform="translate(174.35 112.61) rotate(111.46)">35</text><text class="cls-13" transform="translate(170.55 69.69) rotate(111.46)">40</text><text class="cls-13" transform="translate(163.5 87.63) rotate(111.46)">29</text><text class="cls-13" transform="translate(156.44 105.57) rotate(111.46)">65</text><text class="cls-13" transform="translate(142.34 141.44) rotate(111.46)">12</text><text class="cls-13" transform="translate(159.5 44.64) rotate(111.46)">60</text><text class="cls-13" transform="translate(145.4 80.51) rotate(111.46)">25</text><text class="cls-13" transform="translate(131.29 116.39) rotate(111.46)">18</text><text class="cls-14" transform="translate(152.97 171.62) rotate(111.46)">2 <tspan class="cls-16" x="7.32" y="0">t</tspan><tspan x="10.19" y="0">o 1</tspan></text><text class="cls-14" transform="translate(135.07 164.59) rotate(111.46)">2 <tspan class="cls-16" x="7.32" y="0">t</tspan><tspan x="10.19" y="0">o 1</tspan></text><text class="cls-14" transform="translate(116.97 157.47) rotate(111.46)">2 <tspan class="cls-16" x="7.32" y="0">t</tspan><tspan x="10.19" y="0">o 1</tspan></text><text class="cls-13" transform="translate(183.24 37.4) rotate(111.46)">6</text><rect class="cls-10" x="121.86" y="132.55" width="19.27" height="19.27"/><rect class="cls-11" x="102.6" y="132.55" width="19.27" height="19.27"/><rect class="cls-10" x="83.34" y="132.55" width="19.27" height="19.27"/><rect class="cls-11" x="121.86" y="16.9" width="19.27" height="38.55"/><rect class="cls-10" x="121.86" y="55.45" width="19.27" height="19.27"/><rect class="cls-11" x="121.86" y="74.72" width="19.27" height="19.27"/><rect class="cls-10" x="121.86" y="94" width="19.27" height="19.27"/><rect class="cls-11" x="121.86" y="113.27" width="19.27" height="19.27"/><rect class="cls-12" x="121.86" y="151.82" width="19.27" height="36.38"/><rect class="cls-11" x="102.6" y="16.9" width="19.27" height="19.27"/><rect class="cls-10" x="102.6" y="36.17" width="19.27" height="19.27"/><rect class="cls-11" x="102.6" y="55.45" width="19.27" height="19.27"/><rect class="cls-10" x="102.6" y="74.72" width="19.27" height="19.27"/><rect class="cls-11" x="102.6" y="94" width="19.27" height="19.27"/><rect class="cls-10" x="102.6" y="113.27" width="19.27" height="19.27"/><rect class="cls-12" x="102.6" y="151.82" width="19.27" height="36.38"/><rect class="cls-10" x="83.34" y="16.9" width="19.27" height="19.27"/><rect class="cls-11" x="83.34" y="36.17" width="19.27" height="19.27"/><rect class="cls-10" x="83.34" y="55.45" width="19.27" height="19.27"/><rect class="cls-11" x="83.34" y="74.72" width="19.27" height="19.27"/><rect class="cls-10" x="83.34" y="94" width="19.27" height="19.27"/><rect class="cls-11" x="83.34" y="113.27" width="19.27" height="19.27"/><rect class="cls-12" x="83.34" y="151.82" width="19.27" height="36.38"/><text class="cls-13" transform="translate(127.2 28.46) rotate(90)">40</text><text class="cls-13" transform="translate(127.2 76.65) rotate(90)">42</text><text class="cls-13" transform="translate(127.2 115.19) rotate(90)">67</text><text class="cls-13" transform="translate(107.95 57.37) rotate(90)">78</text><text class="cls-13" transform="translate(107.95 95.92) rotate(90)">55</text><text class="cls-13" transform="translate(107.95 134.47) rotate(90)">12</text><text class="cls-13" transform="translate(88.51 57.3) rotate(90)">90</text><text class="cls-13" transform="translate(88.51 18.82) rotate(90)">13</text><text class="cls-13" transform="translate(88.51 95.92) rotate(90)">22</text><text class="cls-13" transform="translate(88.51 134.55) rotate(90)">18</text><text class="cls-14" transform="translate(128.89 158.67) rotate(90)">2 <tspan class="cls-15" x="7.33" y="0">t</tspan><tspan x="10.19" y="0">o 1</tspan></text><text class="cls-14" transform="translate(109.65 158.67) rotate(90)">2 <tspan class="cls-15" x="7.33" y="0">t</tspan><tspan x="10.19" y="0">o 1</tspan></text><text class="cls-14" transform="translate(90.21 158.67) rotate(90)">2 <tspan class="cls-15" x="7.33" y="0">t</tspan><tspan x="10.19" y="0">o 1</tspan></text><text class="cls-13" transform="translate(107.95 18.82) rotate(90)">30</text></g><path class="cls-7" d="M205.61,112.14a93.37,93.37,0,1,1-93.37-93.37A93.37,93.37,0,0,1,205.61,112.14Zm-2.68,0a90.69,90.69,0,1,0-90.69,90.69A90.79,90.79,0,0,0,202.93,112.14Z"/><path class="cls-17" d="M201.4,225.05l19.74-58.12a15.37,15.37,0,0,0-15.09-20.29L26.63,153l5.77,35.59a15.36,15.36,0,0,0,12.85,12.72Z"/><path class="cls-18" d="M201.4,225.05l19.74-58.12a15.37,15.37,0,0,0-15.09-20.29L26.63,153l5.77,35.59a15.36,15.36,0,0,0,12.85,12.72Z"/><path class="cls-19" d="M196.5,227.88,29.36,202.47a.25.25,0,0,1-.21-.21l-7.56-46.62a.29.29,0,0,1,.05-.2.28.28,0,0,1,.19-.09l201.58-7.14h0a.26.26,0,0,1,.2.1.28.28,0,0,1,0,.23l-26.88,79.17a.26.26,0,0,1-.24.17Zm-174.37-72L29.62,202l166.75,25.35,26.69-78.62Z"/><polygon class="cls-20" points="8.09 180.86 0.81 176.66 8.09 172.46 2.15 166.51 10.27 164.34 6.07 157.06 14.47 157.06 12.3 148.94 20.42 151.11 20.42 142.71 27.7 146.91 29.87 138.79 35.81 144.73 40.02 137.45 44.22 144.73 50.16 138.79 52.34 146.91 59.62 142.71 59.62 151.11 67.74 148.94 65.57 157.06 73.97 157.06 69.77 164.34 77.89 166.51 71.94 172.46 79.22 176.66 71.94 180.86 77.89 186.81 69.77 188.98 73.97 196.26 65.57 196.26 67.74 204.38 59.62 202.21 59.62 210.61 52.34 206.41 50.16 214.53 44.22 208.58 40.02 215.86 35.81 208.58 29.87 214.53 27.7 206.41 20.42 210.61 20.42 202.21 12.3 204.38 14.47 196.26 6.07 196.26 10.27 188.98 2.15 186.81 8.09 180.86"/><polygon class="cls-21" points="8.09 180.86 0.81 176.66 8.09 172.46 2.15 166.51 10.27 164.34 6.07 157.06 14.47 157.06 12.3 148.94 20.42 151.11 20.42 142.71 27.7 146.91 29.87 138.79 35.82 144.73 40.02 137.45 44.22 144.73 50.17 138.79 52.34 146.91 59.62 142.71 59.62 151.11 67.74 148.94 65.57 157.06 73.97 157.06 69.77 164.34 77.89 166.51 71.94 172.46 79.22 176.66 71.94 180.86 77.89 186.81 69.77 188.98 73.97 196.26 65.57 196.26 67.74 204.38 59.62 202.21 59.62 210.61 52.34 206.41 50.17 214.53 44.22 208.58 40.02 215.86 35.82 208.58 29.87 214.53 27.7 206.41 20.42 210.61 20.42 202.21 12.3 204.38 14.47 196.26 6.07 196.26 10.27 188.98 2.15 186.81 8.09 180.86"/><text class="cls-22" transform="translate(21.74 182.23)">50+</text><text class="cls-23" transform="translate(120.13 185.72)">Select</text></g></g></svg>