<svg xmlns="http://www.w3.org/2000/svg" xmlns:xlink="http://www.w3.org/1999/xlink" viewBox="0 0 224.48 227.88"><defs><style>.cls-1,.cls-10{fill:none;}.cls-2{isolation:isolate;}.cls-3{fill:url(#linear-gradient);}.cls-4{fill:url(#linear-gradient-2);}.cls-5{fill:url(#linear-gradient-3);}.cls-11,.cls-12,.cls-21,.cls-6{fill:#fff;}.cls-6{opacity:0.16;mix-blend-mode:hard-light;}.cls-7{clip-path:url(#clip-path);}.cls-8{fill:#f7b515;}.cls-20,.cls-9{fill:#2b2d2e;}.cls-10{stroke:#f7b515;stroke-miterlimit:10;}.cls-11{font-size:14.98px;}.cls-11,.cls-12{font-family:Roboto-Regular, Roboto;}.cls-12{font-size:9.87px;}.cls-13{letter-spacing:-0.01em;}.cls-14{fill:url(#linear-gradient-4);}.cls-15{fill:#d30b0b;}.cls-16{fill:url(#linear-gradient-5);}.cls-17{fill:url(#linear-gradient-6);}.cls-18{fill:#262626;}.cls-19{fill:url(#linear-gradient-7);}.cls-20{font-size:17.44px;}.cls-20,.cls-21{font-family:Flareserif821BT-Bold, "Flareserif 821 BT";font-weight:700;}.cls-21{font-size:19.18px;}</style><linearGradient id="linear-gradient" x1="32.89" y1="191.83" x2="191.59" y2="33.13" gradientUnits="userSpaceOnUse"><stop offset="0" stop-color="#953900"/><stop offset="0.25" stop-color="#c89b14"/><stop offset="0.5" stop-color="#953900"/><stop offset="0.81" stop-color="#c89b14"/><stop offset="1" stop-color="#953900"/></linearGradient><linearGradient id="linear-gradient-2" x1="3.49" y1="112.14" x2="220.99" y2="112.14" gradientUnits="userSpaceOnUse"><stop offset="0" stop-color="#8c0f02"/><stop offset="1" stop-color="#ff1124"/></linearGradient><linearGradient id="linear-gradient-3" x1="35.36" y1="35.6" x2="189.12" y2="189.36" gradientUnits="userSpaceOnUse"><stop offset="0" stop-color="#fab865"/><stop offset="0.25" stop-color="#fffe9e"/><stop offset="0.5" stop-color="#fab865"/><stop offset="0.81" stop-color="#fffe9e"/><stop offset="1" stop-color="#fab865"/></linearGradient><clipPath id="clip-path"><path class="cls-1" d="M205.61,112.14a93.37,93.37,0,1,1-93.37-93.37A93.37,93.37,0,0,1,205.61,112.14Z"/></clipPath><linearGradient id="linear-gradient-4" x1="46.22" y1="46.12" x2="178.26" y2="178.16" xlink:href="#linear-gradient-3"/><linearGradient id="linear-gradient-5" x1="26.63" y1="185.84" x2="221.96" y2="185.84" gradientUnits="userSpaceOnUse"><stop offset="0" stop-color="#ff1124"/><stop offset="1" stop-color="#8c0f02"/></linearGradient><linearGradient id="linear-gradient-6" x1="21.58" y1="188.04" x2="223.67" y2="188.04" gradientUnits="userSpaceOnUse"><stop offset="0" stop-color="#f5cb16"/><stop offset="0.28" stop-color="#fef687"/><stop offset="0.34" stop-color="#f5e063"/><stop offset="0.42" stop-color="#ebc83c"/><stop offset="0.48" stop-color="#e5b924"/><stop offset="0.52" stop-color="#e3b31b"/><stop offset="0.65" stop-color="#f0d24e"/><stop offset="0.79" stop-color="#fff585"/><stop offset="0.87" stop-color="#fbe254"/><stop offset="0.96" stop-color="#f7d227"/><stop offset="1" stop-color="#f5cb16"/></linearGradient><linearGradient id="linear-gradient-7" x1="-12.29" y1="176.66" x2="91.12" y2="176.66" xlink:href="#linear-gradient-6"/></defs><g class="cls-2"><g id="Layer_1" data-name="Layer 1"><path class="cls-3" d="M121.07,224.28a13.75,13.75,0,0,1-8.83-3.19,13.75,13.75,0,0,1-8.83,3.19c-.41,0-.83,0-1.24-.05a13.72,13.72,0,0,1-9.35-4.9,13.74,13.74,0,0,1-6.8,1.8,13.42,13.42,0,0,1-3.67-.5A13.74,13.74,0,0,1,74,214.15a14.08,14.08,0,0,1-4.55.78,13.92,13.92,0,0,1-6-1.37,13.77,13.77,0,0,1-7-7.87,14.09,14.09,0,0,1-2.16.17A13.77,13.77,0,0,1,40.7,194.23a13.8,13.8,0,0,1-13.48-14.09,13.8,13.8,0,0,1-10.74-16.27A13.79,13.79,0,0,1,8.82,146a13.82,13.82,0,0,1-4.34-19,13.77,13.77,0,0,1-.87-19.47A13.8,13.8,0,0,1,6.22,88.14a13.8,13.8,0,0,1,6-18.54,13.79,13.79,0,0,1,9.24-17.16A13.8,13.8,0,0,1,33.64,37.19,13.79,13.79,0,0,1,47.4,24.34l.92,0a13.78,13.78,0,0,1,16.74-10A13.79,13.79,0,0,1,83.31,7.51a13.77,13.77,0,0,1,8.87-5.7,13.57,13.57,0,0,1,2.46-.23A13.87,13.87,0,0,1,102.49,4,13.79,13.79,0,0,1,122,4a13.87,13.87,0,0,1,7.85-2.46,13.57,13.57,0,0,1,2.46.23,13.77,13.77,0,0,1,8.87,5.7,13.71,13.71,0,0,1,5.7-1.23,13.77,13.77,0,0,1,12.55,8.09,13.79,13.79,0,0,1,16.74,10l.92,0a13.79,13.79,0,0,1,13.76,12.85A13.81,13.81,0,0,1,203,52.44a13.78,13.78,0,0,1,9.24,17.16,13.81,13.81,0,0,1,6,18.54,13.78,13.78,0,0,1,2.61,19.32,13.77,13.77,0,0,1-.87,19.47,13.79,13.79,0,0,1-4.34,19A13.79,13.79,0,0,1,208,163.87a13.8,13.8,0,0,1-10.74,16.27,13.8,13.8,0,0,1-13.47,14.09,13.79,13.79,0,0,1-13.62,11.63,14,14,0,0,1-2.15-.17,13.83,13.83,0,0,1-13,9.23,14.07,14.07,0,0,1-4.55-.77,13.76,13.76,0,0,1-8.33,6.48,13.3,13.3,0,0,1-3.66.5,13.77,13.77,0,0,1-6.8-1.8,13.72,13.72,0,0,1-9.35,4.9C121.9,224.26,121.48,224.28,121.07,224.28Z"/><path class="cls-4" d="M103.69,8.05a10.3,10.3,0,0,1,17.1,0l.74,1.1.92-1a10.3,10.3,0,0,1,16.83,3.05l.52,1.22,1.08-.77a10.3,10.3,0,0,1,16,6l.3,1.3,1.2-.57a10.29,10.29,0,0,1,14.68,8.77l.07,1.32,1.28-.34a10.29,10.29,0,0,1,12.87,11.25l-.16,1.31,1.31-.1A10.29,10.29,0,0,1,199.11,54l-.41,1.26,1.32.14a10.29,10.29,0,0,1,8.11,15.05l-.62,1.17,1.27.36a10.29,10.29,0,0,1,5.28,16.26l-.81,1.05,1.19.58a10.3,10.3,0,0,1,2.29,16.94l-1,.88,1.07.79a10.29,10.29,0,0,1-.77,17.08l-1.13.69.91,1A10.3,10.3,0,0,1,212,143.88l-1.23.48.71,1.11a10.29,10.29,0,0,1-6.71,15.72l-1.31.24.51,1.23a10.29,10.29,0,0,1-9.41,14.27h-1.33l.29,1.29a10.3,10.3,0,0,1-11.82,12.36l-1.3-.23,0,1.32a10.29,10.29,0,0,1-13.83,10.06l-1.24-.46-.19,1.31a10.29,10.29,0,0,1-15.4,7.42l-1.14-.67-.42,1.26a10.3,10.3,0,0,1-16.49,4.55l-1-.87-.64,1.16a10.29,10.29,0,0,1-17,1.53l-.83-1-.83,1a10.29,10.29,0,0,1-17-1.53l-.64-1.16-1,.87a10.3,10.3,0,0,1-16.49-4.55l-.41-1.26-1.15.67a10.29,10.29,0,0,1-15.4-7.42l-.18-1.31-1.25.46A10.29,10.29,0,0,1,44,191.68l0-1.32-1.31.23A10.29,10.29,0,0,1,31,178.23l.28-1.29H29.91a10.31,10.31,0,0,1-9.42-14.27l.52-1.23-1.31-.24A10.29,10.29,0,0,1,13,145.47l.72-1.11-1.24-.48a10.29,10.29,0,0,1-3.8-16.67l.91-1-1.14-.69a10.29,10.29,0,0,1-.76-17.08l1.06-.79-1-.88a10.29,10.29,0,0,1,2.3-16.94l1.18-.58-.82-1.05A10.3,10.3,0,0,1,15.7,72L17,71.62l-.62-1.17A10.29,10.29,0,0,1,24.46,55.4l1.32-.14L25.37,54A10.29,10.29,0,0,1,36,40.64l1.33.1-.17-1.31A10.29,10.29,0,0,1,50.06,28.18l1.28.34.07-1.32a10.29,10.29,0,0,1,14.68-8.77l1.2.57.3-1.3a10.3,10.3,0,0,1,16-6l1.08.77.53-1.22a10.28,10.28,0,0,1,16.82-3l.92.94Z"/><path class="cls-5" d="M103.69,8.05a10.3,10.3,0,0,1,17.1,0l.74,1.1.92-1a10.3,10.3,0,0,1,16.83,3.05l.52,1.22,1.08-.77a10.3,10.3,0,0,1,16,6l.3,1.3,1.2-.57a10.29,10.29,0,0,1,14.68,8.77l.07,1.32,1.28-.34a10.29,10.29,0,0,1,12.87,11.25l-.16,1.31,1.31-.1A10.29,10.29,0,0,1,199.11,54l-.41,1.26,1.32.14a10.29,10.29,0,0,1,8.11,15.05l-.62,1.17,1.27.36a10.29,10.29,0,0,1,5.28,16.26l-.81,1.05,1.19.58a10.3,10.3,0,0,1,2.29,16.94l-1,.88,1.07.79a10.29,10.29,0,0,1-.77,17.08l-1.13.69.91,1A10.3,10.3,0,0,1,212,143.88l-1.23.48.71,1.11a10.29,10.29,0,0,1-6.71,15.72l-1.31.24.51,1.23a10.29,10.29,0,0,1-9.41,14.27h-1.33l.29,1.29a10.3,10.3,0,0,1-11.82,12.36l-1.3-.23,0,1.32a10.29,10.29,0,0,1-13.83,10.06l-1.24-.46-.19,1.31a10.29,10.29,0,0,1-15.4,7.42l-1.14-.67-.42,1.26a10.3,10.3,0,0,1-16.49,4.55l-1-.87-.64,1.16a10.29,10.29,0,0,1-17,1.53l-.83-1-.83,1a10.29,10.29,0,0,1-17-1.53l-.64-1.16-1,.87a10.3,10.3,0,0,1-16.49-4.55l-.41-1.26-1.15.67a10.29,10.29,0,0,1-15.4-7.42l-.18-1.31-1.25.46A10.29,10.29,0,0,1,44,191.68l0-1.32-1.31.23A10.29,10.29,0,0,1,31,178.23l.28-1.29H29.91a10.31,10.31,0,0,1-9.42-14.27l.52-1.23-1.31-.24A10.29,10.29,0,0,1,13,145.47l.72-1.11-1.24-.48a10.29,10.29,0,0,1-3.8-16.67l.91-1-1.14-.69a10.29,10.29,0,0,1-.76-17.08l1.06-.79-1-.88a10.29,10.29,0,0,1,2.3-16.94l1.18-.58-.82-1.05A10.3,10.3,0,0,1,15.7,72L17,71.62l-.62-1.17A10.29,10.29,0,0,1,24.46,55.4l1.32-.14L25.37,54A10.29,10.29,0,0,1,36,40.64l1.33.1-.17-1.31A10.29,10.29,0,0,1,50.06,28.18l1.28.34.07-1.32a10.29,10.29,0,0,1,14.68-8.77l1.2.57.3-1.3a10.3,10.3,0,0,1,16-6l1.08.77.53-1.22a10.28,10.28,0,0,1,16.82-3l.92.94ZM210,112.14a97.78,97.78,0,1,0-97.78,97.78A97.89,97.89,0,0,0,210,112.14Z"/><path class="cls-6" d="M220.1,97.73a10.29,10.29,0,0,0-5.66-7.86l-1.19-.58.81-1.05A10.29,10.29,0,0,0,208.78,72l-1.27-.36.62-1.17A10.29,10.29,0,0,0,200,55.4l-1.32-.14.41-1.26a10.29,10.29,0,0,0-10.67-13.36l-1.31.1.16-1.31a10.29,10.29,0,0,0-12.87-11.25l-1.28.34-.07-1.32a10.29,10.29,0,0,0-14.68-8.77l-1.2.57-.3-1.3a10.3,10.3,0,0,0-16-6l-1.08.77-.52-1.22A10.3,10.3,0,0,0,122.45,8.2l-.92,1-.74-1.1a10.3,10.3,0,0,0-17.1,0L103,9.15,102,8.21a10.28,10.28,0,0,0-16.82,3l-.53,1.22L83.6,11.7a10.3,10.3,0,0,0-16,6l-.3,1.3-1.2-.57A10.29,10.29,0,0,0,51.41,27.2l-.07,1.32-1.28-.34A10.29,10.29,0,0,0,37.19,39.43l.17,1.31L36,40.64A10.29,10.29,0,0,0,25.37,54l.41,1.26-1.32.14a10.29,10.29,0,0,0-8.11,15.05L17,71.62,15.7,72a10.3,10.3,0,0,0-5.29,16.26l.82,1.05-1.18.58a10.28,10.28,0,0,0-3.25,16C38.59,117.05,74.55,123,112.24,123s73.65-5.9,105.44-17.11A10.26,10.26,0,0,0,220.1,97.73Z"/><g class="cls-7"><rect class="cls-8" x="108.35" y="144.37" width="21.01" height="21.01" transform="translate(-51.96 60.36) rotate(-23.54)"/><rect class="cls-9" x="89.1" y="152.76" width="21.01" height="21.01" transform="translate(-56.92 53.37) rotate(-23.54)"/><rect class="cls-8" x="69.85" y="161.14" width="21.01" height="21.01" transform="translate(-61.87 46.38) rotate(-23.54)"/><rect class="cls-9" x="62.19" y="27.92" width="21.01" height="42.02" transform="translate(-13.49 33.11) rotate(-23.54)"/><rect class="cls-8" x="74.78" y="67.32" width="21.01" height="21.01" transform="translate(-23.98 40.54) rotate(-23.54)"/><rect class="cls-9" x="83.17" y="86.58" width="21.01" height="21.01" transform="translate(-30.98 45.49) rotate(-23.54)"/><rect class="cls-8" x="91.56" y="105.84" width="21.01" height="21.01" transform="translate(-37.97 50.45) rotate(-23.54)"/><rect class="cls-9" x="99.96" y="125.11" width="21.01" height="21.01" transform="translate(-44.97 55.4) rotate(-23.54)"/><rect class="cls-10" x="120.46" y="162.86" width="21.01" height="39.65" transform="translate(-62.06 67.51) rotate(-23.54)"/><rect class="cls-9" x="38.75" y="37.18" width="21.01" height="21.01" transform="translate(-14.95 23.64) rotate(-23.54)"/><rect class="cls-8" x="47.14" y="56.44" width="21.01" height="21.01" transform="translate(-21.94 28.59) rotate(-23.54)"/><rect class="cls-9" x="55.53" y="75.7" width="21.01" height="21.01" transform="translate(-28.94 33.55) rotate(-23.54)"/><rect class="cls-8" x="63.92" y="94.97" width="21.01" height="21.01" transform="translate(-35.93 38.5) rotate(-23.54)"/><rect class="cls-9" x="72.32" y="114.23" width="21.01" height="21.01" transform="translate(-42.93 43.46) rotate(-23.54)"/><rect class="cls-8" x="80.71" y="133.49" width="21.01" height="21.01" transform="translate(-49.92 48.41) rotate(-23.54)"/><rect class="cls-10" x="101.21" y="171.24" width="21.01" height="39.65" transform="translate(-67.01 60.52) rotate(-23.54)"/><rect class="cls-8" x="19.5" y="45.56" width="21.01" height="21.01" transform="translate(-19.9 16.65) rotate(-23.54)"/><rect class="cls-9" x="27.89" y="64.83" width="21.01" height="21.01" transform="translate(-26.89 21.6) rotate(-23.54)"/><rect class="cls-8" x="36.28" y="84.09" width="21.01" height="21.01" transform="translate(-33.89 26.56) rotate(-23.54)"/><rect class="cls-9" x="44.68" y="103.35" width="21.01" height="21.01" transform="translate(-40.88 31.51) rotate(-23.54)"/><rect class="cls-8" x="53.07" y="122.62" width="21.01" height="21.01" transform="translate(-47.88 36.47) rotate(-23.54)"/><rect class="cls-9" x="61.46" y="141.88" width="21.01" height="21.01" transform="translate(-54.87 41.42) rotate(-23.54)"/><rect class="cls-10" x="81.96" y="179.63" width="21.01" height="39.65" transform="translate(-71.96 53.53) rotate(-23.54)"/><text class="cls-11" transform="translate(65.1 43.11) rotate(66.46)">20</text><text class="cls-11" transform="translate(86.08 91.27) rotate(66.46)">21</text><text class="cls-11" transform="translate(94.48 110.53) rotate(66.46)">22</text><text class="cls-11" transform="translate(104.55 133.65) rotate(66.46)">4</text><text class="cls-11" transform="translate(58.46 80.38) rotate(66.46)">27</text><text class="cls-11" transform="translate(66.85 99.65) rotate(66.46)">28</text><text class="cls-11" transform="translate(75.24 118.91) rotate(66.46)">29</text><text class="cls-11" transform="translate(92.03 157.44) rotate(66.46)">12</text><text class="cls-11" transform="translate(30.63 69.59) rotate(66.46)">32</text><text class="cls-11" transform="translate(22.24 50.33) rotate(66.46)">31</text><text class="cls-11" transform="translate(47.42 108.11) rotate(66.46)">33</text><text class="cls-11" transform="translate(55.81 127.38) rotate(66.46)">34</text><text class="cls-11" transform="translate(64.2 146.64) rotate(66.46)">35</text><text class="cls-12" transform="translate(123.49 172.5) rotate(66.46)">2 <tspan class="cls-13" x="7.98" y="0">t</tspan><tspan x="11.11" y="0">o 1</tspan></text><text class="cls-12" transform="translate(104.26 180.88) rotate(66.46)">2 <tspan class="cls-13" x="7.98" y="0">t</tspan><tspan x="11.11" y="0">o 1</tspan></text><text class="cls-12" transform="translate(84.82 189.35) rotate(66.46)">2 <tspan class="cls-13" x="7.98" y="0">t</tspan><tspan x="11.11" y="0">o 1</tspan></text><text class="cls-11" transform="translate(41.68 41.86) rotate(66.46)">25</text><rect class="cls-8" x="133.6" y="161.14" width="21.01" height="21.01" transform="translate(-70.84 235.1) rotate(-66.43)"/><rect class="cls-9" x="114.35" y="152.75" width="21.01" height="21.01" transform="translate(-74.7 212.43) rotate(-66.43)"/><rect class="cls-8" x="95.11" y="144.35" width="21.01" height="21.01" transform="translate(-78.56 189.75) rotate(-66.43)"/><rect class="cls-9" x="169.3" y="55.22" width="42.02" height="21.01" transform="translate(53.98 213.88) rotate(-66.43)"/><rect class="cls-8" x="167.2" y="84.11" width="21.01" height="21.01" transform="translate(19.94 219.67) rotate(-66.43)"/><rect class="cls-9" x="158.8" y="103.37" width="21.01" height="21.01" transform="translate(-2.76 223.53) rotate(-66.43)"/><rect class="cls-8" x="150.4" y="122.62" width="21.01" height="21.01" transform="translate(-25.45 227.39) rotate(-66.43)"/><rect class="cls-9" x="142" y="141.88" width="21.01" height="21.01" transform="translate(-48.15 231.25) rotate(-66.43)"/><rect class="cls-10" x="112.15" y="188.95" width="39.65" height="21.01" transform="translate(-103.61 240.68) rotate(-66.43)"/><rect class="cls-9" x="164.76" y="37.19" width="21.01" height="21.01" transform="translate(61.47 189.27) rotate(-66.43)"/><rect class="cls-8" x="156.36" y="56.45" width="21.01" height="21.01" transform="translate(38.77 193.13) rotate(-66.43)"/><rect class="cls-9" x="147.96" y="75.71" width="21.01" height="21.01" transform="translate(16.08 196.99) rotate(-66.43)"/><rect class="cls-8" x="139.56" y="94.97" width="21.01" height="21.01" transform="translate(-6.62 200.85) rotate(-66.43)"/><rect class="cls-9" x="131.15" y="114.23" width="21.01" height="21.01" transform="translate(-29.31 204.71) rotate(-66.43)"/><rect class="cls-8" x="122.75" y="133.49" width="21.01" height="21.01" transform="translate(-52 208.57) rotate(-66.43)"/><rect class="cls-10" x="92.9" y="180.55" width="39.65" height="21.01" transform="translate(-107.46 218) rotate(-66.43)"/><rect class="cls-8" x="145.51" y="28.8" width="21.01" height="21.01" transform="translate(57.61 166.6) rotate(-66.43)"/><rect class="cls-9" x="137.11" y="48.06" width="21.01" height="21.01" transform="translate(34.92 170.46) rotate(-66.43)"/><rect class="cls-8" x="128.71" y="67.32" width="21.01" height="21.01" transform="translate(12.22 174.31) rotate(-66.43)"/><rect class="cls-9" x="120.31" y="86.58" width="21.01" height="21.01" transform="translate(-10.47 178.17) rotate(-66.43)"/><rect class="cls-8" x="111.91" y="105.84" width="21.01" height="21.01" transform="translate(-33.17 182.03) rotate(-66.43)"/><rect class="cls-9" x="103.51" y="125.09" width="21.01" height="21.01" transform="translate(-55.86 185.89) rotate(-66.43)"/><rect class="cls-10" x="73.66" y="172.16" width="39.65" height="21.01" transform="translate(-111.32 195.32) rotate(-66.43)"/><text class="cls-11" transform="translate(187.7 60.11) rotate(113.57)">0</text><text class="cls-11" transform="translate(166.7 108.26) rotate(113.57)">1</text><text class="cls-11" transform="translate(158.3 127.52) rotate(113.57)">2</text><text class="cls-11" transform="translate(149.9 146.78) rotate(113.57)">3</text><text class="cls-11" transform="translate(155.87 80.62) rotate(113.57)">6</text><text class="cls-11" transform="translate(147.47 99.88) rotate(113.57)">7</text><text class="cls-11" transform="translate(139.07 119.13) rotate(113.57)">8</text><text class="cls-11" transform="translate(123.95 153.8) rotate(113.57)">10</text><text class="cls-11" transform="translate(146.52 49.03) rotate(113.57)">13</text><text class="cls-11" transform="translate(154.92 29.77) rotate(113.57)">12</text><text class="cls-11" transform="translate(129.72 87.55) rotate(113.57)">15</text><text class="cls-11" transform="translate(121.32 106.8) rotate(113.57)">16</text><text class="cls-11" transform="translate(112.92 126.06) rotate(113.57)">17</text><text class="cls-12" transform="translate(134.33 187.11) rotate(113.57)">2 <tspan class="cls-13" x="7.98" y="0">t</tspan><tspan x="11.11" y="0">o 1</tspan></text><text class="cls-12" transform="translate(115.1 178.72) rotate(113.57)">2 <tspan class="cls-13" x="7.98" y="0">t</tspan><tspan x="11.11" y="0">o 1</tspan></text><text class="cls-12" transform="translate(95.67 170.24) rotate(113.57)">2 <tspan class="cls-13" x="7.98" y="0">t</tspan><tspan x="11.11" y="0">o 1</tspan></text><text class="cls-11" transform="translate(172.67 42.1) rotate(113.57)">5</text></g><path class="cls-14" d="M205.61,112.14a93.37,93.37,0,1,1-93.37-93.37A93.37,93.37,0,0,1,205.61,112.14Zm-2.68,0a90.69,90.69,0,1,0-90.69,90.69A90.79,90.79,0,0,0,202.93,112.14Z"/><path class="cls-15" d="M201.4,225.05l19.74-58.12a15.37,15.37,0,0,0-15.09-20.29L26.63,153l5.77,35.59a15.36,15.36,0,0,0,12.85,12.72Z"/><path class="cls-16" d="M201.4,225.05l19.74-58.12a15.37,15.37,0,0,0-15.09-20.29L26.63,153l5.77,35.59a15.36,15.36,0,0,0,12.85,12.72Z"/><path class="cls-17" d="M196.5,227.88,29.36,202.47a.25.25,0,0,1-.21-.21l-7.56-46.62a.29.29,0,0,1,.05-.2.28.28,0,0,1,.19-.09l201.58-7.14h0a.26.26,0,0,1,.2.1.28.28,0,0,1,0,.23l-26.88,79.17a.26.26,0,0,1-.24.17Zm-174.37-72L29.62,202l166.75,25.35,26.69-78.62Z"/><polygon class="cls-18" points="8.09 180.86 0.81 176.66 8.09 172.46 2.15 166.51 10.27 164.34 6.07 157.06 14.47 157.06 12.3 148.94 20.42 151.11 20.42 142.71 27.7 146.91 29.87 138.79 35.81 144.73 40.02 137.45 44.22 144.73 50.16 138.79 52.34 146.91 59.62 142.71 59.62 151.11 67.74 148.94 65.57 157.06 73.97 157.06 69.77 164.34 77.89 166.51 71.94 172.46 79.22 176.66 71.94 180.86 77.89 186.81 69.77 188.98 73.97 196.26 65.57 196.26 67.74 204.38 59.62 202.21 59.62 210.61 52.34 206.41 50.16 214.53 44.22 208.58 40.02 215.86 35.81 208.58 29.87 214.53 27.7 206.41 20.42 210.61 20.42 202.21 12.3 204.38 14.47 196.26 6.07 196.26 10.27 188.98 2.15 186.81 8.09 180.86"/><polygon class="cls-19" points="8.09 180.86 0.81 176.66 8.09 172.46 2.15 166.51 10.27 164.34 6.07 157.06 14.47 157.06 12.3 148.94 20.42 151.11 20.42 142.71 27.7 146.91 29.87 138.79 35.82 144.73 40.02 137.45 44.22 144.73 50.17 138.79 52.34 146.91 59.62 142.71 59.62 151.11 67.74 148.94 65.57 157.06 73.97 157.06 69.77 164.34 77.89 166.51 71.94 172.46 79.22 176.66 71.94 180.86 77.89 186.81 69.77 188.98 73.97 196.26 65.57 196.26 67.74 204.38 59.62 202.21 59.62 210.61 52.34 206.41 50.17 214.53 44.22 208.58 40.02 215.86 35.82 208.58 29.87 214.53 27.7 206.41 20.42 210.61 20.42 202.21 12.3 204.38 14.47 196.26 6.07 196.26 10.27 188.98 2.15 186.81 8.09 180.86"/><text class="cls-20" transform="translate(21.7 182.23)">10+</text><text class="cls-21" transform="translate(114.84 185.72)">Select</text></g></g></svg>