<svg xmlns="http://www.w3.org/2000/svg" xmlns:xlink="http://www.w3.org/1999/xlink" viewBox="0 0 224.48 227.88"><defs><style>.cls-1{fill:none;}.cls-2{isolation:isolate;}.cls-3{fill:url(#linear-gradient);}.cls-4{fill:url(#linear-gradient-2);}.cls-5{fill:url(#linear-gradient-3);}.cls-10,.cls-18,.cls-6{fill:#fff;}.cls-6{opacity:0.16;mix-blend-mode:hard-light;}.cls-7{clip-path:url(#clip-path);}.cls-8{fill:#f7b515;}.cls-17,.cls-9{fill:#2b2d2e;}.cls-10{font-size:19.43px;font-family:Roboto-Regular, Roboto;}.cls-11{fill:url(#linear-gradient-4);}.cls-12{fill:#d30b0b;}.cls-13{fill:url(#linear-gradient-5);}.cls-14{fill:url(#linear-gradient-6);}.cls-15{fill:#262626;}.cls-16{fill:url(#linear-gradient-7);}.cls-17{font-size:13.49px;}.cls-17,.cls-18{font-family:Flareserif821BT-Bold, "Flareserif 821 BT";font-weight:700;}.cls-18{font-size:19.18px;}</style><linearGradient id="linear-gradient" x1="32.89" y1="191.83" x2="191.59" y2="33.13" gradientUnits="userSpaceOnUse"><stop offset="0" stop-color="#953900"/><stop offset="0.25" stop-color="#c89b14"/><stop offset="0.5" stop-color="#953900"/><stop offset="0.81" stop-color="#c89b14"/><stop offset="1" stop-color="#953900"/></linearGradient><linearGradient id="linear-gradient-2" x1="3.49" y1="112.14" x2="220.99" y2="112.14" gradientUnits="userSpaceOnUse"><stop offset="0" stop-color="#8c0f02"/><stop offset="1" stop-color="#ff1124"/></linearGradient><linearGradient id="linear-gradient-3" x1="35.36" y1="35.6" x2="189.12" y2="189.36" gradientUnits="userSpaceOnUse"><stop offset="0" stop-color="#fab865"/><stop offset="0.25" stop-color="#fffe9e"/><stop offset="0.5" stop-color="#fab865"/><stop offset="0.81" stop-color="#fffe9e"/><stop offset="1" stop-color="#fab865"/></linearGradient><clipPath id="clip-path"><path class="cls-1" d="M205.61,112.14a93.37,93.37,0,1,1-93.37-93.37A93.37,93.37,0,0,1,205.61,112.14Z"/></clipPath><linearGradient id="linear-gradient-4" x1="46.22" y1="46.12" x2="178.26" y2="178.16" xlink:href="#linear-gradient-3"/><linearGradient id="linear-gradient-5" x1="26.63" y1="185.84" x2="221.96" y2="185.84" gradientUnits="userSpaceOnUse"><stop offset="0" stop-color="#ff1124"/><stop offset="1" stop-color="#8c0f02"/></linearGradient><linearGradient id="linear-gradient-6" x1="21.58" y1="188.04" x2="223.67" y2="188.04" gradientUnits="userSpaceOnUse"><stop offset="0" stop-color="#f5cb16"/><stop offset="0.28" stop-color="#fef687"/><stop offset="0.34" stop-color="#f5e063"/><stop offset="0.42" stop-color="#ebc83c"/><stop offset="0.48" stop-color="#e5b924"/><stop offset="0.52" stop-color="#e3b31b"/><stop offset="0.65" stop-color="#f0d24e"/><stop offset="0.79" stop-color="#fff585"/><stop offset="0.87" stop-color="#fbe254"/><stop offset="0.96" stop-color="#f7d227"/><stop offset="1" stop-color="#f5cb16"/></linearGradient><linearGradient id="linear-gradient-7" x1="-0.45" y1="178.8" x2="79.55" y2="178.8" xlink:href="#linear-gradient-6"/></defs><g class="cls-2"><g id="Layer_1" data-name="Layer 1"><path class="cls-3" d="M121.07,224.28a13.75,13.75,0,0,1-8.83-3.19,13.75,13.75,0,0,1-8.83,3.19c-.41,0-.83,0-1.24-.05a13.72,13.72,0,0,1-9.35-4.9,13.74,13.74,0,0,1-6.8,1.8,13.42,13.42,0,0,1-3.67-.5A13.74,13.74,0,0,1,74,214.15a14.08,14.08,0,0,1-4.55.78,13.92,13.92,0,0,1-6-1.37,13.77,13.77,0,0,1-7-7.87,14.09,14.09,0,0,1-2.16.17A13.77,13.77,0,0,1,40.7,194.23a13.8,13.8,0,0,1-13.48-14.09,13.8,13.8,0,0,1-10.74-16.27A13.79,13.79,0,0,1,8.82,146a13.82,13.82,0,0,1-4.34-19,13.77,13.77,0,0,1-.87-19.47A13.8,13.8,0,0,1,6.22,88.14a13.8,13.8,0,0,1,6-18.54,13.79,13.79,0,0,1,9.24-17.16A13.8,13.8,0,0,1,33.64,37.19,13.79,13.79,0,0,1,47.4,24.34l.92,0a13.78,13.78,0,0,1,16.74-10A13.79,13.79,0,0,1,83.31,7.51a13.77,13.77,0,0,1,8.87-5.7,13.57,13.57,0,0,1,2.46-.23A13.87,13.87,0,0,1,102.49,4,13.79,13.79,0,0,1,122,4a13.87,13.87,0,0,1,7.85-2.46,13.57,13.57,0,0,1,2.46.23,13.77,13.77,0,0,1,8.87,5.7,13.71,13.71,0,0,1,5.7-1.23,13.77,13.77,0,0,1,12.55,8.09,13.79,13.79,0,0,1,16.74,10l.92,0a13.79,13.79,0,0,1,13.76,12.85A13.81,13.81,0,0,1,203,52.44a13.78,13.78,0,0,1,9.24,17.16,13.81,13.81,0,0,1,6,18.54,13.78,13.78,0,0,1,2.61,19.32,13.77,13.77,0,0,1-.87,19.47,13.79,13.79,0,0,1-4.34,19A13.79,13.79,0,0,1,208,163.87a13.8,13.8,0,0,1-10.74,16.27,13.8,13.8,0,0,1-13.47,14.09,13.79,13.79,0,0,1-13.62,11.63,14,14,0,0,1-2.15-.17,13.83,13.83,0,0,1-13,9.23,14.07,14.07,0,0,1-4.55-.77,13.76,13.76,0,0,1-8.33,6.48,13.3,13.3,0,0,1-3.66.5,13.77,13.77,0,0,1-6.8-1.8,13.72,13.72,0,0,1-9.35,4.9C121.9,224.26,121.48,224.28,121.07,224.28Z"/><path class="cls-4" d="M103.69,8.05a10.3,10.3,0,0,1,17.1,0l.74,1.1.92-1a10.3,10.3,0,0,1,16.83,3.05l.52,1.22,1.08-.77a10.3,10.3,0,0,1,16,6l.3,1.3,1.2-.57a10.29,10.29,0,0,1,14.68,8.77l.07,1.32,1.28-.34a10.29,10.29,0,0,1,12.87,11.25l-.16,1.31,1.31-.1A10.29,10.29,0,0,1,199.11,54l-.41,1.26,1.32.14a10.29,10.29,0,0,1,8.11,15.05l-.62,1.17,1.27.36a10.29,10.29,0,0,1,5.28,16.26l-.81,1.05,1.19.58a10.3,10.3,0,0,1,2.29,16.94l-1,.88,1.07.79a10.29,10.29,0,0,1-.77,17.08l-1.13.69.91,1A10.3,10.3,0,0,1,212,143.88l-1.23.48.71,1.11a10.29,10.29,0,0,1-6.71,15.72l-1.31.24.51,1.23a10.29,10.29,0,0,1-9.41,14.27h-1.33l.29,1.29a10.3,10.3,0,0,1-11.82,12.36l-1.3-.23,0,1.32a10.29,10.29,0,0,1-13.83,10.06l-1.24-.46-.19,1.31a10.29,10.29,0,0,1-15.4,7.42l-1.14-.67-.42,1.26a10.3,10.3,0,0,1-16.49,4.55l-1-.87-.64,1.16a10.29,10.29,0,0,1-17,1.53l-.83-1-.83,1a10.29,10.29,0,0,1-17-1.53l-.64-1.16-1,.87a10.3,10.3,0,0,1-16.49-4.55l-.41-1.26-1.15.67a10.29,10.29,0,0,1-15.4-7.42l-.18-1.31-1.25.46A10.29,10.29,0,0,1,44,191.68l0-1.32-1.31.23A10.29,10.29,0,0,1,31,178.23l.28-1.29H29.91a10.31,10.31,0,0,1-9.42-14.27l.52-1.23-1.31-.24A10.29,10.29,0,0,1,13,145.47l.72-1.11-1.24-.48a10.29,10.29,0,0,1-3.8-16.67l.91-1-1.14-.69a10.29,10.29,0,0,1-.76-17.08l1.06-.79-1-.88a10.29,10.29,0,0,1,2.3-16.94l1.18-.58-.82-1.05A10.3,10.3,0,0,1,15.7,72L17,71.62l-.62-1.17A10.29,10.29,0,0,1,24.46,55.4l1.32-.14L25.37,54A10.29,10.29,0,0,1,36,40.64l1.33.1-.17-1.31A10.29,10.29,0,0,1,50.06,28.18l1.28.34.07-1.32a10.29,10.29,0,0,1,14.68-8.77l1.2.57.3-1.3a10.3,10.3,0,0,1,16-6l1.08.77.53-1.22a10.28,10.28,0,0,1,16.82-3l.92.94Z"/><path class="cls-5" d="M103.69,8.05a10.3,10.3,0,0,1,17.1,0l.74,1.1.92-1a10.3,10.3,0,0,1,16.83,3.05l.52,1.22,1.08-.77a10.3,10.3,0,0,1,16,6l.3,1.3,1.2-.57a10.29,10.29,0,0,1,14.68,8.77l.07,1.32,1.28-.34a10.29,10.29,0,0,1,12.87,11.25l-.16,1.31,1.31-.1A10.29,10.29,0,0,1,199.11,54l-.41,1.26,1.32.14a10.29,10.29,0,0,1,8.11,15.05l-.62,1.17,1.27.36a10.29,10.29,0,0,1,5.28,16.26l-.81,1.05,1.19.58a10.3,10.3,0,0,1,2.29,16.94l-1,.88,1.07.79a10.29,10.29,0,0,1-.77,17.08l-1.13.69.91,1A10.3,10.3,0,0,1,212,143.88l-1.23.48.71,1.11a10.29,10.29,0,0,1-6.71,15.72l-1.31.24.51,1.23a10.29,10.29,0,0,1-9.41,14.27h-1.33l.29,1.29a10.3,10.3,0,0,1-11.82,12.36l-1.3-.23,0,1.32a10.29,10.29,0,0,1-13.83,10.06l-1.24-.46-.19,1.31a10.29,10.29,0,0,1-15.4,7.42l-1.14-.67-.42,1.26a10.3,10.3,0,0,1-16.49,4.55l-1-.87-.64,1.16a10.29,10.29,0,0,1-17,1.53l-.83-1-.83,1a10.29,10.29,0,0,1-17-1.53l-.64-1.16-1,.87a10.3,10.3,0,0,1-16.49-4.55l-.41-1.26-1.15.67a10.29,10.29,0,0,1-15.4-7.42l-.18-1.31-1.25.46A10.29,10.29,0,0,1,44,191.68l0-1.32-1.31.23A10.29,10.29,0,0,1,31,178.23l.28-1.29H29.91a10.31,10.31,0,0,1-9.42-14.27l.52-1.23-1.31-.24A10.29,10.29,0,0,1,13,145.47l.72-1.11-1.24-.48a10.29,10.29,0,0,1-3.8-16.67l.91-1-1.14-.69a10.29,10.29,0,0,1-.76-17.08l1.06-.79-1-.88a10.29,10.29,0,0,1,2.3-16.94l1.18-.58-.82-1.05A10.3,10.3,0,0,1,15.7,72L17,71.62l-.62-1.17A10.29,10.29,0,0,1,24.46,55.4l1.32-.14L25.37,54A10.29,10.29,0,0,1,36,40.64l1.33.1-.17-1.31A10.29,10.29,0,0,1,50.06,28.18l1.28.34.07-1.32a10.29,10.29,0,0,1,14.68-8.77l1.2.57.3-1.3a10.3,10.3,0,0,1,16-6l1.08.77.53-1.22a10.28,10.28,0,0,1,16.82-3l.92.94ZM210,112.14a97.78,97.78,0,1,0-97.78,97.78A97.89,97.89,0,0,0,210,112.14Z"/><path class="cls-6" d="M220.1,97.73a10.29,10.29,0,0,0-5.66-7.86l-1.19-.58.81-1.05A10.29,10.29,0,0,0,208.78,72l-1.27-.36.62-1.17A10.29,10.29,0,0,0,200,55.4l-1.32-.14.41-1.26a10.29,10.29,0,0,0-10.67-13.36l-1.31.1.16-1.31a10.29,10.29,0,0,0-12.87-11.25l-1.28.34-.07-1.32a10.29,10.29,0,0,0-14.68-8.77l-1.2.57-.3-1.3a10.3,10.3,0,0,0-16-6l-1.08.77-.52-1.22A10.3,10.3,0,0,0,122.45,8.2l-.92,1-.74-1.1a10.3,10.3,0,0,0-17.1,0L103,9.15,102,8.21a10.28,10.28,0,0,0-16.82,3l-.53,1.22L83.6,11.7a10.3,10.3,0,0,0-16,6l-.3,1.3-1.2-.57A10.29,10.29,0,0,0,51.41,27.2l-.07,1.32-1.28-.34A10.29,10.29,0,0,0,37.19,39.43l.17,1.31L36,40.64A10.29,10.29,0,0,0,25.37,54l.41,1.26-1.32.14a10.29,10.29,0,0,0-8.11,15.05L17,71.62,15.7,72a10.3,10.3,0,0,0-5.29,16.26l.82,1.05-1.18.58a10.28,10.28,0,0,0-3.25,16C38.59,117.05,74.55,123,112.24,123s73.65-5.9,105.44-17.11A10.26,10.26,0,0,0,220.1,97.73Z"/><g class="cls-7"><rect class="cls-8" x="180.39" y="60.78" width="27.26" height="27.26"/><rect class="cls-9" x="180.39" y="88.02" width="27.26" height="27.26"/><rect class="cls-8" x="180.39" y="115.26" width="27.26" height="27.26"/><rect class="cls-9" x="16.84" y="60.78" width="54.52" height="27.26"/><rect class="cls-8" x="71.35" y="60.78" width="27.26" height="27.26"/><rect class="cls-9" x="98.61" y="60.78" width="27.26" height="27.26"/><rect class="cls-8" x="125.87" y="60.78" width="27.26" height="27.26"/><rect class="cls-9" x="153.13" y="60.78" width="27.26" height="27.26"/><rect class="cls-9" x="16.84" y="88.02" width="27.26" height="27.26"/><rect class="cls-8" x="44.1" y="88.02" width="27.26" height="27.26"/><rect class="cls-9" x="71.35" y="88.02" width="27.26" height="27.26"/><rect class="cls-8" x="98.61" y="88.02" width="27.26" height="27.26"/><rect class="cls-9" x="125.87" y="88.02" width="27.26" height="27.26"/><rect class="cls-8" x="153.13" y="88.02" width="27.26" height="27.26"/><rect class="cls-8" x="16.84" y="115.26" width="27.26" height="27.26"/><rect class="cls-9" x="44.1" y="115.26" width="27.26" height="27.26"/><rect class="cls-8" x="71.35" y="115.26" width="27.26" height="27.26"/><rect class="cls-9" x="98.61" y="115.26" width="27.26" height="27.26"/><rect class="cls-8" x="125.87" y="115.26" width="27.26" height="27.26"/><rect class="cls-9" x="153.13" y="115.26" width="27.26" height="27.26"/><text class="cls-10" transform="translate(38.64 80.5)">0</text><text class="cls-10" transform="translate(106.79 80.5)">2</text><text class="cls-10" transform="translate(134.05 80.5)">3</text><text class="cls-10" transform="translate(161.3 80.5)">4</text><text class="cls-10" transform="translate(79.53 107.71)">8</text><text class="cls-10" transform="translate(106.79 107.71)">9</text><text class="cls-10" transform="translate(128.59 107.71)">10</text><text class="cls-10" transform="translate(183.11 107.71)">12</text><text class="cls-10" transform="translate(46.81 135.22)">14</text><text class="cls-10" transform="translate(19.56 135.22)">13</text><text class="cls-10" transform="translate(101.33 135.22)">16</text><text class="cls-10" transform="translate(128.59 135.22)">17</text><text class="cls-10" transform="translate(155.85 135.22)">18</text><text class="cls-10" transform="translate(25.01 107.71)">6</text></g><path class="cls-11" d="M205.61,112.14a93.37,93.37,0,1,1-93.37-93.37A93.37,93.37,0,0,1,205.61,112.14Zm-2.68,0a90.69,90.69,0,1,0-90.69,90.69A90.79,90.79,0,0,0,202.93,112.14Z"/><path class="cls-12" d="M201.4,225.05l19.74-58.12a15.37,15.37,0,0,0-15.09-20.29L26.63,153l5.77,35.59a15.36,15.36,0,0,0,12.85,12.72Z"/><path class="cls-13" d="M201.4,225.05l19.74-58.12a15.37,15.37,0,0,0-15.09-20.29L26.63,153l5.77,35.59a15.36,15.36,0,0,0,12.85,12.72Z"/><path class="cls-14" d="M196.5,227.88,29.36,202.47a.25.25,0,0,1-.21-.21l-7.56-46.62a.29.29,0,0,1,.05-.2.28.28,0,0,1,.19-.09l201.58-7.14h0a.26.26,0,0,1,.2.1.28.28,0,0,1,0,.23l-26.88,79.17a.26.26,0,0,1-.24.17Zm-174.37-72L29.62,202l166.75,25.35,26.69-78.62Z"/><polygon class="cls-15" points="15.32 182.06 9.69 178.8 15.32 175.55 10.72 170.95 17 169.27 13.75 163.64 20.25 163.64 18.57 157.36 24.85 159.04 24.85 152.54 30.48 155.79 32.17 149.51 36.77 154.1 40.02 148.47 43.27 154.1 47.87 149.51 49.55 155.79 55.18 152.54 55.18 159.04 61.47 157.36 59.78 163.64 66.29 163.64 63.03 169.27 69.31 170.95 64.72 175.55 70.35 178.8 64.72 182.06 69.31 186.65 63.03 188.34 66.29 193.97 59.78 193.97 61.47 200.25 55.18 198.57 55.18 205.07 49.55 201.82 47.87 208.1 43.27 203.5 40.02 209.13 36.77 203.5 32.17 208.1 30.48 201.82 24.85 205.07 24.85 198.57 18.57 200.25 20.25 193.97 13.75 193.97 17 188.34 10.72 186.65 15.32 182.06"/><polygon class="cls-16" points="15.32 182.06 9.69 178.8 15.32 175.55 10.72 170.95 17 169.27 13.75 163.64 20.25 163.64 18.57 157.36 24.85 159.04 24.85 152.54 30.48 155.79 32.17 149.51 36.77 154.1 40.02 148.47 43.27 154.1 47.87 149.51 49.55 155.79 55.18 152.54 55.18 159.04 61.47 157.36 59.78 163.64 66.29 163.64 63.03 169.27 69.31 170.95 64.72 175.55 70.35 178.8 64.72 182.06 69.31 186.65 63.03 188.34 66.29 193.97 59.78 193.97 61.47 200.25 55.18 198.57 55.18 205.07 49.55 201.82 47.87 208.1 43.27 203.5 40.02 209.13 36.77 203.5 32.17 208.1 30.48 201.82 24.85 205.07 24.85 198.57 18.57 200.25 20.25 193.97 13.75 193.97 17 188.34 10.72 186.65 15.32 182.06"/><text class="cls-17" transform="translate(30.12 183.12)">5+</text><text class="cls-18" transform="translate(105.88 187.72)">Select</text></g></g></svg>