<svg id="Layer_1" data-name="Layer 1" xmlns="http://www.w3.org/2000/svg" viewBox="0 0 33.6 24.48"><defs><style>.cls-1{fill:#fff;}</style></defs><path class="cls-1" d="M17,24.48c-2.6-.35-5.21-.58-7.78-1.08C7.3,23,7,22.4,7.47,20.46a9,9,0,0,1,5.28-6.23A1.73,1.73,0,0,1,14,14.3a6.4,6.4,0,0,0,5.63,0,1.67,1.67,0,0,1,1.28,0c2.9,1.45,5,3.54,5.46,6.94.17,1.26-.07,1.85-1.37,2.15a46.9,46.9,0,0,1-5.27.81,22.59,22.59,0,0,1-2.73,0Z"/><path class="cls-1" d="M21.83,8.76a5,5,0,0,1-5.08,5.06,5.09,5.09,0,1,1,5.08-5.06Z"/><path class="cls-1" d="M20.86,13.28l2-3.42a6,6,0,0,0,4.9-.32,1.07,1.07,0,0,1,.84,0c2.65,1.28,4.6,3.14,5,6.24.17,1.33-.07,1.81-1.41,2.09-1.8.38-3.64.57-5.47.84A11.32,11.32,0,0,0,20.86,13.28Z"/><path class="cls-1" d="M10.69,9.77l2,3.52a9.47,9.47,0,0,0-4.43,3.6A2.62,2.62,0,0,1,5,18.36c-1.33-.28-2.66-.51-4-.85a1.33,1.33,0,0,1-1-1.66A8,8,0,0,1,4.7,9.58,1.66,1.66,0,0,1,6,9.5,5.91,5.91,0,0,0,10.69,9.77Z"/><path class="cls-1" d="M8.6,0a4.53,4.53,0,0,1,4.33,3.15,1.12,1.12,0,0,1-.31,1.38,5.11,5.11,0,0,0-1.68,3.3,1.13,1.13,0,0,1-1,1.11A4.46,4.46,0,0,1,5.12,7.59a4.34,4.34,0,0,1-.71-5A4.32,4.32,0,0,1,8.6,0Z"/><path class="cls-1" d="M29.47,4.67A4.53,4.53,0,0,1,23.4,9a1.42,1.42,0,0,1-.74-.93,5.61,5.61,0,0,0-1.73-3.5A1.19,1.19,0,0,1,20.62,3a4.59,4.59,0,0,1,5-2.87A4.49,4.49,0,0,1,29.47,4.67Z"/></svg>