<svg xmlns="http://www.w3.org/2000/svg" xmlns:xlink="http://www.w3.org/1999/xlink" viewBox="0 0 31.79 31.79"><defs><style>.cls-1{fill:url(#linear-gradient);}</style><linearGradient id="linear-gradient" y1="15.89" x2="31.79" y2="15.89" gradientUnits="userSpaceOnUse"><stop offset="0" stop-color="#8c0f02"/><stop offset="1" stop-color="#ff1124"/></linearGradient></defs><g id="Layer_2" data-name="Layer 2"><g id="Layer_1-2" data-name="Layer 1"><path class="cls-1" d="M31.79,11.49c-.09.55-.16,1.1-.27,1.65a10,10,0,0,1-1.24,3.12.3.3,0,0,0,0,.43.73.73,0,0,1,0,1,11.55,11.55,0,0,1-2.56,2.52.83.83,0,0,1-1,0,.35.35,0,0,0-.42,0,10.67,10.67,0,0,1-11.12-.3L15,19.72a1.48,1.48,0,0,1-.21.3l-11,11a2.15,2.15,0,0,1-2.33.65,2.11,2.11,0,0,1-1-3.25A6,6,0,0,1,.84,28Q6.3,22.49,11.77,17a2.09,2.09,0,0,1,.29-.23A11.48,11.48,0,0,1,10.73,14a10.68,10.68,0,0,1,.79-8.32c.15-.28.24-.49,0-.78a.75.75,0,0,1,.07-.9A12,12,0,0,1,14.1,1.5a.78.78,0,0,1,1.05,0,.37.37,0,0,0,.29,0A10.89,10.89,0,0,1,20.21,0l.09,0h1.49A.55.55,0,0,0,22,.05a10.45,10.45,0,0,1,5,1.76A10.55,10.55,0,0,1,31.48,8.3c.14.56.21,1.13.31,1.7Zm-3.06,4.18A9.12,9.12,0,0,0,16.11,3.09c.85,1.06,1.67,2.14,2.55,3.17a64,64,0,0,0,5.62,5.79.84.84,0,0,1,.14,1.23.83.83,0,0,1-1.23,0c-.76-.71-1.52-1.42-2.25-2.15a52.32,52.32,0,0,1-6-6.94l-.58-.85-.47.55c-.2.23-.57.46-.57.7s.3.56.5.83a62.56,62.56,0,0,0,9.94,10.5c1,.88,2.16,1.68,3.24,2.5a.39.39,0,0,0,.34,0c.38-.31.73-.66,1.12-1L27.91,17l-2.42-1.79a.83.83,0,0,1-.26-1,.78.78,0,0,1,.9-.44,1.32,1.32,0,0,1,.48.26C27.32,14.58,28,15.12,28.73,15.67ZM25,19A67.57,67.57,0,0,1,12.81,6.8,9.11,9.11,0,0,0,25,19ZM13,18.07l-.14.13-11,11-.15.16a.46.46,0,0,0,.05.65.45.45,0,0,0,.62,0,2.73,2.73,0,0,0,.25-.23L13.5,19a1.46,1.46,0,0,1,.3-.17Z"/></g></g></svg>