<svg xmlns="http://www.w3.org/2000/svg" xmlns:xlink="http://www.w3.org/1999/xlink" viewBox="0 0 35.72 35.72"><defs><style>.cls-1{fill:url(#linear-gradient);}</style><linearGradient id="linear-gradient" y1="17.86" x2="35.72" y2="17.86" gradientUnits="userSpaceOnUse"><stop offset="0" stop-color="#8c0f02"/><stop offset="1" stop-color="#ff1124"/></linearGradient></defs><g id="Layer_2" data-name="Layer 2"><g id="Layer_1-2" data-name="Layer 1"><path class="cls-1" d="M23.3,0a4.07,4.07,0,0,1,.52.41L35.31,11.9c.55.54.54.85,0,1.4l-9.57,9.57-.32.33.28.22c.58.59.58.86,0,1.45l-3.2,3.21a2.43,2.43,0,0,1-.29.26.68.68,0,0,1-1.06-.3c-.06-.12-.1-.25-.18-.46-.12.15-.19.26-.28.35l-7.34,7.35c-.58.58-.88.58-1.46,0L.48,23.89A6.86,6.86,0,0,1,0,23.3V23c.15-.18.28-.39.45-.56Q4.14,18.7,7.82,15a2.36,2.36,0,0,1,.31-.2,1.59,1.59,0,0,0-.35-.19.7.7,0,0,1-.31-1.21q1.79-1.8,3.58-3.57a.71.71,0,0,1,1.08,0c.14.14.26.29.43.49.13-.16.2-.26.29-.35L22.39.45c.17-.17.38-.3.56-.45ZM12.62,34l.23-.22,7.43-7.42a.48.48,0,0,0,.15-.57c-.27-.8-.52-1.61-.75-2.42a.5.5,0,0,0-.39-.39c-1.46-.44-2.92-.91-4.39-1.34a1.09,1.09,0,0,1-.81-.81c-.43-1.46-.89-2.91-1.33-4.37a.54.54,0,0,0-.4-.41c-.84-.24-1.66-.51-2.5-.75a.45.45,0,0,0-.39.07L1.8,23s0,.06-.06.08Zm1-22.71,4.85,4.84,4.19-4.19L17.82,7.07Zm6,5.93,4.89,4.89,4.18-4.19L23.76,13ZM23.15,1.79,18.94,6l4.85,4.85L28,6.63Zm6.6,15,4.18-4.17L29.06,7.76,24.88,12ZM11.59,11.37,9.33,13.63l.32.11c1.19.37,2.39.75,3.59,1.11a1,1,0,0,1,.72.72c.45,1.49.92,3,1.37,4.46a.46.46,0,0,0,.36.36c1.47.45,2.94.92,4.42,1.36a1,1,0,0,1,.78.79c.38,1.29.79,2.57,1.19,3.85l2.24-2.3Z"/></g></g></svg>