<svg xmlns="http://www.w3.org/2000/svg" xmlns:xlink="http://www.w3.org/1999/xlink" viewBox="0 0 21.08 35.34"><defs><style>.cls-1{fill:url(#linear-gradient);}.cls-2{fill:url(#linear-gradient-2);}.cls-3{fill:url(#linear-gradient-3);}</style><linearGradient id="linear-gradient" y1="17.67" x2="21.08" y2="17.67" gradientUnits="userSpaceOnUse"><stop offset="0" stop-color="#8c0f02"/><stop offset="1" stop-color="#ff1124"/></linearGradient><linearGradient id="linear-gradient-2" x1="5.18" y1="5.02" x2="10.48" y2="5.02" xlink:href="#linear-gradient"/><linearGradient id="linear-gradient-3" x1="14.55" y1="9.87" x2="17.5" y2="9.87" xlink:href="#linear-gradient"/></defs><g id="Layer_2" data-name="Layer 2"><g id="Layer_1-2" data-name="Layer 1"><path class="cls-1" d="M10.33,35.34a3.89,3.89,0,0,1-.49-.68Q6.4,26.14,3,17.62a.85.85,0,0,0-.44-.49A4.49,4.49,0,0,1,.68,10.71a1,1,0,0,0,.11-.57A4.48,4.48,0,0,1,2.32,5.9a.71.71,0,0,0,.22-.33A6.24,6.24,0,0,1,6.22,1a8.81,8.81,0,0,1,9.41.81,5.9,5.9,0,0,1,2.29,3.26.62.62,0,0,0,.26.33,4.55,4.55,0,0,1,2.24,5.07.73.73,0,0,0,.08.48,4.43,4.43,0,0,1-1.93,6.18.83.83,0,0,0-.47.5q-3.44,8.55-6.88,17.08a2.85,2.85,0,0,1-.47.64ZM19.11,9.49a3.15,3.15,0,0,0-1.87-3,1,1,0,0,1-.63-.76,4.42,4.42,0,0,0-1.82-2.86,7.53,7.53,0,0,0-8.22-.64A4.91,4.91,0,0,0,3.69,6.08a1.13,1.13,0,0,1-.44.66,3.09,3.09,0,0,0-1.18,3.47,1,1,0,0,1-.2,1,3,3,0,0,0-.65,2.28,3.15,3.15,0,0,0,3.86,2.74,6.43,6.43,0,0,0,1.46-.73.64.64,0,0,1,1,.23c0,.07.08.14.13.21a3.16,3.16,0,0,0,5.47,0c.52-.88.74-.92,1.55-.26l.08.06a3,3,0,0,0,4.47-1A3.07,3.07,0,0,0,19,11.55a1.17,1.17,0,0,1-.12-1.13A5,5,0,0,0,19.11,9.49ZM10.34,25.58,12.73,23l-2.39-2.52L8,23Zm.93-6.11L13.66,22l2.25-2.46-2.07-2.2a6.85,6.85,0,0,1-1.14.88A5.5,5.5,0,0,0,11.27,19.47ZM7,22l2.42-2.55c-.45-.38-.85-.75-1.27-1.09s-.88-.66-1.34-1l-1.77,1.9a.25.25,0,0,0,0,.21,2.43,2.43,0,0,0,.33.71C5.88,20.79,6.44,21.37,7,22Zm3.44,10.92.2-.44c.3-.72.54-1.47.9-2.16a1.2,1.2,0,0,0-.3-1.73,9.1,9.1,0,0,1-.92-1L9.08,29a.36.36,0,0,0-.06.3C9.48,30.45,10,31.64,10.46,32.92Zm2.06-5c.06-.13.11-.23.15-.33.4-1,.78-2,1.19-3a.43.43,0,0,0-.23-.65l-2.36,2.56ZM9.41,26.57,7,23.91a16.81,16.81,0,0,0,1.38,3.75ZM16,17.63l.46.51.19-.44Z"/><path class="cls-2" d="M9.75,2.49a.64.64,0,0,1,.71.51.66.66,0,0,1-.43.77c-.45.19-.93.33-1.37.55A3.78,3.78,0,0,0,6.52,6.9a.71.71,0,0,1-.85.62c-.4-.1-.57-.46-.46-1a5.53,5.53,0,0,1,4.34-4Z"/><path class="cls-3" d="M17.5,11a1.09,1.09,0,0,1,0,.28.64.64,0,0,1-.67.51.57.57,0,0,1-.61-.57,2.07,2.07,0,0,0-1.26-2,.63.63,0,0,1-.32-.87A.69.69,0,0,1,15.53,8,3.25,3.25,0,0,1,17.5,11Z"/></g></g></svg>