<svg xmlns="http://www.w3.org/2000/svg" xmlns:xlink="http://www.w3.org/1999/xlink" viewBox="0 0 36.84 34.02"><defs><style>.cls-1{fill:url(#linear-gradient);}.cls-2{fill:url(#linear-gradient-2);}.cls-3{fill:url(#linear-gradient-3);}.cls-4{fill:url(#linear-gradient-4);}.cls-5{fill:url(#linear-gradient-5);}.cls-6{fill:url(#linear-gradient-6);}.cls-7{fill:url(#linear-gradient-7);}.cls-8{fill:url(#linear-gradient-8);}.cls-9{fill:url(#linear-gradient-9);}.cls-10{fill:url(#linear-gradient-10);}.cls-11{fill:url(#linear-gradient-11);}.cls-12{fill:url(#linear-gradient-12);}</style><linearGradient id="linear-gradient" y1="17.01" x2="36.84" y2="17.01" gradientUnits="userSpaceOnUse"><stop offset="0" stop-color="#8c0f02"/><stop offset="1" stop-color="#ff1124"/></linearGradient><linearGradient id="linear-gradient-2" x1="13.97" y1="15.61" x2="19.54" y2="15.61" xlink:href="#linear-gradient"/><linearGradient id="linear-gradient-3" x1="22.15" y1="12.17" x2="23.67" y2="12.17" xlink:href="#linear-gradient"/><linearGradient id="linear-gradient-4" x1="9.82" y1="16.09" x2="11.39" y2="16.09" xlink:href="#linear-gradient"/><linearGradient id="linear-gradient-5" x1="20.95" y1="15.49" x2="22.45" y2="15.49" xlink:href="#linear-gradient"/><linearGradient id="linear-gradient-6" x1="12.02" y1="13.26" x2="13.52" y2="13.26" xlink:href="#linear-gradient"/><linearGradient id="linear-gradient-7" x1="5.88" y1="23.88" x2="7.39" y2="23.88" xlink:href="#linear-gradient"/><linearGradient id="linear-gradient-8" x1="8.11" y1="18.84" x2="9.61" y2="18.84" xlink:href="#linear-gradient"/><linearGradient id="linear-gradient-9" x1="19.33" y1="10.49" x2="20.77" y2="10.49" xlink:href="#linear-gradient"/><linearGradient id="linear-gradient-10" x1="2.79" y1="25.58" x2="4.3" y2="25.58" xlink:href="#linear-gradient"/><linearGradient id="linear-gradient-11" x1="12.29" y1="18.84" x2="13.77" y2="18.84" xlink:href="#linear-gradient"/><linearGradient id="linear-gradient-12" x1="25.14" y1="13.82" x2="26.62" y2="13.82" xlink:href="#linear-gradient"/></defs><g id="Layer_2" data-name="Layer 2"><g id="Layer_1-2" data-name="Layer 1"><path class="cls-1" d="M15.78,5.23a3.3,3.3,0,0,1-.22-3.53A3.18,3.18,0,0,1,19.5.18,36.68,36.68,0,0,1,32.63,7.34c1.13,1,2.2,2,3.25,3.1a3.27,3.27,0,0,1-1.07,5.34q-3.54,1.55-7.11,3a.48.48,0,0,0-.35.55q0,.6,0,1.2a1.67,1.67,0,1,1-3.34.09c0-.06,0-.12,0-.21l-.34.12L8.68,27a.41.41,0,0,0-.3.46,18.69,18.69,0,0,1,0,2A1.9,1.9,0,0,1,5.74,31.1a1.83,1.83,0,0,1-1.26-1.73c0-.24,0-.49,0-.73s0-.45-.29-.45-.26.23-.26.43c0,1.09,0,2.17,0,3.26a3.23,3.23,0,0,1-.07.69,1.88,1.88,0,0,1-2,1.44A1.85,1.85,0,0,1,0,32.37c0-.5,0-1,0-1.51C0,29.45,0,28,0,26.64a11.4,11.4,0,0,1,3-7.36l8.14-9,4.4-4.85C15.67,5.38,15.72,5.3,15.78,5.23ZM13.57,21.45l.39-.17,8.71-3.75a1.67,1.67,0,0,1,2.46,1.6c0,.48,0,1,0,1.43a.74.74,0,0,0,.25.52.54.54,0,0,0,.52,0,.86.86,0,0,0,.31-.57c0-.82,0-1.65,0-2.48a2.85,2.85,0,0,1,1.93-2.91c.73-.3,1.44-.62,2.17-.94C27.88,11.38,18,5.45,16.65,6c1.4,1.44,1.61,2.91.58,4.13a2.68,2.68,0,0,1-1.76,1,2.77,2.77,0,0,1-2.59-1L5.77,18a2.85,2.85,0,0,1,.39,3.77c-.86,1.15-2.27,1.4-3.88.65a8.86,8.86,0,0,0-1,2.91,50.92,50.92,0,0,0-.16,6.88.72.72,0,0,0,.73.71c.6,0,.92-.3.92-1,0-1.15,0-2.3,0-3.44a1.34,1.34,0,0,1,1.38-1.37,1.35,1.35,0,0,1,1.39,1.36,6.07,6.07,0,0,0,0,1,1.1,1.1,0,0,0,.44.62.79.79,0,0,0,1.19-.73c0-.83,0-1.66,0-2.48a3.88,3.88,0,0,1,1.09-2.74.45.45,0,0,0,.14-.5,2.78,2.78,0,0,1,5.08-2.11Zm16.66-8.92c.86-2.3,1.18-2.62,3.16-3.11L33,9.16C31.7,8.11,30.43,7,29.06,6a35.42,35.42,0,0,0-9.78-4.74,2.13,2.13,0,0,0-3,1.91,1.58,1.58,0,0,0,1.11,1.75,37.81,37.81,0,0,1,11.66,6.59Zm-2.85,5.23.42-.17,4.72-2c.69-.29,1.39-.56,2.06-.89a2.16,2.16,0,1,0-2.09-3.78,2.19,2.19,0,0,0-.76,3c.32.51.23.82-.32,1.06l-2.95,1.27A1.67,1.67,0,0,0,27.38,17.76ZM8.53,25.87l7.06-3,8.1-3.48c.21-.09.42-.18.29-.43a.92.92,0,0,0-.46-.43c-.13-.06-.35,0-.51.11l-7.53,3.25-5.29,2.28A2.86,2.86,0,0,0,8.53,25.87ZM13.68,9.23a1.57,1.57,0,0,0,1.81.73,1.61,1.61,0,0,0,1.26-1.53,1.55,1.55,0,0,0-1-1.53ZM5,18.82l-2.12,2.5a1.68,1.68,0,0,0,2.38-.19A1.62,1.62,0,0,0,5,18.82Zm4.59,4.37,3-1.28a1.49,1.49,0,0,0-1.89-.58A1.58,1.58,0,0,0,9.54,23.19Z"/><path class="cls-2" d="M14,15.63a2.79,2.79,0,1,1,2.8,2.76A2.76,2.76,0,0,1,14,15.63ZM16.76,14a1.65,1.65,0,1,0,1.66,1.66A1.61,1.61,0,0,0,16.76,14Z"/><path class="cls-3" d="M22.55,11.41c.46,0,1.15.65,1.12,1a.71.71,0,0,1-.26.47.67.67,0,0,1-.57,0,2,2,0,0,1-.62-.61.75.75,0,0,1,0-.57C22.27,11.54,22.48,11.46,22.55,11.41Z"/><path class="cls-4" d="M11.39,16.34a.53.53,0,0,1-.83.44,2.51,2.51,0,0,1-.65-.65.54.54,0,0,1,.47-.82A1.42,1.42,0,0,1,11.39,16.34Z"/><path class="cls-5" d="M22.45,15.33a1.37,1.37,0,0,1-.9.91.53.53,0,0,1-.52-.79,2,2,0,0,1,.62-.62A.53.53,0,0,1,22.45,15.33Z"/><path class="cls-6" d="M13.52,13.06a1.23,1.23,0,0,1-1,.94.53.53,0,0,1-.42-.82,2.11,2.11,0,0,1,.6-.59A.54.54,0,0,1,13.52,13.06Z"/><path class="cls-7" d="M7.39,23.59a1.37,1.37,0,0,1-.92,1A.54.54,0,0,1,6,23.82a2.32,2.32,0,0,1,.63-.62.65.65,0,0,1,.53,0C7.26,23.3,7.33,23.51,7.39,23.59Z"/><path class="cls-8" d="M8.67,19.58a.52.52,0,0,1-.48-.78,2.19,2.19,0,0,1,.62-.63.53.53,0,0,1,.8.47A1.24,1.24,0,0,1,8.67,19.58Z"/><path class="cls-9" d="M20.77,10.15c0,.47-.58,1.09-.94,1a.68.68,0,0,1-.46-.28.69.69,0,0,1,0-.56,1.34,1.34,0,0,1,.51-.52.8.8,0,0,1,.57,0C20.63,9.87,20.72,10.08,20.77,10.15Z"/><path class="cls-10" d="M4.3,25.8a2.15,2.15,0,0,1-.47.38c-.24.11-.87-.25-1-.5S2.77,25.12,3,25a1.18,1.18,0,0,1,.72,0A.73.73,0,0,1,4.3,25.8Z"/><path class="cls-11" d="M13.77,19a.52.52,0,0,1-.58.52c-.43,0-.9-.41-.9-.75a.56.56,0,0,1,.57-.56C13.28,18.19,13.78,18.63,13.77,19Z"/><path class="cls-12" d="M25.68,13.16c.4,0,.94.44.94.76a.55.55,0,0,1-.57.55,1,1,0,0,1-.91-.73A.55.55,0,0,1,25.68,13.16Z"/></g></g></svg>