<svg xmlns="http://www.w3.org/2000/svg" xmlns:xlink="http://www.w3.org/1999/xlink" viewBox="0 0 50.18 30.85"><defs><style>.cls-1{fill:url(#linear-gradient);}</style><linearGradient id="linear-gradient" x1="-12.62" y1="15.43" x2="68.31" y2="15.43" gradientUnits="userSpaceOnUse"><stop offset="0" stop-color="#8c0f02"/><stop offset="1" stop-color="#ff1124"/></linearGradient></defs><g id="Layer_2" data-name="Layer 2"><g id="Layer_1-2" data-name="Layer 1"><path class="cls-1" d="M35.83,11.47a10.14,10.14,0,1,1-3.92,15.26,9.79,9.79,0,0,1-1.86-7.68,10.08,10.08,0,0,1,4.23-6.69l-1.68-3c-1.78,3.1-3.53,6.15-5.28,9.22.05.08.11.15.17.23A3,3,0,0,1,25,23.71a2.87,2.87,0,0,1-2.66-1.81.45.45,0,0,0-.5-.33c-.53,0-1.05,0-1.58,0a10.15,10.15,0,1,1-5.92-10.12,1.64,1.64,0,0,0,.14-.22l2-3.48a.39.39,0,0,0,0-.46C16,6.55,15.6,5.8,15.19,5a.38.38,0,0,0-.38-.22H11.25c-.62,0-1-.35-1-.89a.9.9,0,0,1,1-.89H20a.9.9,0,1,1,0,1.79H17.13l.15.29c2.32,4.09,4.66,8.19,7,12.29a.43.43,0,0,0,.51.26,2.84,2.84,0,0,1,.77,0,.3.3,0,0,0,.34-.17c1.86-3.26,3.74-6.52,5.6-9.78a.48.48,0,0,0,0-.37c-.52-.94-1.06-1.87-1.59-2.81a.94.94,0,0,1,.4-1.51c1.72-1,3.43-1.95,5.15-2.91a.89.89,0,1,1,.87,1.55L32.06,4.09l-.31.19,4.08,7.19M35.19,14a8.36,8.36,0,1,0,1.56-.88c0,.08.09.17.14.26,1.28,2.26,2.57,4.52,3.84,6.79a1.33,1.33,0,0,1,.17.73.81.81,0,0,1-.7.71.89.89,0,0,1-1-.49l-2.7-4.76c-.45-.78-.89-1.57-1.34-2.36M18.41,21.57H10.2a.88.88,0,0,1-.81-1.37L9.48,20l3.82-6.73c0-.08.09-.17.14-.26a8.36,8.36,0,1,0,5,8.52m4.44-3L17.62,9.33c-.6,1-1.15,2-1.72,3a10.3,10.3,0,0,1,4.35,7.43h1.83c.06,0,.13-.07.17-.12.2-.36.39-.71.6-1.11M11.67,19.77h6.77A8.4,8.4,0,0,0,15,13.93l-3.34,5.84m13.42,2.17a1.25,1.25,0,0,0,1.25-1.26,1.25,1.25,0,1,0-1.25,1.26"/></g></g></svg>