<svg xmlns="http://www.w3.org/2000/svg" xmlns:xlink="http://www.w3.org/1999/xlink" viewBox="0 0 56.58 31.07"><defs><style>.cls-1{fill:url(#linear-gradient);}</style><linearGradient id="linear-gradient" y1="15.53" x2="56.58" y2="15.53" gradientUnits="userSpaceOnUse"><stop offset="0" stop-color="#8c0f02"/><stop offset="1" stop-color="#ff1124"/></linearGradient></defs><g id="Layer_2" data-name="Layer 2"><g id="Layer_1-2" data-name="Layer 1"><path class="cls-1" d="M14.83,29.58A9.69,9.69,0,0,1,2.45,27.83,9.52,9.52,0,0,1,2.49,15c3.46-4,8.43-4.16,14.31-.32l1.34-1C14,9.16,8.82,7.5,3,7.45c-.95,0-1.83,0-2.4-1.19a30.25,30.25,0,0,1,8.93-.59c4,.54,7.9,1.25,11.91.9a2.59,2.59,0,0,1,2.92,1.65c1.12,2.71,3,3.39,5.81,2.84,2.11-.4,3.56-1.18,4.28-3.19.27-.77.58-1.53.8-2.31a3,3,0,0,0-2.87-3.81c-1.23,0-2.46.07-3.68,0-.39,0-.75-.51-1.13-.79.38-.28.75-.78,1.15-.81C30.18,0,31.65.17,33.08,0a2.68,2.68,0,0,1,3,1.7A2.39,2.39,0,0,0,37.6,2.94c2.36.25,2.37.18,2.95,2.48a5.28,5.28,0,0,0,.25,1.06c.47.94,0,1.37-.85,1.52.27.91.7,1.09,1.54.8a19.31,19.31,0,0,1,7.93-.73,1.86,1.86,0,0,1,1.94,1.78c-3.35-.69-6.63-.87-9.84.84l1.19,1.88c6.1-1.71,10.71,0,13,4.66a9.81,9.81,0,0,1-3.11,12,9.64,9.64,0,0,1-12.35-1.05,9,9,0,0,1-2.77-5.47,9.76,9.76,0,0,1,3.76-9.11l-1.49-2.31a41.76,41.76,0,0,0-3.56,5.14,39,39,0,0,0-1.79,5.77h-12L19.62,14.9,17.8,16.22C20.68,21.46,19,26.86,14.83,29.58ZM5.11,15.73A7.29,7.29,0,0,0,3.7,25.52a7.18,7.18,0,0,0,9.88,2,7.12,7.12,0,0,0,2.24-9.78c-1,.8-2.11,1.54-3.06,2.41-.29.26-.27.9-.3,1.37a2.83,2.83,0,0,1-2.93,2.77,3,3,0,0,1-2.81-3c0-1.53,1.51-3.08,3-2.68,1.82.5,2.78-.54,3.93-1.42.35-.27.67-.59,1-.88C12.44,13.66,8.11,13.41,5.11,15.73ZM46,18.08a2,2,0,0,0,1.25.5,2.78,2.78,0,0,1,2.54,3.1,2.9,2.9,0,0,1-3.28,2.53A2.83,2.83,0,0,1,44.16,21c.1-.61.54-1.32.34-1.78a27.29,27.29,0,0,0-1.93-3.39A7,7,0,0,0,40.8,25.2,7.26,7.26,0,0,0,53.4,18a7.08,7.08,0,0,0-9.32-3.13C44.74,16,45.31,17.09,46,18.08Z"/></g></g></svg>