<svg xmlns="http://www.w3.org/2000/svg" xmlns:xlink="http://www.w3.org/1999/xlink" viewBox="0 0 45.38 31.84"><defs><style>.cls-1{fill:url(#linear-gradient);}.cls-2{fill:url(#linear-gradient-2);}.cls-3{fill:url(#linear-gradient-3);}.cls-4{fill:url(#linear-gradient-4);}.cls-5{fill:url(#linear-gradient-5);}.cls-6{fill:url(#linear-gradient-6);}.cls-7{fill:url(#linear-gradient-7);}.cls-8{fill:url(#linear-gradient-8);}.cls-9{fill:url(#linear-gradient-9);}.cls-10{fill:url(#linear-gradient-10);}</style><linearGradient id="linear-gradient" x1="-7.68" y1="18.83" x2="46.06" y2="18.83" gradientUnits="userSpaceOnUse"><stop offset="0" stop-color="#8c0f02"/><stop offset="1" stop-color="#ff1124"/></linearGradient><linearGradient id="linear-gradient-2" x1="-7.68" y1="6.42" x2="46.06" y2="6.42" xlink:href="#linear-gradient"/><linearGradient id="linear-gradient-3" x1="-7.68" y1="8.22" x2="46.06" y2="8.22" xlink:href="#linear-gradient"/><linearGradient id="linear-gradient-4" x1="-7.68" y1="3.17" x2="46.06" y2="3.17" xlink:href="#linear-gradient"/><linearGradient id="linear-gradient-5" x1="-7.68" y1="5.83" x2="46.06" y2="5.83" xlink:href="#linear-gradient"/><linearGradient id="linear-gradient-6" x1="-7.68" y1="0.94" x2="46.06" y2="0.94" xlink:href="#linear-gradient"/><linearGradient id="linear-gradient-7" x1="-7.68" y1="1.32" x2="46.06" y2="1.32" xlink:href="#linear-gradient"/><linearGradient id="linear-gradient-8" x1="-7.68" y1="1.91" x2="46.06" y2="1.91" xlink:href="#linear-gradient"/><linearGradient id="linear-gradient-9" x1="-7.68" y1="7.24" x2="46.06" y2="7.24" xlink:href="#linear-gradient"/><linearGradient id="linear-gradient-10" x1="-7.68" y1="2.9" x2="46.06" y2="2.9" xlink:href="#linear-gradient"/></defs><g id="Layer_2" data-name="Layer 2"><g id="Layer_1-2" data-name="Layer 1"><path class="cls-1" d="M13.52,31.84a13.63,13.63,0,0,1-9-3.48A13,13,0,0,1,.61,22.47,12.35,12.35,0,0,1,.87,14.1,12.92,12.92,0,0,1,10.66,6a13.54,13.54,0,0,1,7.47.79,14.5,14.5,0,0,1,5.48,3.73,11.53,11.53,0,0,1,1.32,1.7,11,11,0,0,1,1,1.92,11.39,11.39,0,0,1,.64,2.08,11.58,11.58,0,0,1-.79,7.11,14.5,14.5,0,0,1-6.62,7,12.1,12.1,0,0,1-4.3,1.37C14.38,31.79,13.88,31.81,13.52,31.84ZM1.76,18.74c0,.23,0,.65.05,1.06a4.23,4.23,0,0,0,.13.71c.06.19.15.23.35.17a.61.61,0,0,0,.41-.44,3.81,3.81,0,0,0,.19-.81c.15-1,.26-2.07.41-3.1A7.75,7.75,0,0,1,4,14a11.4,11.4,0,0,1,1.68-2.46A7.56,7.56,0,0,1,9.55,9.14a1.64,1.64,0,0,0,.55-.26.8.8,0,0,0,.31-.32.3.3,0,0,0-.27-.49,1.92,1.92,0,0,0-.58.07A10.56,10.56,0,0,0,4.73,11a9.37,9.37,0,0,0-2.31,3.57A12.88,12.88,0,0,0,1.76,18.74Z"/><path class="cls-2" d="M13.35,5.21c.05-.21.1-.42.16-.62.14-.44.29-.87.44-1.3A1.59,1.59,0,0,1,14.11,3a.48.48,0,0,1,.41-.25c.38,0,.76,0,1.13,0A23,23,0,0,1,20.9,3.85a10,10,0,0,1,2.82,1.37,3.54,3.54,0,0,1,.89.88,2.09,2.09,0,0,1,.26,2c-.27.67-.58,1.33-.88,2A15.77,15.77,0,0,0,13.35,5.21Z"/><path class="cls-3" d="M38.59,8.39l-1.22-.74,1.41-.33-1-2.38,0,0,2.33,1.29.06-1.6,1.25,1.13L44.28,3.5h0l-1.2,2.84L45.36,7,43.28,8l2.1,2.94,0,0L41.81,9.64v1.54l-1.17-1-1.79,2.74h0l.38-3.09L36.4,9.71v0Z"/><path class="cls-4" d="M30.52,1.73A22,22,0,0,1,32.67,4l0,0-1.56.57a.14.14,0,0,1-.13,0,13.41,13.41,0,0,0-2.05-1.7A6.91,6.91,0,0,1,30.52,1.73Z"/><path class="cls-5" d="M31.37,5.13a3.54,3.54,0,0,1,.5-.27c.37-.14.76-.27,1.14-.39,0,0,.11,0,.15,0a6.78,6.78,0,0,0,1.2,1c.28.17.57.31.86.46l.16.08-.46.36-1,.73c-.05,0-.09.07-.15,0a14.44,14.44,0,0,1-2-1.6C31.64,5.44,31.52,5.29,31.37,5.13Z"/><path class="cls-6" d="M24,1.89c-.07-.35-.14-.67-.2-1,0-.15-.05-.31-.08-.46s0-.11.07-.13a6.8,6.8,0,0,1,3-.23h0L26,1.83A5,5,0,0,0,24,1.89Z"/><path class="cls-7" d="M26.63,1.94A6.82,6.82,0,0,1,27.37.26a.12.12,0,0,1,.11,0,7.26,7.26,0,0,1,2.4,1.05s0,0,0,0l-.51.31a5,5,0,0,0-1,.77.24.24,0,0,1-.16.05L26.68,2S26.65,2,26.63,1.94Z"/><path class="cls-8" d="M23,.59l.34,1.5a4.3,4.3,0,0,0-1.67,1.14c-.2-.32-.42-.62-.59-.93s-.24-.29.11-.59A7.55,7.55,0,0,1,22.85.65Z"/><path class="cls-9" d="M35.89,7.41l1.22.74a7.82,7.82,0,0,1-2.56-.62l.12-.09,1.38-1.06a.26.26,0,0,1,.23,0l1.41.2c.11,0,.18,0,.21.15s.06.14.1.24Z"/><path class="cls-10" d="M21.23,3.45l-1.37-.4.6-.69Z"/></g></g></svg>