<svg xmlns="http://www.w3.org/2000/svg" xmlns:xlink="http://www.w3.org/1999/xlink" viewBox="0 0 66.43 23.05"><defs><style>.cls-1{fill:url(#linear-gradient);}.cls-2{fill:url(#linear-gradient-2);}.cls-3{fill:url(#linear-gradient-3);}</style><linearGradient id="linear-gradient" x1="-8.31" y1="9.36" x2="73.23" y2="9.36" gradientUnits="userSpaceOnUse"><stop offset="0" stop-color="#8c0f02"/><stop offset="1" stop-color="#ff1124"/></linearGradient><linearGradient id="linear-gradient-2" x1="-8.31" y1="17.78" x2="73.23" y2="17.78" xlink:href="#linear-gradient"/><linearGradient id="linear-gradient-3" x1="-8.31" y1="17.78" x2="73.23" y2="17.78" xlink:href="#linear-gradient"/></defs><g id="Layer_2" data-name="Layer 2"><g id="Layer_1-2" data-name="Layer 1"><path class="cls-1" d="M11,11.55a6.28,6.28,0,0,0-4,.8,6.59,6.59,0,0,0-3.19,5,8.06,8.06,0,0,1-2.38-1.06A4.44,4.44,0,0,1,.13,14a13.88,13.88,0,0,1,0-4.12,32.26,32.26,0,0,1,1.17-3.9.76.76,0,0,1,.73-.59c.65-.1,1.29-.24,2-.37-.15-.29-.24-.5-.36-.69A4,4,0,0,0,1.62,2.61,1.57,1.57,0,0,1,.35,1.13c1.25.09,2.44.16,3.63.3a1.26,1.26,0,0,1,.79.48c.62.92,1.17,1.87,1.77,2.86,1.46-.48,2.93-.83,4.3-1.41A41.47,41.47,0,0,1,28.42,0,24.84,24.84,0,0,1,40.93,3.47c1.06.64,2.19,1.17,3.28,1.78a7.29,7.29,0,0,0,3.56,1c1.29,0,2.59,0,3.87.11A38.5,38.5,0,0,1,55.92,7c1.09.24,2.14.64,3.22,1,.84.24,1.71.4,2.52.71a5,5,0,0,1,3.59,4.55,19.92,19.92,0,0,1,0,2.89c0,.48.06.77.54.95s.82.34.6.81c-.1.23-.56.4-.87.42-1.9.13-3.82.2-5.73.28a2.12,2.12,0,0,1-.44-.06c-.32-4.29-2.48-6.8-5.95-7A6.18,6.18,0,0,0,49,12.94a6.32,6.32,0,0,0-2.28,5.77l-30-.53C16,14.06,14.14,11.92,11,11.55ZM26.56,2.23V6.88h16.3A25.82,25.82,0,0,0,26.56,2.23Zm-1.19.06c-6.47,0-12.3,2.4-18.31,4.6H25.37Z"/><path class="cls-2" d="M52.88,12.5a5.28,5.28,0,1,1-5.24,5.31A5.29,5.29,0,0,1,52.88,12.5Zm2.58,5.29A2.5,2.5,0,0,0,53,15.3a2.48,2.48,0,1,0,0,5A2.49,2.49,0,0,0,55.46,17.79Z"/><path class="cls-3" d="M10.12,12.5a5.28,5.28,0,1,1-5.24,5.31A5.31,5.31,0,0,1,10.12,12.5Zm2.58,5.29a2.5,2.5,0,1,0-2.47,2.47A2.5,2.5,0,0,0,12.7,17.79Z"/></g></g></svg>