<svg xmlns="http://www.w3.org/2000/svg" xmlns:xlink="http://www.w3.org/1999/xlink" viewBox="0 0 63.42 21.65"><defs><style>.cls-1{fill:url(#linear-gradient);}.cls-2{fill:url(#linear-gradient-2);}</style><linearGradient id="linear-gradient" x1="5.17" y1="10.82" x2="63.42" y2="10.82" gradientUnits="userSpaceOnUse"><stop offset="0" stop-color="#8c0f02"/><stop offset="1" stop-color="#ff1124"/></linearGradient><linearGradient id="linear-gradient-2" x1="0" y1="15.36" x2="11.14" y2="15.36" xlink:href="#linear-gradient"/></defs><g id="Layer_2" data-name="Layer 2"><g id="Layer_1-2" data-name="Layer 1"><path class="cls-1" d="M63.42,4.4a9.79,9.79,0,0,1-5.76,4.51C45,13.06,32.28,17.26,19.58,21.42a3.33,3.33,0,0,1-1.35.22q-5.81-.59-11.6-1.24a3,3,0,0,1-1.46-.64l18.76-6.51-9.17-11c.68-.72,1.32-1.47,2-2.12.17-.16.67-.1.95,0Q27.65,4,37.51,8a2.66,2.66,0,0,0,2,0q8.58-2.9,17.19-5.73a8.37,8.37,0,0,1,5.26,0,7.2,7.2,0,0,1,1.48.91Z"/><path class="cls-2" d="M11.14,16.47c-2.25.79-4.23,1.5-6.22,2.16a.89.89,0,0,1-.74-.28C2.79,16.77,1.43,15.16,0,13.49A16.48,16.48,0,0,1,1.39,12.2a.85.85,0,0,1,.76-.08C5.07,13.51,8,14.92,11.14,16.47Z"/></g></g></svg>